<svg width="219" height="219" viewBox="0 0 219 219" fill="none" xmlns="http://www.w3.org/2000/svg">
<path d="M109.498 218.999C169.973 218.999 218.997 169.975 218.997 109.5C218.997 49.0248 169.973 0 109.498 0C49.0241 0 0 49.0248 0 109.5C0 169.975 49.0241 218.999 109.498 218.999Z" fill="#D8D8D8"/>
<path d="M158.686 206.753L82.199 150.569L136.967 90.6069L216.287 134.988C205.333 174.648 173.322 199.356 158.686 206.753Z" fill="#D1D1D1"/>
<path d="M101.871 158.492C99.7262 158.492 97.5819 158.492 95.4376 158.492C95.0087 158.278 94.3654 158.278 93.9366 158.063C92.0067 157.206 90.0768 156.348 88.3614 155.276C84.7161 153.346 82.3573 150.129 79.5697 147.127C78.0687 144.554 76.3532 142.195 75.0666 139.622C73.78 137.478 72.9223 135.119 71.8502 132.76C71.4213 131.259 70.778 129.544 70.3491 128.043C69.9203 126.756 69.7058 125.684 69.277 124.397C68.8481 122.896 68.6337 121.395 68.4193 119.68C67.9904 116.034 67.776 112.603 67.5615 108.958C67.776 107.457 67.776 105.741 67.9904 104.24C68.4193 102.954 68.6337 101.667 68.8481 100.381C69.4914 98.8796 70.3491 97.3786 70.9924 95.8775C72.9223 93.7332 74.6378 91.5888 76.7821 89.8733C80.6418 86.4423 85.3593 84.7269 90.2913 83.2259C92.2211 82.797 94.151 82.3682 96.0809 81.9393C98.2252 81.5105 100.155 81.296 102.299 81.0815C104.229 84.7269 104.873 88.5868 104.873 92.661C104.444 92.661 103.8 92.661 103.372 92.4465C101.442 91.5888 99.7262 90.9455 97.7964 90.0878C96.5098 89.4445 94.7943 89.4445 94.151 90.5167C93.2933 91.5889 93.7222 93.3042 95.2232 94.162C95.8665 94.5908 96.7242 95.0198 97.3675 95.4487C104.658 98.8796 111.949 98.4507 118.811 94.162C120.097 93.3042 120.526 91.8032 119.883 90.7311C119.025 89.4445 117.738 89.4445 116.237 90.0878C114.093 91.16 111.734 91.8033 109.59 92.661C109.59 91.5889 109.376 90.3022 109.376 89.0156C114.736 89.2301 119.668 88.1579 124.171 85.3702C127.817 86.8713 131.033 89.0157 133.821 91.5889C138.109 95.6631 140.468 100.595 140.897 106.385C141.326 112.818 140.468 119.036 138.967 125.255C137.466 131.688 134.893 137.692 131.462 143.267C128.246 148.414 124.386 152.917 119.025 156.133C117.524 156.991 116.023 157.635 114.308 158.278C111.306 157.849 108.947 156.133 106.802 153.989C105.945 156.562 104.229 157.849 101.871 158.492Z" fill="#E6E6E6"/>
<path d="M114.522 158.277C116.023 157.634 117.739 156.991 119.24 156.133C124.601 153.131 128.461 148.628 131.677 143.267C135.108 137.692 137.467 131.473 139.182 125.254C140.683 119.036 141.755 112.817 141.112 106.384C140.683 100.595 138.324 95.6626 134.036 91.5884C131.248 88.8007 128.032 86.8708 124.386 85.3697C125.03 84.9408 125.673 84.2975 126.102 83.8687C132.749 86.013 138.539 89.2295 142.613 95.0192C145.615 99.3079 147.116 104.025 146.902 109.172C146.473 123.11 142.827 135.976 134.465 147.341C131.034 151.844 127.174 155.49 121.599 157.634C120.741 157.848 120.098 158.063 119.24 158.492C117.524 158.492 116.023 158.492 114.522 158.277C114.522 158.277 114.522 158.492 114.522 158.277Z" fill="#F4F4F4"/>
<path d="M107.233 80.4382C107.233 80.4382 107.233 80.2237 107.447 80.2237C108.09 78.0794 108.734 75.9351 109.806 74.0052C112.593 68.6444 117.311 66.2856 122.886 65.4279C124.602 65.2135 126.317 65.2135 128.033 64.999C128.033 66.0712 127.818 67.1434 127.818 68.2155C127.604 71.8609 126.532 75.5062 124.387 78.5083C120.742 83.8691 115.167 85.5846 108.948 86.0134C108.305 84.0835 107.662 82.1537 107.233 80.4382Z" fill="#F3F3F3"/>
<path d="M108.733 85.7989C114.952 85.3701 120.313 83.6546 124.172 78.2938C126.317 75.2917 127.389 71.6464 127.603 68.001C127.603 66.9289 127.818 65.8567 127.818 64.7845C130.391 64.3557 131.249 64.7844 131.249 67.3576C131.249 71.8607 130.82 76.1494 128.461 80.2236C127.818 81.5102 126.746 82.7968 125.888 83.869C125.245 84.2978 124.601 84.9412 124.172 85.37C119.669 88.1577 114.737 89.2298 109.377 89.0154C109.162 88.1577 108.948 86.8711 108.733 85.7989Z" fill="#F3F3F3"/>
<path d="M90.5065 68.0008C90.5065 67.7863 90.5065 67.5718 90.5065 67.3573C91.5786 65.213 92.6508 64.9986 94.5807 66.0708C95.0095 66.2852 95.4384 66.4996 95.8673 66.7141C97.5827 68.2151 99.2981 69.7162 101.014 71.2173C102.943 74.2193 104.873 77.2213 107.018 80.2234C107.661 81.9388 108.09 83.8687 108.733 85.5842C108.948 86.6564 109.162 87.7286 109.376 89.0152C109.376 90.0874 109.591 91.374 109.591 92.6606C108.09 92.6606 106.374 92.6606 104.873 92.6606C104.873 88.5864 104.23 84.7265 102.3 81.0812C101.014 77.8646 98.8693 75.077 96.2961 72.9327C95.0095 71.8605 93.7229 71.0027 92.4363 69.9306C91.5786 69.5017 91.1498 68.6441 90.5065 68.0008Z" fill="#F3F3F3"/>
<path d="M104.873 92.8755C106.374 92.8755 108.089 92.8755 109.59 92.8755C111.735 92.0178 114.093 91.3745 116.238 90.3023C117.739 89.659 119.025 89.659 119.883 90.9456C120.526 92.0177 120.097 93.5189 118.811 94.3766C111.949 98.4509 104.873 99.0941 97.3676 95.6632C96.5099 95.2343 95.8666 94.8055 95.2233 94.3766C93.9367 93.5189 93.5078 91.8034 94.1511 90.7312C94.7944 89.659 96.2954 89.659 97.7965 90.3023C99.5119 91.16 101.442 92.0179 103.372 92.6612C103.801 92.8756 104.444 92.6611 104.873 92.8755Z" fill="#E6E6E6"/>
</svg>
