<svg width="219" height="219" viewBox="0 0 219 219" fill="none" xmlns="http://www.w3.org/2000/svg">
<path d="M109.499 218.999C169.973 218.999 218.997 169.975 218.997 109.5C218.997 49.0247 169.973 0 109.499 0C49.0242 0 0 49.0247 0 109.5C0 169.975 49.0242 218.999 109.499 218.999Z" fill="#D8D8D8"/>
<mask id="mask0_405_995" style="mask-type:alpha" maskUnits="userSpaceOnUse" x="-1" y="0" width="220" height="219">
<path d="M109.498 219C169.973 219 218.997 169.975 218.997 109.5C218.997 49.0251 169.973 0.000488281 109.498 0.000488281C49.024 0.000488281 -0.00012207 49.0251 -0.00012207 109.5C-0.00012207 169.975 49.024 219 109.498 219Z" fill="#F8E1E1"/>
</mask>
<g mask="url(#mask0_405_995)">
<path opacity="0.5" d="M296.632 222.266C296.632 213.484 293.455 206.383 287.476 200.777C287.102 200.404 286.728 200.03 286.355 199.656C285.981 199.282 285.607 198.909 285.234 198.535C284.86 198.161 284.486 197.788 284.112 197.414C283.739 197.04 283.365 196.666 282.991 196.293C282.618 195.919 282.431 195.732 282.057 195.358C282.244 194.798 282.244 194.05 282.431 193.49C282.804 186.95 280.749 181.531 276.451 177.607C276.078 177.233 275.704 176.859 275.33 176.486C274.956 176.112 274.583 175.738 274.209 175.364C273.835 174.991 273.462 174.617 273.088 174.243C272.714 173.87 272.34 173.496 271.967 173.122C271.593 172.748 271.219 172.375 270.846 172.001C270.659 171.814 270.472 171.627 270.472 171.44C269.351 165.087 266.735 159.855 262.624 155.931C262.25 155.557 261.876 155.184 261.503 154.81C261.129 154.436 260.755 154.062 260.381 153.689C260.008 153.315 259.634 152.941 259.26 152.568C258.887 152.194 258.513 151.82 258.139 151.446C257.766 151.073 257.392 150.699 257.018 150.325C256.644 149.952 256.271 149.578 255.897 149.204C255.523 148.83 255.149 148.457 254.776 148.083C254.402 147.709 254.028 147.335 253.655 146.962C253.281 146.588 252.907 146.214 252.534 145.841C252.16 145.467 251.786 145.093 251.412 144.719C251.039 144.346 250.665 143.972 250.291 143.598C249.917 143.225 249.544 142.851 249.17 142.477C248.796 142.103 248.423 141.73 248.049 141.356C247.675 140.982 247.302 140.609 246.928 140.235C246.554 139.861 246.18 139.487 245.807 139.114C245.433 138.74 245.059 138.366 244.685 137.993C244.312 137.619 243.938 137.245 243.564 136.871C243.191 136.498 242.817 136.124 242.443 135.75C242.069 135.376 241.696 135.003 241.322 134.629C240.948 134.255 240.575 133.882 240.201 133.508C239.827 133.134 239.453 132.76 239.08 132.387C238.706 132.013 238.332 131.639 237.959 131.266C237.585 130.892 237.211 130.518 236.837 130.144C236.464 129.771 236.09 129.397 235.716 129.023C235.343 128.65 234.969 128.276 234.595 127.902C234.221 127.528 233.848 127.155 233.474 126.781C233.1 126.407 232.727 126.034 232.353 125.66C231.979 125.286 231.605 124.912 231.232 124.539C230.858 124.165 230.484 123.791 230.111 123.418C229.737 123.044 229.363 122.67 228.989 122.296C228.616 121.923 228.242 121.549 227.868 121.175C227.495 120.801 227.121 120.428 226.747 120.054C226.373 119.68 226 119.307 225.626 118.933C225.252 118.559 224.879 118.185 224.505 117.812C224.131 117.438 223.757 117.064 223.384 116.691C223.01 116.317 222.636 115.943 222.263 115.569C221.889 115.196 221.515 114.822 221.141 114.448C220.768 114.074 220.394 113.701 220.02 113.327C219.647 112.953 219.273 112.58 218.899 112.206C218.525 111.832 218.152 111.458 217.778 111.085C217.404 110.711 217.031 110.337 216.657 109.964C216.283 109.59 215.909 109.216 215.536 108.842C215.162 108.469 214.788 108.095 214.415 107.721C214.041 107.348 213.667 106.974 213.293 106.6C212.92 106.226 212.546 105.853 212.172 105.479C211.799 105.105 211.425 104.732 211.051 104.358C210.677 103.984 210.304 103.61 209.93 103.237C209.556 102.863 209.183 102.489 208.809 102.115C208.435 101.742 208.061 101.368 207.688 100.994C207.314 100.621 206.94 100.247 206.567 99.8732C206.193 99.4995 205.819 99.1257 205.445 98.752C205.072 98.3783 204.698 98.0046 204.324 97.6308C203.951 97.2571 203.577 96.8834 203.203 96.5097C202.829 96.1359 202.456 95.7623 202.082 95.3886C201.708 95.0148 201.335 94.6411 200.961 94.2674C200.587 93.8937 200.213 93.5199 199.84 93.1462C199.466 92.7725 199.092 92.3988 198.719 92.025C198.345 91.6513 197.971 91.2776 197.597 90.9039C197.224 90.5302 196.85 90.1565 196.476 89.7828C196.103 89.409 195.729 89.0353 195.355 88.6616C194.981 88.2879 194.608 87.9141 194.234 87.5404C193.86 87.1667 193.487 86.793 193.113 86.4193C192.739 86.0455 192.365 85.6718 191.992 85.2981C191.618 84.9244 191.244 84.5507 190.871 84.177C190.497 83.8033 190.123 83.4295 189.749 83.0558C189.376 82.6821 189.002 82.3084 188.628 81.9346C188.255 81.5609 187.881 81.1872 187.507 80.8135C187.133 80.4397 186.76 80.066 186.386 79.6923C186.012 79.3186 185.639 78.9449 185.265 78.5712C184.891 78.1975 184.517 77.8237 184.144 77.45C183.77 77.0763 183.396 76.7026 183.023 76.3288C182.649 75.9551 182.275 75.5814 181.901 75.2077C181.528 74.834 181.154 74.4602 180.78 74.0865C180.406 73.7128 180.033 73.3391 179.659 72.9654C179.285 72.5917 178.912 72.2179 178.538 71.8442C178.164 71.4705 177.791 71.0968 177.417 70.7231C177.043 70.3493 176.669 69.9756 176.296 69.6019C175.922 69.2282 175.548 68.8544 175.174 68.4807C174.801 68.107 174.427 67.7333 174.053 67.3596C173.68 66.9859 173.306 66.6122 172.932 66.2384C172.559 65.8647 172.185 65.491 171.811 65.1173C171.437 64.7436 171.064 64.3698 170.69 63.9961C170.316 63.6224 169.942 63.2487 169.569 62.8749C169.195 62.5012 168.821 62.1275 168.448 61.7538C168.074 61.3801 167.7 61.0064 167.327 60.6326C166.953 60.2589 166.579 59.8852 166.205 59.5115C165.832 59.1378 165.458 58.764 165.084 58.3903C164.71 58.0166 164.337 57.6429 163.963 57.2691C163.589 56.8954 163.216 56.5217 162.842 56.148C162.468 55.7743 162.095 55.4006 161.721 55.0269C161.347 54.6531 160.973 54.2794 160.6 53.9057C160.226 53.532 159.852 53.1582 159.478 52.7845C159.105 52.4108 158.731 52.0371 158.357 51.6634C157.984 51.2896 157.61 50.916 157.236 50.5422C156.863 50.1685 156.489 49.7948 156.115 49.4211C155.741 49.0474 155.368 48.6736 154.994 48.2999C154.62 47.9262 154.246 47.5525 153.873 47.1787C153.499 46.805 153.125 46.4313 152.752 46.0576C152.378 45.6838 152.004 45.3102 151.63 44.9365C151.257 44.5627 150.883 44.189 150.509 43.8153C147.893 41.1992 144.717 38.9569 140.793 37.2752C138.55 36.3409 136.121 35.9672 133.879 35.2197C131.637 35.2197 129.394 35.2197 126.965 35.4066C125.097 35.9672 123.228 36.3409 121.36 37.0883C117.436 38.5832 114.072 40.8255 111.082 43.8153C110.709 44.189 110.335 44.5627 109.774 44.9365V44.7496C107.345 42.881 105.103 40.8255 102.674 38.9569C99.6841 36.9015 96.3207 35.9672 92.7704 35.4066C92.5835 35.4066 92.3966 35.2197 92.2098 35.2197C90.1544 35.2197 88.0989 35.2197 85.8566 35.2197C83.8012 35.7803 81.7458 36.154 79.6904 36.7146C70.5344 40.2649 64.9286 46.9919 62.8732 56.7086C62.6863 57.2692 62.6863 58.0166 62.4995 58.7641C62.4995 59.6984 61.9389 60.4458 61.0046 60.8195C55.3989 63.9961 51.8486 68.6676 51.1012 75.0208C50.7274 77.2631 51.1012 79.5055 51.1012 81.7478C51.1012 82.3083 50.9143 82.8689 50.5406 83.0558C46.056 86.0456 42.6926 89.5959 40.0766 94.2674C38.3949 97.444 37.2737 100.807 36.9 104.171C36.9 104.545 36.7131 104.918 36.7131 105.292C36.7131 107.534 36.7131 109.59 36.7131 111.832C37.2737 113.514 37.6474 115.382 38.208 117.064C39.7029 121.923 42.3189 126.034 45.8692 129.397C46.2429 129.771 46.6166 130.144 46.9903 130.518C47.364 130.892 47.7377 131.266 48.1114 131.639C48.4851 132.013 48.8589 132.387 49.2326 132.76C49.6063 133.134 49.98 133.508 50.3537 133.882C50.7274 134.255 51.1012 134.629 51.4749 135.003C51.4749 135.003 51.4749 135.003 51.4749 135.19C50.3537 141.543 52.0354 147.336 56.52 152.007C56.8937 152.381 57.0806 152.568 57.4543 152.941C57.4543 152.941 57.4543 152.941 57.6412 153.128C58.0149 153.502 58.2017 153.689 58.5755 154.062C58.5755 154.062 58.5755 154.062 58.7623 154.249C59.136 154.623 59.3229 154.81 59.6966 155.184C59.6966 155.184 59.6966 155.184 59.8835 155.37C60.2572 155.744 60.444 155.931 60.8178 156.305C60.8178 156.305 60.8178 156.305 61.0046 156.492C61.3783 156.865 61.5652 157.052 61.9389 157.426C61.9389 157.426 61.9389 157.426 62.1257 157.613C62.4994 157.987 62.6863 158.173 63.06 158.547C63.06 158.547 63.06 158.547 63.2469 158.734L63.4338 158.921C64.368 165.087 67.1709 170.506 71.6555 174.617C72.0292 174.991 72.4029 175.364 72.7766 175.738C73.1503 176.112 73.5241 176.486 73.8978 176.859C74.2715 177.233 74.6452 177.607 75.0189 177.98C75.3927 178.354 75.7663 178.728 76.14 179.102C76.5138 179.475 76.8875 179.849 77.2612 180.223C77.6349 180.597 78.0086 180.97 78.3824 181.344C78.7561 181.718 79.1298 182.091 79.5035 182.465C79.8772 182.839 80.2509 183.213 80.6247 183.586C80.9984 183.96 81.372 184.334 81.7458 184.707C82.1195 185.081 82.4932 185.455 82.8669 185.829C83.2406 186.202 83.6144 186.576 83.9881 186.95C84.3618 187.323 84.7355 187.697 85.1092 188.071C85.4829 188.445 85.8567 188.818 86.2304 189.192C86.6041 189.566 86.9778 189.94 87.3515 190.313C87.7252 190.687 88.0989 191.061 88.4726 191.434C88.8464 191.808 89.2201 192.182 89.5938 192.556C89.9675 192.929 90.3412 193.303 90.715 193.677C91.0887 194.05 91.4624 194.424 91.8361 194.798C92.2098 195.172 92.5835 195.545 92.9572 195.919C93.3309 196.293 93.7047 196.666 94.0784 197.04C94.4521 197.414 94.8258 197.788 95.1995 198.161C95.5732 198.535 95.947 198.909 96.3207 199.282C96.6944 199.656 97.0681 200.03 97.4418 200.404C97.8155 200.777 98.1892 201.151 98.5629 201.525C98.9366 201.899 99.3104 202.272 99.6841 202.646C100.058 203.02 100.432 203.393 100.805 203.767C101.179 204.141 101.553 204.515 101.926 204.888C102.3 205.262 102.674 205.636 103.048 206.009C103.421 206.383 103.795 206.757 104.169 207.131C104.542 207.504 104.916 207.878 105.29 208.252C105.664 208.625 106.037 208.999 106.411 209.373C106.785 209.747 107.158 210.12 107.532 210.494C107.906 210.868 108.28 211.241 108.653 211.615C109.027 211.989 109.401 212.363 109.774 212.736C110.148 213.11 110.522 213.484 110.896 213.858C111.269 214.231 111.643 214.605 112.017 214.979C112.39 215.352 112.764 215.726 113.138 216.1C113.512 216.474 113.885 216.847 114.259 217.221C114.633 217.595 115.006 217.968 115.38 218.342C115.754 218.716 116.128 219.09 116.501 219.463C116.875 219.837 117.249 220.211 117.622 220.585C117.996 220.958 118.37 221.332 118.744 221.706C119.117 222.079 119.491 222.453 119.865 222.827C120.238 223.201 120.612 223.574 120.986 223.948C121.36 224.322 121.733 224.695 122.107 225.069C122.481 225.443 122.854 225.817 123.228 226.19C123.602 226.564 123.976 226.938 124.349 227.311C124.723 227.685 125.097 228.059 125.47 228.433C125.844 228.806 126.218 229.18 126.592 229.554C126.965 229.927 127.339 230.301 127.713 230.675C128.086 231.049 128.46 231.422 128.834 231.796C129.208 232.17 129.581 232.543 129.955 232.917C130.329 233.291 130.702 233.665 131.076 234.038C131.45 234.412 131.824 234.786 132.197 235.16C132.571 235.533 132.945 235.907 133.318 236.281C133.692 236.654 134.066 237.028 134.44 237.402C134.813 237.776 135.187 238.149 135.561 238.523C135.934 238.897 136.308 239.27 136.682 239.644C137.056 240.018 137.429 240.392 137.803 240.765C138.177 241.139 138.55 241.513 138.924 241.887C139.298 242.26 139.672 242.634 140.045 243.008C140.419 243.381 140.793 243.755 141.166 244.129C141.54 244.503 141.914 244.876 142.288 245.25C142.661 245.624 143.035 245.997 143.409 246.371C143.782 246.745 144.156 247.119 144.53 247.492C144.904 247.866 145.277 248.24 145.651 248.613C146.025 248.987 146.398 249.361 146.772 249.735C147.146 250.108 147.52 250.482 147.893 250.856C148.267 251.229 148.641 251.603 149.014 251.977C149.388 252.351 149.762 252.724 150.136 253.098C150.509 253.472 150.883 253.846 151.257 254.219C151.63 254.593 152.004 254.967 152.378 255.34C152.752 255.714 153.125 256.088 153.499 256.462C153.873 256.835 154.246 257.209 154.62 257.583C154.994 257.956 155.368 258.33 155.741 258.704C156.115 259.078 156.489 259.451 156.862 259.825C157.236 260.199 157.61 260.572 157.984 260.946C158.357 261.32 158.731 261.694 159.105 262.067C159.479 262.441 159.852 262.815 160.226 263.188C160.6 263.562 160.973 263.936 161.347 264.31C161.721 264.683 162.094 265.057 162.468 265.431C162.842 265.805 163.216 266.178 163.589 266.552C163.963 266.926 164.337 267.299 164.711 267.673C165.084 268.047 165.458 268.421 165.832 268.794C166.205 269.168 166.579 269.542 166.953 269.915C167.326 270.289 167.7 270.663 168.074 271.037C168.448 271.41 168.821 271.784 169.195 272.158C169.569 272.531 169.943 272.905 170.316 273.279C170.69 273.653 171.064 274.026 171.437 274.4C171.811 274.774 172.185 275.148 172.558 275.521C172.932 275.895 173.306 276.269 173.68 276.642C174.053 277.016 174.427 277.39 174.801 277.764C175.175 278.137 175.548 278.511 175.922 278.885C176.296 279.258 176.669 279.632 177.043 280.006C177.417 280.38 177.791 280.753 178.164 281.127C178.538 281.501 178.912 281.874 179.285 282.248C179.659 282.622 180.033 282.996 180.407 283.369C180.78 283.743 181.154 284.117 181.528 284.49C181.901 284.864 182.275 285.238 182.649 285.612C183.023 285.985 183.396 286.359 183.77 286.733C187.694 290.844 192.926 293.833 198.905 294.768C199.466 294.768 200.027 294.955 200.587 295.142C202.456 295.142 204.324 295.142 206.38 295.142C207.875 294.768 209.369 294.581 210.677 294.02C215.349 292.712 219.273 290.283 222.636 286.733C223.01 286.359 223.384 285.985 223.757 285.612C223.944 285.799 224.131 285.985 224.318 286.172C226.747 288.601 229.363 291.031 232.54 292.339C234.969 293.46 237.772 294.02 240.201 294.955C240.388 295.141 240.761 295.142 240.948 295.328C243.191 295.328 245.433 295.328 247.862 295.328C248.049 295.328 248.236 295.142 248.423 295.142C256.458 294.02 262.624 289.909 267.108 283.369C269.538 279.819 270.846 275.708 271.406 271.41C271.406 270.85 271.967 270.289 272.527 269.915C275.517 268.234 277.946 266.178 279.628 263.375C282.618 258.517 283.552 253.472 282.431 247.866C291.587 241.7 296.632 233.291 296.632 222.266Z" fill="#D1D1D1"/>
</g>
<path d="M85.7666 34.7561C87.8221 34.7561 89.8775 34.7561 92.1198 34.7561C92.3066 34.7561 92.4935 34.943 92.6804 34.943C96.2307 35.5036 99.5941 36.4378 102.584 38.4933C105.013 40.175 107.442 42.2305 109.684 44.286C109.684 51.0129 109.684 57.7398 109.684 64.6537C111.179 63.5325 111.927 62.5982 112.3 61.1033C112.674 59.2347 112.861 57.1793 113.422 55.4975C116.038 47.6494 124.633 42.2305 133.042 43.5385C140.516 44.6597 146.682 50.4523 148.364 57.553C148.551 58.6742 148.177 58.861 147.243 59.0479C144.44 59.4216 142.011 60.5428 139.768 62.0376C138.087 63.1588 137.339 65.0274 137.713 66.7091C138.46 69.8857 142.011 70.8201 144.627 69.1383C148.177 66.7092 152.101 66.7092 155.651 69.1383C159.202 71.5675 160.323 75.1178 159.949 79.4156C156.212 78.855 152.475 78.6682 148.738 79.2287C145.561 79.6025 143.692 82.4054 144.814 85.0214C145.748 87.2637 147.616 88.198 150.232 87.6374C154.717 86.89 159.015 87.4506 162.939 89.3192C170.787 93.2432 175.271 102.586 173.963 110.808C172.842 117.161 169.853 122.02 164.621 125.757C163.499 126.504 162.752 126.317 161.818 125.57C158.828 123.141 155.278 122.02 151.354 122.02C148.924 122.02 147.056 123.888 146.869 126.317C146.869 128.56 148.924 130.615 151.167 130.615C153.783 130.615 155.838 131.736 157.707 133.605C161.257 137.342 159.949 143.882 155.464 146.311C152.662 147.806 150.046 147.806 147.243 146.311C144.814 145.19 142.384 145.938 141.263 148.367C140.142 150.422 141.076 152.851 143.506 153.973C145.187 154.72 146.869 155.281 148.364 156.028C148.364 156.402 148.177 156.775 148.177 157.149C147.616 161.26 145.561 164.997 142.571 167.8C138.274 171.724 133.042 173.406 127.062 172.285C121.643 171.351 117.532 168.548 114.543 164.063C114.169 163.502 114.169 162.755 114.356 162.008C114.543 160.326 115.103 158.644 115.477 156.776C116.224 151.357 113.048 149.488 109.498 150.422C109.498 146.311 109.498 142.2 109.498 138.09C111.366 137.903 113.235 137.903 114.916 137.529C132.668 134.165 143.506 116.414 138.46 99.0359C134.91 87.2637 124.072 77.547 109.498 77.3601C109.498 73.0624 109.498 68.9514 109.498 64.6537C109.124 64.6537 108.937 64.4668 108.75 64.6537C105.76 65.4011 103.331 62.4114 103.705 59.7953C103.892 58.1136 104.079 56.245 104.639 54.5632C105.2 52.8815 104.826 51.7603 103.892 50.6392C103.144 49.8917 102.584 48.9575 101.836 48.21C97.3518 44.0991 91.9329 42.2305 85.7666 43.3517C76.9843 44.8465 70.6312 52.5078 70.6312 61.2902C70.6312 65.2143 71.9392 68.7646 73.9946 71.9412C75.6763 74.3704 74.1814 77.547 71.3786 78.2944C69.3231 78.855 67.4546 77.9207 66.1466 75.6784C65.0254 73.623 63.9043 71.3806 62.7832 69.1383C59.2329 71.9412 57.9249 77.3601 59.7934 81.471C61.2883 84.6476 60.5408 86.7031 57.3643 88.198C54.7483 89.506 52.506 91.0009 50.6374 93.0564C45.7791 98.4753 43.9105 104.642 45.4054 111.742C46.3397 116.788 48.9557 120.898 53.0666 123.701C57.3643 126.878 62.2226 128.186 67.4546 127.625C69.3232 127.439 70.4443 127.999 71.5654 129.307C72.6866 130.615 72.6866 132.11 71.9392 133.605C70.818 135.847 68.7626 136.221 66.7071 136.221C64.4648 136.221 62.4094 136.034 60.1671 135.66C59.4197 135.66 58.8592 135.847 59.046 136.595C59.2329 138.09 59.2329 139.584 59.6066 141.079C60.7277 144.817 63.3437 147.059 67.0809 148.18C69.51 148.927 70.2574 150.235 70.4443 152.851C70.6311 154.907 70.8181 156.776 71.1918 158.644C73.6209 167.8 83.5244 173.593 92.6804 171.351C100.902 169.482 106.882 162.194 106.882 153.599C106.882 151.73 108.003 150.235 109.498 150.049C109.498 156.962 109.498 163.876 109.498 170.79C109.124 171.164 108.563 171.537 108.19 172.098C104.826 175.648 100.902 177.891 96.2307 179.386C94.7358 179.759 93.2409 180.133 91.9329 180.507C90.0643 180.507 88.1958 180.507 86.1404 180.507C85.5798 180.32 85.0192 180.32 84.4586 180.133C72.6866 178.078 63.5306 168.735 62.0357 156.776C61.8488 155.841 61.4752 155.281 60.5409 154.72C58.8591 153.599 56.9905 152.478 55.4957 150.983C51.198 146.124 49.3294 140.519 50.4506 134.165C50.6374 133.231 50.2637 132.671 49.7032 132.297C43.9106 128.373 39.7997 123.141 37.7443 116.414C37.1837 114.732 36.81 112.864 36.2494 111.182C36.2494 108.939 36.2494 106.884 36.2494 104.642C36.2494 104.268 36.4363 103.894 36.4363 103.521C36.81 99.9702 37.9311 96.6067 39.6128 93.6169C42.0419 88.9454 45.5923 85.2082 50.0768 82.4053C50.4505 82.2185 50.6374 81.4711 50.6374 81.0973C50.6374 78.855 50.2637 76.6127 50.6374 74.3704C51.5717 68.0171 54.9351 63.1588 60.5409 60.169C61.4752 59.6085 61.8488 59.0479 62.0357 58.1136C62.0357 57.553 62.2226 56.8056 62.4094 56.0582C64.4649 46.5283 70.2575 39.8013 79.2266 36.0641C81.4689 35.8773 83.7112 35.5035 85.7666 34.7561Z" fill="#E6E6E6"/>
<path d="M133.602 34.7561C135.844 35.3167 138.273 35.8773 140.515 36.8116C149.858 40.7356 155.464 47.8363 156.959 57.9267C157.146 59.0479 157.519 59.9822 158.641 60.7296C165.741 65.0274 168.918 71.3806 168.544 79.6024C168.544 80.5367 168.17 81.471 168.17 82.4053C177.326 88.5717 182.558 96.9804 182.558 108.192C182.558 119.404 177.326 127.812 168.17 133.792C169.291 139.397 168.544 144.443 165.367 149.301C163.499 152.104 161.07 154.159 158.267 155.841C157.893 156.028 157.333 156.775 157.146 157.336C156.585 161.634 155.277 165.745 152.848 169.295C148.363 175.835 142.197 180.133 134.162 181.067C133.975 181.067 133.789 181.254 133.602 181.254C131.359 181.254 129.117 181.254 126.688 181.254C126.501 181.067 126.127 181.067 125.941 180.88C123.325 180.133 120.708 179.385 118.279 178.264C114.916 176.769 112.3 174.34 109.684 171.537C109.684 164.624 109.684 157.71 109.684 150.796V150.609C113.234 149.488 116.411 151.357 115.663 156.962C115.477 158.644 114.916 160.326 114.542 162.194C114.355 162.755 114.542 163.689 114.729 164.25C117.719 168.921 121.83 171.537 127.249 172.472C133.228 173.593 138.46 171.911 142.758 167.987C145.934 165.184 147.803 161.634 148.363 157.336C148.363 156.962 148.55 156.589 148.55 156.215C146.869 155.654 145.187 154.907 143.692 154.159C141.263 153.038 140.329 150.609 141.45 148.554C142.571 146.124 145 145.377 147.429 146.498C150.232 147.806 152.848 147.993 155.651 146.498C160.135 144.069 161.257 137.529 157.893 133.792C156.211 131.923 154.156 130.802 151.353 130.802C149.111 130.802 147.055 128.746 147.055 126.504C147.055 124.075 148.924 122.206 151.54 122.206C155.464 122.206 158.827 123.328 162.004 125.757C162.938 126.504 163.686 126.504 164.807 125.944C170.039 122.206 173.029 117.348 174.15 110.995C175.458 102.96 170.973 93.43 163.125 89.506C159.014 87.4505 154.903 87.0768 150.419 87.8243C147.803 88.198 145.934 87.4505 145 85.2082C143.879 82.5922 145.747 79.7893 148.924 79.4156C152.661 78.855 156.398 79.0418 160.135 79.6024C160.509 75.3046 159.388 71.7543 155.838 69.3251C152.287 66.896 148.363 67.0828 144.813 69.3251C142.197 71.0069 138.647 70.0726 137.899 66.896C137.526 65.2142 138.273 63.3456 139.955 62.2245C142.197 60.7296 144.626 59.6084 147.429 59.2347C148.363 59.0479 148.737 58.861 148.55 57.7399C146.869 50.6392 140.889 44.8466 133.228 43.7254C124.819 42.4174 116.224 47.6494 113.608 55.6844C113.047 57.553 112.674 59.4216 112.487 61.2902C112.3 62.7851 111.366 63.7194 109.871 64.8405C109.871 57.7398 109.871 51.0129 109.871 44.4728C110.244 44.0991 110.618 43.7254 111.179 43.3517C114.169 40.3619 117.532 38.1196 121.456 36.6247C123.325 36.0641 125.193 35.5036 127.062 34.943C129.117 34.7561 131.359 34.7561 133.602 34.7561Z" fill="#F3F3F3"/>
<path d="M109.684 150.609V150.796C108.189 151.17 107.255 152.665 107.068 154.346C107.068 162.755 101.088 170.042 92.8668 172.098C83.7108 174.153 73.8073 168.548 71.3782 159.392C70.8176 157.523 70.6308 155.467 70.6308 153.599C70.4439 151.17 69.6965 149.675 67.2673 148.927C63.7171 147.806 61.1011 145.564 59.7931 141.827C59.4193 140.332 59.4193 138.837 59.2324 137.342C59.2324 136.595 59.6062 136.221 60.3536 136.408C62.5959 136.595 64.6513 136.968 66.8936 136.968C68.949 136.968 71.0045 136.595 72.1257 134.352C72.8731 132.857 72.6862 131.363 71.7519 130.054C70.8176 128.746 69.5096 127.999 67.641 128.373C62.409 128.933 57.5508 127.625 53.253 124.449C49.1422 121.459 46.5262 117.348 45.5919 112.49C44.097 105.389 45.9656 99.2226 50.8239 93.8037C52.6924 91.7483 55.1216 90.2534 57.5507 88.9453C60.7273 87.4505 61.2879 85.3951 59.9799 82.2184C58.1114 78.1075 59.4193 72.6886 62.9696 69.8857C64.0907 72.128 65.0251 74.1835 66.3331 76.4258C67.6411 78.6681 69.5096 79.6024 71.565 79.0418C74.3679 78.2944 75.6759 75.1178 74.181 72.6886C72.1256 69.3251 70.8176 65.9616 70.8176 62.0375C70.8176 53.2551 77.3576 45.5939 85.9531 44.099C92.1194 42.9778 97.3514 44.8464 102.023 48.9574C102.77 49.7048 103.518 50.6391 104.078 51.3866C105.013 52.5077 105.386 53.6288 104.826 55.3106C104.265 56.9923 104.078 58.6741 103.891 60.5427C103.518 63.1587 105.947 66.1485 108.937 65.4011C109.123 65.4011 109.31 65.4011 109.684 65.4011C109.684 69.6988 109.684 73.9966 109.684 78.1075C107.068 78.4812 104.265 78.4812 101.836 79.2287C86.3268 83.5264 77.1708 98.2883 79.9736 114.171C82.4028 128.186 95.6696 139.024 109.684 138.65C109.684 142.574 109.684 146.685 109.684 150.609Z" fill="#E6E6E6"/>
<path d="M109.684 77.7336C124.259 77.9205 135.097 87.6372 138.647 99.4094C143.879 116.6 132.854 134.539 115.103 137.902C113.234 138.276 111.366 138.276 109.684 138.463C109.684 133.978 109.684 129.307 109.684 124.822C112.487 124.449 113.982 122.954 113.982 120.151C113.982 117.722 113.982 115.106 113.982 112.49C116.598 112.49 119.214 112.49 121.83 112.49C124.446 112.49 126.314 110.808 126.314 108.192C126.314 105.763 124.446 103.894 121.83 103.894C119.214 103.894 116.785 103.894 113.982 103.894C113.982 101.278 113.982 98.662 113.982 96.2328C113.982 93.4299 112.487 91.935 109.684 91.5613C109.684 86.8898 109.684 82.4051 109.684 77.7336Z" fill="#F3F3F3"/>
<path d="M109.684 124.822C109.684 129.307 109.684 133.978 109.684 138.463C95.6697 138.837 82.4029 127.812 79.9737 113.985C77.1709 98.1015 86.3269 83.3396 101.836 79.0418C104.265 78.2944 107.068 78.2944 109.684 77.9207C109.684 82.4053 109.684 87.0768 109.684 91.5614C106.694 91.9352 105.386 93.6169 105.386 96.6066C105.386 99.0358 105.386 101.465 105.386 103.894C102.583 103.894 100.154 103.894 97.5383 103.894C95.6697 103.894 94.3618 104.642 93.6144 106.323C92.3063 109.126 94.3617 112.303 97.5383 112.303C100.154 112.303 102.77 112.303 105.573 112.303C105.573 114.919 105.573 117.348 105.573 119.59C105.386 122.767 106.694 124.262 109.684 124.822Z" fill="#F3F3F3"/>
<path d="M109.683 124.822C106.693 124.449 105.385 122.767 105.385 119.777C105.385 117.348 105.385 114.919 105.385 112.49C102.769 112.49 99.9665 112.49 97.3505 112.49C94.1739 112.49 92.1185 109.126 93.4265 106.51C94.1739 104.829 95.6688 104.081 97.3505 104.081C99.9665 104.081 102.396 104.081 105.198 104.081C105.198 101.652 105.198 99.2227 105.198 96.7935C105.198 93.8038 106.507 92.3089 109.496 91.7483C112.299 92.122 113.794 93.6169 113.794 96.4198C113.794 98.849 113.794 101.465 113.794 104.081C116.41 104.081 119.026 104.081 121.642 104.081C124.258 104.081 126.127 105.763 126.127 108.379C126.127 110.808 124.258 112.677 121.642 112.677C119.026 112.677 116.597 112.677 113.794 112.677C113.794 115.293 113.794 117.909 113.794 120.338C113.981 122.767 112.486 124.449 109.683 124.822Z" fill="#E6E6E6"/>
</svg>
