<svg width="219" height="219" viewBox="0 0 219 219" fill="none" xmlns="http://www.w3.org/2000/svg">
<path d="M109.498 218.999C169.973 218.999 218.997 169.975 218.997 109.5C218.997 49.0247 169.973 0 109.498 0C49.0241 0 0 49.0247 0 109.5C0 169.975 49.0241 218.999 109.498 218.999Z" fill="#D8D8D8"/>
<mask id="mask0_405_1032" style="mask-type:alpha" maskUnits="userSpaceOnUse" x="0" y="0" width="219" height="219">
<path d="M109.499 218.999C169.973 218.999 218.997 169.975 218.997 109.5C218.997 49.0247 169.973 0 109.499 0C49.0243 0 0.00012207 49.0247 0.00012207 109.5C0.00012207 169.975 49.0243 218.999 109.499 218.999Z" fill="#F8E1E1"/>
</mask>
<g mask="url(#mask0_405_1032)">
<path opacity="0.5" d="M212.474 106.517C212.287 106.33 211.914 105.957 211.727 105.77C211.54 105.583 211.353 105.396 210.979 105.022L210.793 104.835C210.606 104.649 210.606 104.649 210.419 104.462L210.232 104.275C210.045 104.088 210.045 104.088 209.858 103.901L209.671 103.714C209.484 103.527 209.298 103.341 209.111 103.154L208.924 102.967C208.737 102.78 208.737 102.78 208.55 102.593L208.363 102.406C208.177 102.219 208.176 102.219 207.99 102.032L207.803 101.846C207.616 101.659 207.616 101.659 207.429 101.472L207.242 101.285C207.055 101.098 207.055 101.098 206.868 100.911L206.682 100.724C206.495 100.538 206.495 100.538 206.308 100.351L206.121 100.164C205.934 99.977 205.934 99.977 205.747 99.7902L205.561 99.6033C205.374 99.4164 205.374 99.4165 205.187 99.2296L205 99.0427C204.813 98.8559 204.813 98.8559 204.626 98.669L204.439 98.4822C204.253 98.2953 204.252 98.2953 204.066 98.1084L203.879 97.9216C203.692 97.7347 203.692 97.7347 203.505 97.5479L203.318 97.361C203.131 97.1741 203.131 97.1741 202.944 96.9873L202.758 96.8004C202.571 96.6136 202.571 96.6136 202.384 96.4267L202.197 96.2398C202.01 96.053 202.01 96.053 201.823 95.8661L201.636 95.6793C201.45 95.4924 201.45 95.4924 201.263 95.3055L201.076 95.1187C200.889 94.9318 200.889 94.9318 200.702 94.745L200.515 94.5581C200.328 94.3712 200.328 94.3712 200.142 94.1844L199.955 93.9975C199.768 93.8107 199.768 93.8107 199.581 93.6238L199.394 93.4369C199.207 93.2501 199.207 93.2501 199.021 93.0632L198.834 92.8764C198.647 92.6895 198.647 92.6895 198.46 92.5027L198.273 92.3158C198.086 92.1289 198.086 92.1289 197.899 91.9421L197.712 91.7552C197.526 91.5683 197.526 91.5683 197.339 91.3815L197.152 91.1946C196.965 91.0078 196.965 91.0078 196.778 90.8209L196.591 90.6341C196.404 90.4472 196.405 90.4472 196.218 90.2603L196.031 90.0735C195.844 89.8866 195.844 89.8866 195.657 89.6998L195.47 89.5129C195.283 89.326 195.283 89.326 195.096 89.1392L194.91 88.9523C194.723 88.7655 194.723 88.7654 194.536 88.5786L194.349 88.3917C194.162 88.2049 194.162 88.2049 193.975 88.018L193.788 87.8312C193.602 87.6443 193.602 87.6443 193.415 87.4574L193.228 87.2706C193.041 87.0837 193.041 87.0837 192.854 86.8969L192.667 86.71C192.48 86.5231 192.48 86.5231 192.294 86.3363L192.107 86.1494C191.92 85.9626 191.92 85.9626 191.733 85.7757L191.546 85.5888C191.359 85.402 191.359 85.402 191.172 85.2151L190.986 85.0283C190.799 84.8414 190.799 84.8414 190.612 84.6545L190.425 84.4677C190.238 84.2808 190.238 84.2808 190.051 84.094L189.864 83.9071C189.678 83.7202 189.678 83.7202 189.491 83.5334L189.304 83.3465C189.117 83.1597 189.117 83.1597 188.93 82.9728L188.743 82.7859C188.556 82.5991 188.556 82.5991 188.37 82.4122L188.183 82.2254C187.996 82.0385 187.996 82.0385 187.809 81.8516L187.622 81.6648C187.435 81.4779 187.435 81.4779 187.248 81.2911L187.062 81.1042C186.875 80.9173 186.875 80.9173 186.688 80.7305L186.501 80.5436C186.314 80.3568 186.314 80.3568 186.127 80.1699L185.94 79.983C185.754 79.7962 185.754 79.7962 185.567 79.6093L185.38 79.4225C185.193 79.2356 185.193 79.2356 185.006 79.0487L184.819 78.8619C184.632 78.675 184.632 78.675 184.446 78.4882L184.259 78.3013C184.072 78.1144 184.072 78.1145 183.885 77.9276L183.698 77.7407C183.511 77.5539 183.511 77.5539 183.324 77.367L183.138 77.1802C182.951 76.9933 182.951 76.9933 182.764 76.8064L182.577 76.6196C182.39 76.4327 182.39 76.4327 182.203 76.2459L182.016 76.059C181.83 75.8721 181.83 75.8721 181.643 75.6853L181.456 75.4984C181.269 75.3116 181.269 75.3116 181.082 75.1247L180.895 74.9378C180.708 74.751 180.708 74.751 180.522 74.5641L180.335 74.3773C180.148 74.1904 180.148 74.1904 179.961 74.0035L179.774 73.8167C179.587 73.6298 179.587 73.6298 179.4 73.443L179.214 73.2561C179.027 73.0692 179.027 73.0693 178.84 72.8824L178.653 72.6955C178.466 72.5087 178.466 72.5087 178.279 72.3218L178.092 72.1349C177.906 71.9481 177.906 71.9481 177.719 71.7612L177.532 71.5744C177.345 71.3875 177.345 71.3875 177.158 71.2007L176.971 71.0138C176.784 70.8269 176.784 70.8269 176.598 70.6401L176.411 70.4532C176.224 70.2664 176.037 70.0795 175.85 69.8926L175.663 69.7058C175.476 69.5189 175.476 69.5189 175.29 69.3321C175.103 69.1452 175.103 69.1452 174.916 68.9583C174.729 68.7715 174.729 68.7715 174.542 68.5846C174.355 68.3978 174.168 68.2109 173.795 67.8372L173.608 67.6503C173.421 67.4635 173.421 67.4635 173.234 67.2766L173.047 67.0897C172.86 66.9029 172.86 66.9029 172.674 66.716L172.487 66.5292C172.3 66.3423 172.3 66.3423 172.113 66.1554C171.926 65.9686 171.739 65.7817 171.366 65.408L171.179 65.2211C170.992 65.0343 170.992 65.0343 170.805 64.8474L170.618 64.6606C170.431 64.4737 170.431 64.4737 170.244 64.2868L170.058 64.1C169.871 63.9131 169.871 63.9131 169.684 63.7263L169.497 63.5394C169.31 63.3526 169.31 63.3525 169.123 63.1657L168.936 62.9788C168.75 62.792 168.75 62.792 168.563 62.6051L168.376 62.4182C168.189 62.2314 168.189 62.2314 168.002 62.0445L167.815 61.8577C167.628 61.6708 167.628 61.6708 167.442 61.4839L167.255 61.2971C167.068 61.1102 167.068 61.1102 166.881 60.9234L166.694 60.7365C166.507 60.5497 166.507 60.5496 166.32 60.3628L166.134 60.1759C165.947 59.9891 165.947 59.9891 165.76 59.8022L165.573 59.6153C165.386 59.4285 165.386 59.4285 165.199 59.2416L165.012 59.0548C164.826 58.8679 164.826 58.8679 164.639 58.681L164.452 58.4942C164.265 58.3073 164.265 58.3073 164.078 58.1205L163.891 57.9336C163.704 57.7468 163.704 57.7468 163.518 57.5599L163.331 57.373C163.144 57.1862 163.144 57.1862 162.957 56.9993L162.77 56.8125C162.583 56.6256 162.583 56.6256 162.396 56.4387L162.21 56.2519C162.023 56.065 162.023 56.065 161.836 55.8782L161.649 55.6913C161.462 55.5044 161.462 55.5044 161.275 55.3176L161.088 55.1307C160.902 54.9439 160.902 54.9439 160.715 54.757L160.528 54.5701C160.341 54.3833 160.341 54.3833 160.154 54.1964L159.967 54.0096C159.78 53.8227 159.78 53.8227 159.594 53.6358L159.407 53.449C159.22 53.2621 159.22 53.2621 159.033 53.0753L158.846 52.8884C158.659 52.7015 158.659 52.7015 158.472 52.5147L158.286 52.3278C158.099 52.141 158.099 52.141 157.912 51.9541L157.725 51.7672C157.538 51.5804 157.538 51.5804 157.351 51.3935L157.164 51.2067C156.978 51.0198 156.978 51.0198 156.791 50.8329L156.604 50.6461C156.417 50.4592 156.417 50.4592 156.23 50.2724L156.043 50.0855C155.856 49.8986 155.856 49.8987 155.67 49.7118L155.483 49.5249C155.296 49.3381 155.296 49.3381 155.109 49.1512L154.922 48.9644C154.735 48.7775 154.735 48.7775 154.548 48.5906L154.362 48.4038C154.175 48.2169 153.988 48.0301 153.801 47.8432L153.614 47.6563C153.427 47.4695 153.054 47.0958 152.867 46.9089C150.811 46.3483 148.943 46.3483 147.448 48.0301C144.458 51.2067 141.282 54.1964 138.292 57.1862C137.918 57.1862 137.731 57.1862 137.358 57.1862C135.115 56.6256 132.873 55.8782 130.444 55.3176C130.257 55.1307 130.07 54.9439 129.696 54.5701C129.51 54.1964 129.136 54.0096 128.949 53.8227C128.762 53.449 128.388 53.2621 128.201 53.0753C128.015 52.7015 127.641 52.5147 127.454 52.3278C127.267 51.9541 126.894 51.7672 126.707 51.5804C126.52 51.2067 126.146 51.0198 125.959 50.8329C125.772 50.4592 125.399 50.2724 125.212 50.0855C125.025 49.7118 124.651 49.5249 124.464 49.3381C124.277 48.9643 123.904 48.7775 123.717 48.5906C123.53 48.2169 123.156 48.0301 122.97 47.8432C122.783 47.4695 122.409 47.2826 122.222 47.0958C122.035 46.722 121.662 46.5352 121.475 46.3483C121.288 45.9746 120.914 45.7877 120.727 45.6009C120.54 45.2272 120.167 45.0403 119.98 44.8534C119.793 44.4797 119.419 44.2929 119.232 44.106C119.046 43.7323 118.672 43.5454 118.485 43.3586C118.298 42.9848 117.924 42.798 117.738 42.6111C117.551 42.2374 117.177 42.0505 116.99 41.8637C116.803 41.49 116.429 41.3031 116.243 41.1163C116.056 40.7425 115.682 40.5557 115.495 40.3688C115.308 39.9951 114.935 39.8082 114.748 39.6214C114.561 39.2477 114.187 39.0608 114 38.8739C113.814 38.5002 113.44 38.3133 113.253 38.1265C113.066 37.7528 112.692 37.5659 112.505 37.3791C112.319 37.0053 111.945 36.8185 111.758 36.6316C111.571 36.2579 111.198 36.071 111.011 35.8842C110.824 35.5105 110.45 35.3236 110.263 35.1367C110.076 34.763 109.703 34.5762 109.516 34.3893C109.329 34.0156 108.955 33.8287 108.768 33.6419C108.581 33.2682 108.208 33.0813 108.021 32.8944C106.9 31.5864 105.218 31.0258 103.536 31.3995C101.294 31.9601 99.7992 34.2024 100.547 36.6316C101.855 42.0505 103.349 47.2826 104.844 52.7015C98.3043 59.2416 91.5775 65.9686 85.0375 72.5087C83.5426 73.8167 83.1689 75.4984 83.7294 77.367C84.4769 79.983 85.0375 82.4122 85.7849 85.0283C87.4666 91.5684 89.1483 97.9216 90.83 104.462C91.0169 104.835 91.2037 105.209 91.2037 105.583C91.0169 105.209 90.83 104.835 90.83 104.462C84.6637 110.628 78.6843 116.608 72.518 122.774C65.2306 120.718 57.7563 118.85 50.4688 116.794C47.666 116.047 45.4237 117.355 44.6762 119.784C44.1157 121.466 44.6762 123.148 46.1711 124.269C46.3579 124.456 46.5448 124.829 46.9185 125.016C47.1054 125.203 47.2923 125.577 47.666 125.764C47.8528 125.951 48.0397 126.324 48.4134 126.511C48.6003 126.698 48.7871 127.072 49.1608 127.259C49.3477 127.445 49.5345 127.819 49.9082 128.006C50.0951 128.193 50.2819 128.567 50.6557 128.753C50.8425 128.94 51.0294 129.314 51.4031 129.501C51.59 129.688 51.7768 130.061 52.1505 130.248C52.3374 130.435 52.5242 130.809 52.898 130.996C53.0848 131.183 53.2717 131.556 53.6454 131.743C53.8322 131.93 54.0191 132.304 54.3928 132.491C54.5797 132.677 54.7666 133.051 55.1403 133.238C55.3271 133.425 55.514 133.799 55.8877 133.985C56.0745 134.172 56.2614 134.546 56.6351 134.733C56.822 134.92 57.0088 135.294 57.3825 135.48C57.5694 135.667 57.7562 136.041 58.1299 136.228C58.3168 136.415 58.5037 136.788 58.8774 136.975C59.0643 137.162 59.2511 137.536 59.6248 137.723C59.8117 137.91 59.9985 138.283 60.3723 138.47C60.5591 138.657 60.746 139.031 61.1197 139.218C61.3065 139.404 61.4934 139.778 61.8671 139.965C62.054 140.152 62.2409 140.526 62.6146 140.712C62.8014 140.899 62.9883 141.273 63.362 141.46C63.5488 141.647 63.7357 142.02 64.1094 142.207C64.2963 142.394 64.4831 142.768 64.8568 142.955C65.0437 143.142 65.2305 143.515 65.6042 143.702C65.7911 143.889 65.978 144.263 66.3517 144.45C66.5386 144.636 66.7254 145.01 67.0991 145.197C67.286 145.384 67.4728 145.758 67.8466 145.944C68.0334 146.131 68.2203 146.505 68.594 146.692C68.7808 146.879 68.9677 147.253 69.3414 147.439C69.5283 147.626 69.7152 148 70.0889 148.187C70.2757 148.374 70.4626 148.747 70.8363 148.934C71.0231 149.121 71.21 149.495 71.5837 149.682C71.7706 149.869 71.9574 150.242 72.3311 150.429C72.518 150.616 72.7048 150.99 73.0785 151.177C73.2654 151.363 73.4523 151.737 73.826 151.924C74.0129 152.111 74.1997 152.485 74.5734 152.671C74.7603 152.858 74.9471 153.232 75.3209 153.419C75.5077 153.606 75.6946 153.979 76.0683 154.166C76.2551 154.353 76.2552 154.54 76.442 154.727C76.6289 155.287 76.8157 155.848 76.8157 156.409C73.826 159.398 70.6494 162.388 67.6597 165.565C65.7911 167.433 65.978 170.049 67.6597 171.731C67.8465 171.918 67.8466 171.918 68.0334 172.105C68.2203 172.292 68.2203 172.292 68.4071 172.479C68.594 172.665 68.594 172.665 68.7808 172.852C68.9677 173.039 68.9677 173.039 69.1546 173.226C69.3414 173.413 69.3414 173.413 69.5283 173.6C69.7151 173.787 69.7151 173.787 69.902 173.973C70.0889 174.16 70.0888 174.16 70.2757 174.347C70.4625 174.534 70.4626 174.534 70.6494 174.721C70.8363 174.908 70.8363 174.908 71.0232 175.095C71.21 175.281 71.21 175.281 71.3968 175.468C71.5837 175.655 71.5837 175.655 71.7706 175.842C71.9574 176.029 71.9574 176.029 72.1443 176.216C72.3311 176.403 72.3311 176.403 72.518 176.589C72.7049 176.776 72.7049 176.776 72.8917 176.963C73.0786 177.15 73.0786 177.15 73.2654 177.337C73.4523 177.524 73.4523 177.524 73.6392 177.711C73.826 177.897 73.826 177.897 74.0128 178.084C74.1997 178.271 74.1997 178.271 74.3866 178.458C74.5734 178.645 74.5734 178.645 74.7603 178.832C74.9472 179.019 74.9471 179.019 75.134 179.205C75.3208 179.392 75.3209 179.392 75.5077 179.579C75.6946 179.766 75.6945 179.766 75.8814 179.953C76.0683 180.14 76.0683 180.14 76.2551 180.327C76.442 180.514 76.442 180.514 76.6289 180.7C76.8157 180.887 76.8157 180.887 77.0026 181.074C77.1894 181.261 77.1894 181.261 77.3763 181.448C77.5632 181.635 77.5631 181.635 77.75 181.822C77.9368 182.008 77.9369 182.008 78.1237 182.195C78.3106 182.382 78.3106 182.382 78.4975 182.569C78.6843 182.756 78.6843 182.756 78.8711 182.943C79.058 183.13 79.058 183.13 79.2449 183.316C79.4317 183.503 79.4317 183.503 79.6186 183.69C79.8054 183.877 79.8054 183.877 79.9923 184.064C80.1791 184.251 80.1792 184.251 80.366 184.438C80.5529 184.624 80.5529 184.624 80.7397 184.811C80.9266 184.998 80.9266 184.998 81.1134 185.185C81.3003 185.372 81.3003 185.372 81.4871 185.559C81.674 185.746 81.674 185.746 81.8609 185.932C82.0477 186.119 82.0477 186.119 82.2346 186.306C82.4215 186.493 82.4214 186.493 82.6083 186.68C82.7951 186.867 82.7952 186.867 82.982 187.054C83.1689 187.24 83.1688 187.24 83.3557 187.427C83.5426 187.614 83.5426 187.614 83.7294 187.801C83.9163 187.988 83.9163 187.988 84.1032 188.175C84.29 188.362 84.29 188.362 84.4769 188.548C84.6637 188.735 84.6637 188.735 84.8506 188.922C85.0375 189.109 85.0374 189.109 85.2243 189.296C85.4111 189.483 85.4112 189.483 85.598 189.67C85.7849 189.857 85.7849 189.856 85.9718 190.043C86.1586 190.23 86.1586 190.23 86.3454 190.417C86.5323 190.604 86.5323 190.604 86.7192 190.791C86.906 190.978 86.906 190.978 87.0929 191.165C87.2797 191.351 87.2797 191.351 87.4666 191.538C87.6534 191.725 87.6535 191.725 87.8403 191.912C88.0272 192.099 88.0272 192.099 88.214 192.286C88.4009 192.473 88.4009 192.473 88.5877 192.659C88.7746 192.846 88.7746 192.846 88.9614 193.033C89.1483 193.22 89.1483 193.22 89.3352 193.407C89.522 193.594 89.522 193.594 89.7089 193.781C89.8958 193.967 89.8957 193.967 90.0826 194.154C90.2694 194.341 90.2695 194.341 90.4563 194.528C90.6432 194.715 90.6431 194.715 90.83 194.902C91.0169 195.089 91.0169 195.089 91.2037 195.275C91.3906 195.462 91.3906 195.462 91.5775 195.649C91.7643 195.836 91.7643 195.836 91.9512 196.023C92.138 196.21 92.138 196.21 92.3249 196.397C92.5118 196.583 92.5117 196.583 92.6986 196.77C92.8854 196.957 92.8855 196.957 93.0723 197.144C93.2592 197.331 93.2592 197.331 93.4461 197.518C93.6329 197.705 93.6329 197.705 93.8197 197.891C94.0066 198.078 94.0066 198.078 94.1935 198.265C94.3803 198.452 94.3803 198.452 94.5671 198.639C94.754 198.826 94.754 198.826 94.9409 199.013C95.1277 199.199 95.1278 199.199 95.3146 199.386C95.5015 199.573 95.5014 199.573 95.6883 199.76C95.8752 199.947 95.8752 199.947 96.062 200.134C96.2489 200.321 96.2489 200.321 96.4357 200.508C96.6226 200.694 96.6226 200.694 96.8095 200.881C96.9963 201.068 96.9963 201.068 97.1832 201.255C97.3701 201.442 97.37 201.442 97.5569 201.629C97.7437 201.816 97.7438 201.816 97.9306 202.002C98.1175 202.189 98.1174 202.189 98.3043 202.376C98.4912 202.563 98.4912 202.563 98.678 202.75C98.8649 202.937 98.8649 202.937 99.0518 203.124C99.2386 203.31 99.2386 203.31 99.4255 203.497C99.6123 203.684 99.6123 203.684 99.7992 203.871C99.986 204.058 99.986 204.058 100.173 204.245C100.36 204.432 100.36 204.432 100.547 204.618C100.733 204.805 100.733 204.805 100.92 204.992C101.107 205.179 101.107 205.179 101.294 205.366C101.481 205.553 101.481 205.553 101.668 205.74C101.855 205.926 101.855 205.926 102.041 206.113C102.228 206.3 102.228 206.3 102.415 206.487C102.602 206.674 102.602 206.674 102.789 206.861C102.976 207.048 102.976 207.048 103.163 207.234C103.349 207.421 103.349 207.421 103.536 207.608C103.723 207.795 103.723 207.795 103.91 207.982C104.097 208.169 104.097 208.169 104.284 208.356C104.471 208.542 104.471 208.542 104.658 208.729C104.844 208.916 104.844 208.916 105.031 209.103C105.218 209.29 105.218 209.29 105.405 209.477C105.592 209.664 105.592 209.664 105.779 209.85C105.965 210.037 105.965 210.037 106.152 210.224C106.339 210.411 106.339 210.411 106.526 210.598C106.713 210.785 106.713 210.785 106.9 210.972C107.087 211.158 107.087 211.158 107.273 211.345C107.46 211.532 107.46 211.532 107.647 211.719C107.834 211.906 107.834 211.906 108.021 212.093C108.208 212.28 108.208 212.28 108.395 212.467C108.582 212.653 108.581 212.653 108.768 212.84C108.955 213.027 108.955 213.027 109.142 213.214C109.329 213.401 109.329 213.401 109.516 213.588C109.703 213.775 109.703 213.775 109.889 213.961C110.076 214.148 110.076 214.148 110.263 214.335C110.45 214.522 110.45 214.522 110.637 214.709C110.824 214.896 110.824 214.896 111.011 215.083C111.198 215.269 111.197 215.269 111.384 215.456C111.571 215.643 111.571 215.643 111.758 215.83C111.945 216.017 111.945 216.017 112.132 216.204C112.319 216.391 112.319 216.391 112.505 216.577C112.692 216.764 112.692 216.764 112.879 216.951C113.066 217.138 113.066 217.138 113.253 217.325C113.44 217.512 113.44 217.512 113.627 217.699C113.813 217.885 113.814 217.885 114 218.072C114.187 218.259 114.187 218.259 114.374 218.446C114.561 218.633 114.561 218.633 114.748 218.82C114.935 219.007 114.935 219.007 115.121 219.193C115.308 219.38 115.308 219.38 115.495 219.567C115.682 219.754 115.682 219.754 115.869 219.941C116.056 220.128 116.056 220.128 116.243 220.315C116.429 220.501 116.43 220.501 116.616 220.688C116.803 220.875 116.803 220.875 116.99 221.062C117.177 221.249 117.177 221.249 117.364 221.436C117.551 221.623 117.551 221.623 117.738 221.809C117.924 221.996 117.924 221.996 118.111 222.183C118.298 222.37 118.298 222.37 118.485 222.557C118.672 222.744 118.672 222.744 118.859 222.931C119.045 223.118 119.046 223.118 119.232 223.304C119.419 223.491 119.419 223.491 119.606 223.678C119.793 223.865 119.793 223.865 119.98 224.052C120.167 224.239 120.167 224.239 120.354 224.426C120.54 224.612 120.54 224.612 120.727 224.799C120.914 224.986 120.914 224.986 121.101 225.173C121.288 225.36 121.288 225.36 121.475 225.547C121.662 225.734 121.661 225.734 121.848 225.92C122.035 226.107 122.035 226.107 122.222 226.294C122.409 226.481 122.409 226.481 122.596 226.668C122.783 226.855 122.783 226.855 122.97 227.042C123.156 227.228 123.156 227.228 123.343 227.415C123.53 227.602 123.53 227.602 123.717 227.789C123.904 227.976 123.904 227.976 124.091 228.163C124.278 228.35 124.277 228.35 124.464 228.536C124.651 228.723 124.651 228.723 124.838 228.91C125.025 229.097 125.025 229.097 125.212 229.284C125.399 229.471 125.399 229.471 125.586 229.658C125.772 229.844 125.772 229.844 125.959 230.031C126.146 230.218 126.146 230.218 126.333 230.405C126.52 230.592 126.52 230.592 126.707 230.779C126.894 230.966 126.894 230.966 127.08 231.152C127.267 231.339 127.267 231.339 127.454 231.526C127.641 231.713 127.641 231.713 127.828 231.9C128.015 232.087 128.015 232.087 128.201 232.274C128.388 232.461 128.388 232.46 128.575 232.647C128.762 232.834 128.762 232.834 128.949 233.021C129.136 233.208 129.136 233.208 129.323 233.395C129.51 233.582 129.51 233.582 129.696 233.768C129.883 233.955 129.883 233.955 130.07 234.142C130.257 234.329 130.257 234.329 130.444 234.516C130.631 234.703 130.631 234.703 130.818 234.89C131.004 235.077 131.004 235.077 131.191 235.263C131.378 235.45 131.378 235.45 131.565 235.637C131.752 235.824 131.752 235.824 131.939 236.011C132.126 236.198 132.126 236.198 132.312 236.385C132.499 236.571 132.499 236.571 132.686 236.758C132.873 236.945 132.873 236.945 133.06 237.132C133.247 237.319 133.247 237.319 133.434 237.506C133.62 237.693 133.62 237.693 133.807 237.879C133.994 238.066 133.994 238.066 134.181 238.253C134.368 238.44 134.368 238.44 134.555 238.627C134.742 238.814 134.742 238.814 134.928 239.001C135.115 239.187 135.115 239.187 135.302 239.374C135.489 239.561 135.489 239.561 135.676 239.748C135.863 239.935 135.863 239.935 136.05 240.122C136.236 240.309 136.236 240.309 136.423 240.495C136.61 240.682 136.61 240.682 136.797 240.869C136.984 241.056 136.984 241.056 137.171 241.243C137.358 241.43 137.358 241.43 137.544 241.617C137.731 241.803 137.731 241.803 137.918 241.99C138.105 242.177 138.105 242.177 138.292 242.364C138.479 242.551 138.479 242.551 138.666 242.738C138.852 242.925 138.852 242.925 139.039 243.111C139.226 243.298 139.226 243.298 139.413 243.485C139.6 243.672 139.6 243.672 139.787 243.859C139.974 244.046 139.974 244.046 140.16 244.233C140.347 244.42 140.347 244.42 140.534 244.606C140.721 244.793 140.721 244.793 140.908 244.98C141.095 245.167 141.095 245.167 141.282 245.354C141.468 245.541 141.468 245.541 141.655 245.728C141.842 245.914 141.842 245.914 142.029 246.101C142.216 246.288 142.216 246.288 142.403 246.475C142.59 246.662 142.59 246.662 142.776 246.849C142.963 247.036 142.963 247.036 143.15 247.222C144.832 248.904 147.448 248.904 149.316 247.036C152.306 244.046 155.296 240.869 158.472 237.879C158.846 237.879 159.22 238.066 159.594 238.066C161.649 238.627 163.891 239.187 165.947 239.748C166.134 239.935 166.134 239.935 166.32 240.122C166.507 240.495 166.881 240.682 167.068 240.869C167.255 241.243 167.628 241.43 167.815 241.617C168.002 241.99 168.376 242.177 168.563 242.364C168.75 242.738 169.123 242.925 169.31 243.111C169.497 243.485 169.871 243.672 170.058 243.859C170.244 244.233 170.618 244.42 170.805 244.606C170.992 244.98 171.366 245.167 171.552 245.354C171.739 245.728 172.113 245.914 172.3 246.101C172.487 246.475 172.86 246.662 173.047 246.849C173.234 247.222 173.608 247.409 173.795 247.596C173.982 247.97 174.355 248.157 174.542 248.344C174.729 248.717 175.103 248.904 175.29 249.091C175.476 249.465 175.85 249.652 176.037 249.838C176.224 250.212 176.598 250.399 176.784 250.586C176.971 250.96 177.345 251.146 177.532 251.333C177.719 251.707 178.092 251.894 178.279 252.081C178.466 252.454 178.84 252.641 179.027 252.828C179.214 253.202 179.587 253.389 179.774 253.576C179.961 253.949 180.335 254.136 180.522 254.323C180.708 254.697 181.082 254.884 181.269 255.071C181.456 255.444 181.83 255.631 182.016 255.818C182.203 256.192 182.577 256.379 182.764 256.565C182.951 256.939 183.324 257.126 183.511 257.313C183.698 257.687 184.072 257.873 184.259 258.06C184.446 258.434 184.819 258.621 185.006 258.808C185.193 259.181 185.567 259.368 185.754 259.555C185.94 259.929 186.314 260.116 186.501 260.303C186.688 260.676 187.062 260.863 187.248 261.05C187.435 261.424 187.809 261.611 187.996 261.797C188.183 262.171 188.556 262.358 188.743 262.545C189.864 263.853 191.546 264.413 193.228 264.04C195.657 263.479 196.965 261.05 196.218 258.621C194.91 253.389 193.415 247.97 191.92 242.738C192.294 242.177 192.48 241.617 192.854 241.243C199.02 235.077 205.187 228.91 211.353 222.744C212.848 221.249 213.409 219.567 212.848 217.512C212.661 216.951 212.474 216.391 212.474 215.83C210.232 207.421 207.99 199.199 205.747 190.791C206.121 190.417 206.495 190.043 206.868 189.67C212.848 183.69 218.827 177.524 224.994 171.544C226.862 169.676 227.423 167.807 226.675 165.191C224.433 156.969 222.191 148.747 219.949 140.526C219.762 139.965 219.762 139.218 219.762 138.657C222.564 135.854 225.181 133.051 228.17 130.435C212.661 111.002 213.408 109.133 212.474 106.517Z" fill="#CACACA"/>
</g>
<path d="M136.406 56.6182C139.396 53.6284 142.573 50.4518 145.563 47.462C147.244 45.7803 148.926 45.7803 150.981 46.3409C151.355 46.7146 151.729 47.0883 151.916 47.2752C148.179 51.0124 144.441 54.7496 140.704 58.4868L140.517 58.2999C139.209 57.7393 137.714 57.1788 136.406 56.6182Z" fill="#F3F3F3"/>
<path d="M140.705 58.4872C144.442 54.75 148.179 51.0128 151.916 47.2756C152.103 47.4625 152.477 47.8362 152.664 48.0231C153.598 50.4523 152.85 52.5077 150.795 54.3763C147.992 56.9923 145.189 59.7952 142.386 62.5981C142.2 62.0375 142.013 61.6638 141.826 61.1032C141.639 60.169 141.078 59.4215 140.705 58.4872Z" fill="#F3F3F3"/>
<path d="M75.1169 155.654C74.3695 152.477 73.6221 149.488 72.6878 146.311C71.3798 141.266 70.0718 136.407 68.7638 131.362C68.5769 130.988 68.3901 130.615 68.2032 130.428L68.3901 130.241C68.7638 129.867 69.3244 129.68 69.6981 129.307C76.6118 122.393 83.7124 115.292 90.6261 108.378C92.121 108.939 93.429 109.686 94.9238 110.247C89.1313 116.04 83.5256 121.645 77.733 127.438C77.1724 127.999 76.7987 128.559 76.9855 129.494C79.0409 137.155 81.0964 144.816 83.1518 152.477C83.3387 152.851 83.7124 153.412 84.273 153.598C91.9341 155.654 99.5953 157.709 107.256 159.765C107.817 159.952 108.751 159.578 109.125 159.204C114.731 153.785 120.15 148.18 125.755 142.574C126.316 142.013 126.503 141.453 126.316 140.518C125.755 138.837 125.382 136.968 124.821 135.286C123.139 129.12 121.644 123.14 119.963 116.974C120.15 116.974 120.523 116.974 120.71 117.161C123.513 118.282 125.755 117.535 127.624 115.292C127.811 115.105 127.998 114.919 128.184 114.732C130.427 123.14 132.669 131.362 134.911 139.771C135.098 140.331 135.285 140.892 135.285 141.453C135.846 143.508 135.285 145.19 133.79 146.685C127.624 152.851 121.458 159.017 115.291 165.184C114.918 165.557 114.544 166.118 114.357 166.679C113.983 166.865 113.423 167.052 113.236 167.426C111.554 169.108 109.686 169.668 107.443 168.921C107.07 168.734 106.509 168.734 106.135 168.734C104.267 168.174 102.398 167.426 100.53 167.052C94.3633 165.371 88.197 163.689 82.0307 162.007C81.657 161.82 81.2832 161.82 80.9095 161.82C80.349 161.633 79.9753 161.447 79.4147 161.26C76.9855 160.886 75.8644 159.391 75.3038 157.149C75.6775 156.775 75.3038 156.214 75.1169 155.654Z" fill="#E6E6E6"/>
<path d="M95.2977 110.247C93.8028 109.687 92.4948 108.939 90.9999 108.379C90.9999 108.379 91 108.192 90.8131 108.192C93.0554 105.949 95.2976 103.707 97.5399 101.465C97.9136 101.652 98.4742 101.839 98.848 102.025C106.322 104.081 113.983 106.136 121.458 108.192C122.392 108.379 122.766 108.379 123.513 107.631C128.932 102.025 134.538 96.6065 140.143 91.0007C140.891 90.2533 140.891 89.6927 140.704 88.7584C138.649 81.284 136.593 73.8096 134.725 66.3352C134.538 65.9615 134.351 65.401 134.164 65.0272C136.406 62.7849 138.649 60.5426 140.891 58.3003L141.078 58.4871C141.451 59.4214 142.012 60.1689 142.386 61.1032C142.573 61.4769 142.759 62.0375 142.946 62.5981C142.946 63.1586 143.133 63.9061 143.133 64.4667C145.375 72.6885 147.431 80.9103 149.86 89.1321C150.607 91.7482 150.047 93.6168 148.178 95.4854C142.012 101.465 136.033 107.631 130.053 113.611C129.679 113.984 129.306 114.358 128.932 114.732C128.745 114.919 128.371 115.106 128.371 115.292C126.503 117.535 124.261 118.095 121.458 117.161C121.271 116.974 120.897 116.974 120.71 116.974C119.402 116.601 118.281 116.227 116.973 115.853C109.499 113.984 102.398 112.116 95.2977 110.247Z" fill="#F3F3F3"/>
<path d="M140.518 58.2998C138.276 60.5421 136.034 62.7845 133.791 65.0268C133.044 64.8399 132.483 64.6531 131.736 64.6531C124.635 62.7845 117.348 60.9159 110.247 58.8604C109.5 58.6735 108.939 58.6735 108.379 59.2341C102.773 64.8399 97.1672 70.4457 91.5615 76.0515C91.1878 76.4252 91.0009 77.1726 91.1877 77.7332C91.5614 79.415 92.122 81.0967 92.4958 82.9653C94.1775 89.1317 95.6723 95.298 97.3541 101.464C95.1118 103.707 92.8695 105.949 90.6272 108.191C90.0666 106.883 89.5061 105.575 88.9455 104.08C87.2638 97.5403 85.582 91.1871 83.9003 84.647C83.1529 82.031 82.5923 79.6018 81.8449 76.9858C81.2843 75.1172 81.8449 73.4355 83.1529 72.1274C89.6929 65.5874 96.4198 58.8604 102.96 52.3203C103.147 52.1334 103.52 51.9466 103.707 51.5729C105.389 49.5174 107.444 48.9568 109.873 49.7043C110.247 49.8911 110.808 49.7043 111.181 49.7043C111.555 49.8911 111.929 50.2649 112.303 50.2649C119.964 52.3203 127.625 54.3758 135.286 56.4312C135.473 56.4312 135.847 56.4312 136.22 56.4312C137.715 57.1787 139.21 57.7392 140.518 58.2998Z" fill="#F3F3F3"/>
<path d="M68.577 130.241L68.3902 130.428C62.7844 128.933 57.3655 127.438 51.7598 126.13C50.0781 125.756 48.3964 125.196 46.5278 124.822C43.725 124.075 42.2301 121.832 42.9776 119.403C43.725 116.974 45.9673 115.666 48.7701 116.413C56.0576 118.469 63.5318 120.338 70.8193 122.393C68.2033 124.262 67.0821 126.878 68.577 130.241Z" fill="#E6E6E6"/>
<path d="M106.696 168.734C107.257 168.734 107.63 168.734 108.004 168.921C110.246 169.668 112.115 169.108 113.797 167.426C114.17 167.052 114.544 166.866 114.918 166.679C116.413 171.911 117.908 177.33 119.216 182.562C119.776 184.991 118.468 187.42 116.226 187.981C113.983 188.541 111.554 187.233 110.994 184.804C109.499 179.572 108.004 174.153 106.696 168.734Z" fill="#E6E6E6"/>
<path d="M111.367 49.7046C110.994 49.7046 110.433 49.8915 110.059 49.7046C107.63 48.7703 105.575 49.5178 103.893 51.5732C103.706 51.7601 103.333 52.1338 103.146 52.3207C101.651 46.9017 100.156 41.6697 98.848 36.2507C98.2874 33.8216 99.5954 31.5792 101.838 31.0187C104.267 30.4581 106.509 31.7661 107.257 34.1953C108.378 38.493 109.499 42.7908 110.807 47.0886C110.994 48.0229 111.181 48.7703 111.367 49.7046Z" fill="#F3F3F3"/>
<path d="M75.1175 155.654C75.3043 156.215 75.4912 156.588 75.6781 157.149C76.2386 159.391 77.3597 160.886 79.7889 161.26C80.3495 161.26 80.7232 161.634 81.2838 161.82C78.2941 164.81 75.3044 167.987 72.1278 170.977C70.2592 172.845 67.6432 172.845 65.9615 171.163C64.2798 169.482 64.2798 166.679 65.9615 164.997C69.138 161.82 72.1277 158.831 75.1175 155.654Z" fill="#E6E6E6"/>
<path d="M68.5777 130.241C67.0829 126.878 68.2041 124.449 70.8201 122.206C76.9864 116.04 82.9658 110.06 89.1321 103.894C89.6927 105.202 90.2533 106.51 90.8138 108.005C90.8138 108.005 90.8138 108.192 91.0007 108.192C84.0869 115.106 76.9864 122.206 70.0726 129.12C69.5121 129.681 69.1383 129.868 68.5777 130.241Z" fill="#E6E6E6"/>
<path d="M112.676 145.938C111.181 147.433 109.686 149.114 108.004 150.609C106.136 152.291 103.52 152.478 101.838 150.796C100.156 149.114 100.156 146.311 102.025 144.443C105.201 141.266 108.191 138.276 111.368 135.1C113.236 133.231 116.039 133.231 117.721 134.913C119.403 136.595 119.403 139.398 117.534 141.266C115.852 142.761 114.357 144.256 112.676 145.938Z" fill="#E6E6E6"/>
<path d="M123.327 69.3247C124.822 71.0064 125.009 73.0619 124.074 74.7436C123.14 76.4254 121.272 77.1728 119.403 76.7991C117.161 76.2385 114.918 75.6779 112.676 74.9305C110.247 74.1831 109.126 71.9407 109.873 69.5116C110.621 67.2692 112.676 65.9612 115.105 66.5218C117.348 67.0824 119.403 67.643 121.458 68.2035C122.206 68.7641 122.953 69.1378 123.327 69.3247Z" fill="#F3F3F3"/>
</svg>
