<svg width="219" height="219" viewBox="0 0 219 219" fill="none" xmlns="http://www.w3.org/2000/svg">
<path d="M109.498 219C169.973 219 218.997 169.975 218.997 109.5C218.997 49.0252 169.973 0.000488281 109.498 0.000488281C49.0241 0.000488281 0 49.0252 0 109.5C0 169.975 49.0241 219 109.498 219Z" fill="#D8D8D8"/>
<mask id="mask0_405_973" style="mask-type:alpha" maskUnits="userSpaceOnUse" x="0" y="0" width="219" height="219">
<path d="M109.498 218.999C169.973 218.999 218.997 169.975 218.997 109.5C218.997 49.0247 169.973 0 109.498 0C49.0241 0 0 49.0247 0 109.5C0 169.975 49.0241 218.999 109.498 218.999Z" fill="#F8E1E1"/>
</mask>
<g mask="url(#mask0_405_973)">
<path opacity="0.25" d="M314.345 255.675C313.784 251.377 311.729 247.827 308.552 245.024C308.179 244.65 307.805 244.089 307.244 243.716C306.871 243.342 306.497 242.781 305.936 242.408C305.563 242.034 305.189 241.473 304.628 241.1C304.255 240.726 303.881 240.165 303.32 239.792C302.947 239.418 302.573 238.857 302.012 238.484C301.639 238.11 301.265 237.549 300.704 237.175C300.331 236.802 299.957 236.241 299.396 235.868C299.023 235.494 298.649 234.933 298.088 234.559C297.715 234.186 297.341 233.625 296.78 233.251C296.407 232.878 296.033 232.317 295.472 231.943C295.099 231.57 294.725 231.009 294.164 230.635C293.791 230.262 293.417 229.701 292.856 229.327C292.483 228.954 292.109 228.393 291.548 228.019C291.175 227.646 290.801 227.085 290.24 226.711C289.867 226.338 289.493 225.777 288.932 225.403C288.559 225.03 288.185 224.469 287.624 224.095C287.251 223.722 286.877 223.161 286.316 222.787C285.943 222.414 285.756 222.04 285.382 221.853C285.382 217.742 285.382 213.818 285.382 209.707C285.008 210.081 284.635 210.455 284.074 210.641C284.448 210.455 285.008 210.081 285.382 209.707C285.382 205.036 285.569 200.177 285.195 195.506C285.008 191.956 283.14 188.592 280.524 186.163C280.15 185.789 279.776 185.229 279.216 184.855C278.842 184.481 278.468 183.921 277.908 183.547C277.534 183.173 277.16 182.613 276.6 182.239C276.226 181.865 275.852 181.304 275.292 180.931C274.918 180.557 274.544 179.996 273.984 179.623C273.61 179.249 273.236 178.688 272.676 178.315C272.302 177.941 271.928 177.38 271.368 177.007C270.994 176.633 270.62 176.072 270.06 175.699C269.686 175.325 269.312 174.764 268.752 174.391C268.378 174.017 268.004 173.456 267.444 173.083C267.07 172.709 266.696 172.148 266.136 171.775C265.762 171.401 265.388 170.84 264.828 170.467C264.454 170.093 264.08 169.532 263.52 169.159C263.146 168.785 262.772 168.224 262.212 167.851C261.838 167.477 261.464 166.916 260.904 166.543C260.53 166.169 260.156 165.608 259.596 165.235C259.222 164.861 258.848 164.3 258.288 163.927C257.914 163.553 257.54 162.992 256.98 162.619C256.606 162.245 256.232 161.684 255.672 161.311C255.298 160.937 254.924 160.376 254.364 160.003C253.99 159.629 253.616 159.068 253.056 158.694C252.682 158.321 252.308 157.76 251.748 157.386C251.374 157.013 251 156.452 250.44 156.078C250.066 155.705 249.692 155.144 249.132 154.77C248.758 154.397 248.384 153.836 247.824 153.462C247.45 153.089 247.076 152.528 246.516 152.154C246.142 151.781 245.768 151.22 245.208 150.846C244.834 150.473 244.46 149.912 243.9 149.538C243.526 149.165 243.152 148.604 242.592 148.23C242.218 147.857 241.844 147.296 241.284 146.922C240.91 146.549 240.536 145.988 239.976 145.614C239.602 145.241 239.228 144.68 238.668 144.306C238.294 143.933 237.92 143.372 237.36 142.998C236.986 142.625 236.612 142.064 236.052 141.69C235.678 141.317 235.304 140.756 234.744 140.382C234.37 140.009 233.996 139.448 233.436 139.074C233.062 138.701 232.688 138.14 232.128 137.766C231.754 137.393 231.38 136.832 230.82 136.458C230.446 136.084 230.072 135.524 229.512 135.15C229.138 134.776 228.764 134.216 228.204 133.842C227.83 133.468 227.456 132.908 226.896 132.534C226.522 132.16 226.148 131.6 225.588 131.226C225.214 130.852 224.84 130.292 224.28 129.918C223.906 129.544 223.532 128.984 222.972 128.61C222.598 128.236 222.224 127.676 221.664 127.302C221.29 126.928 220.916 126.368 220.356 125.994C219.982 125.62 219.608 125.06 219.048 124.686C218.674 124.312 218.3 123.752 217.74 123.378C217.366 123.004 216.992 122.444 216.432 122.07C216.058 121.696 215.684 121.136 215.124 120.762C214.75 120.388 214.376 119.828 213.816 119.454C213.442 119.08 213.068 118.52 212.508 118.146C212.134 117.772 211.76 117.212 211.2 116.838C210.826 116.464 210.452 115.904 209.892 115.53C209.518 115.156 209.144 114.596 208.584 114.222C208.21 113.848 207.836 113.288 207.276 112.914C206.902 112.54 206.528 111.98 205.968 111.606C205.594 111.232 205.22 110.672 204.66 110.298C204.286 109.924 203.912 109.364 203.352 108.99C202.978 108.616 202.604 108.056 202.044 107.682C201.67 107.308 201.296 106.748 200.736 106.374C200.362 106 199.988 105.44 199.428 105.066C199.054 104.692 198.68 104.132 198.12 103.758C197.746 103.384 197.372 102.823 196.812 102.45C196.438 102.076 196.064 101.515 195.504 101.142C195.13 100.768 194.756 100.207 194.196 99.8337C193.822 99.46 193.448 98.8994 192.888 98.5257C192.514 98.152 192.14 97.5914 191.58 97.2177C191.206 96.844 190.832 96.2834 190.272 95.9097C189.898 95.536 189.524 94.9754 188.964 94.6017C188.59 94.228 188.216 93.6674 187.656 93.2936C187.282 92.9199 186.908 92.3593 186.348 91.9856C185.974 91.6119 185.6 91.0513 185.04 90.6776C184.666 90.3039 184.292 89.7433 183.732 89.3696C183.358 88.9959 182.984 88.4353 182.424 88.0616C182.05 87.6879 181.676 87.1273 181.116 86.7535C180.742 86.3798 180.368 85.8193 179.808 85.4455C179.434 85.0718 179.06 84.5112 178.5 84.1375C178.126 83.7638 177.752 83.2032 177.192 82.8295C176.818 82.4558 176.444 81.8952 175.884 81.5215C175.51 81.1478 175.136 80.5872 174.576 80.2135C174.202 79.8397 173.828 79.2792 173.268 78.9055C172.894 78.5317 172.52 77.9712 171.96 77.5974C171.586 77.2237 171.212 76.6632 170.652 76.2894C170.278 75.9157 169.904 75.3551 169.344 74.9814C168.97 74.6077 168.596 74.0471 168.036 73.6734C167.662 73.2997 167.288 72.7391 166.728 72.3654C166.354 71.9917 165.98 71.4311 165.42 71.0574C165.046 70.6836 164.672 70.1231 164.112 69.7493C163.738 69.3756 163.364 68.8151 162.804 68.4413C162.43 68.0676 162.056 67.507 161.496 67.1333C161.122 66.7596 160.748 66.199 160.188 65.8253C159.814 65.4516 159.44 64.891 158.88 64.5173C158.506 64.1436 158.132 63.583 157.572 63.2093C157.198 62.8355 156.824 62.275 156.264 61.9013C155.89 61.5275 155.516 60.9669 154.956 60.5932C154.582 60.2195 154.208 59.6589 153.648 59.2852C153.274 58.9115 152.9 58.3509 152.34 57.9772C151.966 57.6035 151.592 57.0429 151.032 56.6692C150.658 56.2955 150.284 55.7349 149.724 55.3612C147.481 52.932 144.492 51.0634 141.128 50.6897C139.633 50.5028 138.325 50.5028 136.831 50.5028C136.644 50.3159 136.27 49.9422 136.083 49.7554C135.709 49.1948 135.336 48.8211 134.775 48.4473C134.401 47.8868 134.028 47.513 133.467 47.1393C133.093 46.5788 132.72 46.205 132.159 45.8313C131.785 45.2707 131.412 44.897 130.851 44.5233C130.477 43.9627 130.104 43.589 129.543 43.2153C129.169 42.6547 128.796 42.281 128.235 41.9073C127.114 40.4124 125.432 39.4781 123.564 38.9175C119.826 38.1701 116.276 39.6649 114.408 42.8416C112.913 45.0839 113.1 47.6999 113.1 50.1291C103.757 50.1291 94.4139 50.1291 85.071 50.1291C84.8842 49.9422 84.6973 49.7554 84.5105 49.5685C84.1368 49.0079 83.763 48.6342 83.2025 48.2605C82.8287 47.6999 82.455 47.3262 81.8945 46.9525C81.5207 46.3919 81.147 46.0182 80.5865 45.6444C80.2127 45.0839 79.839 44.7102 79.2785 44.3364C78.9047 43.7759 78.531 43.4021 77.9705 43.0284C77.5967 42.4678 77.223 42.0941 76.6624 41.7204C75.3544 40.0387 73.1122 38.7307 70.3093 38.5438C66.759 38.1701 62.835 40.4124 61.9007 44.3364C61.3401 46.0182 61.527 48.0736 61.3402 49.7554C58.3504 49.7554 55.5476 49.7554 52.5578 49.7554C45.6441 49.9422 39.4778 54.9874 38.7304 61.9013C38.1698 66.7596 38.5435 71.8048 38.3567 76.6631C38.3567 76.85 38.3567 77.0369 38.3567 77.2237C38.3567 93.8542 38.3567 110.485 38.3567 127.115C38.3567 128.236 38.5436 129.544 38.7304 130.479C39.4778 133.468 40.9727 135.898 43.0281 137.766C43.4018 138.14 43.7756 138.701 44.3361 139.074C44.7098 139.448 45.0836 140.009 45.6441 140.382C46.0178 140.756 46.3916 141.317 46.9521 141.69C47.3258 142.064 47.6996 142.625 48.2601 142.998C48.6339 143.372 49.0076 143.933 49.5681 144.306C49.9418 144.68 50.3156 145.241 50.8761 145.614C51.2499 145.988 51.6236 146.549 52.1841 146.922C52.5579 147.296 52.9316 147.857 53.4921 148.23C53.8658 148.604 54.2396 149.165 54.8001 149.538C55.1739 149.912 55.5476 150.473 56.1081 150.846C56.4819 151.22 56.8556 151.781 57.4161 152.154C57.7899 152.528 58.1636 153.089 58.7241 153.462C59.0979 153.836 59.4716 154.397 60.0321 154.77C60.4059 155.144 60.7796 155.705 61.3402 156.078C61.7139 156.452 62.0876 157.013 62.6481 157.386C63.0219 157.76 63.3956 158.321 63.9562 158.694C64.3299 159.068 64.7036 159.629 65.2642 160.003C65.6379 160.376 66.0116 160.937 66.5721 161.311C66.9459 161.684 67.3196 162.245 67.8802 162.619C68.2539 162.992 68.6276 163.553 69.1882 163.927C69.5619 164.3 69.9356 164.861 70.4962 165.235C70.8699 165.608 71.2436 166.169 71.8042 166.543C72.1779 166.916 72.5516 167.477 73.1122 167.851C73.4859 168.224 73.8596 168.785 74.4202 169.159C74.7939 169.532 75.1676 170.093 75.7282 170.467C76.1019 170.84 76.4756 171.401 77.0362 171.775C77.4099 172.148 77.7836 172.709 78.3442 173.083C78.7179 173.456 79.0916 174.017 79.6522 174.391C80.0259 174.764 80.3996 175.325 80.9602 175.699C81.3339 176.072 81.7076 176.633 82.2682 177.007C82.6419 177.38 83.0156 177.941 83.5762 178.315C83.9499 178.688 84.3236 179.249 84.8842 179.623C85.2579 179.996 85.6316 180.557 86.1922 180.931C86.5659 181.304 86.9396 181.865 87.5002 182.239C87.8739 182.613 88.2476 183.173 88.8082 183.547C89.1819 183.921 89.5556 184.481 90.1162 184.855C90.4899 185.229 90.8636 185.789 91.4242 186.163C91.7979 186.537 92.1716 187.097 92.7322 187.471C93.1059 187.845 93.4796 188.405 94.0402 188.779C94.4139 189.153 94.7876 189.713 95.3482 190.087C95.7219 190.461 96.0956 191.021 96.6562 191.395C97.0299 191.769 97.4036 192.329 97.9642 192.703C98.3379 193.077 98.7116 193.637 99.2722 194.011C99.6459 194.385 100.02 194.945 100.58 195.319C100.954 195.693 101.328 196.253 101.888 196.627C102.262 197.001 102.636 197.561 103.196 197.935C103.57 198.309 103.944 198.869 104.504 199.243C104.878 199.617 105.252 200.177 105.812 200.551C106.186 200.925 106.56 201.485 107.12 201.859C107.494 202.233 107.868 202.793 108.428 203.167C108.802 203.541 109.176 204.101 109.736 204.475C110.11 204.849 110.484 205.409 111.044 205.783C111.418 206.157 111.792 206.717 112.352 207.091C112.726 207.465 113.1 208.025 113.66 208.399C114.034 208.773 114.408 209.333 114.968 209.707C115.342 210.081 115.716 210.641 116.276 211.015C116.65 211.389 117.024 211.949 117.584 212.323C117.958 212.697 118.332 213.257 118.892 213.631C119.266 214.005 119.64 214.566 120.2 214.939C120.574 215.313 120.948 215.874 121.508 216.247C121.882 216.621 122.256 217.182 122.816 217.555C123.19 217.929 123.564 218.49 124.124 218.863C124.498 219.237 124.872 219.798 125.432 220.171C125.806 220.545 126.18 221.106 126.74 221.479C127.114 221.853 127.488 222.414 128.048 222.787C128.422 223.161 128.796 223.722 129.356 224.095C129.73 224.469 130.104 225.03 130.664 225.403C131.038 225.777 131.412 226.338 131.972 226.711C132.346 227.085 132.72 227.646 133.28 228.019C133.654 228.393 134.028 228.954 134.588 229.327C134.962 229.701 135.336 230.262 135.896 230.635C136.27 231.009 136.644 231.57 137.204 231.943C137.578 232.317 137.952 232.878 138.512 233.251C138.886 233.625 139.26 234.186 139.82 234.559C140.194 234.933 140.568 235.494 141.128 235.868C141.502 236.241 141.876 236.802 142.436 237.175C142.81 237.549 143.184 238.11 143.744 238.484C144.118 238.857 144.492 239.418 145.052 239.792C145.426 240.165 145.8 240.726 146.36 241.1C146.734 241.473 147.108 242.034 147.668 242.408C148.042 242.781 148.416 243.342 148.976 243.716C149.35 244.089 149.724 244.65 150.284 245.024C150.658 245.397 151.032 245.958 151.592 246.332C151.966 246.705 152.34 247.266 152.9 247.64C153.274 248.013 153.648 248.574 154.208 248.948C154.582 249.321 154.956 249.882 155.516 250.256C155.89 250.629 156.264 251.19 156.824 251.564C157.198 251.937 157.572 252.498 158.132 252.872C158.506 253.245 158.88 253.806 159.44 254.18C159.814 254.553 160.188 255.114 160.748 255.488C161.122 255.861 161.496 256.422 162.056 256.796C162.43 257.169 162.804 257.73 163.364 258.104C163.738 258.478 164.112 259.038 164.672 259.412C165.046 259.785 165.42 260.346 165.98 260.72C166.354 261.094 166.728 261.654 167.288 262.028C167.662 262.402 168.036 262.962 168.596 263.336C168.97 263.71 169.344 264.27 169.904 264.644C170.278 265.018 170.652 265.578 171.212 265.952C171.586 266.326 171.96 266.886 172.52 267.26C172.894 267.634 173.268 268.194 173.828 268.568C176.444 271.558 180.555 273.426 185.04 273.426C193.261 273.426 201.483 273.426 209.705 273.426C209.892 273.613 210.265 273.8 210.452 274.174C210.826 274.547 211.2 275.108 211.76 275.482C212.134 275.855 212.508 276.416 213.068 276.79C213.442 277.163 213.816 277.724 214.376 278.098C214.75 278.471 215.124 279.032 215.684 279.406C216.058 279.78 216.432 280.34 216.992 280.714C217.366 281.088 217.74 281.648 218.3 282.022C218.674 282.396 219.048 282.956 219.608 283.33C219.982 283.704 220.356 284.264 220.916 284.638C221.29 285.012 221.664 285.572 222.224 285.946C222.598 286.32 222.972 286.88 223.532 287.254C223.906 287.628 224.28 288.188 224.84 288.562C225.214 288.936 225.588 289.496 226.148 289.87C226.522 290.244 226.896 290.804 227.456 291.178C227.83 291.552 228.204 292.112 228.764 292.486C229.138 292.86 229.512 293.42 230.072 293.794C230.446 294.168 230.82 294.728 231.38 295.102C231.754 295.476 232.128 296.036 232.688 296.41C233.062 296.784 233.436 297.344 233.996 297.718C234.37 298.092 234.744 298.652 235.304 299.026C235.678 299.4 236.052 299.96 236.612 300.334C236.986 300.708 237.36 301.268 237.92 301.642C238.294 302.016 238.668 302.576 239.228 302.95C239.602 303.324 239.976 303.884 240.536 304.258C240.91 304.632 241.284 305.192 241.844 305.566C242.218 305.94 242.592 306.5 243.152 306.874C243.526 307.248 243.9 307.808 244.46 308.182C245.208 309.116 246.142 309.864 247.263 310.611C249.319 312.106 251.935 312.854 254.177 313.975C256.606 313.975 259.222 313.975 261.651 313.975C264.641 312.854 267.631 311.919 269.873 309.677C271.555 308.182 273.05 306.5 274.731 304.819C275.105 304.445 275.479 304.258 275.852 303.884C276.974 304.258 278.282 304.819 279.403 305.192C285.008 306.874 290.054 306.127 294.538 302.016C296.967 299.773 299.396 297.344 301.826 294.728C304.628 291.739 305.936 288.375 305.936 284.264C305.936 281.274 304.815 278.471 303.881 275.855C303.694 276.042 303.507 276.229 303.134 276.229C303.32 276.042 303.694 275.855 303.881 275.669C305.002 274.547 305.936 273.239 307.244 272.118C309.487 269.876 311.729 267.82 312.85 264.831C313.411 263.149 313.784 261.467 314.345 259.786C314.345 258.291 314.345 256.983 314.345 255.488C314.532 256.048 314.345 255.861 314.345 255.675Z" fill="#A2A2A2"/>
</g>
<path d="M153.411 110.247C156.774 108.192 160.325 106.884 164.435 106.884C173.031 107.071 180.505 113.611 181.813 122.206C181.813 122.393 182 122.58 182 122.767C182 124.262 182 125.57 182 127.065C181.439 128.747 181.066 130.428 180.505 132.11C179.384 135.1 177.142 137.342 174.899 139.398C173.778 140.519 172.657 141.827 171.536 142.948C171.162 143.322 170.602 143.508 170.228 143.882C161.633 152.478 153.037 161.073 144.255 169.856C143.881 170.229 143.694 170.603 143.507 171.164C143.134 171.537 142.573 171.724 142.199 172.098C140.518 173.593 139.023 175.275 137.341 176.956C135.099 179.199 132.109 180.32 129.119 181.254C126.69 181.254 124.074 181.254 121.645 181.254C119.216 180.133 116.787 179.386 114.731 177.891C106.136 171.724 105.015 159.018 112.302 151.357C113.797 149.862 115.479 148.18 116.974 146.685C117.347 146.311 117.534 145.938 117.908 145.377C118.282 145.003 118.842 144.816 119.216 144.63C127.811 136.034 136.407 127.439 145.189 118.656C145.563 118.282 145.75 117.909 146.123 117.348C146.497 116.974 146.871 116.788 147.245 116.414C149.3 114.358 151.355 112.303 153.411 110.247ZM132.483 165.558C134.912 165.745 137.154 164.25 139.023 162.381C146.684 154.72 154.345 147.246 161.819 139.584C162.754 138.65 163.501 137.716 164.249 136.782C166.865 133.605 167.051 129.494 164.622 125.944C162.567 122.954 158.456 121.646 154.906 122.767C152.85 123.328 151.169 124.823 149.674 126.131C142.386 133.231 135.286 140.519 128.185 147.619C127.251 148.554 126.13 149.675 125.195 150.796C122.766 153.599 122.206 156.776 123.701 159.952C125.382 163.689 128.185 165.558 132.483 165.558Z" fill="#E6E6E6"/>
<path d="M153.409 110.248C151.354 112.303 149.298 114.358 147.056 116.414C146.682 116.788 146.309 116.975 145.935 117.348C144.627 116.975 143.319 116.414 142.011 116.04C136.966 114.359 132.107 115.106 127.997 118.469C125.194 120.899 122.578 123.701 119.962 126.318C115.851 130.615 115.103 135.661 116.411 141.266C95.4833 141.266 74.3685 141.266 53.4404 141.266C46.3399 141.266 40.5473 136.969 39.0524 130.242C38.6787 129.12 38.6787 127.999 38.6787 126.878C38.6787 110.248 38.6787 93.6171 38.6787 76.9866C38.6787 76.7998 38.6787 76.6129 38.6787 76.426C39.7999 78.1078 41.4816 78.2946 43.3501 78.2946C77.9188 78.2946 112.674 78.2946 147.243 78.2946C149.485 78.2946 151.541 78.2946 153.222 76.6129C153.222 83.7136 153.222 90.6274 153.222 97.728C153.409 101.839 153.409 105.95 153.409 110.248ZM53.0667 118.283C53.0667 119.964 53.0667 121.646 53.0667 123.141C53.0667 125.757 54.1879 126.878 56.8039 126.878C60.1673 126.878 63.3439 126.878 66.5205 126.878C68.9496 126.878 70.2576 125.944 70.2576 123.328C70.2576 119.964 70.2576 116.414 70.2576 113.05C70.2576 110.621 69.1365 109.687 66.8942 109.5C63.5307 109.5 59.9805 109.5 56.617 109.5C54.3747 109.5 53.2536 110.808 53.0667 112.864C52.8799 114.919 53.0667 116.601 53.0667 118.283ZM98.8468 95.2988C98.8468 96.9806 98.8468 98.6623 98.8468 100.344C98.8468 102.96 99.9679 104.081 102.584 104.081C105.947 104.081 109.124 104.081 112.301 104.081C114.73 104.081 116.038 102.96 116.038 100.531C116.038 97.1674 116.038 93.6171 116.038 90.2536C116.038 88.0113 114.73 86.8902 112.487 86.8902C109.124 86.8902 105.574 86.8902 102.21 86.8902C99.9679 86.8902 98.8468 88.1982 98.8468 90.4405C98.8468 91.9354 98.8468 93.6171 98.8468 95.2988ZM75.8633 118.096C75.8633 119.777 75.8633 121.459 75.8633 123.141C75.8633 125.757 76.9845 126.878 79.6005 126.878C82.9639 126.878 86.1405 126.878 89.5039 126.878C91.7462 126.878 93.0542 125.757 93.0542 123.328C93.0542 119.964 93.0542 116.414 93.0542 113.05C93.0542 110.808 91.9331 109.687 89.8776 109.5C86.3273 109.5 82.5902 109.5 79.0399 109.5C76.9845 109.5 75.8633 110.808 75.8633 112.864C75.8633 114.732 75.8633 116.414 75.8633 118.096ZM84.6456 104.081C86.1405 104.081 87.6353 104.081 89.317 104.081C92.1199 104.081 93.4279 102.96 93.4279 100.157C93.4279 96.9806 93.4279 93.804 93.4279 90.6274C93.4279 88.0113 92.1199 86.7033 89.5039 86.7033C86.3273 86.7033 83.1508 86.7033 79.7873 86.7033C77.3582 86.7033 76.0502 87.8245 76.0502 90.4405C76.0502 93.804 76.0502 97.1674 76.0502 100.531C76.0502 102.96 77.1713 104.081 79.6005 104.081C81.0953 104.081 82.9639 104.081 84.6456 104.081ZM61.4753 104.081C63.157 104.081 64.8387 104.081 66.5205 104.081C68.7627 104.081 69.8839 103.334 70.0707 101.278C70.2576 97.3543 70.2576 93.6171 70.0707 89.6931C70.0707 88.0113 68.7627 86.8902 67.081 86.8902C63.3439 86.7033 59.6067 86.7033 55.8696 86.8902C53.6273 87.077 52.8799 88.1982 52.8799 90.4405C52.8799 93.804 52.8799 97.1674 52.8799 100.531C52.8799 102.773 54.1879 104.081 56.4302 104.081C58.2987 104.081 59.9804 104.081 61.4753 104.081ZM98.8468 118.283C98.8468 119.964 98.8468 121.646 98.8468 123.515C98.8468 125.57 99.9679 126.878 102.023 126.878C105.574 127.065 109.124 127.065 112.861 126.878C114.917 126.878 115.851 125.944 116.038 123.888C116.225 120.338 116.411 116.788 116.225 113.237C116.038 109.874 114.73 109.687 112.861 109.5C109.311 109.313 105.947 109.313 102.397 109.5C100.342 109.5 99.0337 110.808 99.0337 113.05C98.8468 114.919 98.8468 116.601 98.8468 118.283ZM138.834 95.2988C138.834 93.6171 138.647 91.9354 138.834 90.0668C139.021 87.6376 137.339 86.7033 135.471 86.5165C132.107 86.5165 128.557 86.5165 125.194 86.5165C122.951 86.5165 121.83 87.8245 121.83 89.8799C121.83 93.4303 121.83 96.7937 121.83 100.344C121.83 102.4 122.765 103.708 124.82 103.708C128.557 103.894 132.294 103.894 136.218 103.708C138.087 103.708 139.021 102.399 139.021 100.531C138.834 99.036 138.834 97.1674 138.834 95.2988Z" fill="#E6E6E6"/>
<path d="M153.409 76.6129C151.728 78.2947 149.485 78.2947 147.43 78.2947C112.861 78.2947 78.1058 78.2947 43.5371 78.2947C41.6686 78.2947 39.9869 77.9209 38.8657 76.4261C38.8657 71.5677 38.6789 66.5225 39.2394 61.6642C39.9869 54.9372 46.1531 49.7051 53.0669 49.5183C56.0566 49.5183 58.8594 49.5183 61.8492 49.5183C61.8492 52.508 61.8492 55.3109 61.8492 58.3007C62.036 63.3459 65.5863 66.7094 70.6315 66.7094C75.4898 66.7094 79.2269 62.4116 79.04 58.3007C78.8532 55.3109 79.04 52.508 79.04 49.5183C80.5349 49.5183 81.8429 49.5183 83.1509 49.5183C93.2412 49.5183 103.332 49.5183 113.422 49.5183C113.422 52.1343 113.422 54.9372 113.422 57.5532C113.609 63.159 117.533 67.27 123.512 66.5225C126.876 66.1488 130.239 62.9722 130.426 59.4218C130.613 56.0584 130.613 52.6949 130.8 49.3314C134.35 49.3314 138.087 49.1446 141.45 49.7051C147.804 50.4526 153.036 56.0584 153.409 62.4116C153.409 67.0831 153.222 71.9414 153.409 76.6129ZM95.8572 60.9167C93.2412 60.9167 90.6252 60.9167 87.8224 60.9167C85.9538 60.9167 84.4589 62.0379 84.4589 63.7196C84.4589 65.4014 85.5801 66.7094 87.6355 66.7094C93.2412 66.7094 98.6601 66.8962 104.266 66.7094C106.882 66.7094 108.003 64.467 106.882 62.4116C106.134 61.1036 105.013 60.9167 103.705 60.9167C101.276 60.9167 98.6601 60.9167 95.8572 60.9167Z" fill="#F3F3F3"/>
<path d="M130.427 49.5187C130.24 52.8822 130.427 56.2456 130.053 59.6091C129.867 62.9726 126.503 66.1492 123.14 66.7098C117.16 67.4572 113.236 63.3463 113.049 57.7405C113.049 55.1245 113.049 52.3216 113.049 49.7056C113.049 47.2764 113.049 44.6603 114.357 42.418C116.413 39.2414 119.963 37.7465 123.513 38.494C127.064 39.2414 129.493 42.0443 130.053 45.7815C130.427 46.9027 130.427 48.2107 130.427 49.5187Z" fill="#E6E6E6"/>
<path d="M78.6667 49.3313C78.6667 52.3211 78.6667 55.124 78.6667 58.1137C78.8536 62.4115 75.3033 66.5224 70.2582 66.5224C65.213 66.5224 61.6627 62.9721 61.4759 58.1137C61.289 55.124 61.4759 52.3211 61.4759 49.3313C61.6627 47.4627 61.4759 45.5941 62.0364 43.9124C63.1576 39.9883 66.8947 37.746 70.445 38.1197C75.3033 38.6803 78.293 41.8569 78.4799 46.3416C78.8536 47.2759 78.6667 48.397 78.6667 49.3313Z" fill="#E6E6E6"/>
<path d="M116.412 141.266C115.104 135.66 115.852 130.615 119.962 126.317C122.579 123.701 125.195 120.712 127.997 118.469C132.108 115.106 136.967 114.358 142.012 116.04C143.32 116.414 144.628 116.788 145.936 117.348C145.562 117.722 145.375 118.282 145.001 118.656C136.406 127.252 127.811 135.847 119.028 144.63C118.654 145.003 118.281 145.19 117.72 145.377C117.346 143.882 116.973 142.574 116.412 141.266Z" fill="#F3F3F3"/>
<path d="M132.482 165.558C128.184 165.558 125.381 163.503 123.886 160.139C122.391 156.962 122.952 153.599 125.381 150.983C126.315 149.862 127.25 148.741 128.371 147.806C135.471 140.519 142.759 133.418 149.859 126.317C151.354 124.823 152.849 123.515 155.091 122.954C158.642 121.833 162.752 123.141 164.808 126.131C167.237 129.681 167.05 133.792 164.434 136.968C163.687 137.903 162.752 138.837 162.005 139.771C154.344 147.433 146.87 155.094 139.208 162.568C137.153 164.437 134.911 165.745 132.482 165.558Z" fill="#F3F3F3"/>
<path d="M171.536 142.948C172.47 145.751 173.591 148.367 173.591 151.357C173.591 155.468 172.096 158.831 169.48 161.821C167.051 164.25 164.809 166.679 162.193 169.109C157.895 173.033 152.663 173.967 147.057 172.285C145.936 171.912 144.628 171.538 143.507 170.977C143.881 170.603 144.068 170.043 144.255 169.669C152.85 161.074 161.445 152.478 170.228 143.696C170.788 143.509 171.162 143.322 171.536 142.948Z" fill="#F3F3F3"/>
<path d="M53.0674 118.283C53.0674 116.601 53.0674 114.919 53.0674 113.051C53.0674 110.808 54.3754 109.687 56.6177 109.687C59.9811 109.687 63.5314 109.687 66.8948 109.687C69.1371 109.687 70.2582 110.808 70.2582 113.238C70.2582 116.601 70.2582 120.151 70.2582 123.515C70.2582 125.944 68.9502 126.878 66.5211 127.065C63.1577 127.065 59.9811 127.065 56.8045 127.065C54.1885 127.065 53.0674 125.944 53.0674 123.328C53.0674 121.459 53.0674 119.965 53.0674 118.283Z" fill="white"/>
<path d="M98.8468 95.2989C98.8468 93.6172 98.8468 91.9355 98.8468 90.2537C98.8468 88.0114 99.968 86.7034 102.21 86.7034C105.574 86.7034 109.124 86.7034 112.487 86.7034C114.73 86.7034 116.038 87.8245 116.038 90.0668C116.038 93.4303 116.038 96.9807 116.038 100.344C116.038 102.773 114.73 103.894 112.301 103.894C108.937 103.894 105.761 103.894 102.584 103.894C99.9679 103.894 98.8468 102.773 98.8468 100.157C98.8468 98.6624 98.8468 96.9807 98.8468 95.2989Z" fill="white"/>
<path d="M75.8634 118.096C75.8634 116.414 75.8634 114.732 75.8634 113.051C75.8634 110.995 76.9846 109.687 79.04 109.687C82.5903 109.687 86.3274 109.687 89.8777 109.687C91.9331 109.687 93.0543 110.995 93.0543 113.238C93.0543 116.601 93.0543 120.151 93.0543 123.515C93.0543 125.757 91.7463 126.878 89.504 127.065C86.1406 127.065 82.964 127.065 79.6006 127.065C76.9845 127.065 75.8634 125.944 75.8634 123.328C75.8634 121.459 75.8634 119.778 75.8634 118.096Z" fill="white"/>
<path d="M84.6457 104.081C82.964 104.081 81.2823 104.081 79.4137 104.081C76.9845 104.081 75.8634 102.773 75.8634 100.531C75.8634 97.1675 75.8634 93.804 75.8634 90.4406C75.8634 88.0114 76.9845 86.7034 79.6005 86.7034C82.7771 86.7034 85.9537 86.7034 89.3171 86.7034C92.12 86.7034 93.2411 87.8245 93.2411 90.6274C93.2411 93.804 93.2411 96.9807 93.2411 100.157C93.2411 102.96 92.12 104.081 89.1303 104.081C87.6354 104.081 86.1406 104.081 84.6457 104.081Z" fill="white"/>
<path d="M61.4753 104.081C59.7936 104.081 58.1119 104.081 56.4302 104.081C54.1879 104.081 52.8799 102.773 52.8799 100.531C52.8799 97.1674 52.8799 93.8039 52.8799 90.4405C52.8799 88.1982 53.6273 87.077 55.8696 86.8901C59.6067 86.7033 63.3439 86.7033 67.081 86.8901C68.7627 86.8901 69.8839 88.0113 70.0707 89.693C70.2576 93.6171 70.2576 97.3543 70.0707 101.278C69.8839 103.521 68.7627 104.081 66.5205 104.081C65.0256 104.081 63.157 104.081 61.4753 104.081Z" fill="#F3F3F3"/>
<path d="M98.8476 118.283C98.8476 116.601 98.8476 114.919 98.8476 113.051C98.8476 110.808 99.9688 109.687 102.211 109.5C105.761 109.5 109.125 109.313 112.675 109.5C114.731 109.687 116.039 109.874 116.039 113.237C116.225 116.788 116.039 120.338 115.852 123.888C115.665 125.944 114.731 126.691 112.675 126.878C109.125 127.065 105.575 127.065 101.837 126.878C99.7819 126.878 98.6608 125.57 98.6608 123.515C98.8476 121.833 98.8476 119.964 98.8476 118.283Z" fill="#F3F3F3"/>
<path d="M138.835 95.2989C138.835 97.1675 138.835 98.8493 138.835 100.718C138.835 102.586 137.901 103.894 136.032 103.894C132.295 104.081 128.558 104.081 124.634 103.894C122.579 103.894 121.644 102.586 121.644 100.531C121.644 96.9806 121.644 93.6172 121.644 90.0668C121.644 88.0114 122.952 86.7034 125.008 86.7034C128.371 86.7034 131.921 86.7034 135.285 86.7034C137.153 86.7034 138.835 87.8245 138.648 90.2537C138.835 91.9355 138.835 93.6172 138.835 95.2989Z" fill="#F3F3F3"/>
<path d="M95.8571 60.9165C98.4731 60.9165 101.089 60.9165 103.892 60.9165C105.2 60.9165 106.321 61.1033 107.068 62.4114C108.19 64.4668 106.882 66.7091 104.453 66.7091C98.8468 66.896 93.4279 66.7091 87.8222 66.7091C85.7668 66.7091 84.6456 65.4011 84.6456 63.7194C84.6456 62.0377 86.1405 60.9165 88.0091 60.9165C90.6251 60.9165 93.2411 60.9165 95.8571 60.9165Z" fill="#E6E6E6"/>
</svg>
