<svg width="219" height="219" viewBox="0 0 219 219" fill="none" xmlns="http://www.w3.org/2000/svg">
<path d="M109.456 218.999C169.906 218.999 218.911 169.975 218.911 109.5C218.911 49.0247 169.906 0 109.456 0C49.005 0 0 49.0247 0 109.5C0 169.975 49.005 218.999 109.456 218.999Z" fill="#D8D8D8"/>
<mask id="mask0_405_1008" style="mask-type:alpha" maskUnits="userSpaceOnUse" x="0" y="0" width="219" height="219">
<path d="M109.456 219C169.906 219 218.911 169.975 218.911 109.5C218.911 49.0252 169.906 0.000488281 109.456 0.000488281C49.005 0.000488281 6.10352e-05 49.0252 6.10352e-05 109.5C6.10352e-05 169.975 49.005 219 109.456 219Z" fill="#F8E1E1"/>
</mask>
<g mask="url(#mask0_405_1008)">
<path opacity="0.5" d="M255.354 205.562C254.092 201.026 251.668 197.086 249.162 193.173C243.213 183.906 237.317 174.59 231.396 165.313C231.32 165.37 231.234 165.427 231.153 165.479L230.439 164.355C230.362 164.416 230.28 164.471 230.196 164.522L229.481 163.397C229.404 163.458 229.323 163.514 229.238 163.564L228.534 162.439C228.456 162.5 228.375 162.556 228.291 162.606L227.581 161.486C227.505 161.543 227.424 161.596 227.338 161.648L226.624 160.528C226.547 160.586 226.466 160.638 226.381 160.69L225.666 159.571C225.59 159.628 225.509 159.68 225.423 159.733L224.709 158.613C224.633 158.67 224.552 158.723 224.466 158.775L223.751 157.655C223.675 157.712 223.594 157.765 223.508 157.817L222.794 156.697C222.718 156.755 222.637 156.807 222.551 156.859L221.837 155.74L221.598 155.906C221.356 155.53 221.122 155.154 220.879 154.782C220.808 154.839 220.722 154.891 220.641 154.949L219.927 153.824C219.85 153.881 219.765 153.934 219.684 153.991L218.969 152.866C218.893 152.924 218.807 152.981 218.726 153.033L218.012 151.909C217.936 151.966 217.85 152.023 217.769 152.075L217.055 150.951C216.978 151.008 216.893 151.065 216.812 151.118L216.097 149.993C216.021 150.05 215.935 150.107 215.854 150.16L215.14 149.035C215.062 149.095 214.981 149.151 214.897 149.202L214.182 148.078C214.105 148.139 214.024 148.194 213.939 148.244L213.225 147.12C213.148 147.181 213.067 147.236 212.982 147.287L212.244 146.191C212.168 146.248 212.087 146.3 212.001 146.353L211.286 145.233C211.21 145.29 211.129 145.342 211.043 145.395L210.329 144.275C210.253 144.332 210.172 144.385 210.086 144.437L209.372 143.317C209.295 143.374 209.214 143.427 209.129 143.479L208.414 142.36C208.338 142.417 208.257 142.469 208.171 142.522L207.457 141.402C207.381 141.459 207.3 141.511 207.214 141.564L206.499 140.444C206.423 140.501 206.342 140.554 206.257 140.606C206.018 140.234 205.78 139.858 205.542 139.486C205.471 139.543 205.385 139.596 205.304 139.653L204.589 138.528C204.513 138.586 204.428 138.638 204.347 138.695L203.632 137.571C203.556 137.628 203.47 137.685 203.389 137.737L202.675 136.613C202.599 136.67 202.513 136.727 202.432 136.78L201.717 135.655C201.641 135.712 201.555 135.77 201.474 135.822L200.76 134.697C200.684 134.755 200.598 134.812 200.517 134.864L199.803 133.74C199.726 133.797 199.641 133.854 199.56 133.906L198.845 132.782C198.768 132.843 198.687 132.899 198.602 132.949L197.888 131.824C197.811 131.885 197.73 131.941 197.645 131.991L196.93 130.866C196.853 130.927 196.772 130.983 196.688 131.033L195.973 129.913C195.897 129.971 195.816 130.023 195.73 130.075L195.016 128.956C194.939 129.013 194.859 129.065 194.773 129.118L194.058 127.998C193.982 128.055 193.901 128.107 193.815 128.16L193.101 127.04C193.025 127.097 192.944 127.15 192.858 127.202L192.144 126.082C192.067 126.139 191.986 126.192 191.901 126.244L191.186 125.125C191.11 125.182 191.029 125.234 190.943 125.287L190.229 124.167L189.991 124.334C189.748 123.957 189.514 123.581 189.276 123.209C189.2 123.266 189.114 123.319 189.033 123.376L188.319 122.251C188.243 122.308 188.157 122.361 188.076 122.418L187.361 121.293C187.285 121.351 187.199 121.408 187.118 121.46L186.404 120.336C186.328 120.393 186.242 120.45 186.161 120.502L185.447 119.378C185.37 119.435 185.285 119.492 185.204 119.545L184.489 118.42C184.413 118.477 184.327 118.535 184.246 118.587L183.532 117.462C183.455 117.523 183.374 117.579 183.289 117.629L182.575 116.505C182.497 116.566 182.416 116.621 182.332 116.671L181.617 115.547C181.54 115.608 181.459 115.664 181.374 115.714L180.66 114.594C180.584 114.651 180.503 114.703 180.417 114.756L179.702 113.636C179.626 113.693 179.545 113.746 179.459 113.798L178.745 112.678C178.669 112.736 178.588 112.788 178.502 112.84L177.788 111.721C177.711 111.778 177.63 111.83 177.545 111.883L176.83 110.763C176.754 110.82 176.673 110.872 176.587 110.925L175.873 109.805C175.797 109.862 175.716 109.915 175.63 109.967L174.915 108.847C174.839 108.904 174.758 108.957 174.673 109.009C174.434 108.638 174.196 108.261 173.958 107.89C173.887 107.947 173.801 107.999 173.72 108.056L173.005 106.932C172.929 106.989 172.844 107.041 172.763 107.099L172.048 105.974C171.972 106.031 171.886 106.088 171.805 106.141L171.091 105.016C171.015 105.073 170.929 105.131 170.848 105.183L170.133 104.058C170.057 104.116 169.971 104.173 169.89 104.225L169.176 103.101C169.1 103.158 169.014 103.215 168.933 103.267L168.219 102.143C168.141 102.203 168.06 102.259 167.976 102.31L167.261 101.185C167.184 101.246 167.103 101.302 167.018 101.352L166.304 100.227C166.227 100.288 166.146 100.344 166.061 100.394L165.346 99.2744C165.27 99.3316 165.189 99.384 165.104 99.4364L164.389 98.3167C164.313 98.3738 164.232 98.4263 164.146 98.4787L163.432 97.3589C163.355 97.4161 163.275 97.4685 163.189 97.5209L162.474 96.4011C162.398 96.4583 162.317 96.5107 162.231 96.5631L161.517 95.4434C161.441 95.5005 161.36 95.553 161.274 95.6054L160.56 94.4856C160.483 94.5428 160.402 94.5952 160.317 94.6476L159.602 93.5278C159.526 93.585 159.445 93.6374 159.359 93.6899C159.121 93.3182 158.883 92.9417 158.645 92.5701L158.407 92.7369L157.692 91.6123C157.616 91.6695 157.53 91.7219 157.449 91.7791L156.735 90.6545C156.659 90.7117 156.573 90.7641 156.492 90.8213L155.777 89.6968C155.701 89.754 155.615 89.8111 155.534 89.8636L154.82 88.739C154.744 88.7962 154.658 88.8534 154.577 88.9058L153.863 87.7813C153.786 87.8384 153.701 87.8956 153.62 87.948L152.905 86.8235C152.829 86.8807 152.743 86.9379 152.662 86.9903L151.948 85.8657C151.871 85.9267 151.79 85.9824 151.705 86.0325L150.991 84.908C150.913 84.969 150.832 85.0247 150.748 85.0747L150.033 83.9502C149.956 84.0112 149.875 84.0669 149.79 84.117L149.076 82.9972C149 83.0544 148.919 83.1068 148.833 83.1592L148.118 82.0394C148.042 82.0966 147.961 82.149 147.875 82.2014L147.161 81.0817C147.085 81.1388 147.004 81.1913 146.918 81.2437L146.204 80.1239C146.127 80.1811 146.046 80.2335 145.961 80.2859L145.246 79.1661C145.17 79.2233 145.089 79.2757 145.003 79.3281L144.289 78.2084C144.213 78.2655 144.132 78.318 144.046 78.3704L143.331 77.2506L143.093 77.4174C142.85 77.041 142.617 76.6645 142.374 76.2928C142.303 76.35 142.217 76.4024 142.136 76.4596L141.421 75.3351C141.345 75.3923 141.26 75.4447 141.179 75.5018L140.464 74.3773C140.388 74.4345 140.302 74.4917 140.221 74.5441L139.507 73.4195C139.431 73.4767 139.345 73.5339 139.264 73.5863L138.549 72.4618C138.473 72.519 138.387 72.5761 138.306 72.6286L137.592 71.504C137.516 71.5612 137.43 71.6184 137.349 71.6708L136.635 70.5463C136.557 70.6072 136.476 70.663 136.392 70.713L135.677 69.5885C135.6 69.6495 135.519 69.7052 135.434 69.7553L134.72 68.6307C134.458 68.8356 134.11 68.9833 133.943 69.2454L127.389 79.4806C127.389 79.2996 127.389 79.1137 127.389 78.9327H126.437C126.437 78.6134 126.437 78.2941 126.437 77.9797H125.484C125.484 77.6604 125.484 77.3411 125.484 77.0267H124.532C124.532 76.7074 124.532 76.3881 124.532 76.0737H123.579C123.579 75.7544 123.579 75.4351 123.579 75.1207H122.626C122.626 74.8014 122.626 74.4821 122.626 74.1677H121.674C121.674 73.8484 121.674 73.5291 121.674 73.2147H120.721C120.721 72.8954 120.721 72.5761 120.721 72.2617H119.769C119.769 71.9424 119.769 71.6231 119.769 71.3087H118.816C118.816 70.9894 118.816 70.6701 118.816 70.3557H117.863C117.863 70.0364 117.863 69.7171 117.863 69.4027H116.911C116.911 69.0834 116.911 68.7689 116.911 68.4497H115.958C115.958 68.1304 115.958 67.8111 115.958 67.4967H115.005C115.005 67.1774 115.005 66.8581 115.005 66.5437H114.053C114.053 66.2244 114.053 65.9052 114.053 65.5907H113.1C113.1 65.2714 113.1 64.9522 113.1 64.6377H112.148C112.148 64.3184 112.148 63.9992 112.148 63.6847H111.195C111.195 63.3654 111.195 63.0462 111.195 62.7317H110.242C110.242 62.4124 110.242 62.0932 110.242 61.7787H109.29C109.29 61.4594 109.29 61.1402 109.29 60.8257H108.337C108.337 60.5064 108.337 60.1872 108.337 59.8727H107.384C107.384 59.5534 107.384 59.2342 107.384 58.9197H106.432C106.432 58.6004 106.432 58.2812 106.432 57.9667H105.479C105.479 57.6474 105.479 57.3282 105.479 57.0137H104.527C104.527 56.6944 104.527 56.3752 104.527 56.0607H103.574C103.574 55.7414 103.574 55.4222 103.574 55.1077H88.7703C88.7703 55.4269 88.7703 55.7462 88.7703 56.0607C88.7703 55.7414 88.7703 55.4222 88.7703 55.1077H58.7629C58.7274 55.3158 58.7035 55.5258 58.6915 55.7366C58.6915 61.6834 58.6915 67.6301 58.6915 73.5768C58.7123 73.8487 58.7488 74.1192 58.801 74.3868H59.6488V74.5346C59.6696 74.8065 59.7062 75.0769 59.7584 75.3446H60.6062V75.4923C60.627 75.7642 60.6636 76.0347 60.7158 76.3024H61.5636V76.4453C61.5841 76.7188 61.6206 76.9909 61.6731 77.2601H62.521V77.4031C62.539 77.6769 62.5757 77.9491 62.6305 78.2179H63.4784V78.3608C63.4964 78.6346 63.533 78.9068 63.5879 79.1757H64.4357V79.3186C64.4538 79.5924 64.4904 79.8646 64.5453 80.1334H65.0978V81.3866C65.0978 84.3886 65.1407 87.3905 65.1645 90.3925L65.1597 99.9082V106.312V112.712C65.1597 114.846 65.1597 116.98 65.1597 119.111L65.1883 128.741C65.1645 129.022 65.1216 129.303 65.1216 129.589C65.1216 135.784 65.1216 141.926 65.1216 148.097C65.1291 149.055 65.2136 150.011 65.3741 150.956C65.9978 154.352 67.7199 157.449 70.2753 159.771C70.5928 160.104 70.9104 160.422 71.2279 160.724C71.5454 161.026 71.863 161.343 72.1805 161.677C72.4981 161.994 72.8156 162.312 73.1331 162.63C73.438 162.959 73.7619 163.278 74.0857 163.583C74.4096 163.888 74.7097 164.231 75.0384 164.536C75.367 164.841 75.6623 165.184 75.991 165.489C76.3196 165.794 76.6149 166.137 76.9436 166.442C77.2722 166.747 77.5676 167.09 77.8962 167.395C78.2249 167.7 78.5202 168.048 78.8488 168.348C79.1775 168.648 79.4728 169.001 79.8014 169.301C80.1301 169.601 80.4254 169.954 80.7541 170.254C81.0827 170.554 81.378 170.907 81.7067 171.207C82.0353 171.507 82.3306 171.86 82.6593 172.16C82.9879 172.46 83.2833 172.813 83.6119 173.113C83.9406 173.413 84.2359 173.766 84.5645 174.066C84.8932 174.366 85.1933 174.719 85.5171 175.019C85.841 175.319 86.1459 175.672 86.4698 175.972C86.7937 176.272 87.0985 176.625 87.4224 176.925C87.7463 177.225 88.0511 177.578 88.375 177.878C88.6989 178.178 89.0037 178.526 89.3276 178.831C89.6515 179.136 89.9563 179.479 90.2802 179.784C90.6041 180.089 90.9042 180.432 91.2328 180.737C91.5615 181.042 91.8568 181.385 92.1855 181.69C92.5141 181.995 92.8094 182.343 93.1381 182.643C93.4667 182.943 93.762 183.296 94.0907 183.596C94.4194 183.896 94.7147 184.249 95.0433 184.549C95.372 184.849 95.6673 185.202 95.9959 185.502C96.3246 185.802 96.6199 186.155 96.9485 186.455C97.2772 186.755 97.5725 187.108 97.9012 187.408C98.2298 187.708 98.5251 188.061 98.8538 188.361C99.1824 188.661 99.4777 189.014 99.8064 189.314C100.135 189.614 100.43 189.967 100.759 190.267C101.088 190.567 101.388 190.92 101.712 191.22C102.036 191.52 102.34 191.873 102.664 192.173C102.988 192.473 103.293 192.826 103.617 193.126C103.941 193.426 104.246 193.774 104.569 194.079C104.893 194.384 105.198 194.727 105.522 195.032C105.846 195.337 106.146 195.68 106.475 195.985C106.803 196.29 107.099 196.633 107.427 196.938C107.756 197.243 108.051 197.586 108.38 197.891C108.709 198.196 109.004 198.544 109.333 198.844C109.661 199.144 109.957 199.497 110.285 199.797C110.614 200.097 110.909 200.45 111.238 200.75C111.566 201.05 111.862 201.403 112.19 201.703C112.519 202.003 112.814 202.356 113.143 202.656C113.472 202.956 113.767 203.309 114.096 203.609C114.424 203.909 114.72 204.262 115.048 204.562C115.377 204.862 115.672 205.215 116.001 205.515C116.33 205.815 116.63 206.168 116.954 206.468C117.277 206.768 117.582 207.121 117.906 207.421C118.23 207.721 118.535 208.074 118.859 208.374C119.183 208.674 119.487 209.022 119.811 209.327C120.135 209.632 120.44 209.975 120.764 210.28C121.088 210.585 121.393 210.928 121.717 211.233C122.04 211.538 122.341 211.881 122.669 212.186C122.998 212.491 123.293 212.834 123.622 213.139C123.95 213.444 124.246 213.792 124.574 214.092C124.903 214.392 125.198 214.745 125.527 215.045C125.856 215.345 126.151 215.698 126.48 215.998C126.808 216.298 127.104 216.651 127.432 216.951C127.761 217.251 128.056 217.604 128.385 217.904C128.714 218.204 129.009 218.557 129.338 218.857C129.666 219.157 129.961 219.51 130.29 219.81C130.619 220.11 130.914 220.463 131.243 220.763C131.571 221.063 131.871 221.416 132.195 221.716C132.519 222.016 132.824 222.369 133.148 222.669C133.472 222.969 133.777 223.322 134.101 223.622C134.424 223.922 134.729 224.275 135.053 224.575C135.377 224.875 135.682 225.223 136.006 225.528C136.33 225.833 136.635 226.176 136.958 226.481C137.282 226.786 137.582 227.129 137.911 227.434C138.24 227.739 138.535 228.082 138.864 228.387C139.192 228.692 139.488 229.035 139.816 229.34C140.145 229.645 140.44 229.993 140.769 230.293C141.098 230.593 141.393 230.946 141.722 231.246C142.05 231.546 142.346 231.899 142.674 232.199C143.003 232.499 143.298 232.852 143.627 233.152C143.955 233.452 144.251 233.805 144.579 234.105C144.908 234.405 145.203 234.758 145.532 235.058C145.861 235.358 146.156 235.711 146.485 236.011C146.813 236.311 147.109 236.664 147.437 236.964C147.766 237.264 148.066 237.617 148.39 237.917C148.714 238.217 149.019 238.57 149.342 238.87C149.666 239.17 149.971 239.523 150.295 239.823C150.619 240.123 150.924 240.476 151.248 240.776C151.572 241.076 151.876 241.424 152.2 241.729C152.524 242.034 152.824 242.377 153.153 242.682C153.482 242.987 153.777 243.33 154.106 243.635C154.434 243.94 154.73 244.283 155.058 244.588C155.387 244.893 155.682 245.241 156.011 245.541C156.339 245.841 156.635 246.194 156.963 246.494C157.292 246.794 157.587 247.147 157.916 247.447C158.245 247.747 158.54 248.1 158.869 248.4C159.197 248.7 159.493 249.053 159.821 249.353C160.15 249.653 160.445 250.006 160.774 250.306C161.103 250.606 161.398 250.959 161.726 251.259C162.055 251.559 162.35 251.912 162.679 252.212C163.008 252.512 163.308 252.865 163.632 253.165C163.956 253.465 164.26 253.818 164.584 254.118C164.908 254.418 165.213 254.771 165.537 255.071C168.566 258.359 172.905 260.417 177.34 260.246C178.399 260.208 179.455 260.108 180.503 259.945C184.138 259.231 187.409 257.269 189.751 254.398C192.093 251.526 193.359 247.927 193.33 244.221C193.368 238.155 193.33 232.089 193.33 226.019C193.312 225.669 193.275 225.321 193.22 224.975C193.356 224.634 193.449 224.277 193.496 223.912C193.496 220.717 193.496 217.523 193.496 214.33L193.625 214.459C193.934 214.783 194.254 215.097 194.578 215.412C194.901 215.726 195.206 216.05 195.53 216.365C195.854 216.679 196.159 217.008 196.483 217.318C196.807 217.627 197.111 217.961 197.435 218.271C197.759 218.58 198.064 218.914 198.388 219.224C198.712 219.533 199.017 219.867 199.341 220.177C199.664 220.486 199.969 220.82 200.293 221.13C200.617 221.439 200.922 221.773 201.246 222.083C201.57 222.392 201.875 222.726 202.198 223.036C202.522 223.345 202.827 223.679 203.151 223.989C203.475 224.298 203.78 224.632 204.104 224.942C204.428 225.251 204.732 225.585 205.056 225.895C205.38 226.204 205.69 226.538 206.009 226.848C206.328 227.157 206.642 227.491 206.962 227.801C207.281 228.11 207.595 228.444 207.914 228.754C208.233 229.063 208.543 229.397 208.867 229.707C209.191 230.016 209.495 230.35 209.819 230.66C210.143 230.969 210.448 231.298 210.772 231.613C211.096 231.927 211.401 232.256 211.725 232.566C213.515 234.538 215.564 236.258 217.817 237.679C221.803 240.257 226.475 241.571 231.22 241.448C231.393 241.477 231.568 241.493 231.744 241.495C242.666 240.847 250.487 235.582 254.883 225.561C257.75 219.014 257.217 212.272 255.354 205.562Z" fill="#D1D1D1"/>
</g>
<path d="M103.063 55.0024C103.063 58.1902 103.116 61.3732 103.125 64.561C103.135 67.7488 103.125 70.9223 103.125 74.2768H96.7191L88.1455 74.1673L88.3598 55.0024H103.063Z" fill="#F3F3F3"/>
<path d="M64.6828 74.2816H58.4003C58.3494 74.0139 58.3144 73.7434 58.2955 73.4716C58.2955 67.5249 58.2955 61.5781 58.2955 55.6314C58.3076 55.4206 58.3314 55.2106 58.367 55.0024H73.0563C73.0563 60.0311 73.0563 65.055 73.0563 70.0741C73.0894 70.4476 73.1547 70.8174 73.2516 71.1796L73.0516 74.1673C72.6658 74.1673 72.2752 74.2101 71.8894 74.2149L64.6828 74.2816Z" fill="#F3F3F3"/>
<path d="M88.3735 55.0024L88.1591 74.1673L80.6906 74.2911V74.1863V55.0024H88.3735Z" fill="#F3F3F3"/>
<path d="M80.7105 55.0024C80.7105 61.3971 80.7105 67.7917 80.7105 74.1863H73.0658C73.1325 73.1904 73.2039 72.1945 73.2706 71.1987C73.2706 65.7983 73.2706 60.406 73.2706 55.0215L80.7105 55.0024Z" fill="#F3F3F3"/>
<path d="M73.2563 55.0024C73.2563 60.4028 73.2563 65.7952 73.2563 71.1796C73.1571 70.818 73.0917 70.4479 73.061 70.0741C73.061 65.0518 73.061 60.0279 73.061 55.0024H73.2563Z" fill="#F3F3F3"/>
<path d="M134.158 144.732C129.411 144.855 124.739 143.543 120.749 140.968C112.424 135.603 108.318 127.912 108.537 117.982C108.681 111.458 110.637 105.102 114.186 99.6268C120.622 89.4774 127.075 79.3422 133.543 69.2214C133.769 68.9758 134.033 68.7682 134.324 68.6067C134.237 68.9393 134.18 69.279 134.153 69.6216C134.153 82.5538 134.153 95.4844 134.153 108.413H130.89V114.903H124.593V121.265H130.971V127.712H134.153L134.158 144.732Z" fill="#F3F3F3"/>
<path d="M134.157 144.732V127.607H137.401V121.222H143.683V114.827H137.31V108.475H134.138V108.413C134.138 95.4845 134.138 82.5538 134.138 69.6216C134.165 69.279 134.223 68.9393 134.31 68.6067C140.225 77.8984 146.147 87.1854 152.076 96.4676C154.586 100.38 157.015 104.32 158.268 108.857C160.13 115.566 160.649 122.308 157.792 128.87C153.39 138.876 145.574 144.156 134.652 144.804C134.486 144.795 134.32 144.771 134.157 144.732V144.732Z" fill="#E6E6E6"/>
<path d="M96.5947 90.3157C96.7296 90.6587 96.8208 91.0173 96.8662 91.3831C96.8662 103.474 96.8662 115.562 96.8662 127.65C96.8185 128.014 96.7257 128.371 96.5899 128.712H90.8742L80.705 128.774C80.7169 128.727 80.7169 128.678 80.705 128.631V106.34V106.255H83.8344V99.9696H80.7098V99.8696C80.7098 96.6929 80.7098 93.5289 80.7098 90.3777C80.7217 90.3292 80.7217 90.2785 80.7098 90.23C81.0956 90.23 81.4814 90.2919 81.8672 90.2919L96.5947 90.3157Z" fill="#F3F3F3"/>
<path d="M80.7149 163.987C73.3464 164.268 66.2351 158.398 64.9681 150.95C64.8037 150.006 64.7176 149.05 64.7109 148.091C64.6871 141.897 64.7109 135.755 64.7109 129.584C64.7109 129.298 64.7538 129.017 64.7776 128.736C67.5402 128.736 70.3075 128.736 73.0701 128.736C75.6184 128.736 78.1714 128.693 80.7196 128.669C80.7315 128.716 80.7315 128.765 80.7196 128.812C80.7165 140.531 80.7149 152.256 80.7149 163.987Z" fill="#E6E6E6"/>
<path d="M80.7147 163.988C80.7147 152.256 80.7147 140.525 80.7147 128.793L90.8838 128.731H96.5995C96.6551 129.079 96.6917 129.429 96.7091 129.78C96.7091 135.846 96.7424 141.911 96.7091 147.977C96.7376 151.683 95.4715 155.282 93.1295 158.153C90.7875 161.024 87.5167 162.987 83.8821 163.702C82.8326 163.857 81.7751 163.953 80.7147 163.988V163.988Z" fill="#E6E6E6"/>
<path d="M80.711 128.65C78.1627 128.65 75.6097 128.702 73.0615 128.717C70.2989 128.717 67.5315 128.717 64.7689 128.717C64.7689 125.508 64.7578 122.298 64.7356 119.087H77.434V112.711H64.7451V106.312L80.711 106.34V128.65Z" fill="#F5F8F9"/>
<path d="M73.0468 74.1672H80.6916V74.2721V90.211C80.7035 90.2595 80.7035 90.3102 80.6916 90.3587C80.3058 90.3349 79.9152 90.2872 79.5294 90.2872H64.7638C64.7638 87.2853 64.7162 84.2833 64.7019 81.2814C64.7019 78.9465 64.7019 76.6164 64.7019 74.2816L71.8989 74.2149C72.2752 74.2101 72.661 74.1863 73.0468 74.1672Z" fill="#E6E6E6"/>
<path d="M80.705 90.2301V74.2911L88.1735 74.1672L96.7471 74.2768C96.7471 79.2038 96.7471 84.1277 96.7471 89.0483C96.7471 89.4676 96.6804 89.887 96.6423 90.3063L81.9005 90.2825C81.4766 90.292 81.0908 90.2491 80.705 90.2301Z" fill="#E6E6E6"/>
<path d="M64.7639 90.2871H79.5295C79.9153 90.2871 80.3059 90.3348 80.6917 90.3586C80.6917 93.5352 80.6917 96.6992 80.6917 99.8504L64.7115 99.8886L64.7639 90.2871Z" fill="#F6F8F9"/>
<path d="M64.7356 99.908L80.7158 99.8699V99.9699C80.7158 102.067 80.7158 104.162 80.7158 106.255V106.341L64.7499 106.312L64.7356 99.908Z" fill="#E6E6E6"/>
<path d="M64.7451 112.711H77.434V119.111H64.7356L64.7451 112.711Z" fill="#E6E6E6"/>
<path d="M134.152 127.711H130.97V121.264H124.593V114.903H130.889V108.413H134.143V108.475V127.621L134.152 127.711Z" fill="#F6F8F9"/>
<path d="M134.152 127.607V108.461H137.325V114.813H143.693V121.222H137.396V127.607H134.152Z" fill="#F6F8F9"/>
<path d="M80.7003 106.255C80.7003 104.158 80.7003 102.063 80.7003 99.9695H83.8248V106.255H80.7003Z" fill="#E6E6E6"/>
</svg>
