<svg width="219" height="219" viewBox="0 0 219 219" fill="none" xmlns="http://www.w3.org/2000/svg">
<path d="M109.5 218.999C169.975 218.999 218.999 169.975 218.999 109.5C218.999 49.0247 169.975 0 109.5 0C49.0247 0 0 49.0247 0 109.5C0 169.975 49.0247 218.999 109.5 218.999Z" fill="#D8D8D8"/>
<mask id="mask0_405_1051" style="mask-type:alpha" maskUnits="userSpaceOnUse" x="0" y="0" width="219" height="219">
<path d="M109.5 218.999C169.975 218.999 218.999 169.975 218.999 109.5C218.999 49.0247 169.975 0 109.5 0C49.0247 0 0 49.0247 0 109.5C0 169.975 49.0247 218.999 109.5 218.999Z" fill="#F8E1E1"/>
</mask>
<g mask="url(#mask0_405_1051)">
<path opacity="0.5" d="M240.086 169.839C240.086 169.02 240.085 168.195 240.047 167.376C240.047 157.163 240.057 146.95 240.076 136.737C240.071 134.236 239.555 131.762 238.56 129.468C237.564 127.173 236.11 125.107 234.287 123.395C234.039 123.134 233.786 122.882 233.529 122.637C233.286 122.375 233.052 122.127 232.771 121.88C232.49 121.632 232.295 121.37 232.014 121.122C231.732 120.874 231.537 120.612 231.256 120.364C230.975 120.116 230.779 119.854 230.503 119.611C230.227 119.368 230.027 119.097 229.745 118.854C229.464 118.611 229.269 118.339 228.988 118.096C228.707 117.853 228.487 117.586 228.23 117.338C227.973 117.091 227.754 116.829 227.473 116.581C227.191 116.333 226.996 116.071 226.715 115.823C226.434 115.575 226.238 115.313 225.962 115.07C225.686 114.827 225.462 114.556 225.204 114.313C224.947 114.07 224.728 113.798 224.447 113.555C224.166 113.312 223.97 113.045 223.689 112.797C223.408 112.55 223.189 112.288 222.931 112.04C222.674 111.792 222.455 111.53 222.174 111.282C221.893 111.034 221.697 110.772 221.421 110.529C221.145 110.286 220.921 110.015 220.663 109.772C220.406 109.529 220.187 109.257 219.906 109.014C219.625 108.771 219.429 108.504 219.148 108.256C218.867 108.009 218.672 107.747 218.39 107.499C218.109 107.251 217.914 106.989 217.633 106.741C217.352 106.493 217.156 106.231 216.88 105.988C216.604 105.745 216.403 105.474 216.122 105.231C215.841 104.988 215.622 104.716 215.365 104.473C215.107 104.23 214.888 103.963 214.607 103.715C214.326 103.468 214.131 103.205 213.849 102.958C213.568 102.71 213.373 102.448 213.092 102.2C212.811 101.952 212.615 101.69 212.339 101.447C212.063 101.204 211.862 100.933 211.581 100.69C211.3 100.447 211.105 100.175 210.824 99.9319C210.543 99.6889 210.323 99.422 210.066 99.1743C209.809 98.9265 209.589 98.6644 209.308 98.4166C209.027 98.1689 208.832 97.9068 208.551 97.659C208.27 97.4112 208.074 97.1492 207.798 96.9061C207.521 96.6631 207.321 96.3915 207.04 96.1485C206.759 95.9055 206.564 95.6339 206.283 95.3909C206.001 95.1479 205.806 94.881 205.525 94.6332C205.244 94.3854 205.025 94.1234 204.767 93.8756C204.51 93.6278 204.291 93.3657 204.01 93.118C203.729 92.8702 203.533 92.6081 203.257 92.3651C202.98 92.1221 202.756 91.8505 202.499 91.6075C202.242 91.3644 202.023 91.0928 201.742 90.8498C201.46 90.6068 201.265 90.34 200.984 90.0922C200.703 89.8444 200.484 89.5823 200.226 89.3345C199.969 89.0868 199.75 88.8247 199.469 88.5769C199.187 88.3291 198.992 88.0671 198.716 87.824C198.439 87.581 198.239 87.3094 197.958 87.0664C197.677 86.8234 197.458 86.5518 197.2 86.3088C196.943 86.0657 196.724 85.7989 196.443 85.5511C196.162 85.3033 195.966 85.0413 195.685 84.7935C195.404 84.5457 195.209 84.2836 194.928 84.0359C194.646 83.7881 194.451 83.526 194.175 83.283C193.898 83.04 193.698 82.7684 193.417 82.5254C193.136 82.2824 192.941 82.0107 192.659 81.7677C192.378 81.5247 192.159 81.2579 191.902 81.0101C191.644 80.7623 191.425 80.5002 191.144 80.2524C190.863 80.0047 190.668 79.7426 190.387 79.4948C190.105 79.247 189.91 78.985 189.634 78.742C189.357 78.4989 189.157 78.2273 188.876 77.9843C188.595 77.7413 188.4 77.4697 188.118 77.2267C187.837 76.9837 187.618 76.7168 187.361 76.469C187.103 76.2213 186.86 75.9592 186.603 75.7114C186.346 75.4636 186.127 75.2015 185.845 74.9538C185.564 74.706 185.369 74.4439 185.093 74.2009C184.816 73.9579 184.592 73.6863 184.335 73.4433C184.078 73.2002 183.858 72.9286 183.577 72.6856C183.296 72.4426 183.101 72.1758 182.82 71.928C182.539 71.6802 182.319 71.4181 182.062 71.1704C181.805 70.9226 181.586 70.6605 181.304 70.4127C181.023 70.1649 180.828 69.9029 180.552 69.6599C180.275 69.4168 180.075 69.1452 179.794 68.9022C179.513 68.6592 179.294 68.3876 179.036 68.1446C178.779 67.9016 178.56 67.6347 178.279 67.3869C177.998 67.1392 177.802 66.8771 177.521 66.6293C177.24 66.3815 177.045 66.1195 176.763 65.8717C176.482 65.6239 176.287 65.3618 176.011 65.1188C175.734 64.8758 175.534 64.6042 175.253 64.3612C174.972 64.1181 174.753 63.8465 174.495 63.6035C174.238 63.3605 173.995 63.0937 173.738 62.8459C173.48 62.5981 173.261 62.336 172.98 62.0883C172.699 61.8405 172.503 61.5784 172.222 61.3306C171.941 61.0829 171.746 60.8208 171.469 60.5778C171.193 60.3347 170.993 60.0631 170.712 59.8201C170.431 59.5771 170.235 59.3055 169.954 59.0625C169.673 58.8195 169.454 58.5526 169.197 58.3049C168.939 58.0571 168.696 57.795 168.439 57.5472C168.182 57.2994 167.962 57.0374 167.681 56.7896C167.4 56.5418 167.205 56.2797 166.928 56.0367C166.652 55.7937 166.428 55.5221 166.171 55.2791C165.913 55.0361 165.694 54.7645 165.413 54.5214C165.132 54.2784 164.937 54.0116 164.656 53.7638C164.374 53.516 164.155 53.254 163.898 53.0062C163.641 52.7584 163.421 52.4963 163.14 52.2485C162.859 52.0008 162.664 51.7387 162.387 51.4957C162.111 51.2526 161.887 50.981 161.63 50.738C161.372 50.495 161.129 50.2234 160.872 49.9804C160.615 49.7374 160.396 49.4705 160.114 49.2228C159.833 48.975 159.638 48.7129 159.357 48.4651C159.076 48.2173 158.88 47.9553 158.599 47.7075C156.875 45.8366 154.773 44.3525 152.433 43.3529C150.093 42.3533 147.568 41.861 145.024 41.9085C144.54 41.825 144.051 41.7693 143.561 41.7417H76.3743C75.8839 41.769 75.3955 41.8247 74.9115 41.9085C73.644 42.0133 72.3574 42.0133 71.0995 42.2373C63.2086 43.6668 56.4376 51.2527 56.328 59.0577C56.1993 69.6789 56.2994 80.3049 56.2994 90.9261C56.2994 91.1548 56.2613 91.3787 56.2613 91.6075C56.2613 113.997 56.2613 136.392 56.2613 158.794C56.2492 159.568 56.2922 160.342 56.3899 161.11C56.9687 165.269 58.9467 169.108 61.9983 171.993C62.2413 172.255 62.4748 172.508 62.756 172.751C63.0371 172.994 63.2325 173.265 63.5136 173.508C63.7947 173.751 63.9901 174.023 64.2665 174.266C64.5428 174.509 64.7668 174.776 65.0241 175.024C65.2814 175.271 65.5244 175.533 65.7817 175.781C66.039 176.029 66.2582 176.291 66.5394 176.534C66.8205 176.777 67.0397 177.049 67.297 177.292C67.5543 177.535 67.7735 177.806 68.0546 178.049C68.3358 178.292 68.5311 178.559 68.8075 178.807C69.0839 179.055 69.3078 179.317 69.5652 179.565C69.8225 179.812 70.0416 180.074 70.3228 180.322C70.6039 180.57 70.8231 180.832 71.0804 181.075C71.3377 181.318 71.5569 181.59 71.8381 181.833C72.1192 182.076 72.3146 182.347 72.5957 182.59C72.8768 182.833 73.0722 183.105 73.3485 183.348C73.6249 183.591 73.8489 183.858 74.1062 184.106C74.3635 184.353 74.6065 184.616 74.8638 184.863C75.1211 185.111 75.3403 185.373 75.6215 185.621C75.9026 185.869 76.1218 186.131 76.3791 186.374C76.6364 186.617 76.8556 186.888 77.1367 187.131C77.4179 187.374 77.6132 187.646 77.8896 187.889C78.166 188.132 78.3899 188.399 78.6472 188.647C78.9046 188.894 79.1237 189.157 79.4049 189.404C79.686 189.652 79.9052 189.914 80.1625 190.162C80.4198 190.41 80.639 190.672 80.9201 190.915C81.2013 191.158 81.3966 191.429 81.6778 191.673C81.9589 191.916 82.1543 192.187 82.4307 192.43C82.707 192.673 82.9072 192.94 83.1883 193.188C83.4694 193.436 83.6886 193.698 83.9459 193.945C84.2032 194.193 84.4224 194.455 84.7036 194.703C84.9847 194.951 85.2039 195.213 85.4612 195.456C85.7185 195.699 85.9377 195.971 86.2188 196.214C86.5 196.457 86.6953 196.728 86.9717 196.971C87.2481 197.214 87.472 197.481 87.7293 197.729C87.9866 197.977 88.2058 198.239 88.487 198.486C88.7681 198.734 88.9873 198.996 89.2446 199.244C89.5019 199.492 89.7449 199.754 90.0022 199.997C90.2595 200.24 90.4787 200.512 90.7599 200.755C91.041 200.998 91.2364 201.269 91.5175 201.512C91.7986 201.755 91.994 202.022 92.2704 202.27C92.5468 202.518 92.7707 202.78 93.028 203.028C93.2853 203.275 93.5045 203.537 93.7857 203.785C94.0668 204.033 94.286 204.295 94.5433 204.538C94.8006 204.781 95.0198 205.053 95.3009 205.296C95.5821 205.539 95.7774 205.81 96.0586 206.053C96.3397 206.296 96.5351 206.563 96.8114 206.811C97.0878 207.059 97.2879 207.321 97.5691 207.569C97.8502 207.816 98.0694 208.078 98.3267 208.326C98.584 208.574 98.827 208.836 99.0843 209.079C99.3416 209.322 99.5608 209.594 99.842 209.837C100.123 210.08 100.318 210.351 100.6 210.594C100.881 210.837 101.076 211.104 101.352 211.352C101.629 211.6 101.853 211.862 102.11 212.11C102.367 212.357 102.61 212.619 102.868 212.867C103.125 213.115 103.368 213.377 103.625 213.62C103.883 213.863 104.102 214.135 104.383 214.378C104.664 214.621 104.86 214.892 105.141 215.135C105.422 215.378 105.617 215.645 105.894 215.893C106.17 216.141 106.37 216.403 106.651 216.651C106.932 216.898 107.151 217.161 107.409 217.408C107.666 217.656 107.909 217.918 108.166 218.161C108.424 218.404 108.643 218.676 108.924 218.919C109.205 219.162 109.401 219.433 109.682 219.676C109.963 219.919 110.158 220.186 110.435 220.434C110.711 220.682 110.935 220.944 111.192 221.192C111.45 221.439 111.693 221.702 111.95 221.949C112.207 222.197 112.45 222.459 112.707 222.702C112.965 222.945 113.184 223.217 113.465 223.46C113.746 223.703 113.942 223.974 114.223 224.217C114.504 224.46 114.699 224.727 114.976 224.975C115.252 225.223 115.476 225.485 115.733 225.733C115.991 225.981 116.21 226.243 116.491 226.49C116.772 226.738 116.967 227 117.249 227.243C117.53 227.486 117.725 227.758 118.006 228.001C118.287 228.244 118.483 228.516 118.759 228.759C119.035 229.002 119.236 229.268 119.517 229.516C119.798 229.764 120.017 230.026 120.274 230.274C120.532 230.522 120.775 230.784 121.032 231.027C121.289 231.27 121.508 231.541 121.79 231.784C122.071 232.027 122.266 232.299 122.547 232.542C122.828 232.785 123.024 233.057 123.3 233.3C123.576 233.543 123.777 233.809 124.058 234.057C124.339 234.305 124.534 234.567 124.815 234.815C125.096 235.063 125.316 235.325 125.573 235.568C125.83 235.811 126.073 236.082 126.331 236.325C126.588 236.568 126.807 236.84 127.088 237.083C127.369 237.326 127.565 237.598 127.841 237.841C128.117 238.084 128.341 238.35 128.599 238.598C128.856 238.846 129.075 239.108 129.356 239.356C129.638 239.604 129.833 239.866 130.114 240.109C130.395 240.352 130.614 240.623 130.872 240.866C131.129 241.109 131.348 241.381 131.629 241.624C131.91 241.867 132.106 242.139 132.382 242.382C132.659 242.625 132.882 242.892 133.14 243.139C133.397 243.387 133.64 243.649 133.897 243.897C134.155 244.145 134.374 244.407 134.655 244.65C134.936 244.893 135.132 245.164 135.413 245.407C135.694 245.65 135.889 245.922 136.17 246.165C136.451 246.408 136.647 246.68 136.923 246.923C137.2 247.166 137.4 247.433 137.681 247.68C139.489 249.593 141.672 251.114 144.092 252.148C146.513 253.182 149.12 253.709 151.752 253.694C174.829 253.556 197.91 253.66 220.987 253.627C222.643 253.649 224.295 253.476 225.91 253.112C234.406 251.044 240.081 243.721 240.09 234.824C240.109 213.163 240.108 191.501 240.086 169.839Z" fill="#CACACA"/>
</g>
<path d="M164.303 91.2687C164.303 92.093 164.341 92.9221 164.341 93.7465C164.341 115.583 164.341 137.422 164.341 159.265C164.341 168.233 158.623 175.619 150.046 177.701C148.434 178.065 146.785 178.239 145.133 178.22C121.866 178.254 98.598 178.149 75.3353 178.287C66.2056 178.344 57.681 171.883 56.2753 162.015C56.1752 161.239 56.1322 160.457 56.1466 159.675C56.1466 137.102 56.1466 114.528 56.1466 91.9548C56.1466 91.7261 56.1752 91.4783 56.1848 91.2687C66.5089 91.2687 76.8331 91.2687 87.1573 91.2687C87.6861 91.2291 88.2105 91.1446 88.725 91.0161H131.801C132.315 91.1446 132.839 91.2291 133.368 91.2687C143.667 91.275 153.978 91.275 164.303 91.2687ZM67.7494 135.107C67.7494 140.715 67.7494 146.323 67.7494 151.932C67.7768 153.119 67.9044 154.302 68.1306 155.468C69.4124 162.615 76.7314 167.599 83.4358 166.298C88.3533 165.345 91.8556 162.61 93.5948 158.022C94.4477 155.777 94.5192 153.209 94.7575 150.764C95.2022 146.263 95.5627 141.754 95.8391 137.237C95.9975 135.182 96.762 133.22 98.0358 131.6C99.1127 130.122 100.256 128.426 100.528 126.692C100.981 123.776 100.833 120.75 100.814 117.772C100.776 110.624 97.6069 105.321 91.1313 102.109C84.1982 98.6735 75.7308 101.385 71.2517 107.351C68.7215 110.719 67.7446 114.555 67.7351 118.691C67.7399 124.185 67.7494 129.66 67.7494 135.13V135.107ZM152.709 135.107C152.709 129.865 152.709 124.624 152.709 119.382C152.712 117.872 152.616 116.363 152.424 114.865C151.142 105.645 141.874 99.0213 132.715 100.927C129.064 101.71 125.785 103.706 123.413 106.59C121.041 109.473 119.714 113.075 119.65 116.809C119.574 119.611 119.55 122.422 119.65 125.219C119.727 126.49 120.028 127.737 120.541 128.903C121.072 129.964 121.747 130.947 122.547 131.824C124.01 133.61 124.52 135.636 124.634 137.923C124.872 142.759 125.411 147.581 125.654 152.418C125.925 157.74 127.936 162.015 132.615 164.764C138.362 168.133 145.247 166.537 149.455 161.533C151.89 158.641 152.676 155.215 152.7 151.56C152.738 146.09 152.709 140.62 152.709 135.15V135.107Z" fill="#E6E6E6"/>
<path d="M131.767 90.9975H88.6768C87.3046 90.7177 86.0475 90.0335 85.0675 89.0332C84.0875 88.0328 83.4294 86.7619 83.1779 85.3843C81.8755 78.3956 80.562 71.4069 79.2373 64.4183C77.7983 56.8927 76.3449 49.372 74.8773 41.856C75.3661 41.772 75.8593 41.7163 76.3545 41.6892C98.9279 41.6892 121.503 41.6892 144.079 41.6892C144.573 41.7165 145.065 41.7722 145.552 41.856C145.123 44.0955 144.691 46.3335 144.256 48.5699C143.212 53.9877 142.154 59.4055 141.13 64.8233C139.805 71.8135 138.581 78.8181 137.151 85.7893C136.584 88.6007 134.63 90.3637 131.767 90.9975ZM110.119 84.093H124.462C127.102 84.093 128.75 82.8874 129.275 80.3095C130.704 73.0143 132.081 65.7143 133.368 58.3905C133.844 55.7793 132.729 53.5445 130.623 52.8155C127.189 51.5706 123.689 50.5128 120.14 49.6468C115.232 48.5222 110.21 48.6938 105.202 49.0368C100.148 49.4222 95.1848 50.5942 90.4922 52.5105C87.5713 53.6589 86.6278 56.0176 87.1567 58.8718C88.4099 65.8239 89.6869 72.7713 90.9163 79.7282C91.3928 82.3871 93.3274 84.0882 96.0673 84.0882L110.119 84.093Z" fill="#E6E6E6"/>
<path d="M74.8913 41.8369C76.343 49.3561 77.7963 56.8769 79.2512 64.3992C80.5791 71.3879 81.8926 78.3765 83.1919 85.3652C83.4389 86.7444 84.0934 88.0181 85.0709 89.0219C86.0484 90.0258 87.3042 90.7138 88.6764 90.9974C88.162 91.126 87.6375 91.2105 87.1087 91.25C76.7877 91.2691 66.4635 91.2691 56.1362 91.25C56.1362 80.5383 56.0361 69.8075 56.1648 59.1196C56.2601 51.2478 63.0883 43.6095 71.0459 42.1657C72.3181 41.956 73.6142 41.956 74.8913 41.8369Z" fill="#F3F3F3"/>
<path d="M131.767 90.9973C134.626 90.3636 136.584 88.6148 137.166 85.7796C138.595 78.8132 139.82 71.8087 141.144 64.8136C142.169 59.3958 143.227 53.978 144.27 48.5602C144.705 46.3365 145.137 44.0986 145.566 41.8463C155.315 41.5271 164.34 49.8229 164.331 60.3726C164.331 70.6682 164.321 80.9654 164.302 91.2642C153.981 91.2642 143.657 91.2642 133.33 91.2642C132.802 91.2197 132.279 91.1304 131.767 90.9973V90.9973Z" fill="#F3F3F3"/>
<path d="M67.7485 135.131C67.7485 129.661 67.7485 124.171 67.7485 118.715C67.7485 114.579 68.7349 110.744 71.2651 107.375C75.7442 101.409 84.2116 98.6977 91.1447 102.133C97.6203 105.345 100.789 110.624 100.827 117.796C100.827 120.774 100.994 123.8 100.541 126.716C100.27 128.45 99.1118 130.147 98.0492 131.624C96.7754 133.244 96.0109 135.206 95.8525 137.261C95.5729 141.778 95.2124 146.287 94.7708 150.789C94.5326 153.233 94.4611 155.801 93.6082 158.046C91.8689 162.634 88.3667 165.37 83.4492 166.323C76.7448 167.623 69.4258 162.649 68.144 155.492C67.9177 154.326 67.7902 153.143 67.7628 151.956C67.7104 146.348 67.7485 140.739 67.7485 135.131ZM77.3929 117.024C77.0736 121.212 81.0047 124.114 84.1687 124.171C87.7139 124.219 91.4973 121.222 91.4306 117.11C91.4262 116.179 91.2384 115.258 90.878 114.4C90.5176 113.541 89.9916 112.762 89.33 112.107C88.6684 111.453 87.8843 110.934 87.0224 110.583C86.1605 110.231 85.2378 110.052 84.3069 110.057C83.3921 110.046 82.4842 110.218 81.6373 110.564C80.7904 110.91 80.0216 111.423 79.3767 112.072C78.7318 112.721 78.2238 113.493 77.883 114.342C77.5422 115.191 77.3756 116.1 77.3929 117.014V117.024Z" fill="#F3F3F3"/>
<path d="M152.709 135.15C152.709 140.62 152.737 146.109 152.709 151.561C152.685 155.215 151.899 158.641 149.464 161.534C145.256 166.537 138.371 168.133 132.624 164.764C127.945 162.015 125.953 157.741 125.663 152.418C125.42 147.582 124.881 142.76 124.643 137.923C124.529 135.636 124.019 133.635 122.556 131.824C121.756 130.947 121.081 129.964 120.55 128.903C120.034 127.74 119.729 126.494 119.649 125.224C119.525 122.427 119.549 119.616 119.649 116.814C119.725 113.087 121.057 109.496 123.431 106.621C125.804 103.747 129.079 101.759 132.724 100.98C141.883 99.0741 151.151 105.697 152.432 114.918C152.625 116.416 152.721 117.925 152.718 119.435C152.728 124.672 152.709 129.908 152.709 135.15ZM143.064 117.234C143.341 113.002 139.819 110.062 136.236 110.034C135.293 110.013 134.356 110.181 133.479 110.528C132.603 110.875 131.805 111.395 131.132 112.056C130.46 112.717 129.926 113.506 129.564 114.376C129.202 115.247 129.017 116.181 129.022 117.124C128.95 120.893 132.305 123.962 136.069 124.138C139.581 124.295 143.398 120.86 143.064 117.234Z" fill="#F3F3F3"/>
<path d="M110.118 84.0931H96.0613C93.3214 84.0931 91.3821 82.392 90.9103 79.7331C89.681 72.7762 88.4039 65.8289 87.1507 58.8767C86.6314 56.0177 87.5748 53.6638 90.4862 52.5154C95.1788 50.5991 100.142 49.4271 105.196 49.0418C110.204 48.7082 115.226 48.5271 120.134 49.6517C123.683 50.5177 127.183 51.5755 130.617 52.8204C132.723 53.5494 133.824 55.7842 133.362 58.3955C132.075 65.7145 130.693 73.0145 129.269 80.3145C128.764 82.8923 127.096 84.0979 124.456 84.0979L110.118 84.0931ZM112.601 53.5209H107.836L101.917 54.0784L97.2907 55.1791C95.7754 55.6937 94.2697 56.256 92.7353 56.7086C91.7299 57.0041 91.6584 57.5949 91.83 58.4765C92.5685 62.3456 93.2595 66.2244 93.979 70.0983C94.554 73.1924 95.1353 76.288 95.723 79.3853H124.737C126.062 72.1949 127.377 65.1236 128.625 58.0428C128.624 57.8028 128.562 57.5669 128.445 57.3571C128.329 57.1472 128.161 56.9701 127.958 56.8421C126.391 56.2083 124.766 55.7175 123.16 55.1743L118.524 54.0974L112.601 53.5209Z" fill="#F3F3F3"/>
<path d="M77.3934 117.014C77.3722 116.097 77.536 115.185 77.875 114.333C78.2141 113.48 78.7214 112.705 79.3667 112.053C80.0121 111.401 80.7821 110.886 81.631 110.538C82.4799 110.19 83.3901 110.017 84.3074 110.029C85.2383 110.024 86.161 110.202 87.0229 110.554C87.8848 110.906 88.669 111.424 89.3305 112.079C89.9921 112.734 90.5181 113.512 90.8785 114.371C91.2389 115.229 91.4267 116.15 91.4311 117.081C91.4978 121.193 87.7144 124.19 84.1692 124.143C81.0053 124.104 77.0741 121.203 77.3934 117.014Z" fill="#E6E6E6"/>
<path d="M143.064 117.233C143.398 120.86 139.581 124.295 136.069 124.133C132.305 123.957 128.95 120.888 129.022 117.119C129.018 116.177 129.202 115.243 129.565 114.373C129.928 113.503 130.461 112.714 131.134 112.054C131.806 111.394 132.604 110.874 133.48 110.527C134.357 110.18 135.294 110.012 136.236 110.033C139.819 110.062 143.341 113.002 143.064 117.233Z" fill="#E6E6E6"/>
<path d="M123.161 55.1788C124.767 55.722 126.392 56.2128 127.96 56.8466C128.163 56.9746 128.33 57.1517 128.447 57.3616C128.563 57.5714 128.625 57.8073 128.627 58.0474C127.378 65.1281 126.063 72.1994 124.739 79.3898H112.621C112.621 76.4546 112.654 73.5146 112.621 70.5793C112.621 68.7781 111.644 67.6393 110.205 67.6441C108.766 67.6488 107.823 68.7781 107.823 70.5793C107.823 73.5146 107.823 76.4546 107.823 79.3898H95.7244C95.1367 76.2894 94.5554 73.1937 93.9804 70.1028C93.2657 66.2289 92.5509 62.3502 91.8314 58.481C91.6599 57.5994 91.7313 57.0086 92.7368 56.7132C94.2711 56.2605 95.7768 55.6982 97.2921 55.1836C97.6638 57.0229 98.037 58.8622 98.4119 60.7015C98.6263 61.7593 99.1123 62.6075 100.246 62.8743C101.938 63.2746 103.334 62.0118 103.077 60.1773C102.786 58.1427 102.324 56.1271 101.933 54.1019L107.851 53.5444C107.851 55.7459 107.851 57.9473 107.88 60.1535C107.913 61.9642 108.766 62.9267 110.229 62.9267C111.692 62.9267 112.545 61.9737 112.583 60.1535C112.621 57.9473 112.583 55.7459 112.607 53.5444L118.525 54.1019C118.153 56.0079 117.748 57.8711 117.419 59.7675C117.115 61.5163 117.844 62.698 119.254 62.9077C120.664 63.1173 121.722 62.2882 122.07 60.568C122.439 58.7573 122.802 56.9609 123.161 55.1788Z" fill="#FDFDFD"/>
<path d="M107.837 79.3663C107.837 76.4311 107.809 73.4911 107.837 70.5558C107.837 68.7547 108.79 67.6206 110.22 67.6206C111.649 67.6206 112.602 68.7547 112.636 70.5558C112.636 73.4911 112.636 76.4311 112.636 79.3663H107.837Z" fill="#E6E6E6"/>
<path d="M112.606 53.5203C112.606 55.7217 112.606 57.9231 112.582 60.1293C112.544 61.9353 111.686 62.9026 110.228 62.9026C108.77 62.9026 107.912 61.9496 107.879 60.1293C107.836 57.9231 107.879 55.7217 107.85 53.5203H112.606Z" fill="#E6E6E6"/>
<path d="M101.933 54.0781C102.324 56.1033 102.786 58.1188 103.076 60.1535C103.334 61.988 101.938 63.2508 100.246 62.8505C99.112 62.5837 98.626 61.7355 98.4115 60.6777C98.0335 58.8384 97.6602 56.9991 97.2917 55.1598L101.933 54.0781Z" fill="#E6E6E6"/>
<path d="M123.162 55.1789C122.799 56.9769 122.436 58.7733 122.07 60.5682C121.723 62.2883 120.722 63.1222 119.254 62.9078C117.787 62.6934 117.115 61.5164 117.42 59.7676C117.749 57.8616 118.154 55.989 118.525 54.1021L123.162 55.1789Z" fill="#E6E6E6"/>
</svg>
