<svg width="9" height="9" viewBox="0 0 9 9" fill="none" xmlns="http://www.w3.org/2000/svg">
<path d="M7.5165 9C6.6317 9 5.7469 9 4.86209 9C4.83788 8.9956 4.81147 8.98679 4.78726 8.98459C3.9971 8.94498 3.22674 8.7909 2.4762 8.54219C2.41237 8.52018 2.40137 8.48937 2.40137 8.42994C2.40357 6.88043 2.40357 5.33092 2.40137 3.78142C2.40137 3.72199 2.42118 3.68677 2.4674 3.65156C2.81736 3.38083 3.15411 3.0947 3.45125 2.76235C3.69336 2.49163 3.89585 2.19889 4.02131 1.85334C4.16657 1.44835 4.32285 1.04777 4.48132 0.649386C4.52534 0.539336 4.57596 0.427085 4.64639 0.33024C4.82027 0.0903308 5.06018 -0.0307245 5.36172 0.00669262C5.67866 0.0485117 5.91197 0.211386 5.99561 0.530532C6.03963 0.70221 6.07044 0.880492 6.07925 1.05657C6.10566 1.61563 6.01102 2.16588 5.91417 2.71393C5.88776 2.8614 5.85475 3.01107 5.82393 3.16954C5.87015 3.16954 5.90537 3.16954 5.94058 3.16954C6.54146 3.16954 7.14233 3.17614 7.74101 3.16734C8.42772 3.15853 8.90314 3.83644 8.62801 4.47033C8.606 4.52316 8.57519 4.57378 8.54878 4.6244C8.55758 4.62 8.56638 4.6156 8.57299 4.6112C8.67423 4.73225 8.79309 4.8467 8.87452 4.98096C8.93835 5.08661 8.95816 5.22087 8.99778 5.34193C8.99778 5.39475 8.99778 5.44758 8.99778 5.5004C8.99118 5.52902 8.98457 5.55543 8.98017 5.58404C8.93395 5.82175 8.8173 6.01324 8.62581 6.1607C8.5994 6.18051 8.57079 6.20032 8.54437 6.22013C8.8217 6.63832 8.75127 7.27221 8.18781 7.58475C8.19661 7.60236 8.20542 7.61997 8.21422 7.63978C8.41892 8.04036 8.32207 8.50257 7.97651 8.7887C7.83785 8.90316 7.67938 8.95598 7.5165 9Z" fill="#0284FE"/>
<path d="M1.86425 3.95532C1.86425 5.4366 1.86425 6.91127 1.86425 8.39475C1.83124 8.39695 1.80042 8.39915 1.76961 8.39915C1.28979 8.39915 0.80997 8.39915 0.330151 8.39915C0.0968442 8.39915 0 8.30011 0 8.0668C0 6.80562 0 5.54225 0 4.28107C0 4.05217 0.0990456 3.95532 0.325749 3.95532C0.807769 3.95532 1.29199 3.95532 1.77401 3.95532C1.80042 3.95532 1.82904 3.95532 1.86425 3.95532Z" fill="#0284FE"/>
</svg>
