<svg width="25" height="16" viewBox="0 0 25 16" fill="none" xmlns="http://www.w3.org/2000/svg">
<path d="M15.5254 6.70096C16.5254 7.27831 16.5254 8.72169 15.5254 9.29904L9.52539 12.7631C8.52539 13.3405 7.27539 12.6188 7.27539 11.4641L7.27539 4.5359C7.27539 3.3812 8.52539 2.65951 9.52539 3.23686L15.5254 6.70096Z" fill="white" stroke="#848484"/>
<path d="M24.1632 7.95793C24.087 8.40039 24.0326 8.84879 23.9268 9.28472C23.6508 10.4595 23.0586 11.4632 22.2317 12.3297C22.0171 12.5548 21.7387 12.5714 21.539 12.3843C21.3392 12.1973 21.3256 11.9264 21.5449 11.6865C22.0257 11.1726 22.4224 10.5855 22.7205 9.94693C23.6283 7.95674 23.243 5.39046 21.7819 3.77621C21.6915 3.67644 21.5993 3.57844 21.5183 3.47213C21.3439 3.2411 21.3587 2.98572 21.5484 2.81111C21.5941 2.76652 21.6487 2.7321 21.7085 2.71008C21.7683 2.68807 21.832 2.67895 21.8956 2.68331C21.9592 2.68768 22.0211 2.70545 22.0774 2.73545C22.1336 2.76544 22.183 2.80701 22.2222 2.85744C22.5302 3.21378 22.8416 3.57607 23.0987 3.97042C23.704 4.90196 24.0596 5.97473 24.1313 7.08488C24.1392 7.13909 24.1508 7.19267 24.1662 7.24524L24.1632 7.95793Z" fill="#848484"/>
<path d="M12.4299 6.20429C11.9929 5.94343 11.5908 5.65951 11.5922 5.07148C11.5851 4.8111 11.6699 4.5564 11.8321 4.35122C11.9943 4.14604 12.2237 4.00321 12.4809 3.94732C12.7379 3.88881 13.0075 3.92021 13.2438 4.03618C13.48 4.15214 13.6684 4.3455 13.7768 4.58336C13.8851 4.82122 13.9068 5.08888 13.8382 5.34079C13.7695 5.5927 13.6148 5.81331 13.4002 5.96505C13.2778 6.05441 13.1424 6.12503 13.0112 6.20429H12.4299Z" fill="white"/>
<path d="M21.8737 7.50899C21.8595 8.76689 21.4688 9.78841 20.6715 10.6478C20.4179 10.921 20.1514 10.9626 19.9333 10.7624C19.7152 10.5623 19.7241 10.2873 19.9758 10.0111C20.7767 9.1268 21.0693 8.09399 20.8624 6.9228C20.7492 6.29691 20.4603 5.71661 20.0296 5.25035C19.7341 4.91895 19.6986 4.66179 19.9268 4.44501C20.1549 4.22823 20.4197 4.27575 20.7294 4.61665C21.4509 5.40718 21.8581 6.43651 21.8737 7.50899Z" fill="#848484"/>
<path d="M19.7838 7.54521C19.797 8.16408 19.5697 8.76376 19.1502 9.21706C18.9593 9.42909 18.6773 9.45997 18.4782 9.29427C18.279 9.12857 18.2388 8.85003 18.4291 8.62078C18.7075 8.28462 18.9019 7.91759 18.8263 7.47631C18.7831 7.22806 18.6602 6.99287 18.5609 6.75709C18.529 6.67988 18.4539 6.62168 18.4061 6.54982C18.2547 6.32532 18.2819 6.07469 18.4699 5.91077C18.5633 5.83019 18.6845 5.78981 18.8073 5.79837C18.93 5.80693 19.0445 5.86374 19.1259 5.9565C19.4616 6.30503 19.6822 6.74903 19.7578 7.22806C19.7779 7.35219 19.7785 7.48285 19.7838 7.54521Z" fill="#848484"/>
<path d="M13.1814 5.05169C13.1789 5.17644 13.1271 5.29505 13.0374 5.38142C12.9478 5.4678 12.8277 5.51486 12.7036 5.51227C12.5794 5.50967 12.4614 5.45762 12.3754 5.36757C12.2895 5.27752 12.2426 5.15684 12.2452 5.03209C12.2465 4.97032 12.2599 4.90941 12.2846 4.85283C12.3093 4.79625 12.3448 4.74512 12.3892 4.70235C12.4336 4.65959 12.4859 4.62602 12.5432 4.60357C12.6005 4.58112 12.6616 4.57023 12.7231 4.57151C12.7846 4.5728 12.8452 4.58624 12.9015 4.61107C12.9578 4.6359 13.0087 4.67162 13.0512 4.71621C13.0938 4.7608 13.1272 4.81338 13.1495 4.87094C13.1719 4.9285 13.1827 4.98992 13.1814 5.05169Z" fill="#848484"/>
<path d="M0 7.48779C0.0271883 5.78386 0.6537 4.20703 1.90318 2.88618C2.13132 2.64505 2.40557 2.62011 2.61244 2.8155C2.80985 3.0008 2.82049 3.27994 2.60298 3.51335C1.99302 4.16962 1.5054 4.9025 1.24357 5.76486C0.606416 7.86492 0.985279 9.76305 2.39611 11.4456C2.48241 11.5483 2.57756 11.644 2.65617 11.7521C2.8128 11.9671 2.7868 12.2313 2.60239 12.3935C2.41798 12.5556 2.14314 12.5675 1.96406 12.3673C1.65907 12.027 1.35232 11.682 1.10172 11.3013C0.367632 10.1847 0.011821 8.94405 0 7.48779Z" fill="#848484"/>
<path d="M2.27734 7.60714C2.30512 6.39972 2.70349 5.37998 3.50436 4.52475C3.65331 4.36618 3.81998 4.26462 4.04754 4.33886C4.24081 4.40122 4.38089 4.54673 4.36079 4.7344C4.33426 4.91711 4.25587 5.08826 4.13501 5.22735C3.69527 5.73455 3.39502 6.30589 3.28331 6.96928C3.09536 8.08999 3.37197 9.0836 4.11669 9.93883C4.15806 9.98634 4.20357 10.0309 4.2414 10.0808C4.42522 10.3183 4.41872 10.585 4.2213 10.762C4.02389 10.939 3.74847 10.9212 3.52978 10.6973C3.16081 10.3185 2.86305 9.87587 2.65089 9.39065C2.409 8.82721 2.28199 8.22076 2.27734 7.60714Z" fill="#848484"/>
<path d="M4.37418 7.7287C4.3537 7.40124 4.40253 7.07313 4.51745 6.76602C4.63237 6.4589 4.81076 6.17975 5.04088 5.94697C5.12223 5.85954 5.23388 5.80684 5.35279 5.79977C5.4717 5.79269 5.58876 5.83178 5.67981 5.90896C5.72661 5.94565 5.76563 5.99138 5.79456 6.04346C5.82349 6.09555 5.84174 6.15293 5.84824 6.21221C5.85474 6.2715 5.84936 6.3315 5.83241 6.38866C5.81546 6.44582 5.78728 6.499 5.74955 6.54504C5.53854 6.82477 5.34409 7.10213 5.31867 7.47094C5.28376 7.8362 5.39284 8.20063 5.62247 8.48593C5.6668 8.54117 5.71172 8.59581 5.75132 8.6552C5.90677 8.88979 5.86953 9.14933 5.66207 9.3085C5.45462 9.46767 5.19278 9.42728 5.00778 9.22357C4.62537 8.79774 4.40078 8.30657 4.37418 7.7287Z" fill="#848484"/>
</svg>
