<svg width="9" height="7" viewBox="0 0 9 7" fill="none" xmlns="http://www.w3.org/2000/svg">
<g clip-path="url(#clip0_1312_7463)">
<path d="M8.99994 4.58235C8.95915 4.73174 8.93613 4.88728 8.8746 5.0282C8.58245 5.69914 8.05036 6.07445 7.28325 6.14499C7.13507 6.15844 6.98443 6.15512 6.83571 6.15529C5.71693 6.15606 4.59814 6.15606 3.47935 6.15529C3.44933 6.15392 3.41935 6.15883 3.39158 6.16968C3.3638 6.18052 3.33891 6.19704 3.31868 6.21803C3.08296 6.44511 2.84407 6.66903 2.60536 6.89361C2.45454 7.0357 2.31357 7.0367 2.1638 6.89577C1.89608 6.64413 1.63013 6.39083 1.36101 6.14035C1.32356 6.1064 1.27926 6.07993 1.23075 6.0625C0.533955 5.81351 0.127725 5.34243 0.015049 4.64626C0.0113174 4.6304 0.00620215 4.61485 -0.000244141 4.59978V1.57874C0.0136426 1.51135 0.0252441 1.44346 0.0417676 1.37656C0.246201 0.551089 0.975869 0.00298557 1.87728 0.00215562C3.6256 0.000827685 5.37386 0.000827685 7.12206 0.00215562C8.01591 0.00215562 8.73292 0.534489 8.95019 1.35283C8.96988 1.42736 8.98376 1.50338 9.00029 1.57874L8.99994 4.58235ZM2.38194 6.39548C2.40567 6.37456 2.42712 6.35647 2.44751 6.33721C2.64087 6.15462 2.83634 5.97668 3.0239 5.78944C3.11987 5.69416 3.22464 5.65416 3.36491 5.65466C4.61284 5.65831 5.86089 5.65886 7.10906 5.65632C7.90007 5.65532 8.47224 5.11319 8.47294 4.36773C8.47365 3.49904 8.47365 2.63035 8.47294 1.76166C8.47101 1.04956 7.89673 0.500129 7.14632 0.498636C5.38288 0.495648 3.61921 0.495648 1.8553 0.498636C1.10806 0.499797 0.531319 1.04641 0.528506 1.75287C0.52499 2.64645 0.52499 3.53998 0.528506 4.43346C0.530264 4.97974 0.902569 5.44285 1.45312 5.60735C1.53848 5.63388 1.61653 5.67799 1.68163 5.73649C1.91771 5.95128 2.14657 6.17404 2.38194 6.39548Z" fill="#7A7A7A"/>
<path d="M4.50885 2.38942C5.05659 2.38942 5.60433 2.38942 6.15206 2.38942C6.30201 2.38942 6.41064 2.4701 6.43332 2.59177C6.43979 2.62452 6.4392 2.65818 6.43157 2.69071C6.42394 2.72325 6.40943 2.75399 6.38891 2.7811C6.36839 2.80821 6.34228 2.83113 6.31216 2.84848C6.28203 2.86583 6.24851 2.87726 6.21359 2.88208C6.17583 2.88669 6.13773 2.8883 6.09968 2.8869H2.90045C2.86525 2.88805 2.83002 2.88694 2.79498 2.88358C2.72874 2.8765 2.6679 2.84567 2.62504 2.79745C2.58219 2.74923 2.56059 2.6873 2.56471 2.62447C2.56655 2.56144 2.5945 2.50162 2.64256 2.45785C2.69061 2.41409 2.75494 2.38987 2.8217 2.39042C3.09117 2.38727 3.36065 2.38909 3.6303 2.38893L4.50885 2.38942Z" fill="#7A7A7A"/>
<path d="M4.5001 3.26918C5.04783 3.26918 5.59557 3.26918 6.1433 3.26918C6.27004 3.26918 6.36619 3.312 6.41664 3.42521C6.43102 3.45712 6.43795 3.49159 6.43696 3.52626C6.43597 3.56093 6.42708 3.59499 6.4109 3.62613C6.39473 3.65726 6.37163 3.68475 6.3432 3.7067C6.31477 3.72866 6.28166 3.74458 6.24614 3.75337C6.19772 3.76376 6.1481 3.76828 6.09848 3.76681C5.03207 3.76759 3.96567 3.76759 2.89926 3.76681C2.85255 3.76815 2.80583 3.76437 2.76004 3.75553C2.62926 3.72615 2.55121 3.61643 2.56475 3.48812C2.57129 3.43129 2.59872 3.37843 2.64227 3.33873C2.68583 3.29903 2.74274 3.27501 2.80311 3.27084C2.8351 3.26835 2.86744 3.26918 2.89979 3.26918H4.5001Z" fill="#7A7A7A"/>
</g>
<defs>
<clipPath id="clip0_1312_7463">
<rect width="9" height="7" fill="white"/>
</clipPath>
</defs>
</svg>
