<svg width="30" height="30" viewBox="0 0 30 30" fill="none" xmlns="http://www.w3.org/2000/svg">
<mask id="mask0_2279_2364" style="mask-type:alpha" maskUnits="userSpaceOnUse" x="0" y="0" width="30" height="30">
<path d="M15 30C23.2843 30 30 23.2843 30 15C30 6.71573 23.2843 0 15 0C6.71573 0 0 6.71573 0 15C0 23.2843 6.71573 30 15 30Z" fill="white"/>
</mask>
<g mask="url(#mask0_2279_2364)">
<path d="M11.3716 30.2478C11.1525 30.2344 10.9287 30.2458 10.7155 30.2029C10.1564 30.0906 9.60755 30.1927 9.0638 30.2785C8.61265 30.3499 8.17489 30.5051 7.72886 30.615C7.59253 30.6489 7.4491 30.6544 7.30923 30.6741C7.5941 30.3771 7.90026 30.0957 8.15795 29.7774C8.40697 29.4712 8.45938 29.0929 8.25882 28.7466C7.84825 28.0374 7.81751 27.3332 8.06929 26.5515C8.29783 25.8423 8.17528 25.1799 7.28716 24.7953L7.23909 24.78L7.14413 24.7918C7.10828 24.7429 7.08069 24.6831 7.03459 24.6472C6.49912 24.2284 6.362 23.6661 6.45302 23.0258C6.58068 22.1278 7.0078 21.3532 7.48851 20.6081C7.94833 19.8953 8.18908 19.1108 8.28916 18.2814C8.49011 16.6103 8.59098 14.9212 9.06183 13.2958C9.34001 12.334 9.62016 11.3592 10.0398 10.4549C10.7802 8.85955 11.965 7.69679 13.7219 7.23854C14.0304 7.15895 14.3506 7.1348 14.6676 7.16722C15.0368 7.20663 15.3043 7.4718 15.5403 7.74919C15.6641 7.89419 15.7787 8.04747 15.906 8.18892C16.0928 8.39578 16.0778 8.48207 15.8244 8.62235C15.5458 8.77601 15.2527 8.91077 14.997 9.09517C14.3461 9.56169 13.9851 10.2236 13.8023 10.9904C13.7893 11.0452 13.8208 11.1106 13.8319 11.1713C13.8319 11.362 13.8157 11.555 13.8397 11.743C13.9347 12.4916 13.8851 13.232 13.8137 13.9791C13.7448 14.6938 13.8827 15.3838 14.3413 15.9614C14.9753 16.7589 15.151 17.6478 14.9611 18.6329C14.8035 19.4497 14.707 20.2692 14.9525 21.0888C14.9643 21.1676 14.9745 21.2464 14.9891 21.3228C15.1097 21.9757 15.0679 22.5967 14.6703 23.1629C14.5915 23.2756 14.5624 23.423 14.51 23.5542L14.4615 23.7461C14.437 23.8458 14.4189 23.947 14.4071 24.0491C14.3894 24.3426 14.3756 24.637 14.3677 24.9309C14.3453 26.0495 13.8799 26.8868 12.8413 27.3695C12.6179 27.4731 12.4055 27.5996 12.186 27.7115C11.8271 27.8947 11.6009 28.1887 11.5454 28.5783C11.4965 28.9227 11.515 29.2758 11.4847 29.6233C11.4658 29.8333 11.4106 30.0398 11.3716 30.2478Z" fill="#494949"/>
<path d="M7.28705 24.7954C8.17517 25.1799 8.29771 25.8431 8.06918 26.5515C7.8174 27.3333 7.84814 28.037 8.25871 28.7466C8.45926 29.0929 8.40686 29.4712 8.15784 29.7774C7.89857 30.0957 7.59399 30.3771 7.30911 30.6742C6.95055 30.7368 6.59278 30.8463 6.23344 30.8519C5.35989 30.8653 4.48556 30.8306 3.61201 30.8125C3.56564 30.8053 3.5201 30.7936 3.47607 30.7774C3.50444 30.6478 3.52887 30.5256 3.55843 30.405C3.82557 29.3136 4.14276 28.2403 4.71054 27.2584C5.28739 26.2611 6.05652 25.4518 7.05261 24.8639C7.08483 24.8418 7.11538 24.8173 7.14402 24.7906L7.23898 24.7788L7.28705 24.7954Z" fill="#C93E3F"/>
<path d="M15.1098 7.00388C15.2615 6.98142 15.4128 6.95383 15.5657 6.93729C16.4002 6.84745 17.23 6.8372 18.0425 7.09765C19.0193 7.41051 19.6675 8.0697 20.039 9.01102C20.2908 9.64894 20.463 10.3038 20.3665 11.0355C20.1257 10.3696 19.7069 9.86762 19.2841 9.34594C18.6292 8.53741 17.773 8.34315 16.8297 8.30769C16.5638 8.29784 16.4046 8.20367 16.234 7.99957C16.0094 7.73045 15.7162 7.51689 15.4459 7.29033C15.3443 7.20561 15.2182 7.15085 15.1035 7.08268L15.1098 7.00388Z" fill="#494949"/>
<path d="M18.6528 20.9292L18.8029 20.2543C18.827 20.1633 18.8569 20.0734 18.8746 19.9816C18.9649 19.5088 18.8498 19.374 18.3782 19.3906C17.4883 19.3327 16.624 19.0692 15.8533 18.6207C16.1752 18.6995 16.4951 18.7877 16.8198 18.8539C17.5854 19.0115 18.3565 19.114 19.141 19.0352L19.5263 18.9914L19.7628 18.9595L20.0453 18.9288C20.1599 19.2133 20.2781 19.4958 20.3877 19.7822C20.6354 20.4305 20.8801 21.0801 21.1217 21.7311C21.1513 21.8099 21.1473 21.9025 21.1611 21.9884C20.4468 21.7776 19.7505 21.5293 19.128 21.1034C18.9917 21.0124 18.8116 20.9848 18.6528 20.9292Z" fill="#494949"/>
<path d="M20.7708 18.4864C20.7913 18.3075 20.8122 18.129 20.8339 17.9387L21.0764 17.9643L20.7708 18.4864Z" fill="#DE8A5C"/>
<path d="M7.28601 24.7951L7.23853 24.78L7.28601 24.7951Z" fill="#EFC1A9"/>
<path d="M20.5707 16.1384C20.7083 16.5324 20.4868 16.9776 20.0644 17.1628C19.462 17.426 18.5392 17.2168 18.0916 16.7156C18.2704 16.6908 18.4544 16.6837 18.6278 16.6368C19.1834 16.4879 19.7342 16.3216 20.2886 16.1687C20.3785 16.1447 20.4766 16.1486 20.5707 16.1384Z" fill="#C93E3F"/>
<path d="M20.5707 16.1385C20.4766 16.1475 20.3785 16.1436 20.2886 16.1684C19.7342 16.3221 19.1834 16.4876 18.6278 16.6365C18.4544 16.683 18.2704 16.6901 18.0916 16.7153C18.1704 16.6223 18.2492 16.5246 18.3347 16.4367C18.5293 16.2397 18.7287 16.0463 18.9257 15.8504C19.0794 15.698 19.2535 15.6069 19.4801 15.6377C19.5428 15.6428 19.6058 15.6325 19.6637 15.6077C20.1267 15.4292 20.4718 15.631 20.5707 16.1385Z" fill="#B02C2C"/>
<path d="M18.3784 19.3918C18.5199 19.6795 18.6616 19.967 18.8036 20.2543C18.8277 20.1633 18.8576 20.0739 18.8754 19.9817C18.9641 19.5096 18.8505 19.3741 18.3784 19.3918Z" fill="#DE8A5C"/>
<path d="M20.5961 12.5358C20.4421 12.325 20.4164 12.0189 20.3396 11.7541C20.2214 11.3439 20.1639 10.9066 19.985 10.5263C19.4692 9.43489 18.5468 8.81548 17.4156 8.48648C17.2396 8.43608 17.0538 8.43093 16.8754 8.4715C15.7867 8.73944 14.8785 9.29619 14.2555 10.2446C14.0715 10.5247 13.9699 10.8589 13.8308 11.1686C13.8308 11.3593 13.8146 11.5524 13.8386 11.7403C13.9336 12.4889 13.884 13.2293 13.8126 13.9764C13.7437 14.6911 13.8816 15.3811 14.3402 15.9587C14.9742 16.7562 15.15 17.6451 14.96 18.6302C14.8024 19.447 14.7059 20.2665 14.9514 21.0861C15.7028 21.1421 16.453 21.2256 17.2056 21.2437C17.7032 21.2563 18.2068 21.1925 18.6544 20.9285L18.8045 20.2535C18.6629 19.9646 18.5213 19.6771 18.3797 19.391C17.4894 19.3332 16.6247 19.0695 15.8537 18.6207C16.1756 18.6995 16.4955 18.7878 16.8202 18.854C17.5858 19.0116 18.3569 19.114 19.1414 19.0352C19.1359 19.0017 19.1296 18.9682 19.1237 18.9343C19.1296 18.9682 19.1359 19.0017 19.1414 19.0352L19.5267 18.9915L19.7632 18.9596L20.0457 18.9288L20.2939 18.7933L20.6229 18.6246L20.7703 18.4852C20.7908 18.3063 20.8116 18.1278 20.8333 17.9375L21.0756 17.9631L21.2518 17.387C21.2706 17.3441 21.2839 17.299 21.2912 17.2527C21.3227 16.4753 21.3755 15.6975 21.3731 14.9201C21.3793 14.0621 21.1066 13.2254 20.5961 12.5358ZM16.5881 13.1935C16.723 13.257 16.8545 13.3275 16.9821 13.4047C16.8545 13.3275 16.723 13.257 16.5881 13.1935ZM17.1945 13.5958C17.2123 13.5926 17.23 13.5887 17.2473 13.5843C17.23 13.5887 17.2123 13.5926 17.1945 13.5958ZM17.1571 13.3593C17.1787 13.3689 17.2009 13.3768 17.2237 13.383C17.201 13.3773 17.1787 13.3699 17.1571 13.3609V13.3593ZM17.1666 12.474C17.2414 12.5244 17.3127 12.5804 17.3833 12.6371C17.3127 12.5819 17.2414 12.526 17.1666 12.474ZM20.6974 17.6163C20.6974 17.6412 20.6974 17.6656 20.6997 17.6885C20.6974 17.6656 20.6974 17.6412 20.6974 17.6163ZM19.5019 10.2623L19.4739 10.2162L19.5019 10.2623ZM18.0921 16.716C18.1709 16.623 18.2497 16.5253 18.3352 16.4374C18.5299 16.2404 18.7292 16.047 18.9263 15.8511C19.0799 15.6986 19.2541 15.6076 19.4806 15.6384C19.5434 15.6435 19.6064 15.6332 19.6643 15.6084C20.1264 15.4303 20.4716 15.6309 20.5705 16.1396C20.708 16.5336 20.4866 16.9788 20.0642 17.164C19.4625 17.4264 18.5397 17.2172 18.0921 16.716ZM19.5752 18.7507C19.5905 18.7956 19.6163 18.8361 19.6505 18.8689C19.6163 18.8361 19.5905 18.7956 19.5752 18.7507ZM19.8613 18.3138C19.9082 18.3067 19.9562 18.3116 20.0007 18.3279C19.9562 18.3116 19.9082 18.3067 19.8613 18.3138ZM20.8526 17.2684C20.8778 17.2553 20.9058 17.2488 20.9342 17.2495C20.9058 17.2488 20.8778 17.2553 20.8526 17.2684Z" fill="#DE8A5C"/>
<path d="M27.8864 26.6622C27.6106 25.5625 27.0196 24.6448 26.1716 23.9135C25.4104 23.2583 24.4718 22.9312 23.5203 22.655C22.7354 22.4273 21.9469 22.2109 21.1601 21.9895C20.4457 21.7787 19.7495 21.5305 19.1269 21.1045C18.9922 21.0123 18.8117 20.9863 18.6541 20.9292C18.2065 21.1952 17.7029 21.259 17.2053 21.2444C16.4527 21.2251 15.7025 21.1416 14.9511 21.0868C14.9629 21.1656 14.9731 21.2444 14.9877 21.3209C15.1083 21.9737 15.0665 22.5947 14.669 23.1609C14.5902 23.2736 14.561 23.421 14.5086 23.5522L14.4601 23.7441C14.4356 23.8438 14.4175 23.945 14.4057 24.0471C14.388 24.3406 14.3742 24.635 14.3663 24.9289C14.3439 26.0475 13.8785 26.8844 12.8399 27.3675C12.6165 27.4711 12.4041 27.5976 12.1847 27.7095C11.8257 27.8927 11.5995 28.1867 11.544 28.5764C11.4951 28.9207 11.5136 29.2738 11.4833 29.6213C11.4648 29.8313 11.4096 30.0378 11.3706 30.2458C12.9861 30.1982 14.5984 30.3152 16.2064 30.4523C18.262 30.628 20.1825 30.2001 21.967 29.1914C23.1247 28.5378 24.3579 28.1228 25.6476 27.8458C26.1909 27.7276 26.7315 27.6012 27.2733 27.4782C27.3672 27.4649 27.4603 27.4464 27.5523 27.4231C28.07 27.2702 28.1169 27.1599 27.8864 26.6622ZM15.5358 23.3453L15.5795 23.343L15.5358 23.3453C15.5141 23.3453 15.4929 23.3453 15.4712 23.3453C15.4921 23.3449 15.5133 23.3457 15.5358 23.3453ZM15.2891 23.0825C15.286 23.168 15.2824 23.2539 15.2793 23.3394C15.2824 23.2539 15.286 23.168 15.2891 23.0825C15.2915 23.0238 15.2927 22.9643 15.2947 22.9064C15.2919 22.9651 15.2907 23.0238 15.2884 23.0825H15.2891ZM15.2103 23.707C15.2068 23.6803 15.2029 23.657 15.2021 23.6393C15.2009 23.657 15.2048 23.6803 15.2084 23.707H15.2103ZM14.9322 23.7003C14.9424 23.7161 14.9519 23.7311 14.9609 23.7461C14.9499 23.7311 14.9404 23.7161 14.9302 23.7003H14.9322ZM14.7103 23.7248C14.7093 23.7285 14.7093 23.7325 14.7103 23.7362C14.7311 23.7736 14.7568 23.8081 14.7868 23.8387C14.7568 23.8081 14.7311 23.7736 14.7103 23.7362C14.7086 23.7327 14.7079 23.7287 14.7084 23.7248H14.7103ZM15.1603 22.9612C15.1847 22.949 15.2139 22.9391 15.2423 22.9285C15.2139 22.9391 15.1847 22.949 15.1603 22.9612C15.1433 22.9686 15.1286 22.9803 15.1174 22.9951C15.128 22.9806 15.1421 22.9689 15.1583 22.9612H15.1603ZM15.0586 23.2015C15.0563 23.2129 15.0543 23.2244 15.0523 23.2358C15.0523 23.2244 15.0543 23.2129 15.0567 23.2015H15.0586ZM14.507 23.852C14.5045 23.8384 14.5001 23.8251 14.494 23.8126C14.5001 23.8251 14.5045 23.8384 14.507 23.852C14.5109 23.8762 14.5168 23.8999 14.5247 23.923C14.5157 23.9 14.5087 23.8763 14.5039 23.852H14.507ZM14.8675 24.1279C14.7951 24.1258 14.7237 24.109 14.6579 24.0786C14.7237 24.109 14.7951 24.1258 14.8675 24.1279C14.9251 24.1331 14.983 24.1221 15.0346 24.0959C14.9824 24.1217 14.9239 24.132 14.866 24.1259L14.8675 24.1279ZM15.2836 23.6156C15.3325 23.6011 15.3806 23.5877 15.4267 23.5735C15.3782 23.5877 15.3293 23.6011 15.2805 23.6156H15.2836ZM15.6599 23.4714C15.6688 23.4575 15.6763 23.4427 15.6824 23.4273C15.6753 23.4428 15.6668 23.4576 15.6568 23.4714H15.6599ZM15.7214 23.3276C15.6773 23.3319 15.6327 23.3386 15.5886 23.3426C15.6327 23.3386 15.6773 23.3319 15.7214 23.3276ZM15.8766 22.9616C15.9019 22.9474 15.9304 22.9401 15.9594 22.9403C15.9294 22.9395 15.8997 22.9469 15.8735 22.9616H15.8766ZM15.8459 22.5939C15.836 22.5744 15.8279 22.5541 15.8215 22.5333C15.8279 22.5541 15.836 22.5744 15.8459 22.5939C15.8764 22.6557 15.9258 22.7061 15.987 22.7378C15.9247 22.7066 15.8741 22.6562 15.8427 22.5939H15.8459ZM21.8401 24.4151C21.8539 24.4592 21.8685 24.5026 21.8855 24.5436C21.8665 24.5026 21.852 24.4592 21.8401 24.4151ZM22.2822 24.882C22.3006 24.8547 22.3173 24.8262 22.3323 24.7969C22.3167 24.8263 22.2993 24.8547 22.2803 24.882H22.2822Z" fill="#C93E3F"/>
</g>
</svg>
