<svg width="11" height="10" viewBox="0 0 11 10" fill="none" xmlns="http://www.w3.org/2000/svg">
<path d="M10.3649 6.12193C10.3316 6.21715 10.3054 6.31536 10.2638 6.4065C10.1754 6.60075 10.0269 6.74167 9.83607 6.84886C9.94124 7.0918 9.96719 7.33856 9.88203 7.59157C9.80301 7.82981 9.63606 8.02839 9.41567 8.14629C9.44271 8.26599 9.48353 8.37644 9.49272 8.48907C9.54031 9.08324 9.10612 9.55825 8.51 9.56342C7.92631 9.56859 7.34289 9.56342 6.7592 9.56342C6.05088 9.56342 5.34256 9.56178 4.63423 9.56342C4.22846 9.565 3.82713 9.47842 3.45766 9.30959C3.43955 9.30143 3.42062 9.29463 3.39656 9.28511C3.37899 9.32047 3.36331 9.35285 3.34655 9.38495C3.14784 9.76446 2.83883 9.98102 2.41059 9.99163C1.95883 10.0033 1.50653 10.0022 1.05451 9.99163C0.772564 9.98811 0.503523 9.87219 0.306412 9.6693C0.109302 9.46641 0.000223371 9.19312 0.00310904 8.9094C-0.00103635 7.7519 -0.00103635 6.59422 0.00310904 5.43636C0.00185104 5.2933 0.028882 5.15143 0.0826296 5.01899C0.136377 4.88655 0.215767 4.76619 0.316178 4.66492C0.41659 4.56365 0.536016 4.48349 0.667506 4.4291C0.798996 4.37472 0.939922 4.3472 1.08208 4.34814C1.7904 4.34379 2.49873 4.34651 3.20732 4.34814C3.37629 4.34814 3.43009 4.40799 3.47172 4.65121C3.49602 4.6214 3.51798 4.58975 3.53742 4.55653C3.93393 3.69521 4.32874 2.8337 4.72183 1.97202C4.74173 1.92582 4.75204 1.87601 4.75211 1.82565C4.75427 1.38438 4.75697 0.942838 4.75211 0.501566C4.75021 0.365539 4.79509 0.265151 4.91594 0.214277C5.09167 0.140279 5.2674 0.0608388 5.45286 0.0178542C5.71023 -0.0425418 5.93949 0.0567578 6.1382 0.218358C6.71378 0.687107 6.97629 1.29161 6.89518 2.03758C6.84787 2.48457 6.74108 2.9185 6.60861 3.34644C6.59672 3.38452 6.58617 3.42316 6.57049 3.47784H6.69945C7.52916 3.47784 8.35887 3.47784 9.18885 3.47784C9.64088 3.47784 10.0015 3.65903 10.2305 4.06003C10.2943 4.17212 10.3211 4.30488 10.3657 4.42948V4.7146C10.31 4.92408 10.2413 5.1273 10.0824 5.29353C10.2397 5.44533 10.3116 5.6355 10.3657 5.83519L10.3649 6.12193ZM6.48749 9.13194H7.20609C7.63108 9.13194 8.05607 9.13412 8.4808 9.13194C8.72168 9.13003 8.91985 9.03563 9.0215 8.80711C9.12126 8.58348 9.07206 8.37644 8.90363 8.19879C8.84091 8.13296 8.81279 8.05732 8.84469 7.96619C8.87659 7.87505 8.95067 7.83179 9.04313 7.81574C9.25427 7.77956 9.40189 7.66013 9.47055 7.45717C9.5048 7.36578 9.51215 7.2664 9.49173 7.17092C9.4713 7.07543 9.42396 6.98789 9.35538 6.91878C9.28509 6.84315 9.24265 6.76371 9.2759 6.66223C9.30915 6.56075 9.39513 6.52621 9.49462 6.50852C9.6034 6.48931 9.70342 6.43614 9.78052 6.35656C9.85762 6.27697 9.90789 6.175 9.9242 6.06507C9.95962 5.84743 9.865 5.64312 9.6698 5.52096C9.47461 5.39881 9.46785 5.23857 9.65845 5.09874L9.66629 5.09248C10.0359 4.81662 10.0177 4.28502 9.63168 4.03446C9.49651 3.94686 9.34781 3.91829 9.18885 3.91857C8.23775 3.9202 7.28656 3.9202 6.33529 3.91857C6.08494 3.91857 6.00032 3.79669 6.08359 3.55782C6.24786 3.09479 6.37099 2.618 6.45154 2.13307C6.54751 1.53619 6.38179 1.03724 5.94652 0.620998C5.74024 0.423486 5.52018 0.400634 5.27064 0.514624C5.20738 0.543462 5.18143 0.576653 5.18224 0.650651C5.18638 1.06472 5.18638 1.47888 5.18224 1.89312C5.18115 1.97044 5.16441 2.04671 5.13303 2.1173C4.75048 2.95876 4.3582 3.7956 3.98296 4.64033C3.88806 4.85389 3.7737 5.0212 3.5458 5.09357C3.48037 5.11424 3.45685 5.1556 3.45712 5.22959C3.45983 6.39399 3.45983 7.55847 3.45712 8.72304C3.45712 8.79813 3.48118 8.84057 3.54607 8.87403C3.86763 9.04195 4.22412 9.13089 4.58638 9.13357C5.21927 9.13493 5.85352 9.13194 6.48749 9.13194ZM3.02267 4.7837H1.15967C0.69575 4.7837 0.432157 5.04895 0.431886 5.51552C0.431886 6.31645 0.431886 7.11738 0.431886 7.9183C0.431886 8.24477 0.428913 8.57124 0.431886 8.8958C0.436753 9.27232 0.707915 9.56015 1.06694 9.56423C1.5087 9.56913 1.95027 9.56913 2.39167 9.56423C2.53163 9.56368 2.66736 9.51587 2.77712 9.42846C2.88687 9.34105 2.96429 9.21911 2.99698 9.08215C3.02267 8.97523 3.02159 8.86043 3.02159 8.74916C3.02321 7.55448 3.02321 6.3598 3.02159 5.16512L3.02267 4.7837Z" fill="#3D3D3D"/>
</svg>
