<svg width="22" height="21" viewBox="0 0 22 21" fill="none" xmlns="http://www.w3.org/2000/svg">
<rect width="22" height="20.9524" rx="5" fill="#F8F8F8"/>
<path d="M16.2837 7.0717C16.2846 7.14153 16.2796 7.21131 16.269 7.28033L13.0158 18.535H9.38336L12.6365 7.25777C12.6297 7.19636 12.6263 7.13462 12.6264 7.07283C12.6264 6.5883 12.819 6.12361 13.162 5.781C13.5049 5.43839 13.97 5.24591 14.455 5.24591C14.94 5.24591 15.4051 5.43839 15.7481 5.781C16.091 6.12361 16.2837 6.5883 16.2837 7.07283V7.0717Z" fill="url(#paint0_linear_1312_1690)"/>
<path d="M12.6118 7.0717C12.6111 7.14148 12.6156 7.21122 12.6253 7.28033L15.8751 18.535H19.5075L16.2532 7.25777C16.261 7.19643 16.2648 7.13465 16.2645 7.07283C16.2645 6.5883 16.0719 6.12361 15.7289 5.781C15.386 5.43839 14.9209 5.24591 14.4359 5.24591C13.9509 5.24591 13.4858 5.43839 13.1428 5.781C12.7999 6.12361 12.6072 6.5883 12.6072 7.07283L12.6118 7.0717Z" fill="url(#paint1_linear_1312_1690)"/>
<path d="M9.82697 7.0717C9.82767 7.14148 9.82314 7.21122 9.81342 7.28033L6.56025 18.535H2.9278L6.18097 7.25777C6.17373 7.19638 6.16997 7.13464 6.16968 7.07283C6.16968 6.5883 6.36235 6.12361 6.70528 5.781C7.04822 5.43839 7.51334 5.24591 7.99833 5.24591C8.48331 5.24591 8.94844 5.43839 9.29137 5.781C9.63431 6.12361 9.82697 6.5883 9.82697 7.07283V7.0717Z" fill="url(#paint2_linear_1312_1690)"/>
<path d="M6.15491 7.0717C6.15402 7.14153 6.15893 7.21131 6.16958 7.28033L9.42276 18.535H13.053L9.79977 7.25777C9.80663 7.19636 9.81002 7.13462 9.80993 7.07283C9.80993 6.83291 9.76263 6.59535 9.67074 6.37369C9.57884 6.15204 9.44414 5.95065 9.27434 5.781C9.10453 5.61136 8.90294 5.47679 8.68108 5.38498C8.45922 5.29317 8.22143 5.24591 7.98129 5.24591C7.74115 5.24591 7.50336 5.29317 7.2815 5.38498C7.05964 5.47679 6.85805 5.61136 6.68825 5.781C6.51844 5.95065 6.38374 6.15204 6.29185 6.37369C6.19995 6.59535 6.15265 6.83291 6.15265 7.07283L6.15491 7.0717Z" fill="url(#paint3_linear_1312_1690)"/>
<path d="M7.6923 4.41571C8.31883 4.41571 8.82673 3.90829 8.82673 3.28235C8.82673 2.65641 8.31883 2.14899 7.6923 2.14899C7.06577 2.14899 6.55786 2.65641 6.55786 3.28235C6.55786 3.90829 7.06577 4.41571 7.6923 4.41571Z" fill="url(#paint4_linear_1312_1690)"/>
<path d="M14.5632 4.41571C15.1897 4.41571 15.6976 3.90829 15.6976 3.28235C15.6976 2.65641 15.1897 2.14899 14.5632 2.14899C13.9367 2.14899 13.4288 2.65641 13.4288 3.28235C13.4288 3.90829 13.9367 4.41571 14.5632 4.41571Z" fill="url(#paint5_linear_1312_1690)"/>
<defs>
<linearGradient id="paint0_linear_1312_1690" x1="16.523" y1="6.15373" x2="9.38108" y2="18.5341" gradientUnits="userSpaceOnUse">
<stop offset="0.06" stop-color="#6A2363"/>
<stop offset="0.18" stop-color="#762662"/>
<stop offset="0.38" stop-color="#942E60"/>
<stop offset="0.5" stop-color="#A9335F"/>
<stop offset="0.79" stop-color="#872B61"/>
<stop offset="0.93" stop-color="#752662"/>
</linearGradient>
<linearGradient id="paint1_linear_1312_1690" x1="12.3724" y1="6.15373" x2="19.5143" y2="18.5341" gradientUnits="userSpaceOnUse">
<stop stop-color="#CD3C5D"/>
<stop offset="0.92" stop-color="#C1395E"/>
</linearGradient>
<linearGradient id="paint2_linear_1312_1690" x1="10.0663" y1="6.15373" x2="2.92552" y2="18.5341" gradientUnits="userSpaceOnUse">
<stop offset="0.13" stop-color="#8B2B61"/>
<stop offset="0.53" stop-color="#B9375E"/>
<stop offset="0.69" stop-color="#CD3C5D"/>
</linearGradient>
<linearGradient id="paint3_linear_1312_1690" x1="5.91673" y1="6.15373" x2="13.0575" y2="18.5341" gradientUnits="userSpaceOnUse">
<stop stop-color="#CD3C5D"/>
<stop offset="0.92" stop-color="#C1395E"/>
</linearGradient>
<linearGradient id="paint4_linear_1312_1690" x1="6.55786" y1="3.28235" x2="8.82673" y2="3.28235" gradientUnits="userSpaceOnUse">
<stop offset="0.06" stop-color="#E43477"/>
<stop offset="0.57" stop-color="#CD3C5D"/>
<stop offset="1" stop-color="#8B2B61"/>
</linearGradient>
<linearGradient id="paint5_linear_1312_1690" x1="13.4288" y1="3.28235" x2="15.6976" y2="3.28235" gradientUnits="userSpaceOnUse">
<stop offset="0.06" stop-color="#E43477"/>
<stop offset="0.57" stop-color="#CD3C5D"/>
<stop offset="1" stop-color="#8B2B61"/>
</linearGradient>
</defs>
</svg>
