<svg width="18" height="17" viewBox="0 0 18 17" fill="none" xmlns="http://www.w3.org/2000/svg">
<path d="M14.2837 5.0717C14.2846 5.14153 14.2796 5.21131 14.269 5.28033L11.0158 16.535H7.38336L10.6365 5.25777C10.6297 5.19636 10.6263 5.13462 10.6264 5.07283C10.6264 4.5883 10.819 4.12361 11.162 3.781C11.5049 3.43839 11.97 3.24591 12.455 3.24591C12.94 3.24591 13.4051 3.43839 13.7481 3.781C14.091 4.12361 14.2837 4.5883 14.2837 5.07283V5.0717Z" fill="url(#paint0_linear_1312_1692)"/>
<path d="M10.6118 5.0717C10.6111 5.14148 10.6156 5.21122 10.6253 5.28033L13.8751 16.535H17.5075L14.2532 5.25777C14.261 5.19643 14.2648 5.13465 14.2645 5.07283C14.2645 4.5883 14.0719 4.12361 13.7289 3.781C13.386 3.43839 12.9209 3.24591 12.4359 3.24591C11.9509 3.24591 11.4858 3.43839 11.1428 3.781C10.7999 4.12361 10.6072 4.5883 10.6072 5.07283L10.6118 5.0717Z" fill="url(#paint1_linear_1312_1692)"/>
<path d="M7.82697 5.0717C7.82767 5.14148 7.82314 5.21122 7.81342 5.28033L4.56025 16.535H0.927795L4.18097 5.25777C4.17373 5.19638 4.16997 5.13464 4.16968 5.07283C4.16968 4.5883 4.36235 4.12361 4.70528 3.781C5.04822 3.43839 5.51334 3.24591 5.99833 3.24591C6.48331 3.24591 6.94844 3.43839 7.29137 3.781C7.63431 4.12361 7.82697 4.5883 7.82697 5.07283V5.0717Z" fill="url(#paint2_linear_1312_1692)"/>
<path d="M4.15491 5.0717C4.15402 5.14153 4.15893 5.21131 4.16958 5.28033L7.42276 16.535H11.053L7.79977 5.25777C7.80663 5.19636 7.81002 5.13462 7.80993 5.07283C7.80993 4.83291 7.76263 4.59535 7.67074 4.37369C7.57884 4.15204 7.44414 3.95065 7.27434 3.781C7.10453 3.61136 6.90294 3.47679 6.68108 3.38498C6.45922 3.29317 6.22143 3.24591 5.98129 3.24591C5.74115 3.24591 5.50336 3.29317 5.2815 3.38498C5.05964 3.47679 4.85805 3.61136 4.68825 3.781C4.51844 3.95065 4.38374 4.15204 4.29185 4.37369C4.19995 4.59535 4.15265 4.83291 4.15265 5.07283L4.15491 5.0717Z" fill="url(#paint3_linear_1312_1692)"/>
<path d="M5.6923 2.41571C6.31883 2.41571 6.82673 1.90829 6.82673 1.28235C6.82673 0.656411 6.31883 0.148987 5.6923 0.148987C5.06577 0.148987 4.55786 0.656411 4.55786 1.28235C4.55786 1.90829 5.06577 2.41571 5.6923 2.41571Z" fill="url(#paint4_linear_1312_1692)"/>
<path d="M12.5632 2.41571C13.1897 2.41571 13.6976 1.90829 13.6976 1.28235C13.6976 0.656411 13.1897 0.148987 12.5632 0.148987C11.9367 0.148987 11.4288 0.656411 11.4288 1.28235C11.4288 1.90829 11.9367 2.41571 12.5632 2.41571Z" fill="url(#paint5_linear_1312_1692)"/>
<defs>
<linearGradient id="paint0_linear_1312_1692" x1="14.523" y1="4.15373" x2="7.38108" y2="16.5341" gradientUnits="userSpaceOnUse">
<stop offset="0.06" stop-color="#6A2363"/>
<stop offset="0.18" stop-color="#762662"/>
<stop offset="0.38" stop-color="#942E60"/>
<stop offset="0.5" stop-color="#A9335F"/>
<stop offset="0.79" stop-color="#872B61"/>
<stop offset="0.93" stop-color="#752662"/>
</linearGradient>
<linearGradient id="paint1_linear_1312_1692" x1="10.3724" y1="4.15373" x2="17.5143" y2="16.5341" gradientUnits="userSpaceOnUse">
<stop stop-color="#CD3C5D"/>
<stop offset="0.92" stop-color="#C1395E"/>
</linearGradient>
<linearGradient id="paint2_linear_1312_1692" x1="8.06627" y1="4.15373" x2="0.925517" y2="16.5341" gradientUnits="userSpaceOnUse">
<stop offset="0.13" stop-color="#8B2B61"/>
<stop offset="0.53" stop-color="#B9375E"/>
<stop offset="0.69" stop-color="#CD3C5D"/>
</linearGradient>
<linearGradient id="paint3_linear_1312_1692" x1="3.91673" y1="4.15373" x2="11.0575" y2="16.5341" gradientUnits="userSpaceOnUse">
<stop stop-color="#CD3C5D"/>
<stop offset="0.92" stop-color="#C1395E"/>
</linearGradient>
<linearGradient id="paint4_linear_1312_1692" x1="4.55786" y1="1.28235" x2="6.82673" y2="1.28235" gradientUnits="userSpaceOnUse">
<stop offset="0.06" stop-color="#E43477"/>
<stop offset="0.57" stop-color="#CD3C5D"/>
<stop offset="1" stop-color="#8B2B61"/>
</linearGradient>
<linearGradient id="paint5_linear_1312_1692" x1="11.4288" y1="1.28235" x2="13.6976" y2="1.28235" gradientUnits="userSpaceOnUse">
<stop offset="0.06" stop-color="#E43477"/>
<stop offset="0.57" stop-color="#CD3C5D"/>
<stop offset="1" stop-color="#8B2B61"/>
</linearGradient>
</defs>
</svg>
