<svg width="30" height="15" viewBox="0 0 30 15" fill="none" xmlns="http://www.w3.org/2000/svg">
<path d="M29.9964 7.82417C29.9023 8.3704 29.8351 8.92397 29.7045 9.46214C29.3638 10.9124 28.6326 12.1515 27.6118 13.2213C27.347 13.4992 27.0033 13.5197 26.7567 13.2887C26.51 13.0578 26.4932 12.7234 26.7639 12.4272C27.3575 11.7928 27.8473 11.068 28.2153 10.2797C29.336 7.8227 28.8603 4.65454 27.0565 2.66169C26.9449 2.53851 26.8311 2.41754 26.7311 2.28629C26.5159 2.00108 26.5341 1.6858 26.7683 1.47024C26.8248 1.41519 26.8921 1.3727 26.9659 1.34552C27.0398 1.31834 27.1185 1.30708 27.1969 1.31247C27.2754 1.31786 27.3518 1.33979 27.4213 1.37683C27.4908 1.41386 27.5517 1.46517 27.6002 1.52743C27.9803 1.96735 28.3648 2.4146 28.6823 2.90145C29.4294 4.05147 29.8685 5.37584 29.957 6.74636C29.9667 6.81328 29.9811 6.87943 30 6.94433L29.9964 7.82417Z" fill="white"/>
<path fill-rule="evenodd" clip-rule="evenodd" d="M19.8447 8.74232L11.0303 13.8313C10.3636 14.2162 9.53027 13.7351 9.53027 12.9653L9.53027 2.78729C9.53027 2.01749 10.3636 1.53636 11.0303 1.92126L14.5085 3.92939C14.5528 3.72747 14.6428 3.53653 14.7732 3.37153C14.8571 3.26542 14.9555 3.17283 15.0649 3.09597L11.5303 1.05523C10.1969 0.285434 8.53027 1.24768 8.53027 2.78729V12.9653C8.53027 14.5049 10.1969 15.4672 11.5303 14.6974L20.3447 9.60834C21.678 8.83854 21.678 6.91404 20.3447 6.14424L17.2901 4.38069C17.2823 4.45208 17.2689 4.52313 17.2498 4.59319C17.1784 4.85513 17.0316 5.08964 16.8288 5.26904L19.8447 7.01027C20.5114 7.39517 20.5114 8.35742 19.8447 8.74232Z" fill="white"/>
<path d="M27.1699 7.27002C27.1524 8.82294 26.6701 10.084 25.6858 11.145C25.3728 11.4823 25.0437 11.5336 24.7744 11.2865C24.5052 11.0394 24.5161 10.6999 24.827 10.359C25.8157 9.26726 26.1769 7.99222 25.9215 6.54635C25.7818 5.77367 25.425 5.05726 24.8934 4.48165C24.5285 4.07252 24.4848 3.75505 24.7664 3.48743C25.0481 3.21981 25.375 3.27847 25.7573 3.69932C26.6479 4.67526 27.1507 5.94601 27.1699 7.27002Z" fill="white"/>
<path d="M24.5899 7.31466C24.6062 8.07868 24.3256 8.81901 23.8077 9.37863C23.572 9.64038 23.224 9.67851 22.9781 9.47394C22.7322 9.26938 22.6826 8.92551 22.9175 8.64249C23.2612 8.2275 23.5013 7.77438 23.4079 7.22961C23.3546 6.92313 23.2028 6.63279 23.0802 6.3417C23.0408 6.24639 22.9482 6.17453 22.8891 6.08582C22.7023 5.80867 22.7358 5.49926 22.9679 5.29689C23.0831 5.19742 23.2328 5.14757 23.3844 5.15813C23.536 5.1687 23.6773 5.23883 23.7778 5.35335C24.1922 5.78362 24.4646 6.33176 24.5578 6.92313C24.5826 7.07637 24.5834 7.23768 24.5899 7.31466Z" fill="white"/>
<path d="M16.4391 4.23647C16.4359 4.39048 16.372 4.53691 16.2613 4.64354C16.1507 4.75018 16.0025 4.80828 15.8492 4.80507C15.6959 4.80186 15.5502 4.73761 15.4441 4.62644C15.338 4.51527 15.2801 4.36629 15.2833 4.21228C15.2849 4.13602 15.3014 4.06082 15.3319 3.99098C15.3624 3.92113 15.4063 3.85801 15.4611 3.80521C15.5159 3.75241 15.5805 3.71097 15.6512 3.68325C15.7219 3.65554 15.7974 3.64209 15.8733 3.64368C15.9492 3.64527 16.024 3.66186 16.0935 3.69251C16.163 3.72316 16.2258 3.76727 16.2784 3.82232C16.3309 3.87736 16.3722 3.94227 16.3997 4.01333C16.4273 4.08439 16.4407 4.16022 16.4391 4.23647Z" fill="white"/>
<path d="M0.166016 7.24393C0.19958 5.14037 0.973031 3.19372 2.51556 1.56308C2.79721 1.2654 3.13578 1.2346 3.39116 1.47583C3.63487 1.70459 3.648 2.04919 3.37949 2.33734C2.62647 3.14753 2.02449 4.0523 1.70124 5.11691C0.914658 7.70951 1.38238 10.0528 3.1241 12.13C3.23063 12.2568 3.34811 12.3749 3.44516 12.5083C3.63852 12.7737 3.60641 13.1 3.37876 13.3002C3.1511 13.5003 2.8118 13.515 2.59071 13.2679C2.2142 12.8478 1.8355 12.4218 1.52612 11.9518C0.619871 10.5734 0.180609 9.04174 0.166016 7.24393Z" fill="white"/>
<path d="M2.97754 7.39107C3.01183 5.90048 3.50363 4.64157 4.49234 3.58576C4.67621 3.38999 4.88198 3.26461 5.1629 3.35626C5.40151 3.43325 5.57444 3.61289 5.54963 3.84458C5.51687 4.07014 5.4201 4.28143 5.2709 4.45314C4.72802 5.07929 4.35735 5.78463 4.21944 6.60362C3.9874 7.98717 4.32889 9.21382 5.24828 10.2696C5.29935 10.3283 5.35554 10.3833 5.40224 10.4449C5.62916 10.7381 5.62114 11.0673 5.37743 11.2858C5.13372 11.5043 4.79369 11.4823 4.52371 11.2059C4.06821 10.7384 3.70062 10.1919 3.43869 9.59288C3.14008 8.89729 2.98327 8.1486 2.97754 7.39107Z" fill="white"/>
<path d="M5.56616 7.54103C5.54088 7.13677 5.60116 6.73172 5.74303 6.35257C5.8849 5.97343 6.10514 5.62881 6.38923 5.34143C6.48965 5.23349 6.6275 5.16843 6.77429 5.1597C6.92109 5.15097 7.06561 5.19923 7.17801 5.2945C7.23579 5.33979 7.28396 5.39625 7.31967 5.46055C7.35539 5.52485 7.37792 5.59569 7.38595 5.66888C7.39397 5.74207 7.38732 5.81614 7.3664 5.88671C7.34547 5.95728 7.31069 6.02292 7.26411 6.07976C7.00361 6.4251 6.76355 6.76751 6.73218 7.22283C6.68907 7.67374 6.82374 8.12365 7.10723 8.47587C7.16195 8.54405 7.21741 8.61151 7.2663 8.68483C7.4582 8.97444 7.41223 9.29485 7.15611 9.49135C6.9 9.68785 6.57676 9.63799 6.34837 9.3865C5.87627 8.8608 5.599 8.25444 5.56616 7.54103Z" fill="white"/>
</svg>
