<svg width="31" height="15" viewBox="0 0 31 15" fill="none" xmlns="http://www.w3.org/2000/svg">
<path d="M30.0687 7.82423C29.9746 8.37046 29.9075 8.92403 29.7768 9.4622C29.4361 10.9125 28.705 12.1516 27.6842 13.2213C27.4193 13.4992 27.0756 13.5197 26.829 13.2888C26.5824 13.0578 26.5656 12.7235 26.8363 12.4273C27.4298 11.7929 27.9196 11.0681 28.2876 10.2797C29.4084 7.82276 28.9326 4.6546 27.1289 2.66175C27.0172 2.53858 26.9034 2.4176 26.8034 2.28635C26.5882 2.00114 26.6064 1.68586 26.8407 1.4703C26.8971 1.41526 26.9644 1.37276 27.0382 1.34558C27.1121 1.3184 27.1908 1.30714 27.2693 1.31253C27.3477 1.31793 27.4242 1.33985 27.4936 1.37689C27.5631 1.41392 27.624 1.46524 27.6725 1.52749C28.0526 1.96741 28.4372 2.41467 28.7546 2.90151C29.5018 4.05153 29.9408 5.3759 30.0293 6.74642C30.039 6.81334 30.0534 6.87949 30.0724 6.94439L30.0687 7.82423Z" fill="#353535"/>
<path fill-rule="evenodd" clip-rule="evenodd" d="M19.9172 8.74226L11.1028 13.8313C10.4361 14.2162 9.60278 13.735 9.60278 12.9652L9.60278 2.78722C9.60278 2.01742 10.4361 1.5363 11.1028 1.9212L14.5808 3.92922C14.6252 3.7274 14.7151 3.53656 14.8455 3.37164C14.9294 3.26546 15.0279 3.1728 15.1374 3.09591L11.6028 1.05517C10.2695 0.285373 8.60278 1.24762 8.60278 2.78722V12.9652C8.60278 14.5048 10.2695 15.4671 11.6028 14.6973L20.4172 9.60828C21.7505 8.83848 21.7505 6.91398 20.4172 6.14418L17.3624 4.3805C17.3546 4.452 17.3412 4.52314 17.322 4.5933C17.2507 4.85515 17.104 5.08959 16.9013 5.26897L19.9172 7.01021C20.5839 7.39511 20.5839 8.35736 19.9172 8.74226Z" fill="#353535"/>
<path d="M27.2422 7.27014C27.2247 8.82306 26.7424 10.0842 25.7581 11.1451C25.445 11.4824 25.1159 11.5337 24.8467 11.2866C24.5775 11.0395 24.5884 10.7001 24.8992 10.3591C25.8879 9.26738 26.2491 7.99234 25.9937 6.54647C25.854 5.77379 25.4973 5.05738 24.9656 4.48177C24.6008 4.07265 24.557 3.75517 24.8387 3.48755C25.1203 3.21993 25.4472 3.27859 25.8296 3.69945C26.7202 4.67538 27.2229 5.94613 27.2422 7.27014V7.27014Z" fill="#353535"/>
<path d="M24.6621 7.31473C24.6784 8.07874 24.3978 8.81907 23.8799 9.37869C23.6442 9.64044 23.2962 9.67857 23.0503 9.474C22.8044 9.26944 22.7548 8.92557 22.9897 8.64255C23.3334 8.22756 23.5735 7.77444 23.4801 7.22967C23.4268 6.9232 23.275 6.63285 23.1524 6.34177C23.113 6.24645 23.0204 6.1746 22.9613 6.08588C22.7745 5.80873 22.808 5.49932 23.0401 5.29695C23.1554 5.19748 23.305 5.14763 23.4566 5.15819C23.6082 5.16876 23.7495 5.23889 23.85 5.35341C24.2644 5.78368 24.5368 6.33182 24.63 6.9232C24.6548 7.07643 24.6556 7.23774 24.6621 7.31473Z" fill="#353535"/>
<path d="M16.5113 4.23641C16.5081 4.39042 16.4441 4.53685 16.3335 4.64348C16.2229 4.75012 16.0746 4.80822 15.9213 4.80501C15.7681 4.8018 15.6223 4.73755 15.5162 4.62638C15.4101 4.51521 15.3523 4.36623 15.3555 4.21222C15.3571 4.13596 15.3736 4.06076 15.4041 3.99092C15.4346 3.92107 15.4785 3.85795 15.5332 3.80515C15.588 3.75235 15.6526 3.71091 15.7233 3.68319C15.7941 3.65548 15.8695 3.64203 15.9454 3.64362C16.0213 3.64521 16.0961 3.6618 16.1656 3.69245C16.2352 3.7231 16.298 3.76721 16.3505 3.82226C16.4031 3.8773 16.4443 3.94221 16.4719 4.01327C16.4995 4.08433 16.5129 4.16016 16.5113 4.23641V4.23641Z" fill="#353535"/>
<path d="M0.238342 7.24387C0.271907 5.14031 1.04536 3.19366 2.58788 1.56302C2.86953 1.26534 3.2081 1.23454 3.46349 1.47577C3.7072 1.70453 3.72033 2.04913 3.45181 2.33728C2.69879 3.14747 2.09681 4.05224 1.77357 5.11685C0.986984 7.70945 1.4547 10.0528 3.19643 12.1299C3.30296 12.2568 3.42044 12.3748 3.51748 12.5083C3.71085 12.7737 3.67874 13.0999 3.45108 13.3001C3.22342 13.5003 2.88413 13.5149 2.66304 13.2679C2.28653 12.8477 1.90783 12.4217 1.59845 11.9518C0.692197 10.5733 0.252936 9.04168 0.238342 7.24387Z" fill="#353535"/>
<path d="M3.0498 7.3912C3.0841 5.9006 3.5759 4.64169 4.5646 3.58588C4.74848 3.39011 4.95425 3.26474 5.23517 3.35639C5.47377 3.43337 5.6467 3.61301 5.62189 3.8447C5.58914 4.07026 5.49236 4.28155 5.34316 4.45326C4.80029 5.07941 4.42961 5.78475 4.2917 6.60374C4.05967 7.98729 4.40116 9.21394 5.32054 10.2697C5.37162 10.3284 5.4278 10.3834 5.4745 10.445C5.70143 10.7383 5.6934 11.0675 5.44969 11.286C5.20598 11.5045 4.86596 11.4825 4.59598 11.206C4.14047 10.7385 3.77288 10.192 3.51096 9.593C3.21234 8.89741 3.05554 8.14872 3.0498 7.3912V7.3912Z" fill="#353535"/>
<path d="M5.63843 7.54116C5.61315 7.13689 5.67343 6.73184 5.8153 6.35269C5.95717 5.97355 6.17741 5.62893 6.4615 5.34155C6.56192 5.23361 6.69977 5.16855 6.84656 5.15982C6.99335 5.15109 7.13788 5.19935 7.25027 5.29463C7.30805 5.33991 7.35622 5.39637 7.39194 5.46067C7.42765 5.52497 7.45019 5.59581 7.45821 5.669C7.46624 5.74219 7.45959 5.81626 7.43866 5.88683C7.41774 5.9574 7.38296 6.02304 7.33637 6.07989C7.07588 6.42522 6.83582 6.76763 6.80444 7.22295C6.76134 7.67386 6.896 8.12377 7.17949 8.47599C7.23422 8.54418 7.28967 8.61163 7.33856 8.68495C7.53046 8.97457 7.48449 9.29498 7.22838 9.49147C6.97227 9.68797 6.64902 9.63811 6.42064 9.38663C5.94854 8.86092 5.67126 8.25456 5.63843 7.54116Z" fill="#353535"/>
</svg>
