<svg width="30" height="15" viewBox="0 0 30 15" fill="none" xmlns="http://www.w3.org/2000/svg">
<g filter="url(#filter0_i_2276_1105)">
<path d="M29.8304 7.03987C29.7362 7.5861 29.6691 8.13967 29.5385 8.67784C29.1978 10.1281 28.4666 11.3672 27.4458 12.437C27.1809 12.7148 26.8373 12.7354 26.5906 12.5044C26.344 12.2735 26.3272 11.9391 26.5979 11.6429C27.1915 11.0085 27.6813 10.2837 28.0492 9.49536C29.17 7.0384 28.6943 3.87023 26.8905 1.87739C26.7789 1.75421 26.6651 1.63324 26.5651 1.50199C26.3498 1.21678 26.3681 0.901499 26.6023 0.685938C26.6587 0.630893 26.7261 0.588398 26.7999 0.561217C26.8737 0.534035 26.9525 0.522775 27.0309 0.528169C27.1094 0.533563 27.1858 0.555491 27.2553 0.592526C27.3248 0.62956 27.3857 0.680873 27.4341 0.743127C27.8143 1.18305 28.1988 1.6303 28.5162 2.11715C29.2634 3.26717 29.7025 4.59153 29.791 5.96206C29.8007 6.02898 29.8151 6.09513 29.834 6.16002L29.8304 7.03987Z" fill="#C73B5D"/>
<path fill-rule="evenodd" clip-rule="evenodd" d="M19.6787 7.95802L10.8643 13.047C10.1976 13.4319 9.36426 12.9508 9.36426 12.181L9.36426 2.00298C9.36426 1.23318 10.1976 0.752058 10.8643 1.13696L14.3424 3.14508C14.3868 2.94316 14.4767 2.75222 14.6072 2.58722C14.6911 2.48112 14.7895 2.38853 14.8989 2.31167L11.3643 0.270933C10.0309 -0.498867 8.36426 0.463383 8.36426 2.00298V12.181C8.36426 13.7206 10.0309 14.6829 11.3643 13.913L20.1787 8.82404C21.512 8.05424 21.512 6.12974 20.1787 5.35994L17.1241 3.59639C17.1163 3.66778 17.1029 3.73883 17.0838 3.80889C17.0124 4.07082 16.8656 4.30534 16.6628 4.48474L19.6787 6.22597C20.3453 6.61087 20.3453 7.57312 19.6787 7.95802Z" fill="#C73B5D"/>
<path d="M27.0039 6.48572C26.9864 8.03864 26.5041 9.29975 25.5198 10.3607C25.2067 10.698 24.8777 10.7493 24.6084 10.5022C24.3392 10.2551 24.3501 9.91563 24.661 9.5747C25.6497 8.48296 26.0108 7.20792 25.7555 5.76205C25.6158 4.98937 25.259 4.27296 24.7274 3.69735C24.3625 3.28822 24.3187 2.97075 24.6004 2.70313C24.882 2.43551 25.2089 2.49416 25.5913 2.91502C26.4819 3.89096 26.9847 5.1617 27.0039 6.48572Z" fill="#C73B5D"/>
<path d="M24.4239 6.5303C24.4402 7.29432 24.1596 8.03464 23.6417 8.59426C23.406 8.85602 23.058 8.89414 22.8121 8.68958C22.5662 8.48502 22.5166 8.14115 22.7515 7.85813C23.0952 7.44314 23.3352 6.99002 23.2418 6.44525C23.1886 6.13877 23.0368 5.84842 22.9142 5.55734C22.8748 5.46203 22.7822 5.39017 22.7231 5.30145C22.5363 5.0243 22.5698 4.71489 22.8019 4.51253C22.9171 4.41305 23.0668 4.3632 23.2184 4.37377C23.3699 4.38434 23.5113 4.45447 23.6118 4.56899C24.0262 4.99926 24.2985 5.54739 24.3918 6.13877C24.4166 6.29201 24.4173 6.45332 24.4239 6.5303Z" fill="#C73B5D"/>
<path d="M16.2731 3.45217C16.2699 3.60618 16.206 3.75261 16.0953 3.85924C15.9847 3.96588 15.8364 4.02398 15.6832 4.02077C15.5299 4.01756 15.3842 3.95331 15.2781 3.84213C15.1719 3.73096 15.1141 3.58199 15.1173 3.42798C15.1189 3.35172 15.1354 3.27652 15.1659 3.20668C15.1964 3.13683 15.2403 3.07371 15.2951 3.02091C15.3499 2.96811 15.4145 2.92667 15.4852 2.89895C15.5559 2.87124 15.6314 2.85779 15.7073 2.85938C15.7831 2.86097 15.858 2.87756 15.9275 2.90821C15.997 2.93886 16.0598 2.98297 16.1124 3.03802C16.1649 3.09306 16.2061 3.15797 16.2337 3.22903C16.2613 3.30009 16.2747 3.37591 16.2731 3.45217Z" fill="#C73B5D"/>
<path d="M0 6.45962C0.0335649 4.35607 0.807016 2.40942 2.34954 0.778777C2.63119 0.481097 2.96976 0.450303 3.22514 0.691526C3.46885 0.920285 3.48199 1.26489 3.21347 1.55304C2.46045 2.36323 1.85847 3.268 1.53523 4.33261C0.748642 6.92521 1.21636 9.26852 2.95809 11.3457C3.06462 11.4725 3.18209 11.5906 3.27914 11.724C3.4725 11.9894 3.4404 12.3157 3.21274 12.5159C2.98508 12.716 2.64579 12.7307 2.4247 12.4836C2.04819 12.0635 1.66949 11.6375 1.36011 11.1675C0.453855 9.78909 0.0145934 8.25744 0 6.45962Z" fill="#C73B5D"/>
<path d="M2.81152 6.60677C2.84582 5.11617 3.33762 3.85727 4.32632 2.80146C4.5102 2.60569 4.71596 2.48031 4.99689 2.57196C5.23549 2.64895 5.40842 2.82858 5.38361 3.06028C5.35086 3.28584 5.25408 3.49712 5.10488 3.66883C4.562 4.29499 4.19133 5.00033 4.05342 5.81931C3.82139 7.20287 4.16287 8.42951 5.08226 9.48532C5.13334 9.54398 5.18952 9.59897 5.23622 9.66056C5.46315 9.95384 5.45512 10.283 5.21141 10.5015C4.9677 10.72 4.62767 10.698 4.3577 10.4216C3.90219 9.95408 3.5346 9.4076 3.27268 8.80858C2.97406 8.11299 2.81726 7.3643 2.81152 6.60677Z" fill="#C73B5D"/>
<path d="M5.40015 6.75673C5.37486 6.35247 5.43515 5.94741 5.57702 5.56827C5.71889 5.18912 5.93913 4.8445 6.22322 4.55713C6.32364 4.44919 6.46148 4.38413 6.60828 4.3754C6.75507 4.36666 6.89959 4.41492 7.01199 4.5102C7.06977 4.55549 7.11794 4.61195 7.15366 4.67625C7.18937 4.74055 7.2119 4.81138 7.21993 4.88458C7.22795 4.95777 7.22131 5.03184 7.20038 5.10241C7.17946 5.17298 7.14468 5.23862 7.09809 5.29546C6.8376 5.6408 6.59754 5.98321 6.56616 6.43852C6.52306 6.88944 6.65772 7.33935 6.94121 7.69157C6.99594 7.75975 7.05139 7.82721 7.10028 7.90053C7.29218 8.19014 7.24621 8.51055 6.9901 8.70705C6.73398 8.90355 6.41074 8.85369 6.18235 8.6022C5.71026 8.0765 5.43298 7.47014 5.40015 6.75673Z" fill="#C73B5D"/>
</g>
<defs>
<filter id="filter0_i_2276_1105" x="0" y="-2" width="29.834" height="16.184" filterUnits="userSpaceOnUse" color-interpolation-filters="sRGB">
<feFlood flood-opacity="0" result="BackgroundImageFix"/>
<feBlend mode="normal" in="SourceGraphic" in2="BackgroundImageFix" result="shape"/>
<feColorMatrix in="SourceAlpha" type="matrix" values="0 0 0 0 0 0 0 0 0 0 0 0 0 0 0 0 0 0 127 0" result="hardAlpha"/>
<feOffset dy="-2"/>
<feGaussianBlur stdDeviation="9"/>
<feComposite in2="hardAlpha" operator="arithmetic" k2="-1" k3="1"/>
<feColorMatrix type="matrix" values="0 0 0 0 1 0 0 0 0 0.283333 0 0 0 0 0.412333 0 0 0 0.25 0"/>
<feBlend mode="normal" in2="shape" result="effect1_innerShadow_2276_1105"/>
</filter>
</defs>
</svg>
