<svg width="25" height="26" viewBox="0 0 25 26" fill="none" xmlns="http://www.w3.org/2000/svg">
<path d="M12.5211 22.8353C18.2469 22.8353 22.8886 18.1936 22.8886 12.4678C22.8886 6.74203 18.2469 2.10034 12.5211 2.10034C6.79525 2.10034 2.15356 6.74203 2.15356 12.4678C2.15356 18.1936 6.79525 22.8353 12.5211 22.8353Z" fill="#25D366"/>
<path d="M18.2148 15.0471C17.8987 14.8912 16.3731 14.1452 16.0865 14.0399C15.8041 13.9303 15.6018 13.8839 15.4122 14.1958C15.2225 14.5034 14.5777 15.2325 14.4049 15.4138C14.2321 15.595 14.0425 15.6498 13.7306 15.4938C12.8161 15.123 11.969 14.6004 11.2272 13.9471C10.5487 13.3192 9.96712 12.5943 9.49932 11.7936C9.30967 11.4859 9.49932 11.3173 9.64261 11.1698C9.7859 11.0223 9.95027 10.8074 10.1062 10.6262C10.2326 10.466 10.3338 10.2932 10.4139 10.1078C10.5108 9.93922 10.5108 9.73271 10.4139 9.56413C10.338 9.4082 9.73954 7.88258 9.45718 7.25463C9.17481 6.62668 8.94723 6.72782 8.78287 6.71518H8.19285C7.87677 6.72361 7.57333 6.8669 7.36682 7.10712C6.63773 7.76879 6.22893 8.71282 6.23735 9.699C6.34272 10.8706 6.78102 11.9916 7.50168 12.923C7.65762 13.1253 9.69319 16.2861 12.8119 17.6348C13.5536 17.9593 14.1563 18.1447 14.5819 18.3091C15.2183 18.4987 15.8884 18.5409 16.5416 18.4313C17.1401 18.3428 18.3833 17.6769 18.6488 16.952C18.8554 16.4884 18.9186 15.9743 18.8301 15.4728C18.7542 15.3295 18.5477 15.2663 18.2316 15.0977L18.2148 15.0471ZM21.3503 3.6555C16.4995 -1.20795 8.62272 -1.22059 3.75506 3.63022C-0.236008 7.61285 -1.05361 13.7828 1.77006 18.6673L0 25.1154L6.59558 23.3875C8.42043 24.3779 10.4644 24.9004 12.5421 24.9004C19.4159 24.9047 24.9916 19.3416 25 12.4721C25.0042 9.16376 23.6893 5.99451 21.3503 3.6555ZM12.5421 22.7974C10.6878 22.8017 8.86716 22.3001 7.2741 21.3561L6.91166 21.1285L2.98382 22.1568L4.02478 18.3428L3.78456 17.9508C2.74359 16.303 2.19572 14.3939 2.20415 12.4468C2.20836 6.73625 6.84002 2.10881 12.5548 2.11302C18.2653 2.11724 22.8928 6.74889 22.8886 12.4637C22.8801 18.1742 18.2527 22.7974 12.5421 22.7974Z" fill="white"/>
<path fill-rule="evenodd" clip-rule="evenodd" d="M4.02479 18.3428L2.98383 22.161L6.91167 21.1285L4.02479 18.3428Z" fill="#25D366"/>
</svg>
