<svg width="12" height="13" viewBox="0 0 12 13" fill="none" xmlns="http://www.w3.org/2000/svg">
<path d="M11.3861 0.461152C11.3725 0.727384 11.1681 0.898533 10.8602 0.90091C10.7839 0.90091 10.7049 0.90091 10.6286 0.90091C7.34818 0.90091 4.06773 0.90091 0.787279 0.90091C0.713714 0.90091 0.640149 0.891402 0.569309 0.903287C0.324092 0.938943 0.0598041 0.729761 0.00803613 0.515824C-0.0382825 0.323282 0.119746 0.114099 0.375861 0.0237707C0.411281 0.0118854 0.443976 0 0.482121 0C1.19052 0 1.8962 0 2.60461 0C2.65637 0.104591 2.69179 0.221068 2.76536 0.311397C2.88252 0.458775 3.08142 0.461152 3.26124 0.461152C4.28843 0.465906 5.31833 0.463529 6.34552 0.463529C8.02389 0.463529 9.70499 0.463529 11.3861 0.461152Z" fill="#FEB2B6"/>
<path d="M11.386 0.461152C9.70487 0.461152 8.02378 0.463529 6.34541 0.463529C5.31822 0.463529 4.28831 0.465906 3.26113 0.461152C3.0813 0.461152 2.8824 0.458775 2.76525 0.311396C2.69168 0.218691 2.65626 0.104591 2.60449 0C5.40541 0 8.2036 0 11.0045 0C11.1952 0.0808204 11.3614 0.183035 11.3969 0.382709C11.3996 0.408856 11.3887 0.435004 11.386 0.461152Z" fill="#FECAC7"/>
<path d="M4.92869 12.4131C4.92869 11.555 4.93141 10.6969 4.93141 9.83878C5.13576 9.86968 5.34283 9.90296 5.5499 9.93386C5.54173 9.87919 5.51993 9.85542 5.49541 9.83402C5.04857 9.4632 4.72434 9.01631 4.4437 8.5409C4.10585 7.96327 3.85518 7.35949 3.65084 6.73908C3.52823 6.36588 3.40834 5.98792 3.33205 5.60521C3.20672 4.98242 3.10319 4.35725 3.01327 3.7297C2.95333 3.31847 2.92881 2.90248 2.88794 2.4865C5.43819 2.4865 7.98844 2.4865 10.5387 2.4865C10.4679 2.9738 10.4134 3.46347 10.318 3.94839C10.2199 4.4452 10.1164 4.94676 9.95562 5.42931C9.7758 5.97604 9.55238 6.51563 9.30716 7.04334C9.04287 7.61384 8.68867 8.1463 8.25001 8.63122C7.78682 9.14229 7.25279 9.57254 6.54167 9.80787C6.50897 9.81976 6.46265 9.85066 6.46265 9.87206C6.46537 10.0432 6.47627 10.2144 6.48445 10.3879C6.40543 10.3879 6.32914 10.3903 6.25013 10.3903C5.78422 10.3903 5.45454 10.6755 5.45454 11.0772C5.45454 11.5217 5.45454 11.9663 5.45454 12.4131L5.45181 12.4155C5.28016 12.4131 5.10306 12.4131 4.92869 12.4131Z" fill="#FEB2B6"/>
<path d="M2.888 2.4865C2.92887 2.90011 2.95339 3.31609 3.01333 3.7297C3.10597 4.35725 3.20678 4.98242 3.33212 5.60521C3.41113 5.98792 3.52829 6.36588 3.6509 6.73908C3.85524 7.35949 4.10591 7.96564 4.44376 8.5409C4.72168 9.01631 5.04863 9.4632 5.49547 9.83402C5.51999 9.85542 5.54179 9.87919 5.54996 9.93386C5.34289 9.90296 5.13854 9.86968 4.93147 9.83878C4.6917 9.72943 4.44104 9.63673 4.21762 9.50836C3.62093 9.16369 3.17409 8.69303 2.78991 8.17245C2.40847 7.65663 2.11421 7.10277 1.86082 6.52989C1.51751 5.7621 1.28592 4.96816 1.10882 4.15995C1.01891 3.74872 0.975313 3.33036 0.912647 2.91675C0.89085 2.77412 0.877227 2.6315 0.858154 2.48887C1.53386 2.48887 2.20957 2.48887 2.888 2.4865Z" fill="#FF8087"/>
<path d="M0.784424 0.903198C4.06488 0.903198 7.34533 0.903198 10.6258 0.903198C10.6149 1.05771 10.604 1.21222 10.5931 1.36673C8.37251 1.36673 6.15466 1.37386 3.93409 1.36197C3.48725 1.3596 3.02952 1.62345 2.91508 2.02518C2.21758 2.02518 1.52007 2.0228 0.822568 2.0228C0.81167 1.64722 0.798047 1.27402 0.784424 0.903198Z" fill="#FF8087"/>
<path d="M2.91797 2.02282C3.0324 1.6211 3.49014 1.35962 3.93698 1.35962C6.15755 1.3715 8.3754 1.36437 10.596 1.36437C10.5932 1.58306 10.5932 1.80175 10.5905 2.01807C8.03209 2.02282 5.47639 2.02282 2.91797 2.02282Z" fill="#FEB2B6"/>
<path d="M2.91791 2.02307C5.47634 2.02307 8.03204 2.02069 10.5905 2.02069C10.5741 2.1752 10.555 2.33209 10.5387 2.4866C7.98844 2.4866 5.43819 2.4866 2.88794 2.4866C2.89611 2.33209 2.90701 2.17758 2.91791 2.02307Z" fill="#DC4655"/>
<path d="M5.45728 12.4131C5.45728 11.9686 5.45728 11.5241 5.45728 11.0772C5.45728 10.6731 5.78696 10.3903 6.25287 10.3903C6.33188 10.3903 6.40817 10.3903 6.48718 10.3879C6.48718 11.063 6.48718 11.7381 6.48718 12.4131C6.14388 12.4131 5.80058 12.4131 5.45728 12.4131Z" fill="#FECAC7"/>
<path d="M6.48718 12.8765C6.48718 13.1617 6.49263 13.4493 6.48991 13.7346C6.48991 13.901 6.3782 13.9984 6.1902 13.9984C5.94498 14.0008 5.70249 13.9961 5.45728 13.9961C5.45728 13.6229 5.45727 13.252 5.46 12.8788C5.80058 12.8765 6.14388 12.8765 6.48718 12.8765Z" fill="#FECAC7"/>
<path d="M2.91795 2.02307C2.90705 2.17758 2.89616 2.33209 2.88526 2.4866C2.20955 2.4866 1.53384 2.48897 0.858134 2.48897C0.847236 2.33209 0.836338 2.17758 0.825439 2.02069C1.52294 2.02307 2.22045 2.02307 2.91795 2.02307Z" fill="#FE9AA5"/>
<path d="M5.45752 12.8765C5.45752 13.2497 5.45752 13.6205 5.4548 13.9937C5.02975 14.0222 4.89897 13.9652 4.92349 13.5539C4.93712 13.3281 4.92894 13.1023 4.92894 12.8765C5.10604 12.8765 5.28042 12.8765 5.45752 12.8765Z" fill="#FEB3B7"/>
<path d="M6.48722 12.8766C6.14392 12.8766 5.80062 12.8789 5.45731 12.8789L5.45459 12.8766C5.45459 12.722 5.45459 12.5675 5.45459 12.413L5.45731 12.4106C5.80062 12.4106 6.14392 12.413 6.48722 12.413C6.48722 12.5675 6.48722 12.722 6.48722 12.8766Z" fill="#DC4655"/>
<path d="M5.45456 12.4133C5.45456 12.5679 5.45456 12.7224 5.45456 12.8769C5.28019 12.8769 5.10309 12.8769 4.92871 12.8769C4.92871 12.7224 4.92871 12.5679 4.92871 12.4157C5.10309 12.4133 5.28019 12.4133 5.45456 12.4133Z" fill="#E6646E"/>
<path d="M6.88398 8.5213C6.15674 8.63887 5.56294 8.40373 5.0904 7.84567C4.75955 7.30956 4.62454 6.73856 4.89417 6.1468C5.01505 5.88305 5.22306 5.65575 5.41105 5.42767C5.54331 5.26699 5.70815 5.13375 5.85886 4.98796C5.8777 5.03107 5.88633 5.08437 5.91733 5.11572C6.15674 5.36222 6.39575 5.61029 6.64458 5.84739C7.38085 6.54889 7.4825 7.59682 6.94364 8.36572C6.91758 8.415 6.89755 8.46724 6.88398 8.5213Z" fill="#D10141"/>
<path d="M7.08626 8.55103C7.10071 8.4935 7.12203 8.43795 7.14976 8.38561C7.71229 7.57422 7.60617 6.46838 6.83756 5.72811C6.57781 5.47791 6.3283 5.21613 6.07838 4.95601C6.04601 4.92292 6.03741 4.86668 6.01733 4.82119L6.73637 3.80054C7.05635 4.57802 7.68484 5.0656 8.20517 5.64664C9.02376 6.85257 8.28342 8.31035 7.08626 8.55103Z" fill="#FE285F"/>
</svg>
