<svg id="Layer_1" data-name="Layer 1" xmlns="http://www.w3.org/2000/svg" viewBox="0 0 358.49 640.42"><defs><style>.cls-1{fill:#fffbfb;fill-opacity:0.99;}</style></defs><path class="cls-1" d="M358.68,511.16h-.1c.88-18.66.1-39.48.1-50.78,0-27.89-44.29-43.31-69.73-54.8S234.64,388.79,213,371.11c-31.82-26.22-36.34-75-12.27-111l11.29-20.62a18.08,18.08,0,0,1,6.48.59c17,8,57.65,26.12,72.28,11,8.75-9,1.77-23.76,4.62-27.59s11.69-7.86,11.39-11.89-10.9-6.77-9.72-8.44,18.76-2.95,16.5-8.94c-3.63-9.82-9.23-10.8-7.66-15.52,2.36-7.17,15.42-4.32,22.19-10.9,8.55-8.25-.68-8.84-12.37-25.63-4.71-6.78-7.27-12.18-8.35-17.48,9.63-1,13.75-4.42,13.75-4.42A119.48,119.48,0,0,1,306.72,119c0-.1,7.27-40.46,2.26-70.32C306.72,29.43,294.55,12,278.15-.42H.51V640H358.68Z" transform="translate(-0.51 0.42)"/></svg>