<svg id="Layer_1" data-name="Layer 1" xmlns="http://www.w3.org/2000/svg" viewBox="0 0 359.39 457.98"><defs><style>.cls-1{fill:#fffbfb;isolation:isolate;opacity:0.99;}</style></defs><path class="cls-1" d="M290.28,408.1c-25.57-11.55-54.57-16.83-76.24-34.65-32-26.33-36.46-75.38-12.29-111.5l11.39-20.73a16.32,16.32,0,0,1,6.48.6c17.1,8,57.84,26.14,72.64,11,8.8-9.07,1.73-23.9,4.64-27.7s11.69-7.89,11.45-12-11-6.76-9.81-8.45,18.82-3,16.62-8.95c-3.66-9.87-9.32-10.85-7.75-15.57,2.39-7.18,15.47-4.38,22.27-11,8.55-8.3-.72-8.93-12.46-25.74-4.77-6.85-7.26-12.28-8.36-17.58,9.67-1,13.81-4.48,13.81-4.48a108.54,108.54,0,0,1-14.51-1.33c0-.11,7.3-40.61,2.3-70.69C308.19,30,296,12.46,279.44,0H.43V458H359.82C354.77,433.21,314.24,418.91,290.28,408.1Z" transform="translate(-0.43 -0.02)"/></svg>