<?xml version="1.0" encoding="utf-8"?>
<!-- Generator: Adobe Illustrator 26.0.1, SVG Export Plug-In . SVG Version: 6.00 Build 0)  -->
<svg version="1.1" id="Layer_1" xmlns="http://www.w3.org/2000/svg" xmlns:xlink="http://www.w3.org/1999/xlink" x="0px" y="0px"
	 viewBox="0 0 360 322" style="enable-background:new 0 0 360 322;" xml:space="preserve">
<style type="text/css">
	.st0{fill-rule:evenodd;clip-rule:evenodd;fill:#C83B5E;}
	.st1{fill:#FFFBFB;fill-opacity:5.000000e-02;}
</style>
<path class="st0" d="M0.1,0l0,187.2C-1.1,248.4,12.1,322,152,322h145c21,0,63-21.7,63-80.4V0H0.1z"/>
<path class="st1" d="M330.7,165.7c8.7-8.4-0.7-9.1-12.6-26.1c-4.8-7-7.4-12.5-8.5-17.9c9.8-1,14-4.5,14-4.5
	c-4.9-0.1-9.8-0.6-14.7-1.3c0-0.1,7.4-41.2,2.3-71.8C309.2,27.4,300,12,286.9,0H0.1v322h185.7c-3.2-21.8,1.6-44.8,15.2-62.2l11.5-21
	c2.2-0.2,4.4,0,6.6,0.6c17.3,8.1,58.7,26.6,73.6,11.2c8.9-9.2,1.8-24.3,4.7-28.1c2.9-3.9,11.9-8.1,11.6-12.1
	c-0.2-4.1-11.1-6.9-9.9-8.6c1.2-1.7,19.1-3.1,16.8-9.1c-3.7-10-9.4-11-7.8-15.8C310.5,169.6,323.8,172.4,330.7,165.7z"/>
</svg>
