<svg width="20" height="24" viewBox="0 0 20 24" fill="none" xmlns="http://www.w3.org/2000/svg">
<path d="M19.6824 15.496C19.6824 16.7216 18.6885 17.7142 17.4635 17.7142H17.3012C16.9968 19.4988 16.0666 21.0701 14.7462 22.1951C13.4251 23.3208 11.7124 24.0001 9.84121 24.0001C6.09879 24.0001 2.99117 21.2827 2.38121 17.7142H2.2195C1.60636 17.7142 1.05183 17.4658 0.650057 17.0648C0.248935 16.663 0 16.1085 0 15.496C0 14.5996 0.531612 13.8279 1.29629 13.4777C1.5777 13.3491 1.88969 13.2772 2.21945 13.2772H2.27228V9.30618C2.27228 7.21596 3.11971 5.32375 4.48922 3.95424C5.85942 2.58407 7.75163 1.7373 9.84121 1.7373C14.021 1.7373 17.4101 5.12573 17.4101 9.30618V13.2772H17.4636C18.0761 13.2772 18.6306 13.5255 19.0324 13.9272C19.4334 14.3289 19.6824 14.8835 19.6824 15.496Z" fill="#F9C5B9"/>
<path d="M12.5227 3.82438C8.70775 2.41161 9.73988 3.82454 9.73988 3.82454C9.73988 3.82454 8.4876 2.74465 6.95703 3.82449C6.95703 3.82449 7.03976 1.00014 8.34846 0.345922C9.73988 -0.349649 12.5227 -0.356069 12.5227 3.82438Z" fill="#65070C"/>
<path d="M19.6825 15.496C19.6825 16.7216 18.6886 17.7142 17.4636 17.7142H17.3013C16.9969 19.4988 16.0667 21.0701 14.7463 22.1951C13.4252 23.3208 11.7125 24.0001 9.84131 24.0001V1.7373C14.0211 1.7373 17.4102 5.12573 17.4102 9.30618V13.2772H17.4637C18.0762 13.2772 18.6307 13.5255 19.0325 13.9272C19.4335 14.3289 19.6825 14.8835 19.6825 15.496Z" fill="#FFB09E"/>
<path d="M17.4105 9.30618V12.191C13.5955 10.7782 12.0585 8.08121 12.0585 8.08121C12.0585 8.08121 11.3722 8.9598 9.84158 10.0396C8.26771 11.1513 5.80249 12.4749 2.27271 13.2752V9.30614C2.27271 7.21591 3.12013 5.3237 4.48964 3.95419C5.8598 2.58407 7.75201 1.7373 9.84158 1.7373C14.0214 1.7373 17.4105 5.12573 17.4105 9.30618Z" fill="#862B3B"/>
<path d="M17.4102 9.30618V12.191C13.5952 10.7782 12.0582 8.08121 12.0582 8.08121C12.0582 8.08121 11.3719 8.9598 9.84131 10.0396V1.7373C14.0211 1.7373 17.4102 5.12573 17.4102 9.30618Z" fill="#65070C"/>
<path d="M11.2935 18.5986C11.5109 18.3799 11.8657 18.3799 12.0831 18.5986C12.2993 18.816 12.2993 19.1663 12.0831 19.3837C11.8657 19.6024 11.5109 19.6024 11.2935 19.3837C11.0773 19.1663 11.0773 18.816 11.2935 18.5986Z" fill="#FF155D"/>
<path d="M14.0765 19.9897C14.2939 19.771 14.6486 19.771 14.866 19.9897C15.0823 20.2071 15.0823 20.5574 14.866 20.7748C14.6486 20.9935 14.2939 20.9935 14.0765 20.7748C13.8603 20.5574 13.8603 20.2071 14.0765 19.9897Z" fill="#FF155D"/>
<path d="M14.0765 17.207C14.2939 16.9883 14.6486 16.9883 14.866 17.207C15.0823 17.4244 15.0823 17.7747 14.866 17.9921C14.6486 18.2108 14.2939 18.2108 14.0765 17.9921C13.8603 17.7747 13.8603 17.4244 14.0765 17.207Z" fill="#FF155D"/>
<path d="M7.90913 18.5986C7.6917 18.3799 7.33698 18.3799 7.11956 18.5986C6.90334 18.816 6.90334 19.1663 7.11956 19.3837C7.33698 19.6024 7.6917 19.6024 7.90913 19.3837C8.12534 19.1663 8.12534 18.816 7.90913 18.5986Z" fill="#FF4945"/>
<path d="M5.12641 19.9897C4.90899 19.771 4.55427 19.771 4.33684 19.9897C4.12063 20.2071 4.12063 20.5574 4.33684 20.7748C4.55427 20.9935 4.90899 20.9935 5.12641 20.7748C5.34263 20.5574 5.34263 20.2071 5.12641 19.9897Z" fill="#FF4945"/>
<path d="M5.12641 17.207C4.90899 16.9883 4.55427 16.9883 4.33684 17.207C4.12063 17.4244 4.12063 17.7747 4.33684 17.9921C4.55427 18.2108 4.90899 18.2108 5.12641 17.9921C5.34263 17.7747 5.34263 17.4244 5.12641 17.207Z" fill="#FF4945"/>
</svg>
