<svg width="16" height="16" viewBox="0 0 16 16" fill="none" xmlns="http://www.w3.org/2000/svg">
<path d="M7.99975 0C5.878 0 3.84318 0.842877 2.34291 2.34315C0.842633 3.84343 -0.000244141 5.87824 -0.000244141 8C-0.000244141 10.1218 0.842633 12.1566 2.34291 13.6568C3.84318 15.1571 5.878 16 7.99975 16C10.1215 16 12.1563 15.1571 13.6566 13.6568C15.1569 12.1566 15.9998 10.1218 15.9998 8C15.9974 5.87903 15.1538 3.84548 13.654 2.34579C12.1541 0.846097 10.1206 0.00240044 7.99975 0ZM7.99975 15.0001V15C6.14316 15 4.36279 14.2626 3.04987 12.9497C1.737 11.637 0.999569 9.85666 0.999569 7.99983C0.999569 6.143 1.737 4.36286 3.04987 3.04994C4.36262 1.73707 6.14293 0.99964 7.99975 0.99964C9.85658 0.99964 11.6367 1.73707 12.9496 3.04994C14.2625 4.36269 14.9999 6.143 14.9999 7.99983C14.9979 9.85572 14.2598 11.635 12.9474 12.9474C11.6351 14.2598 9.85577 14.9979 7.99981 15L7.99975 15.0001ZM12.5498 7.99991C12.5498 8.13256 12.4972 8.25972 12.4034 8.35348C12.3096 8.44725 12.1825 8.49985 12.0498 8.49985H8.49981V12.0499C8.49981 12.2285 8.40455 12.3935 8.24984 12.4829C8.09512 12.5722 7.90461 12.5722 7.7499 12.4829C7.59518 12.3935 7.49993 12.2285 7.49993 12.0499V8.49985H3.94991C3.7713 8.49985 3.6063 8.40459 3.51687 8.24988C3.42756 8.09516 3.42756 7.90465 3.51687 7.74994C3.60629 7.59522 3.7713 7.49997 3.94991 7.49997H7.49993L7.50004 3.94995C7.50004 3.77133 7.5953 3.60634 7.75002 3.51691C7.90473 3.4276 8.09524 3.4276 8.24995 3.51691C8.40467 3.60633 8.49992 3.77133 8.49992 3.94995V7.49997H12.0499L12.0501 7.50008C12.1827 7.50008 12.3099 7.55269 12.4036 7.64645C12.4974 7.74022 12.55 7.86738 12.55 8.00002L12.5498 7.99991Z" fill="#CD3C5D"/>
</svg>
