<svg width="24" height="24" viewBox="0 0 24 24" fill="none" xmlns="http://www.w3.org/2000/svg">
<path d="M21.7513 2.21911L21.3147 0.543894C21.173 0.000425667 20.4947 -0.18384 20.0976 0.213332L18.2256 2.08533C18.0406 2.27035 17.9693 2.54058 18.039 2.79282L18.7186 5.25183L21.7513 2.21911Z" fill="#5A5A5A"/>
<path d="M21.7515 2.21924L23.4267 2.65588C23.9702 2.79754 24.1544 3.47582 23.7572 3.87299L21.8852 5.74499C21.7002 5.93 21.43 6.0013 21.1778 5.9316L18.7188 5.25196L21.7515 2.21924Z" fill="#5A5A5A"/>
<path d="M23.7569 3.87245L21.8848 5.74455C21.7 5.92989 21.4297 6.00081 21.1773 5.93134L20.2192 5.66687C20.4253 5.67362 20.629 5.59544 20.7786 5.44581L22.7279 3.49698C23.018 3.20692 23.0098 2.77258 22.7839 2.48828L23.4262 2.65577C23.9697 2.79719 24.1541 3.47575 23.7569 3.87245Z" fill="#444444"/>
<path d="M10.3792 24.0001C16.1115 24.0001 20.7584 19.3532 20.7584 13.6209C20.7584 7.88863 16.1115 3.2417 10.3792 3.2417C4.64693 3.2417 0 7.88863 0 13.6209C0 19.3532 4.64693 24.0001 10.3792 24.0001Z" fill="#EE6161"/>
<path d="M20.7591 13.6207C20.7591 19.3533 16.1119 24 10.3798 24C7.89768 24 5.61923 23.1289 3.83301 21.6747C5.4884 22.7915 7.4826 23.4435 9.6298 23.4435C15.3624 23.4435 20.0091 18.7964 20.0091 13.0642C20.0091 9.81426 18.5154 6.91275 16.1766 5.00977C18.9411 6.87459 20.7591 10.0353 20.7591 13.6207Z" fill="#E94444"/>
<path d="M10.3794 21.2345C14.5844 21.2345 17.9932 17.8256 17.9932 13.6206C17.9932 9.41566 14.5844 6.00684 10.3794 6.00684C6.17445 6.00684 2.76562 9.41566 2.76562 13.6206C2.76562 17.8256 6.17445 21.2345 10.3794 21.2345Z" fill="#F9F7F8"/>
<path d="M17.9935 13.6207C17.9935 17.8258 14.5842 21.2346 10.3796 21.2346C8.61224 21.2346 6.98535 20.6323 5.69385 19.6221C6.83718 20.3089 8.17597 20.7037 9.60744 20.7037C13.812 20.7037 17.2213 17.2949 17.2213 13.0898C17.2213 10.6525 16.0761 8.4827 14.2942 7.08887C16.5104 8.42045 17.9935 10.8475 17.9935 13.6207Z" fill="#EFEDEF"/>
<path d="M10.3792 18.4552C13.0491 18.4552 15.2135 16.2908 15.2135 13.6209C15.2135 10.951 13.0491 8.78662 10.3792 8.78662C7.7093 8.78662 5.54492 10.951 5.54492 13.6209C5.54492 16.2908 7.7093 18.4552 10.3792 18.4552Z" fill="#EE6161"/>
<path d="M15.2132 13.6207C15.2132 16.2905 13.0491 18.4551 10.3793 18.4551C9.18381 18.4551 8.0897 18.0212 7.24609 17.3021C7.91598 17.6535 8.67803 17.8518 9.48644 17.8518C12.1563 17.8518 14.3204 15.6873 14.3204 13.0174C14.3204 11.543 13.6601 10.2225 12.6196 9.33643C14.1616 10.1438 15.2132 11.7592 15.2132 13.6207Z" fill="#E94444"/>
<path d="M10.3789 15.8159C11.5911 15.8159 12.5737 14.8333 12.5737 13.6211C12.5737 12.4089 11.5911 11.4263 10.3789 11.4263C9.16674 11.4263 8.18408 12.4089 8.18408 13.6211C8.18408 14.8333 9.16674 15.8159 10.3789 15.8159Z" fill="#F9F7F8"/>
<path d="M12.5738 13.6208C12.5738 14.8331 11.5911 15.8157 10.3793 15.8157C9.68331 15.8157 9.06362 15.4919 8.66162 14.9871C8.94442 15.1203 9.26054 15.1946 9.59359 15.1946C10.8059 15.1946 11.7886 14.212 11.7886 13.0001C11.7886 12.4837 11.61 12.0088 11.3112 11.6338C12.0573 11.9842 12.5738 12.7424 12.5738 13.6208Z" fill="#EFEDEF"/>
<path d="M10.3164 13.9988C10.2264 13.9988 10.1364 13.9645 10.0678 13.8958C9.93052 13.7585 9.93052 13.5359 10.0678 13.3986L21.4992 1.96723C21.6365 1.82993 21.8591 1.82993 21.9964 1.96723C22.1337 2.10453 22.1337 2.32714 21.9964 2.46439L10.565 13.8958C10.4963 13.9644 10.4063 13.9988 10.3164 13.9988Z" fill="#353535"/>
<path d="M3.40003 23.9998C5.27782 23.9998 6.80006 22.4775 6.80006 20.5997C6.80006 18.722 5.27782 17.1997 3.40003 17.1997C1.52225 17.1997 0 18.722 0 20.5997C0 22.4775 1.52225 23.9998 3.40003 23.9998Z" fill="#57BE92"/>
<path d="M6.79993 20.5999C6.79993 22.4778 5.27776 23.9999 3.39985 23.9999C2.57457 23.9999 1.81829 23.7065 1.22949 23.2176C1.65615 23.4102 2.12912 23.5173 2.62763 23.5173C4.50554 23.5173 6.02771 21.9951 6.02771 20.1172C6.02771 19.0642 5.54893 18.123 4.79799 17.4995C5.97854 18.0328 6.79993 19.2201 6.79993 20.5999Z" fill="#09A76D"/>
<path d="M5.15968 19.2221C4.89348 18.9766 4.47859 18.9932 4.23301 19.2594L3.10332 20.484C3.05466 20.5367 2.97132 20.5367 2.92266 20.484L2.56932 20.1009C2.32313 19.8341 1.90721 19.8173 1.64035 20.0635C1.37443 20.3088 1.35671 20.7229 1.60074 20.9901L2.42823 21.8959C2.73788 22.2348 3.27132 22.2362 3.58262 21.8987L5.19699 20.1488C5.44262 19.8827 5.42588 19.4678 5.15968 19.2221Z" fill="#F9F7F8"/>
<path d="M5.19765 20.1491L3.58327 21.8991C3.27197 22.2365 2.73821 22.235 2.42883 21.8962L2.37671 21.8392C2.58568 21.8383 2.79418 21.7543 2.94863 21.5868L4.56301 19.8368C4.76569 19.6172 4.78983 19.2968 4.64213 19.053C4.82457 19.0323 5.01474 19.0883 5.16001 19.2224C5.4264 19.4682 5.44327 19.8827 5.19765 20.1491Z" fill="#EFEDEF"/>
</svg>
