<svg width="16" height="16" viewBox="0 0 16 16" fill="none" xmlns="http://www.w3.org/2000/svg">
<path d="M0 1.77778C0 0.795938 0.795938 0 1.77778 0H14.2222C15.2041 0 16 0.795938 16 1.77778V14.2222C16 15.2041 15.2041 16 14.2222 16H1.77778C0.795938 16 0 15.2041 0 14.2222V1.77778Z" fill="#CD3C5D"/>
<rect width="16" height="16" rx="1.77778" fill="#28A745"/>
<path fill-rule="evenodd" clip-rule="evenodd" d="M11.8532 4.87845C11.9776 4.74454 12.1859 4.7378 12.3185 4.86339C12.4434 4.98159 12.4566 5.17488 12.354 5.30885L12.3335 5.33324L6.75838 11.006C6.63926 11.1342 6.44369 11.1455 6.31123 11.0371L6.28717 11.0153L3.63159 8.3731C3.50208 8.24424 3.50055 8.03377 3.62817 7.90301C3.74828 7.77994 3.93999 7.77133 4.0701 7.87817L4.09374 7.89956L6.50896 10.3026L11.8532 4.87845Z" fill="white"/>
</svg>
