<svg width="16" height="16" viewBox="0 0 16 16" fill="none" xmlns="http://www.w3.org/2000/svg">
<path d="M2.67308 7.66683L2.96712 7.7707V13.9915C2.96712 14.6137 3.47154 15.1179 4.09354 15.1179H11.9062C12.5282 15.1179 13.0327 14.6137 13.0327 13.9915V7.7707L13.3267 7.66683C14.3914 7.29053 15.1179 6.28062 15.1179 5.13278C15.1179 3.64889 13.915 2.4458 12.4311 2.4458C12.0356 2.4458 11.653 2.53104 11.3027 2.69327L10.8972 2.88133L10.7148 2.47322C10.2854 1.51306 9.3307 0.88193 8.26053 0.88193C7.1104 0.88193 6.09908 1.61114 5.72437 2.67889L5.53578 3.21616L5.06281 2.89909C4.62412 2.60505 4.10899 2.44583 3.5687 2.44583C2.08481 2.44583 0.881904 3.64887 0.881904 5.13281C0.881904 6.28068 1.60833 7.29057 2.67306 7.66685L2.67308 7.66683ZM2.08519 8.37953C0.832744 7.80725 0 6.54918 0 5.13278C0 3.16165 1.59782 1.56388 3.56872 1.56388C4.10689 1.56388 4.62765 1.68357 5.10044 1.90854C5.70664 0.755219 6.9118 0 8.26053 0C9.53723 0 10.6905 0.67684 11.325 1.73878C11.6786 1.62366 12.0509 1.5639 12.431 1.5639C14.402 1.5639 15.9998 3.16172 15.9998 5.13281C15.9998 6.54921 15.167 7.80728 13.9146 8.37955V13.9916C13.9146 15.1008 13.0154 16 11.9062 16H4.09348C2.9843 16 2.0851 15.1008 2.0851 13.9916L2.08519 8.37953Z" fill="#CD3C5D"/>
<path d="M2.34595 13.6538V12.772H13.6538V13.6538H2.34595Z" fill="#CD3C5D"/>
<path d="M4.95239 9.04205C4.95239 8.79862 5.14977 8.60107 5.39337 8.60107C5.63679 8.60107 5.83417 8.79862 5.83417 9.04205V10.6059C5.83417 10.8495 5.63679 11.0469 5.39337 11.0469C5.14977 11.0469 4.95239 10.8495 4.95239 10.6059V9.04205Z" fill="#CD3C5D"/>
<path d="M7.55884 9.56353C7.55884 9.32011 7.75621 9.12256 7.99981 9.12256C8.24341 9.12256 8.44079 9.32011 8.44079 9.56353V11.1274C8.44079 11.371 8.24341 11.5684 7.99981 11.5684C7.75621 11.5684 7.55884 11.371 7.55884 11.1274V9.56353Z" fill="#CD3C5D"/>
<path d="M10.1655 9.04205C10.1655 8.79862 10.3629 8.60107 10.6063 8.60107C10.8499 8.60107 11.0473 8.79862 11.0473 9.04205V10.6059C11.0473 10.8495 10.8499 11.0469 10.6063 11.0469C10.3629 11.0469 10.1655 10.8495 10.1655 10.6059V9.04205Z" fill="#CD3C5D"/>
</svg>
