<svg width="15" height="15" viewBox="0 0 15 15" fill="none" xmlns="http://www.w3.org/2000/svg">
<path d="M7.5 0C5.51085 0 3.60321 0.790197 2.19671 2.19671C0.790197 3.60321 0 5.51085 0 7.5C0 9.48915 0.790197 11.3968 2.19671 12.8033C3.60321 14.2098 5.51085 15 7.5 15C9.48915 15 11.3968 14.2098 12.8033 12.8033C14.2098 11.3968 15 9.48915 15 7.5C14.9977 5.51159 14.2069 3.60514 12.8008 2.19918C11.3947 0.793216 9.48832 0.00225041 7.5 0ZM7.5 14.0626C5.75944 14.0626 4.09035 13.3712 2.85948 12.1404C1.62867 10.9097 0.937325 9.24061 0.937325 7.49984C0.937325 5.75906 1.62867 4.09019 2.85948 2.85932C4.09018 1.62851 5.75922 0.937163 7.5 0.937163C9.24078 0.937163 10.9097 1.62851 12.1405 2.85932C13.3713 4.09002 14.0627 5.75906 14.0627 7.49984C14.0607 9.23974 13.3688 10.9078 12.1384 12.1382C10.9081 13.3685 9.23995 14.0607 7.5 14.0626Z" fill="#CD3C5D"/>
<line x1="4.5" y1="7.5" x2="11.5" y2="7.5" stroke="#CD3C5D" stroke-linecap="round"/>
</svg>
