<svg width="36" height="22" viewBox="0 0 36 22" fill="none" xmlns="http://www.w3.org/2000/svg">
<path d="M33.6178 17.5636C34.2724 17.5636 34.9088 17.5636 35.5633 17.5636C35.5633 18.2545 35.5633 18.9454 35.5633 19.6545C34.7633 19.6727 33.9451 19.6727 33.1451 19.6909C33.036 19.6727 32.9088 19.6727 32.7997 19.6727C27.7815 19.6727 22.7633 19.6727 17.7451 19.6727C17.7451 18.9818 17.7451 18.2727 17.7451 17.5818C20.9451 17.5818 24.1269 17.5818 27.3269 17.5818C29.436 17.5636 31.5269 17.5636 33.6178 17.5636Z" fill="#BF1C32"/>
<path d="M33.6178 17.5637C31.5269 17.5637 29.436 17.5637 27.3451 17.5637C24.1451 17.5637 20.9633 17.5637 17.7633 17.5637C17.7633 13.0909 17.7633 8.60002 17.7633 4.12729C17.7633 3.98183 17.7451 3.8182 17.7451 3.67274L17.7633 3.65456C17.9088 3.63638 18.036 3.63638 18.1815 3.6182C18.6906 3.54547 19.0178 3.16365 19.3451 2.81819C21.1633 2.80001 22.8724 3.27274 24.5451 3.94547C25.9088 4.49092 27.1451 5.27274 28.2542 6.20001C29.8178 7.50911 31.0906 9.07274 32.0178 10.9091C32.7633 12.3637 33.236 13.8909 33.4724 15.4909C33.5633 16.1818 33.5633 16.8727 33.6178 17.5637Z" fill="#FF9398"/>
<path d="M17.7465 3.67272C17.7465 3.81817 17.7647 3.98181 17.7647 4.12726C17.7647 8.59999 17.7647 13.0909 17.7647 17.5636C12.4738 17.5636 7.18288 17.5636 1.91016 17.5636C2.05561 16.1454 2.29197 14.7454 2.78288 13.3818C3.40107 11.6364 4.29197 10.0727 5.43743 8.63636C6.61925 7.16363 8.01925 5.98181 9.61925 4.99999C11.2192 4.01817 12.9647 3.38181 14.8011 3.01817C15.2556 2.92726 15.7102 2.83636 16.1647 2.72726C16.5283 3.30908 17.0374 3.67272 17.7465 3.67272Z" fill="#FECCCE"/>
<path d="M1.90909 17.5636C7.2 17.5636 12.4909 17.5636 17.7636 17.5636C17.7636 18.2545 17.7636 18.9636 17.7636 19.6545C12.7273 19.6545 7.70909 19.6545 2.67273 19.6545C2.58182 19.6545 2.49091 19.6545 2.4 19.6727C1.6 19.6727 0.818182 19.6727 0 19.6727C0 18.9636 0 18.2909 0 17.5636C0.618182 17.5636 1.25455 17.5636 1.90909 17.5636Z" fill="#FF3B5B"/>
<path d="M2.38184 19.6728C2.47275 19.6728 2.56365 19.6546 2.65456 19.6546C7.69093 19.6546 12.7091 19.6546 17.7455 19.6546C17.7455 20.4364 17.7637 21.2182 17.7637 22C15.9273 22 14.0909 22 12.2546 22C9.43638 22 6.63638 22 3.8182 22C3.50911 22 3.32729 21.9091 3.20002 21.6182C2.94547 20.9818 2.65456 20.3273 2.38184 19.6728Z" fill="#FECCCE"/>
<path d="M17.7828 22C17.7828 21.2182 17.7646 20.4364 17.7646 19.6546C22.7828 19.6546 27.801 19.6546 32.8192 19.6546C32.9283 19.6546 33.0556 19.6728 33.1647 19.6728C32.8556 20.3637 32.5465 21.0728 32.2556 21.7637C32.1828 21.9637 32.0374 22 31.8556 22C27.1465 22 22.4556 22 17.7828 22Z" fill="#FF9398"/>
<path d="M17.7432 3.70909C16.725 3.70909 15.8887 2.87273 15.8887 1.85455C15.8887 0.836364 16.725 0 17.7432 0" fill="#FF3B5B"/>
<path d="M17.7422 3.70909C18.7604 3.70909 19.5967 2.87273 19.5967 1.85455C19.5967 0.836364 18.7604 0 17.7422 0" fill="#BF1C32"/>
</svg>
