<svg width="12" height="14" viewBox="0 0 12 14" fill="none" xmlns="http://www.w3.org/2000/svg">
<path d="M4.7934 5.7559C5.09086 5.7559 5.33513 5.99733 5.36136 6.30543L5.36369 6.36046V10.1977C5.36369 10.5316 5.10836 10.8023 4.7934 10.8023C4.49593 10.8023 4.25166 10.5608 4.22544 10.2528L4.22311 10.1977V6.36046C4.22311 6.02657 4.47844 5.7559 4.7934 5.7559Z" fill="#CD3C5D"/>
<path d="M7.77456 6.30543C7.74834 5.99733 7.50407 5.7559 7.2066 5.7559C6.89164 5.7559 6.63631 6.02657 6.63631 6.36046V10.1977L6.63864 10.2528C6.66487 10.5608 6.90914 10.8023 7.2066 10.8023C7.52156 10.8023 7.77689 10.5316 7.77689 10.1977V6.36046L7.77456 6.30543Z" fill="#CD3C5D"/>
<path fill-rule="evenodd" clip-rule="evenodd" d="M7.2066 0C8.16213 0 8.9415 0.799533 8.98185 1.80193L8.98349 1.88364V2.55818H11.4297C11.7447 2.55818 12 2.82885 12 3.16273C12 3.47807 11.7723 3.73701 11.4816 3.76481L11.4297 3.76728H10.7934V12.1164C10.7934 13.1293 10.0392 13.9555 9.09358 13.9983L9.01651 14H2.98349C2.02797 14 1.2486 13.2005 1.20824 12.1981L1.2066 12.1164V3.76728H0.570291C0.255328 3.76728 0 3.49662 0 3.16273C0 2.8474 0.227746 2.58845 0.518383 2.56065L0.570291 2.55818H3.01651V1.88364C3.01651 0.870711 3.77073 0.0445225 4.71632 0.0017403L4.7934 0H7.2066ZM2.34718 3.76728V12.1164C2.34718 12.4703 2.60429 12.7605 2.93131 12.7887L2.98349 12.7909H9.01651C9.35036 12.7909 9.62416 12.5183 9.65071 12.1717L9.65282 12.1164V3.76728H2.34718ZM7.84291 2.55818H4.15709V1.88364L4.1592 1.82832C4.18574 1.48166 4.45954 1.2091 4.7934 1.2091H7.2066L7.25879 1.21134C7.5858 1.23948 7.84291 1.52973 7.84291 1.88364V2.55818Z" fill="#CD3C5D"/>
</svg>
