<svg width="16" height="17" viewBox="0 0 16 17" fill="none" xmlns="http://www.w3.org/2000/svg">
<path d="M2.67308 8.65366L2.96712 8.75753V14.9784C2.96712 15.6005 3.47154 16.1048 4.09354 16.1048H11.9062C12.5282 16.1048 13.0327 15.6005 13.0327 14.9784V8.75753L13.3267 8.65366C14.3914 8.27736 15.1179 7.26744 15.1179 6.11961C15.1179 4.63571 13.915 3.43262 12.4311 3.43262C12.0356 3.43262 11.653 3.51787 11.3027 3.68009L10.8972 3.86815L10.7148 3.46004C10.2854 2.49988 9.3307 1.86875 8.26053 1.86875C7.1104 1.86875 6.09908 2.59796 5.72437 3.66571L5.53578 4.20298L5.06281 3.88591C4.62412 3.59187 4.10899 3.43265 3.5687 3.43265C2.08481 3.43265 0.881904 4.63569 0.881904 6.11963C0.881904 7.26751 1.60833 8.2774 2.67306 8.65368L2.67308 8.65366ZM2.08519 9.36636C0.832744 8.79408 0 7.53601 0 6.11961C0 4.14848 1.59782 2.5507 3.56872 2.5507C4.10689 2.5507 4.62765 2.67039 5.10044 2.89536C5.70664 1.74204 6.9118 0.986816 8.26053 0.986816C9.53723 0.986816 10.6905 1.66366 11.325 2.7256C11.6786 2.61048 12.0509 2.55072 12.431 2.55072C14.402 2.55072 15.9998 4.14854 15.9998 6.11963C15.9998 7.53603 15.167 8.79411 13.9146 9.36638V14.9785C13.9146 16.0876 13.0154 16.9868 11.9062 16.9868H4.09348C2.9843 16.9868 2.0851 16.0877 2.0851 14.9785L2.08519 9.36636Z" fill="#D2D2D2"/>
<path d="M2.3457 14.6405V13.7587H13.6535V14.6405H2.3457Z" fill="#D2D2D2"/>
<path d="M4.95215 10.0289C4.95215 9.78544 5.14952 9.58789 5.39312 9.58789C5.63655 9.58789 5.83392 9.78544 5.83392 10.0289V11.5928C5.83392 11.8364 5.63655 12.0337 5.39312 12.0337C5.14952 12.0337 4.95215 11.8364 4.95215 11.5928V10.0289Z" fill="#D2D2D2"/>
<path d="M7.55859 10.5503C7.55859 10.3069 7.75597 10.1094 7.99957 10.1094C8.24317 10.1094 8.44054 10.3069 8.44054 10.5503V12.1142C8.44054 12.3578 8.24317 12.5552 7.99957 12.5552C7.75597 12.5552 7.55859 12.3578 7.55859 12.1142V10.5503Z" fill="#D2D2D2"/>
<path d="M10.166 10.0289C10.166 9.78544 10.3634 9.58789 10.6068 9.58789C10.8504 9.58789 11.0478 9.78544 11.0478 10.0289V11.5928C11.0478 11.8364 10.8504 12.0337 10.6068 12.0337C10.3634 12.0337 10.166 11.8364 10.166 11.5928V10.0289Z" fill="#D2D2D2"/>
</svg>
