<svg width="100" height="93" viewBox="0 0 100 93" fill="none" xmlns="http://www.w3.org/2000/svg">
<circle cx="53.9999" cy="46.3589" r="46" fill="#FFCBDB"/>
<circle cx="53.9999" cy="46.3589" r="46" fill="#FFCBDB"/>
<path fill-rule="evenodd" clip-rule="evenodd" d="M53.2517 1.23652C54.9085 1.58726 58.9137 3.55139 61.6798 8.60202C65.1055 14.8569 65.3493 15.1213 67.2449 16.9676C67.8463 19.3399 70.2877 24.8053 82.353 29.4098C95.1464 34.2921 98.7057 45.7542 99.354 50.875C99.6553 50.0481 99.849 49.2009 99.9553 48.3484C99.7484 52.8721 98.8391 57.5708 97.5531 59.9501C95.3921 63.9485 91.2861 70.0514 83.9385 72.3662C76.591 74.6811 73.9978 75.102 69.8918 75.3124C65.7858 75.5229 36.6117 74.6811 30.7769 72.3662C24.9421 70.0514 17.5945 66.8947 15.8657 60.371C14.1369 53.8473 14.7852 45.2191 19.7556 39.5371C21.6014 37.4271 23.3876 36.0136 25.0699 34.6822C27.9178 32.4286 30.4679 30.4104 32.5057 25.6479C35.099 19.5871 36.7558 13.5825 37.26 11.3378C38.1965 7.26922 42.7058 -0.447025 53.2517 1.23652ZM99.9752 45.0683C99.4996 40.3532 97.0962 36.0773 96.3286 34.8813C95.3041 33.2852 90.2776 26.2531 81.2725 25.4114C75.7976 24.8996 69.8054 20.6186 67.5944 17.3137C67.8516 17.5736 68.1171 17.8519 68.3936 18.1418C70.1512 19.9846 72.3566 22.2967 75.7266 23.333C78.4087 24.1578 79.8993 24.4327 81.3889 24.7074C82.1797 24.8533 82.9702 24.999 83.9385 25.227C86.7309 25.8844 91.1427 28.1471 93.231 30.2777C94.8557 31.9351 97.996 35.611 99.2989 40.1424C99.6893 41.5001 99.9059 43.2098 99.9752 45.0683Z" fill="#191847"/>
<path d="M49.0712 31.6402V28.7197L57.1217 28.2461V31.0874C57.2795 31.4031 57.8104 36.6696 57.9998 36.859C57.4101 32.45 58.7791 38.1908 58.5423 38.4276C58.3056 38.6644 55.701 39.6115 54.9906 39.8483C54.4224 40.0377 51.439 39.1379 50.0183 38.6644L47.8873 36.2966C48.2819 34.797 49.0712 31.7663 49.0712 31.6402Z" fill="#EBAA9C"/>
<path d="M41.9524 19.0117C47.0669 15.7915 48.5822 11.4348 48.5822 9.77734C51.4236 13.7552 57.2642 17.0386 59.9476 18.0646C61.6051 16.4072 62.8679 17.1175 63.0258 17.8278C63.9729 22.374 60.5791 23.5105 58.7638 23.5105C57.9745 26.194 55.1647 31.2769 50.2397 30.1404C44.0834 28.7197 44.0834 23.2738 43.8467 23.5105C43.6572 23.7 42.9785 23.5895 42.6628 23.5105C39.3479 23.037 39.1111 19.4853 39.8214 18.775C40.3897 18.2067 41.4789 18.696 41.9524 19.0117Z" fill="#EBAA9C"/>
<path d="M17.3522 74.6704C12.9985 68.1669 11.7469 62.2776 8.19474 53.3539C7.25318 50.9885 13.9565 50.304 13.9565 50.304C17.441 56.313 22 61.3588 25 66.8588C25 66.8588 32.8277 68.2094 33 70.8588C33.0839 72.1484 32.1431 76.4985 29.5 78.3588C28.0514 79.3783 25.7528 79.8588 25.2195 79.8588C19.8058 79.8588 18.2535 76.0167 17.3522 74.6704Z" fill="#EDEDED"/>
<path d="M79.7724 63.2358C83.5359 70.0977 83.7483 71.1567 86.4999 80.3588C87.2293 82.798 80.4999 85.3588 80.4999 85.3588C77.5587 79.066 73.9693 76.0858 71.4658 70.3428C71.4658 70.3428 63.7876 68.3074 63.8495 65.6531C63.8797 64.3611 65.2003 60.1109 67.9971 58.4908C69.5299 57.603 71.8619 57.327 72.3932 57.374C77.7858 57.8512 78.9934 61.8153 79.7724 63.2358Z" fill="#EDEDED"/>
<path d="M56 34.8589C54.843 36.5743 48.9504 37.1483 47.0992 35.3839L44.5 35.8589L43.2479 37.3193C42.5537 44.5894 41.119 61.0899 40.9339 68.9317C40.7488 76.7735 38.2342 80.6944 37 81.6746C47.1818 91.4769 59.9091 86.4124 65 82.6549L58.5 35.3839L56 34.8589Z" fill="#DDE3E9"/>
<path d="M25.8113 52.9994C29.8365 39.9765 35.9928 36.4136 43.3329 35.7145C45.8859 35.4714 44.5737 35.7145 45.4998 35.7145C45.4998 35.7145 47.2873 36.9616 49.2873 37.9616C49.4306 38.1049 51.9972 44.4817 52 45.859C52.0167 54.0922 51.797 76.0638 51.9998 92.359C49.4997 92.359 39.7421 90.4795 38.3606 89.4112C36.9998 88.359 35.4998 88.859 32.9998 87.359C36.0306 83.1917 37.7292 73.226 38.3606 67.859C38.3606 67.859 35.0324 71.859 33.5 71.859C31.9675 71.859 21 65.359 22.9999 61.859C24.9999 58.359 24.9274 55.859 25.8113 52.9994Z" fill="#EA6C90"/>
<path d="M80.1894 52.9992C76.1642 39.9764 70.0079 36.4134 62.6677 35.7144C60.1148 35.4712 60.6395 35.4614 59.7134 35.4614C59.7134 35.4614 58.7134 36.9614 56.7134 37.9614C56.5701 38.1048 54.0035 44.4816 54.0007 45.8589C53.984 54.092 53.9999 92.3589 53.9999 92.3589C53.9999 92.3589 63.2939 92.249 67.6401 91.1207C72.5007 89.8589 72.5007 89.8589 73.9999 88.8589C70.9691 84.6916 69.1313 73.2259 68.4999 67.8589C68.4999 67.8589 70.9682 71.8589 72.5007 71.8589C74.0332 71.8589 85.0007 65.3589 83.0007 61.8589C81.0008 58.3589 81.0733 55.8589 80.1894 52.9992Z" fill="#EA6C90"/>
<path d="M39.3081 54.6045C39.3081 57.4459 38.361 67.3906 38.1242 68.5745L37.1771 74.7308L38.1242 74.0204C43.0965 65.7332 39.3081 51.7632 39.3081 54.6045Z" fill="#C04367"/>
<path d="M67.3809 54.375C67.3809 57.2164 68.328 67.1611 68.5648 68.345L69.5119 74.5013L68.5648 73.7909C63.5924 65.5037 67.3809 51.5337 67.3809 54.375Z" fill="#C04367"/>
<path d="M14.7919 43.6127L13.9999 50.3589L10.7919 51.6127C10.1252 52.1127 8.7999 52.7589 7.99988 52.3589C7.19985 51.9589 5.45852 50.1127 4.79187 49.1127C4.62517 48.7794 3.93101 47.7942 2.29187 47.6127C-0.00012207 47.3589 1.45354 46.1051 2.99988 46.3589L4.79187 46.6127C4.29184 46.1127 2.99182 44.9127 1.79201 44.1127C0.29224 43.1127 1.29201 42.6127 1.79201 42.6127C2.19201 42.6127 4.62534 43.946 5.79201 44.6127C5.29193 43.7794 4.09177 41.7127 3.29177 40.1127C2.49177 38.5127 3.6251 39.1127 4.29177 39.6127L7.79184 43.6127C7.62517 43.1127 7.19184 41.6127 6.79184 39.6127C6.39184 37.6127 7.29184 38.446 7.79184 39.1127C8.12517 39.6127 8.99184 41.0127 9.79184 42.6127C10.5534 44.1359 11.6775 45.7798 12.2151 46.5094C12.1647 46.231 12.3414 45.3307 13.2919 43.1127C14.4919 40.3127 14.7919 42.2794 14.7919 43.6127Z" fill="#EBAA9C"/>
</svg>
