<svg width="15" height="15" viewBox="0 0 15 15" fill="none" xmlns="http://www.w3.org/2000/svg">
<path d="M7.5 0C5.51085 0 3.60321 0.790197 2.19671 2.19671C0.790197 3.60321 0 5.51085 0 7.5C0 9.48915 0.790197 11.3968 2.19671 12.8033C3.60321 14.2098 5.51085 15 7.5 15C9.48915 15 11.3968 14.2098 12.8033 12.8033C14.2098 11.3968 15 9.48915 15 7.5C14.9977 5.51159 14.2069 3.60514 12.8008 2.19918C11.3947 0.793216 9.48832 0.00225041 7.5 0ZM7.5 14.0626C5.75944 14.0626 4.09035 13.3712 2.85948 12.1404C1.62867 10.9097 0.937325 9.24061 0.937325 7.49984C0.937325 5.75906 1.62867 4.09019 2.85948 2.85932C4.09018 1.62851 5.75922 0.937163 7.5 0.937163C9.24078 0.937163 10.9097 1.62851 12.1405 2.85932C13.3713 4.09002 14.0627 5.75906 14.0627 7.49984C14.0607 9.23974 13.3688 10.9078 12.1384 12.1382C10.9081 13.3685 9.23995 14.0607 7.5 14.0626ZM11.7656 7.49992C11.7656 7.62427 11.7163 7.74348 11.6284 7.83139C11.5405 7.91929 11.4213 7.96861 11.2969 7.96861H7.9688V11.2968C7.9688 11.4642 7.8795 11.6189 7.73445 11.7027C7.5894 11.7865 7.4108 11.7865 7.26576 11.7027C7.12071 11.6189 7.03141 11.4642 7.03141 11.2968V7.96861H3.70327C3.53582 7.96861 3.38113 7.87931 3.29729 7.73426C3.21356 7.58921 3.21356 7.41061 3.29729 7.26557C3.38112 7.12052 3.53582 7.03122 3.70327 7.03122H7.03141L7.03152 3.70308C7.03152 3.53563 7.12082 3.38094 7.26587 3.2971C7.41092 3.21337 7.58952 3.21337 7.73456 3.2971C7.87961 3.38093 7.96891 3.53563 7.96891 3.70308V7.03122H11.297C11.4214 7.03122 11.5407 7.08064 11.6286 7.16855C11.7165 7.25645 11.7656 7.37557 11.7656 7.49992Z" fill="#CD3C5D"/>
</svg>
