<svg width="18" height="19" viewBox="0 0 18 19" fill="none" xmlns="http://www.w3.org/2000/svg">
<path d="M16.8185 0.845229C16.3543 0.344543 15.6016 0.344575 15.1374 0.845229L8.83333 7.64453L2.52925 0.845249C2.06505 0.344562 1.3124 0.344562 0.848168 0.845249C0.383933 1.34597 0.383954 2.15773 0.848171 2.65841L7.15225 9.45768L0.848189 16.2569C0.383978 16.7576 0.383954 17.5694 0.848189 18.0701C1.31242 18.5708 2.06506 18.5707 2.52928 18.0701L8.83333 11.2708L15.1374 18.0701C15.6016 18.5708 16.3543 18.5708 16.8185 18.0701C17.2827 17.5694 17.2827 16.7576 16.8185 16.257L10.5144 9.45768L16.8185 2.65837C17.2827 2.15769 17.2828 1.34595 16.8185 0.845229Z" fill="#443E41"/>
</svg>
