<svg width="14" height="14" viewBox="0 0 14 14" fill="none" xmlns="http://www.w3.org/2000/svg">
<path fill-rule="evenodd" clip-rule="evenodd" d="M6.29765 0.799805C3.26141 0.799805 0.800049 3.26774 0.800049 6.31209C0.800049 9.35644 3.26141 11.8244 6.29765 11.8244C7.62542 11.8244 8.84326 11.3524 9.79338 10.5667L12.3422 13.0909L12.3802 13.1252C12.5895 13.2962 12.898 13.2828 13.0916 13.0863C13.2973 12.8775 13.2952 12.5411 13.087 12.3349L10.5426 9.81509C11.3252 8.86273 11.7952 7.64244 11.7952 6.31209C11.7952 3.26774 9.33389 0.799805 6.29765 0.799805ZM6.29765 1.86241C8.74859 1.86241 10.7355 3.8546 10.7355 6.31209C10.7355 8.76957 8.74859 10.7618 6.29765 10.7618C3.84671 10.7618 1.85983 8.76957 1.85983 6.31209C1.85983 3.8546 3.84671 1.86241 6.29765 1.86241Z" fill="#BDC1C6"/>
</svg>
