<svg width="30" height="23" viewBox="0 0 30 23" fill="none" xmlns="http://www.w3.org/2000/svg">
<path d="M16.3714 22.6134C16.7877 22.6134 17.1524 22.3348 17.2619 21.9333L18.1046 18.8435C18.3294 18.0191 18.1611 17.1371 17.6484 16.4535L17.4786 16.2271C17.2461 15.9172 17.2293 15.4962 17.4421 15.1724C18.3534 13.7852 20.6601 9.65188 20.7647 3.22201C20.7693 2.94065 20.5934 2.68599 20.3277 2.5934C19.5593 2.3257 17.764 1.8457 14.7689 1.8457C11.7738 1.8457 9.97852 2.32565 9.21011 2.5934C8.94438 2.68599 8.76842 2.94065 8.77304 3.22201C8.87763 9.65182 11.1844 13.7852 12.0957 15.1724C12.3085 15.4963 12.2917 15.9172 12.0592 16.2271L11.8894 16.4535C11.3767 17.1371 11.2083 18.0191 11.4332 18.8435L12.2759 21.9333C12.3854 22.3348 12.7501 22.6134 13.1664 22.6134H16.3714Z" fill="#FFB3B7"/>
<path d="M29.3896 1.87264C29.0362 0.834924 28.1222 0.123519 27.004 0.0160385C26.8931 0.00542307 26.7796 5.76607e-05 26.6615 5.76607e-05C25.4992 5.76607e-05 23.9497 0.775904 22.1555 1.67435C19.8345 2.83644 17.2042 4.15356 14.7692 4.15356C12.3341 4.15356 9.70389 2.83644 7.38281 1.67435C5.5887 0.775847 4.0392 0 2.87687 0C2.75877 0 2.64523 0.0054231 2.53435 0.0159808C1.41621 0.123519 0.502193 0.834924 0.148885 1.87264C-0.202634 2.90492 0.0785583 4.01383 0.883943 4.76718L2.60917 6.3757C2.69796 6.4586 2.8111 6.49962 2.92377 6.49962C3.04723 6.49962 3.17029 6.45029 3.26133 6.35291C3.43527 6.16633 3.42494 5.87429 3.23837 5.70052L1.51406 4.09269C0.977751 3.59106 0.789789 2.85444 1.02281 2.17004C1.26119 1.46994 1.85923 1.00823 2.62267 0.934962C2.70471 0.927058 2.78941 0.92302 2.87687 0.92302C3.82106 0.92302 5.35072 1.68871 6.96956 2.49952C8.17493 3.1031 9.4606 3.74539 10.7763 4.23785C11.5064 4.51114 12.0002 5.19491 12.0002 5.9745V7.7576C12.0002 8.53385 12.3205 9.23435 12.8355 9.73651C13.1882 10.0804 13.3847 10.5528 13.3847 11.0453V12.8438C13.3847 13.3165 13.6097 13.7548 13.9632 14.0248C14.1849 14.1942 14.3077 14.4624 14.3077 14.7413V17.5461C14.3077 17.8366 14.1693 18.1082 13.937 18.2826C13.602 18.5339 13.3847 18.9319 13.3847 19.3832V22.6138H16.1538V19.3832C16.1538 18.9319 15.9365 18.5339 15.6015 18.2826C15.3692 18.1082 15.2308 17.8366 15.2308 17.5461V14.7623C15.2308 14.4721 15.3686 14.2006 15.6007 14.0265C15.9363 13.7745 16.1538 13.3744 16.1538 12.9221V11.0453C16.1538 10.5527 16.3503 10.0803 16.703 9.73645C17.218 9.23429 17.5383 8.53379 17.5383 7.75754V5.97445C17.5383 5.19485 18.0321 4.51108 18.7622 4.23779C20.0779 3.74539 21.3636 3.10304 22.5689 2.49946C24.1878 1.68865 25.7174 0.922962 26.6616 0.922962C26.7491 0.922962 26.8338 0.927001 26.9158 0.934905C27.6793 1.00812 28.2774 1.46989 28.5157 2.17004C28.7488 2.85439 28.5608 3.59106 28.0263 4.09108L26.4164 5.58422C26.2294 5.75775 26.2186 6.04956 26.3916 6.2366C26.5652 6.42318 26.8567 6.43402 27.0438 6.26118L28.6554 4.76648C29.4599 4.01383 29.7411 2.90492 29.3896 1.87264Z" fill="#E6646E"/>
<path d="M5.7019 5.54263C4.57812 4.80923 3.18068 4.96006 2.58063 5.87951C1.98058 6.79897 2.40515 8.13887 3.52893 8.87226C4.65272 9.60566 6.05016 9.45483 6.65021 8.53538C7.25025 7.61593 6.82569 6.27603 5.7019 5.54263Z" fill="#FFB3B7"/>
<path d="M4.42895 6.20221C4.95984 5.91871 5.52349 5.79588 6.05126 5.81215C5.94309 5.71586 5.82863 5.62349 5.70234 5.54105C4.57838 4.80755 3.18066 4.95842 2.58055 5.87803C2.12628 6.57415 2.26105 7.51015 2.83999 8.24267C2.98543 7.44813 3.55515 6.66882 4.42895 6.20221Z" fill="#FF8087"/>
<path d="M26.0088 8.86938C27.1326 8.13598 27.5571 6.79608 26.9571 5.87663C26.357 4.95717 24.9596 4.80635 23.8358 5.53974C22.712 6.27314 22.2875 7.61304 22.8875 8.53249C23.4876 9.45195 24.885 9.60277 26.0088 8.86938Z" fill="#FFB3B7"/>
<path d="M25.1084 6.20221C24.5775 5.91871 24.0139 5.79588 23.4861 5.81215C23.5943 5.71586 23.7087 5.62349 23.835 5.54105C24.959 4.80755 26.3567 4.95842 26.9568 5.87803C27.4111 6.57415 27.2763 7.51015 26.6974 8.24267C26.5519 7.44813 25.9822 6.66882 25.1084 6.20221Z" fill="#FF8087"/>
<path d="M15.5999 14.026C15.9356 13.774 16.153 13.3739 16.153 12.9216V11.5371C16.153 12.3018 15.5332 12.9216 14.7685 12.9216C14.0039 12.9216 13.384 12.3018 13.384 11.5371V12.8433C13.384 13.316 13.609 13.7542 13.9625 14.0243C14.1842 14.1937 14.3071 14.4618 14.3071 14.7408V17.5455C14.3071 17.8361 14.1686 18.1076 13.9363 18.282C13.6014 18.5333 13.384 18.9314 13.384 19.3827V20.7672C13.384 20.0025 14.0039 19.3827 14.7685 19.3827C15.5332 19.3827 16.153 20.0025 16.153 20.7672V19.3827C16.153 18.9313 15.9358 18.5333 15.6008 18.282C15.3684 18.1077 15.23 17.8361 15.23 17.5455V14.7618C15.23 14.4716 15.3679 14.2001 15.5999 14.026Z" fill="#DC4655"/>
<path d="M14.7695 4.15403C13.6785 4.15403 12.5483 3.88859 11.4243 3.49219C13.236 4.55903 13.7612 5.53859 14.7695 5.53859C15.7778 5.53859 16.303 4.55903 18.1147 3.49219C16.9906 3.88859 15.8605 4.15403 14.7695 4.15403Z" fill="#DC4655"/>
</svg>
