<svg width="97" height="86" viewBox="0 0 97 86" fill="none" xmlns="http://www.w3.org/2000/svg">
<path d="M47.7428 43.2976C47.7428 43.2976 47.7185 43.2976 47.6941 43.2976C47.6698 43.2976 47.6698 43.2976 47.6455 43.2976H47.6212C47.5968 43.2976 47.5968 43.2976 47.5968 43.2976H47.5725C47.5482 43.2976 47.5482 43.2976 47.5239 43.3219C47.5239 43.3219 47.4995 43.3219 47.4995 43.3463C47.4995 43.3463 47.4752 43.3463 47.4752 43.3706C47.4752 43.3706 47.4509 43.3706 47.4509 43.3949C47.4509 43.3949 47.4266 43.3949 47.4266 43.4192L47.4022 43.4436L47.3779 43.4679L47.3536 43.4922L47.3293 43.5165L47.3049 43.5409L47.2806 43.5652L47.2563 43.5895L47.232 43.6138L47.2076 43.6381L47.1833 43.6625C47.1833 43.6625 47.1833 43.6868 47.159 43.6868C47.159 43.6868 47.159 43.7111 47.1347 43.7111C47.1347 43.7111 47.1347 43.7354 47.1104 43.7354V43.7598V43.7841V43.8084V43.8327V43.8571C47.1104 43.8571 47.1104 43.8814 47.1104 43.9057V43.93C47.1104 43.93 47.1104 43.93 47.1104 43.9544V43.9787V44.003C47.1104 44.003 47.1104 44.0273 47.1104 44.0517V44.076V44.1003C47.1104 44.1246 47.1103 44.1246 47.1347 44.149C47.1347 44.149 47.1347 44.1733 47.159 44.1733C47.159 44.1733 47.159 44.1976 47.1833 44.1976C47.1833 44.1976 47.1833 44.2219 47.2076 44.2219C47.2076 44.2219 47.2076 44.2463 47.232 44.2463L47.2563 44.2706L47.2806 44.2949L47.3049 44.3192L47.3293 44.3436L47.3536 44.3679L47.3779 44.3922L47.4022 44.4165L47.4266 44.4409L47.4509 44.4652L47.4752 44.4895C47.4752 44.4895 47.4995 44.4895 47.4995 44.5138C47.4995 44.5138 47.5239 44.5138 47.5239 44.5381C47.5239 44.5381 47.5482 44.5381 47.5482 44.5625C47.5482 44.5625 47.5725 44.5625 47.5725 44.5868H47.5968H47.6212H47.6455H47.6698H47.6941C47.6941 44.5868 47.7185 44.5868 47.7428 44.5868C47.7428 44.5868 47.7428 44.5868 47.7671 44.5868C47.7914 44.5868 47.7914 44.5868 47.8158 44.5868C47.8401 44.5868 47.8401 44.5868 47.8644 44.5868H47.8887H47.9131H47.9374C47.9617 44.5868 47.9617 44.5868 47.986 44.5625C47.986 44.5625 48.0104 44.5625 48.0104 44.5381C48.0104 44.5381 48.0347 44.5381 48.0347 44.5138C48.0347 44.5138 48.059 44.5138 48.059 44.4895C48.059 44.4895 48.0833 44.4895 48.0833 44.4652L48.1076 44.4409L48.132 44.4165L48.1563 44.3922L48.1806 44.3679L48.2049 44.3436L48.2293 44.3192L48.2536 44.2949L48.2779 44.2706L48.3022 44.2463L48.3266 44.2219C48.3266 44.2219 48.3266 44.1976 48.3509 44.1976C48.3509 44.1976 48.3509 44.1733 48.3752 44.1733C48.3752 44.1733 48.3752 44.149 48.3995 44.149C48.3995 44.149 48.3995 44.1246 48.4239 44.1246V44.1003V44.076V44.0517V44.0273C48.4239 44.0273 48.4239 44.003 48.4239 43.9787V43.9544C48.4239 43.9544 48.4239 43.9544 48.4239 43.93V43.9057C48.4239 43.8814 48.4239 43.8814 48.4239 43.8571V43.8327V43.8084V43.7841C48.4239 43.7598 48.4239 43.7598 48.3995 43.7354C48.3995 43.7354 48.3995 43.7111 48.3752 43.7111C48.3752 43.7111 48.3752 43.6868 48.3509 43.6868C48.3509 43.6868 48.3509 43.6625 48.3266 43.6625C48.3266 43.6625 48.3266 43.6381 48.3022 43.6381L48.2779 43.6138L48.2536 43.5895L48.2293 43.5652L48.2049 43.5409L48.1806 43.5165L48.1563 43.4922L48.132 43.4679L48.1076 43.4436L48.0833 43.4192L48.059 43.3949C48.059 43.3949 48.0347 43.3949 48.0347 43.3706C48.0347 43.3706 48.0104 43.3706 48.0104 43.3463C48.0104 43.3463 47.986 43.3463 47.986 43.3219C47.986 43.3219 47.9617 43.3219 47.9617 43.2976H47.9374H47.9131H47.8887H47.8644H47.8401C47.7914 43.2976 47.7914 43.2976 47.7428 43.2976C47.7671 43.2976 47.7671 43.2976 47.7428 43.2976Z" fill="white"/>
<path d="M47.7428 43.2976C47.7428 43.2976 47.7185 43.2976 47.6941 43.2976C47.6698 43.2976 47.6698 43.2976 47.6455 43.2976H47.6212C47.5968 43.2976 47.5968 43.2976 47.5968 43.2976H47.5725C47.5482 43.2976 47.5482 43.2976 47.5239 43.322C47.5239 43.322 47.4995 43.322 47.4995 43.3463C47.4995 43.3463 47.4752 43.3463 47.4752 43.3706C47.4752 43.3706 47.4509 43.3706 47.4509 43.3949C47.4509 43.3949 47.4266 43.3949 47.4266 43.4193L47.4022 43.4436L47.3779 43.4679L47.3536 43.4922L47.3293 43.5166L47.3049 43.5409L47.2806 43.5652L47.2563 43.5895L47.232 43.6139L47.2076 43.6382L47.1833 43.6625C47.1833 43.6625 47.1833 43.6868 47.159 43.6868C47.159 43.6868 47.159 43.7112 47.1347 43.7112C47.1347 43.7112 47.1347 43.7355 47.1104 43.7355V43.7598V43.7841V43.8084V43.8328V43.8571C47.1104 43.8571 47.1104 43.8814 47.1104 43.9057V43.9301C47.1104 43.9301 47.1104 43.9301 47.1104 43.9544V43.9787V44.003C47.1104 44.0274 47.1104 44.0274 47.1104 44.0517V44.076V44.1003C47.1104 44.1247 47.1103 44.1247 47.1347 44.149C47.1347 44.149 47.1347 44.1733 47.159 44.1733C47.159 44.1733 47.159 44.1976 47.1833 44.1976C47.1833 44.1976 47.1833 44.222 47.2076 44.222C47.2076 44.222 47.2076 44.2463 47.232 44.2463L47.2563 44.2706L47.2806 44.2949L47.3049 44.3193L47.3293 44.3436L47.3536 44.3679L47.3779 44.3922L47.4022 44.4166L47.4266 44.4409L47.4509 44.4652L47.4752 44.4895C47.4752 44.4895 47.4995 44.4895 47.4995 44.5139C47.4995 44.5139 47.5239 44.5139 47.5239 44.5382C47.5239 44.5382 47.5482 44.5382 47.5482 44.5625C47.5482 44.5625 47.5725 44.5625 47.5725 44.5868H47.5968H47.6212H47.6455H47.6698H47.6941C47.6941 44.5868 47.7185 44.5868 47.7428 44.5868C47.7428 44.5868 47.7428 44.5868 47.7671 44.5868C47.7914 44.5868 47.7914 44.5868 47.8158 44.5868C47.8401 44.5868 47.8401 44.5868 47.8644 44.5868H47.8887H47.9131H47.9374C47.9617 44.5868 47.9617 44.5868 47.986 44.5625C47.986 44.5625 48.0104 44.5625 48.0104 44.5382C48.0104 44.5382 48.0347 44.5382 48.0347 44.5139C48.0347 44.5139 48.059 44.5139 48.059 44.4895C48.059 44.4895 48.0833 44.4895 48.0833 44.4652L48.1076 44.4409L48.132 44.4166L48.1563 44.3922L48.1806 44.3679L48.2049 44.3436L48.2293 44.3193L48.2536 44.2949L48.2779 44.2706L48.3022 44.2463L48.3266 44.222C48.3266 44.222 48.3266 44.1976 48.3509 44.1976C48.3509 44.1976 48.3509 44.1733 48.3752 44.1733C48.3752 44.1733 48.3752 44.149 48.3995 44.149C48.3995 44.149 48.3995 44.1247 48.4239 44.1247V44.1003V44.076V44.0517V44.0274C48.4239 44.0274 48.4239 44.003 48.4239 43.9787V43.9544C48.4239 43.9544 48.4239 43.9544 48.4239 43.9301C48.4239 43.9057 48.4239 43.9057 48.4239 43.8814C48.4239 43.8571 48.4239 43.8571 48.4239 43.8328C48.4239 43.8085 48.4239 43.8084 48.4239 43.8084V43.7841V43.7598C48.4239 43.7355 48.4239 43.7355 48.3995 43.7112C48.3995 43.7112 48.3995 43.6868 48.3752 43.6868C48.3752 43.6868 48.3752 43.6625 48.3509 43.6625C48.3509 43.6625 48.3509 43.6382 48.3266 43.6382C48.3266 43.6382 48.3266 43.6139 48.3022 43.6139L48.2779 43.5895L48.2536 43.5652L48.2293 43.5409L48.2049 43.5166L48.1806 43.4922L48.1563 43.4679L48.132 43.4436L48.1076 43.4193L48.0833 43.3949L48.059 43.3706C48.059 43.3706 48.0347 43.3706 48.0347 43.3463C48.0347 43.3463 48.0104 43.3463 48.0104 43.322C48.0104 43.322 47.986 43.322 47.986 43.2976C47.986 43.2976 47.9617 43.2976 47.9617 43.2733H47.9374H47.9131H47.8887H47.8644H47.8401C47.7914 43.2976 47.7914 43.2976 47.7428 43.2976C47.7671 43.2976 47.7671 43.2976 47.7428 43.2976Z" fill="white"/>
<path d="M47.7428 43.2976C47.7428 43.2976 47.7185 43.2976 47.6941 43.2976C47.6698 43.2976 47.6698 43.2976 47.6455 43.2976H47.6212C47.5968 43.2976 47.5968 43.2976 47.5968 43.2976H47.5725C47.5482 43.2976 47.5482 43.2976 47.5239 43.322C47.5239 43.322 47.4995 43.322 47.4995 43.3463C47.4995 43.3463 47.4752 43.3463 47.4752 43.3706C47.4752 43.3706 47.4509 43.3706 47.4509 43.3949C47.4509 43.3949 47.4266 43.3949 47.4266 43.4193L47.4022 43.4436L47.3779 43.4679L47.3536 43.4922L47.3293 43.5166L47.3049 43.5409L47.2806 43.5652L47.2563 43.5895L47.232 43.6139L47.2076 43.6382L47.1833 43.6625C47.1833 43.6625 47.1833 43.6868 47.159 43.6868C47.159 43.6868 47.159 43.7112 47.1347 43.7112C47.1347 43.7112 47.1347 43.7355 47.1104 43.7355V43.7598V43.7841V43.8084V43.8328V43.8571C47.1104 43.8571 47.1104 43.8814 47.1104 43.9057V43.9301C47.1104 43.9301 47.1104 43.9301 47.1104 43.9544V43.9787V44.003C47.1104 44.0274 47.1104 44.0274 47.1104 44.0517V44.076V44.1003C47.1104 44.1247 47.1103 44.1247 47.1347 44.149C47.1347 44.149 47.1347 44.1733 47.159 44.1733C47.159 44.1733 47.159 44.1976 47.1833 44.1976C47.1833 44.1976 47.1833 44.222 47.2076 44.222C47.2076 44.222 47.2076 44.2463 47.232 44.2463L47.2563 44.2706L47.2806 44.2949L47.3049 44.3193L47.3293 44.3436L47.3536 44.3679L47.3779 44.3922L47.4022 44.4166L47.4266 44.4409L47.4509 44.4652L47.4752 44.4895C47.4752 44.4895 47.4995 44.4895 47.4995 44.5139C47.4995 44.5139 47.5239 44.5139 47.5239 44.5382C47.5239 44.5382 47.5482 44.5382 47.5482 44.5625C47.5482 44.5625 47.5725 44.5625 47.5725 44.5868H47.5968H47.6212H47.6455H47.6698H47.6941C47.6941 44.5868 47.7185 44.5868 47.7428 44.5868C47.7428 44.5868 47.7428 44.5868 47.7671 44.5868C47.7914 44.5868 47.7914 44.5868 47.8158 44.5868C47.8401 44.5868 47.8401 44.5868 47.8644 44.5868H47.8887H47.9131H47.9374C47.9617 44.5868 47.9617 44.5868 47.986 44.5625C47.986 44.5625 48.0104 44.5625 48.0104 44.5382C48.0104 44.5382 48.0347 44.5382 48.0347 44.5139C48.0347 44.5139 48.059 44.5139 48.059 44.4895C48.059 44.4895 48.0833 44.4895 48.0833 44.4652L48.1076 44.4409L48.132 44.4166L48.1563 44.3922L48.1806 44.3679L48.2049 44.3436L48.2293 44.3193L48.2536 44.2949L48.2779 44.2706L48.3022 44.2463L48.3266 44.222C48.3266 44.222 48.3266 44.1976 48.3509 44.1976C48.3509 44.1976 48.3509 44.1733 48.3752 44.1733C48.3752 44.1733 48.3752 44.149 48.3995 44.149C48.3995 44.149 48.3995 44.1247 48.4239 44.1247V44.1003V44.076V44.0517V44.0274C48.4239 44.0274 48.4239 44.003 48.4239 43.9787V43.9544C48.4239 43.9544 48.4239 43.9544 48.4239 43.9301C48.4239 43.9057 48.4239 43.9057 48.4239 43.8814C48.4239 43.8571 48.4239 43.8571 48.4239 43.8328C48.4239 43.8085 48.4239 43.8084 48.4239 43.8084V43.7841V43.7598C48.4239 43.7355 48.4239 43.7355 48.3995 43.7112C48.3995 43.7112 48.3995 43.6868 48.3752 43.6868C48.3752 43.6868 48.3752 43.6625 48.3509 43.6625C48.3509 43.6625 48.3509 43.6382 48.3266 43.6382C48.3266 43.6382 48.3266 43.6139 48.3022 43.6139L48.2779 43.5895L48.2536 43.5652L48.2293 43.5409L48.2049 43.5166L48.1806 43.4922L48.1563 43.4679L48.132 43.4436L48.1076 43.4193L48.0833 43.3949L48.059 43.3706C48.059 43.3706 48.0347 43.3706 48.0347 43.3463C48.0347 43.3463 48.0104 43.3463 48.0104 43.322C48.0104 43.322 47.986 43.322 47.986 43.2976C47.986 43.2976 47.9617 43.2976 47.9617 43.2733H47.9374H47.9131H47.8887H47.8644H47.8401C47.7914 43.2976 47.7914 43.2976 47.7428 43.2976C47.7671 43.2976 47.7671 43.2976 47.7428 43.2976Z" fill="white"/>
<path d="M47.7428 43.2976C47.7428 43.2976 47.7185 43.2976 47.6941 43.2976C47.6698 43.2976 47.6698 43.2976 47.6455 43.2976H47.6212C47.5968 43.2976 47.5968 43.2976 47.5968 43.2976H47.5725C47.5482 43.2976 47.5482 43.2976 47.5239 43.322C47.5239 43.322 47.4995 43.322 47.4995 43.3463C47.4995 43.3463 47.4752 43.3463 47.4752 43.3706C47.4752 43.3706 47.4509 43.3706 47.4509 43.3949C47.4509 43.3949 47.4266 43.3949 47.4266 43.4193L47.4022 43.4436L47.3779 43.4679L47.3536 43.4922L47.3293 43.5166L47.3049 43.5409L47.2806 43.5652L47.2563 43.5895L47.232 43.6139L47.2076 43.6382L47.1833 43.6625C47.1833 43.6625 47.1833 43.6868 47.159 43.6868C47.159 43.6868 47.159 43.7112 47.1347 43.7112C47.1347 43.7112 47.1347 43.7355 47.1104 43.7355V43.7598V43.7841V43.8084V43.8328V43.8571C47.1104 43.8571 47.1104 43.8814 47.1104 43.9057V43.9301C47.1104 43.9301 47.1104 43.9301 47.1104 43.9544V43.9787V44.003C47.1104 44.0274 47.1104 44.0274 47.1104 44.0517V44.076V44.1003C47.1104 44.1247 47.1103 44.1247 47.1347 44.149C47.1347 44.149 47.1347 44.1733 47.159 44.1733C47.159 44.1733 47.159 44.1976 47.1833 44.1976C47.1833 44.1976 47.1833 44.222 47.2076 44.222C47.2076 44.222 47.2076 44.2463 47.232 44.2463L47.2563 44.2706L47.2806 44.2949L47.3049 44.3193L47.3293 44.3436L47.3536 44.3679L47.3779 44.3922L47.4022 44.4166L47.4266 44.4409L47.4509 44.4652L47.4752 44.4895C47.4752 44.4895 47.4995 44.4895 47.4995 44.5139C47.4995 44.5139 47.5239 44.5139 47.5239 44.5382C47.5239 44.5382 47.5482 44.5382 47.5482 44.5625C47.5482 44.5625 47.5725 44.5625 47.5725 44.5868H47.5968H47.6212H47.6455H47.6698H47.6941C47.6941 44.5868 47.7185 44.5868 47.7428 44.5868C47.7428 44.5868 47.7428 44.5868 47.7671 44.5868C47.7914 44.5868 47.7914 44.5868 47.8158 44.5868C47.8401 44.5868 47.8401 44.5868 47.8644 44.5868H47.8887H47.9131H47.9374C47.9617 44.5868 47.9617 44.5868 47.986 44.5625C47.986 44.5625 48.0104 44.5625 48.0104 44.5382C48.0104 44.5382 48.0347 44.5382 48.0347 44.5139C48.0347 44.5139 48.059 44.5139 48.059 44.4895C48.059 44.4895 48.0833 44.4895 48.0833 44.4652L48.1076 44.4409L48.132 44.4166L48.1563 44.3922L48.1806 44.3679L48.2049 44.3436L48.2293 44.3193L48.2536 44.2949L48.2779 44.2706L48.3022 44.2463L48.3266 44.222C48.3266 44.222 48.3266 44.1976 48.3509 44.1976C48.3509 44.1976 48.3509 44.1733 48.3752 44.1733C48.3752 44.1733 48.3752 44.149 48.3995 44.149C48.3995 44.149 48.3995 44.1247 48.4239 44.1247V44.1003V44.076V44.0517V44.0274C48.4239 44.0274 48.4239 44.003 48.4239 43.9787V43.9544C48.4239 43.9544 48.4239 43.9544 48.4239 43.9301C48.4239 43.9057 48.4239 43.9057 48.4239 43.8814C48.4239 43.8571 48.4239 43.8571 48.4239 43.8328C48.4239 43.8085 48.4239 43.8084 48.4239 43.8084V43.7841V43.7598C48.4239 43.7355 48.4239 43.7355 48.3995 43.7112C48.3995 43.7112 48.3995 43.6868 48.3752 43.6868C48.3752 43.6868 48.3752 43.6625 48.3509 43.6625C48.3509 43.6625 48.3509 43.6382 48.3266 43.6382C48.3266 43.6382 48.3266 43.6139 48.3022 43.6139L48.2779 43.5895L48.2536 43.5652L48.2293 43.5409L48.2049 43.5166L48.1806 43.4922L48.1563 43.4679L48.132 43.4436L48.1076 43.4193L48.0833 43.3949L48.059 43.3706C48.059 43.3706 48.0347 43.3706 48.0347 43.3463C48.0347 43.3463 48.0104 43.3463 48.0104 43.322C48.0104 43.322 47.986 43.322 47.986 43.2976C47.986 43.2976 47.9617 43.2976 47.9617 43.2733H47.9374H47.9131H47.8887H47.8644H47.8401C47.7914 43.2976 47.7914 43.2976 47.7428 43.2976C47.7671 43.2976 47.7671 43.2976 47.7428 43.2976Z" fill="white"/>
<path d="M47.7428 43.2976C47.7428 43.2976 47.7185 43.2976 47.6941 43.2976C47.6698 43.2976 47.6698 43.2976 47.6455 43.2976H47.6212C47.5968 43.2976 47.5968 43.2976 47.5968 43.2976H47.5725C47.5482 43.2976 47.5482 43.2976 47.5239 43.322C47.5239 43.322 47.4995 43.322 47.4995 43.3463C47.4995 43.3463 47.4752 43.3463 47.4752 43.3706C47.4752 43.3706 47.4509 43.3706 47.4509 43.3949C47.4509 43.3949 47.4266 43.3949 47.4266 43.4193L47.4022 43.4436L47.3779 43.4679L47.3536 43.4922L47.3293 43.5166L47.3049 43.5409L47.2806 43.5652L47.2563 43.5895L47.232 43.6139L47.2076 43.6382L47.1833 43.6625C47.1833 43.6625 47.1833 43.6868 47.159 43.6868C47.159 43.6868 47.159 43.7112 47.1347 43.7112C47.1347 43.7112 47.1347 43.7355 47.1104 43.7355V43.7598V43.7841V43.8084V43.8328V43.8571C47.1104 43.8571 47.1104 43.8814 47.1104 43.9057V43.9301C47.1104 43.9301 47.1104 43.9301 47.1104 43.9544V43.9787V44.003C47.1104 44.0274 47.1104 44.0274 47.1104 44.0517V44.076V44.1003C47.1104 44.1247 47.1103 44.1247 47.1347 44.149C47.1347 44.149 47.1347 44.1733 47.159 44.1733C47.159 44.1733 47.159 44.1976 47.1833 44.1976C47.1833 44.1976 47.1833 44.222 47.2076 44.222C47.2076 44.222 47.2076 44.2463 47.232 44.2463L47.2563 44.2706L47.2806 44.2949L47.3049 44.3193L47.3293 44.3436L47.3536 44.3679L47.3779 44.3922L47.4022 44.4166L47.4266 44.4409L47.4509 44.4652L47.4752 44.4895C47.4752 44.4895 47.4995 44.4895 47.4995 44.5139C47.4995 44.5139 47.5239 44.5139 47.5239 44.5382C47.5239 44.5382 47.5482 44.5382 47.5482 44.5625C47.5482 44.5625 47.5725 44.5625 47.5725 44.5868H47.5968H47.6212H47.6455H47.6698H47.6941C47.6941 44.5868 47.7185 44.5868 47.7428 44.5868C47.7428 44.5868 47.7428 44.5868 47.7671 44.5868C47.7914 44.5868 47.7914 44.5868 47.8158 44.5868C47.8401 44.5868 47.8401 44.5868 47.8644 44.5868H47.8887H47.9131H47.9374C47.9617 44.5868 47.9617 44.5868 47.986 44.5625C47.986 44.5625 48.0104 44.5625 48.0104 44.5382C48.0104 44.5382 48.0347 44.5382 48.0347 44.5139C48.0347 44.5139 48.059 44.5139 48.059 44.4895C48.059 44.4895 48.0833 44.4895 48.0833 44.4652L48.1076 44.4409L48.132 44.4166L48.1563 44.3922L48.1806 44.3679L48.2049 44.3436L48.2293 44.3193L48.2536 44.2949L48.2779 44.2706L48.3022 44.2463L48.3266 44.222C48.3266 44.222 48.3266 44.1976 48.3509 44.1976C48.3509 44.1976 48.3509 44.1733 48.3752 44.1733C48.3752 44.1733 48.3752 44.149 48.3995 44.149C48.3995 44.149 48.3995 44.1247 48.4239 44.1247V44.1003V44.076V44.0517V44.0274C48.4239 44.0274 48.4239 44.003 48.4239 43.9787V43.9544C48.4239 43.9544 48.4239 43.9544 48.4239 43.9301C48.4239 43.9057 48.4239 43.9057 48.4239 43.8814C48.4239 43.8571 48.4239 43.8571 48.4239 43.8328C48.4239 43.8085 48.4239 43.8084 48.4239 43.8084V43.7841V43.7598C48.4239 43.7355 48.4239 43.7355 48.3995 43.7112C48.3995 43.7112 48.3995 43.6868 48.3752 43.6868C48.3752 43.6868 48.3752 43.6625 48.3509 43.6625C48.3509 43.6625 48.3509 43.6382 48.3266 43.6382C48.3266 43.6382 48.3266 43.6139 48.3022 43.6139L48.2779 43.5895L48.2536 43.5652L48.2293 43.5409L48.2049 43.5166L48.1806 43.4922L48.1563 43.4679L48.132 43.4436L48.1076 43.4193L48.0833 43.3949L48.059 43.3706C48.059 43.3706 48.0347 43.3706 48.0347 43.3463C48.0347 43.3463 48.0104 43.3463 48.0104 43.322C48.0104 43.322 47.986 43.322 47.986 43.2976C47.986 43.2976 47.9617 43.2976 47.9617 43.2733H47.9374H47.9131H47.8887H47.8644H47.8401C47.7914 43.2976 47.7914 43.2976 47.7428 43.2976C47.7671 43.2976 47.7671 43.2976 47.7428 43.2976Z" fill="white"/>
<path d="M47.7428 43.2976C47.7428 43.2976 47.7185 43.2976 47.6941 43.2976C47.6698 43.2976 47.6698 43.2976 47.6455 43.2976H47.6212C47.5968 43.2976 47.5968 43.2976 47.5968 43.2976H47.5725C47.5482 43.2976 47.5482 43.2976 47.5239 43.322C47.5239 43.322 47.4995 43.322 47.4995 43.3463C47.4995 43.3463 47.4752 43.3463 47.4752 43.3706C47.4752 43.3706 47.4509 43.3706 47.4509 43.3949C47.4509 43.3949 47.4266 43.3949 47.4266 43.4193L47.4022 43.4436L47.3779 43.4679L47.3536 43.4922L47.3293 43.5166L47.3049 43.5409L47.2806 43.5652L47.2563 43.5895L47.232 43.6139L47.2076 43.6382L47.1833 43.6625C47.1833 43.6625 47.1833 43.6868 47.159 43.6868C47.159 43.6868 47.159 43.7112 47.1347 43.7112C47.1347 43.7112 47.1347 43.7355 47.1104 43.7355V43.7598V43.7841V43.8084V43.8328V43.8571C47.1104 43.8571 47.1104 43.8814 47.1104 43.9057V43.9301C47.1104 43.9301 47.1104 43.9301 47.1104 43.9544V43.9787V44.003C47.1104 44.0274 47.1104 44.0274 47.1104 44.0517V44.076V44.1003C47.1104 44.1247 47.1103 44.1247 47.1347 44.149C47.1347 44.149 47.1347 44.1733 47.159 44.1733C47.159 44.1733 47.159 44.1976 47.1833 44.1976C47.1833 44.1976 47.1833 44.222 47.2076 44.222C47.2076 44.222 47.2076 44.2463 47.232 44.2463L47.2563 44.2706L47.2806 44.2949L47.3049 44.3193L47.3293 44.3436L47.3536 44.3679L47.3779 44.3922L47.4022 44.4166L47.4266 44.4409L47.4509 44.4652L47.4752 44.4895C47.4752 44.4895 47.4995 44.4895 47.4995 44.5139C47.4995 44.5139 47.5239 44.5139 47.5239 44.5382C47.5239 44.5382 47.5482 44.5382 47.5482 44.5625C47.5482 44.5625 47.5725 44.5625 47.5725 44.5868H47.5968H47.6212H47.6455H47.6698H47.6941C47.6941 44.5868 47.7185 44.5868 47.7428 44.5868C47.7428 44.5868 47.7428 44.5868 47.7671 44.5868C47.7914 44.5868 47.7914 44.5868 47.8158 44.5868C47.8401 44.5868 47.8401 44.5868 47.8644 44.5868H47.8887H47.9131H47.9374C47.9617 44.5868 47.9617 44.5868 47.986 44.5625C47.986 44.5625 48.0104 44.5625 48.0104 44.5382C48.0104 44.5382 48.0347 44.5382 48.0347 44.5139C48.0347 44.5139 48.059 44.5139 48.059 44.4895C48.059 44.4895 48.0833 44.4895 48.0833 44.4652L48.1076 44.4409L48.132 44.4166L48.1563 44.3922L48.1806 44.3679L48.2049 44.3436L48.2293 44.3193L48.2536 44.2949L48.2779 44.2706L48.3022 44.2463L48.3266 44.222C48.3266 44.222 48.3266 44.1976 48.3509 44.1976C48.3509 44.1976 48.3509 44.1733 48.3752 44.1733C48.3752 44.1733 48.3752 44.149 48.3995 44.149C48.3995 44.149 48.3995 44.1247 48.4239 44.1247V44.1003V44.076V44.0517V44.0274C48.4239 44.0274 48.4239 44.003 48.4239 43.9787V43.9544C48.4239 43.9544 48.4239 43.9544 48.4239 43.9301C48.4239 43.9057 48.4239 43.9057 48.4239 43.8814C48.4239 43.8571 48.4239 43.8571 48.4239 43.8328C48.4239 43.8085 48.4239 43.8084 48.4239 43.8084V43.7841V43.7598C48.4239 43.7355 48.4239 43.7355 48.3995 43.7112C48.3995 43.7112 48.3995 43.6868 48.3752 43.6868C48.3752 43.6868 48.3752 43.6625 48.3509 43.6625C48.3509 43.6625 48.3509 43.6382 48.3266 43.6382C48.3266 43.6382 48.3266 43.6139 48.3022 43.6139L48.2779 43.5895L48.2536 43.5652L48.2293 43.5409L48.2049 43.5166L48.1806 43.4922L48.1563 43.4679L48.132 43.4436L48.1076 43.4193L48.0833 43.3949L48.059 43.3706C48.059 43.3706 48.0347 43.3706 48.0347 43.3463C48.0347 43.3463 48.0104 43.3463 48.0104 43.322C48.0104 43.322 47.986 43.322 47.986 43.2976C47.986 43.2976 47.9617 43.2976 47.9617 43.2733H47.9374H47.9131H47.8887H47.8644H47.8401C47.7914 43.2976 47.7914 43.2976 47.7428 43.2976C47.7671 43.2976 47.7671 43.2976 47.7428 43.2976Z" fill="white"/>
<path d="M47.7428 43.2976C47.7428 43.2976 47.7185 43.2976 47.6941 43.2976C47.6698 43.2976 47.6698 43.2976 47.6455 43.2976H47.6212C47.5968 43.2976 47.5968 43.2976 47.5968 43.2976H47.5725C47.5482 43.2976 47.5482 43.2976 47.5239 43.322C47.5239 43.322 47.4995 43.322 47.4995 43.3463C47.4995 43.3463 47.4752 43.3463 47.4752 43.3706C47.4752 43.3706 47.4509 43.3706 47.4509 43.3949C47.4509 43.3949 47.4266 43.3949 47.4266 43.4193L47.4022 43.4436L47.3779 43.4679L47.3536 43.4922L47.3293 43.5166L47.3049 43.5409L47.2806 43.5652L47.2563 43.5895L47.232 43.6139L47.2076 43.6382L47.1833 43.6625C47.1833 43.6625 47.1833 43.6868 47.159 43.6868C47.159 43.6868 47.159 43.7112 47.1347 43.7112C47.1347 43.7112 47.1347 43.7355 47.1104 43.7355V43.7598V43.7841V43.8084V43.8328V43.8571C47.1104 43.8571 47.1104 43.8814 47.1104 43.9057V43.9301C47.1104 43.9301 47.1104 43.9301 47.1104 43.9544V43.9787V44.003C47.1104 44.0274 47.1104 44.0274 47.1104 44.0517V44.076V44.1003C47.1104 44.1247 47.1103 44.1247 47.1347 44.149C47.1347 44.149 47.1347 44.1733 47.159 44.1733C47.159 44.1733 47.159 44.1976 47.1833 44.1976C47.1833 44.1976 47.1833 44.222 47.2076 44.222C47.2076 44.222 47.2076 44.2463 47.232 44.2463L47.2563 44.2706L47.2806 44.2949L47.3049 44.3193L47.3293 44.3436L47.3536 44.3679L47.3779 44.3922L47.4022 44.4166L47.4266 44.4409L47.4509 44.4652L47.4752 44.4895C47.4752 44.4895 47.4995 44.4895 47.4995 44.5139C47.4995 44.5139 47.5239 44.5139 47.5239 44.5382C47.5239 44.5382 47.5482 44.5382 47.5482 44.5625C47.5482 44.5625 47.5725 44.5625 47.5725 44.5868H47.5968H47.6212H47.6455H47.6698H47.6941C47.6941 44.5868 47.7185 44.5868 47.7428 44.5868C47.7428 44.5868 47.7428 44.5868 47.7671 44.5868C47.7914 44.5868 47.7914 44.5868 47.8158 44.5868C47.8401 44.5868 47.8401 44.5868 47.8644 44.5868H47.8887H47.9131H47.9374C47.9617 44.5868 47.9617 44.5868 47.986 44.5625C47.986 44.5625 48.0104 44.5625 48.0104 44.5382C48.0104 44.5382 48.0347 44.5382 48.0347 44.5139C48.0347 44.5139 48.059 44.5139 48.059 44.4895C48.059 44.4895 48.0833 44.4895 48.0833 44.4652L48.1076 44.4409L48.132 44.4166L48.1563 44.3922L48.1806 44.3679L48.2049 44.3436L48.2293 44.3193L48.2536 44.2949L48.2779 44.2706L48.3022 44.2463L48.3266 44.222C48.3266 44.222 48.3266 44.1976 48.3509 44.1976C48.3509 44.1976 48.3509 44.1733 48.3752 44.1733C48.3752 44.1733 48.3752 44.149 48.3995 44.149C48.3995 44.149 48.3995 44.1247 48.4239 44.1247V44.1003V44.076V44.0517V44.0274C48.4239 44.0274 48.4239 44.003 48.4239 43.9787V43.9544C48.4239 43.9544 48.4239 43.9544 48.4239 43.9301C48.4239 43.9057 48.4239 43.9057 48.4239 43.8814C48.4239 43.8571 48.4239 43.8571 48.4239 43.8328C48.4239 43.8085 48.4239 43.8084 48.4239 43.8084V43.7841V43.7598C48.4239 43.7355 48.4239 43.7355 48.3995 43.7112C48.3995 43.7112 48.3995 43.6868 48.3752 43.6868C48.3752 43.6868 48.3752 43.6625 48.3509 43.6625C48.3509 43.6625 48.3509 43.6382 48.3266 43.6382C48.3266 43.6382 48.3266 43.6139 48.3022 43.6139L48.2779 43.5895L48.2536 43.5652L48.2293 43.5409L48.2049 43.5166L48.1806 43.4922L48.1563 43.4679L48.132 43.4436L48.1076 43.4193L48.0833 43.3949L48.059 43.3706C48.059 43.3706 48.0347 43.3706 48.0347 43.3463C48.0347 43.3463 48.0104 43.3463 48.0104 43.322C48.0104 43.322 47.986 43.322 47.986 43.2976C47.986 43.2976 47.9617 43.2976 47.9617 43.2733H47.9374H47.9131H47.8887H47.8644H47.8401C47.7914 43.2976 47.7914 43.2976 47.7428 43.2976C47.7671 43.2976 47.7671 43.2976 47.7428 43.2976Z" fill="white"/>
<path d="M47.7428 43.2976C47.7428 43.2976 47.7185 43.2976 47.6941 43.2976C47.6698 43.2976 47.6698 43.2976 47.6455 43.2976H47.6212C47.5968 43.2976 47.5968 43.2976 47.5968 43.2976H47.5725C47.5482 43.2976 47.5482 43.2976 47.5239 43.322C47.5239 43.322 47.4995 43.322 47.4995 43.3463C47.4995 43.3463 47.4752 43.3463 47.4752 43.3706C47.4752 43.3706 47.4509 43.3706 47.4509 43.3949C47.4509 43.3949 47.4266 43.3949 47.4266 43.4193L47.4022 43.4436L47.3779 43.4679L47.3536 43.4922L47.3293 43.5166L47.3049 43.5409L47.2806 43.5652L47.2563 43.5895L47.232 43.6139L47.2076 43.6382L47.1833 43.6625C47.1833 43.6625 47.1833 43.6868 47.159 43.6868C47.159 43.6868 47.159 43.7112 47.1347 43.7112C47.1347 43.7112 47.1347 43.7355 47.1104 43.7355V43.7598V43.7841V43.8084V43.8328V43.8571C47.1104 43.8571 47.1104 43.8814 47.1104 43.9057V43.9301C47.1104 43.9301 47.1104 43.9301 47.1104 43.9544V43.9787V44.003C47.1104 44.0274 47.1104 44.0274 47.1104 44.0517V44.076V44.1003C47.1104 44.1247 47.1103 44.1247 47.1347 44.149C47.1347 44.149 47.1347 44.1733 47.159 44.1733C47.159 44.1733 47.159 44.1976 47.1833 44.1976C47.1833 44.1976 47.1833 44.222 47.2076 44.222C47.2076 44.222 47.2076 44.2463 47.232 44.2463L47.2563 44.2706L47.2806 44.2949L47.3049 44.3193L47.3293 44.3436L47.3536 44.3679L47.3779 44.3922L47.4022 44.4166L47.4266 44.4409L47.4509 44.4652L47.4752 44.4895C47.4752 44.4895 47.4995 44.4895 47.4995 44.5139C47.4995 44.5139 47.5239 44.5139 47.5239 44.5382C47.5239 44.5382 47.5482 44.5382 47.5482 44.5625C47.5482 44.5625 47.5725 44.5625 47.5725 44.5868H47.5968H47.6212H47.6455H47.6698H47.6941C47.6941 44.5868 47.7185 44.5868 47.7428 44.5868C47.7428 44.5868 47.7428 44.5868 47.7671 44.5868C47.7914 44.5868 47.7914 44.5868 47.8158 44.5868C47.8401 44.5868 47.8401 44.5868 47.8644 44.5868H47.8887H47.9131H47.9374C47.9617 44.5868 47.9617 44.5868 47.986 44.5625C47.986 44.5625 48.0104 44.5625 48.0104 44.5382C48.0104 44.5382 48.0347 44.5382 48.0347 44.5139C48.0347 44.5139 48.059 44.5139 48.059 44.4895C48.059 44.4895 48.0833 44.4895 48.0833 44.4652L48.1076 44.4409L48.132 44.4166L48.1563 44.3922L48.1806 44.3679L48.2049 44.3436L48.2293 44.3193L48.2536 44.2949L48.2779 44.2706L48.3022 44.2463L48.3266 44.222C48.3266 44.222 48.3266 44.1976 48.3509 44.1976C48.3509 44.1976 48.3509 44.1733 48.3752 44.1733C48.3752 44.1733 48.3752 44.149 48.3995 44.149C48.3995 44.149 48.3995 44.1247 48.4239 44.1247V44.1003V44.076V44.0517V44.0274C48.4239 44.0274 48.4239 44.003 48.4239 43.9787V43.9544C48.4239 43.9544 48.4239 43.9544 48.4239 43.9301C48.4239 43.9057 48.4239 43.9057 48.4239 43.8814C48.4239 43.8571 48.4239 43.8571 48.4239 43.8328C48.4239 43.8085 48.4239 43.8084 48.4239 43.8084V43.7841V43.7598C48.4239 43.7355 48.4239 43.7355 48.3995 43.7112C48.3995 43.7112 48.3995 43.6868 48.3752 43.6868C48.3752 43.6868 48.3752 43.6625 48.3509 43.6625C48.3509 43.6625 48.3509 43.6382 48.3266 43.6382C48.3266 43.6382 48.3266 43.6139 48.3022 43.6139L48.2779 43.5895L48.2536 43.5652L48.2293 43.5409L48.2049 43.5166L48.1806 43.4922L48.1563 43.4679L48.132 43.4436L48.1076 43.4193L48.0833 43.3949L48.059 43.3706C48.059 43.3706 48.0347 43.3706 48.0347 43.3463C48.0347 43.3463 48.0104 43.3463 48.0104 43.322C48.0104 43.322 47.986 43.322 47.986 43.2976C47.986 43.2976 47.9617 43.2976 47.9617 43.2733H47.9374H47.9131H47.8887H47.8644H47.8401C47.7914 43.2976 47.7914 43.2976 47.7428 43.2976C47.7671 43.2976 47.7671 43.2976 47.7428 43.2976Z" fill="white"/>
<path d="M47.7428 43.2976C47.7428 43.2976 47.7185 43.2976 47.6941 43.2976C47.6698 43.2976 47.6698 43.2976 47.6455 43.2976H47.6212C47.5968 43.2976 47.5968 43.2976 47.5968 43.2976H47.5725C47.5482 43.2976 47.5482 43.2976 47.5239 43.322C47.5239 43.322 47.4995 43.322 47.4995 43.3463C47.4995 43.3463 47.4752 43.3463 47.4752 43.3706C47.4752 43.3706 47.4509 43.3706 47.4509 43.3949C47.4509 43.3949 47.4266 43.3949 47.4266 43.4193L47.4022 43.4436L47.3779 43.4679L47.3536 43.4922L47.3293 43.5166L47.3049 43.5409L47.2806 43.5652L47.2563 43.5895L47.232 43.6139L47.2076 43.6382L47.1833 43.6625C47.1833 43.6625 47.1833 43.6868 47.159 43.6868C47.159 43.6868 47.159 43.7112 47.1347 43.7112C47.1347 43.7112 47.1347 43.7355 47.1104 43.7355V43.7598V43.7841V43.8084V43.8328V43.8571C47.1104 43.8571 47.1104 43.8814 47.1104 43.9057V43.9301C47.1104 43.9301 47.1104 43.9301 47.1104 43.9544V43.9787V44.003C47.1104 44.0274 47.1104 44.0274 47.1104 44.0517V44.076V44.1003C47.1104 44.1247 47.1103 44.1247 47.1347 44.149C47.1347 44.149 47.1347 44.1733 47.159 44.1733C47.159 44.1733 47.159 44.1976 47.1833 44.1976C47.1833 44.1976 47.1833 44.222 47.2076 44.222C47.2076 44.222 47.2076 44.2463 47.232 44.2463L47.2563 44.2706L47.2806 44.2949L47.3049 44.3193L47.3293 44.3436L47.3536 44.3679L47.3779 44.3922L47.4022 44.4166L47.4266 44.4409L47.4509 44.4652L47.4752 44.4895C47.4752 44.4895 47.4995 44.4895 47.4995 44.5139C47.4995 44.5139 47.5239 44.5139 47.5239 44.5382C47.5239 44.5382 47.5482 44.5382 47.5482 44.5625C47.5482 44.5625 47.5725 44.5625 47.5725 44.5868H47.5968H47.6212H47.6455H47.6698H47.6941C47.6941 44.5868 47.7185 44.5868 47.7428 44.5868C47.7428 44.5868 47.7428 44.5868 47.7671 44.5868C47.7914 44.5868 47.7914 44.5868 47.8158 44.5868C47.8401 44.5868 47.8401 44.5868 47.8644 44.5868H47.8887H47.9131H47.9374C47.9617 44.5868 47.9617 44.5868 47.986 44.5625C47.986 44.5625 48.0104 44.5625 48.0104 44.5382C48.0104 44.5382 48.0347 44.5382 48.0347 44.5139C48.0347 44.5139 48.059 44.5139 48.059 44.4895C48.059 44.4895 48.0833 44.4895 48.0833 44.4652L48.1076 44.4409L48.132 44.4166L48.1563 44.3922L48.1806 44.3679L48.2049 44.3436L48.2293 44.3193L48.2536 44.2949L48.2779 44.2706L48.3022 44.2463L48.3266 44.222C48.3266 44.222 48.3266 44.1976 48.3509 44.1976C48.3509 44.1976 48.3509 44.1733 48.3752 44.1733C48.3752 44.1733 48.3752 44.149 48.3995 44.149C48.3995 44.149 48.3995 44.1247 48.4239 44.1247V44.1003V44.076V44.0517V44.0274C48.4239 44.0274 48.4239 44.003 48.4239 43.9787V43.9544C48.4239 43.9544 48.4239 43.9544 48.4239 43.9301C48.4239 43.9057 48.4239 43.9057 48.4239 43.8814C48.4239 43.8571 48.4239 43.8571 48.4239 43.8328C48.4239 43.8085 48.4239 43.8084 48.4239 43.8084V43.7841V43.7598C48.4239 43.7355 48.4239 43.7355 48.3995 43.7112C48.3995 43.7112 48.3995 43.6868 48.3752 43.6868C48.3752 43.6868 48.3752 43.6625 48.3509 43.6625C48.3509 43.6625 48.3509 43.6382 48.3266 43.6382C48.3266 43.6382 48.3266 43.6139 48.3022 43.6139L48.2779 43.5895L48.2536 43.5652L48.2293 43.5409L48.2049 43.5166L48.1806 43.4922L48.1563 43.4679L48.132 43.4436L48.1076 43.4193L48.0833 43.3949L48.059 43.3706C48.059 43.3706 48.0347 43.3706 48.0347 43.3463C48.0347 43.3463 48.0104 43.3463 48.0104 43.322C48.0104 43.322 47.986 43.322 47.986 43.2976C47.986 43.2976 47.9617 43.2976 47.9617 43.2733H47.9374H47.9131H47.8887H47.8644H47.8401C47.7914 43.2976 47.7914 43.2976 47.7428 43.2976C47.7671 43.2976 47.7671 43.2976 47.7428 43.2976Z" fill="white"/>
<path d="M47.7428 43.2976C47.7428 43.2976 47.7185 43.2976 47.6941 43.2976C47.6698 43.2976 47.6698 43.2976 47.6455 43.2976H47.6212C47.5968 43.2976 47.5968 43.2976 47.5968 43.2976H47.5725C47.5482 43.2976 47.5482 43.2976 47.5239 43.322C47.5239 43.322 47.4995 43.322 47.4995 43.3463C47.4995 43.3463 47.4752 43.3463 47.4752 43.3706C47.4752 43.3706 47.4509 43.3706 47.4509 43.3949C47.4509 43.3949 47.4266 43.3949 47.4266 43.4193L47.4022 43.4436L47.3779 43.4679L47.3536 43.4922L47.3293 43.5166L47.3049 43.5409L47.2806 43.5652L47.2563 43.5895L47.232 43.6139L47.2076 43.6382L47.1833 43.6625C47.1833 43.6625 47.1833 43.6868 47.159 43.6868C47.159 43.6868 47.159 43.7112 47.1347 43.7112C47.1347 43.7112 47.1347 43.7355 47.1104 43.7355V43.7598V43.7841V43.8084V43.8328V43.8571C47.1104 43.8571 47.1104 43.8814 47.1104 43.9057V43.9301C47.1104 43.9301 47.1104 43.9301 47.1104 43.9544V43.9787V44.003C47.1104 44.0274 47.1104 44.0274 47.1104 44.0517V44.076V44.1003C47.1104 44.1247 47.1103 44.1247 47.1347 44.149C47.1347 44.149 47.1347 44.1733 47.159 44.1733C47.159 44.1733 47.159 44.1976 47.1833 44.1976C47.1833 44.1976 47.1833 44.222 47.2076 44.222C47.2076 44.222 47.2076 44.2463 47.232 44.2463L47.2563 44.2706L47.2806 44.2949L47.3049 44.3193L47.3293 44.3436L47.3536 44.3679L47.3779 44.3922L47.4022 44.4166L47.4266 44.4409L47.4509 44.4652L47.4752 44.4895C47.4752 44.4895 47.4995 44.4895 47.4995 44.5139C47.4995 44.5139 47.5239 44.5139 47.5239 44.5382C47.5239 44.5382 47.5482 44.5382 47.5482 44.5625C47.5482 44.5625 47.5725 44.5625 47.5725 44.5868H47.5968H47.6212H47.6455H47.6698H47.6941C47.6941 44.5868 47.7185 44.5868 47.7428 44.5868C47.7428 44.5868 47.7428 44.5868 47.7671 44.5868C47.7914 44.5868 47.7914 44.5868 47.8158 44.5868C47.8401 44.5868 47.8401 44.5868 47.8644 44.5868H47.8887H47.9131H47.9374C47.9617 44.5868 47.9617 44.5868 47.986 44.5625C47.986 44.5625 48.0104 44.5625 48.0104 44.5382C48.0104 44.5382 48.0347 44.5382 48.0347 44.5139C48.0347 44.5139 48.059 44.5139 48.059 44.4895C48.059 44.4895 48.0833 44.4895 48.0833 44.4652L48.1076 44.4409L48.132 44.4166L48.1563 44.3922L48.1806 44.3679L48.2049 44.3436L48.2293 44.3193L48.2536 44.2949L48.2779 44.2706L48.3022 44.2463L48.3266 44.222C48.3266 44.222 48.3266 44.1976 48.3509 44.1976C48.3509 44.1976 48.3509 44.1733 48.3752 44.1733C48.3752 44.1733 48.3752 44.149 48.3995 44.149C48.3995 44.149 48.3995 44.1247 48.4239 44.1247V44.1003V44.076V44.0517V44.0274C48.4239 44.0274 48.4239 44.003 48.4239 43.9787V43.9544C48.4239 43.9544 48.4239 43.9544 48.4239 43.9301C48.4239 43.9057 48.4239 43.9057 48.4239 43.8814C48.4239 43.8571 48.4239 43.8571 48.4239 43.8328C48.4239 43.8085 48.4239 43.8084 48.4239 43.8084V43.7841V43.7598C48.4239 43.7355 48.4239 43.7355 48.3995 43.7112C48.3995 43.7112 48.3995 43.6868 48.3752 43.6868C48.3752 43.6868 48.3752 43.6625 48.3509 43.6625C48.3509 43.6625 48.3509 43.6382 48.3266 43.6382C48.3266 43.6382 48.3266 43.6139 48.3022 43.6139L48.2779 43.5895L48.2536 43.5652L48.2293 43.5409L48.2049 43.5166L48.1806 43.4922L48.1563 43.4679L48.132 43.4436L48.1076 43.4193L48.0833 43.3949L48.059 43.3706C48.059 43.3706 48.0347 43.3706 48.0347 43.3463C48.0347 43.3463 48.0104 43.3463 48.0104 43.322C48.0104 43.322 47.986 43.322 47.986 43.2976C47.986 43.2976 47.9617 43.2976 47.9617 43.2733H47.9374H47.9131H47.8887H47.8644H47.8401C47.7914 43.2976 47.7914 43.2976 47.7428 43.2976C47.7671 43.2976 47.7671 43.2976 47.7428 43.2976Z" fill="white"/>
<path opacity="0.5" d="M62.9945 2.14085C48.0107 8.44085 40.908 10.0949 24.6837 7.54085C13.7621 5.83815 3.59451 10.849 6.92694 27.5111C9.35937 39.6733 8.36208 46.3138 3.61883 57.0408C-4.09198 74.53 -0.151439 89.1976 21.9594 85.33C41.881 81.8517 49.7864 81.4625 70.1215 84.7219C92.0134 88.2246 99.0188 74.4327 90.3837 54.0246C85.5918 42.7381 84.181 35.2219 86.7107 21.4787C90.2621 2.06788 76.6891 -3.62402 62.9945 2.14085Z" fill="#DF4E7E"/>
<path d="M42.2219 69.9814C41.1029 74.1409 38.1354 79.6625 36.4327 79.2004C34.73 78.7382 34.9246 72.4625 36.0435 68.3031C37.1624 64.1436 39.2057 63.8031 40.4705 64.1436C41.7354 64.5085 43.3408 65.822 42.2219 69.9814Z" fill="#F7B0B1"/>
<path d="M34.6809 70.4192C34.4133 72.0003 34.2674 73.6786 34.2917 75.1624C34.316 76.2814 34.4133 77.303 34.6322 78.1543C34.8755 79.0057 35.2647 79.8327 36.189 80.0759C37.1133 80.3192 37.8917 79.8084 38.4998 79.2003C39.1322 78.5922 39.716 77.7651 40.2998 76.7922C41.0538 75.503 41.7836 73.9949 42.343 72.4868L40.616 72.0246C40.1052 73.3868 39.4484 74.7732 38.7917 75.8922C38.2809 76.7678 37.7214 77.4976 37.2836 77.9354C36.943 78.2516 36.7241 78.3246 36.6755 78.3732C36.6268 78.3246 36.4809 78.13 36.3593 77.6922C36.189 77.1084 36.0917 76.2084 36.0674 75.1868C36.043 73.8732 36.189 72.3651 36.4079 70.93L34.6809 70.4192Z" fill="#BD3B60"/>
<path d="M40.7128 63.3166C39.8858 63.0977 38.7426 63.122 37.6966 63.8274C36.6507 64.5571 35.775 65.895 35.1912 68.0841C34.948 68.9598 34.7534 69.9328 34.6074 70.9058L36.3588 71.3679C36.5047 70.3706 36.6993 69.3977 36.9182 68.5463C37.429 66.6004 38.1588 65.676 38.7182 65.2868C39.302 64.8977 39.8128 64.8977 40.2507 65.0193C40.6885 65.1409 41.1507 65.3841 41.4426 66.0166C41.7345 66.649 41.9047 67.7922 41.3696 69.7382C41.1263 70.6139 40.8101 71.5382 40.4453 72.4625L42.1966 72.9247C42.5615 72.0004 42.8777 71.076 43.1209 70.176C43.7047 67.9625 43.6317 66.3814 43.0723 65.2382C42.5128 64.1193 41.5155 63.5355 40.7128 63.3166Z" fill="#BD3B60"/>
<path d="M57.9346 68.3273C59.0535 72.4867 59.2481 78.7624 57.5454 79.2246C55.8427 79.6867 52.8751 74.1408 51.7562 70.0057C50.6373 65.8462 52.2427 64.5327 53.5075 64.1922C54.7724 63.8273 56.8156 64.1678 57.9346 68.3273Z" fill="#F7B0B1"/>
<path d="M51.6113 72.4625C52.1708 73.9706 52.8762 75.4787 53.6546 76.7679C54.2384 77.7408 54.8221 78.5679 55.4546 79.176C56.087 79.7841 56.8411 80.3192 57.7897 80.0517C58.714 79.8084 59.1275 78.9571 59.3465 78.13C59.5897 77.2787 59.687 76.2814 59.687 75.1381C59.7113 73.6544 59.5654 71.976 59.2978 70.3949L57.5708 70.8571C57.7897 72.2922 57.9357 73.8246 57.9113 75.1138C57.9113 76.1354 57.7897 77.0354 57.6194 77.6192C57.4978 78.0571 57.3519 78.2517 57.3032 78.3003C57.2546 78.276 57.0113 78.203 56.6951 77.8625C56.2573 77.4246 55.7221 76.7192 55.187 75.8192C54.5303 74.7003 53.8735 73.3138 53.3627 71.9517L51.6113 72.4625Z" fill="#BD3B60"/>
<path d="M53.2651 63.3165C52.4381 63.5354 51.4651 64.1192 50.9057 65.2624C50.3705 66.4056 50.2732 68.0111 50.857 70.2002C51.1003 71.0759 51.4165 72.0246 51.7813 72.9489L53.5327 72.4867C53.1678 71.5624 52.8273 70.6138 52.6084 69.7624C52.0975 67.8165 52.2435 66.6732 52.5354 66.0408C52.8273 65.4083 53.2894 65.1651 53.7273 65.0435C54.1651 64.9219 54.6759 64.8975 55.2597 65.3111C55.8435 65.7002 56.5489 66.6246 57.0597 68.5705C57.303 69.4462 57.4732 70.4192 57.6192 71.3921L59.3705 70.93C59.2246 69.957 59.03 68.984 58.7867 68.1083C58.203 65.8948 57.3273 64.557 56.2813 63.8516C55.2354 63.0975 54.0921 63.0732 53.2651 63.3165Z" fill="#BD3B60"/>
<path d="M22.9808 51.1787C19.016 49.5246 13.9078 45.8759 14.5889 44.2219C15.27 42.5922 21.4727 43.6138 25.4376 45.2435C29.4024 46.8976 29.4754 48.9651 28.9889 50.1814C28.4781 51.3976 26.97 52.8084 22.9808 51.1787Z" fill="#F7B0B1"/>
<path d="M23.5398 43.6381C22.0074 43.176 20.3533 42.8111 18.8939 42.6408C17.775 42.5192 16.7533 42.4706 15.902 42.5922C15.0263 42.7138 14.1506 43.0057 13.7858 43.9057C13.4209 44.7814 13.8344 45.6084 14.3696 46.3138C14.9047 47.0192 15.6344 47.7246 16.5101 48.4057C17.6777 49.33 19.0885 50.23 20.5236 50.9841L21.2047 49.33C19.9155 48.6246 18.6506 47.8219 17.6047 46.9949C16.802 46.3624 16.1452 45.73 15.7804 45.2435C15.5128 44.8787 15.4641 44.6354 15.4398 44.5868C15.4885 44.5624 15.6831 44.4408 16.1452 44.3679C16.7533 44.2706 17.6533 44.2949 18.675 44.4165C19.9641 44.5624 21.4479 44.903 22.8587 45.3165L23.5398 43.6381Z" fill="#BD3B60"/>
<path d="M29.8166 50.522C30.1329 49.7436 30.2788 48.6003 29.695 47.4571C29.1112 46.3382 27.895 45.2922 25.8031 44.4165C24.9518 44.076 24.0275 43.7598 23.0788 43.4679L22.3977 45.1219C23.3707 45.3895 24.295 45.7057 25.122 46.0463C26.995 46.8247 27.7977 47.6274 28.1139 48.2598C28.4302 48.8922 28.3572 49.3787 28.1626 49.8165C27.968 50.2544 27.7004 50.6679 27.0193 50.8625C26.3626 51.0814 25.195 51.0814 23.3464 50.303C22.5193 49.9625 21.6193 49.5247 20.768 49.0382L20.0869 50.6922C20.9626 51.1787 21.8383 51.6165 22.6896 51.9571C24.8058 52.8328 26.3869 52.9544 27.6031 52.5652C28.7707 52.2003 29.4761 51.3247 29.8166 50.522Z" fill="#BD3B60"/>
<path d="M68.5407 45.2435C72.5056 43.5895 78.7083 42.5922 79.3894 44.2219C80.0704 45.8516 74.9623 49.5246 70.9975 51.1787C67.0326 52.8327 65.5002 51.3976 65.0137 50.2057C64.5029 48.9651 64.5515 46.8976 68.5407 45.2435Z" fill="#F7B0B1"/>
<path d="M73.4791 50.9842C74.9142 50.2301 76.3251 49.3301 77.4926 48.4058C78.3683 47.7004 79.1224 47.0193 79.6332 46.3139C80.1683 45.6085 80.5818 44.7815 80.2169 43.9058C79.8521 43.0301 78.9764 42.7382 78.1007 42.5923C77.2251 42.4707 76.2034 42.495 75.1088 42.6409C73.6251 42.8112 71.9953 43.1761 70.4629 43.6382L71.144 45.2923C72.5305 44.8788 74.0386 44.5625 75.3278 44.3923C76.3494 44.2707 77.2494 44.2463 77.8575 44.3436C78.3197 44.4166 78.5142 44.5382 78.5629 44.5625C78.5386 44.6355 78.4899 44.8544 78.2224 45.2193C77.8575 45.7058 77.2007 46.3382 76.398 46.9707C75.3764 47.7734 74.0872 48.6004 72.798 49.3058L73.4791 50.9842Z" fill="#BD3B60"/>
<path d="M64.1623 50.5219C64.4785 51.3003 65.2082 52.2003 66.4001 52.5895C67.6163 52.9787 69.1974 52.8571 71.3136 51.9814C72.165 51.6408 73.0406 51.203 73.9163 50.7165L73.2352 49.0625C72.3596 49.5489 71.4596 49.9868 70.6569 50.3273C68.7839 51.1057 67.6406 51.1057 66.9839 50.8868C66.3271 50.6679 66.0109 50.2544 65.8406 49.8408C65.6704 49.4273 65.5731 48.9165 65.9136 48.2841C66.2298 47.6516 67.0325 46.8489 68.9055 46.0706C69.7325 45.73 70.6812 45.4138 71.6298 45.1462L70.9488 43.4922C70.0001 43.7598 69.0758 44.076 68.2244 44.4408C66.1082 45.3165 64.9163 46.3625 64.3325 47.4814C63.7001 48.6003 63.8461 49.7435 64.1623 50.5219Z" fill="#BD3B60"/>
<path d="M30.7161 24.2517C26.6782 24.2517 23.3701 27.5598 23.3701 31.5977V64.1193C23.3701 68.1571 26.6782 71.4652 30.7161 71.4652H63.2377C67.2755 71.4652 70.5836 68.1571 70.5836 64.1193V31.5977C70.5836 27.5598 67.2755 24.2517 63.2377 24.2517H30.7161ZM30.7161 27.0977H63.2377C65.7431 27.0977 67.7134 29.0679 67.7134 31.5733V64.095C67.7134 66.6004 65.7431 68.5706 63.2377 68.5706H30.7161C28.2107 68.5706 26.2404 66.6004 26.2404 64.095V31.5977C26.2404 29.0679 28.2107 27.0977 30.7161 27.0977Z" fill="#A01F4A"/>
<path d="M30.7165 25.6625H63.2381C66.5219 25.6625 69.1489 28.2895 69.1489 31.5733V64.0949C69.1489 67.3787 66.5219 70.0057 63.2381 70.0057H30.7165C27.4327 70.0057 24.8057 67.3787 24.8057 64.0949V31.5976C24.8057 28.3138 27.457 25.6625 30.7165 25.6625Z" fill="#F7B0B1"/>
<path d="M33.2695 25.322V35.295C33.2695 36.8518 34.5344 38.1166 36.0912 38.1166H58.9074C60.4641 38.1166 61.729 36.8518 61.729 35.295V25.322H33.2695Z" fill="#BD3B60"/>
<path d="M55.3569 47.8462C55.3569 51.9084 52.0731 55.1921 48.011 55.1921C43.9488 55.1921 40.665 51.9084 40.665 47.8462C40.665 43.784 43.9488 40.5002 48.011 40.5002C52.0731 40.5002 55.3569 43.784 55.3569 47.8462Z" fill="#A01F4A"/>
<path d="M24.8057 61.2246V64.1192C24.8057 67.403 27.4327 70.03 30.7165 70.03H63.2381C66.5219 70.03 69.1489 67.403 69.1489 64.1192V61.2246C69.1489 64.5084 66.5219 67.1354 63.2381 67.1354H30.7165C27.457 67.1354 24.8057 64.4841 24.8057 61.2246Z" fill="#DF4E7E"/>
<path d="M53.9942 47.8462C53.9942 51.7138 50.8564 54.8516 46.9888 54.8516C43.1212 54.8516 39.9834 51.7138 39.9834 47.8462C39.9834 43.9787 43.1212 40.8408 46.9888 40.8408C50.8564 40.8408 53.9942 43.9787 53.9942 47.8462Z" fill="#FFE1E3"/>
<path d="M53.9946 48.4543C53.9946 52.0057 51.1243 54.876 47.573 54.876C44.0216 54.876 41.1514 52.0057 41.1514 48.4543C41.1514 44.903 44.0216 42.0327 47.573 42.0327C51.1243 42.0327 53.9946 44.903 53.9946 48.4543Z" fill="#DF4E7E"/>
<path d="M46.9884 40.476C42.9263 40.476 39.6182 43.7841 39.6182 47.8462C39.6182 51.9084 42.9263 55.2165 46.9884 55.2165C51.0506 55.2165 54.3587 51.9084 54.3587 47.8462C54.3587 43.7841 51.0506 40.476 46.9884 40.476ZM46.9884 41.1814C50.6614 41.1814 53.6533 44.1489 53.6533 47.8462C53.6533 51.5192 50.6857 54.5111 46.9884 54.5111C43.3155 54.5111 40.3236 51.5435 40.3236 47.8462C40.3236 44.1733 43.3155 41.1814 46.9884 41.1814Z" fill="#DF4E7E"/>
<path d="M48.352 46.3138H45.2871V49.3787H48.352V46.3138Z" fill="#BD3B60"/>
<path d="M44.9941 46.022V49.6949H48.6671V46.022H44.9941ZM45.5779 46.6058H48.059V49.0868H45.5779V46.6058Z" fill="#A01F4A"/>
<path d="M33.5381 25.6625V35.076C33.5381 36.5598 34.73 37.7273 36.1894 37.7273H57.7651C59.2489 37.7273 60.4165 36.5354 60.4165 35.076V25.6625H33.5381Z" fill="#F7B0B1"/>
<path d="M44.6048 25.6625L35.4346 37.63C35.6778 37.703 35.9454 37.7517 36.2129 37.7517H43.3156L52.5832 25.6625H44.6048Z" fill="#FFE1E3"/>
<path d="M33.1729 25.6625V35.076C33.1729 36.7544 34.535 38.0922 36.1891 38.0922H57.7647C59.4431 38.0922 60.781 36.73 60.781 35.076V25.6625H60.0756V35.076C60.0756 36.3652 59.0539 37.3868 57.7647 37.3868H36.1891C34.8999 37.3868 33.8783 36.3652 33.8783 35.076V25.6625H33.1729Z" fill="#DF4E7E"/>
<path d="M64.2108 70.0301V64.3868C64.2108 62.903 63.0189 61.7355 61.5595 61.7355H32.4189C30.9351 61.7355 29.7676 62.9274 29.7676 64.3868V70.0301H64.2108Z" fill="#DF4E7E"/>
<path d="M32.4189 61.7355C30.9351 61.7355 29.7676 62.9274 29.7676 64.3868V65.5787C29.7676 64.0949 30.9595 62.9274 32.4189 62.9274H61.5595C63.0433 62.9274 64.2108 64.1193 64.2108 65.5787V64.3868C64.2108 62.903 63.0189 61.7355 61.5595 61.7355H32.4189Z" fill="#BD3B60"/>
<path d="M32.4186 61.3706C30.7402 61.3706 29.4023 62.7328 29.4023 64.3868V70.0301H30.1077V64.3868C30.1077 63.0976 31.1294 62.076 32.4186 62.076H61.5591C62.8483 62.076 63.8699 63.0976 63.8699 64.3868V70.0301H64.5753V64.3868C64.5753 62.7084 63.2132 61.3706 61.5591 61.3706H32.4186Z" fill="#BD3B60"/>
<path d="M30.7161 25.322C27.2377 25.322 24.4404 28.1193 24.4404 31.5977V64.1193C24.4404 67.5977 27.2377 70.395 30.7161 70.395H63.2377C66.7161 70.395 69.5134 67.5977 69.5134 64.1193V31.5977C69.5134 28.1193 66.7161 25.322 63.2377 25.322H30.7161ZM30.7161 26.0274H63.2377C66.3269 26.0274 68.7837 28.5085 68.7837 31.5734V64.095C68.7837 67.1842 66.3026 69.6409 63.2377 69.6409H30.7161C27.6269 69.6409 25.1702 67.1599 25.1702 64.095V31.5977C25.1702 28.5085 27.6512 26.0274 30.7161 26.0274Z" fill="#BD3B60"/>
<path d="M56.0377 28.1193H52.4863V35.2949H56.0377V28.1193Z" fill="#BD3B60"/>
<path d="M52.1455 27.7787V35.6598H56.4023V27.7787H52.1455ZM52.8509 28.4841H55.6969V34.9544H52.8509V28.4841Z" fill="#A01F4A"/>
<path d="M39.3761 45.9733C37.3329 45.9733 35.7031 44.3192 35.7031 42.3003V39.2598H43.0734V42.3003C43.0734 44.3192 41.4193 45.9733 39.3761 45.9733Z" fill="#1A1A1A"/>
<path d="M40.9077 40.1354C40.251 40.1354 39.7158 40.6705 39.7158 41.3273C39.7158 41.984 40.251 42.5192 40.9077 42.5192C41.5645 42.5192 42.0996 41.984 42.0996 41.3273C42.0996 40.6705 41.5645 40.1354 40.9077 40.1354Z" fill="white"/>
<path d="M54.5782 45.9733C52.535 45.9733 50.9053 44.3192 50.9053 42.3003V39.2598H58.2755V42.3003C58.2755 44.3192 56.6215 45.9733 54.5782 45.9733Z" fill="#1A1A1A"/>
<path d="M56.1108 40.1354C55.4541 40.1354 54.9189 40.6705 54.9189 41.3273C54.9189 41.984 55.4541 42.5192 56.1108 42.5192C56.7676 42.5192 57.3027 41.984 57.3027 41.3273C57.3027 40.6705 56.7676 40.1354 56.1108 40.1354Z" fill="white"/>
<path d="M49.5921 51.884C49.5921 53.003 49.3246 54.0732 48.8381 54.8759C48.3516 55.6786 47.6948 56.1165 46.9894 56.1165C46.3083 56.1165 45.6273 55.6786 45.1408 54.8759C44.6543 54.0732 44.3867 53.003 44.3867 51.884C44.3867 50.7651 44.6543 49.6948 45.1408 48.8921C45.6273 48.0894 46.284 47.6516 46.9894 47.6516C47.6705 47.6516 48.3516 48.0894 48.8381 48.8921C49.3246 49.6948 49.5921 50.7651 49.5921 51.884Z" fill="#BD3B60"/>
<path d="M44.0215 51.6165C44.0215 51.6894 44.0215 51.7867 44.0215 51.8597C44.0215 53.0759 44.3134 54.1948 44.8485 55.0219C45.3593 55.8489 46.1134 56.4327 46.9891 56.4327C47.8647 56.4327 48.6188 55.8489 49.1296 55.0219C49.6404 54.1948 49.9566 53.0759 49.9566 51.8597C49.9566 51.7624 49.9566 51.6894 49.9566 51.6165H49.2269C49.2269 51.6894 49.2269 51.7867 49.2269 51.8597C49.2269 52.9543 48.935 53.9516 48.5215 54.657C48.0836 55.3624 47.5485 55.7273 46.9891 55.7273C46.4296 55.7273 45.8701 55.3624 45.4566 54.657C45.0188 53.9516 44.7512 52.9786 44.7512 51.8597C44.7512 51.7624 44.7512 51.6894 44.7512 51.6165H44.0215Z" fill="#A01F4A"/>
<path d="M46.9891 47.3112C46.1134 47.3112 45.3593 47.8949 44.8485 48.722C44.3377 49.549 44.0215 50.6679 44.0215 51.8841C44.0215 51.9814 44.0215 52.0544 44.0215 52.1274H44.7269C44.7269 52.0544 44.7269 51.9571 44.7269 51.8841C44.7269 50.7895 45.0188 49.7922 45.4323 49.0868C45.8701 48.3814 46.4053 48.0166 46.9647 48.0166C47.5242 48.0166 48.0836 48.3814 48.4972 49.0868C48.935 49.7922 49.2026 50.7652 49.2026 51.8841C49.2026 51.9814 49.2026 52.0544 49.2026 52.1274H49.908C49.908 52.0544 49.908 51.9571 49.908 51.8841C49.908 50.6679 49.6161 49.549 49.0809 48.722C48.6188 47.8706 47.8647 47.3112 46.9891 47.3112Z" fill="#A01F4A"/>
<path d="M77.5645 41.1327V55.703H84.4969V41.1327H81.6266V52.857H80.4104V41.1327H77.5645Z" fill="#BD3B60"/>
<path d="M77.5645 27.049V41.6192H80.4347V29.8949H81.6509V41.6192H84.4969V27.049H77.5645Z" fill="#BD3B60"/>
<path d="M83.0622 28.4841H79V54.2679H83.0622V28.4841Z" fill="#F7B0B1"/>
<path d="M78.6348 41.1327V54.6327H83.4267V41.1327H82.7213V53.9273H79.3645V41.1327H78.6348Z" fill="#A01F4A"/>
<path d="M78.6348 28.1193V41.6193H79.3402V28.8247H82.6969V41.6193H83.4023V28.1193H78.6348Z" fill="#A01F4A"/>
<path d="M81.0427 5.2301C72.2373 5.2301 65.0859 12.3815 65.0859 21.1869C65.0859 29.9923 72.2373 37.1436 81.0427 37.1436C81.1157 37.1436 81.213 37.1436 81.2859 37.1436V34.2733C81.213 34.2733 81.1157 34.2733 81.0427 34.2733C73.794 34.2733 67.9562 28.4355 67.9562 21.1869C67.9562 13.9382 73.794 8.10037 81.0427 8.10037C81.1157 8.10037 81.213 8.10037 81.2859 8.10037V5.2301C81.213 5.2301 81.1157 5.2301 81.0427 5.2301Z" fill="#BD3B60"/>
<path d="M81.043 5.2301C80.9701 5.2301 80.8728 5.2301 80.7998 5.2301V8.10037C80.8728 8.10037 80.9701 8.10037 81.043 8.10037C88.2917 8.10037 94.1295 13.9382 94.1295 21.1869C94.1295 28.4355 88.2917 34.2733 81.043 34.2733C80.9701 34.2733 80.8728 34.2733 80.7998 34.2733V37.1436C80.8728 37.1436 80.9701 37.1436 81.043 37.1436C89.8485 37.1436 96.9998 29.9923 96.9998 21.1869C96.9998 12.3815 89.8241 5.2301 81.043 5.2301Z" fill="#BD3B60"/>
<path d="M95.5647 21.1868C95.5647 25.03 94.0323 28.7273 91.308 31.4517C88.5836 34.176 84.8863 35.7084 81.0431 35.7084C77.1999 35.7084 73.5026 34.176 70.7782 31.4517C68.0539 28.7273 66.5215 25.03 66.5215 21.1868C66.5215 17.3435 68.0539 13.6462 70.7782 10.9219C73.5026 8.19759 77.1999 6.66516 81.0431 6.66516C84.8863 6.66516 88.5836 8.19759 91.308 10.9219C94.0323 13.6219 95.5647 17.3192 95.5647 21.1868Z" fill="#FF613E"/>
<path d="M95.5647 21.1868C95.5647 25.03 94.0323 28.7273 91.308 31.4517C88.5836 34.176 84.8863 35.7084 81.0431 35.7084C77.1999 35.7084 73.5026 34.176 70.7782 31.4517C68.0539 28.7273 66.5215 25.03 66.5215 21.1868C66.5215 17.3435 68.0539 13.6462 70.7782 10.9219C73.5026 8.19759 77.1999 6.66516 81.0431 6.66516C84.8863 6.66516 88.5836 8.19759 91.308 10.9219C94.0323 13.6219 95.5647 17.3192 95.5647 21.1868Z" fill="white"/>
<path d="M93.181 21.1868C93.181 24.3976 91.8918 27.4868 89.6296 29.7733C87.3431 32.0598 84.2782 33.3246 81.0431 33.3246C77.8323 33.3246 74.7431 32.0354 72.4566 29.7733C70.1701 27.4868 68.9053 24.4219 68.9053 21.1868C68.9053 17.976 70.1945 14.8868 72.4566 12.6003C74.7431 10.3138 77.808 9.04895 81.0431 9.04895C84.2539 9.04895 87.3431 10.3381 89.6296 12.6003C91.8918 14.8625 93.181 17.9517 93.181 21.1868Z" fill="#FF2727"/>
<path d="M75.23 28.5328C76.1786 28.5328 76.7381 28.0463 76.7381 27.2923C76.7381 26.5625 76.1786 26.3193 75.3516 26.149C74.7435 26.0031 74.5246 25.9301 74.5246 25.6382C74.5246 25.395 74.7435 25.2247 75.084 25.2247C75.4489 25.2247 75.8381 25.3706 76.2029 25.6625L76.6408 25.0544C76.2516 24.7139 75.7408 24.5193 75.1083 24.5193C74.257 24.5193 73.6732 25.0058 73.6732 25.7355C73.6732 26.4896 74.257 26.7085 75.084 26.9031C75.6678 27.049 75.911 27.122 75.911 27.3896C75.911 27.6328 75.6921 27.8274 75.2786 27.8274C74.7921 27.8274 74.3786 27.6328 73.9894 27.3166L73.5029 27.876C73.9651 28.3139 74.5489 28.5328 75.23 28.5328Z" fill="white"/>
<path d="M78.3432 28.4598H79.1702V25.3219H80.3864V24.5679H77.127V25.3219H78.3432V28.4598Z" fill="white"/>
<path d="M82.6729 24.5193C82.5756 24.5193 82.5027 24.5193 82.4297 24.5436V25.322C82.5027 25.2977 82.6 25.2977 82.6729 25.2977C83.3297 25.2977 83.8891 25.8814 83.8891 26.5382C83.8891 27.2193 83.3297 27.8031 82.6729 27.8031C82.5756 27.8031 82.5027 27.8031 82.4297 27.7787V28.5571C82.5027 28.5571 82.6 28.5814 82.6729 28.5814C83.7918 28.5814 84.7405 27.6571 84.7405 26.5625C84.7405 25.4193 83.7918 24.5193 82.6729 24.5193Z" fill="white"/>
<path d="M85.3486 24.5922V28.4841H86.1757V27.2192H87.1C87.1486 27.2192 87.173 27.2192 87.2216 27.2192V26.4408C87.1486 26.4651 87.1 26.4651 87.027 26.4651H86.2V25.3705H87.027C87.1 25.3705 87.173 25.3705 87.2216 25.3949V24.6165C87.173 24.6165 87.1486 24.6165 87.1 24.6165L85.3486 24.5922Z" fill="white"/>
<path d="M84.5459 18.9003C84.5459 19.8489 84.181 20.7489 83.4999 21.43C82.8432 22.0867 81.9189 22.4759 80.9702 22.4759C80.0216 22.4759 79.1216 22.1111 78.4405 21.43C77.7594 20.7489 77.3945 19.8489 77.3945 18.9003C77.3945 17.9516 77.7594 17.0516 78.4405 16.3705C79.0972 15.7138 80.0216 15.3246 80.9702 15.3246C82.9405 15.3489 84.5459 16.9543 84.5459 18.9003Z" fill="white"/>
<path d="M78.1973 13.1111C78.6352 13.1111 78.9757 13.4516 78.9757 13.8895V18.5597C78.9757 18.9976 78.6352 19.3381 78.1973 19.3381C77.7595 19.3381 77.4189 18.9976 77.4189 18.5597V13.8895C77.4189 13.4759 77.7595 13.1111 78.1973 13.1111Z" fill="white"/>
<path d="M80.046 11.7003C80.4838 11.7003 80.8243 12.0409 80.8243 12.4787V16.3463C80.8243 16.7841 80.4838 17.1246 80.046 17.1246C79.6081 17.1246 79.2676 16.7841 79.2676 16.3463V12.4787C79.2676 12.0409 79.6081 11.7003 80.046 11.7003Z" fill="white"/>
<path d="M81.8946 10.9219C82.3324 10.9219 82.673 11.2624 82.673 11.7003V16.8813C82.673 17.3192 82.3324 17.6597 81.8946 17.6597C81.4567 17.6597 81.1162 17.3192 81.1162 16.8813V11.7003C81.1162 11.2867 81.4567 10.9219 81.8946 10.9219Z" fill="white"/>
<path d="M83.7432 12.5273C84.1811 12.5273 84.5216 12.8679 84.5216 13.3057V18.5598C84.5216 18.9976 84.1811 19.3382 83.7432 19.3382C83.3054 19.3382 82.9648 18.9976 82.9648 18.5598V13.3057C82.9648 12.8922 83.3054 12.5273 83.7432 12.5273Z" fill="white"/>
<path d="M85.7136 16.4436C85.4947 16.4436 85.2758 16.5652 85.1055 16.7598L83.2568 19.1436L83.8406 20.9679L86.346 17.7085C86.6136 17.3679 86.5406 16.8571 86.2001 16.6139C86.0785 16.4923 85.9082 16.4436 85.7136 16.4436Z" fill="white"/>
<path d="M81.043 6.30029C80.9701 6.30029 80.8728 6.30029 80.7998 6.30029V7.0057C80.8728 7.0057 80.9701 7.0057 81.043 7.0057C88.8755 7.0057 95.1998 13.3544 95.1998 21.1625C95.1998 28.9949 88.8512 35.3192 81.043 35.3192C80.9701 35.3192 80.8728 35.3192 80.7998 35.3192V36.0246C80.8728 36.0246 80.9701 36.0246 81.043 36.0246C89.2647 36.0246 95.9295 29.3598 95.9295 21.1381C95.9295 12.9652 89.2403 6.30029 81.043 6.30029Z" fill="#A01F4A"/>
<path d="M81.0437 6.30029C72.8221 6.30029 66.1572 12.9652 66.1572 21.1868C66.1572 29.4084 72.8221 36.0733 81.0437 36.0733C81.1167 36.0733 81.214 36.0733 81.287 36.0733V35.3679C81.214 35.3679 81.1167 35.3679 81.0437 35.3679C73.2113 35.3679 66.887 29.0192 66.887 21.2111C66.887 13.3787 73.2356 7.05435 81.0437 7.05435C81.1167 7.05435 81.214 7.05435 81.287 7.05435V6.34894C81.214 6.30029 81.1167 6.30029 81.0437 6.30029Z" fill="#A01F4A"/>
<path d="M82.673 24.5193C81.5541 24.5193 80.6055 25.4436 80.6055 26.5382C80.6055 27.6328 81.5541 28.5571 82.673 28.5571C82.7703 28.5571 82.8433 28.5571 82.9163 28.5328V27.7544C82.8433 27.7787 82.746 27.7787 82.673 27.7787C82.0163 27.7787 81.4568 27.195 81.4568 26.5139C81.4568 25.8328 82.0163 25.2733 82.673 25.2733C82.7703 25.2733 82.8433 25.2733 82.9163 25.2977V24.5193C82.8433 24.5193 82.7703 24.5193 82.673 24.5193Z" fill="white"/>
<path d="M86.7109 24.5922V25.3462H87.0272C87.4407 25.3462 87.7326 25.5651 87.7326 25.9057C87.7326 26.2462 87.4407 26.4651 87.0272 26.4651H86.7109V27.2192H87.1001C87.9515 27.2192 88.5596 26.6841 88.5596 25.9057C88.5596 25.1273 87.9272 24.5922 87.1001 24.5922H86.7109Z" fill="white"/>
</svg>
