<svg width="20" height="20" viewBox="0 0 20 20" fill="none" xmlns="http://www.w3.org/2000/svg">
<path d="M10 20C4.48578 20 0 15.5142 0 10C0 4.48578 4.48578 0 10 0C15.5142 0 20 4.48578 20 10C20 15.5142 15.5142 20 10 20ZM10 1.25C5.17502 1.25 1.25 5.17502 1.25 10C1.25 14.825 5.17502 18.75 10 18.75C14.825 18.75 18.75 14.825 18.75 10C18.75 5.17502 14.825 1.25 10 1.25Z" fill="white"/>
<path d="M14.375 15.4169C14.2149 15.4169 14.055 15.356 13.9333 15.2335L9.55826 10.8585C9.44077 10.741 9.375 10.5819 9.375 10.4169V4.5835C9.375 4.23849 9.655 3.9585 10 3.9585C10.345 3.9585 10.625 4.23849 10.625 4.5835V10.1577L14.8167 14.3494C15.0609 14.5936 15.0609 14.9894 14.8167 15.2335C14.695 15.356 14.5351 15.4169 14.375 15.4169Z" fill="white"/>
</svg>
