<svg width="49" height="190" viewBox="0 0 49 190" fill="none" xmlns="http://www.w3.org/2000/svg">
<path d="M2.81668 188.578C-1.68332 187.578 0.316677 182.078 1.31668 181.578L47.3167 180.578C50.9166 186.178 46.8167 188.578 44.3167 189.078C31.9833 189.245 6.41668 189.378 2.81668 188.578Z" fill="#757575"/>
<path d="M1.69628 179.578L7.19628 172.078C8.66296 170.078 11.4741 169.245 12.6963 169.078H33.1963C37.5963 168.678 39.6963 169.911 40.1963 170.578C42.1963 172.745 46.5963 177.878 48.1963 181.078C49.7963 184.278 46.5296 186.078 44.6963 186.578C32.5296 186.911 7.29628 187.178 3.69628 185.578C0.096283 183.978 0.862949 180.911 1.69628 179.578Z" fill="#EFEFEF"/>
<path d="M21 181L19 183.5C26.6 185.9 32.1667 184.5 34 183.5L32.5 181H21Z" fill="white"/>
<path d="M26.5 181V184.5" stroke="#FF4545"/>
<path d="M11.5056 125C9.50562 120.2 8.67228 108.333 8.50562 103C13.1723 102.833 22.7056 102.8 23.5056 104C24.5056 105.5 22.5056 123.5 22.0056 125C21.5056 126.5 21.5056 129 21.5056 131C21.5056 133 21.0056 169.5 21.5056 170C22.0056 170.5 22.0056 172 21.5056 173.5C21.0056 175 19.5056 173.5 19.5056 175.5C19.5056 177.1 17.5056 178.167 16.5056 178.5C12.5056 180.5 12.0056 177.5 10.0056 176C8.00562 174.5 15.0056 172.5 16.5056 169.5C18.0056 166.5 12.0056 136 11.5056 132.5C11.1056 129.7 11.3389 126.333 11.5056 125Z" fill="#FACCBA"/>
<path d="M37.2764 125.085C39.2764 120.285 40.1097 108.418 40.2764 103.085C35.6097 102.918 26.0764 102.885 25.2764 104.085C24.2764 105.585 26.2764 123.585 26.7764 125.085C27.2764 126.585 27.2764 129.085 27.2764 131.085C27.2764 133.085 27.7764 169.585 27.2764 170.085C26.7764 170.585 26.7764 172.085 27.2764 173.585C27.7764 175.085 29.2764 173.585 29.2764 175.585C29.2764 177.185 31.2764 178.251 32.2764 178.585C36.2764 180.585 36.7764 177.585 38.7764 176.085C40.7764 174.585 33.7764 172.585 32.2764 169.585C30.7764 166.585 36.7764 136.085 37.2764 132.585C37.6764 129.785 37.443 126.418 37.2764 125.085Z" fill="#FACCBA"/>
<path d="M13.3421 7.60584C16.0372 2.55267 19.9393 0.587552 21.5535 0.236638C31.8283 -1.44775 36.2218 6.27237 37.1342 10.343C37.6254 12.5888 38.0057 30 38.5057 37.5C39.0519 45.6932 23.663 47.3152 28.5056 53C31.0289 55.9621 32.1944 55.4228 32.4938 55.1501C32.6051 55.0487 32.5967 54.9841 32.4938 55.1501C32.3423 55.3944 31.986 56.1384 31.5056 58C29.8212 64.527 31.1904 59.184 25.5056 61.5C25.2898 61.5879 25.0918 61.6781 24.9104 61.7703C25.2077 62.8296 24.2085 64.0138 23.2338 65.0299C23.6552 66.4698 24.7254 67.6168 22.5057 67.5C20.7195 67.406 21.9555 66.3624 23.2338 65.0299C23.0276 64.3256 22.9767 63.5512 23.5419 62.8203C21.3807 61.8344 17.5771 58.4055 22.5056 60C22.7751 60.0872 23.0188 60.1782 23.2382 60.2726C21.9334 59.2033 21.3581 60.5982 22.5056 56.5C23.775 51.9664 11.7592 56.6583 13.3421 55C15.3768 52.8684 18.8164 39.162 13.3421 39.162C12.3292 39.162 11.3667 39.2053 10.496 39.2678C10.308 43.1644 10.0379 45.9678 9.50565 46.5C7.91944 48.0862 10.6443 40.9899 9.22786 39.3766C6.25325 39.6719 4.98944 40.071 7.86787 39.162C8.51962 38.9562 8.95217 39.0625 9.22786 39.3766C9.62237 39.3374 10.047 39.3 10.496 39.2678C10.9772 29.2913 10.9196 12.1482 13.3421 7.60584Z" fill="#191847"/>
<path d="M4.50573 44.5C4.90573 37.3 9.33907 35.8334 11.5057 36.0001L12.5056 51.0001L12.0056 52.0001C12.0056 54.0001 11.3389 60.5001 11.0056 63.5001C12.0056 67.5001 8.00562 80.5001 7.50562 85.0001C7.00562 89.5001 8.00562 91.0001 8.00562 92.5001C8.00562 93.7001 7.67228 94.0001 7.50562 94.0001L5.50562 93.5001C6.50563 96.5001 7.70567 101.5 4.50573 97.5001C1.30579 93.5001 1.83904 89.8334 2.50566 88.5001C4.10566 86.9001 4.50571 84.1667 4.50573 83.0001C4.00573 78.0001 4.50573 67.5001 5.00573 63.5001C5.50573 59.5001 4.00573 53.5 4.50573 44.5Z" fill="#FACCBA"/>
<path d="M43.4996 44.5244C43.0996 37.3244 37.1664 35.8455 34.9998 36.0122L35.4998 51.0244L35.9998 52.0244C35.9998 54.0244 36.6664 60.5244 36.9998 63.5244C35.9998 67.5244 39.9998 80.5244 40.4998 85.0244C40.9998 89.5244 39.9998 91.0244 39.9998 92.5244C39.9998 93.7244 40.3331 94.0244 40.4998 94.0244L42.4998 93.5244C41.4997 96.5244 40.2997 101.524 43.4996 97.5244C46.6996 93.5244 46.1663 89.8578 45.4997 88.5244C43.8997 86.9244 43.4997 84.1911 43.4996 83.0244C43.9996 78.0244 43.4996 67.5244 42.9996 63.5244C42.4996 59.5244 43.9996 53.5244 43.4996 44.5244Z" fill="#FACCBA"/>
<path d="M20.007 32.4999C20.6107 31.6914 19.6418 26.9269 19.6418 26.1079H26.8005C26.8005 26.1079 25.7136 30.4999 26.007 31.4999C26.3005 32.4999 27.7869 35.4999 33.007 35.4999C36.507 35.4999 35.0074 47.5488 35.0074 49.4999C35.0074 49.922 33.0057 62.9999 38.0068 75.4999C38.4479 77.0762 38.3444 78.8156 38.0068 80.4999C37.5057 82.9999 10.5073 83.0413 10.5072 79.9999C10.5072 77.9999 9.9443 76.9999 11.5068 74.4999C14.0068 70.4999 13.0824 51.3584 12.007 50.9999L14.507 35.4999C14.858 34.1664 18.007 35.1784 20.007 32.4999Z" fill="#FACCBA"/>
<path d="M11.5075 36L15.0057 35C14.1723 38.5 13.4075 46.6 17.0075 49C21.5075 52 32.0075 51 32.5075 48.5C33.0075 46 33.0075 35 33.0075 35C33.0075 35.9999 36.5074 35.5 37.0075 36C36.5075 38.5 35.6455 50.6514 36.5057 51.5C36.5057 52 37.0057 53 37.0057 54.5C37.0057 56 36.8845 56.0792 36.5057 57C36.2154 57.7057 36.0057 58 35.6455 58.5C35.1161 62.8698 35.059 67.8445 36.5075 70.5C31.8408 72.6667 20.5075 75.8 12.5075 71C12.8293 67.996 13.234 62.7269 13.1615 58.5C13.0057 58.5 12.5057 58 12.0057 57C11.5056 56 11.3405 54.3236 11.5055 54C11.5055 53 11.7558 52 12.0057 51.5C12.7126 50.0858 11.3408 40.3333 11.5075 36Z" fill="#EA6C90"/>
<path d="M15.0905 17.4756C19.6384 14.6121 20.9859 10.738 20.9859 9.26416C23.5125 12.8014 28.706 15.721 31.0922 16.6334C32.566 15.1595 33.689 15.7912 33.8293 16.4228C34.6715 20.4653 31.6537 21.476 30.0395 21.476C29.3376 23.8622 26.8391 28.382 22.4597 27.3713C16.9854 26.108 16.9854 21.2654 16.7749 21.476C16.6065 21.6444 16.0029 21.5462 15.7222 21.476C12.7745 21.0549 12.5639 17.8967 13.1956 17.265C13.7009 16.7597 14.6694 17.1948 15.0905 17.4756Z" fill="#FACCBA"/>
<path d="M8.00564 102.5C6.50564 96.5 9.50564 81.5 10.5056 80C16.9057 84 31.839 82 38.5056 80.5C41.7056 83.3 41.5056 97 41.0056 103.5C37.8056 106.7 29.0056 104.833 25.0056 103.5C25.1723 102.5 25.4056 100 25.0056 98C24.6056 96 24.1723 97.5 24.0056 98.5V103.5L22.5056 104.5C18.5056 107 9.50562 104 8.00564 102.5Z" fill="#89C5CC"/>
<path d="M14.5056 59C16.1186 59.5 19.9106 60.2 22.175 59C20.9519 60.6667 17.7056 63 14.5056 59Z" fill="#C04367"/>
<path d="M27 59C28.613 59.5 32.405 60.2 34.6694 59C33.4463 60.6667 30.2 63 27 59Z" fill="#C04367"/>
<path d="M23.8734 97.0544C23.8734 97.0544 20.8261 88.7354 19.9042 88.6183C18.9823 88.5012 17.9617 88.95 17.9617 88.95L23.8734 97.0544Z" fill="#69A1AC"/>
<path d="M24.4731 97.214C24.4731 97.214 27.3501 88.7933 28.2732 88.6555C29.1964 88.5176 30.2312 88.9459 30.2312 88.9459L24.4731 97.214Z" fill="#69A1AC"/>
</svg>
