<svg width="232" height="233" viewBox="0 0 232 233" fill="none" xmlns="http://www.w3.org/2000/svg">
<path d="M115.96 232.098C180.002 232.098 231.919 180.181 231.919 116.137C231.919 52.0937 180.002 0.176025 115.96 0.176025C51.9169 0.176025 0 52.0937 0 116.137C0 180.181 51.9169 232.098 115.96 232.098Z" fill="#F8E1E1"/>
<path d="M168.048 219.13L87.0483 159.63L145.048 96.1296L229.048 143.13C217.448 185.13 183.548 211.296 168.048 219.13Z" fill="#FCC2C5"/>
<path d="M107.882 168.02C105.611 168.02 103.34 168.02 101.069 168.02C100.615 167.793 99.9339 167.793 99.4797 167.566C97.436 166.658 95.3922 165.749 93.5755 164.614C89.7151 162.57 87.2172 159.164 84.2651 155.984C82.6755 153.259 80.8588 150.761 79.4963 148.036C78.1338 145.765 77.2254 143.267 76.09 140.77C75.6358 139.18 74.9546 137.363 74.5004 135.774C74.0462 134.411 73.8192 133.276 73.365 131.913C72.9108 130.324 72.6838 128.734 72.4567 126.917C72.0025 123.057 71.7754 119.423 71.5483 115.563C71.7754 113.973 71.7754 112.157 72.0025 110.567C72.4567 109.204 72.6837 107.842 72.9108 106.479C73.5921 104.89 74.5004 103.3 75.1817 101.711C77.2254 99.4397 79.0421 97.1687 81.313 95.352C85.4005 91.7186 90.3963 89.902 95.6193 88.3124C97.663 87.8582 99.7068 87.4041 101.751 86.9499C104.021 86.4957 106.065 86.2686 108.336 86.0415C110.38 89.902 111.061 93.9896 111.061 98.3043C110.607 98.3043 109.926 98.3042 109.471 98.0771C107.428 97.1688 105.611 96.4876 103.567 95.5792C102.205 94.8979 100.388 94.898 99.7068 96.0334C98.7985 97.1688 99.2526 98.9854 100.842 99.8938C101.523 100.348 102.432 100.802 103.113 101.256C110.834 104.89 118.555 104.436 125.822 99.8938C127.184 98.9854 127.638 97.3959 126.957 96.2604C126.049 94.8979 124.686 94.8979 123.097 95.5792C120.826 96.7146 118.328 97.3959 116.057 98.3043C116.057 97.1688 115.83 95.8063 115.83 94.4438C121.507 94.6709 126.73 93.5354 131.499 90.5833C135.359 92.1729 138.765 94.4438 141.717 97.1688C146.259 101.484 148.757 106.706 149.211 112.838C149.665 119.65 148.757 126.236 147.167 132.821C145.578 139.634 142.853 145.993 139.22 151.897C135.813 157.347 131.726 162.116 126.049 165.522C124.459 166.43 122.869 167.112 121.053 167.793C117.874 167.339 115.376 165.522 113.105 163.251C112.196 165.976 110.38 167.339 107.882 168.02Z" fill="#FE4755"/>
<path d="M121.28 167.793C122.869 167.111 124.686 166.43 126.276 165.522C131.953 162.343 136.04 157.574 139.447 151.897C143.08 145.992 145.578 139.407 147.395 132.821C148.984 126.236 150.12 119.65 149.438 112.838C148.984 106.706 146.486 101.483 141.945 97.1686C138.992 94.2165 135.586 92.1727 131.726 90.583C132.407 90.1289 133.088 89.4476 133.542 88.9934C140.582 91.2643 146.713 94.6706 151.028 100.802C154.207 105.344 155.797 110.34 155.57 115.79C155.115 130.55 151.255 144.176 142.399 156.211C138.765 160.98 134.678 164.841 128.774 167.112C127.865 167.339 127.184 167.566 126.276 168.02C124.459 168.02 122.869 168.02 121.28 167.793C121.28 167.793 121.28 168.02 121.28 167.793Z" fill="#FB2D3B"/>
<path d="M113.559 85.3603C113.559 85.3603 113.559 85.1331 113.786 85.1331C114.467 82.8622 115.149 80.5914 116.284 78.5477C119.236 72.8705 124.232 70.3726 130.136 69.4642C131.953 69.2371 133.77 69.2371 135.586 69.01C135.586 70.1454 135.359 71.2809 135.359 72.4163C135.132 76.2768 133.997 80.1372 131.726 83.3164C127.865 88.9936 121.961 90.8103 115.376 91.2644C114.694 89.2207 114.013 87.1769 113.559 85.3603Z" fill="#98DA7C"/>
<path d="M115.149 91.0375C121.734 90.5833 127.411 88.7666 131.499 83.0895C133.769 79.9103 134.905 76.0498 135.132 72.1894C135.132 71.0539 135.359 69.9185 135.359 68.7831C138.084 68.3289 138.992 68.783 138.992 71.508C138.992 76.2768 138.538 80.8185 136.04 85.1332C135.359 86.4957 134.224 87.8582 133.315 88.9937C132.634 89.4478 131.953 90.1291 131.499 90.5833C126.73 93.5354 121.507 94.6709 115.83 94.4438C115.603 93.5354 115.376 92.1729 115.149 91.0375Z" fill="#83D262"/>
<path d="M95.8464 72.1891C95.8464 71.9621 95.8464 71.7349 95.8464 71.5078C96.9818 69.2369 98.1172 69.0099 100.161 70.1453C100.615 70.3724 101.069 70.5995 101.524 70.8265C103.34 72.4161 105.157 74.0058 106.974 75.5954C109.017 78.7747 111.061 81.9538 113.332 85.133C114.013 86.9497 114.467 88.9935 115.149 90.8102C115.376 91.9456 115.603 93.0811 115.83 94.4436C115.83 95.5791 116.057 96.9416 116.057 98.3041C114.467 98.3041 112.651 98.3041 111.061 98.3041C111.061 93.9895 110.38 89.9019 108.336 86.0414C106.974 82.6351 104.703 79.683 101.978 77.4121C100.615 76.2767 99.2526 75.3683 97.8901 74.2328C96.9818 73.7787 96.5276 72.8704 95.8464 72.1891Z" fill="#64BF37"/>
<path d="M111.061 98.5313C112.651 98.5313 114.467 98.5313 116.057 98.5313C118.328 97.623 120.826 96.9417 123.097 95.8062C124.686 95.125 126.049 95.1249 126.957 96.4875C127.638 97.6229 127.184 99.2126 125.822 100.121C118.555 104.436 111.061 105.117 103.113 101.483C102.205 101.029 101.523 100.575 100.842 100.121C99.4797 99.2126 99.0255 97.3959 99.7068 96.2604C100.388 95.125 101.978 95.125 103.567 95.8062C105.384 96.7146 107.428 97.623 109.471 98.3043C109.926 98.5314 110.607 98.3042 111.061 98.5313Z" fill="#E42940"/>
</svg>
