<svg width="50" height="50" viewBox="0 0 50 50" fill="none" xmlns="http://www.w3.org/2000/svg">
<path d="M25 50C38.8071 50 50 38.8071 50 25C50 11.1929 38.8071 0 25 0C11.1929 0 0 11.1929 0 25C0 38.8071 11.1929 50 25 50Z" fill="#F8E1E1"/>
<mask id="mask0_346_34" style="mask-type:alpha" maskUnits="userSpaceOnUse" x="0" y="0" width="50" height="50">
<path d="M25 50C38.8071 50 50 38.8071 50 25C50 11.1929 38.8071 0 25 0C11.1929 0 0 11.1929 0 25C0 38.8071 11.1929 50 25 50Z" fill="#F8E1E1"/>
</mask>
<g mask="url(#mask0_346_34)">
<path opacity="0.5" d="M54.814 38.7761C54.814 38.589 54.814 38.4008 54.8053 38.2137C54.8053 35.8819 54.8075 33.5502 54.8119 31.2185C54.8108 30.6474 54.6929 30.0827 54.4656 29.5588C54.2383 29.035 53.9063 28.5632 53.4901 28.1723C53.4335 28.1129 53.3758 28.0552 53.3171 27.9994C53.2616 27.9395 53.2083 27.8829 53.1441 27.8264C53.0799 27.7698 53.0353 27.71 52.9711 27.6534C52.9069 27.5968 52.8623 27.537 52.7982 27.4804C52.734 27.4238 52.6894 27.364 52.6263 27.3085C52.5632 27.253 52.5175 27.191 52.4533 27.1356C52.3891 27.0801 52.3445 27.0181 52.2803 26.9626C52.2161 26.9071 52.1661 26.8462 52.1073 26.7896C52.0486 26.733 51.9986 26.6732 51.9344 26.6166C51.8702 26.5601 51.8256 26.5002 51.7614 26.4437C51.6972 26.3871 51.6526 26.3272 51.5895 26.2718C51.5264 26.2163 51.4753 26.1543 51.4165 26.0988C51.3578 26.0433 51.3077 25.9813 51.2435 25.9258C51.1794 25.8703 51.1348 25.8094 51.0706 25.7528C51.0064 25.6963 50.9563 25.6364 50.8976 25.5799C50.8388 25.5233 50.7888 25.4634 50.7246 25.4069C50.6604 25.3503 50.6158 25.2905 50.5527 25.235C50.4896 25.1795 50.4385 25.1175 50.3797 25.062C50.321 25.0065 50.271 24.9445 50.2068 24.889C50.1426 24.8336 50.098 24.7726 50.0338 24.7161C49.9696 24.6595 49.925 24.5997 49.8608 24.5431C49.7966 24.4865 49.752 24.4267 49.6878 24.3701C49.6237 24.3135 49.5791 24.2537 49.516 24.1982C49.4529 24.1427 49.4072 24.0807 49.343 24.0252C49.2788 23.9698 49.2287 23.9078 49.17 23.8523C49.1113 23.7968 49.0612 23.7359 48.997 23.6793C48.9328 23.6227 48.8882 23.5629 48.824 23.5063C48.7599 23.4497 48.7153 23.3899 48.6511 23.3333C48.5869 23.2768 48.5423 23.2169 48.4792 23.1614C48.4161 23.106 48.3704 23.044 48.3062 22.9885C48.242 22.933 48.1974 22.871 48.1332 22.8155C48.069 22.76 48.019 22.6991 47.9603 22.6425C47.9015 22.5859 47.8515 22.5261 47.7873 22.4695C47.7231 22.413 47.6785 22.3531 47.6143 22.2966C47.5501 22.24 47.5055 22.1802 47.4424 22.1247C47.3793 22.0692 47.3336 22.0072 47.2694 21.9517C47.2052 21.8962 47.1606 21.8342 47.0965 21.7787C47.0323 21.7232 46.9877 21.6623 46.9235 21.6057C46.8593 21.5492 46.8093 21.4893 46.7505 21.4328C46.6918 21.3762 46.6417 21.3164 46.5775 21.2598C46.5133 21.2032 46.4687 21.1434 46.4056 21.0879C46.3425 21.0324 46.2914 20.9704 46.2327 20.9149C46.1739 20.8594 46.1239 20.7974 46.0597 20.742C45.9955 20.6865 45.9509 20.6255 45.8867 20.569C45.8225 20.5124 45.7725 20.4526 45.7137 20.396C45.655 20.3394 45.6049 20.2796 45.5408 20.223C45.4766 20.1665 45.432 20.1066 45.3689 20.0511C45.3058 19.9957 45.2601 19.9336 45.1959 19.8782C45.1317 19.8227 45.0817 19.7607 45.0229 19.7052C44.9642 19.6497 44.9141 19.5888 44.8499 19.5322C44.7857 19.4756 44.7411 19.4158 44.677 19.3592C44.6128 19.3027 44.5682 19.2428 44.504 19.1863C44.4398 19.1297 44.3952 19.0698 44.3321 19.0144C44.269 18.9589 44.2233 18.8969 44.1591 18.8414C44.0949 18.7859 44.0503 18.7239 43.9861 18.6684C43.922 18.6129 43.8719 18.552 43.8132 18.4954C43.7544 18.4389 43.7044 18.379 43.6402 18.3225C43.576 18.2659 43.5314 18.2061 43.4672 18.1495C43.403 18.0929 43.3584 18.0331 43.2953 17.9776C43.2322 17.9221 43.1865 17.8601 43.1224 17.8046C43.0582 17.7491 43.0136 17.6871 42.9494 17.6316C42.8852 17.5762 42.8351 17.5152 42.7764 17.4587C42.7176 17.4021 42.6622 17.3423 42.6034 17.2857C42.5447 17.2291 42.4946 17.1693 42.4304 17.1127C42.3663 17.0561 42.3217 16.9963 42.2586 16.9408C42.1955 16.8853 42.1443 16.8233 42.0856 16.7678C42.0268 16.7124 41.9768 16.6504 41.9126 16.5949C41.8484 16.5394 41.8038 16.4785 41.7396 16.4219C41.6754 16.3653 41.6254 16.3055 41.5666 16.2489C41.5079 16.1923 41.4579 16.1325 41.3937 16.0759C41.3295 16.0194 41.2849 15.9595 41.2218 15.9041C41.1587 15.8486 41.113 15.7866 41.0488 15.7311C40.9846 15.6756 40.9346 15.6136 40.8758 15.5581C40.8171 15.5026 40.767 15.4417 40.7029 15.3851C40.6387 15.3286 40.5941 15.2687 40.5299 15.2121C40.4657 15.1556 40.4211 15.0957 40.3569 15.0392C40.2927 14.9826 40.2481 14.9228 40.185 14.8673C40.1219 14.8118 40.0762 14.7498 40.012 14.6943C39.9479 14.6388 39.8978 14.5768 39.8391 14.5213C39.7803 14.4658 39.7248 14.4049 39.6661 14.3484C39.6073 14.2918 39.5573 14.2319 39.4931 14.1754C39.4289 14.1188 39.3843 14.059 39.3201 14.0024C39.2559 13.9458 39.2113 13.886 39.1482 13.8305C39.0851 13.775 39.0394 13.713 38.9753 13.6575C38.9111 13.602 38.8665 13.54 38.8023 13.4846C38.7381 13.4291 38.6881 13.3682 38.6293 13.3116C38.5706 13.255 38.5151 13.1952 38.4563 13.1386C38.3976 13.082 38.3475 13.0222 38.2834 12.9656C38.2192 12.9091 38.1746 12.8492 38.1115 12.7937C38.0484 12.7383 37.9972 12.6762 37.9385 12.6208C37.8797 12.5653 37.8297 12.5033 37.7655 12.4478C37.7013 12.3923 37.6567 12.3314 37.5925 12.2748C37.5284 12.2182 37.4783 12.1584 37.4196 12.1018C37.3608 12.0453 37.3108 11.9854 37.2466 11.9289C37.1824 11.8723 37.1378 11.8124 37.0747 11.757C37.0116 11.7015 36.9605 11.6395 36.9017 11.584C36.843 11.5285 36.7875 11.4665 36.7288 11.411C36.67 11.3555 36.62 11.2946 36.5558 11.238C36.4916 11.1815 36.447 11.1216 36.3828 11.0651C36.3186 11.0085 36.274 10.9487 36.2098 10.8921C35.8161 10.4649 35.3363 10.1261 34.802 9.89788C34.2678 9.66967 33.6912 9.55728 33.1104 9.56811C32.9999 9.54905 32.8884 9.53634 32.7764 9.53003H17.437C17.325 9.53627 17.2135 9.54898 17.103 9.56811C16.8136 9.59204 16.5199 9.59204 16.2327 9.64317C14.4311 9.96954 12.8852 11.7015 12.8602 13.4835C12.8308 15.9084 12.8536 18.3344 12.8536 20.7594C12.8536 20.8116 12.8449 20.8627 12.8449 20.9149C12.8449 26.0266 12.8449 31.1398 12.8449 36.2544C12.8422 36.4311 12.852 36.6078 12.8743 36.7831C13.0065 37.7327 13.4581 38.6091 14.1548 39.2678C14.2103 39.3277 14.2636 39.3853 14.3277 39.4408C14.3919 39.4963 14.4365 39.5583 14.5007 39.6138C14.5649 39.6693 14.6095 39.7313 14.6726 39.7868C14.7357 39.8423 14.7868 39.9032 14.8456 39.9598C14.9043 40.0163 14.9598 40.0762 15.0186 40.1327C15.0773 40.1893 15.1274 40.2491 15.1915 40.3046C15.2557 40.3601 15.3058 40.4221 15.3645 40.4776C15.4233 40.5331 15.4733 40.5951 15.5375 40.6506C15.6017 40.7061 15.6463 40.767 15.7094 40.8235C15.7725 40.8801 15.8236 40.9399 15.8824 40.9965C15.9411 41.0531 15.9912 41.1129 16.0553 41.1695C16.1195 41.2261 16.1696 41.2859 16.2283 41.3414C16.2871 41.3969 16.3371 41.4589 16.4013 41.5144C16.4655 41.5698 16.5101 41.6319 16.5743 41.6873C16.6385 41.7428 16.6831 41.8048 16.7462 41.8603C16.8093 41.9158 16.8604 41.9767 16.9191 42.0333C16.9779 42.0899 17.0334 42.1497 17.0921 42.2063C17.1509 42.2628 17.2009 42.3227 17.2651 42.3792C17.3293 42.4358 17.3793 42.4957 17.4381 42.5511C17.4968 42.6066 17.5468 42.6686 17.611 42.7241C17.6752 42.7796 17.7198 42.8416 17.7829 42.8971C17.846 42.9526 17.8972 43.0135 17.9559 43.0701C18.0146 43.1266 18.0647 43.1865 18.1289 43.243C18.1931 43.2996 18.2431 43.3595 18.3019 43.416C18.3606 43.4726 18.4106 43.5324 18.4748 43.5879C18.539 43.6434 18.5836 43.7054 18.6478 43.7609C18.712 43.8164 18.7566 43.8784 18.8197 43.9339C18.8828 43.9893 18.9285 44.0503 18.9927 44.1068C19.0569 44.1634 19.1069 44.2232 19.1656 44.2798C19.2244 44.3364 19.2744 44.3962 19.3386 44.4528C19.4028 44.5094 19.4529 44.5692 19.5116 44.6247C19.5703 44.6802 19.6204 44.7422 19.6846 44.7977C19.7488 44.8531 19.7934 44.9151 19.8565 44.9706C19.9196 45.0261 19.9707 45.087 20.0294 45.1436C20.0882 45.2002 20.1382 45.26 20.2024 45.3166C20.2666 45.3732 20.3166 45.433 20.3754 45.4896C20.4341 45.5461 20.4896 45.606 20.5484 45.6614C20.6071 45.7169 20.6572 45.7789 20.7213 45.8344C20.7855 45.8899 20.8301 45.9519 20.8943 46.0074C20.9585 46.0629 21.0031 46.1238 21.0662 46.1804C21.1293 46.2369 21.1804 46.2968 21.2392 46.3534C21.2979 46.4099 21.348 46.4698 21.4122 46.5263C21.4764 46.5829 21.5264 46.6427 21.5851 46.6982C21.6439 46.7537 21.6939 46.8157 21.7581 46.8712C21.8223 46.9267 21.8669 46.9887 21.9311 47.0442C21.9953 47.0997 22.0399 47.1606 22.103 47.2171C22.1661 47.2737 22.2118 47.3336 22.276 47.3901C22.3401 47.4467 22.3902 47.5065 22.4489 47.5631C22.5077 47.6197 22.5632 47.6795 22.6219 47.735C22.6807 47.7905 22.7307 47.8525 22.7949 47.908C22.8591 47.9635 22.9037 48.0255 22.9679 48.0809C23.0321 48.1364 23.0767 48.1973 23.1398 48.2539C23.2029 48.3105 23.254 48.3703 23.3127 48.4269C23.3715 48.4835 23.427 48.5433 23.4857 48.5999C23.5445 48.6564 23.5999 48.7163 23.6587 48.7718C23.7174 48.8272 23.7675 48.8893 23.8317 48.9447C23.8958 49.0002 23.9405 49.0622 24.0046 49.1177C24.0688 49.1732 24.1134 49.2341 24.1765 49.2907C24.2396 49.3473 24.2853 49.4071 24.3495 49.4637C24.4137 49.5202 24.4637 49.5801 24.5225 49.6366C24.5812 49.6932 24.6367 49.753 24.6955 49.8085C24.7542 49.864 24.8042 49.926 24.8684 49.9815C24.9326 50.037 24.9772 50.099 25.0414 50.1545C25.1056 50.21 25.1502 50.2709 25.2133 50.3275C25.2764 50.384 25.3275 50.4439 25.3863 50.5004C25.445 50.557 25.5005 50.6168 25.5593 50.6734C25.618 50.73 25.6735 50.7898 25.7322 50.8453C25.791 50.9008 25.841 50.9628 25.9052 51.0183C25.9694 51.0738 26.014 51.1358 26.0782 51.1913C26.1424 51.2467 26.187 51.3077 26.2501 51.3642C26.3132 51.4208 26.3643 51.4806 26.423 51.5372C26.4818 51.5938 26.5318 51.6536 26.596 51.7102C26.6602 51.7668 26.7048 51.8266 26.769 51.8821C26.8332 51.9376 26.8778 51.9996 26.942 52.055C27.0062 52.1105 27.0508 52.1725 27.1139 52.228C27.177 52.2835 27.2227 52.3444 27.2868 52.401C27.351 52.4576 27.4011 52.5174 27.4598 52.574C27.5186 52.6306 27.5741 52.6904 27.6328 52.7459C27.6915 52.8013 27.7416 52.8634 27.8058 52.9188C27.87 52.9743 27.9146 53.0363 27.9788 53.0918C28.0429 53.1473 28.0875 53.2093 28.1506 53.2648C28.2137 53.3203 28.2594 53.3812 28.3236 53.4378C28.3878 53.4944 28.4324 53.5542 28.4966 53.6108C28.5608 53.6673 28.6108 53.7272 28.6696 53.7826C28.7283 53.8381 28.7838 53.9001 28.8425 53.9556C28.9013 54.0111 28.9513 54.0731 29.0155 54.1286C29.0797 54.1841 29.1243 54.2461 29.1874 54.3016C29.2505 54.3571 29.3016 54.418 29.3604 54.4745C29.4191 54.5311 29.4692 54.591 29.5334 54.6475C29.5975 54.7041 29.6422 54.7639 29.7063 54.8194C29.7705 54.8749 29.8206 54.9369 29.8793 54.9924C29.9381 55.0479 29.9881 55.1099 30.0523 55.1654C30.1165 55.2209 30.1611 55.2829 30.2242 55.3383C30.2873 55.3938 30.3384 55.4548 30.3972 55.5113C30.4559 55.5679 30.5114 55.6277 30.5701 55.6843C30.6289 55.7409 30.6789 55.8007 30.7431 55.8562C30.8073 55.9117 30.8519 55.9737 30.9161 56.0292C30.9803 56.0846 31.0249 56.1467 31.0891 56.2021C31.1532 56.2576 31.1979 56.3196 31.261 56.3751C31.324 56.4306 31.3697 56.4915 31.4339 56.5481C31.8468 56.9847 32.345 57.3319 32.8977 57.5681C33.4503 57.8043 34.0455 57.9244 34.6465 57.921C39.9152 57.8895 45.185 57.9134 50.4537 57.9058C50.8316 57.9108 51.2088 57.8714 51.5775 57.7883C53.5173 57.3162 54.813 55.644 54.8151 53.6129C54.8195 48.6673 54.8191 43.7217 54.814 38.7761Z" fill="#FCC3C5"/>
</g>
<path d="M37.5119 20.8377C37.5119 21.0259 37.5206 21.2152 37.5206 21.4034C37.5206 26.3889 37.5206 31.3751 37.5206 36.362C37.5206 38.4095 36.2152 40.0957 34.2569 40.5711C33.889 40.6542 33.5125 40.694 33.1353 40.6897C27.8231 40.6973 22.5109 40.6734 17.1997 40.7049C15.1153 40.718 13.169 39.2428 12.8481 36.9897C12.8253 36.8127 12.8154 36.6341 12.8187 36.4556C12.8187 31.3018 12.8187 26.1481 12.8187 20.9943C12.8187 20.9421 12.8253 20.8855 12.8274 20.8377C15.1846 20.8377 17.5417 20.8377 19.8988 20.8377C20.0195 20.8286 20.1393 20.8093 20.2567 20.78H30.0914C30.2088 20.8093 30.3286 20.8286 30.4493 20.8377C32.8006 20.8391 35.1548 20.8391 37.5119 20.8377ZM15.4678 30.8464C15.4678 32.1268 15.4678 33.4073 15.4678 34.6877C15.474 34.9588 15.5032 35.2288 15.5548 35.495C15.8475 37.1268 17.5185 38.2648 19.0492 37.9678C20.1719 37.7502 20.9715 37.1257 21.3686 36.0781C21.5633 35.5657 21.5796 34.9793 21.634 34.4212C21.7355 33.3935 21.8179 32.364 21.881 31.3327C21.9171 30.8635 22.0917 30.4156 22.3825 30.0457C22.6284 29.7084 22.8894 29.3211 22.9515 28.9251C23.0548 28.2593 23.0211 27.5685 23.0167 26.8886C23.008 25.2567 22.2846 24.0459 20.8061 23.3126C19.2232 22.5283 17.29 23.1473 16.2674 24.5093C15.6897 25.2785 15.4667 26.1542 15.4645 27.0985C15.4656 28.3529 15.4678 29.6029 15.4678 30.8518V30.8464ZM34.8651 30.8464C34.8651 29.6497 34.8651 28.453 34.8651 27.2563C34.8657 26.9115 34.8439 26.567 34.7998 26.225C34.5072 24.1199 32.3912 22.6077 30.3002 23.0428C29.4666 23.2216 28.7181 23.6772 28.1764 24.3356C27.6348 24.994 27.3319 25.8164 27.3172 26.6688C27.2998 27.3085 27.2944 27.9504 27.3172 28.589C27.3347 28.8791 27.4036 29.1638 27.5206 29.4299C27.6419 29.6722 27.796 29.8966 27.9787 30.0968C28.3126 30.5048 28.4291 30.9671 28.4552 31.4893C28.5096 32.5935 28.6325 33.6945 28.688 34.7987C28.75 36.0139 29.2091 36.9897 30.2774 37.6175C31.5894 38.3866 33.1614 38.0222 34.122 36.8799C34.678 36.2195 34.8575 35.4373 34.8629 34.6029C34.8716 33.354 34.8651 32.1051 34.8651 30.8562V30.8464Z" fill="#E3456C"/>
<path d="M30.0837 20.7757H20.2458C19.9325 20.7118 19.6455 20.5556 19.4218 20.3272C19.198 20.0988 19.0478 19.8087 18.9903 19.4942C18.693 17.8986 18.3931 16.303 18.0906 14.7074C17.7621 12.9892 17.4303 11.2722 17.0952 9.55617C17.2068 9.53699 17.3194 9.52428 17.4325 9.5181C22.5862 9.5181 27.7403 9.5181 32.8948 9.5181C33.0075 9.52433 33.1198 9.53705 33.231 9.55617C33.1331 10.0675 33.0344 10.5784 32.9351 11.089C32.6968 12.326 32.4553 13.5629 32.2214 14.7999C31.919 16.3958 31.6394 17.995 31.313 19.5866C31.1836 20.2285 30.7375 20.631 30.0837 20.7757ZM25.1413 19.1993H28.4159C29.0186 19.1993 29.395 18.9241 29.5147 18.3355C29.8411 16.67 30.1555 15.0033 30.4492 13.3312C30.558 12.735 30.3034 12.2248 29.8226 12.0584C29.0385 11.7741 28.2395 11.5326 27.4292 11.3349C26.3087 11.0782 25.162 11.1173 24.0186 11.1956C22.8647 11.2836 21.7316 11.5512 20.6603 11.9887C19.9934 12.2509 19.778 12.7894 19.8987 13.4411C20.1849 15.0283 20.4764 16.6145 20.7571 18.2028C20.8659 18.8099 21.3076 19.1983 21.9331 19.1983L25.1413 19.1993Z" fill="#EA4E7B"/>
<path d="M17.0986 9.55176C17.43 11.2685 17.7618 12.9855 18.094 14.703C18.3971 16.2986 18.697 17.8942 18.9937 19.4897C19.0501 19.8046 19.1995 20.0954 19.4227 20.3246C19.6459 20.5538 19.9326 20.7109 20.2459 20.7756C20.1284 20.805 20.0087 20.8243 19.8879 20.8333C17.5315 20.8377 15.1744 20.8377 12.8166 20.8333C12.8166 18.3877 12.7937 15.9377 12.8231 13.4976C12.8449 11.7004 14.4038 9.95646 16.2206 9.62682C16.5111 9.57896 16.807 9.57896 17.0986 9.55176Z" fill="#C73B5D"/>
<path d="M30.0837 20.7757C30.7365 20.631 31.1836 20.2317 31.3163 19.5844C31.6427 17.9939 31.9223 16.3947 32.2247 14.7976C32.4586 13.5607 32.7001 12.3237 32.9384 11.0868C33.0378 10.5791 33.1364 10.0682 33.2343 9.55395C35.4602 9.48106 37.5206 11.3751 37.5185 13.7837C37.5185 16.1343 37.5163 18.4853 37.5119 20.8366C35.1555 20.8366 32.7984 20.8366 30.4406 20.8366C30.3201 20.8264 30.2007 20.806 30.0837 20.7757Z" fill="#C73B5D"/>
<path d="M15.4679 30.8518C15.4679 29.6029 15.4679 28.3496 15.4679 27.104C15.4679 26.1597 15.6931 25.2839 16.2708 24.5148C17.2934 23.1527 19.2266 22.5337 20.8095 23.3181C22.288 24.0513 23.0114 25.2567 23.0201 26.894C23.0201 27.574 23.0582 28.2648 22.9548 28.9306C22.8928 29.3266 22.6285 29.7139 22.3859 30.0511C22.0951 30.421 21.9205 30.8689 21.8844 31.3381C21.8205 32.3694 21.7382 33.399 21.6374 34.4267C21.583 34.9848 21.5667 35.5711 21.3719 36.0835C20.9749 37.1312 20.1753 37.7556 19.0525 37.9732C17.5219 38.2702 15.8508 37.1345 15.5582 35.5004C15.5065 35.2343 15.4774 34.9642 15.4712 34.6932C15.4592 33.4127 15.4679 32.1323 15.4679 30.8518ZM17.6698 26.7178C17.5969 27.674 18.4944 28.3366 19.2168 28.3496C20.0262 28.3605 20.89 27.6762 20.8748 26.7374C20.8738 26.5248 20.8309 26.3146 20.7486 26.1186C20.6663 25.9227 20.5462 25.7448 20.3952 25.5953C20.2442 25.4458 20.0651 25.3275 19.8684 25.2472C19.6716 25.1669 19.4609 25.1261 19.2484 25.1273C19.0395 25.1246 18.8322 25.1639 18.6389 25.243C18.4455 25.322 18.27 25.439 18.1227 25.5872C17.9755 25.7353 17.8595 25.9116 17.7817 26.1054C17.7039 26.2993 17.6659 26.5068 17.6698 26.7156V26.7178Z" fill="#FFB0B0"/>
<path d="M34.8652 30.8562C34.8652 32.1051 34.8717 33.3583 34.8652 34.6029C34.8598 35.4373 34.6802 36.2195 34.1243 36.8799C33.1637 38.0222 31.5917 38.3866 30.2797 37.6175C29.2114 36.9897 28.7566 36.0139 28.6903 34.7987C28.6348 33.6945 28.5118 32.5935 28.4574 31.4893C28.4313 30.9671 28.3149 30.5102 27.9809 30.0968C27.7983 29.8966 27.6442 29.6722 27.5229 29.4299C27.4053 29.1643 27.3357 28.88 27.3173 28.59C27.289 27.9514 27.2945 27.3096 27.3173 26.6699C27.3346 25.819 27.6388 24.999 28.1807 24.3428C28.7226 23.6865 29.4703 23.2327 30.3025 23.0548C32.3935 22.6196 34.5094 24.1318 34.8021 26.2369C34.8461 26.5789 34.868 26.9234 34.8674 27.2682C34.8695 28.4638 34.8652 29.6595 34.8652 30.8562ZM32.6633 26.7656C32.7264 25.7996 31.9224 25.1283 31.1043 25.1218C30.8891 25.117 30.6751 25.1554 30.4749 25.2347C30.2748 25.314 30.0926 25.4326 29.939 25.5835C29.7855 25.7344 29.6637 25.9145 29.581 26.1133C29.4982 26.312 29.4562 26.5253 29.4572 26.7406C29.4409 27.6011 30.2068 28.3018 31.0662 28.342C31.868 28.3779 32.7394 27.5935 32.6633 26.7656Z" fill="#FFB0B0"/>
<path d="M25.1414 19.1993H21.932C21.3065 19.1993 20.8637 18.8109 20.756 18.2039C20.4753 16.6155 20.1838 15.0294 19.8977 13.4421C19.7791 12.7894 19.9945 12.252 20.6592 11.9898C21.7305 11.5523 22.8636 11.2847 24.0175 11.1967C25.1609 11.1205 26.3076 11.0792 27.4281 11.3359C28.2384 11.5337 29.0374 11.7752 29.8215 12.0594C30.3024 12.2259 30.5537 12.7361 30.4481 13.3323C30.1544 15.0033 29.8389 16.6699 29.5136 18.3366C29.3983 18.9252 29.0175 19.2004 28.4149 19.2004L25.1414 19.1993ZM25.7081 12.2193H24.6202L23.2691 12.3466L22.2127 12.5979C21.8668 12.7154 21.523 12.8438 21.1727 12.9471C20.9431 13.0146 20.9268 13.1495 20.966 13.3507C21.1346 14.2341 21.2924 15.1197 21.4566 16.0041C21.5879 16.7106 21.7206 17.4173 21.8548 18.1245H28.479C28.7815 16.4828 29.0817 14.8684 29.3668 13.2517C29.3664 13.1969 29.3523 13.1431 29.3257 13.0952C29.2991 13.0473 29.2608 13.0068 29.2145 12.9776C28.8565 12.8329 28.4856 12.7208 28.1189 12.5968L27.0604 12.351L25.7081 12.2193Z" fill="#117077"/>
<path d="M17.6697 26.7156C17.6649 26.5062 17.7023 26.298 17.7797 26.1034C17.8571 25.9088 17.9729 25.7318 18.1202 25.5829C18.2676 25.434 18.4434 25.3164 18.6372 25.237C18.831 25.1576 19.0388 25.118 19.2482 25.1207C19.4608 25.1196 19.6715 25.1603 19.8682 25.2406C20.065 25.321 20.244 25.4393 20.3951 25.5888C20.5461 25.7383 20.6662 25.9161 20.7485 26.1121C20.8308 26.308 20.8737 26.5183 20.8747 26.7308C20.8899 27.6697 20.0261 28.354 19.2167 28.3431C18.4943 28.3344 17.5968 27.6719 17.6697 26.7156Z" fill="#C73B5D"/>
<path d="M32.6631 26.7657C32.7392 27.5936 31.8678 28.378 31.0661 28.341C30.2066 28.3007 29.4407 27.6001 29.457 26.7396C29.4561 26.5244 29.4983 26.3112 29.5811 26.1126C29.6639 25.914 29.7857 25.7339 29.9392 25.5832C30.0928 25.4324 30.2749 25.3139 30.475 25.2346C30.6751 25.1554 30.889 25.1171 31.1041 25.1219C31.9222 25.1284 32.7262 25.7996 32.6631 26.7657Z" fill="#C73B5D"/>
<path d="M28.1189 12.5979C28.4856 12.7219 28.8565 12.834 29.2145 12.9787C29.2608 13.0079 29.2991 13.0483 29.3257 13.0963C29.3523 13.1442 29.3664 13.198 29.3668 13.2528C29.0817 14.8695 28.7815 16.4839 28.479 18.1255H25.7125C25.7125 17.4554 25.7201 16.7842 25.7125 16.114C25.7125 15.7028 25.4895 15.4428 25.1609 15.4439C24.8324 15.445 24.617 15.7028 24.617 16.114C24.617 16.7842 24.617 17.4554 24.617 18.1255H21.8548C21.7206 17.4177 21.5879 16.7109 21.4566 16.0052C21.2934 15.1208 21.1303 14.2352 20.966 13.3518C20.9268 13.1506 20.9431 13.0157 21.1727 12.9482C21.523 12.8449 21.8668 12.7165 22.2127 12.599C22.2976 13.0189 22.3828 13.4389 22.4684 13.8588C22.5173 14.1003 22.6283 14.294 22.8872 14.3549C23.2734 14.4463 23.5922 14.158 23.5334 13.7391C23.4671 13.2746 23.3616 12.8144 23.2723 12.352L24.6235 12.2248C24.6235 12.7274 24.6235 13.23 24.63 13.7337C24.6377 14.1471 24.8324 14.3668 25.1664 14.3668C25.5004 14.3668 25.6951 14.1493 25.7038 13.7337C25.7125 13.23 25.7038 12.7274 25.7092 12.2248L27.0604 12.352C26.9756 12.7872 26.8831 13.2126 26.808 13.6456C26.7384 14.0448 26.9048 14.3146 27.2269 14.3625C27.5489 14.4104 27.7904 14.2211 27.8698 13.8283C27.954 13.4149 28.037 13.0048 28.1189 12.5979Z" fill="#FDFDFD"/>
<path d="M24.6203 18.1201C24.6203 17.45 24.6138 16.7787 24.6203 16.1086C24.6203 15.6974 24.8379 15.4384 25.1643 15.4384C25.4907 15.4384 25.7082 15.6974 25.7159 16.1086C25.7159 16.7787 25.7159 17.45 25.7159 18.1201H24.6203Z" fill="#C73B5D"/>
<path d="M25.7093 12.2193C25.7093 12.7219 25.7093 13.2245 25.7038 13.7282C25.6951 14.1405 25.4993 14.3614 25.1664 14.3614C24.8335 14.3614 24.6377 14.1438 24.6301 13.7282C24.6203 13.2245 24.6301 12.7219 24.6235 12.2193H25.7093Z" fill="#102D32"/>
<path d="M23.2725 12.3466C23.3617 12.809 23.4672 13.2692 23.5336 13.7337C23.5924 14.1525 23.2736 14.4408 22.8874 14.3494C22.6285 14.2885 22.5175 14.0949 22.4685 13.8534C22.3822 13.4334 22.297 13.0135 22.2129 12.5936L23.2725 12.3466Z" fill="#102D32"/>
<path d="M28.1191 12.5979C28.0365 13.0084 27.9534 13.4186 27.87 13.8283C27.7906 14.2211 27.5621 14.4115 27.2271 14.3625C26.892 14.3135 26.7386 14.0448 26.8082 13.6456C26.8833 13.2104 26.9757 12.7829 27.0606 12.3521L28.1191 12.5979Z" fill="#102D32"/>
</svg>
