<svg width="232" height="233" viewBox="0 0 232 233" fill="none" xmlns="http://www.w3.org/2000/svg">
<path d="M115.96 232.389C180.002 232.389 231.919 180.472 231.919 116.428C231.919 52.3845 180.002 0.467041 115.96 0.467041C51.9169 0.467041 0 52.3845 0 116.428C0 180.472 51.9169 232.389 115.96 232.389Z" fill="#F8E1E1"/>
<mask id="mask0_377_4703" style="mask-type:alpha" maskUnits="userSpaceOnUse" x="0" y="0" width="232" height="233">
<path d="M115.96 232.389C180.003 232.389 231.919 180.472 231.919 116.428C231.919 52.3845 180.003 0.467041 115.96 0.467041C51.917 0.467041 3.05176e-05 52.3845 3.05176e-05 116.428C3.05176e-05 180.472 51.917 232.389 115.96 232.389Z" fill="#F8E1E1"/>
</mask>
<g mask="url(#mask0_377_4703)">
<path opacity="0.5" d="M314.136 235.848C314.136 226.548 310.772 219.028 304.44 213.091C304.044 212.696 303.648 212.3 303.253 211.904C302.857 211.508 302.461 211.113 302.065 210.717C301.67 210.321 301.274 209.925 300.878 209.529C300.482 209.134 300.087 208.738 299.691 208.342C299.295 207.946 299.097 207.748 298.701 207.353C298.899 206.759 298.899 205.968 299.097 205.374C299.493 198.448 297.316 192.709 292.765 188.554C292.369 188.158 291.973 187.762 291.578 187.366C291.182 186.97 290.786 186.575 290.39 186.179C289.994 185.783 289.599 185.387 289.203 184.992C288.807 184.596 288.411 184.2 288.016 183.804C287.62 183.408 287.224 183.013 286.828 182.617C286.63 182.419 286.433 182.221 286.433 182.023C285.245 175.295 282.475 169.754 278.121 165.599C277.726 165.203 277.33 164.807 276.934 164.411C276.538 164.016 276.143 163.62 275.747 163.224C275.351 162.828 274.955 162.433 274.56 162.037C274.164 161.641 273.768 161.245 273.372 160.85C272.976 160.454 272.581 160.058 272.185 159.662C271.789 159.266 271.393 158.871 270.998 158.475C270.602 158.079 270.206 157.683 269.81 157.288C269.415 156.892 269.019 156.496 268.623 156.1C268.227 155.704 267.832 155.309 267.436 154.913C267.04 154.517 266.644 154.121 266.248 153.726C265.853 153.33 265.457 152.934 265.061 152.538C264.665 152.143 264.27 151.747 263.874 151.351C263.478 150.955 263.082 150.559 262.687 150.164C262.291 149.768 261.895 149.372 261.499 148.976C261.103 148.581 260.708 148.185 260.312 147.789C259.916 147.393 259.52 146.998 259.125 146.602C258.729 146.206 258.333 145.81 257.937 145.414C257.542 145.019 257.146 144.623 256.75 144.227C256.354 143.831 255.959 143.436 255.563 143.04C255.167 142.644 254.771 142.248 254.375 141.853C253.98 141.457 253.584 141.061 253.188 140.665C252.792 140.269 252.397 139.874 252.001 139.478C251.605 139.082 251.209 138.686 250.814 138.291C250.418 137.895 250.022 137.499 249.626 137.103C249.23 136.708 248.835 136.312 248.439 135.916C248.043 135.52 247.647 135.124 247.252 134.729C246.856 134.333 246.46 133.937 246.064 133.541C245.669 133.146 245.273 132.75 244.877 132.354C244.481 131.958 244.086 131.562 243.69 131.167C243.294 130.771 242.898 130.375 242.502 129.979C242.107 129.584 241.711 129.188 241.315 128.792C240.919 128.396 240.524 128.001 240.128 127.605C239.732 127.209 239.336 126.813 238.941 126.417C238.545 126.022 238.149 125.626 237.753 125.23C237.357 124.834 236.962 124.439 236.566 124.043C236.17 123.647 235.774 123.251 235.379 122.855C234.983 122.46 234.587 122.064 234.191 121.668C233.796 121.272 233.4 120.877 233.004 120.481C232.608 120.085 232.213 119.689 231.817 119.294C231.421 118.898 231.025 118.502 230.629 118.106C230.234 117.71 229.838 117.315 229.442 116.919C229.046 116.523 228.651 116.127 228.255 115.732C227.859 115.336 227.463 114.94 227.068 114.544C226.672 114.149 226.276 113.753 225.88 113.357C225.484 112.961 225.089 112.565 224.693 112.17C224.297 111.774 223.901 111.378 223.506 110.982C223.11 110.587 222.714 110.191 222.318 109.795C221.923 109.399 221.527 109.003 221.131 108.608C220.735 108.212 220.34 107.816 219.944 107.42C219.548 107.025 219.152 106.629 218.756 106.233C218.361 105.837 217.965 105.442 217.569 105.046C217.173 104.65 216.778 104.254 216.382 103.858C215.986 103.463 215.59 103.067 215.194 102.671C214.799 102.275 214.403 101.88 214.007 101.484C213.611 101.088 213.216 100.692 212.82 100.297C212.424 99.9008 212.028 99.505 211.633 99.1092C211.237 98.7134 210.841 98.3177 210.445 97.9219C210.05 97.5261 209.654 97.1303 209.258 96.7346C208.862 96.3388 208.467 95.9431 208.071 95.5473C207.675 95.1515 207.279 94.7557 206.883 94.36C206.488 93.9642 206.092 93.5684 205.696 93.1726C205.3 92.7769 204.905 92.3811 204.509 91.9853C204.113 91.5895 203.717 91.1938 203.321 90.798C202.926 90.4022 202.53 90.0065 202.134 89.6107C201.738 89.215 201.343 88.8192 200.947 88.4234C200.551 88.0276 200.155 87.6318 199.76 87.2361C199.364 86.8403 198.968 86.4445 198.572 86.0487C198.177 85.653 197.781 85.2572 197.385 84.8614C196.989 84.4656 196.594 84.0699 196.198 83.6742C195.802 83.2784 195.406 82.8826 195.01 82.4868C194.615 82.0911 194.219 81.6953 193.823 81.2995C193.427 80.9037 193.032 80.5079 192.636 80.1122C192.24 79.7164 191.844 79.3206 191.448 78.9248C191.053 78.5291 190.657 78.1334 190.261 77.7376C189.865 77.3418 189.47 76.946 189.074 76.5503C188.678 76.1545 188.282 75.7587 187.887 75.3629C187.491 74.9672 187.095 74.5714 186.699 74.1756C186.304 73.7798 185.908 73.384 185.512 72.9883C185.116 72.5925 184.721 72.1968 184.325 71.801C183.929 71.4052 183.533 71.0095 183.137 70.6137C182.742 70.2179 182.346 69.8221 181.95 69.4264C181.554 69.0306 181.159 68.6348 180.763 68.239C180.367 67.8433 179.971 67.4475 179.575 67.0517C179.18 66.6559 178.784 66.2602 178.388 65.8644C177.992 65.4687 177.597 65.0729 177.201 64.6771C176.805 64.2813 176.409 63.8856 176.014 63.4898C175.618 63.094 175.222 62.6982 174.826 62.3025C174.431 61.9067 174.035 61.5109 173.639 61.1151C173.243 60.7194 172.847 60.3236 172.452 59.9279C172.056 59.5321 171.66 59.1363 171.264 58.7405C170.869 58.3448 170.473 57.949 170.077 57.5532C169.681 57.1574 169.286 56.7617 168.89 56.3659C168.494 55.9701 168.098 55.5743 167.702 55.1786C167.307 54.7828 166.911 54.3871 166.515 53.9913C166.119 53.5955 165.724 53.1997 165.328 52.804C164.932 52.4082 164.536 52.0124 164.141 51.6166C163.745 51.2209 163.349 50.8251 162.953 50.4293C162.558 50.0335 162.162 49.6378 161.766 49.242C161.37 48.8462 160.974 48.4505 160.579 48.0547C160.183 47.659 159.787 47.2632 159.391 46.8674C156.621 44.097 153.257 41.7224 149.101 39.9414C146.727 38.952 144.154 38.5562 141.78 37.7646C139.405 37.7646 137.031 37.7647 134.458 37.9625C132.479 38.5562 130.5 38.952 128.522 39.7435C124.366 41.3266 120.804 43.7012 117.638 46.8674C117.242 47.2632 116.846 47.659 116.253 48.0547V47.8568C113.68 45.878 111.306 43.7012 108.733 41.7224C105.567 39.5456 102.005 38.5562 98.2455 37.9625C98.0476 37.9625 97.8496 37.7646 97.6518 37.7646C95.475 37.7646 93.2983 37.7646 90.9237 37.7646C88.747 38.3583 86.5703 38.7541 84.3936 39.3477C74.6973 43.1075 68.7608 50.2314 66.5841 60.5215C66.3862 61.1152 66.3862 61.9067 66.1883 62.6983C66.1883 63.6877 65.5947 64.4792 64.6053 64.875C58.6688 68.2391 54.909 73.1862 54.1174 79.9143C53.7217 82.2889 54.1174 84.6635 54.1174 87.0382C54.1174 87.6318 53.9196 88.2255 53.5238 88.4234C48.7746 91.5896 45.2127 95.3494 42.4423 100.297C40.6614 103.661 39.4741 107.223 39.0783 110.784C39.0783 111.18 38.8804 111.576 38.8804 111.972C38.8804 114.346 38.8804 116.523 38.8804 118.898C39.4741 120.679 39.8698 122.658 40.4635 124.439C42.0465 129.584 44.8169 133.937 48.5767 137.499C48.9725 137.895 49.3683 138.291 49.764 138.686C50.1598 139.082 50.5555 139.478 50.9513 139.874C51.347 140.269 51.7428 140.665 52.1386 141.061C52.5344 141.457 52.9301 141.852 53.3259 142.248C53.7217 142.644 54.1174 143.04 54.5132 143.436C54.5132 143.436 54.5132 143.436 54.5132 143.633C53.3259 150.362 55.1068 156.496 59.856 161.443C60.2518 161.839 60.4497 162.037 60.8454 162.433C60.8454 162.433 60.8455 162.433 61.0433 162.631C61.4391 163.026 61.637 163.224 62.0328 163.62C62.0328 163.62 62.0328 163.62 62.2306 163.818C62.6264 164.214 62.8243 164.412 63.2201 164.807C63.2201 164.807 63.2201 164.807 63.418 165.005C63.8137 165.401 64.0116 165.599 64.4074 165.995C64.4074 165.995 64.4074 165.995 64.6053 166.192C65.001 166.588 65.1989 166.786 65.5947 167.182C65.5947 167.182 65.5946 167.182 65.7925 167.38C66.1883 167.776 66.3862 167.973 66.7819 168.369C66.7819 168.369 66.782 168.369 66.9798 168.567L67.1777 168.765C68.1672 175.295 71.1354 181.034 75.8846 185.387C76.2804 185.783 76.6761 186.179 77.0719 186.575C77.4677 186.97 77.8635 187.366 78.2592 187.762C78.655 188.158 79.0508 188.554 79.4465 188.949C79.8423 189.345 80.238 189.741 80.6338 190.137C81.0295 190.532 81.4253 190.928 81.8211 191.324C82.2169 191.72 82.6126 192.116 83.0084 192.511C83.4042 192.907 83.8 193.303 84.1957 193.699C84.5915 194.094 84.9873 194.49 85.383 194.886C85.7788 195.282 86.1745 195.677 86.5703 196.073C86.9661 196.469 87.3618 196.865 87.7576 197.261C88.1534 197.656 88.5491 198.052 88.9449 198.448C89.3407 198.844 89.7365 199.239 90.1322 199.635C90.528 200.031 90.9238 200.427 91.3195 200.822C91.7153 201.218 92.111 201.614 92.5068 202.01C92.9026 202.406 93.2983 202.801 93.6941 203.197C94.0899 203.593 94.4856 203.989 94.8814 204.384C95.2772 204.78 95.673 205.176 96.0687 205.572C96.4645 205.967 96.8603 206.363 97.256 206.759C97.6518 207.155 98.0475 207.551 98.4433 207.946C98.8391 208.342 99.2348 208.738 99.6306 209.134C100.026 209.529 100.422 209.925 100.818 210.321C101.214 210.717 101.609 211.112 102.005 211.508C102.401 211.904 102.797 212.3 103.193 212.696C103.588 213.091 103.984 213.487 104.38 213.883C104.776 214.279 105.171 214.674 105.567 215.07C105.963 215.466 106.359 215.862 106.754 216.258C107.15 216.653 107.546 217.049 107.942 217.445C108.337 217.841 108.733 218.236 109.129 218.632C109.525 219.028 109.921 219.424 110.316 219.819C110.712 220.215 111.108 220.611 111.504 221.007C111.899 221.403 112.295 221.798 112.691 222.194C113.087 222.59 113.482 222.986 113.878 223.381C114.274 223.777 114.67 224.173 115.066 224.569C115.461 224.965 115.857 225.36 116.253 225.756C116.649 226.152 117.044 226.548 117.44 226.943C117.836 227.339 118.232 227.735 118.627 228.131C119.023 228.526 119.419 228.922 119.815 229.318C120.21 229.714 120.606 230.11 121.002 230.505C121.398 230.901 121.794 231.297 122.189 231.693C122.585 232.088 122.981 232.484 123.377 232.88C123.772 233.276 124.168 233.672 124.564 234.067C124.96 234.463 125.355 234.859 125.751 235.255C126.147 235.65 126.543 236.046 126.939 236.442C127.334 236.838 127.73 237.233 128.126 237.629C128.522 238.025 128.917 238.421 129.313 238.817C129.709 239.212 130.105 239.608 130.5 240.004C130.896 240.4 131.292 240.795 131.688 241.191C132.084 241.587 132.479 241.983 132.875 242.378C133.271 242.774 133.667 243.17 134.062 243.566C134.458 243.962 134.854 244.357 135.25 244.753C135.645 245.149 136.041 245.545 136.437 245.94C136.833 246.336 137.228 246.732 137.624 247.128C138.02 247.523 138.416 247.919 138.812 248.315C139.207 248.711 139.603 249.107 139.999 249.502C140.395 249.898 140.79 250.294 141.186 250.69C141.582 251.085 141.978 251.481 142.373 251.877C142.769 252.273 143.165 252.668 143.561 253.064C143.957 253.46 144.352 253.856 144.748 254.252C145.144 254.647 145.54 255.043 145.935 255.439C146.331 255.835 146.727 256.23 147.123 256.626C147.518 257.022 147.914 257.418 148.31 257.814C148.706 258.209 149.101 258.605 149.497 259.001C149.893 259.397 150.289 259.792 150.685 260.188C151.08 260.584 151.476 260.98 151.872 261.375C152.268 261.771 152.663 262.167 153.059 262.563C153.455 262.959 153.851 263.354 154.246 263.75C154.642 264.146 155.038 264.542 155.434 264.937C155.83 265.333 156.225 265.729 156.621 266.125C157.017 266.52 157.413 266.916 157.808 267.312C158.204 267.708 158.6 268.104 158.996 268.499C159.391 268.895 159.787 269.291 160.183 269.687C160.579 270.082 160.974 270.478 161.37 270.874C161.766 271.27 162.162 271.666 162.558 272.061C162.953 272.457 163.349 272.853 163.745 273.249C164.141 273.644 164.536 274.04 164.932 274.436C165.328 274.832 165.724 275.228 166.119 275.623C166.515 276.019 166.911 276.415 167.307 276.811C167.703 277.206 168.098 277.602 168.494 277.998C168.89 278.394 169.286 278.789 169.681 279.185C170.077 279.581 170.473 279.977 170.869 280.373C171.264 280.768 171.66 281.164 172.056 281.56C172.452 281.956 172.847 282.351 173.243 282.747C173.639 283.143 174.035 283.539 174.431 283.934C174.826 284.33 175.222 284.726 175.618 285.122C176.014 285.518 176.409 285.913 176.805 286.309C177.201 286.705 177.597 287.101 177.992 287.496C178.388 287.892 178.784 288.288 179.18 288.684C179.576 289.079 179.971 289.475 180.367 289.871C180.763 290.267 181.159 290.663 181.554 291.058C181.95 291.454 182.346 291.85 182.742 292.246C183.137 292.641 183.533 293.037 183.929 293.433C184.325 293.829 184.72 294.224 185.116 294.62C185.512 295.016 185.908 295.412 186.304 295.808C186.699 296.203 187.095 296.599 187.491 296.995C187.887 297.391 188.282 297.786 188.678 298.182C189.074 298.578 189.47 298.974 189.865 299.37C190.261 299.765 190.657 300.161 191.053 300.557C191.449 300.953 191.844 301.348 192.24 301.744C192.636 302.14 193.032 302.536 193.427 302.931C193.823 303.327 194.219 303.723 194.615 304.119C198.77 308.472 204.311 311.638 210.643 312.628C211.237 312.628 211.83 312.826 212.424 313.024C214.403 313.024 216.382 313.024 218.559 313.024C220.142 312.628 221.725 312.43 223.11 311.836C228.057 310.451 232.213 307.879 235.774 304.119C236.17 303.723 236.566 303.327 236.962 302.931C237.16 303.129 237.357 303.327 237.555 303.525C240.128 306.098 242.898 308.67 246.262 310.055C248.835 311.243 251.803 311.836 254.375 312.826C254.573 313.024 254.969 313.024 255.167 313.222C257.542 313.222 259.916 313.222 262.489 313.222C262.687 313.222 262.884 313.024 263.082 313.024C271.591 311.836 278.121 307.483 282.871 300.557C285.443 296.797 286.828 292.444 287.422 287.892C287.422 287.298 288.016 286.705 288.609 286.309C291.775 284.528 294.348 282.351 296.129 279.383C299.295 274.238 300.284 268.895 299.097 262.959C308.793 256.428 314.136 247.523 314.136 235.848Z" fill="#FFA5A9"/>
</g>
<path d="M90.8285 37.2737C93.0052 37.2737 95.1819 37.2737 97.5565 37.2737C97.7544 37.2737 97.9523 37.4716 98.1502 37.4716C101.91 38.0652 105.472 39.0547 108.638 41.2314C111.21 43.0124 113.783 45.1891 116.158 47.3659C116.158 54.4898 116.158 61.6136 116.158 68.9354C117.741 67.7481 118.532 66.7587 118.928 65.1756C119.324 63.1967 119.522 61.02 120.115 59.239C122.886 50.9278 131.988 45.1891 140.893 46.5743C148.808 47.7617 155.338 53.8961 157.119 61.4158C157.317 62.6031 156.922 62.8009 155.932 62.9988C152.964 63.3946 150.391 64.5819 148.017 66.165C146.236 67.3523 145.444 69.3312 145.84 71.1122C146.632 74.4762 150.391 75.4657 153.162 73.6847C156.922 71.1122 161.077 71.1122 164.837 73.6847C168.597 76.2572 169.784 80.0171 169.388 84.5684C165.431 83.9748 161.473 83.7769 157.515 84.3705C154.151 84.7663 152.172 87.7346 153.36 90.505C154.349 92.8796 156.328 93.869 159.098 93.2754C163.847 92.4838 168.399 93.0775 172.554 95.0563C180.865 99.2119 185.615 109.106 184.229 117.813C183.042 124.541 179.876 129.686 174.335 133.644C173.148 134.436 172.356 134.238 171.367 133.446C168.201 130.874 164.441 129.686 160.286 129.686C157.713 129.686 155.734 131.665 155.536 134.238C155.536 136.612 157.713 138.789 160.088 138.789C162.858 138.789 165.035 139.976 167.014 141.955C170.773 145.913 169.388 152.839 164.639 155.412C161.671 156.995 158.9 156.995 155.932 155.412C153.36 154.224 150.787 155.016 149.6 157.588C148.413 159.765 149.402 162.338 151.974 163.525C153.755 164.316 155.536 164.91 157.119 165.702C157.119 166.097 156.922 166.493 156.922 166.889C156.328 171.242 154.151 175.2 150.985 178.168C146.434 182.324 140.893 184.105 134.561 182.918C128.822 181.928 124.469 178.96 121.303 174.211C120.907 173.617 120.907 172.825 121.105 172.034C121.303 170.253 121.896 168.472 122.292 166.493C123.083 160.754 119.719 158.776 115.96 159.765C115.96 155.412 115.96 151.058 115.96 146.705C117.939 146.507 119.917 146.507 121.698 146.111C140.497 142.549 151.974 123.75 146.632 105.346C142.872 92.8796 131.395 82.5896 115.96 82.3917C115.96 77.8403 115.96 73.4868 115.96 68.9354C115.564 68.9354 115.366 68.7375 115.168 68.9354C112.002 69.7269 109.43 66.5608 109.825 63.7904C110.023 62.0095 110.221 60.0306 110.815 58.2496C111.408 56.4686 111.013 55.2813 110.023 54.094C109.232 53.3024 108.638 52.313 107.846 51.5215C103.097 47.168 97.3586 45.1891 90.8285 46.3764C81.528 47.9595 74.7999 56.0729 74.7999 65.3735C74.7999 69.5291 76.1851 73.2889 78.3619 76.653C80.1428 79.2255 78.5597 82.5896 75.5914 83.3811C73.4147 83.9748 71.4359 82.9853 70.0507 80.6107C68.8634 78.434 67.6761 76.0593 66.4888 73.6847C62.7291 76.653 61.3439 82.3916 63.3227 86.7451C64.9058 90.1092 64.1142 92.2859 60.7502 93.869C57.9798 95.2542 55.6053 96.8373 53.6264 99.0141C48.4815 104.753 46.5026 111.283 48.0857 118.803C49.0751 124.146 51.8454 128.499 56.1989 131.467C60.7502 134.831 65.8952 136.217 71.4359 135.623C73.4148 135.425 74.602 136.019 75.7893 137.404C76.9766 138.789 76.9767 140.372 76.1851 141.955C74.9978 144.33 72.8211 144.726 70.6444 144.726C68.2697 144.726 66.093 144.528 63.7184 144.132C62.9269 144.132 62.3333 144.33 62.5312 145.121C62.7291 146.705 62.729 148.288 63.1248 149.871C64.3121 153.828 67.0825 156.203 71.0401 157.39C73.6126 158.182 74.4041 159.567 74.602 162.338C74.7999 164.514 74.9978 166.493 75.3936 168.472C77.9661 178.168 88.4539 184.303 98.1502 181.928C106.857 179.949 113.189 172.232 113.189 163.129C113.189 161.15 114.377 159.567 115.96 159.369C115.96 166.691 115.96 174.013 115.96 181.335C115.564 181.73 114.97 182.126 114.574 182.72C111.013 186.48 106.857 188.854 101.91 190.437C100.327 190.833 98.7438 191.229 97.3586 191.625C95.3798 191.625 93.401 191.625 91.2243 191.625C90.6306 191.427 90.0369 191.427 89.4433 191.229C76.9766 189.052 67.2803 179.158 65.6973 166.493C65.4994 165.504 65.1036 164.91 64.1142 164.316C62.3333 163.129 60.3544 161.942 58.7713 160.359C54.22 155.214 52.2412 149.277 53.4285 142.549C53.6264 141.56 53.2307 140.966 52.637 140.57C46.5026 136.414 42.1492 130.874 39.9724 123.75C39.3788 121.969 38.983 119.99 38.3894 118.209C38.3894 115.834 38.3894 113.658 38.3894 111.283C38.3894 110.887 38.5873 110.491 38.5873 110.096C38.983 106.336 40.1703 102.774 41.9513 99.6077C44.5237 94.6606 48.2835 90.7028 53.0327 87.7346C53.4285 87.5367 53.6264 86.7452 53.6264 86.3494C53.6264 83.9748 53.2307 81.6001 53.6264 79.2255C54.6158 72.4974 58.1777 67.3523 64.1142 64.1862C65.1036 63.5925 65.4994 62.9988 65.6973 62.0094C65.6973 61.4157 65.8952 60.6243 66.0931 59.8327C68.2698 49.7405 74.4042 42.6166 83.9026 38.6589C86.2772 38.461 88.6518 38.0652 90.8285 37.2737Z" fill="#FECCBD"/>
<path d="M141.487 37.2737C143.861 37.8673 146.434 38.461 148.808 39.4504C158.702 43.606 164.639 51.1257 166.222 61.8115C166.42 62.9989 166.816 63.9883 168.003 64.7798C175.523 69.3312 178.887 76.0593 178.491 84.7662C178.491 85.7557 178.095 86.7451 178.095 87.7345C187.791 94.2647 193.332 103.17 193.332 115.043C193.332 126.916 187.791 135.821 178.095 142.153C179.282 148.09 178.491 153.433 175.127 158.578C173.148 161.546 170.575 163.723 167.607 165.504C167.211 165.702 166.618 166.493 166.42 167.087C165.826 171.638 164.441 175.992 161.869 179.751C157.119 186.677 150.589 191.229 142.08 192.218C141.882 192.218 141.685 192.416 141.487 192.416C139.112 192.416 136.737 192.416 134.165 192.416C133.967 192.218 133.571 192.218 133.373 192.02C130.603 191.229 127.833 190.437 125.26 189.25C121.698 187.667 118.928 185.094 116.158 182.126C116.158 174.804 116.158 167.482 116.158 160.161V159.963C119.917 158.775 123.281 160.754 122.49 166.691C122.292 168.472 121.698 170.253 121.303 172.232C121.105 172.825 121.303 173.815 121.5 174.408C124.667 179.356 129.02 182.126 134.759 183.115C141.091 184.303 146.632 182.522 151.183 178.366C154.547 175.398 156.526 171.638 157.119 167.087C157.119 166.691 157.317 166.295 157.317 165.899C155.536 165.306 153.755 164.514 152.172 163.723C149.6 162.535 148.61 159.963 149.798 157.786C150.985 155.214 153.558 154.422 156.13 155.609C159.098 156.995 161.869 157.192 164.837 155.609C169.586 153.037 170.773 146.111 167.211 142.153C165.431 140.174 163.254 138.987 160.286 138.987C157.911 138.987 155.734 136.81 155.734 134.436C155.734 131.863 157.713 129.884 160.483 129.884C164.639 129.884 168.201 131.072 171.565 133.644C172.554 134.436 173.346 134.436 174.533 133.842C180.074 129.884 183.24 124.739 184.427 118.011C185.812 109.502 181.063 99.4098 172.752 95.2542C168.399 93.0775 164.045 92.6817 159.296 93.4733C156.526 93.869 154.547 93.0774 153.558 90.7028C152.37 87.9324 154.349 84.9642 157.713 84.5684C161.671 83.9747 165.628 84.1726 169.586 84.7662C169.982 80.2149 168.795 76.455 165.035 73.8825C161.275 71.31 157.119 71.5079 153.36 73.8825C150.589 75.6635 146.829 74.6741 146.038 71.31C145.642 69.5291 146.434 67.5502 148.215 66.3629C150.589 64.7798 153.162 63.5925 156.13 63.1967C157.119 62.9988 157.515 62.801 157.317 61.6137C155.536 54.094 149.204 47.9595 141.091 46.7722C132.186 45.387 123.083 50.9278 120.313 59.4369C119.719 61.4158 119.324 63.3946 119.126 65.3735C118.928 66.9566 117.939 67.946 116.355 69.1333C116.355 61.6136 116.355 54.4898 116.355 47.5638C116.751 47.168 117.147 46.7722 117.741 46.3764C120.907 43.2103 124.469 40.8356 128.624 39.2525C130.603 38.6589 132.582 38.0652 134.561 37.4716C136.737 37.2737 139.112 37.2737 141.487 37.2737Z" fill="#FEBEAA"/>
<path d="M116.158 159.963V160.161C114.574 160.557 113.585 162.14 113.387 163.921C113.387 172.825 107.055 180.543 98.3481 182.72C88.6518 184.897 78.164 178.96 75.5915 169.264C74.9978 167.285 74.8 165.108 74.8 163.129C74.6021 160.557 73.8106 158.973 71.2381 158.182C67.4783 156.995 64.7079 154.62 63.3228 150.662C62.927 149.079 62.927 147.496 62.7291 145.913C62.7291 145.121 63.1248 144.726 63.9164 144.924C66.291 145.121 68.4677 145.517 70.8423 145.517C73.019 145.517 75.1958 145.121 76.3831 142.747C77.1746 141.164 76.9767 139.581 75.9873 138.195C74.9979 136.81 73.6127 136.019 71.6338 136.414C66.0931 137.008 60.9482 135.623 56.3968 132.259C52.0434 129.093 49.273 124.739 48.2836 119.594C46.7005 112.075 48.6794 105.544 53.8243 99.8056C55.8032 97.6289 58.3756 96.0458 60.9481 94.6606C64.3121 93.0775 64.9058 90.9008 63.5207 87.5367C61.5418 83.1832 62.927 77.4445 66.6867 74.4762C67.874 76.8509 68.8635 79.0276 70.2487 81.4022C71.6339 83.7769 73.6127 84.7663 75.7894 84.1726C78.7576 83.3811 80.1428 80.017 78.5597 77.4445C76.383 73.8826 74.9979 70.3206 74.9979 66.165C74.9979 56.8644 81.9238 48.751 91.0264 47.168C97.5566 45.9806 103.097 47.9595 108.044 52.313C108.836 53.1045 109.627 54.094 110.221 54.8856C111.21 56.0729 111.606 57.2601 111.013 59.0411C110.419 60.8221 110.221 62.6031 110.023 64.5819C109.627 67.3523 112.2 70.5185 115.366 69.727C115.564 69.727 115.762 69.727 116.158 69.727C116.158 74.2784 116.158 78.8297 116.158 83.1832C113.387 83.579 110.419 83.579 107.846 84.3705C91.4222 88.9219 81.7259 104.555 84.6941 121.375C87.2666 136.217 101.316 147.694 116.158 147.298C116.158 151.454 116.158 155.807 116.158 159.963Z" fill="#FEDDCE"/>
<path d="M116.158 82.7874C131.592 82.9852 143.07 93.2753 146.829 105.742C152.37 123.948 140.695 142.945 121.896 146.507C119.917 146.902 117.939 146.902 116.158 147.1C116.158 142.351 116.158 137.404 116.158 132.655C119.126 132.259 120.709 130.676 120.709 127.707C120.709 125.135 120.709 122.365 120.709 119.594C123.479 119.594 126.25 119.594 129.02 119.594C131.79 119.594 133.769 117.813 133.769 115.043C133.769 112.47 131.79 110.491 129.02 110.491C126.25 110.491 123.677 110.491 120.709 110.491C120.709 107.721 120.709 104.951 120.709 102.378C120.709 99.4098 119.126 97.8267 116.158 97.4309C116.158 92.4838 116.158 87.7345 116.158 82.7874Z" fill="#C1136B"/>
<path d="M116.158 132.655C116.158 137.404 116.158 142.351 116.158 147.1C101.316 147.496 87.2666 135.821 84.6941 121.177C81.7259 104.357 91.4222 88.724 107.846 84.1727C110.419 83.3811 113.387 83.3811 116.158 82.9854C116.158 87.7346 116.158 92.6818 116.158 97.431C112.991 97.8268 111.606 99.6077 111.606 102.774C111.606 105.346 111.606 107.919 111.606 110.491C108.638 110.491 106.066 110.491 103.295 110.491C101.316 110.491 99.9312 111.283 99.1396 113.064C97.7545 116.032 99.9311 119.396 103.295 119.396C106.066 119.396 108.836 119.396 111.804 119.396C111.804 122.167 111.804 124.739 111.804 127.114C111.606 130.478 112.991 132.061 116.158 132.655Z" fill="#FE405C"/>
<path d="M116.158 132.654C112.991 132.259 111.606 130.478 111.606 127.312C111.606 124.739 111.606 122.167 111.606 119.594C108.836 119.594 105.868 119.594 103.097 119.594C99.7332 119.594 97.5565 116.032 98.9417 113.262C99.7332 111.481 101.316 110.689 103.097 110.689C105.868 110.689 108.44 110.689 111.408 110.689C111.408 108.117 111.408 105.544 111.408 102.972C111.408 99.8054 112.794 98.2223 115.96 97.6287C118.928 98.0244 120.511 99.6075 120.511 102.576C120.511 105.148 120.511 107.919 120.511 110.689C123.281 110.689 126.052 110.689 128.822 110.689C131.592 110.689 133.571 112.47 133.571 115.241C133.571 117.813 131.592 119.792 128.822 119.792C126.052 119.792 123.479 119.792 120.511 119.792C120.511 122.562 120.511 125.333 120.511 127.905C120.709 130.478 119.126 132.259 116.158 132.654Z" fill="#F5EDE9"/>
</svg>
