<svg width="232" height="232" viewBox="0 0 232 232" fill="none" xmlns="http://www.w3.org/2000/svg">
<path d="M115.96 231.922C180.002 231.922 231.919 180.005 231.919 115.961C231.919 51.9175 180.002 0 115.96 0C51.9169 0 0 51.9175 0 115.961C0 180.005 51.9169 231.922 115.96 231.922Z" fill="#F8E1E1"/>
<mask id="mask0_377_4662" style="mask-type:alpha" maskUnits="userSpaceOnUse" x="0" y="0" width="232" height="232">
<path d="M115.96 231.922C180.003 231.922 231.919 180.005 231.919 115.961C231.919 51.9175 180.003 0 115.96 0C51.917 0 3.05176e-05 51.9175 3.05176e-05 115.961C3.05176e-05 180.005 51.917 231.922 115.96 231.922Z" fill="#F8E1E1"/>
</mask>
<g mask="url(#mask0_377_4662)">
<path opacity="0.5" d="M225.011 112.803C224.814 112.605 224.418 112.209 224.22 112.011C224.022 111.813 223.824 111.615 223.428 111.219L223.23 111.022C223.033 110.824 223.033 110.824 222.835 110.626L222.637 110.428C222.439 110.23 222.439 110.23 222.241 110.032L222.043 109.834C221.845 109.636 221.647 109.438 221.45 109.241L221.252 109.043C221.054 108.845 221.054 108.845 220.856 108.647L220.658 108.449C220.46 108.251 220.46 108.251 220.262 108.053L220.064 107.855C219.866 107.657 219.867 107.657 219.669 107.46L219.471 107.262C219.273 107.064 219.273 107.064 219.075 106.866L218.877 106.668C218.679 106.47 218.679 106.47 218.481 106.272L218.283 106.074C218.086 105.877 218.086 105.877 217.888 105.679L217.69 105.481C217.492 105.283 217.492 105.283 217.294 105.085L217.096 104.887C216.898 104.689 216.898 104.689 216.7 104.491L216.502 104.293C216.305 104.096 216.305 104.096 216.107 103.898L215.909 103.7C215.711 103.502 215.711 103.502 215.513 103.304L215.315 103.106C215.117 102.908 215.117 102.908 214.919 102.71L214.722 102.512C214.524 102.315 214.524 102.315 214.326 102.117L214.128 101.919C213.93 101.721 213.93 101.721 213.732 101.523L213.534 101.325C213.336 101.127 213.336 101.127 213.138 100.929L212.941 100.731C212.743 100.534 212.743 100.534 212.545 100.336L212.347 100.138C212.149 99.9399 212.149 99.9399 211.951 99.742L211.753 99.5442C211.555 99.3463 211.555 99.3463 211.357 99.1484L211.16 98.9505C210.962 98.7526 210.962 98.7526 210.764 98.5547L210.566 98.3569C210.368 98.159 210.368 98.159 210.17 97.9611L209.972 97.7632C209.774 97.5653 209.774 97.5653 209.577 97.3674L209.379 97.1695C209.181 96.9717 209.181 96.9716 208.983 96.7738L208.785 96.5759C208.587 96.378 208.587 96.378 208.389 96.1801L208.191 95.9822C207.993 95.7843 207.993 95.7843 207.796 95.5864L207.598 95.3886C207.4 95.1907 207.4 95.1907 207.202 94.9928L207.004 94.7949C206.806 94.597 206.806 94.597 206.608 94.3991L206.41 94.2013C206.213 94.0034 206.213 94.0034 206.015 93.8055L205.817 93.6076C205.619 93.4097 205.619 93.4097 205.421 93.2118L205.223 93.0139C205.025 92.8161 205.025 92.816 204.827 92.6182L204.629 92.4203C204.432 92.2224 204.432 92.2224 204.234 92.0245L204.036 91.8266C203.838 91.6287 203.838 91.6287 203.64 91.4309L203.442 91.233C203.244 91.0351 203.244 91.0351 203.046 90.8372L202.849 90.6393C202.651 90.4414 202.651 90.4414 202.453 90.2435L202.255 90.0457C202.057 89.8478 202.057 89.8478 201.859 89.6499L201.661 89.452C201.463 89.2541 201.463 89.2541 201.265 89.0562L201.068 88.8583C200.87 88.6604 200.87 88.6605 200.672 88.4626L200.474 88.2647C200.276 88.0668 200.276 88.0668 200.078 87.8689L199.88 87.671C199.682 87.4731 199.682 87.4731 199.484 87.2753L199.287 87.0774C199.089 86.8795 199.089 86.8795 198.891 86.6816L198.693 86.4837C198.495 86.2858 198.495 86.2858 198.297 86.0879L198.099 85.89C197.901 85.6922 197.901 85.6922 197.704 85.4943L197.506 85.2964C197.308 85.0985 197.308 85.0985 197.11 84.9006L196.912 84.7027C196.714 84.5048 196.714 84.5049 196.516 84.307L196.318 84.1091C196.12 83.9112 196.12 83.9112 195.923 83.7133L195.725 83.5154C195.527 83.3175 195.527 83.3175 195.329 83.1197L195.131 82.9218C194.933 82.7239 194.933 82.7239 194.735 82.526L194.537 82.3281C194.34 82.1302 194.339 82.1302 194.142 81.9323L193.944 81.7344C193.746 81.5366 193.746 81.5366 193.548 81.3387L193.35 81.1408C193.152 80.9429 193.152 80.9429 192.954 80.745L192.756 80.5471C192.559 80.3493 192.559 80.3493 192.361 80.1514L192.163 79.9535C191.965 79.7556 191.965 79.7556 191.767 79.5577L191.569 79.3598C191.371 79.1619 191.371 79.1619 191.173 78.964L190.976 78.7662C190.778 78.5683 190.778 78.5683 190.58 78.3704L190.382 78.1725C190.184 77.9746 190.184 77.9746 189.986 77.7767L189.788 77.5789C189.59 77.381 189.59 77.381 189.392 77.1831L189.195 76.9852C188.997 76.7873 188.997 76.7873 188.799 76.5894L188.601 76.3915C188.403 76.1937 188.403 76.1936 188.205 75.9958L188.007 75.7979C187.809 75.6 187.809 75.6 187.611 75.4021L187.414 75.2042C187.216 75.0063 187.216 75.0063 187.018 74.8084L186.82 74.6106C186.622 74.4127 186.424 74.2148 186.226 74.0169L186.028 73.819C185.831 73.6211 185.831 73.6211 185.633 73.4233C185.435 73.2254 185.435 73.2254 185.237 73.0275C185.039 72.8296 185.039 72.8296 184.841 72.6317C184.643 72.4338 184.445 72.2359 184.05 71.8402L183.852 71.6423C183.654 71.4444 183.654 71.4444 183.456 71.2465L183.258 71.0486C183.06 70.8507 183.06 70.8507 182.862 70.6529L182.664 70.455C182.467 70.2571 182.466 70.2571 182.269 70.0592C182.071 69.8613 181.873 69.6634 181.477 69.2677L181.279 69.0698C181.081 68.8719 181.081 68.8719 180.883 68.674L180.686 68.4761C180.488 68.2782 180.488 68.2782 180.29 68.0803L180.092 67.8824C179.894 67.6846 179.894 67.6846 179.696 67.4867L179.498 67.2888C179.3 67.0909 179.3 67.0909 179.103 66.893L178.905 66.6951C178.707 66.4973 178.707 66.4973 178.509 66.2994L178.311 66.1015C178.113 65.9036 178.113 65.9036 177.915 65.7057L177.717 65.5078C177.519 65.3099 177.519 65.3099 177.322 65.112L177.124 64.9142C176.926 64.7163 176.926 64.7163 176.728 64.5184L176.53 64.3205C176.332 64.1226 176.332 64.1226 176.134 63.9247L175.936 63.7268C175.738 63.529 175.738 63.529 175.541 63.3311L175.343 63.1332C175.145 62.9353 175.145 62.9353 174.947 62.7374L174.749 62.5395C174.551 62.3417 174.551 62.3416 174.353 62.1438L174.155 61.9459C173.958 61.748 173.958 61.748 173.76 61.5501L173.562 61.3522C173.364 61.1543 173.364 61.1543 173.166 60.9564L172.968 60.7586C172.77 60.5607 172.77 60.5607 172.572 60.3628L172.374 60.1649C172.177 59.967 172.177 59.967 171.979 59.7691L171.781 59.5713C171.583 59.3734 171.583 59.3734 171.385 59.1755L171.187 58.9776C170.989 58.7797 170.989 58.7797 170.791 58.5818L170.594 58.3839C170.396 58.1861 170.396 58.186 170.198 57.9882L170 57.7903C169.802 57.5924 169.802 57.5924 169.604 57.3945L169.406 57.1966C169.208 56.9987 169.208 56.9987 169.01 56.8008L168.813 56.603C168.615 56.4051 168.615 56.4051 168.417 56.2072L168.219 56.0093C168.021 55.8114 168.021 55.8114 167.823 55.6135L167.625 55.4157C167.427 55.2178 167.427 55.2178 167.23 55.0199L167.032 54.822C166.834 54.6241 166.834 54.6241 166.636 54.4262L166.438 54.2283C166.24 54.0304 166.24 54.0304 166.042 53.8326L165.844 53.6347C165.646 53.4368 165.646 53.4368 165.449 53.2389L165.251 53.041C165.053 52.8431 165.053 52.8431 164.855 52.6453L164.657 52.4474C164.459 52.2495 164.459 52.2495 164.261 52.0516L164.063 51.8537C163.865 51.6558 163.865 51.6558 163.668 51.4579L163.47 51.26C163.272 51.0622 163.074 50.8643 162.876 50.6664L162.678 50.4685C162.48 50.2706 162.085 49.8749 161.887 49.677C159.71 49.0833 157.731 49.0833 156.148 50.8643C152.982 54.2283 149.618 57.3945 146.452 60.5607C146.056 60.5607 145.858 60.5607 145.462 60.5607C143.088 59.967 140.713 59.1755 138.141 58.5818C137.943 58.3839 137.745 58.186 137.349 57.7903C137.151 57.3945 136.755 57.1966 136.558 56.9987C136.36 56.603 135.964 56.4051 135.766 56.2072C135.568 55.8114 135.172 55.6135 134.974 55.4157C134.777 55.0199 134.381 54.822 134.183 54.6241C133.985 54.2283 133.589 54.0304 133.391 53.8326C133.194 53.4368 132.798 53.2389 132.6 53.041C132.402 52.6452 132.006 52.4474 131.808 52.2495C131.61 51.8537 131.215 51.6558 131.017 51.4579C130.819 51.0622 130.423 50.8643 130.225 50.6664C130.027 50.2706 129.632 50.0727 129.434 49.8748C129.236 49.4791 128.84 49.2812 128.642 49.0833C128.444 48.6875 128.049 48.4896 127.851 48.2918C127.653 47.896 127.257 47.6981 127.059 47.5002C126.861 47.1045 126.466 46.9066 126.268 46.7087C126.07 46.3129 125.674 46.115 125.476 45.9171C125.278 45.5214 124.882 45.3235 124.685 45.1256C124.487 44.7298 124.091 44.5319 123.893 44.334C123.695 43.9383 123.299 43.7404 123.101 43.5425C122.904 43.1467 122.508 42.9489 122.31 42.751C122.112 42.3552 121.716 42.1573 121.518 41.9594C121.321 41.5636 120.925 41.3658 120.727 41.1679C120.529 40.7721 120.133 40.5742 119.935 40.3763C119.737 39.9806 119.342 39.7827 119.144 39.5848C118.946 39.189 118.55 38.9911 118.352 38.7932C118.154 38.3975 117.759 38.1996 117.561 38.0017C117.363 37.6059 116.967 37.408 116.769 37.2102C116.571 36.8144 116.176 36.6165 115.978 36.4186C115.78 36.0228 115.384 35.825 115.186 35.6271C114.988 35.2313 114.593 35.0334 114.395 34.8355C113.207 33.4503 111.426 32.8567 109.645 33.2524C107.271 33.8461 105.688 36.2207 106.479 38.7932C107.864 44.5319 109.448 50.0727 111.031 55.8114C104.105 62.7374 96.9809 69.8613 90.055 76.7873C88.4719 78.1725 88.0761 79.9535 88.6698 81.9323C89.4613 84.7027 90.055 87.2753 90.8465 90.0457C92.6275 96.9717 94.4084 103.7 96.1893 110.626C96.3872 111.022 96.5851 111.417 96.5851 111.813C96.3872 111.417 96.1893 111.022 96.1893 110.626C89.6592 117.156 83.3269 123.488 76.7968 130.019C69.0793 127.842 61.164 125.863 53.4465 123.686C50.4783 122.895 48.1037 124.28 47.3121 126.852C46.7185 128.633 47.3121 130.414 48.8952 131.602C49.0931 131.8 49.2909 132.195 49.6867 132.393C49.8846 132.591 50.0825 132.987 50.4783 133.185C50.6762 133.383 50.8741 133.778 51.2698 133.976C51.4677 134.174 51.6656 134.57 52.0613 134.768C52.2592 134.966 52.4571 135.361 52.8529 135.559C53.0507 135.757 53.2486 136.153 53.6444 136.351C53.8423 136.549 54.0402 136.945 54.436 137.142C54.6338 137.34 54.8317 137.736 55.2275 137.934C55.4254 138.132 55.6232 138.528 56.019 138.726C56.2169 138.923 56.4148 139.319 56.8105 139.517C57.0084 139.715 57.2063 140.111 57.6021 140.309C57.7999 140.507 57.9979 140.902 58.3936 141.1C58.5915 141.298 58.7894 141.694 59.1852 141.892C59.383 142.09 59.5809 142.485 59.9767 142.683C60.1746 142.881 60.3724 143.277 60.7682 143.475C60.9661 143.673 61.164 144.068 61.5597 144.266C61.7576 144.464 61.9555 144.86 62.3513 145.058C62.5492 145.256 62.7471 145.652 63.1428 145.849C63.3407 146.047 63.5386 146.443 63.9343 146.641C64.1322 146.839 64.3301 147.235 64.7259 147.433C64.9238 147.63 65.1216 148.026 65.5174 148.224C65.7153 148.422 65.9132 148.818 66.309 149.016C66.5069 149.213 66.7047 149.609 67.1005 149.807C67.2984 150.005 67.4962 150.401 67.892 150.599C68.0899 150.797 68.2878 151.192 68.6835 151.39C68.8814 151.588 69.0793 151.984 69.4751 152.182C69.6729 152.38 69.8709 152.775 70.2666 152.973C70.4645 153.171 70.6624 153.567 71.0582 153.765C71.256 153.963 71.4539 154.359 71.8497 154.556C72.0476 154.754 72.2454 155.15 72.6412 155.348C72.8391 155.546 73.037 155.942 73.4327 156.139C73.6306 156.337 73.8285 156.733 74.2243 156.931C74.4222 157.129 74.6201 157.525 75.0158 157.723C75.2137 157.92 75.4116 158.316 75.8074 158.514C76.0052 158.712 76.2031 159.108 76.5989 159.306C76.7968 159.504 76.9946 159.899 77.3904 160.097C77.5883 160.295 77.7862 160.691 78.182 160.889C78.3799 161.087 78.5777 161.482 78.9735 161.68C79.1714 161.878 79.3693 162.274 79.765 162.472C79.9629 162.67 80.1608 163.065 80.5565 163.263C80.7544 163.461 80.7544 163.659 80.9523 163.857C81.1502 164.451 81.3481 165.044 81.3481 165.638C78.1819 168.804 74.8179 171.97 71.6518 175.334C69.673 177.313 69.8708 180.084 71.6518 181.865C71.8497 182.063 71.8497 182.062 72.0476 182.26C72.2455 182.458 72.2454 182.458 72.4433 182.656C72.6412 182.854 72.6412 182.854 72.8391 183.052C73.037 183.25 73.037 183.25 73.2349 183.448C73.4328 183.646 73.4327 183.646 73.6306 183.843C73.8285 184.041 73.8285 184.041 74.0264 184.239C74.2243 184.437 74.2243 184.437 74.4221 184.635C74.62 184.833 74.6201 184.833 74.8179 185.031C75.0158 185.229 75.0158 185.229 75.2137 185.427C75.4116 185.624 75.4116 185.624 75.6095 185.822C75.8073 186.02 75.8074 186.02 76.0052 186.218C76.2031 186.416 76.2031 186.416 76.401 186.614C76.5989 186.812 76.5989 186.812 76.7968 187.01C76.9947 187.208 76.9947 187.208 77.1926 187.405C77.3904 187.603 77.3904 187.603 77.5883 187.801C77.7862 187.999 77.7862 187.999 77.9841 188.197C78.182 188.395 78.1819 188.395 78.3798 188.593C78.5777 188.791 78.5777 188.791 78.7756 188.989C78.9735 189.186 78.9735 189.186 79.1714 189.384C79.3693 189.582 79.3692 189.582 79.5671 189.78C79.765 189.978 79.765 189.978 79.9629 190.176C80.1608 190.374 80.1608 190.374 80.3586 190.572C80.5565 190.769 80.5566 190.769 80.7544 190.967C80.9523 191.165 80.9523 191.165 81.1502 191.363C81.3481 191.561 81.3481 191.561 81.546 191.759C81.7438 191.957 81.7439 191.957 81.9417 192.155C82.1396 192.353 82.1396 192.353 82.3375 192.55C82.5354 192.748 82.5354 192.748 82.7333 192.946C82.9312 193.144 82.9312 193.144 83.1291 193.342C83.3269 193.54 83.3269 193.54 83.5248 193.738C83.7227 193.936 83.7227 193.936 83.9206 194.134C84.1185 194.331 84.1184 194.331 84.3163 194.529C84.5142 194.727 84.5142 194.727 84.7121 194.925C84.91 195.123 84.91 195.123 85.1079 195.321C85.3058 195.519 85.3057 195.519 85.5036 195.717C85.7015 195.915 85.7015 195.914 85.8994 196.112C86.0973 196.31 86.0973 196.31 86.2951 196.508C86.493 196.706 86.4931 196.706 86.6909 196.904C86.8888 197.102 86.8888 197.102 87.0867 197.3C87.2846 197.498 87.2846 197.498 87.4825 197.695C87.6803 197.893 87.6804 197.893 87.8783 198.091C88.0761 198.289 88.0761 198.289 88.274 198.487C88.4719 198.685 88.4719 198.685 88.6698 198.883C88.8677 199.081 88.8677 199.081 89.0656 199.279C89.2634 199.476 89.2634 199.476 89.4613 199.674C89.6592 199.872 89.6592 199.872 89.8571 200.07C90.055 200.268 90.0549 200.268 90.2528 200.466C90.4507 200.664 90.4507 200.664 90.6486 200.862C90.8465 201.06 90.8465 201.06 91.0444 201.257C91.2423 201.455 91.2422 201.455 91.4401 201.653C91.638 201.851 91.638 201.851 91.8359 202.049C92.0338 202.247 92.0338 202.247 92.2317 202.445C92.4295 202.643 92.4296 202.643 92.6274 202.841C92.8253 203.038 92.8253 203.038 93.0232 203.236C93.2211 203.434 93.2211 203.434 93.419 203.632C93.6168 203.83 93.6169 203.83 93.8148 204.028C94.0126 204.226 94.0126 204.226 94.2105 204.424C94.4084 204.621 94.4084 204.621 94.6063 204.819C94.8042 205.017 94.8042 205.017 95.0021 205.215C95.1999 205.413 95.1999 205.413 95.3978 205.611C95.5957 205.809 95.5957 205.809 95.7936 206.007C95.9915 206.205 95.9914 206.205 96.1893 206.402C96.3872 206.6 96.3872 206.6 96.5851 206.798C96.783 206.996 96.783 206.996 96.9809 207.194C97.1788 207.392 97.1787 207.392 97.3766 207.59C97.5745 207.788 97.5745 207.788 97.7724 207.986C97.9703 208.183 97.9703 208.183 98.1682 208.381C98.366 208.579 98.3661 208.579 98.5639 208.777C98.7618 208.975 98.7619 208.975 98.9597 209.173C99.1576 209.371 99.1576 209.371 99.3555 209.569C99.5533 209.767 99.5534 209.766 99.7513 209.964C99.9491 210.162 99.9491 210.162 100.147 210.36C100.345 210.558 100.345 210.558 100.543 210.756C100.741 210.954 100.741 210.954 100.939 211.152C101.136 211.35 101.136 211.35 101.334 211.547C101.532 211.745 101.532 211.745 101.73 211.943C101.928 212.141 101.928 212.141 102.126 212.339C102.324 212.537 102.324 212.537 102.522 212.735C102.719 212.933 102.72 212.933 102.917 213.131C103.115 213.328 103.115 213.328 103.313 213.526C103.511 213.724 103.511 213.724 103.709 213.922C103.907 214.12 103.907 214.12 104.105 214.318C104.303 214.516 104.303 214.516 104.5 214.714C104.698 214.912 104.698 214.912 104.896 215.109C105.094 215.307 105.094 215.307 105.292 215.505C105.49 215.703 105.49 215.703 105.688 215.901C105.886 216.099 105.886 216.099 106.083 216.297C106.281 216.495 106.281 216.495 106.479 216.693C106.677 216.89 106.677 216.89 106.875 217.088C107.073 217.286 107.073 217.286 107.271 217.484C107.469 217.682 107.469 217.682 107.667 217.88C107.864 218.078 107.864 218.078 108.062 218.276C108.26 218.473 108.26 218.473 108.458 218.671C108.656 218.869 108.656 218.869 108.854 219.067C109.052 219.265 109.052 219.265 109.25 219.463C109.448 219.661 109.448 219.661 109.645 219.859C109.843 220.057 109.843 220.057 110.041 220.254C110.239 220.452 110.239 220.452 110.437 220.65C110.635 220.848 110.635 220.848 110.833 221.046C111.031 221.244 111.031 221.244 111.228 221.442C111.426 221.64 111.426 221.64 111.624 221.838C111.822 222.035 111.822 222.035 112.02 222.233C112.218 222.431 112.218 222.431 112.416 222.629C112.614 222.827 112.614 222.827 112.812 223.025C113.009 223.223 113.009 223.223 113.207 223.421C113.405 223.619 113.405 223.618 113.603 223.816C113.801 224.014 113.801 224.014 113.999 224.212C114.197 224.41 114.197 224.41 114.395 224.608C114.593 224.806 114.593 224.806 114.79 225.004C114.988 225.202 114.988 225.202 115.186 225.399C115.384 225.597 115.384 225.597 115.582 225.795C115.78 225.993 115.78 225.993 115.978 226.191C116.176 226.389 116.176 226.389 116.373 226.587C116.571 226.785 116.571 226.785 116.769 226.983C116.967 227.18 116.967 227.18 117.165 227.378C117.363 227.576 117.363 227.576 117.561 227.774C117.759 227.972 117.759 227.972 117.956 228.17C118.154 228.368 118.154 228.368 118.352 228.566C118.55 228.764 118.55 228.764 118.748 228.961C118.946 229.159 118.946 229.159 119.144 229.357C119.342 229.555 119.342 229.555 119.54 229.753C119.737 229.951 119.737 229.951 119.935 230.149C120.133 230.347 120.133 230.347 120.331 230.545C120.529 230.742 120.529 230.742 120.727 230.94C120.925 231.138 120.925 231.138 121.123 231.336C121.321 231.534 121.321 231.534 121.518 231.732C121.716 231.93 121.716 231.93 121.914 232.128C122.112 232.325 122.112 232.325 122.31 232.523C122.508 232.721 122.508 232.721 122.706 232.919C122.904 233.117 122.904 233.117 123.101 233.315C123.299 233.513 123.299 233.513 123.497 233.711C123.695 233.909 123.695 233.909 123.893 234.106C124.091 234.304 124.091 234.304 124.289 234.502C124.487 234.7 124.487 234.7 124.685 234.898C124.882 235.096 124.882 235.096 125.08 235.294C125.278 235.492 125.278 235.492 125.476 235.69C125.674 235.887 125.674 235.887 125.872 236.085C126.07 236.283 126.07 236.283 126.268 236.481C126.466 236.679 126.466 236.679 126.663 236.877C126.861 237.075 126.861 237.075 127.059 237.273C127.257 237.471 127.257 237.47 127.455 237.668C127.653 237.866 127.653 237.866 127.851 238.064C128.049 238.262 128.049 238.262 128.246 238.46C128.444 238.658 128.444 238.658 128.642 238.856C128.84 239.054 128.84 239.054 129.038 239.251C129.236 239.449 129.236 239.449 129.434 239.647C129.632 239.845 129.632 239.845 129.83 240.043C130.027 240.241 130.027 240.241 130.225 240.439C130.423 240.637 130.423 240.637 130.621 240.835C130.819 241.032 130.819 241.032 131.017 241.23C131.215 241.428 131.215 241.428 131.413 241.626C131.61 241.824 131.61 241.824 131.808 242.022C132.006 242.22 132.006 242.22 132.204 242.418C132.402 242.616 132.402 242.616 132.6 242.813C132.798 243.011 132.798 243.011 132.996 243.209C133.194 243.407 133.194 243.407 133.391 243.605C133.589 243.803 133.589 243.803 133.787 244.001C133.985 244.199 133.985 244.199 134.183 244.397C134.381 244.594 134.381 244.594 134.579 244.792C134.777 244.99 134.777 244.99 134.974 245.188C135.172 245.386 135.172 245.386 135.37 245.584C135.568 245.782 135.568 245.782 135.766 245.98C135.964 246.177 135.964 246.177 136.162 246.375C136.36 246.573 136.36 246.573 136.558 246.771C136.755 246.969 136.755 246.969 136.953 247.167C137.151 247.365 137.151 247.365 137.349 247.563C137.547 247.761 137.547 247.761 137.745 247.958C137.943 248.156 137.943 248.156 138.141 248.354C138.339 248.552 138.339 248.552 138.536 248.75C138.734 248.948 138.734 248.948 138.932 249.146C139.13 249.344 139.13 249.344 139.328 249.542C139.526 249.739 139.526 249.739 139.724 249.937C139.922 250.135 139.922 250.135 140.119 250.333C140.317 250.531 140.317 250.531 140.515 250.729C140.713 250.927 140.713 250.927 140.911 251.125C141.109 251.323 141.109 251.323 141.307 251.52C141.505 251.718 141.505 251.718 141.703 251.916C141.9 252.114 141.9 252.114 142.098 252.312C142.296 252.51 142.296 252.51 142.494 252.708C142.692 252.906 142.692 252.906 142.89 253.103C143.088 253.301 143.088 253.301 143.286 253.499C143.483 253.697 143.483 253.697 143.681 253.895C143.879 254.093 143.879 254.093 144.077 254.291C144.275 254.489 144.275 254.489 144.473 254.687C144.671 254.884 144.671 254.884 144.869 255.082C145.067 255.28 145.067 255.28 145.264 255.478C145.462 255.676 145.462 255.676 145.66 255.874C145.858 256.072 145.858 256.072 146.056 256.27C146.254 256.468 146.254 256.468 146.452 256.665C146.65 256.863 146.65 256.863 146.847 257.061C147.045 257.259 147.045 257.259 147.243 257.457C147.441 257.655 147.441 257.655 147.639 257.853C147.837 258.051 147.837 258.051 148.035 258.249C148.233 258.446 148.233 258.446 148.431 258.644C148.628 258.842 148.628 258.842 148.826 259.04C149.024 259.238 149.024 259.238 149.222 259.436C149.42 259.634 149.42 259.634 149.618 259.832C149.816 260.029 149.816 260.029 150.014 260.227C150.212 260.425 150.212 260.425 150.409 260.623C150.607 260.821 150.607 260.821 150.805 261.019C151.003 261.217 151.003 261.217 151.201 261.415C151.399 261.613 151.399 261.613 151.597 261.81C153.378 263.591 156.148 263.591 158.127 261.613C161.293 258.446 164.459 255.082 167.823 251.916C168.219 251.916 168.615 252.114 169.01 252.114C171.187 252.708 173.562 253.301 175.738 253.895C175.936 254.093 175.936 254.093 176.134 254.291C176.332 254.687 176.728 254.884 176.926 255.082C177.124 255.478 177.519 255.676 177.717 255.874C177.915 256.27 178.311 256.468 178.509 256.665C178.707 257.061 179.102 257.259 179.3 257.457C179.498 257.853 179.894 258.051 180.092 258.249C180.29 258.644 180.686 258.842 180.883 259.04C181.081 259.436 181.477 259.634 181.675 259.832C181.873 260.227 182.269 260.425 182.467 260.623C182.664 261.019 183.06 261.217 183.258 261.415C183.456 261.81 183.852 262.008 184.05 262.206C184.247 262.602 184.643 262.8 184.841 262.998C185.039 263.394 185.435 263.591 185.633 263.789C185.831 264.185 186.226 264.383 186.424 264.581C186.622 264.977 187.018 265.175 187.216 265.372C187.414 265.768 187.809 265.966 188.007 266.164C188.205 266.56 188.601 266.758 188.799 266.955C188.997 267.351 189.392 267.549 189.59 267.747C189.788 268.143 190.184 268.341 190.382 268.539C190.58 268.934 190.975 269.132 191.173 269.33C191.371 269.726 191.767 269.924 191.965 270.122C192.163 270.517 192.559 270.715 192.756 270.913C192.954 271.309 193.35 271.507 193.548 271.705C193.746 272.101 194.142 272.298 194.34 272.496C194.537 272.892 194.933 273.09 195.131 273.288C195.329 273.684 195.725 273.881 195.923 274.079C196.12 274.475 196.516 274.673 196.714 274.871C196.912 275.267 197.308 275.465 197.506 275.662C197.704 276.058 198.099 276.256 198.297 276.454C198.495 276.85 198.891 277.048 199.089 277.246C199.287 277.641 199.682 277.839 199.88 278.037C201.068 279.422 202.849 280.016 204.629 279.62C207.202 279.027 208.587 276.454 207.796 273.881C206.41 268.341 204.827 262.602 203.244 257.061C203.64 256.468 203.838 255.874 204.234 255.478C210.764 248.948 217.294 242.418 223.824 235.887C225.407 234.304 226.001 232.523 225.407 230.347C225.209 229.753 225.011 229.159 225.011 228.566C222.637 219.661 220.262 210.954 217.888 202.049C218.283 201.653 218.679 201.257 219.075 200.862C225.407 194.529 231.739 187.999 238.27 181.667C240.248 179.688 240.842 177.709 240.051 174.939C237.676 166.232 235.301 157.525 232.927 148.818C232.729 148.224 232.729 147.433 232.729 146.839C235.697 143.871 238.467 140.902 241.634 138.132C225.209 117.552 226.001 115.573 225.011 112.803Z" fill="#FFA5A9"/>
</g>
<path d="M144.455 59.9595C147.621 56.7933 150.985 53.4292 154.151 50.2631C155.932 48.4821 157.713 48.4821 159.89 49.0758C160.286 49.4715 160.681 49.8673 160.879 50.0652C156.922 54.0229 152.964 57.9806 149.006 61.9383L148.808 61.7405C147.423 61.1468 145.84 60.5531 144.455 59.9595Z" fill="#EA4E7B"/>
<path d="M149.006 61.9383C152.964 57.9806 156.922 54.0229 160.879 50.0652C161.077 50.2631 161.473 50.6588 161.671 50.8567C162.66 53.4292 161.869 55.606 159.692 57.5848C156.724 60.3552 153.755 63.3235 150.787 66.2918C150.589 65.6982 150.391 65.3024 150.194 64.7087C149.996 63.7193 149.402 62.9278 149.006 61.9383Z" fill="#C73B5D"/>
<path d="M79.5491 164.839C78.7576 161.475 77.9661 158.309 76.9766 154.944C75.5915 149.602 74.2063 144.457 72.8211 139.114C72.6232 138.718 72.4253 138.322 72.2274 138.124L72.4253 137.926C72.8211 137.531 73.4147 137.333 73.8105 136.937C81.1322 129.615 88.6518 122.095 95.9735 114.774C97.5565 115.367 98.9417 116.159 100.525 116.753C94.3904 122.887 88.4539 128.824 82.3195 134.958C81.7259 135.552 81.33 136.145 81.5279 137.135C83.7046 145.248 85.8814 153.361 88.0581 161.475C88.256 161.871 88.6518 162.464 89.2454 162.662C97.3586 164.839 105.472 167.016 113.585 169.192C114.179 169.39 115.168 168.994 115.564 168.599C121.5 162.86 127.239 156.923 133.175 150.987C133.769 150.393 133.967 149.799 133.769 148.81C133.176 147.029 132.78 145.05 132.186 143.269C130.405 136.739 128.822 130.407 127.041 123.876C127.239 123.876 127.635 123.876 127.833 124.074C130.801 125.262 133.175 124.47 135.154 122.095C135.352 121.898 135.55 121.7 135.748 121.502C138.123 130.407 140.497 139.114 142.872 148.018C143.07 148.612 143.268 149.206 143.268 149.799C143.861 151.976 143.268 153.757 141.685 155.34C135.154 161.87 128.624 168.401 122.094 174.931C121.698 175.327 121.302 175.92 121.105 176.514C120.709 176.712 120.115 176.91 119.917 177.306C118.136 179.087 116.158 179.68 113.783 178.889C113.387 178.691 112.794 178.691 112.398 178.691C110.419 178.097 108.44 177.306 106.461 176.91C99.9311 175.129 93.401 173.348 86.8708 171.567C86.475 171.369 86.0793 171.369 85.6835 171.369C85.0898 171.171 84.6941 170.973 84.1004 170.775C81.528 170.38 80.3406 168.797 79.747 166.422C80.1428 166.026 79.747 165.432 79.5491 164.839Z" fill="#4A818B"/>
<path d="M100.921 116.752C99.3375 116.159 97.9523 115.367 96.3692 114.774C96.3692 114.774 96.3692 114.576 96.1714 114.576C98.546 112.201 100.921 109.826 103.295 107.452C103.691 107.65 104.285 107.848 104.68 108.045C112.596 110.222 120.709 112.399 128.624 114.576C129.614 114.774 130.009 114.774 130.801 113.982C136.54 108.045 142.476 102.307 148.413 96.3702C149.204 95.5787 149.204 94.985 149.006 93.9956C146.829 86.0802 144.653 78.1647 142.674 70.2493C142.476 69.8535 142.278 69.2599 142.08 68.8641C144.455 66.4895 146.83 64.1149 149.204 61.7402L149.402 61.9381C149.798 62.9275 150.391 63.7191 150.787 64.7085C150.985 65.1043 151.183 65.6979 151.381 66.2916C151.381 66.8853 151.579 67.6768 151.579 68.2705C153.953 76.9774 156.13 85.6844 158.702 94.3914C159.494 97.1618 158.9 99.1406 156.922 101.119C150.391 107.452 144.059 113.982 137.727 120.314C137.331 120.71 136.935 121.106 136.54 121.502C136.342 121.7 135.946 121.897 135.946 122.095C133.967 124.47 131.592 125.064 128.624 124.074C128.426 123.876 128.031 123.876 127.833 123.876C126.448 123.481 125.26 123.085 123.875 122.689C115.96 120.71 108.44 118.731 100.921 116.752Z" fill="#C73B5D"/>
<path d="M148.808 61.7402C146.434 64.1149 144.059 66.4895 141.685 68.8641C140.893 68.6662 140.299 68.4683 139.508 68.4683C131.988 66.4895 124.271 64.5106 116.751 62.3339C115.96 62.136 115.366 62.136 114.772 62.7297C108.836 68.6662 102.899 74.6028 96.9629 80.5394C96.5671 80.9351 96.3692 81.7267 96.5671 82.3203C96.9628 84.1013 97.5565 85.8823 97.9523 87.8611C99.7332 94.3914 101.316 100.922 103.097 107.452C100.723 109.826 98.3481 112.201 95.9735 114.576C95.3798 113.191 94.7862 111.805 94.1925 110.222C92.4116 103.296 90.6306 96.5681 88.8496 89.6421C88.0581 86.8717 87.4644 84.2992 86.6729 81.5288C86.0793 79.5499 86.6729 77.769 88.0581 76.3838C94.984 69.4578 102.108 62.3339 109.034 55.4079C109.232 55.21 109.627 55.0121 109.825 54.6163C111.606 52.4396 113.783 51.8459 116.355 52.6375C116.751 52.8354 117.345 52.6375 117.741 52.6375C118.136 52.8354 118.532 53.2311 118.928 53.2311C127.041 55.4079 135.154 57.5846 143.268 59.7614C143.465 59.7614 143.861 59.7614 144.257 59.7614C145.84 60.5529 147.423 61.1466 148.808 61.7402Z" fill="#EA4E7B"/>
<path d="M72.6231 137.926L72.4253 138.124C66.4888 136.541 60.7502 134.958 54.8137 133.573C53.0327 133.177 51.2518 132.583 49.2729 132.188C46.3047 131.396 44.7216 129.021 45.5132 126.449C46.3047 123.876 48.6793 122.491 51.6476 123.283C59.365 125.46 67.2803 127.438 74.9978 129.615C72.2274 131.594 71.0401 134.364 72.6231 137.926Z" fill="#4A818B"/>
<path d="M112.991 178.691C113.585 178.691 113.981 178.691 114.377 178.889C116.751 179.68 118.73 179.086 120.511 177.305C120.907 176.91 121.303 176.712 121.698 176.514C123.281 182.055 124.864 187.793 126.25 193.334C126.843 195.907 125.458 198.479 123.083 199.073C120.709 199.667 118.136 198.281 117.543 195.709C115.96 190.168 114.377 184.429 112.991 178.691Z" fill="#9EC7D4"/>
<path d="M117.939 52.6376C117.543 52.6376 116.949 52.8355 116.553 52.6376C113.981 51.6482 111.804 52.4397 110.023 54.6165C109.825 54.8143 109.43 55.2101 109.232 55.408C107.649 49.6693 106.066 44.1285 104.68 38.3898C104.087 35.8173 105.472 33.4427 107.847 32.849C110.419 32.2554 112.794 33.6406 113.585 36.2131C114.772 40.7644 115.96 45.3158 117.345 49.8672C117.543 50.8566 117.741 51.6482 117.939 52.6376Z" fill="#C73B5D"/>
<path d="M79.5491 164.839C79.747 165.433 79.9449 165.828 80.1428 166.422C80.7365 168.797 81.9237 170.38 84.4962 170.775C85.0899 170.775 85.4857 171.171 86.0793 171.369C82.9132 174.535 79.7471 177.899 76.3831 181.065C74.4042 183.044 71.6338 183.044 69.8529 181.263C68.0719 179.482 68.0719 176.514 69.8529 174.733C73.2169 171.369 76.383 168.203 79.5491 164.839Z" fill="#9EC7D4"/>
<path d="M72.6232 137.926C71.0401 134.364 72.2275 131.792 74.9978 129.417C81.528 122.887 87.8602 116.555 94.3904 110.024C94.984 111.41 95.5777 112.795 96.1714 114.378C96.1714 114.378 96.1713 114.576 96.3692 114.576C89.0475 121.898 81.528 129.417 74.2063 136.739C73.6127 137.333 73.2169 137.531 72.6232 137.926Z" fill="#4A818B"/>
<path d="M119.324 154.549C117.741 156.132 116.158 157.913 114.377 159.496C112.398 161.277 109.627 161.475 107.846 159.694C106.066 157.913 106.066 154.945 108.044 152.966C111.408 149.602 114.575 146.435 117.939 143.071C119.917 141.093 122.886 141.093 124.667 142.873C126.448 144.654 126.448 147.623 124.469 149.602C122.688 151.185 121.105 152.768 119.324 154.549Z" fill="#9EC7D4"/>
<path d="M130.603 73.4157C132.186 75.1967 132.384 77.3734 131.395 79.1544C130.405 80.9354 128.426 81.7269 126.447 81.3311C124.073 80.7375 121.698 80.1438 119.324 79.3523C116.751 78.5607 115.564 76.1861 116.355 73.6136C117.147 71.239 119.324 69.8538 121.896 70.4474C124.271 71.0411 126.447 71.6347 128.624 72.2284C129.416 72.822 130.207 73.2178 130.603 73.4157Z" fill="#EA4E7B"/>
</svg>
