<svg width="232" height="233" viewBox="0 0 232 233" fill="none" xmlns="http://www.w3.org/2000/svg">
<path d="M115.96 232.249C180.002 232.249 231.919 180.332 231.919 116.288C231.919 52.2447 180.002 0.327148 115.96 0.327148C51.9169 0.327148 0 52.2447 0 116.288C0 180.332 51.9169 232.249 115.96 232.249Z" fill="#F8E1E1"/>
<mask id="mask0_377_4681" style="mask-type:alpha" maskUnits="userSpaceOnUse" x="0" y="0" width="232" height="233">
<path d="M115.96 232.249C180.002 232.249 231.919 180.332 231.919 116.288C231.919 52.2446 180.002 0.327026 115.96 0.327026C51.9169 0.327026 0 52.2446 0 116.288C0 180.332 51.9169 232.249 115.96 232.249Z" fill="#F8E1E1"/>
</mask>
<g mask="url(#mask0_377_4681)">
<path opacity="0.5" d="M332.893 271.088C332.299 266.536 330.123 262.776 326.758 259.808C326.363 259.412 325.967 258.819 325.373 258.423C324.978 258.027 324.582 257.434 323.988 257.038C323.592 256.642 323.197 256.048 322.603 255.653C322.207 255.257 321.811 254.663 321.218 254.267C320.822 253.872 320.426 253.278 319.833 252.882C319.437 252.486 319.041 251.893 318.447 251.497C318.052 251.101 317.656 250.508 317.062 250.112C316.666 249.716 316.271 249.122 315.677 248.727C315.281 248.331 314.885 247.737 314.292 247.341C313.896 246.946 313.5 246.352 312.907 245.956C312.511 245.56 312.115 244.967 311.521 244.571C311.126 244.175 310.73 243.582 310.136 243.186C309.741 242.79 309.345 242.196 308.751 241.801C308.355 241.405 307.96 240.811 307.366 240.415C306.97 240.02 306.574 239.426 305.981 239.03C305.585 238.634 305.189 238.041 304.596 237.645C304.2 237.249 303.804 236.656 303.21 236.26C302.815 235.864 302.617 235.468 302.221 235.27C302.221 230.917 302.221 226.761 302.221 222.408C301.825 222.804 301.429 223.199 300.836 223.397C301.232 223.199 301.825 222.804 302.221 222.408C302.221 217.461 302.419 212.316 302.023 207.368C301.825 203.609 299.846 200.047 297.076 197.474C296.68 197.078 296.284 196.485 295.691 196.089C295.295 195.693 294.899 195.1 294.306 194.704C293.91 194.308 293.514 193.714 292.92 193.319C292.525 192.923 292.129 192.329 291.535 191.933C291.139 191.538 290.744 190.944 290.15 190.548C289.754 190.152 289.359 189.559 288.765 189.163C288.369 188.767 287.973 188.174 287.38 187.778C286.984 187.382 286.588 186.788 285.994 186.393C285.599 185.997 285.203 185.403 284.609 185.007C284.214 184.612 283.818 184.018 283.224 183.622C282.828 183.226 282.433 182.633 281.839 182.237C281.443 181.841 281.047 181.248 280.454 180.852C280.058 180.456 279.662 179.862 279.069 179.467C278.673 179.071 278.277 178.477 277.683 178.081C277.288 177.686 276.892 177.092 276.298 176.696C275.902 176.3 275.507 175.707 274.913 175.311C274.517 174.915 274.121 174.322 273.528 173.926C273.132 173.53 272.736 172.936 272.143 172.541C271.747 172.145 271.351 171.551 270.757 171.155C270.362 170.76 269.966 170.166 269.372 169.77C268.977 169.374 268.581 168.781 267.987 168.385C267.591 167.989 267.196 167.396 266.602 167C266.206 166.604 265.81 166.01 265.217 165.615C264.821 165.219 264.425 164.625 263.832 164.229C263.436 163.834 263.04 163.24 262.446 162.844C262.051 162.448 261.655 161.855 261.061 161.459C260.665 161.063 260.27 160.47 259.676 160.074C259.28 159.678 258.884 159.084 258.291 158.689C257.895 158.293 257.499 157.699 256.906 157.303C256.51 156.908 256.114 156.314 255.52 155.918C255.125 155.522 254.729 154.929 254.135 154.533C253.739 154.137 253.344 153.544 252.75 153.148C252.354 152.752 251.959 152.158 251.365 151.763C250.969 151.367 250.573 150.773 249.98 150.377C249.584 149.982 249.188 149.388 248.595 148.992C248.199 148.596 247.803 148.003 247.209 147.607C246.814 147.211 246.418 146.618 245.824 146.222C245.428 145.826 245.033 145.232 244.439 144.837C244.043 144.441 243.647 143.847 243.054 143.451C242.658 143.056 242.262 142.462 241.669 142.066C241.273 141.67 240.877 141.077 240.283 140.681C239.888 140.285 239.492 139.692 238.898 139.296C238.502 138.9 238.107 138.306 237.513 137.911C237.117 137.515 236.721 136.921 236.128 136.525C235.732 136.13 235.336 135.536 234.743 135.14C234.347 134.744 233.951 134.151 233.357 133.755C232.962 133.359 232.566 132.766 231.972 132.37C231.577 131.974 231.181 131.38 230.587 130.985C230.191 130.589 229.796 129.995 229.202 129.599C228.806 129.204 228.41 128.61 227.817 128.214C227.421 127.818 227.025 127.225 226.432 126.829C226.036 126.433 225.64 125.84 225.046 125.444C224.651 125.048 224.255 124.454 223.661 124.059C223.265 123.663 222.87 123.069 222.276 122.673C221.88 122.278 221.484 121.684 220.891 121.288C220.495 120.892 220.099 120.299 219.506 119.903C219.11 119.507 218.714 118.914 218.12 118.518C217.725 118.122 217.329 117.528 216.735 117.133C216.34 116.737 215.944 116.143 215.35 115.747C214.954 115.352 214.559 114.758 213.965 114.362C213.569 113.966 213.173 113.373 212.58 112.977C212.184 112.581 211.788 111.988 211.195 111.592C210.799 111.196 210.403 110.602 209.809 110.207C209.414 109.811 209.018 109.217 208.424 108.821C208.028 108.426 207.633 107.832 207.039 107.436C206.643 107.04 206.247 106.447 205.654 106.051C205.258 105.655 204.862 105.062 204.269 104.666C203.873 104.27 203.477 103.676 202.883 103.281C202.488 102.885 202.092 102.291 201.498 101.895C201.102 101.5 200.707 100.906 200.113 100.51C199.717 100.114 199.322 99.5207 198.728 99.125C198.332 98.7292 197.936 98.1355 197.343 97.7398C196.947 97.344 196.551 96.7503 195.958 96.3546C195.562 95.9588 195.166 95.3651 194.572 94.9694C194.177 94.5736 193.781 93.9799 193.187 93.5842C192.791 93.1884 192.396 92.5947 191.802 92.199C191.406 91.8032 191.01 91.2095 190.417 90.8138C190.021 90.418 189.625 89.8243 189.032 89.4286C188.636 89.0328 188.24 88.4391 187.646 88.0434C187.251 87.6476 186.855 87.0539 186.261 86.6582C185.865 86.2624 185.47 85.6687 184.876 85.273C184.48 84.8772 184.085 84.2835 183.491 83.8878C183.095 83.492 182.699 82.8983 182.106 82.5026C181.71 82.1068 181.314 81.5131 180.72 81.1174C180.325 80.7216 179.929 80.1279 179.335 79.7322C178.94 79.3364 178.544 78.7427 177.95 78.347C177.554 77.9512 177.159 77.3575 176.565 76.9618C176.169 76.566 175.773 75.9723 175.18 75.5766C174.784 75.1808 174.388 74.5871 173.795 74.1914C173.399 73.7956 173.003 73.2019 172.409 72.8062C172.014 72.4104 171.618 71.8167 171.024 71.4209C170.628 71.0252 170.233 70.4315 169.639 70.0358C169.243 69.64 168.848 69.0463 168.254 68.6506C167.858 68.2548 167.462 67.6611 166.869 67.2654C166.473 66.8696 166.077 66.2759 165.483 65.8802C165.088 65.4844 164.692 64.8907 164.098 64.4949C163.703 64.0992 163.307 63.5055 162.713 63.1098C162.317 62.714 161.922 62.1203 161.328 61.7246C160.932 61.3288 160.536 60.7351 159.943 60.3394C159.547 59.9436 159.151 59.3499 158.558 58.9542C156.183 56.3817 153.017 54.4028 149.455 54.007C147.872 53.8091 146.487 53.8091 144.904 53.8091C144.706 53.6112 144.31 53.2155 144.112 53.0176C143.716 52.4239 143.321 52.0281 142.727 51.6324C142.331 51.0387 141.935 50.643 141.342 50.2472C140.946 49.6535 140.55 49.2578 139.957 48.862C139.561 48.2683 139.165 47.8726 138.571 47.4768C138.176 46.8831 137.78 46.4874 137.186 46.0916C136.79 45.4979 136.395 45.1021 135.801 44.7064C134.614 43.1233 132.833 42.1339 130.854 41.5402C126.896 40.7487 123.136 42.3317 121.158 45.6958C119.575 48.0704 119.772 50.8409 119.772 53.4134C109.878 53.4134 99.9841 53.4134 90.0899 53.4134C89.892 53.2155 89.6941 53.0176 89.4962 52.8197C89.1005 52.226 88.7047 51.8303 88.111 51.4345C87.7153 50.8409 87.3195 50.4451 86.7259 50.0493C86.3301 49.4557 85.9343 49.0599 85.3407 48.6641C84.9449 48.0704 84.5491 47.6747 83.9555 47.2789C83.5597 46.6852 83.164 46.2895 82.5703 45.8937C82.1745 45.3 81.7788 44.9043 81.1851 44.5085C79.7999 42.7275 77.4253 41.3423 74.4571 41.1445C70.6973 40.7487 66.5417 43.1233 65.5523 47.2789C64.9587 49.0599 65.1566 51.2366 64.9587 53.0176C61.7926 53.0176 58.8243 53.0176 55.6582 53.0176C48.3365 53.2155 41.8063 58.5584 41.0148 65.8802C40.4211 71.0252 40.8169 76.3681 40.619 81.5131C40.619 81.711 40.619 81.9089 40.619 82.1068C40.619 99.7186 40.619 117.33 40.619 134.942C40.619 136.13 40.8169 137.515 41.0148 138.504C41.8063 141.67 43.3894 144.243 45.5661 146.222C45.9619 146.618 46.3576 147.211 46.9513 147.607C47.3471 148.003 47.7428 148.596 48.3365 148.992C48.7322 149.388 49.128 149.982 49.7217 150.377C50.1174 150.773 50.5132 151.367 51.1068 151.763C51.5026 152.158 51.8984 152.752 52.492 153.148C52.8878 153.544 53.2836 154.137 53.8772 154.533C54.273 154.929 54.6687 155.522 55.2624 155.918C55.6582 156.314 56.0539 156.908 56.6476 157.303C57.0433 157.699 57.4391 158.293 58.0328 158.689C58.4285 159.084 58.8243 159.678 59.4179 160.074C59.8137 160.47 60.2095 161.063 60.8031 161.459C61.1989 161.855 61.5947 162.448 62.1883 162.844C62.5841 163.24 62.9798 163.834 63.5735 164.229C63.9693 164.625 64.365 165.219 64.9587 165.615C65.3545 166.01 65.7502 166.604 66.3439 167C66.7396 167.396 67.1354 167.989 67.7291 168.385C68.1248 168.781 68.5206 169.374 69.1142 169.77C69.51 170.166 69.9058 170.76 70.4994 171.155C70.8952 171.551 71.291 172.145 71.8846 172.541C72.2804 172.936 72.6761 173.53 73.2698 173.926C73.6656 174.322 74.0613 174.915 74.655 175.311C75.0507 175.707 75.4465 176.3 76.0402 176.696C76.4359 177.092 76.8317 177.686 77.4253 178.081C77.8211 178.477 78.2169 179.071 78.8105 179.467C79.2063 179.862 79.6021 180.456 80.1957 180.852C80.5915 181.248 80.9872 181.841 81.5809 182.237C81.9767 182.633 82.3724 183.226 82.9661 183.622C83.3618 184.018 83.7576 184.612 84.3513 185.007C84.747 185.403 85.1428 185.997 85.7364 186.393C86.1322 186.788 86.528 187.382 87.1216 187.778C87.5174 188.174 87.9132 188.767 88.5068 189.163C88.9026 189.559 89.2983 190.152 89.892 190.548C90.2878 190.944 90.6835 191.538 91.2772 191.933C91.6729 192.329 92.0687 192.923 92.6624 193.319C93.0581 193.714 93.4539 194.308 94.0475 194.704C94.4433 195.1 94.8391 195.693 95.4327 196.089C95.8285 196.485 96.2243 197.078 96.8179 197.474C97.2137 197.87 97.6094 198.464 98.2031 198.859C98.5989 199.255 98.9946 199.849 99.5883 200.245C99.984 200.64 100.38 201.234 100.973 201.63C101.369 202.026 101.765 202.619 102.359 203.015C102.754 203.411 103.15 204.004 103.744 204.4C104.14 204.796 104.535 205.39 105.129 205.785C105.525 206.181 105.921 206.775 106.514 207.171C106.91 207.566 107.306 208.16 107.899 208.556C108.295 208.952 108.691 209.545 109.285 209.941C109.68 210.337 110.076 210.93 110.67 211.326C111.066 211.722 111.461 212.316 112.055 212.711C112.451 213.107 112.846 213.701 113.44 214.097C113.836 214.492 114.232 215.086 114.825 215.482C115.221 215.878 115.617 216.471 116.211 216.867C116.606 217.263 117.002 217.856 117.596 218.252C117.991 218.648 118.387 219.242 118.981 219.637C119.377 220.033 119.772 220.627 120.366 221.023C120.762 221.418 121.158 222.012 121.751 222.408C122.147 222.804 122.543 223.397 123.136 223.793C123.532 224.189 123.928 224.782 124.522 225.178C124.917 225.574 125.313 226.168 125.907 226.563C126.303 226.959 126.698 227.553 127.292 227.949C127.688 228.344 128.084 228.938 128.677 229.334C129.073 229.73 129.469 230.323 130.062 230.719C130.458 231.115 130.854 231.708 131.448 232.104C131.843 232.5 132.239 233.094 132.833 233.489C133.228 233.885 133.624 234.479 134.218 234.875C134.614 235.27 135.009 235.864 135.603 236.26C135.999 236.656 136.395 237.249 136.988 237.645C137.384 238.041 137.78 238.634 138.373 239.03C138.769 239.426 139.165 240.02 139.759 240.415C140.154 240.811 140.55 241.405 141.144 241.801C141.54 242.196 141.935 242.79 142.529 243.186C142.925 243.582 143.321 244.175 143.914 244.571C144.31 244.967 144.706 245.56 145.299 245.956C145.695 246.352 146.091 246.946 146.685 247.341C147.08 247.737 147.476 248.331 148.07 248.727C148.465 249.122 148.861 249.716 149.455 250.112C149.851 250.508 150.246 251.101 150.84 251.497C151.236 251.893 151.632 252.486 152.225 252.882C152.621 253.278 153.017 253.872 153.61 254.267C154.006 254.663 154.402 255.257 154.996 255.653C155.391 256.048 155.787 256.642 156.381 257.038C156.777 257.434 157.172 258.027 157.766 258.423C158.162 258.819 158.558 259.412 159.151 259.808C159.547 260.204 159.943 260.798 160.536 261.193C160.932 261.589 161.328 262.183 161.922 262.579C162.317 262.974 162.713 263.568 163.307 263.964C163.703 264.36 164.098 264.953 164.692 265.349C165.088 265.745 165.483 266.338 166.077 266.734C166.473 267.13 166.869 267.724 167.462 268.119C167.858 268.515 168.254 269.109 168.847 269.505C169.243 269.9 169.639 270.494 170.233 270.89C170.628 271.286 171.024 271.879 171.618 272.275C172.014 272.671 172.409 273.264 173.003 273.66C173.399 274.056 173.795 274.65 174.388 275.045C174.784 275.441 175.18 276.035 175.773 276.431C176.169 276.826 176.565 277.42 177.159 277.816C177.554 278.212 177.95 278.805 178.544 279.201C178.94 279.597 179.335 280.19 179.929 280.586C180.325 280.982 180.72 281.576 181.314 281.971C181.71 282.367 182.106 282.961 182.699 283.357C183.095 283.752 183.491 284.346 184.085 284.742C186.855 287.908 191.208 289.887 195.958 289.887C204.664 289.887 213.371 289.887 222.078 289.887C222.276 290.085 222.672 290.283 222.87 290.678C223.265 291.074 223.661 291.668 224.255 292.064C224.651 292.459 225.046 293.053 225.64 293.449C226.036 293.845 226.432 294.438 227.025 294.834C227.421 295.23 227.817 295.823 228.41 296.219C228.806 296.615 229.202 297.209 229.796 297.604C230.191 298 230.587 298.594 231.181 298.99C231.577 299.385 231.972 299.979 232.566 300.375C232.962 300.771 233.357 301.364 233.951 301.76C234.347 302.156 234.743 302.749 235.336 303.145C235.732 303.541 236.128 304.135 236.722 304.53C237.117 304.926 237.513 305.52 238.107 305.916C238.502 306.311 238.898 306.905 239.492 307.301C239.888 307.697 240.283 308.29 240.877 308.686C241.273 309.082 241.669 309.675 242.262 310.071C242.658 310.467 243.054 311.061 243.647 311.456C244.043 311.852 244.439 312.446 245.033 312.842C245.428 313.237 245.824 313.831 246.418 314.227C246.814 314.623 247.209 315.216 247.803 315.612C248.199 316.008 248.595 316.601 249.188 316.997C249.584 317.393 249.98 317.987 250.573 318.382C250.969 318.778 251.365 319.372 251.959 319.768C252.354 320.163 252.75 320.757 253.344 321.153C253.739 321.549 254.135 322.142 254.729 322.538C255.125 322.934 255.52 323.527 256.114 323.923C256.51 324.319 256.906 324.913 257.499 325.308C257.895 325.704 258.291 326.298 258.884 326.694C259.676 327.683 260.665 328.475 261.853 329.266C264.029 330.849 266.8 331.641 269.174 332.828C271.747 332.828 274.517 332.828 277.09 332.828C280.256 331.641 283.422 330.651 285.797 328.277C287.578 326.694 289.161 324.913 290.942 323.132C291.337 322.736 291.733 322.538 292.129 322.142C293.316 322.538 294.701 323.132 295.889 323.527C301.825 325.308 307.168 324.517 311.917 320.163C314.49 317.789 317.062 315.216 319.635 312.446C322.603 309.28 323.988 305.718 323.988 301.364C323.988 298.198 322.801 295.23 321.811 292.459C321.614 292.657 321.416 292.855 321.02 292.855C321.218 292.657 321.614 292.459 321.811 292.261C322.999 291.074 323.988 289.689 325.373 288.502C327.748 286.127 330.122 283.95 331.31 280.784C331.903 279.003 332.299 277.222 332.893 275.441C332.893 273.858 332.893 272.473 332.893 270.89C333.091 271.483 332.893 271.286 332.893 271.088Z" fill="#FFA5A9"/>
</g>
<path d="M162.462 117.08C166.024 114.903 169.784 113.518 174.137 113.518C183.24 113.716 191.155 120.642 192.541 129.744C192.541 129.942 192.738 130.14 192.738 130.338C192.738 131.921 192.738 133.306 192.738 134.889C192.145 136.67 191.749 138.451 191.155 140.232C189.968 143.399 187.593 145.773 185.219 147.95C184.032 149.137 182.844 150.522 181.657 151.71C181.261 152.106 180.668 152.303 180.272 152.699C171.169 161.802 162.067 170.905 152.766 180.205C152.37 180.601 152.172 180.997 151.974 181.59C151.579 181.986 150.985 182.184 150.589 182.58C148.808 184.163 147.225 185.944 145.444 187.725C143.07 190.1 139.904 191.287 136.737 192.276C134.165 192.276 131.395 192.276 128.822 192.276C126.25 191.089 123.677 190.297 121.5 188.714C112.398 182.184 111.21 168.728 118.928 160.615C120.511 159.032 122.292 157.251 123.875 155.667C124.271 155.272 124.469 154.876 124.864 154.282C125.26 153.886 125.854 153.689 126.25 153.491C135.352 144.388 144.455 135.285 153.755 125.985C154.151 125.589 154.349 125.193 154.745 124.599C155.141 124.204 155.536 124.006 155.932 123.61C158.109 121.433 160.286 119.256 162.462 117.08ZM140.299 175.654C142.872 175.852 145.246 174.269 147.225 172.29C155.338 164.177 163.452 156.261 171.367 148.148C172.356 147.158 173.148 146.169 173.94 145.18C176.71 141.815 176.908 137.462 174.335 133.702C172.159 130.536 167.805 129.151 164.045 130.338C161.869 130.932 160.088 132.515 158.505 133.9C150.787 141.42 143.268 149.137 135.748 156.657C134.759 157.646 133.571 158.834 132.582 160.021C130.009 162.989 129.416 166.353 130.999 169.717C132.78 173.675 135.748 175.654 140.299 175.654Z" fill="#F786A2"/>
<path d="M162.462 117.08C160.286 119.257 158.109 121.433 155.734 123.61C155.339 124.006 154.943 124.204 154.547 124.599C153.162 124.204 151.777 123.61 150.391 123.214C145.049 121.433 139.904 122.225 135.55 125.787C132.582 128.359 129.812 131.328 127.041 134.098C122.688 138.649 121.896 143.992 123.281 149.929C101.118 149.929 78.7576 149.929 56.5947 149.929C49.0751 149.929 42.9407 145.377 41.3576 138.254C40.9619 137.066 40.9619 135.879 40.9619 134.692C40.9619 117.08 40.9619 99.4679 40.9619 81.8561C40.9619 81.6582 40.9619 81.4603 40.9619 81.2625C42.1492 83.0434 43.9301 83.2413 45.909 83.2413C82.5174 83.2413 119.324 83.2413 155.932 83.2413C158.307 83.2413 160.483 83.2413 162.264 81.4603C162.264 88.98 162.264 96.3018 162.264 103.821C162.462 108.175 162.462 112.528 162.462 117.08ZM56.1989 125.589C56.1989 127.37 56.1989 129.151 56.1989 130.734C56.1989 133.504 57.3862 134.692 60.1566 134.692C63.7185 134.692 67.0825 134.692 70.4465 134.692C73.019 134.692 74.4042 133.702 74.4042 130.932C74.4042 127.37 74.4042 123.61 74.4042 120.048C74.4042 117.476 73.2169 116.486 70.8423 116.288C67.2804 116.288 63.5206 116.288 59.9587 116.288C57.5841 116.288 56.3968 117.673 56.1989 119.85C56.001 122.027 56.1989 123.808 56.1989 125.589ZM104.68 101.249C104.68 103.03 104.68 104.811 104.68 106.592C104.68 109.362 105.868 110.55 108.638 110.55C112.2 110.55 115.564 110.55 118.928 110.55C121.5 110.55 122.886 109.362 122.886 106.79C122.886 103.228 122.886 99.468 122.886 95.906C122.886 93.5314 121.5 92.3441 119.126 92.3441C115.564 92.3441 111.804 92.3441 108.242 92.3441C105.868 92.3441 104.68 93.7292 104.68 96.1039C104.68 97.687 104.68 99.4679 104.68 101.249ZM80.3407 125.391C80.3407 127.172 80.3407 128.953 80.3407 130.734C80.3407 133.504 81.528 134.692 84.2983 134.692C87.8602 134.692 91.2243 134.692 94.7862 134.692C97.1608 134.692 98.5459 133.504 98.5459 130.932C98.5459 127.37 98.5459 123.61 98.5459 120.048C98.5459 117.673 97.3587 116.486 95.1819 116.288C91.4222 116.288 87.4645 116.288 83.7047 116.288C81.528 116.288 80.3407 117.673 80.3407 119.85C80.3407 121.829 80.3407 123.61 80.3407 125.391ZM89.6412 110.55C91.2243 110.55 92.8073 110.55 94.5883 110.55C97.5565 110.55 98.9417 109.362 98.9417 106.394C98.9417 103.03 98.9417 99.6658 98.9417 96.3018C98.9417 93.5314 97.5565 92.1462 94.7862 92.1462C91.4222 92.1462 88.0581 92.1462 84.4962 92.1462C81.9238 92.1462 80.5386 93.3335 80.5386 96.1039C80.5386 99.6658 80.5386 103.228 80.5386 106.79C80.5386 109.362 81.7259 110.55 84.2983 110.55C85.8814 110.55 87.8603 110.55 89.6412 110.55ZM65.1037 110.55C66.8846 110.55 68.6656 110.55 70.4465 110.55C72.8211 110.55 74.0084 109.758 74.2063 107.581C74.4042 103.426 74.4042 99.4679 74.2063 95.3123C74.2063 93.5314 72.8211 92.3441 71.0402 92.3441C67.0825 92.1462 63.1248 92.1462 59.1672 92.3441C56.7926 92.5419 56.001 93.7292 56.001 96.1039C56.001 99.6658 56.001 103.228 56.001 106.79C56.001 109.164 57.3862 110.55 59.7608 110.55C61.7396 110.55 63.5206 110.55 65.1037 110.55ZM104.68 125.589C104.68 127.37 104.68 129.151 104.68 131.13C104.68 133.306 105.868 134.692 108.044 134.692C111.804 134.889 115.564 134.889 119.522 134.692C121.698 134.692 122.688 133.702 122.886 131.525C123.084 127.766 123.281 124.006 123.084 120.246C122.886 116.684 121.5 116.486 119.522 116.288C115.762 116.09 112.2 116.09 108.44 116.288C106.263 116.288 104.878 117.673 104.878 120.048C104.68 122.027 104.68 123.808 104.68 125.589ZM147.027 101.249C147.027 99.4679 146.83 97.687 147.027 95.7081C147.225 93.1356 145.444 92.1462 143.466 91.9483C139.904 91.9483 136.144 91.9483 132.582 91.9483C130.207 91.9483 129.02 93.3335 129.02 95.5102C129.02 99.2701 129.02 102.832 129.02 106.592C129.02 108.769 130.009 110.154 132.186 110.154C136.144 110.352 140.101 110.352 144.257 110.154C146.236 110.154 147.225 108.769 147.225 106.79C147.027 105.207 147.027 103.228 147.027 101.249Z" fill="#C73B5D"/>
<path d="M162.462 81.4604C160.681 83.2413 158.307 83.2413 156.13 83.2413C119.522 83.2413 82.7153 83.2413 46.1069 83.2413C44.128 83.2413 42.3471 82.8456 41.1598 81.2625C41.1598 76.1174 40.9619 70.7745 41.5555 65.6295C42.3471 58.5056 48.8772 52.9648 56.1989 52.7669C59.365 52.7669 62.3333 52.7669 65.4994 52.7669C65.4994 55.9331 65.4994 58.9014 65.4994 62.0675C65.6973 67.4105 69.4571 70.9724 74.8 70.9724C79.9449 70.9724 83.9026 66.421 83.7047 62.0675C83.5068 58.9014 83.7047 55.9331 83.7047 52.7669C85.2878 52.7669 86.673 52.7669 88.0581 52.7669C98.7438 52.7669 109.43 52.7669 120.115 52.7669C120.115 55.5373 120.115 58.5056 120.115 61.276C120.313 67.2126 124.469 71.5661 130.801 70.7745C134.363 70.3788 137.925 67.0147 138.123 63.2549C138.321 59.6929 138.321 56.131 138.518 52.569C142.278 52.569 146.236 52.3711 149.798 52.9648C156.526 53.7563 162.067 59.6929 162.462 66.421C162.462 71.3682 162.264 76.5132 162.462 81.4604ZM101.514 64.838C98.7438 64.838 95.9735 64.838 93.0052 64.838C91.0264 64.838 89.4433 66.0253 89.4433 67.8062C89.4433 69.5872 90.6306 70.9724 92.8073 70.9724C98.7438 70.9724 104.482 71.1703 110.419 70.9724C113.189 70.9724 114.377 68.5978 113.189 66.421C112.398 65.0358 111.211 64.838 109.825 64.838C107.253 64.838 104.482 64.838 101.514 64.838Z" fill="#EA4E7B"/>
<path d="M138.123 52.7669C137.925 56.3288 138.123 59.8907 137.727 63.4527C137.529 67.0146 133.967 70.3787 130.405 70.9723C124.073 71.7639 119.917 67.4104 119.72 61.4738C119.72 58.7034 119.72 55.7352 119.72 52.9647C119.72 50.3922 119.72 47.6218 121.105 45.2472C123.281 41.8831 127.041 40.3001 130.801 41.0916C134.561 41.8831 137.133 44.8514 137.727 48.8091C138.123 49.9964 138.123 51.3816 138.123 52.7669Z" fill="#FFB0B0"/>
<path d="M83.3089 52.569C83.3089 55.7352 83.3089 58.7035 83.3089 61.8696C83.5068 66.421 79.747 70.7745 74.4042 70.7745C69.0613 70.7745 65.3015 67.0147 65.1037 61.8696C64.9058 58.7035 65.1037 55.7352 65.1037 52.569C65.3015 50.5901 65.1037 48.6113 65.6973 46.8303C66.8846 42.6747 70.8423 40.3001 74.6021 40.6958C79.747 41.2895 82.9132 44.6536 83.1111 49.4028C83.5068 50.3923 83.3089 51.5796 83.3089 52.569Z" fill="#FFB0B0"/>
<path d="M123.281 149.929C121.896 143.992 122.688 138.649 127.041 134.098C129.812 131.328 132.582 128.161 135.55 125.787C139.904 122.225 145.049 121.433 150.391 123.214C151.777 123.61 153.162 124.006 154.547 124.599C154.151 124.995 153.953 125.589 153.558 125.985C144.455 135.087 135.352 144.19 126.052 153.491C125.656 153.887 125.26 154.084 124.667 154.282C124.271 152.699 123.875 151.314 123.281 149.929Z" fill="#EA4E7B"/>
<path d="M140.299 175.654C135.748 175.654 132.78 173.477 131.197 169.915C129.614 166.551 130.207 162.989 132.78 160.219C133.769 159.032 134.759 157.844 135.946 156.855C143.465 149.137 151.183 141.618 158.703 134.098C160.286 132.515 161.869 131.13 164.243 130.536C168.003 129.349 172.356 130.734 174.533 133.9C177.106 137.66 176.908 142.013 174.137 145.377C173.346 146.367 172.356 147.356 171.565 148.346C163.452 156.459 155.536 164.572 147.423 172.488C145.246 174.467 142.872 175.852 140.299 175.654Z" fill="#FAADC0"/>
<path d="M181.657 151.71C182.646 154.678 183.834 157.448 183.834 160.615C183.834 164.968 182.251 168.53 179.48 171.696C176.908 174.269 174.533 176.841 171.763 179.414C167.212 183.569 161.671 184.559 155.734 182.778C154.547 182.382 153.162 181.986 151.974 181.393C152.37 180.997 152.568 180.403 152.766 180.007C161.869 170.905 170.971 161.802 180.272 152.501C180.865 152.303 181.261 152.105 181.657 151.71Z" fill="#EA4E7B"/>
<path opacity="0.5" d="M56.1989 125.589C56.1989 123.808 56.1989 122.027 56.1989 120.048C56.1989 117.673 57.5841 116.486 59.9587 116.486C63.5206 116.486 67.2804 116.486 70.8423 116.486C73.2169 116.486 74.4042 117.673 74.4042 120.246C74.4042 123.808 74.4042 127.568 74.4042 131.13C74.4042 133.702 73.019 134.692 70.4465 134.889C66.8846 134.889 63.5206 134.889 60.1566 134.889C57.3862 134.889 56.1989 133.702 56.1989 130.932C56.1989 128.953 56.1989 127.37 56.1989 125.589Z" fill="#FFB0B0"/>
<path opacity="0.5" d="M104.68 101.249C104.68 99.468 104.68 97.6871 104.68 95.9061C104.68 93.5315 105.868 92.1462 108.242 92.1462C111.804 92.1462 115.564 92.1462 119.126 92.1462C121.5 92.1462 122.886 93.3336 122.886 95.7082C122.886 99.2701 122.886 103.03 122.886 106.592C122.886 109.164 121.5 110.352 118.928 110.352C115.366 110.352 112.002 110.352 108.638 110.352C105.868 110.352 104.68 109.164 104.68 106.394C104.68 104.811 104.68 103.03 104.68 101.249Z" fill="#FFB0B0"/>
<path opacity="0.5" d="M80.3407 125.391C80.3407 123.61 80.3407 121.829 80.3407 120.048C80.3407 117.871 81.528 116.486 83.7047 116.486C87.4645 116.486 91.4222 116.486 95.1819 116.486C97.3587 116.486 98.546 117.871 98.546 120.246C98.546 123.808 98.546 127.568 98.546 131.13C98.546 133.504 97.1608 134.692 94.7862 134.889C91.2243 134.889 87.8603 134.889 84.2984 134.889C81.528 134.889 80.3407 133.702 80.3407 130.932C80.3407 128.953 80.3407 127.172 80.3407 125.391Z" fill="#FFB0B0"/>
<path opacity="0.5" d="M89.6412 110.55C87.8603 110.55 86.0793 110.55 84.1005 110.55C81.528 110.55 80.3407 109.164 80.3407 106.79C80.3407 103.228 80.3407 99.6659 80.3407 96.1039C80.3407 93.5314 81.528 92.1462 84.2984 92.1462C87.6624 92.1462 91.0264 92.1462 94.5883 92.1462C97.5565 92.1462 98.7439 93.3336 98.7439 96.3018C98.7439 99.6659 98.7439 103.03 98.7439 106.394C98.7439 109.362 97.5566 110.55 94.3904 110.55C92.8074 110.55 91.2243 110.55 89.6412 110.55Z" fill="#FFB0B0"/>
<path d="M65.1037 110.549C63.3227 110.549 61.5418 110.549 59.7608 110.549C57.3862 110.549 56.001 109.164 56.001 106.79C56.001 103.228 56.001 99.6657 56.001 96.1038C56.001 93.7292 56.7926 92.5419 59.1672 92.344C63.1248 92.1461 67.0825 92.1461 71.0402 92.344C72.8211 92.344 74.0084 93.5313 74.2063 95.3123C74.4042 99.4679 74.4042 103.426 74.2063 107.581C74.0084 109.956 72.8211 110.549 70.4465 110.549C68.8634 110.549 66.8846 110.549 65.1037 110.549Z" fill="#F786A2"/>
<path d="M104.68 125.589C104.68 123.808 104.68 122.027 104.68 120.048C104.68 117.674 105.868 116.486 108.242 116.288C112.002 116.288 115.564 116.091 119.324 116.288C121.5 116.486 122.886 116.684 122.886 120.246C123.083 124.006 122.886 127.766 122.688 131.526C122.49 133.702 121.5 134.494 119.324 134.692C115.564 134.89 111.804 134.89 107.846 134.692C105.67 134.692 104.482 133.307 104.482 131.13C104.68 129.349 104.68 127.37 104.68 125.589Z" fill="#F786A2"/>
<path d="M147.027 101.249C147.027 103.228 147.027 105.009 147.027 106.988C147.027 108.967 146.038 110.352 144.059 110.352C140.102 110.55 136.144 110.55 131.988 110.352C129.812 110.352 128.822 108.967 128.822 106.79C128.822 103.03 128.822 99.468 128.822 95.7082C128.822 93.5314 130.207 92.1462 132.384 92.1462C135.946 92.1462 139.706 92.1462 143.268 92.1462C145.246 92.1462 147.027 93.3336 146.83 95.9061C147.027 97.6871 147.027 99.468 147.027 101.249Z" fill="#F786A2"/>
<path d="M101.514 64.8379C104.285 64.8379 107.055 64.8379 110.023 64.8379C111.408 64.8379 112.596 65.0358 113.387 66.421C114.575 68.5977 113.189 70.9723 110.617 70.9723C104.68 71.1702 98.9417 70.9723 93.0052 70.9723C90.8285 70.9723 89.6412 69.5871 89.6412 67.8062C89.6412 66.0252 91.2243 64.8379 93.2031 64.8379C95.9735 64.8379 98.7438 64.8379 101.514 64.8379Z" fill="#E3294E"/>
</svg>
