<svg width="231" height="232" viewBox="0 0 231 232" fill="none" xmlns="http://www.w3.org/2000/svg">
<path d="M115.454 231.629C179.217 231.629 230.907 179.918 230.907 116.13C230.907 52.3407 179.217 0.629639 115.454 0.629639C51.6903 0.629639 0 52.3407 0 116.13C0 179.918 51.6903 231.629 115.454 231.629Z" fill="#F8E1E1"/>
<mask id="mask0_377_4754" style="mask-type:alpha" maskUnits="userSpaceOnUse" x="0" y="0" width="231" height="232">
<path d="M115.454 231.63C179.217 231.63 230.907 179.919 230.907 116.13C230.907 52.3409 179.217 0.629883 115.454 0.629883C51.6903 0.629883 0 52.3409 0 116.13C0 179.919 51.6903 231.63 115.454 231.63Z" fill="#F8E1E1"/>
</mask>
<g mask="url(#mask0_377_4754)">
<path opacity="0.5" d="M269.346 217.456C268.015 212.671 265.458 208.514 262.815 204.388C256.54 194.612 250.32 184.786 244.075 175C243.995 175.061 243.904 175.121 243.819 175.176L243.065 173.99C242.984 174.054 242.898 174.113 242.809 174.166L242.055 172.98C241.974 173.044 241.889 173.103 241.799 173.156L241.056 171.97C240.974 172.034 240.889 172.093 240.799 172.146L240.051 170.964C239.971 171.025 239.885 171.08 239.795 171.135L239.041 169.954C238.961 170.014 238.875 170.07 238.785 170.125L238.031 168.944C237.951 169.004 237.865 169.059 237.775 169.115L237.021 167.934C236.941 167.994 236.856 168.049 236.765 168.105L236.012 166.923C235.931 166.984 235.846 167.039 235.755 167.094L235.002 165.913C234.921 165.973 234.836 166.029 234.745 166.084L233.992 164.903L233.741 165.079C233.484 164.682 233.238 164.285 232.982 163.893C232.907 163.953 232.816 164.008 232.731 164.069L231.977 162.882C231.897 162.943 231.806 162.998 231.721 163.058L230.967 161.872C230.887 161.932 230.797 161.993 230.711 162.048L229.957 160.862C229.877 160.922 229.787 160.983 229.701 161.038L228.948 159.852C228.867 159.912 228.777 159.972 228.691 160.028L227.938 158.841C227.857 158.902 227.767 158.962 227.682 159.017L226.928 157.831C226.846 157.894 226.76 157.953 226.672 158.007L225.918 156.821C225.837 156.885 225.751 156.944 225.662 156.997L224.908 155.811C224.827 155.875 224.741 155.934 224.652 155.987L223.873 154.831C223.793 154.891 223.708 154.946 223.617 155.001L222.863 153.82C222.783 153.881 222.698 153.936 222.607 153.991L221.854 152.81C221.773 152.87 221.688 152.926 221.597 152.981L220.844 151.8C220.763 151.86 220.678 151.915 220.588 151.971L219.834 150.79C219.754 150.85 219.668 150.905 219.578 150.96L218.824 149.779C218.744 149.84 218.658 149.895 218.568 149.95L217.814 148.769C217.734 148.829 217.648 148.885 217.558 148.94C217.307 148.548 217.056 148.151 216.804 147.759C216.729 147.819 216.639 147.874 216.553 147.935L215.8 146.749C215.719 146.809 215.629 146.864 215.543 146.925L214.79 145.738C214.709 145.799 214.619 145.859 214.534 145.914L213.78 144.728C213.7 144.788 213.609 144.849 213.524 144.904L212.77 143.718C212.69 143.778 212.599 143.838 212.514 143.894L211.76 142.708C211.68 142.768 211.589 142.828 211.504 142.884L210.75 141.697C210.67 141.758 210.58 141.818 210.494 141.873L209.741 140.687C209.659 140.751 209.574 140.81 209.484 140.863L208.731 139.677C208.649 139.741 208.564 139.8 208.475 139.853L207.721 138.667C207.64 138.731 207.554 138.79 207.465 138.843L206.711 137.661C206.631 137.722 206.545 137.777 206.455 137.832L205.701 136.651C205.621 136.711 205.535 136.767 205.445 136.822L204.691 135.641C204.611 135.701 204.526 135.756 204.435 135.812L203.682 134.631C203.601 134.691 203.516 134.746 203.425 134.802L202.672 133.62C202.591 133.681 202.506 133.736 202.415 133.791L201.662 132.61C201.581 132.67 201.496 132.726 201.406 132.781L200.652 131.6L200.401 131.776C200.145 131.379 199.898 130.982 199.647 130.59C199.567 130.65 199.476 130.705 199.391 130.766L198.637 129.579C198.557 129.64 198.467 129.695 198.381 129.755L197.628 128.569C197.547 128.629 197.457 128.69 197.371 128.745L196.618 127.559C196.537 127.619 196.447 127.68 196.361 127.735L195.608 126.549C195.527 126.609 195.437 126.669 195.352 126.725L194.598 125.538C194.518 125.599 194.427 125.659 194.342 125.714L193.588 124.528C193.507 124.593 193.421 124.651 193.332 124.704L192.578 123.518C192.497 123.582 192.411 123.641 192.322 123.694L191.568 122.508C191.487 122.572 191.401 122.631 191.312 122.684L190.559 121.502C190.478 121.563 190.393 121.618 190.302 121.673L189.549 120.492C189.468 120.553 189.383 120.608 189.293 120.663L188.539 119.482C188.459 119.542 188.373 119.598 188.283 119.653L187.529 118.472C187.449 118.532 187.363 118.587 187.273 118.643L186.519 117.461C186.439 117.522 186.353 117.577 186.263 117.632L185.509 116.451C185.429 116.512 185.344 116.567 185.253 116.622L184.5 115.441C184.419 115.501 184.334 115.557 184.243 115.612C183.992 115.22 183.741 114.823 183.49 114.431C183.414 114.491 183.324 114.546 183.239 114.607L182.485 113.42C182.405 113.481 182.314 113.536 182.229 113.596L181.475 112.41C181.395 112.471 181.304 112.531 181.219 112.586L180.465 111.4C180.385 111.46 180.294 111.521 180.209 111.576L179.455 110.39C179.375 110.45 179.285 110.51 179.199 110.566L178.446 109.38C178.365 109.44 178.275 109.5 178.189 109.555L177.436 108.369C177.353 108.432 177.268 108.491 177.179 108.545L176.426 107.359C176.344 107.423 176.259 107.482 176.17 107.535L175.416 106.349C175.335 106.413 175.249 106.472 175.16 106.525L174.406 105.344C174.326 105.404 174.24 105.459 174.15 105.514L173.396 104.333C173.316 104.394 173.231 104.449 173.14 104.504L172.386 103.323C172.306 103.383 172.221 103.439 172.13 103.494L171.377 102.313C171.296 102.373 171.211 102.428 171.12 102.484L170.367 101.303C170.286 101.363 170.201 101.418 170.111 101.473L169.357 100.292C169.277 100.353 169.191 100.408 169.101 100.463L168.347 99.2821C168.267 99.3424 168.181 99.3977 168.091 99.453C167.84 99.0609 167.588 98.6639 167.337 98.2718L167.086 98.4477L166.332 97.2616C166.252 97.3219 166.162 97.3772 166.076 97.4375L165.323 96.2513C165.242 96.3116 165.152 96.3669 165.066 96.4272L164.313 95.2411C164.232 95.3014 164.142 95.3617 164.057 95.417L163.303 94.2308C163.223 94.2911 163.132 94.3515 163.047 94.4067L162.293 93.2206C162.213 93.2809 162.122 93.3412 162.037 93.3965L161.283 92.2103C161.203 92.2707 161.112 92.331 161.027 92.3863L160.273 91.2001C160.192 91.2644 160.106 91.3232 160.017 91.376L159.264 90.1899C159.182 90.2542 159.097 90.3129 159.007 90.3658L158.254 89.1796C158.172 89.2439 158.087 89.3027 157.998 89.3555L157.244 88.1744C157.164 88.2347 157.078 88.29 156.988 88.3453L156.234 87.1641C156.154 87.2244 156.068 87.2797 155.978 87.335L155.224 86.1539C155.144 86.2142 155.058 86.2695 154.968 86.3248L154.214 85.1436C154.134 85.204 154.049 85.2592 153.958 85.3145L153.205 84.1334C153.124 84.1937 153.039 84.249 152.948 84.3043L152.195 83.1231C152.114 83.1834 152.029 83.2388 151.938 83.294L151.185 82.1129L150.934 82.2888C150.677 81.8918 150.431 81.4947 150.175 81.1026C150.1 81.163 150.009 81.2183 149.924 81.2786L149.17 80.0924C149.09 80.1527 148.999 80.208 148.914 80.2683L148.16 79.0822C148.08 79.1425 147.99 79.2028 147.904 79.2581L147.151 78.0719C147.07 78.1322 146.98 78.1925 146.894 78.2478L146.141 77.0617C146.06 77.122 145.97 77.1823 145.884 77.2376L145.131 76.0514C145.05 76.1117 144.96 76.172 144.875 76.2273L144.121 75.0412C144.04 75.1055 143.954 75.1643 143.865 75.2171L143.111 74.0309C143.03 74.0953 142.944 74.154 142.855 74.2068L142.101 73.0207C141.825 73.2368 141.458 73.3926 141.282 73.669L134.369 84.4651C134.369 84.2741 134.369 84.0781 134.369 83.8871H133.364C133.364 83.5504 133.364 83.2136 133.364 82.8819H132.36C132.36 82.5451 132.36 82.2084 132.36 81.8767H131.355C131.355 81.5399 131.355 81.2032 131.355 80.8715H130.35C130.35 80.5347 130.35 80.198 130.35 79.8662H129.345C129.345 79.5295 129.345 79.1927 129.345 78.861H128.34C128.34 78.5243 128.34 78.1875 128.34 77.8558H127.336C127.336 77.519 127.336 77.1823 127.336 76.8506H126.331C126.331 76.5138 126.331 76.1771 126.331 75.8453H125.326C125.326 75.5086 125.326 75.1718 125.326 74.8401H124.321C124.321 74.5034 124.321 74.1666 124.321 73.8349H123.316C123.316 73.4982 123.316 73.1664 123.316 72.8297H122.311C122.311 72.4929 122.311 72.1562 122.311 71.8245H121.307C121.307 71.4877 121.307 71.151 121.307 70.8192H120.302C120.302 70.4825 120.302 70.1457 120.302 69.814H119.297C119.297 69.4773 119.297 69.1405 119.297 68.8088H118.292C118.292 68.4721 118.292 68.1353 118.292 67.8036H117.287C117.287 67.4668 117.287 67.1301 117.287 66.7984H116.283C116.283 66.4616 116.283 66.1249 116.283 65.7931H115.278C115.278 65.4564 115.278 65.1196 115.278 64.7879H114.273C114.273 64.4512 114.273 64.1144 114.273 63.7827H113.268C113.268 63.4459 113.268 63.1092 113.268 62.7775H112.263C112.263 62.4407 112.263 62.104 112.263 61.7723H111.258C111.258 61.4355 111.258 61.0988 111.258 60.767H110.254C110.254 60.4303 110.254 60.0935 110.254 59.7618H109.249C109.249 59.4251 109.249 59.0883 109.249 58.7566H93.6339C93.6339 59.0933 93.6339 59.4301 93.6339 59.7618C93.6339 59.4251 93.6339 59.0883 93.6339 58.7566H61.9822C61.9447 58.9762 61.9195 59.1977 61.9068 59.42C61.9068 65.6926 61.9068 71.9652 61.9068 78.2378C61.9288 78.5246 61.9674 78.8099 62.0224 79.0922H62.9167V79.248C62.9386 79.5348 62.9772 79.8201 63.0322 80.1025H63.9265V80.2583C63.9485 80.5451 63.987 80.8304 64.0421 81.1127H64.9364V81.2635C64.9579 81.552 64.9965 81.839 65.0519 82.1229H65.9462V82.2737C65.9652 82.5625 66.0039 82.8497 66.0617 83.1332H66.956V83.284C66.9751 83.5727 67.0137 83.8599 67.0716 84.1434H67.9659V84.2942C67.9849 84.583 68.0235 84.8701 68.0814 85.1537H68.6642V86.4756C68.6642 89.642 68.7094 92.8084 68.7346 95.9749L68.7295 106.012V112.767V119.517C68.7295 121.769 68.7295 124.019 68.7295 126.267L68.7597 136.425C68.7346 136.722 68.6893 137.018 68.6893 137.32C68.6893 143.854 68.6893 150.332 68.6893 156.841C68.6973 157.852 68.7863 158.86 68.9556 159.857C69.6136 163.439 71.43 166.706 74.1254 169.155C74.4603 169.507 74.7953 169.842 75.1302 170.16C75.4652 170.479 75.8001 170.814 76.135 171.165C76.47 171.5 76.8049 171.836 77.1398 172.171C77.4614 172.517 77.803 172.854 78.1447 173.176C78.4863 173.498 78.8028 173.859 79.1495 174.181C79.4961 174.503 79.8076 174.865 80.1543 175.186C80.501 175.508 80.8125 175.87 81.1591 176.192C81.5058 176.513 81.8173 176.875 82.1639 177.197C82.5106 177.518 82.8221 177.885 83.1688 178.202C83.5154 178.519 83.8269 178.891 84.1736 179.207C84.5202 179.524 84.8317 179.896 85.1784 180.212C85.5251 180.529 85.8365 180.901 86.1832 181.218C86.5299 181.534 86.8414 181.906 87.188 182.223C87.5347 182.539 87.8462 182.911 88.1928 183.228C88.5395 183.545 88.851 183.917 89.1977 184.233C89.5443 184.55 89.8608 184.922 90.2025 185.239C90.5441 185.555 90.8657 185.927 91.2073 186.244C91.5489 186.56 91.8705 186.932 92.2121 187.249C92.5537 187.566 92.8753 187.938 93.2169 188.254C93.5586 188.571 93.8801 188.938 94.2217 189.259C94.5634 189.581 94.8849 189.943 95.2266 190.265C95.5682 190.586 95.8847 190.948 96.2314 191.27C96.578 191.592 96.8895 191.953 97.2362 192.275C97.5829 192.597 97.8944 192.964 98.241 193.28C98.5877 193.597 98.8992 193.969 99.2458 194.285C99.5925 194.602 99.904 194.974 100.251 195.291C100.597 195.607 100.909 195.979 101.255 196.296C101.602 196.613 101.914 196.985 102.26 197.301C102.607 197.618 102.918 197.99 103.265 198.306C103.612 198.623 103.923 198.995 104.27 199.312C104.617 199.628 104.928 200 105.275 200.317C105.621 200.633 105.933 201.005 106.28 201.322C106.626 201.639 106.943 202.011 107.284 202.327C107.626 202.644 107.948 203.016 108.289 203.332C108.631 203.649 108.952 204.021 109.294 204.338C109.636 204.654 109.957 205.021 110.299 205.343C110.64 205.665 110.962 206.026 111.304 206.348C111.645 206.67 111.962 207.032 112.308 207.353C112.655 207.675 112.967 208.037 113.313 208.359C113.66 208.68 113.971 209.042 114.318 209.364C114.665 209.685 114.976 210.052 115.323 210.369C115.67 210.686 115.981 211.058 116.328 211.374C116.674 211.691 116.986 212.063 117.333 212.379C117.679 212.696 117.991 213.068 118.337 213.385C118.684 213.701 118.996 214.073 119.342 214.39C119.689 214.707 120 215.078 120.347 215.395C120.694 215.712 121.005 216.084 121.352 216.4C121.698 216.717 122.01 217.089 122.357 217.406C122.703 217.722 123.02 218.094 123.361 218.411C123.703 218.727 124.025 219.099 124.366 219.416C124.708 219.733 125.029 220.105 125.371 220.421C125.713 220.738 126.034 221.105 126.376 221.426C126.718 221.748 127.039 222.11 127.381 222.432C127.722 222.753 128.044 223.115 128.386 223.437C128.727 223.759 129.044 224.12 129.39 224.442C129.737 224.764 130.049 225.126 130.395 225.447C130.742 225.769 131.053 226.136 131.4 226.453C131.747 226.769 132.058 227.141 132.405 227.458C132.751 227.774 133.063 228.146 133.41 228.463C133.756 228.78 134.068 229.152 134.414 229.468C134.761 229.785 135.073 230.157 135.419 230.473C135.766 230.79 136.077 231.162 136.424 231.479C136.771 231.795 137.082 232.167 137.429 232.484C137.776 232.801 138.087 233.172 138.434 233.489C138.78 233.806 139.097 234.178 139.439 234.494C139.78 234.811 140.102 235.183 140.443 235.5C140.785 235.816 141.107 236.188 141.448 236.505C141.79 236.821 142.111 237.193 142.453 237.51C142.795 237.827 143.116 238.194 143.458 238.515C143.799 238.837 144.121 239.199 144.463 239.52C144.804 239.842 145.121 240.204 145.467 240.526C145.814 240.847 146.126 241.209 146.472 241.531C146.819 241.853 147.13 242.214 147.477 242.536C147.824 242.858 148.135 243.225 148.482 243.541C148.829 243.858 149.14 244.23 149.487 244.547C149.833 244.863 150.145 245.235 150.492 245.552C150.838 245.868 151.15 246.24 151.496 246.557C151.843 246.874 152.154 247.246 152.501 247.562C152.848 247.879 153.159 248.251 153.506 248.567C153.853 248.884 154.164 249.256 154.511 249.573C154.857 249.889 155.169 250.261 155.516 250.578C155.862 250.895 156.179 251.266 156.52 251.583C156.862 251.9 157.184 252.272 157.525 252.588C157.867 252.905 158.188 253.277 158.53 253.594C158.872 253.91 159.193 254.282 159.535 254.599C159.877 254.915 160.198 255.282 160.54 255.604C160.881 255.926 161.198 256.288 161.545 256.609C161.891 256.931 162.203 257.293 162.549 257.614C162.896 257.936 163.207 258.298 163.554 258.62C163.901 258.941 164.212 259.308 164.559 259.625C164.906 259.941 165.217 260.313 165.564 260.63C165.91 260.947 166.222 261.319 166.569 261.635C166.915 261.952 167.227 262.324 167.573 262.641C167.92 262.957 168.232 263.329 168.578 263.646C168.925 263.962 169.236 264.334 169.583 264.651C169.93 264.968 170.241 265.34 170.588 265.656C170.935 265.973 171.246 266.345 171.593 266.661C171.939 266.978 172.256 267.35 172.597 267.667C172.939 267.983 173.261 268.355 173.602 268.672C173.944 268.988 174.265 269.36 174.607 269.677C177.802 273.145 182.379 275.316 187.057 275.135C188.174 275.096 189.288 274.99 190.393 274.819C194.227 274.065 197.678 271.996 200.148 268.967C202.619 265.938 203.954 262.142 203.923 258.233C203.963 251.834 203.923 245.436 203.923 239.033C203.904 238.664 203.865 238.297 203.807 237.932C203.95 237.572 204.048 237.196 204.099 236.811C204.099 233.441 204.099 230.071 204.099 226.704L204.234 226.84C204.561 227.181 204.897 227.513 205.239 227.845C205.581 228.177 205.902 228.518 206.244 228.85C206.585 229.182 206.907 229.529 207.249 229.855C207.59 230.182 207.912 230.534 208.253 230.86C208.595 231.187 208.917 231.539 209.258 231.866C209.6 232.192 209.921 232.544 210.263 232.871C210.605 233.198 210.926 233.549 211.268 233.876C211.61 234.203 211.931 234.555 212.273 234.881C212.614 235.208 212.936 235.56 213.278 235.887C213.619 236.213 213.941 236.565 214.282 236.892C214.624 237.218 214.946 237.57 215.287 237.897C215.629 238.224 215.95 238.576 216.292 238.902C216.634 239.229 216.96 239.581 217.297 239.907C217.633 240.234 217.965 240.586 218.302 240.913C218.638 241.239 218.97 241.591 219.306 241.918C219.643 242.245 219.97 242.596 220.311 242.923C220.653 243.25 220.974 243.602 221.316 243.928C221.658 244.255 221.979 244.602 222.321 244.934C222.663 245.265 222.984 245.612 223.326 245.939C225.214 248.019 227.376 249.833 229.752 251.332C233.956 254.052 238.884 255.438 243.889 255.307C244.072 255.339 244.257 255.356 244.442 255.358C255.962 254.674 264.212 249.12 268.849 238.55C271.873 231.645 271.311 224.533 269.346 217.456Z" fill="#FFA5A9"/>
</g>
<path d="M108.711 58.646C108.711 62.0085 108.766 65.3659 108.777 68.7284C108.787 72.0908 108.777 75.4382 108.777 78.9766H102.019L92.9758 78.861L93.2018 58.646H108.711Z" fill="#05303D"/>
<path d="M68.2271 78.9816H61.6003C61.5466 78.6992 61.5097 78.4139 61.4898 78.1272C61.4898 71.8546 61.4898 65.582 61.4898 59.3094C61.5025 59.0871 61.5276 58.8656 61.5651 58.646H77.0594C77.0594 63.9502 77.0594 69.2494 77.0594 74.5436C77.0943 74.9375 77.1632 75.3276 77.2654 75.7096L77.0544 78.861C76.6475 78.861 76.2355 78.9062 75.8285 78.9113L68.2271 78.9816Z" fill="#0A789A"/>
<path d="M93.2169 58.646L92.9908 78.861L85.1131 78.9917V78.8811V58.646H93.2169Z" fill="#08475D"/>
<path d="M85.1331 58.646C85.1331 65.391 85.1331 72.1361 85.1331 78.8811H77.0695C77.1398 77.8306 77.2152 76.7802 77.2855 75.7297C77.2855 70.0335 77.2855 64.3456 77.2855 58.6661L85.1331 58.646Z" fill="#0A617D"/>
<path d="M77.2704 58.646C77.2704 64.3423 77.2704 70.0301 77.2704 75.7096C77.1658 75.3282 77.0968 74.9378 77.0644 74.5436C77.0644 69.2461 77.0644 63.9469 77.0644 58.646H77.2704Z" fill="#0A789A"/>
<path d="M141.508 153.293C136.502 153.422 131.573 152.038 127.366 149.322C118.583 143.663 114.253 135.55 114.484 125.076C114.636 118.195 116.699 111.491 120.442 105.716C127.232 95.0099 134.038 84.3194 140.86 73.644C141.098 73.3849 141.377 73.166 141.684 72.9956C141.593 73.3465 141.532 73.7047 141.503 74.0662C141.503 87.707 141.503 101.346 141.503 114.984H138.062V121.829H131.42V128.539H138.147V135.339H141.503L141.508 153.293Z" fill="#FE4A4A"/>
<path d="M141.508 153.293V135.229H144.93V128.494H151.557V121.749H144.834V115.049H141.488V114.984C141.488 101.346 141.488 87.707 141.488 74.0662C141.517 73.7047 141.578 73.3465 141.669 72.9956C147.909 82.7965 154.156 92.5924 160.409 102.383C163.057 106.51 165.619 110.666 166.94 115.451C168.905 122.528 169.452 129.64 166.438 136.561C161.796 147.116 153.551 152.685 142.031 153.368C141.855 153.359 141.68 153.333 141.508 153.293V153.293Z" fill="#C30148"/>
<path d="M101.888 95.8944C102.031 96.2562 102.127 96.6345 102.175 97.0203C102.175 109.773 102.175 122.524 102.175 135.274C102.125 135.658 102.027 136.035 101.883 136.395H95.8546L85.1281 136.46C85.1407 136.411 85.1407 136.359 85.1281 136.309V112.797V112.707H88.429V106.077H85.1332V105.972C85.1332 102.621 85.1332 99.2837 85.1332 95.9598C85.1457 95.9086 85.1457 95.8551 85.1332 95.804C85.5401 95.804 85.9471 95.8693 86.354 95.8693L101.888 95.8944Z" fill="#DBE8EA"/>
<path d="M85.1382 173.603C77.3659 173.9 69.8649 167.707 68.5285 159.852C68.3551 158.856 68.2643 157.847 68.2572 156.836C68.2321 150.302 68.2572 143.823 68.2572 137.315C68.2572 137.013 68.3025 136.717 68.3276 136.42C71.2415 136.42 74.1605 136.42 77.0745 136.42C79.7624 136.42 82.4553 136.375 85.1432 136.35C85.1557 136.399 85.1557 136.451 85.1432 136.5C85.1398 148.861 85.1382 161.229 85.1382 173.603Z" fill="#FE4A4B"/>
<path d="M85.1382 173.603C85.1382 161.229 85.1382 148.854 85.1382 136.48L95.8646 136.415H101.894C101.952 136.781 101.991 137.15 102.009 137.521C102.009 143.919 102.044 150.317 102.009 156.715C102.039 160.624 100.704 164.42 98.2333 167.449C95.763 170.477 92.313 172.547 88.4792 173.301C87.3722 173.465 86.2567 173.566 85.1382 173.603V173.603Z" fill="#C30048"/>
<path d="M85.1331 136.329C82.4452 136.329 79.7523 136.385 77.0644 136.4C74.1505 136.4 71.2315 136.4 68.3175 136.4C68.3175 133.016 68.3058 129.63 68.2823 126.242H81.6765V119.517H68.2924V112.767L85.1331 112.797V136.329Z" fill="#F5F8F9"/>
<path d="M77.0494 78.8611H85.1131V78.9717V95.784C85.1256 95.8352 85.1256 95.8886 85.1131 95.9398C84.7061 95.9147 84.2941 95.8644 83.8872 95.8644H68.3125C68.3125 92.698 68.2623 89.5315 68.2472 86.3651C68.2472 83.9023 68.2472 81.4445 68.2472 78.9817L75.8386 78.9113C76.2355 78.9063 76.6425 78.8812 77.0494 78.8611Z" fill="#FC4B4B"/>
<path d="M85.1281 95.8041V78.9918L93.0059 78.8611L102.049 78.9767C102.049 84.1737 102.049 89.3673 102.049 94.5576C102.049 94.9999 101.979 95.4422 101.939 95.8845L86.3892 95.8594C85.942 95.8694 85.5351 95.8242 85.1281 95.8041Z" fill="#C20048"/>
<path d="M68.3125 95.8643H83.8872C84.2941 95.8643 84.7061 95.9145 85.1131 95.9396C85.1131 99.2904 85.1131 102.628 85.1131 105.952L68.2572 105.992L68.3125 95.8643Z" fill="#F6F8F9"/>
<path d="M68.2823 106.012L85.1382 105.972V106.077C85.1382 108.289 85.1382 110.499 85.1382 112.707V112.797L68.2974 112.767L68.2823 106.012Z" fill="#01EDCE"/>
<path d="M68.2924 119.517H81.6766V126.267H68.2823L68.2924 119.517Z" fill="#01EDCE"/>
<path d="M141.503 135.339H138.147V128.539H131.42V121.829H138.062V114.984H141.493V115.049V135.244L141.503 135.339Z" fill="#F6F8F9"/>
<path d="M141.503 135.229V115.034H144.849V121.734H151.567V128.494H144.925V135.229H141.503Z" fill="#DBE9EB"/>
<path d="M85.1231 112.707C85.1231 110.495 85.1231 108.285 85.1231 106.077H88.4189V112.707H85.1231Z" fill="#01B5BC"/>
</svg>
