<svg width="231" height="232" viewBox="0 0 231 232" fill="none" xmlns="http://www.w3.org/2000/svg">
<path d="M115.5 231.63C179.289 231.63 231 179.919 231 116.13C231 52.3408 179.289 0.629639 115.5 0.629639C51.7111 0.629639 0 52.3408 0 116.13C0 179.919 51.7111 231.63 115.5 231.63Z" fill="#F8E1E1"/>
<mask id="mask0_377_4778" style="mask-type:alpha" maskUnits="userSpaceOnUse" x="0" y="0" width="231" height="232">
<path d="M115.5 231.63C179.289 231.63 231 179.919 231 116.13C231 52.3408 179.289 0.629639 115.5 0.629639C51.7111 0.629639 0 52.3408 0 116.13C0 179.919 51.7111 231.63 115.5 231.63Z" fill="#F8E1E1"/>
</mask>
<g mask="url(#mask0_377_4778)">
<path d="M253.241 179.775C253.241 178.911 253.24 178.041 253.2 177.177C253.2 166.404 253.21 155.632 253.23 144.859C253.225 142.221 252.681 139.612 251.631 137.192C250.581 134.772 249.047 132.592 247.124 130.786C246.862 130.511 246.596 130.245 246.325 129.987C246.068 129.71 245.822 129.449 245.525 129.188C245.229 128.926 245.023 128.65 244.726 128.388C244.43 128.127 244.224 127.851 243.927 127.589C243.631 127.328 243.425 127.051 243.133 126.795C242.841 126.539 242.63 126.252 242.334 125.996C242.037 125.74 241.831 125.453 241.535 125.197C241.238 124.94 241.007 124.659 240.736 124.398C240.464 124.136 240.233 123.86 239.936 123.599C239.64 123.337 239.434 123.061 239.137 122.799C238.841 122.538 238.635 122.262 238.343 122.005C238.052 121.749 237.815 121.462 237.544 121.206C237.273 120.95 237.041 120.663 236.745 120.407C236.448 120.151 236.242 119.869 235.946 119.608C235.649 119.346 235.418 119.07 235.147 118.809C234.875 118.547 234.644 118.271 234.347 118.009C234.051 117.748 233.845 117.472 233.553 117.215C233.262 116.959 233.025 116.673 232.754 116.416C232.483 116.16 232.251 115.873 231.955 115.617C231.658 115.361 231.452 115.079 231.156 114.818C230.859 114.557 230.653 114.28 230.357 114.019C230.06 113.757 229.854 113.481 229.557 113.22C229.261 112.958 229.055 112.682 228.763 112.425C228.472 112.169 228.261 111.883 227.964 111.626C227.668 111.37 227.436 111.084 227.165 110.827C226.894 110.571 226.662 110.289 226.366 110.028C226.069 109.767 225.863 109.49 225.567 109.229C225.27 108.968 225.064 108.691 224.768 108.43C224.471 108.168 224.265 107.892 223.973 107.636C223.682 107.379 223.471 107.093 223.174 106.836C222.878 106.58 222.672 106.294 222.375 106.037C222.079 105.781 221.847 105.499 221.576 105.238C221.305 104.977 221.073 104.7 220.777 104.439C220.48 104.178 220.274 103.901 219.978 103.64C219.681 103.378 219.475 103.102 219.184 102.846C218.892 102.589 218.681 102.303 218.384 102.047C218.088 101.79 217.882 101.504 217.585 101.247C217.289 100.991 217.083 100.71 216.786 100.448C216.49 100.187 216.258 99.9105 215.987 99.6491C215.716 99.3878 215.484 99.1113 215.188 98.85C214.891 98.5886 214.685 98.3122 214.394 98.0558C214.102 97.7995 213.866 97.513 213.595 97.2567C213.323 97.0004 213.092 96.7139 212.795 96.4575C212.499 96.2012 212.293 95.9197 211.996 95.6584C211.7 95.397 211.468 95.1206 211.197 94.8592C210.926 94.5979 210.694 94.3214 210.398 94.0601C210.101 93.7987 209.895 93.5223 209.604 93.266C209.312 93.0096 209.101 92.7231 208.805 92.4668C208.508 92.2105 208.277 91.924 208.006 91.6676C207.734 91.4113 207.503 91.1299 207.206 90.8685C206.91 90.6071 206.704 90.3307 206.407 90.0693C206.111 89.808 205.905 89.5316 205.608 89.2702C205.312 89.0088 205.105 88.7324 204.814 88.4761C204.522 88.2197 204.311 87.9333 204.015 87.6769C203.718 87.4206 203.512 87.1341 203.216 86.8778C202.919 86.6214 202.688 86.34 202.416 86.0786C202.145 85.8173 201.914 85.5408 201.617 85.2795C201.321 85.0181 201.115 84.7417 200.818 84.4803C200.522 84.219 200.316 83.9425 200.024 83.6862C199.733 83.4299 199.521 83.1434 199.225 82.887C198.928 82.6307 198.722 82.3442 198.426 82.0879C198.129 81.8316 197.898 81.5501 197.627 81.2887C197.355 81.0274 197.099 80.7509 196.827 80.4896C196.556 80.2282 196.325 79.9518 196.028 79.6904C195.732 79.4291 195.526 79.1526 195.234 78.8963C194.943 78.64 194.706 78.3535 194.435 78.0972C194.164 77.8408 193.932 77.5543 193.636 77.298C193.339 77.0417 193.133 76.7602 192.837 76.4989C192.54 76.2375 192.309 75.9611 192.038 75.6997C191.766 75.4383 191.535 75.1619 191.238 74.9006C190.942 74.6392 190.736 74.3628 190.444 74.1064C190.153 73.8501 189.942 73.5636 189.645 73.3073C189.349 73.0509 189.117 72.7645 188.846 72.5081C188.575 72.2518 188.343 71.9703 188.047 71.709C187.75 71.4476 187.544 71.1712 187.248 70.9098C186.951 70.6485 186.745 70.372 186.449 70.1107C186.152 69.8493 185.946 69.5729 185.654 69.3165C185.363 69.0602 185.152 68.7737 184.855 68.5174C184.559 68.2611 184.328 67.9746 184.056 67.7182C183.785 67.4619 183.528 67.1804 183.257 66.9191C182.986 66.6577 182.754 66.3813 182.458 66.1199C182.161 65.8586 181.955 65.5821 181.659 65.3208C181.362 65.0594 181.156 64.783 180.865 64.5267C180.573 64.2703 180.362 63.9838 180.065 63.7275C179.769 63.4712 179.563 63.1847 179.266 62.9284C178.97 62.672 178.738 62.3906 178.467 62.1292C178.196 61.8679 177.939 61.5914 177.668 61.3301C177.397 61.0687 177.165 60.7923 176.869 60.5309C176.572 60.2696 176.366 59.9931 176.075 59.7368C175.783 59.4804 175.547 59.194 175.276 58.9376C175.004 58.6813 174.773 58.3948 174.476 58.1385C174.18 57.8821 173.974 57.6007 173.677 57.3393C173.381 57.078 173.149 56.8015 172.878 56.5402C172.607 56.2788 172.375 56.0024 172.079 55.741C171.782 55.4797 171.576 55.2032 171.285 54.9469C170.993 54.6906 170.757 54.4041 170.486 54.1477C170.214 53.8914 169.958 53.6049 169.686 53.3486C169.415 53.0923 169.184 52.8108 168.887 52.5494C168.591 52.2881 168.385 52.0117 168.088 51.7503C167.792 51.4889 167.586 51.2125 167.289 50.9511C165.47 48.9777 163.253 47.4123 160.785 46.3579C158.317 45.3036 155.653 44.7843 152.97 44.8344C152.459 44.7463 151.944 44.6876 151.427 44.6584H80.5585C80.0411 44.6873 79.5259 44.746 79.0154 44.8344C77.6785 44.9449 76.3214 44.9449 74.9945 45.1812C66.6713 46.689 59.5292 54.6906 59.4136 62.9233C59.2779 74.1265 59.3834 85.3347 59.3834 96.5379C59.3834 96.7792 59.3432 97.0154 59.3432 97.2567C59.3432 120.873 59.3432 144.495 59.3432 168.125C59.3305 168.941 59.3759 169.758 59.4789 170.568C60.0894 174.955 62.1759 179.004 65.3947 182.047C65.651 182.324 65.8973 182.59 66.1938 182.846C66.4904 183.103 66.6964 183.389 66.993 183.645C67.2895 183.902 67.4956 184.188 67.7871 184.445C68.0786 184.701 68.3148 184.982 68.5863 185.244C68.8577 185.505 69.114 185.782 69.3854 186.043C69.6568 186.304 69.888 186.581 70.1846 186.837C70.4811 187.093 70.7123 187.38 70.9837 187.636C71.2551 187.893 71.4863 188.179 71.7829 188.435C72.0794 188.692 72.2855 188.973 72.577 189.234C72.8685 189.496 73.1047 189.772 73.3762 190.034C73.6476 190.295 73.8788 190.571 74.1753 190.833C74.4718 191.094 74.703 191.371 74.9745 191.627C75.2459 191.883 75.4771 192.17 75.7736 192.426C76.0701 192.682 76.2762 192.969 76.5727 193.225C76.8693 193.482 77.0754 193.768 77.3669 194.024C77.6584 194.281 77.8946 194.562 78.166 194.824C78.4374 195.085 78.6938 195.361 78.9652 195.623C79.2366 195.884 79.4678 196.16 79.7643 196.422C80.0609 196.683 80.2921 196.96 80.5635 197.216C80.8349 197.472 81.0661 197.759 81.3626 198.015C81.6592 198.271 81.8652 198.558 82.1568 198.814C82.4483 199.071 82.6845 199.352 82.9559 199.613C83.2273 199.875 83.4585 200.151 83.7551 200.413C84.0516 200.674 84.2828 200.95 84.5542 201.212C84.8256 201.473 85.0568 201.749 85.3534 202.006C85.6499 202.262 85.856 202.549 86.1525 202.805C86.4491 203.061 86.6551 203.348 86.9466 203.604C87.2382 203.86 87.4493 204.142 87.7458 204.403C88.0423 204.665 88.2735 204.941 88.5449 205.202C88.8164 205.464 89.0476 205.74 89.3441 206.002C89.6406 206.263 89.8718 206.539 90.1432 206.796C90.4147 207.052 90.6459 207.339 90.9424 207.595C91.2389 207.851 91.445 208.138 91.7365 208.394C92.028 208.65 92.2643 208.932 92.5357 209.193C92.8071 209.455 93.0383 209.731 93.3348 209.992C93.6314 210.254 93.8626 210.53 94.134 210.791C94.4054 211.053 94.6617 211.329 94.9331 211.586C95.2045 211.842 95.4357 212.128 95.7323 212.385C96.0288 212.641 96.2349 212.928 96.5314 213.184C96.828 213.44 97.034 213.722 97.3256 213.983C97.6171 214.244 97.8533 214.521 98.1247 214.782C98.3961 215.044 98.6273 215.32 98.9239 215.581C99.2204 215.843 99.4516 216.119 99.723 216.375C99.9944 216.632 100.226 216.918 100.522 217.175C100.819 217.431 101.025 217.717 101.321 217.974C101.618 218.23 101.824 218.512 102.115 218.773C102.407 219.034 102.618 219.311 102.915 219.572C103.211 219.833 103.442 220.11 103.714 220.371C103.985 220.633 104.241 220.909 104.513 221.165C104.784 221.422 105.016 221.708 105.312 221.965C105.609 222.221 105.815 222.507 106.111 222.764C106.408 223.02 106.614 223.301 106.905 223.563C107.197 223.824 107.433 224.101 107.704 224.362C107.976 224.623 108.232 224.9 108.504 225.161C108.775 225.422 109.031 225.699 109.303 225.955C109.574 226.212 109.805 226.498 110.102 226.754C110.398 227.011 110.605 227.297 110.901 227.554C111.198 227.81 111.404 228.091 111.695 228.353C111.987 228.614 112.198 228.89 112.494 229.152C112.791 229.413 113.022 229.69 113.294 229.951C113.565 230.212 113.821 230.489 114.093 230.745C114.364 231.001 114.595 231.288 114.892 231.544C115.188 231.801 115.394 232.087 115.691 232.343C115.987 232.6 116.194 232.881 116.485 233.143C116.777 233.404 117.013 233.68 117.284 233.942C117.556 234.203 117.812 234.48 118.083 234.741C118.355 235.002 118.611 235.279 118.883 235.535C119.154 235.791 119.385 236.078 119.682 236.334C119.978 236.59 120.184 236.877 120.481 237.133C120.777 237.39 120.983 237.671 121.275 237.932C121.566 238.194 121.803 238.47 122.074 238.732C122.346 238.993 122.577 239.269 122.873 239.531C123.17 239.792 123.376 240.069 123.672 240.325C123.969 240.581 124.175 240.868 124.472 241.124C124.768 241.38 124.974 241.667 125.266 241.923C125.557 242.18 125.768 242.461 126.065 242.722C126.361 242.984 126.593 243.26 126.864 243.522C127.135 243.783 127.392 244.059 127.663 244.316C127.935 244.572 128.166 244.858 128.462 245.115C128.759 245.371 128.965 245.658 129.261 245.914C129.558 246.17 129.764 246.457 130.056 246.713C130.347 246.969 130.558 247.251 130.855 247.512C131.151 247.774 131.357 248.05 131.654 248.311C131.95 248.573 132.182 248.849 132.453 249.106C132.724 249.362 132.981 249.648 133.252 249.905C133.524 250.161 133.755 250.447 134.051 250.704C134.348 250.96 134.554 251.247 134.845 251.503C135.137 251.759 135.373 252.041 135.645 252.302C135.916 252.563 136.147 252.84 136.444 253.101C136.74 253.363 136.946 253.639 137.243 253.895C137.539 254.152 137.771 254.438 138.042 254.695C138.313 254.951 138.545 255.237 138.841 255.494C139.138 255.75 139.344 256.037 139.635 256.293C139.927 256.549 140.163 256.831 140.435 257.092C140.706 257.353 140.962 257.63 141.234 257.891C141.505 258.152 141.736 258.429 142.033 258.685C142.329 258.942 142.535 259.228 142.832 259.484C143.129 259.741 143.335 260.027 143.631 260.284C143.928 260.54 144.134 260.826 144.425 261.083C144.717 261.339 144.928 261.621 145.224 261.882C147.132 263.899 149.434 265.503 151.987 266.594C154.54 267.685 157.29 268.24 160.066 268.225C184.408 268.079 208.754 268.19 233.096 268.154C234.842 268.178 236.584 267.995 238.288 267.612C247.249 265.43 253.235 257.705 253.246 248.321C253.266 225.473 253.264 202.624 253.241 179.775Z" fill="#FCC3C5"/>
</g>
<path d="M173.305 96.8997C173.305 97.7692 173.345 98.6438 173.345 99.5133C173.345 122.546 173.345 145.583 173.345 168.622C173.345 178.081 167.314 185.872 158.267 188.068C156.567 188.452 154.828 188.636 153.085 188.616C128.543 188.651 104 188.541 79.4628 188.686C69.8328 188.747 60.8411 181.931 59.3584 171.522C59.2528 170.704 59.2074 169.879 59.2227 169.055C59.2227 145.244 59.2227 121.434 59.2227 97.6234C59.2227 97.3822 59.2528 97.1208 59.2629 96.8997C70.1528 96.8997 81.0427 96.8997 91.9326 96.8997C92.4903 96.858 93.0435 96.7689 93.5862 96.6333H139.022C139.565 96.7689 140.118 96.858 140.676 96.8997C151.539 96.9064 162.415 96.9064 173.305 96.8997ZM71.4612 143.14C71.4612 149.056 71.4612 154.971 71.4612 160.887C71.4902 162.139 71.6247 163.387 71.8633 164.616C73.2154 172.156 80.9355 177.413 88.0072 176.041C93.1941 175.036 96.8883 172.151 98.7229 167.31C99.6225 164.943 99.6979 162.234 99.9492 159.656C100.418 154.908 100.799 150.151 101.09 145.387C101.257 143.219 102.064 141.15 103.407 139.441C104.543 137.883 105.749 136.093 106.036 134.264C106.513 131.188 106.358 127.996 106.337 124.855C106.297 117.316 102.955 111.722 96.1244 108.334C88.8114 104.71 79.88 107.57 75.1554 113.863C72.4866 117.416 71.4562 121.462 71.4462 125.825C71.4512 131.62 71.4612 137.395 71.4612 143.165V143.14ZM161.077 143.14C161.077 137.611 161.077 132.082 161.077 126.554C161.079 124.961 160.979 123.369 160.775 121.789C159.423 112.063 149.647 105.077 139.987 107.088C136.136 107.913 132.678 110.019 130.175 113.06C127.673 116.102 126.274 119.901 126.206 123.84C126.125 126.795 126.1 129.76 126.206 132.711C126.287 134.051 126.605 135.367 127.146 136.596C127.706 137.715 128.418 138.752 129.262 139.677C130.805 141.562 131.342 143.698 131.463 146.11C131.714 151.212 132.282 156.298 132.539 161.4C132.825 167.014 134.946 171.522 139.882 174.422C145.943 177.976 153.206 176.292 157.644 171.015C160.212 167.964 161.042 164.35 161.067 160.495C161.107 154.725 161.077 148.955 161.077 143.185V143.14Z" fill="#E3456C"/>
<path d="M138.987 96.6135H93.5359C92.0885 96.3184 90.7626 95.5967 89.7289 94.5415C88.6952 93.4863 88.001 92.1459 87.7358 90.6927C86.362 83.3211 84.9764 75.9494 83.5792 68.5778C82.0613 60.6399 80.5283 52.707 78.9803 44.7792C79.4958 44.6906 80.0161 44.6318 80.5384 44.6033C104.349 44.6033 128.161 44.6033 151.974 44.6033C152.495 44.6321 153.014 44.6908 153.528 44.7792C153.075 47.1415 152.619 49.5021 152.16 51.861C151.06 57.5757 149.944 63.2903 148.863 69.005C147.466 76.3783 146.174 83.7667 144.667 91.1199C144.068 94.0853 142.008 95.945 138.987 96.6135ZM116.153 89.3306H131.282C134.066 89.3306 135.805 88.059 136.358 85.3399C137.866 77.6449 139.319 69.9449 140.676 62.2198C141.178 59.4655 140.002 57.1082 137.781 56.3392C134.158 55.0261 130.467 53.9103 126.723 52.9969C121.546 51.8107 116.249 51.9916 110.966 52.3535C105.635 52.76 100.401 53.9962 95.4508 56.0176C92.3698 57.2289 91.3747 59.7168 91.9326 62.7274C93.2544 70.0605 94.6014 77.3886 95.8982 84.7267C96.4008 87.5313 98.4414 89.3256 101.331 89.3256L116.153 89.3306Z" fill="#EA4E7B"/>
<path d="M78.9954 44.7588C80.5266 52.69 82.0596 60.6229 83.5942 68.5574C84.9949 75.929 86.3804 83.3007 87.7508 90.6723C88.0114 92.1271 88.7017 93.4705 89.7328 94.5294C90.7639 95.5882 92.0885 96.314 93.5359 96.6132C92.9933 96.7487 92.4401 96.8379 91.8823 96.8796C80.9957 96.8997 70.1058 96.8997 59.2126 96.8796C59.2126 85.5809 59.107 74.262 59.2427 62.9885C59.3433 54.6854 66.5457 46.6285 74.9393 45.1056C76.2813 44.8844 77.6484 44.8844 78.9954 44.7588Z" fill="#C73B5D"/>
<path d="M138.987 96.6133C142.003 95.9448 144.068 94.1002 144.682 91.1097C146.189 83.7615 147.481 76.3731 148.878 68.9948C149.959 63.2801 151.075 57.5654 152.176 51.8507C152.635 49.5052 153.09 47.1446 153.543 44.7689C163.826 44.4322 173.346 53.1826 173.335 64.3104C173.335 75.1702 173.325 86.0316 173.305 96.8947C162.419 96.8947 151.529 96.8947 140.636 96.8947C140.079 96.8478 139.528 96.7536 138.987 96.6133V96.6133Z" fill="#C73B5D"/>
<path d="M71.4612 143.165C71.4612 137.395 71.4612 131.605 71.4612 125.85C71.4612 121.487 72.5016 117.441 75.1705 113.888C79.895 107.595 88.8264 104.735 96.1394 108.359C102.97 111.747 106.312 117.316 106.352 124.88C106.352 128.021 106.528 131.213 106.051 134.289C105.764 136.118 104.543 137.908 103.422 139.466C102.079 141.175 101.272 143.244 101.105 145.412C100.81 150.176 100.43 154.933 99.9643 159.681C99.713 162.259 99.6376 164.968 98.7379 167.335C96.9034 172.176 93.2092 175.061 88.0222 176.066C80.9505 177.438 73.2304 172.191 71.8784 164.641C71.6397 163.412 71.5052 162.164 71.4763 160.912C71.421 154.996 71.4612 149.081 71.4612 143.165ZM81.6341 124.066C81.2973 128.484 85.4439 131.545 88.7812 131.605C92.5206 131.655 96.5113 128.494 96.441 124.156C96.4364 123.174 96.2383 122.203 95.8581 121.298C95.478 120.392 94.9231 119.571 94.2253 118.88C93.5275 118.189 92.7004 117.643 91.7913 117.271C90.8822 116.9 89.9088 116.712 88.9269 116.718C87.962 116.705 87.0044 116.887 86.1111 117.252C85.2177 117.617 84.4068 118.158 83.7266 118.842C83.0463 119.527 82.5106 120.341 82.1511 121.237C81.7916 122.132 81.6158 123.091 81.6341 124.056V124.066Z" fill="#FFB0B0"/>
<path d="M161.077 143.185C161.077 148.955 161.107 154.745 161.077 160.495C161.052 164.35 160.222 167.964 157.654 171.015C153.216 176.292 145.953 177.976 139.892 174.422C134.956 171.522 132.855 167.014 132.549 161.4C132.292 156.298 131.724 151.212 131.473 146.11C131.352 143.698 130.815 141.587 129.272 139.677C128.428 138.752 127.716 137.715 127.156 136.596C126.612 135.369 126.29 134.055 126.206 132.716C126.075 129.765 126.1 126.8 126.206 123.845C126.285 119.914 127.691 116.125 130.194 113.093C132.698 110.062 136.152 107.965 139.997 107.143C149.657 105.132 159.433 112.119 160.785 121.844C160.989 123.424 161.089 125.016 161.087 126.609C161.097 132.133 161.077 137.656 161.077 143.185ZM150.904 124.287C151.195 119.824 147.481 116.723 143.701 116.692C142.707 116.67 141.718 116.848 140.794 117.214C139.869 117.58 139.027 118.128 138.318 118.825C137.608 119.523 137.046 120.355 136.664 121.273C136.281 122.191 136.087 123.177 136.092 124.171C136.017 128.147 139.555 131.384 143.526 131.57C147.23 131.736 151.256 128.112 150.904 124.287Z" fill="#FFB0B0"/>
<path d="M116.153 89.3305H101.326C98.4364 89.3305 96.3908 87.5362 95.8932 84.7316C94.5964 77.3935 93.2494 70.0654 91.9276 62.7323C91.3797 59.7166 92.3749 57.2337 95.4459 56.0224C100.396 54.0011 105.63 52.7648 110.961 52.3584C116.244 52.0066 121.541 51.8156 126.718 53.0018C130.462 53.9152 134.153 55.031 137.776 56.3441C139.997 57.1131 141.158 59.4704 140.671 62.2247C139.314 69.9448 137.856 77.6448 136.353 85.3448C135.821 88.0639 134.061 89.3355 131.277 89.3355L116.153 89.3305ZM118.772 57.083H113.746L107.504 57.671L102.623 58.832C101.025 59.3749 99.4366 59.9679 97.8182 60.4454C96.7577 60.757 96.6823 61.3803 96.8632 62.3101C97.6423 66.3913 98.3711 70.4826 99.13 74.5688C99.7365 77.8324 100.35 81.0977 100.97 84.3647H131.574C132.971 76.7803 134.358 69.3215 135.675 61.8527C135.673 61.5995 135.608 61.3508 135.485 61.1294C135.362 60.908 135.185 60.7212 134.971 60.5862C133.318 59.9177 131.604 59.4 129.91 58.827L125.019 57.6911L118.772 57.083Z" fill="#117077"/>
<path d="M81.6341 124.056C81.6117 123.088 81.7845 122.126 82.1422 121.227C82.4998 120.328 83.0349 119.51 83.7156 118.823C84.3963 118.135 85.2085 117.591 86.1039 117.224C86.9993 116.858 87.9594 116.675 88.927 116.687C89.9089 116.682 90.8822 116.87 91.7913 117.241C92.7004 117.612 93.5275 118.159 94.2254 118.85C94.9232 119.541 95.478 120.362 95.8582 121.267C96.2384 122.173 96.4364 123.144 96.441 124.126C96.5114 128.464 92.5207 131.625 88.7812 131.575C85.4439 131.534 81.2973 128.474 81.6341 124.056Z" fill="#C73B5D"/>
<path d="M150.904 124.287C151.256 128.112 147.23 131.736 143.526 131.565C139.555 131.379 136.017 128.142 136.092 124.167C136.088 123.172 136.283 122.187 136.665 121.27C137.048 120.352 137.61 119.521 138.32 118.824C139.029 118.127 139.871 117.58 140.795 117.214C141.719 116.848 142.708 116.671 143.701 116.693C147.481 116.723 151.195 119.824 150.904 124.287Z" fill="#C73B5D"/>
<path d="M129.91 58.8321C131.604 59.4051 133.318 59.9228 134.971 60.5912C135.185 60.7263 135.362 60.9131 135.485 61.1345C135.608 61.3558 135.673 61.6046 135.675 61.8578C134.358 69.3266 132.971 76.7854 131.573 84.3698H118.792C118.792 81.2737 118.827 78.1726 118.792 75.0765C118.792 73.1766 117.762 71.9754 116.244 71.9804C114.726 71.9854 113.731 73.1766 113.731 75.0765C113.731 78.1726 113.731 81.2737 113.731 84.3698H100.97C100.35 81.0994 99.7364 77.8342 99.13 74.5739C98.376 70.4877 97.6221 66.3964 96.8632 62.3152C96.6822 61.3854 96.7576 60.7621 97.8181 60.4505C99.4365 59.973 101.025 59.38 102.623 58.8371C103.015 60.7772 103.409 62.7173 103.804 64.6574C104.03 65.7732 104.543 66.6678 105.739 66.9493C107.524 67.3715 108.996 66.0395 108.725 64.1045C108.418 61.9583 107.931 59.8323 107.519 57.6962L113.761 57.1082C113.761 59.4302 113.761 61.7523 113.791 64.0794C113.826 65.9893 114.726 67.0046 116.269 67.0046C117.812 67.0046 118.712 65.9993 118.752 64.0794C118.792 61.7523 118.752 59.4302 118.777 57.1082L125.019 57.6962C124.627 59.7066 124.2 61.6719 123.853 63.6723C123.532 65.5168 124.301 66.7633 125.788 66.9845C127.276 67.2056 128.392 66.3311 128.759 64.5166C129.148 62.6067 129.531 60.7119 129.91 58.8321Z" fill="#FDFDFD"/>
<path d="M113.746 84.3447C113.746 81.2486 113.716 78.1475 113.746 75.0514C113.746 73.1515 114.751 71.9553 116.259 71.9553C117.767 71.9553 118.772 73.1515 118.807 75.0514C118.807 78.1475 118.807 81.2486 118.807 84.3447H113.746Z" fill="#C73B5D"/>
<path d="M118.777 57.0828C118.777 59.4048 118.777 61.7269 118.752 64.054C118.712 65.9589 117.807 66.9792 116.269 66.9792C114.731 66.9792 113.826 65.974 113.791 64.054C113.746 61.7269 113.791 59.4048 113.761 57.0828H118.777Z" fill="#102D32"/>
<path d="M107.519 57.6711C107.931 59.8072 108.418 61.9333 108.725 64.0794C108.996 66.0145 107.524 67.3464 105.739 66.9242C104.543 66.6427 104.03 65.7481 103.804 64.6323C103.405 62.6922 103.012 60.7521 102.623 58.8121L107.519 57.6711Z" fill="#102D32"/>
<path d="M129.91 58.832C129.528 60.7285 129.144 62.6233 128.759 64.5165C128.392 66.3309 127.336 67.2105 125.788 66.9843C124.24 66.7581 123.532 65.5167 123.853 63.6721C124.2 61.6617 124.627 59.6864 125.019 57.696L129.91 58.832Z" fill="#102D32"/>
</svg>
