<svg width="153" height="29" viewBox="0 0 153 29" fill="none" xmlns="http://www.w3.org/2000/svg">
<rect x="12" y="3.00012" width="141" height="24" rx="10" fill="#C93B5D"/>
<path d="M31.444 14.8121C31.444 13.9961 31.632 13.2641 32.008 12.6161C32.392 11.9681 32.908 11.4641 33.556 11.1041C34.212 10.7361 34.928 10.5521 35.704 10.5521C36.592 10.5521 37.38 10.7721 38.068 11.2121C38.764 11.6441 39.268 12.2601 39.58 13.0601H37.936C37.72 12.6201 37.42 12.2921 37.036 12.0761C36.652 11.8601 36.208 11.7521 35.704 11.7521C35.152 11.7521 34.66 11.8761 34.228 12.1241C33.796 12.3721 33.456 12.7281 33.208 13.1921C32.968 13.6561 32.848 14.1961 32.848 14.8121C32.848 15.4281 32.968 15.9681 33.208 16.4321C33.456 16.8961 33.796 17.2561 34.228 17.5121C34.66 17.7601 35.152 17.8841 35.704 17.8841C36.208 17.8841 36.652 17.7761 37.036 17.5601C37.42 17.3441 37.72 17.0161 37.936 16.5761H39.58C39.268 17.3761 38.764 17.9921 38.068 18.4241C37.38 18.8561 36.592 19.0721 35.704 19.0721C34.92 19.0721 34.204 18.8921 33.556 18.5321C32.908 18.1641 32.392 17.6561 32.008 17.0081C31.632 16.3601 31.444 15.6281 31.444 14.8121ZM44.6013 12.2801C45.1053 12.2801 45.5533 12.3881 45.9453 12.6041C46.3453 12.8201 46.6573 13.1401 46.8813 13.5641C47.1133 13.9881 47.2293 14.5001 47.2293 15.1001V19.0001H45.8733V15.3041C45.8733 14.7121 45.7253 14.2601 45.4293 13.9481C45.1333 13.6281 44.7293 13.4681 44.2173 13.4681C43.7053 13.4681 43.2973 13.6281 42.9933 13.9481C42.6973 14.2601 42.5493 14.7121 42.5493 15.3041V19.0001H41.1813V10.1201H42.5493V13.1561C42.7813 12.8761 43.0733 12.6601 43.4253 12.5081C43.7853 12.3561 44.1773 12.2801 44.6013 12.2801ZM48.5182 15.6641C48.5182 15.0001 48.6542 14.4121 48.9262 13.9001C49.2062 13.3881 49.5822 12.9921 50.0542 12.7121C50.5342 12.4241 51.0622 12.2801 51.6382 12.2801C52.1582 12.2801 52.6102 12.3841 52.9942 12.5921C53.3862 12.7921 53.6982 13.0441 53.9302 13.3481V12.3881H55.3102V19.0001H53.9302V18.0161C53.6982 18.3281 53.3822 18.5881 52.9822 18.7961C52.5822 19.0041 52.1262 19.1081 51.6142 19.1081C51.0462 19.1081 50.5262 18.9641 50.0542 18.6761C49.5822 18.3801 49.2062 17.9721 48.9262 17.4521C48.6542 16.9241 48.5182 16.3281 48.5182 15.6641ZM53.9302 15.6881C53.9302 15.2321 53.8342 14.8361 53.6422 14.5001C53.4582 14.1641 53.2142 13.9081 52.9102 13.7321C52.6062 13.5561 52.2782 13.4681 51.9262 13.4681C51.5742 13.4681 51.2462 13.5561 50.9422 13.7321C50.6382 13.9001 50.3902 14.1521 50.1982 14.4881C50.0142 14.8161 49.9222 15.2081 49.9222 15.6641C49.9222 16.1201 50.0142 16.5201 50.1982 16.8641C50.3902 17.2081 50.6382 17.4721 50.9422 17.6561C51.2542 17.8321 51.5822 17.9201 51.9262 17.9201C52.2782 17.9201 52.6062 17.8321 52.9102 17.6561C53.2142 17.4801 53.4582 17.2241 53.6422 16.8881C53.8342 16.5441 53.9302 16.1441 53.9302 15.6881ZM58.703 13.5041V17.1641C58.703 17.4121 58.759 17.5921 58.871 17.7041C58.991 17.8081 59.191 17.8601 59.471 17.8601H60.311V19.0001H59.231C58.615 19.0001 58.143 18.8561 57.815 18.5681C57.487 18.2801 57.323 17.8121 57.323 17.1641V13.5041H56.543V12.3881H57.323V10.7441H58.703V12.3881H60.311V13.5041H58.703ZM67.5571 19.1081C66.9331 19.1081 66.3691 18.9681 65.8651 18.6881C65.3611 18.4001 64.9651 18.0001 64.6771 17.4881C64.3891 16.9681 64.2451 16.3681 64.2451 15.6881C64.2451 15.0161 64.3931 14.4201 64.6891 13.9001C64.9851 13.3801 65.3891 12.9801 65.9011 12.7001C66.4131 12.4201 66.9851 12.2801 67.6171 12.2801C68.2491 12.2801 68.8211 12.4201 69.3331 12.7001C69.8451 12.9801 70.2491 13.3801 70.5451 13.9001C70.8411 14.4201 70.9891 15.0161 70.9891 15.6881C70.9891 16.3601 70.8371 16.9561 70.5331 17.4761C70.2291 17.9961 69.8131 18.4001 69.2851 18.6881C68.7651 18.9681 68.1891 19.1081 67.5571 19.1081ZM67.5571 17.9201C67.9091 17.9201 68.2371 17.8361 68.5411 17.6681C68.8531 17.5001 69.1051 17.2481 69.2971 16.9121C69.4891 16.5761 69.5851 16.1681 69.5851 15.6881C69.5851 15.2081 69.4931 14.8041 69.3091 14.4761C69.1251 14.1401 68.8811 13.8881 68.5771 13.7201C68.2731 13.5521 67.9451 13.4681 67.5931 13.4681C67.2411 13.4681 66.9131 13.5521 66.6091 13.7201C66.3131 13.8881 66.0771 14.1401 65.9011 14.4761C65.7251 14.8041 65.6371 15.2081 65.6371 15.6881C65.6371 16.4001 65.8171 16.9521 66.1771 17.3441C66.5451 17.7281 67.0051 17.9201 67.5571 17.9201ZM75.6774 12.2801C76.1974 12.2801 76.6614 12.3881 77.0694 12.6041C77.4854 12.8201 77.8094 13.1401 78.0414 13.5641C78.2734 13.9881 78.3894 14.5001 78.3894 15.1001V19.0001H77.0334V15.3041C77.0334 14.7121 76.8854 14.2601 76.5894 13.9481C76.2934 13.6281 75.8894 13.4681 75.3774 13.4681C74.8654 13.4681 74.4574 13.6281 74.1534 13.9481C73.8574 14.2601 73.7094 14.7121 73.7094 15.3041V19.0001H72.3414V12.3881H73.7094V13.1441C73.9334 12.8721 74.2174 12.6601 74.5614 12.5081C74.9134 12.3561 75.2854 12.2801 75.6774 12.2801ZM92.1316 12.3881L90.0796 19.0001H88.6396L87.3076 14.1161L85.9756 19.0001H84.5356L82.4716 12.3881H83.8636L85.2436 17.7041L86.6476 12.3881H88.0756L89.4196 17.6801L90.7876 12.3881H92.1316ZM96.5739 12.2801C97.0779 12.2801 97.5259 12.3881 97.9179 12.6041C98.3179 12.8201 98.6299 13.1401 98.8539 13.5641C99.0859 13.9881 99.2019 14.5001 99.2019 15.1001V19.0001H97.8459V15.3041C97.8459 14.7121 97.6979 14.2601 97.4019 13.9481C97.1059 13.6281 96.7019 13.4681 96.1899 13.4681C95.6779 13.4681 95.2699 13.6281 94.9659 13.9481C94.6699 14.2601 94.5219 14.7121 94.5219 15.3041V19.0001H93.1539V10.1201H94.5219V13.1561C94.7539 12.8761 95.0459 12.6601 95.3979 12.5081C95.7579 12.3561 96.1499 12.2801 96.5739 12.2801ZM100.491 15.6641C100.491 15.0001 100.627 14.4121 100.899 13.9001C101.179 13.3881 101.555 12.9921 102.027 12.7121C102.507 12.4241 103.035 12.2801 103.611 12.2801C104.131 12.2801 104.583 12.3841 104.967 12.5921C105.359 12.7921 105.671 13.0441 105.903 13.3481V12.3881H107.283V19.0001H105.903V18.0161C105.671 18.3281 105.355 18.5881 104.955 18.7961C104.555 19.0041 104.099 19.1081 103.587 19.1081C103.019 19.1081 102.499 18.9641 102.027 18.6761C101.555 18.3801 101.179 17.9721 100.899 17.4521C100.627 16.9241 100.491 16.3281 100.491 15.6641ZM105.903 15.6881C105.903 15.2321 105.807 14.8361 105.615 14.5001C105.431 14.1641 105.187 13.9081 104.883 13.7321C104.579 13.5561 104.251 13.4681 103.899 13.4681C103.547 13.4681 103.219 13.5561 102.915 13.7321C102.611 13.9001 102.363 14.1521 102.171 14.4881C101.987 14.8161 101.895 15.2081 101.895 15.6641C101.895 16.1201 101.987 16.5201 102.171 16.8641C102.363 17.2081 102.611 17.4721 102.915 17.6561C103.227 17.8321 103.555 17.9201 103.899 17.9201C104.251 17.9201 104.579 17.8321 104.883 17.6561C105.187 17.4801 105.431 17.2241 105.615 16.8881C105.807 16.5441 105.903 16.1441 105.903 15.6881ZM110.676 13.5041V17.1641C110.676 17.4121 110.732 17.5921 110.844 17.7041C110.964 17.8081 111.164 17.8601 111.444 17.8601H112.284V19.0001H111.204C110.588 19.0001 110.116 18.8561 109.788 18.5681C109.46 18.2801 109.296 17.8121 109.296 17.1641V13.5041H108.516V12.3881H109.296V10.7441H110.676V12.3881H112.284V13.5041H110.676ZM115.945 19.1081C115.425 19.1081 114.957 19.0161 114.541 18.8321C114.133 18.6401 113.809 18.3841 113.569 18.0641C113.329 17.7361 113.201 17.3721 113.185 16.9721H114.601C114.625 17.2521 114.757 17.4881 114.997 17.6801C115.245 17.8641 115.553 17.9561 115.921 17.9561C116.305 17.9561 116.601 17.8841 116.809 17.7401C117.025 17.5881 117.133 17.3961 117.133 17.1641C117.133 16.9161 117.013 16.7321 116.773 16.6121C116.541 16.4921 116.169 16.3601 115.657 16.2161C115.161 16.0801 114.757 15.9481 114.445 15.8201C114.133 15.6921 113.861 15.4961 113.629 15.2321C113.405 14.9681 113.293 14.6201 113.293 14.1881C113.293 13.8361 113.397 13.5161 113.605 13.2281C113.813 12.9321 114.109 12.7001 114.493 12.5321C114.885 12.3641 115.333 12.2801 115.837 12.2801C116.589 12.2801 117.193 12.4721 117.649 12.8561C118.113 13.2321 118.361 13.7481 118.393 14.4041H117.025C117.001 14.1081 116.881 13.8721 116.665 13.6961C116.449 13.5201 116.157 13.4321 115.789 13.4321C115.429 13.4321 115.153 13.5001 114.961 13.6361C114.769 13.7721 114.673 13.9521 114.673 14.1761C114.673 14.3521 114.737 14.5001 114.865 14.6201C114.993 14.7401 115.149 14.8361 115.333 14.9081C115.517 14.9721 115.789 15.0561 116.149 15.1601C116.629 15.2881 117.021 15.4201 117.325 15.5561C117.637 15.6841 117.905 15.8761 118.129 16.1321C118.353 16.3881 118.469 16.7281 118.477 17.1521C118.477 17.5281 118.373 17.8641 118.165 18.1601C117.957 18.4561 117.661 18.6881 117.277 18.8561C116.901 19.0241 116.457 19.1081 115.945 19.1081ZM128.1 17.2961H124.608L124.008 19.0001H122.58L125.568 10.6481H127.152L130.14 19.0001H128.7L128.1 17.2961ZM127.716 16.1801L126.36 12.3041L124.992 16.1801H127.716ZM132.807 13.3601C133.039 13.0561 133.355 12.8001 133.755 12.5921C134.155 12.3841 134.607 12.2801 135.111 12.2801C135.687 12.2801 136.211 12.4241 136.683 12.7121C137.163 12.9921 137.539 13.3881 137.811 13.9001C138.083 14.4121 138.219 15.0001 138.219 15.6641C138.219 16.3281 138.083 16.9241 137.811 17.4521C137.539 17.9721 137.163 18.3801 136.683 18.6761C136.211 18.9641 135.687 19.1081 135.111 19.1081C134.607 19.1081 134.159 19.0081 133.767 18.8081C133.375 18.6001 133.055 18.3441 132.807 18.0401V22.1441H131.439V12.3881H132.807V13.3601ZM136.827 15.6641C136.827 15.2081 136.731 14.8161 136.539 14.4881C136.355 14.1521 136.107 13.9001 135.795 13.7321C135.491 13.5561 135.163 13.4681 134.811 13.4681C134.467 13.4681 134.139 13.5561 133.827 13.7321C133.523 13.9081 133.275 14.1641 133.083 14.5001C132.899 14.8361 132.807 15.2321 132.807 15.6881C132.807 16.1441 132.899 16.5441 133.083 16.8881C133.275 17.2241 133.523 17.4801 133.827 17.6561C134.139 17.8321 134.467 17.9201 134.811 17.9201C135.163 17.9201 135.491 17.8321 135.795 17.6561C136.107 17.4721 136.355 17.2081 136.539 16.8641C136.731 16.5201 136.827 16.1201 136.827 15.6641ZM140.94 13.3601C141.172 13.0561 141.488 12.8001 141.888 12.5921C142.288 12.3841 142.74 12.2801 143.244 12.2801C143.82 12.2801 144.344 12.4241 144.816 12.7121C145.296 12.9921 145.672 13.3881 145.944 13.9001C146.216 14.4121 146.352 15.0001 146.352 15.6641C146.352 16.3281 146.216 16.9241 145.944 17.4521C145.672 17.9721 145.296 18.3801 144.816 18.6761C144.344 18.9641 143.82 19.1081 143.244 19.1081C142.74 19.1081 142.292 19.0081 141.9 18.8081C141.508 18.6001 141.188 18.3441 140.94 18.0401V22.1441H139.572V12.3881H140.94V13.3601ZM144.96 15.6641C144.96 15.2081 144.864 14.8161 144.672 14.4881C144.488 14.1521 144.24 13.9001 143.928 13.7321C143.624 13.5561 143.296 13.4681 142.944 13.4681C142.6 13.4681 142.272 13.5561 141.96 13.7321C141.656 13.9081 141.408 14.1641 141.216 14.5001C141.032 14.8361 140.94 15.2321 140.94 15.6881C140.94 16.1441 141.032 16.5441 141.216 16.8881C141.408 17.2241 141.656 17.4801 141.96 17.6561C142.272 17.8321 142.6 17.9201 142.944 17.9201C143.296 17.9201 143.624 17.8321 143.928 17.6561C144.24 17.4721 144.488 17.2081 144.672 16.8641C144.864 16.5201 144.96 16.1201 144.96 15.6641Z" fill="white"/>
<path d="M14.5235 25.9635C20.909 25.9635 26.0855 20.787 26.0855 14.4015C26.0855 8.01596 20.909 2.83948 14.5235 2.83948C8.13797 2.83948 2.96149 8.01596 2.96149 14.4015C2.96149 20.787 8.13797 25.9635 14.5235 25.9635Z" fill="#25D366"/>
<path d="M20.8732 17.2778C20.5207 17.1039 18.8193 16.272 18.4997 16.1545C18.1848 16.0323 17.9592 15.9807 17.7477 16.3285C17.5362 16.6716 16.8171 17.4846 16.6244 17.6867C16.4317 17.8888 16.2202 17.9499 15.8724 17.7761C14.8525 17.3624 13.9078 16.7796 13.0806 16.0511C12.3239 15.3508 11.6753 14.5424 11.1536 13.6494C10.9421 13.3063 11.1536 13.1183 11.3134 12.9538C11.4732 12.7893 11.6565 12.5496 11.8304 12.3475C11.9714 12.169 12.0842 11.9762 12.1735 11.7694C12.2816 11.5814 12.2816 11.3511 12.1735 11.1631C12.0889 10.9892 11.4215 9.28785 11.1066 8.58755C10.7917 7.88725 10.5379 8.00005 10.3546 7.98595H9.69661C9.34411 7.99535 9.00572 8.15515 8.77542 8.42305C7.96232 9.16095 7.50641 10.2137 7.51581 11.3135C7.63331 12.6201 8.12211 13.8703 8.92581 14.909C9.09971 15.1347 11.3698 18.6596 14.8478 20.1636C15.675 20.5255 16.3471 20.7323 16.8218 20.9156C17.5315 21.1271 18.2788 21.1742 19.0073 21.052C19.6747 20.9533 21.0612 20.2106 21.3573 19.4022C21.5876 18.8852 21.6581 18.3118 21.5594 17.7526C21.4748 17.5928 21.2445 17.5222 20.892 17.3342L20.8732 17.2778ZM24.37 4.57375C18.9603 -0.850052 10.176 -0.864151 4.74751 4.54555C0.296615 8.98705 -0.615185 15.8678 2.53381 21.3151L0.559814 28.5061L7.91531 26.5791C9.95041 27.6836 12.2299 28.2664 14.547 28.2664C22.2127 28.2711 28.4308 22.0672 28.4402 14.4061C28.4449 10.7166 26.9785 7.18225 24.37 4.57375ZM14.547 25.9211C12.479 25.9258 10.4486 25.3665 8.67201 24.3137L8.26781 24.0599L3.88742 25.2067L5.04831 20.9532L4.78042 20.5161C3.61952 18.6784 3.00851 16.5493 3.01791 14.3779C3.02261 8.00945 8.18791 2.84885 14.5611 2.85355C20.9296 2.85825 26.0902 8.02355 26.0855 14.3967C26.0761 20.7652 20.9155 25.9211 14.547 25.9211Z" fill="white"/>
<path fill-rule="evenodd" clip-rule="evenodd" d="M5.04829 20.9532L3.88739 25.2114L8.26779 24.0599L5.04829 20.9532Z" fill="#25D366"/>
</svg>
