<svg width="24" height="26" viewBox="0 0 24 26" fill="none" xmlns="http://www.w3.org/2000/svg">
<path d="M2.04004 6.45312H4.26686H22.0814" stroke="#525252" stroke-width="2.22682" stroke-linecap="round" stroke-linejoin="round"/>
<path d="M7.60683 6.45364V4.22682C7.60683 3.63623 7.84145 3.06983 8.25906 2.65222C8.67667 2.23461 9.24307 2 9.83366 2H14.2873C14.8779 2 15.4443 2.23461 15.8619 2.65222C16.2795 3.06983 16.5141 3.63623 16.5141 4.22682V6.45364M19.8544 6.45364V22.0414C19.8544 22.632 19.6197 23.1984 19.2021 23.616C18.7845 24.0336 18.2181 24.2682 17.6275 24.2682H6.49342C5.90283 24.2682 5.33643 24.0336 4.91882 23.616C4.50121 23.1984 4.2666 22.632 4.2666 22.0414V6.45364H19.8544Z" stroke="#525252" stroke-width="2.22682" stroke-linecap="round" stroke-linejoin="round"/>
<path d="M9.83398 12.0205V18.701" stroke="#525252" stroke-width="2.22682" stroke-linecap="round" stroke-linejoin="round"/>
<path d="M14.2871 12.0205V18.701" stroke="#525252" stroke-width="2.22682" stroke-linecap="round" stroke-linejoin="round"/>
</svg>
