<svg width="17" height="13" viewBox="0 0 17 13" fill="none" xmlns="http://www.w3.org/2000/svg">
<path d="M7.25904 12.7289V8.44578C7.25904 6.63855 7.06024 5.06627 6.66265 3.72892C6.26506 2.39157 5.6506 1.16265 4.81928 0.0421689H0.861445C1.76506 1.19879 2.46988 2.39157 2.9759 3.62048C3.48193 4.81325 3.73494 5.93373 3.73494 6.98193H0.915662V12.7289H7.25904ZM16.6928 12.7289V8.44578C16.6928 6.6747 16.512 5.12048 16.1506 3.78313C15.753 2.40964 15.1386 1.16265 14.3072 0.0421689H10.2952C11.1988 1.19879 11.9036 2.39157 12.4096 3.62048C12.9157 4.81325 13.1687 5.93373 13.1687 6.98193H10.3494V12.7289H16.6928Z" fill="#FF5D84"/>
</svg>
