<svg id="Layer_1" data-name="Layer 1" xmlns="http://www.w3.org/2000/svg" xmlns:xlink="http://www.w3.org/1999/xlink" viewBox="0 0 761.39 783.08"><defs><style>.cls-1{fill:none;}.cls-2{fill:#fff;}.cls-3{clip-path:url(#clip-path);}.cls-4{fill:#494949;}.cls-5{fill:#c93e3f;}.cls-6{fill:#de8a5c;}.cls-7{fill:#efc1a9;}.cls-8{fill:#b02c2c;}</style><clipPath id="clip-path" transform="translate(-750.72 -64.42)"><circle class="cls-1" cx="1131.42" cy="445.11" r="380.69"/></clipPath></defs><circle class="cls-2" cx="380.69" cy="380.69" r="380.69"/><g class="cls-3"><path class="cls-4" d="M1039.32,832.09c-5.56-.34-11.24-.05-16.65-1.14-14.19-2.85-28.12-.26-41.92,1.92-11.45,1.81-22.56,5.75-33.88,8.54-3.46.86-7.1,1-10.65,1.5,7.23-7.54,15-14.68,21.54-22.76,6.32-7.77,7.65-17.37,2.56-26.16-10.42-18-11.2-35.87-4.81-55.71,5.8-18,2.69-34.81-19.85-44.57l-1.22-.39-2.41.3c-.91-1.24-1.61-2.76-2.78-3.67-13.59-10.63-17.07-24.9-14.76-41.15,3.24-22.79,14.08-42.45,26.28-61.36,11.67-18.09,17.78-38,20.32-59.05,5.1-42.41,7.66-85.28,19.61-126.53,7.06-24.41,14.17-49.15,24.82-72.1,18.79-40.49,48.86-70,93.45-81.63a68.26,68.26,0,0,1,24-1.81c9.37,1,16.16,7.73,22.15,14.77,3.14,3.68,6.05,7.57,9.28,11.16,4.74,5.25,4.36,7.44-2.07,11-7.07,3.9-14.51,7.32-21,12-16.52,11.84-25.68,28.64-30.32,48.1-.33,1.39.47,3.05.75,4.59,0,4.84-.41,9.74.2,14.51,2.41,19,1.15,37.79-.66,56.75-1.75,18.14,1.75,35.65,13.39,50.31,16.09,20.24,20.55,42.8,15.73,67.8-4,20.73-6.45,41.53-.22,62.33.3,2,.56,4,.93,5.94,3.06,16.57,2,32.33-8.09,46.7-2,2.86-2.74,6.6-4.07,9.93l-1.23,4.87a62,62,0,0,0-1.38,7.69c-.45,7.45-.8,14.92-1,22.38-.57,28.39-12.38,49.64-38.74,61.89-5.67,2.63-11.06,5.84-16.63,8.68-9.11,4.65-14.85,12.11-16.26,22-1.24,8.74-.77,17.7-1.54,26.52C1041.71,821.57,1040.31,826.81,1039.32,832.09Z" transform="translate(-750.72 -64.42)"/><path class="cls-5" d="M935.66,693.71c22.54,9.76,25.65,26.59,19.85,44.57-6.39,19.84-5.61,37.7,4.81,55.71,5.09,8.79,3.76,18.39-2.56,26.16-6.58,8.08-14.31,15.22-21.54,22.76-9.1,1.59-18.18,4.37-27.3,4.51-22.17.34-44.36-.54-66.53-1a17.85,17.85,0,0,1-3.45-.89c.72-3.29,1.34-6.39,2.09-9.45,6.78-27.7,14.83-54.94,29.24-79.86,14.64-25.31,34.16-45.85,59.44-60.77a20.32,20.32,0,0,0,2.32-1.86l2.41-.3Z" transform="translate(-750.72 -64.42)"/><path class="cls-4" d="M1134.2,242.17c3.85-.57,7.69-1.27,11.57-1.69,21.18-2.28,42.24-2.54,62.86,4.07,24.79,7.94,41.24,24.67,50.67,48.56,6.39,16.19,10.76,32.81,8.31,51.38-6.11-16.9-16.74-29.64-27.47-42.88-16.62-20.52-38.35-25.45-62.29-26.35-6.75-.25-10.79-2.64-15.12-7.82-5.7-6.83-13.14-12.25-20-18-2.58-2.15-5.78-3.54-8.69-5.27Z" transform="translate(-750.72 -64.42)"/><path class="cls-4" d="M1224.12,595.59l3.81-17.13c.61-2.31,1.37-4.59,1.82-6.92,2.29-12-.63-15.42-12.6-15A146.26,146.26,0,0,1,1153.07,537c8.17,2,16.29,4.24,24.53,5.92,19.43,4,39,6.6,58.91,4.6l9.78-1.11,6-.81,7.17-.78c2.91,7.22,5.91,14.39,8.69,21.66q9.43,24.68,18.63,49.46c.75,2,.65,4.35,1,6.53-18.13-5.35-35.8-11.65-51.6-22.46C1232.72,597.7,1228.15,597,1224.12,595.59Z" transform="translate(-750.72 -64.42)"/><path class="cls-6" d="M1277.86,533.59c.52-4.54,1.05-9.07,1.6-13.9l6.15.65Z" transform="translate(-750.72 -64.42)"/><path class="cls-7" d="M935.66,693.71l-1.22-.39Z" transform="translate(-750.72 -64.42)"/><path class="cls-5" d="M1272.8,474c3.49,10-2.13,21.3-12.85,26-15.29,6.68-38.71,1.37-50.07-11.35,4.54-.63,9.21-.81,13.61-2,14.1-3.78,28.08-8,42.15-11.88C1267.92,474.16,1270.41,474.26,1272.8,474Z" transform="translate(-750.72 -64.42)"/><path class="cls-8" d="M1272.8,474c-2.39.23-4.88.13-7.16.76-14.07,3.9-28.05,8.1-42.15,11.88-4.4,1.18-9.07,1.36-13.61,2,2-2.36,4-4.84,6.17-7.07,4.94-5,10-9.91,15-14.88,3.9-3.87,8.32-6.18,14.07-5.4a9.8,9.8,0,0,0,4.66-.76C1261.53,456,1270.29,461.12,1272.8,474Z" transform="translate(-750.72 -64.42)"/><path class="cls-6" d="M1217.15,556.57q5.38,10.95,10.78,21.89c.61-2.31,1.37-4.58,1.82-6.92C1232,559.56,1229.12,556.12,1217.15,556.57Z" transform="translate(-750.72 -64.42)"/><path class="cls-6" d="M1273.43,382.57c-3.91-5.35-4.56-13.12-6.51-19.84-3-10.41-4.46-21.51-9-31.16-13.09-27.7-36.5-43.42-65.21-51.77a27.58,27.58,0,0,0-13.71-.38c-27.63,6.8-50.68,20.93-66.49,45-4.67,7.11-7.25,15.59-10.78,23.45,0,4.84-.41,9.74.2,14.51,2.41,19,1.15,37.79-.66,56.75-1.75,18.14,1.75,35.65,13.39,50.31,16.09,20.24,20.55,42.8,15.73,67.8-4,20.73-6.45,41.53-.22,62.33,19.07,1.42,38.11,3.54,57.21,4,12.63.32,25.41-1.3,36.77-8l3.81-17.13q-5.39-11-10.78-21.89A146.26,146.26,0,0,1,1153.07,537c8.17,2,16.29,4.24,24.53,5.92,19.43,4,39,6.6,58.91,4.6-.14-.85-.3-1.7-.45-2.56.15.86.31,1.71.45,2.56l9.78-1.11,6-.81h0l7.17-.78,6.3-3.44,8.35-4.28,3.74-3.54c.52-4.54,1.05-9.07,1.6-13.9l6.15.65,4.47-14.62a13.76,13.76,0,0,0,1-3.41c.8-19.73,2.14-39.47,2.08-59.2A100.49,100.49,0,0,0,1273.43,382.57Zm-101.72,16.69a110,110,0,0,1,10,5.36A110,110,0,0,0,1171.71,399.26Zm15.39,10.21c.45-.08.9-.18,1.34-.29h0C1188,409.29,1187.55,409.39,1187.1,409.47Zm-.95-6a11.73,11.73,0,0,0,1.69.6A11.73,11.73,0,0,1,1186.15,403.51Zm.24-22.47c1.9,1.28,3.71,2.7,5.5,4.14C1190.1,383.74,1188.29,382.32,1186.39,381ZM1276,511.51c0,.63,0,1.25.06,1.83C1276,512.76,1276,512.14,1276,511.51Zm-30.34-186.64h0l-.71-1.17Zm-35.78,163.79c2-2.36,4-4.84,6.17-7.07,4.94-5,10-9.91,15-14.88,3.9-3.87,8.32-6.18,14.07-5.4a9.8,9.8,0,0,0,4.66-.76c11.73-4.52,20.49.57,23,13.48,3.49,10-2.13,21.3-12.85,26C1244.66,506.69,1221.24,501.38,1209.88,488.66Zm37.64,51.64a7.52,7.52,0,0,0,1.91,3A7.52,7.52,0,0,1,1247.52,540.3Zm7.26-11.09a7.19,7.19,0,0,1,3.54.36A7.19,7.19,0,0,0,1254.78,529.21Zm25.16-26.53a4.24,4.24,0,0,1,2.07-.48A4.24,4.24,0,0,0,1279.94,502.68Z" transform="translate(-750.72 -64.42)"/><path class="cls-5" d="M1458.45,741.09c-7-27.91-22-51.2-43.52-69.76-19.32-16.63-43.14-24.93-67.29-31.94-19.92-5.78-39.93-11.27-59.9-16.89-18.13-5.35-35.8-11.65-51.6-22.46-3.42-2.34-8-3-12-4.45-11.36,6.75-24.14,8.37-36.77,8-19.1-.49-38.14-2.61-57.21-4,.3,2,.56,4,.93,5.94,3.06,16.57,2,32.33-8.09,46.7-2,2.86-2.74,6.6-4.07,9.93l-1.23,4.87h0a62,62,0,0,0-1.38,7.69c-.45,7.45-.8,14.92-1,22.38-.57,28.39-12.38,49.63-38.74,61.89-5.67,2.63-11.06,5.84-16.63,8.68-9.11,4.65-14.85,12.11-16.26,22-1.24,8.74-.77,17.7-1.54,26.52-.47,5.33-1.87,10.57-2.86,15.85,41-1.21,81.92,1.76,122.73,5.24,52.17,4.46,100.91-6.4,146.2-32,29.38-16.59,60.68-27.12,93.41-34.15,13.79-3,27.51-6.21,41.26-9.33a67.13,67.13,0,0,0,7.08-1.4C1463.11,756.52,1464.3,753.72,1458.45,741.09ZM1145,656.91l1.11-.06-1.11.06c-.55,0-1.09,0-1.64,0C1143.89,656.9,1144.43,656.92,1145,656.91Zm-6.26-6.67c-.08,2.17-.17,4.35-.25,6.52h0c.08-2.17.17-4.35.25-6.52.06-1.49.09-3,.14-4.47h0C1138.81,647.26,1138.78,648.75,1138.72,650.24Zm-2,15.85c-.09-.68-.19-1.27-.21-1.72h0C1136.5,664.82,1136.6,665.41,1136.69,666.09Zm-7.06-.17c.26.4.5.78.73,1.16C1130.13,666.7,1129.89,666.32,1129.63,665.92Zm-5.63.62a.53.53,0,0,0,0,.29,12.15,12.15,0,0,0,1.94,2.6,12.15,12.15,0,0,1-1.94-2.6A.53.53,0,0,1,1124,666.54Zm11.42-19.38c.62-.31,1.36-.56,2.08-.83-.72.27-1.46.52-2.08.83a2.78,2.78,0,0,0-1.09.86A2.78,2.78,0,0,1,1135.42,647.16Zm-2.58,6.1c-.06.29-.11.58-.16.87C1132.73,653.84,1132.78,653.55,1132.84,653.26Zm-14,16.51a3.93,3.93,0,0,0-.33-1,3.93,3.93,0,0,1,.33,1,10.76,10.76,0,0,0,.45,1.8A10.76,10.76,0,0,1,1118.81,669.77Zm9.15,7a13.61,13.61,0,0,1-5.32-1.25,13.61,13.61,0,0,0,5.32,1.25,7.82,7.82,0,0,0,4.24-.81A7.82,7.82,0,0,1,1128,676.72Zm10.56-13c1.24-.37,2.46-.71,3.63-1.07C1141,663.06,1139.76,663.4,1138.52,663.77Zm9.55-3.66a6.5,6.5,0,0,0,.57-1.12A6.5,6.5,0,0,1,1148.07,660.11Zm1.56-3.65c-1.12.11-2.25.28-3.37.38,1.12-.1,2.25-.27,3.37-.38Zm3.94-9.29a4.24,4.24,0,0,1,2.1-.54A4.24,4.24,0,0,0,1153.57,647.17Zm-.78-9.33a9.7,9.7,0,0,1-.62-1.54,9.7,9.7,0,0,0,.62,1.54,8.21,8.21,0,0,0,3.58,3.65A8.21,8.21,0,0,1,1152.79,637.84ZM1305,684.06c.35,1.12.72,2.22,1.15,3.26C1305.67,686.28,1305.3,685.18,1305,684.06Zm11.22,11.85a21.14,21.14,0,0,0,1.27-2.16h0A21.14,21.14,0,0,1,1316.17,695.91Z" transform="translate(-750.72 -64.42)"/></g></svg>