<svg width="38" height="38" viewBox="0 0 38 38" fill="none" xmlns="http://www.w3.org/2000/svg">
<circle cx="19" cy="19" r="19" fill="white"/>
<path d="M29 27.8889C29 28.5028 28.5028 29 27.8889 29H10.1111C9.49722 29 9 28.5028 9 27.8889V10.1111C9 9.49722 9.49722 9 10.1111 9H27.8889C28.5028 9 29 9.49722 29 10.1111V27.8889Z" fill="url(#paint0_linear_1601_152)"/>
<path opacity="0.05" d="M19.5556 26.7778V20.6667H17.3334V17.3334H19.5556V16.1456C19.5556 13.3445 21.0367 11.8022 23.725 11.8022C24.8334 11.8022 25.4345 11.88 25.7239 11.9178L26.2006 11.9795L26.2223 12.4578V15.1111H24.2028C23.5762 15.1111 23.4445 15.8767 23.4445 16.5195V17.3334H26.0684L25.5528 20.6667H23.4445V26.7778H19.5556Z" fill="black"/>
<path opacity="0.07" d="M19.8334 26.5V20.3888H17.6111V17.6111H19.8334V16.1455C19.8334 13.4855 21.1789 12.08 23.725 12.08C24.82 12.08 25.4084 12.1566 25.6917 12.1933L25.9339 12.225L25.945 12.4705V14.8333H24.2034C23.3017 14.8333 23.1673 15.8894 23.1673 16.5194V17.6111H25.745L25.3156 20.3888H23.1667V26.5H19.8334Z" fill="black"/>
<path d="M24.2027 14.5555H25.6666V12.47C25.3933 12.4344 24.8161 12.3572 23.725 12.3572C21.4466 12.3572 20.1111 13.5127 20.1111 16.1455V17.8888H17.8889V20.1111H20.1111V26.2222H22.8889V20.1111H25.0766L25.42 17.8888H22.8889V16.5194C22.8889 15.4783 23.2289 14.5555 24.2027 14.5555Z" fill="white"/>
<defs>
<linearGradient id="paint0_linear_1601_152" x1="9.12667" y1="8.38667" x2="29.0428" y2="29.7956" gradientUnits="userSpaceOnUse">
<stop stop-color="#0D61A9"/>
<stop offset="1" stop-color="#16528C"/>
</linearGradient>
</defs>
</svg>
