<svg width="7" height="7" viewBox="0 0 7 7" fill="none" xmlns="http://www.w3.org/2000/svg">
<path d="M7 3.5C7 1.56653 5.43347 0 3.5 0C1.56653 0 0 1.56653 0 3.5C0 5.43347 1.56653 7 3.5 7C5.43347 7 7 5.43347 7 3.5ZM3.73992 1.89254L5.65222 3.80484C5.78488 3.9375 5.78488 4.15202 5.65222 4.28327L5.4123 4.52319C5.27964 4.65585 5.06512 4.65585 4.93387 4.52319L3.5 3.08931L2.06613 4.52319C1.93347 4.65585 1.71895 4.65585 1.5877 4.52319L1.34778 4.28327C1.21512 4.1506 1.21512 3.93609 1.34778 3.80484L3.26008 1.89254C3.39274 1.75988 3.60726 1.75988 3.73992 1.89254Z" fill="#C93B5D"/>
</svg>
