<svg width="7" height="7" viewBox="0 0 7 7" fill="none" xmlns="http://www.w3.org/2000/svg">
<path d="M7 3.5C7 5.43347 5.43347 7 3.5 7C1.56653 7 0 5.43347 0 3.5C0 1.56653 1.56653 0 3.5 0C5.43347 0 7 1.56653 7 3.5ZM3.73992 5.10746L5.65222 3.19516C5.78488 3.0625 5.78488 2.84798 5.65222 2.71673L5.4123 2.47681C5.27964 2.34415 5.06512 2.34415 4.93387 2.47681L3.5 3.91069L2.06613 2.47681C1.93347 2.34415 1.71895 2.34415 1.5877 2.47681L1.34778 2.71673C1.21512 2.8494 1.21512 3.06391 1.34778 3.19516L3.26008 5.10746C3.39274 5.24012 3.60726 5.24012 3.73992 5.10746Z" fill="#C93B5D"/>
</svg>
