<svg width="38" height="38" viewBox="0 0 38 38" fill="none" xmlns="http://www.w3.org/2000/svg">
<circle cx="19" cy="19" r="19" fill="white"/>
<path d="M29 14.9048L26.6191 16.2143L24.2381 18.4762V26.2381H27.5714C28.3605 26.2381 29 25.5986 29 24.8095V14.9048Z" fill="#4CAF50"/>
<path d="M9 14.9048L10.721 15.7191L13.7619 18.4762V26.2381H10.4286C9.63952 26.2381 9 25.5986 9 24.8095V14.9048Z" fill="#1E88E5"/>
<path d="M24.2381 12.5238L19 16.4524L13.7619 12.5238L13.2857 15.2857L13.7619 18.4762L19 22.4048L24.2381 18.4762L24.7143 15.2857L24.2381 12.5238Z" fill="#E53935"/>
<path d="M9 13.0467V14.9048L13.7619 18.4762V12.5238L12.2743 11.409C11.92 11.1433 11.4895 11 11.0467 11C9.91619 11 9 11.9162 9 13.0467Z" fill="#C62828"/>
<path d="M29 13.0467V14.9048L24.2381 18.4762V12.5238L25.7257 11.409C26.08 11.1433 26.5105 11 26.9533 11C28.0838 11 29 11.9162 29 13.0467Z" fill="#FBC02D"/>
</svg>
