<svg width="327" height="58" viewBox="0 0 327 58" fill="none" xmlns="http://www.w3.org/2000/svg">
<g opacity="0.9" filter="url(#filter0_d_1730_647)">
<path d="M4 25C4 11.1929 15.1929 0 29 0H297.353C311.16 0 322.353 11.1929 322.353 25V25C322.353 38.8071 311.16 50 297.353 50H29C15.1929 50 4 38.8071 4 25V25Z" fill="white"/>
</g>
<path d="M112.309 26.432C112.41 26.432 112.498 26.472 112.573 26.552L113.317 27.36C112.848 27.9253 112.272 28.3627 111.589 28.672C110.906 28.976 110.09 29.128 109.141 29.128C108.298 29.128 107.536 28.984 106.853 28.696C106.176 28.4027 105.597 27.9973 105.117 27.48C104.637 26.9573 104.266 26.336 104.005 25.616C103.749 24.896 103.621 24.104 103.621 23.24C103.621 22.376 103.757 21.584 104.029 20.864C104.306 20.1387 104.693 19.5173 105.189 19C105.69 18.4773 106.288 18.072 106.981 17.784C107.68 17.496 108.448 17.352 109.285 17.352C110.117 17.352 110.85 17.488 111.485 17.76C112.125 18.0267 112.68 18.384 113.149 18.832L112.533 19.704C112.49 19.7627 112.44 19.8133 112.381 19.856C112.322 19.8987 112.242 19.92 112.141 19.92C112.034 19.92 111.912 19.872 111.773 19.776C111.64 19.6747 111.466 19.5653 111.253 19.448C111.045 19.3253 110.781 19.216 110.461 19.12C110.146 19.0187 109.752 18.968 109.277 18.968C108.728 18.968 108.224 19.064 107.765 19.256C107.306 19.448 106.912 19.728 106.581 20.096C106.25 20.464 105.992 20.912 105.805 21.44C105.624 21.968 105.533 22.568 105.533 23.24C105.533 23.9173 105.629 24.5227 105.821 25.056C106.013 25.584 106.277 26.032 106.613 26.4C106.949 26.7627 107.344 27.04 107.797 27.232C108.25 27.424 108.738 27.52 109.261 27.52C109.581 27.52 109.866 27.504 110.117 27.472C110.373 27.4347 110.608 27.3787 110.821 27.304C111.034 27.224 111.234 27.1253 111.421 27.008C111.613 26.8907 111.802 26.7467 111.989 26.576C112.096 26.48 112.202 26.432 112.309 26.432ZM117.97 20.712C118.573 20.712 119.117 20.8107 119.602 21.008C120.093 21.2053 120.509 21.4853 120.85 21.848C121.197 22.2107 121.464 22.6507 121.65 23.168C121.837 23.6853 121.93 24.2667 121.93 24.912C121.93 25.5573 121.837 26.1387 121.65 26.656C121.464 27.1733 121.197 27.616 120.85 27.984C120.509 28.3467 120.093 28.6267 119.602 28.824C119.117 29.0213 118.573 29.12 117.97 29.12C117.362 29.12 116.813 29.0213 116.322 28.824C115.837 28.6267 115.421 28.3467 115.074 27.984C114.728 27.616 114.461 27.1733 114.274 26.656C114.088 26.1387 113.994 25.5573 113.994 24.912C113.994 24.2667 114.088 23.6853 114.274 23.168C114.461 22.6507 114.728 22.2107 115.074 21.848C115.421 21.4853 115.837 21.2053 116.322 21.008C116.813 20.8107 117.362 20.712 117.97 20.712ZM117.97 27.776C118.706 27.776 119.253 27.5307 119.61 27.04C119.973 26.544 120.154 25.8373 120.154 24.92C120.154 24.0027 119.973 23.296 119.61 22.8C119.253 22.2987 118.706 22.048 117.97 22.048C117.224 22.048 116.669 22.2987 116.306 22.8C115.944 23.296 115.762 24.0027 115.762 24.92C115.762 25.8373 115.944 26.544 116.306 27.04C116.669 27.5307 117.224 27.776 117.97 27.776ZM125.191 21.92C125.367 21.7387 125.548 21.576 125.735 21.432C125.927 21.2827 126.13 21.1547 126.343 21.048C126.556 20.9413 126.783 20.8587 127.023 20.8C127.263 20.7413 127.524 20.712 127.807 20.712C128.255 20.712 128.647 20.7867 128.983 20.936C129.324 21.0853 129.61 21.296 129.839 21.568C130.074 21.84 130.25 22.168 130.367 22.552C130.484 22.9307 130.543 23.3493 130.543 23.808V29H128.831V23.808C128.831 23.2587 128.703 22.832 128.447 22.528C128.196 22.224 127.812 22.072 127.295 22.072C126.911 22.072 126.554 22.16 126.223 22.336C125.898 22.512 125.591 22.752 125.303 23.056V29H123.583V20.84H124.623C124.858 20.84 125.007 20.9493 125.071 21.168L125.191 21.92ZM140.362 29H138.642V22.192H134.666V26.824C134.666 27.1173 134.738 27.3413 134.882 27.496C135.026 27.6507 135.218 27.728 135.458 27.728C135.592 27.728 135.706 27.712 135.802 27.68C135.898 27.6427 135.981 27.6053 136.05 27.568C136.12 27.5253 136.178 27.488 136.226 27.456C136.28 27.4187 136.33 27.4 136.378 27.4C136.474 27.4 136.552 27.4533 136.61 27.56L137.122 28.4C136.856 28.6347 136.541 28.816 136.178 28.944C135.816 29.0667 135.442 29.128 135.058 29.128C134.381 29.128 133.858 28.9387 133.49 28.56C133.128 28.176 132.946 27.6373 132.946 26.944V22.192H132.05C131.954 22.192 131.872 22.1627 131.802 22.104C131.733 22.04 131.698 21.9467 131.698 21.824V21.128L133.018 20.936L133.394 18.576C133.421 18.4853 133.466 18.4133 133.53 18.36C133.594 18.3013 133.68 18.272 133.786 18.272H134.666V20.952H140.362V29ZM140.714 18.336C140.714 18.4907 140.682 18.6373 140.618 18.776C140.56 18.9093 140.477 19.0293 140.37 19.136C140.264 19.2373 140.138 19.32 139.994 19.384C139.856 19.4427 139.709 19.472 139.554 19.472C139.4 19.472 139.253 19.4427 139.114 19.384C138.981 19.32 138.861 19.2373 138.754 19.136C138.653 19.0293 138.57 18.9093 138.506 18.776C138.448 18.6373 138.418 18.4907 138.418 18.336C138.418 18.176 138.448 18.0267 138.506 17.888C138.57 17.744 138.653 17.6213 138.754 17.52C138.861 17.4133 138.981 17.3307 139.114 17.272C139.253 17.208 139.4 17.176 139.554 17.176C139.709 17.176 139.856 17.208 139.994 17.272C140.138 17.3307 140.264 17.4133 140.37 17.52C140.477 17.6213 140.56 17.744 140.618 17.888C140.682 18.0267 140.714 18.176 140.714 18.336ZM144.144 21.92C144.32 21.7387 144.501 21.576 144.688 21.432C144.88 21.2827 145.083 21.1547 145.296 21.048C145.509 20.9413 145.736 20.8587 145.976 20.8C146.216 20.7413 146.477 20.712 146.76 20.712C147.208 20.712 147.6 20.7867 147.936 20.936C148.277 21.0853 148.563 21.296 148.792 21.568C149.027 21.84 149.203 22.168 149.32 22.552C149.437 22.9307 149.496 23.3493 149.496 23.808V29H147.784V23.808C147.784 23.2587 147.656 22.832 147.4 22.528C147.149 22.224 146.765 22.072 146.248 22.072C145.864 22.072 145.507 22.16 145.176 22.336C144.851 22.512 144.544 22.752 144.256 23.056V29H142.536V20.84H143.576C143.811 20.84 143.96 20.9493 144.024 21.168L144.144 21.92ZM158.385 20.84V29H157.345C157.115 29 156.969 28.8907 156.905 28.672L156.777 27.912C156.606 28.0933 156.425 28.2587 156.233 28.408C156.046 28.5573 155.846 28.6853 155.633 28.792C155.419 28.8987 155.19 28.9813 154.945 29.04C154.705 29.0987 154.446 29.128 154.169 29.128C153.721 29.128 153.326 29.0533 152.985 28.904C152.643 28.7547 152.355 28.544 152.121 28.272C151.891 28 151.718 27.6747 151.601 27.296C151.483 26.912 151.425 26.4907 151.425 26.032V20.84H153.145V26.032C153.145 26.5813 153.27 27.008 153.521 27.312C153.777 27.616 154.163 27.768 154.681 27.768C155.059 27.768 155.411 27.6827 155.737 27.512C156.067 27.336 156.377 27.096 156.665 26.792V20.84H158.385ZM165.826 24C165.826 23.712 165.783 23.4453 165.698 23.2C165.618 22.9493 165.498 22.7333 165.338 22.552C165.178 22.3653 164.978 22.2213 164.738 22.12C164.503 22.0133 164.231 21.96 163.922 21.96C163.298 21.96 162.807 22.1387 162.45 22.496C162.092 22.8533 161.866 23.3547 161.77 24H165.826ZM161.722 25.056C161.743 25.52 161.815 25.9227 161.938 26.264C162.06 26.6 162.223 26.88 162.426 27.104C162.634 27.328 162.879 27.496 163.162 27.608C163.45 27.7147 163.77 27.768 164.122 27.768C164.458 27.768 164.748 27.7307 164.994 27.656C165.239 27.576 165.452 27.4907 165.634 27.4C165.815 27.304 165.97 27.2187 166.098 27.144C166.226 27.064 166.343 27.024 166.45 27.024C166.588 27.024 166.695 27.0773 166.77 27.184L167.258 27.816C167.055 28.056 166.826 28.2587 166.57 28.424C166.314 28.5893 166.042 28.7253 165.754 28.832C165.466 28.9333 165.17 29.0053 164.866 29.048C164.562 29.096 164.266 29.12 163.978 29.12C163.412 29.12 162.887 29.0267 162.402 28.84C161.922 28.648 161.503 28.368 161.146 28C160.794 27.632 160.516 27.176 160.314 26.632C160.116 26.088 160.018 25.4613 160.018 24.752C160.018 24.1867 160.106 23.6587 160.282 23.168C160.463 22.6773 160.719 22.2507 161.05 21.888C161.386 21.5253 161.791 21.24 162.266 21.032C162.746 20.8187 163.287 20.712 163.89 20.712C164.391 20.712 164.855 20.7947 165.282 20.96C165.708 21.12 166.076 21.3573 166.386 21.672C166.695 21.9867 166.935 22.3733 167.106 22.832C167.282 23.2853 167.37 23.8027 167.37 24.384C167.37 24.6507 167.34 24.8293 167.282 24.92C167.223 25.0107 167.116 25.056 166.962 25.056H161.722ZM184.094 20.84L181.478 29H180.11C179.95 29 179.838 28.896 179.774 28.688L178.15 23.608C178.107 23.464 178.067 23.32 178.03 23.176C177.998 23.032 177.968 22.8907 177.942 22.752C177.883 23.04 177.811 23.328 177.726 23.616L176.078 28.688C176.019 28.896 175.894 29 175.702 29H174.398L171.782 20.84H173.142C173.275 20.84 173.384 20.8747 173.47 20.944C173.56 21.008 173.619 21.0853 173.646 21.176L175.006 25.928C175.059 26.1467 175.104 26.36 175.142 26.568C175.184 26.7707 175.222 26.9733 175.254 27.176C175.307 26.9733 175.363 26.7707 175.422 26.568C175.48 26.36 175.542 26.1467 175.606 25.928L177.134 21.152C177.16 21.056 177.214 20.9787 177.294 20.92C177.379 20.856 177.48 20.824 177.598 20.824H178.35C178.472 20.824 178.576 20.856 178.662 20.92C178.747 20.9787 178.803 21.056 178.83 21.152L180.318 25.928C180.382 26.1467 180.44 26.36 180.494 26.568C180.552 26.776 180.606 26.984 180.654 27.192C180.691 26.9893 180.731 26.784 180.774 26.576C180.816 26.368 180.867 26.152 180.926 25.928L182.31 21.176C182.342 21.08 182.4 21 182.486 20.936C182.571 20.872 182.675 20.84 182.798 20.84H184.094ZM187.141 20.84V29H185.421V20.84H187.141ZM187.429 18.376C187.429 18.5307 187.397 18.6773 187.333 18.816C187.274 18.9547 187.191 19.0773 187.085 19.184C186.978 19.2853 186.853 19.368 186.709 19.432C186.57 19.4907 186.421 19.52 186.261 19.52C186.106 19.52 185.959 19.4907 185.821 19.432C185.687 19.368 185.57 19.2853 185.469 19.184C185.367 19.0773 185.285 18.9547 185.221 18.816C185.162 18.6773 185.133 18.5307 185.133 18.376C185.133 18.216 185.162 18.0667 185.221 17.928C185.285 17.7893 185.367 17.6693 185.469 17.568C185.57 17.4613 185.687 17.3787 185.821 17.32C185.959 17.256 186.106 17.224 186.261 17.224C186.421 17.224 186.57 17.256 186.709 17.32C186.853 17.3787 186.978 17.4613 187.085 17.568C187.191 17.6693 187.274 17.7893 187.333 17.928C187.397 18.0667 187.429 18.216 187.429 18.376ZM191.918 29.128C191.24 29.128 190.718 28.9387 190.35 28.56C189.987 28.176 189.806 27.6373 189.806 26.944V22.192H188.91C188.814 22.192 188.731 22.1627 188.662 22.104C188.592 22.04 188.558 21.9467 188.558 21.824V21.128L189.878 20.936L190.254 18.576C190.28 18.4853 190.326 18.4133 190.39 18.36C190.454 18.3013 190.539 18.272 190.646 18.272H191.526V20.952H193.79V22.192H191.526V26.824C191.526 27.1173 191.598 27.3413 191.742 27.496C191.886 27.6507 192.078 27.728 192.318 27.728C192.451 27.728 192.566 27.712 192.662 27.68C192.758 27.6427 192.84 27.6053 192.91 27.568C192.979 27.5253 193.038 27.488 193.086 27.456C193.139 27.4187 193.19 27.4 193.238 27.4C193.334 27.4 193.411 27.4533 193.47 27.56L193.982 28.4C193.715 28.6347 193.4 28.816 193.038 28.944C192.675 29.0667 192.302 29.128 191.918 29.128ZM196.865 21.808C197.201 21.4773 197.569 21.2133 197.969 21.016C198.369 20.8133 198.836 20.712 199.369 20.712C199.817 20.712 200.209 20.7867 200.545 20.936C200.887 21.0853 201.172 21.296 201.401 21.568C201.636 21.84 201.812 22.168 201.929 22.552C202.047 22.9307 202.105 23.3493 202.105 23.808V29H200.393V23.808C200.393 23.2587 200.265 22.832 200.009 22.528C199.759 22.224 199.375 22.072 198.857 22.072C198.473 22.072 198.116 22.16 197.785 22.336C197.46 22.512 197.153 22.752 196.865 23.056V29H195.145V17.16H196.865V21.808ZM217.851 23.328V27.888C216.704 28.7147 215.371 29.128 213.851 29.128C212.917 29.128 212.072 28.984 211.315 28.696C210.563 28.4027 209.92 27.9973 209.387 27.48C208.853 26.9573 208.443 26.336 208.155 25.616C207.867 24.896 207.723 24.104 207.723 23.24C207.723 22.3707 207.861 21.576 208.139 20.856C208.416 20.1307 208.813 19.5093 209.331 18.992C209.848 18.4693 210.472 18.0667 211.203 17.784C211.933 17.496 212.755 17.352 213.667 17.352C214.131 17.352 214.56 17.3893 214.955 17.464C215.355 17.5333 215.725 17.632 216.067 17.76C216.408 17.888 216.723 18.0427 217.011 18.224C217.299 18.4053 217.563 18.608 217.803 18.832L217.267 19.688C217.181 19.8213 217.072 19.904 216.939 19.936C216.805 19.968 216.661 19.936 216.507 19.84C216.352 19.7493 216.187 19.6533 216.011 19.552C215.84 19.4507 215.643 19.3573 215.419 19.272C215.195 19.1813 214.936 19.1093 214.643 19.056C214.349 18.9973 214.003 18.968 213.603 18.968C212.995 18.968 212.445 19.0693 211.955 19.272C211.469 19.4693 211.053 19.7547 210.707 20.128C210.36 20.496 210.093 20.944 209.907 21.472C209.72 22 209.627 22.5893 209.627 23.24C209.627 23.928 209.725 24.544 209.923 25.088C210.12 25.6267 210.4 26.0853 210.763 26.464C211.125 26.8373 211.563 27.1227 212.075 27.32C212.592 27.5173 213.168 27.616 213.803 27.616C214.277 27.616 214.699 27.5653 215.067 27.464C215.44 27.3627 215.805 27.2213 216.163 27.04V24.752H214.555C214.432 24.752 214.336 24.72 214.267 24.656C214.197 24.5867 214.163 24.4987 214.163 24.392V23.328H217.851ZM223.173 20.712C223.776 20.712 224.32 20.8107 224.805 21.008C225.296 21.2053 225.712 21.4853 226.053 21.848C226.4 22.2107 226.667 22.6507 226.853 23.168C227.04 23.6853 227.133 24.2667 227.133 24.912C227.133 25.5573 227.04 26.1387 226.853 26.656C226.667 27.1733 226.4 27.616 226.053 27.984C225.712 28.3467 225.296 28.6267 224.805 28.824C224.32 29.0213 223.776 29.12 223.173 29.12C222.565 29.12 222.016 29.0213 221.525 28.824C221.04 28.6267 220.624 28.3467 220.277 27.984C219.931 27.616 219.664 27.1733 219.477 26.656C219.291 26.1387 219.197 25.5573 219.197 24.912C219.197 24.2667 219.291 23.6853 219.477 23.168C219.664 22.6507 219.931 22.2107 220.277 21.848C220.624 21.4853 221.04 21.2053 221.525 21.008C222.016 20.8107 222.565 20.712 223.173 20.712ZM223.173 27.776C223.909 27.776 224.456 27.5307 224.813 27.04C225.176 26.544 225.357 25.8373 225.357 24.92C225.357 24.0027 225.176 23.296 224.813 22.8C224.456 22.2987 223.909 22.048 223.173 22.048C222.427 22.048 221.872 22.2987 221.509 22.8C221.147 23.296 220.965 24.0027 220.965 24.92C220.965 25.8373 221.147 26.544 221.509 27.04C221.872 27.5307 222.427 27.776 223.173 27.776ZM232.314 20.712C232.917 20.712 233.461 20.8107 233.946 21.008C234.437 21.2053 234.853 21.4853 235.194 21.848C235.541 22.2107 235.807 22.6507 235.994 23.168C236.181 23.6853 236.274 24.2667 236.274 24.912C236.274 25.5573 236.181 26.1387 235.994 26.656C235.807 27.1733 235.541 27.616 235.194 27.984C234.853 28.3467 234.437 28.6267 233.946 28.824C233.461 29.0213 232.917 29.12 232.314 29.12C231.706 29.12 231.157 29.0213 230.666 28.824C230.181 28.6267 229.765 28.3467 229.418 27.984C229.071 27.616 228.805 27.1733 228.618 26.656C228.431 26.1387 228.338 25.5573 228.338 24.912C228.338 24.2667 228.431 23.6853 228.618 23.168C228.805 22.6507 229.071 22.2107 229.418 21.848C229.765 21.4853 230.181 21.2053 230.666 21.008C231.157 20.8107 231.706 20.712 232.314 20.712ZM232.314 27.776C233.05 27.776 233.597 27.5307 233.954 27.04C234.317 26.544 234.498 25.8373 234.498 24.92C234.498 24.0027 234.317 23.296 233.954 22.8C233.597 22.2987 233.05 22.048 232.314 22.048C231.567 22.048 231.013 22.2987 230.65 22.8C230.287 23.296 230.106 24.0027 230.106 24.92C230.106 25.8373 230.287 26.544 230.65 27.04C231.013 27.5307 231.567 27.776 232.314 27.776ZM240.776 24.848C241.309 24.848 241.709 24.712 241.976 24.44C242.243 24.168 242.376 23.8133 242.376 23.376C242.376 22.928 242.243 22.5733 241.976 22.312C241.709 22.0507 241.309 21.92 240.776 21.92C240.248 21.92 239.848 22.0507 239.576 22.312C239.309 22.5733 239.176 22.928 239.176 23.376C239.176 23.5893 239.211 23.7867 239.28 23.968C239.349 24.1493 239.451 24.3067 239.584 24.44C239.717 24.568 239.883 24.6693 240.08 24.744C240.283 24.8133 240.515 24.848 240.776 24.848ZM243.168 29.4C243.168 29.2187 243.115 29.0747 243.008 28.968C242.907 28.856 242.768 28.7707 242.592 28.712C242.416 28.648 242.211 28.6027 241.976 28.576C241.741 28.544 241.491 28.5227 241.224 28.512C240.963 28.496 240.693 28.4827 240.416 28.472C240.144 28.456 239.88 28.4293 239.624 28.392C239.368 28.5253 239.157 28.6853 238.992 28.872C238.832 29.0587 238.752 29.2747 238.752 29.52C238.752 29.68 238.792 29.8293 238.872 29.968C238.957 30.1067 239.085 30.2267 239.256 30.328C239.432 30.4293 239.653 30.5093 239.92 30.568C240.192 30.6267 240.517 30.656 240.896 30.656C241.653 30.656 242.221 30.5387 242.6 30.304C242.979 30.0693 243.168 29.768 243.168 29.4ZM244.896 21.136V21.776C244.896 21.9893 244.768 22.12 244.512 22.168L243.696 22.304C243.835 22.6133 243.904 22.9573 243.904 23.336C243.904 23.736 243.824 24.0987 243.664 24.424C243.509 24.7493 243.293 25.0267 243.016 25.256C242.739 25.4853 242.408 25.6613 242.024 25.784C241.64 25.9067 241.224 25.968 240.776 25.968C240.605 25.968 240.437 25.96 240.272 25.944C240.112 25.9227 239.955 25.896 239.8 25.864C239.645 25.9547 239.531 26.0507 239.456 26.152C239.381 26.2533 239.344 26.3573 239.344 26.464C239.344 26.64 239.421 26.7707 239.576 26.856C239.731 26.9413 239.933 27.0027 240.184 27.04C240.44 27.0773 240.731 27.1013 241.056 27.112C241.381 27.1227 241.712 27.1413 242.048 27.168C242.384 27.1947 242.715 27.24 243.04 27.304C243.365 27.3627 243.653 27.464 243.904 27.608C244.16 27.7467 244.365 27.936 244.52 28.176C244.675 28.416 244.752 28.728 244.752 29.112C244.752 29.464 244.664 29.808 244.488 30.144C244.312 30.48 244.056 30.7787 243.72 31.04C243.389 31.3013 242.984 31.5093 242.504 31.664C242.024 31.824 241.477 31.904 240.864 31.904C240.256 31.904 239.725 31.8453 239.272 31.728C238.824 31.6107 238.448 31.4507 238.144 31.248C237.845 31.0507 237.621 30.8213 237.472 30.56C237.328 30.2987 237.256 30.0267 237.256 29.744C237.256 29.36 237.376 29.032 237.616 28.76C237.861 28.488 238.192 28.2747 238.608 28.12C238.384 28.0133 238.203 27.8667 238.064 27.68C237.931 27.4933 237.864 27.248 237.864 26.944C237.864 26.704 237.952 26.4533 238.128 26.192C238.304 25.9307 238.568 25.7093 238.92 25.528C238.515 25.304 238.195 25.008 237.96 24.64C237.725 24.2667 237.608 23.832 237.608 23.336C237.608 22.9307 237.685 22.5653 237.84 22.24C238 21.9147 238.221 21.6373 238.504 21.408C238.787 21.1787 239.12 21.0027 239.504 20.88C239.893 20.7573 240.317 20.696 240.776 20.696C241.48 20.696 242.093 20.8427 242.616 21.136H244.896ZM248.007 17.16V29H246.287V17.16H248.007ZM255.482 24C255.482 23.712 255.439 23.4453 255.354 23.2C255.274 22.9493 255.154 22.7333 254.994 22.552C254.834 22.3653 254.634 22.2213 254.394 22.12C254.159 22.0133 253.887 21.96 253.578 21.96C252.954 21.96 252.463 22.1387 252.106 22.496C251.748 22.8533 251.522 23.3547 251.426 24H255.482ZM251.378 25.056C251.399 25.52 251.471 25.9227 251.594 26.264C251.716 26.6 251.879 26.88 252.082 27.104C252.29 27.328 252.535 27.496 252.818 27.608C253.106 27.7147 253.426 27.768 253.778 27.768C254.114 27.768 254.404 27.7307 254.65 27.656C254.895 27.576 255.108 27.4907 255.29 27.4C255.471 27.304 255.626 27.2187 255.754 27.144C255.882 27.064 255.999 27.024 256.106 27.024C256.244 27.024 256.351 27.0773 256.426 27.184L256.914 27.816C256.711 28.056 256.482 28.2587 256.226 28.424C255.97 28.5893 255.698 28.7253 255.41 28.832C255.122 28.9333 254.826 29.0053 254.522 29.048C254.218 29.096 253.922 29.12 253.634 29.12C253.068 29.12 252.543 29.0267 252.058 28.84C251.578 28.648 251.159 28.368 250.802 28C250.45 27.632 250.172 27.176 249.97 26.632C249.772 26.088 249.674 25.4613 249.674 24.752C249.674 24.1867 249.762 23.6587 249.938 23.168C250.119 22.6773 250.375 22.2507 250.706 21.888C251.042 21.5253 251.447 21.24 251.922 21.032C252.402 20.8187 252.943 20.712 253.546 20.712C254.047 20.712 254.511 20.7947 254.938 20.96C255.364 21.12 255.732 21.3573 256.042 21.672C256.351 21.9867 256.591 22.3733 256.762 22.832C256.938 23.2853 257.026 23.8027 257.026 24.384C257.026 24.6507 256.996 24.8293 256.938 24.92C256.879 25.0107 256.772 25.056 256.618 25.056H251.378Z" fill="#1B1C20"/>
<path d="M73.1625 27.0769L72.3516 30.1038L69.388 30.1665C68.5024 28.5238 68 26.6443 68 24.647C68 22.7156 68.4697 20.8943 69.3023 19.2906H69.3029L71.9413 19.7743L73.0971 22.3969C72.8552 23.1022 72.7234 23.8592 72.7234 24.647C72.7235 25.502 72.8783 26.3211 73.1625 27.0769Z" fill="#FBBB00"/>
<path d="M91.0906 22.4714C91.2243 23.176 91.2941 23.9036 91.2941 24.6473C91.2941 25.4811 91.2064 26.2945 91.0394 27.0791C90.4724 29.7489 88.9909 32.0803 86.9386 33.73L86.938 33.7294L83.6148 33.5598L83.1444 30.6237C84.5062 29.8251 85.5705 28.5753 86.1311 27.0791H79.9031V22.4714H86.2219H91.0906Z" fill="#518EF8"/>
<path d="M86.9379 33.729L86.9386 33.7297C84.9426 35.334 82.4071 36.2939 79.647 36.2939C75.2115 36.2939 71.3552 33.8148 69.388 30.1665L73.1624 27.0768C74.146 29.7018 76.6783 31.5705 79.647 31.5705C80.923 31.5705 82.1185 31.2256 83.1443 30.6234L86.9379 33.729Z" fill="#28B446"/>
<path d="M87.0814 15.6814L83.3082 18.7704C82.2466 18.1068 80.9916 17.7234 79.6471 17.7234C76.6112 17.7234 74.0315 19.6778 73.0972 22.397L69.3029 19.2907H69.3023C71.2407 15.5534 75.1457 13 79.6471 13C82.4731 13 85.0642 14.0067 87.0814 15.6814Z" fill="#F14336"/>
<defs>
<filter id="filter0_d_1730_647" x="0.117647" y="0" width="326.118" height="57.7647" filterUnits="userSpaceOnUse" color-interpolation-filters="sRGB">
<feFlood flood-opacity="0" result="BackgroundImageFix"/>
<feColorMatrix in="SourceAlpha" type="matrix" values="0 0 0 0 0 0 0 0 0 0 0 0 0 0 0 0 0 0 127 0" result="hardAlpha"/>
<feOffset dy="3.88235"/>
<feGaussianBlur stdDeviation="1.94118"/>
<feColorMatrix type="matrix" values="0 0 0 0 0 0 0 0 0 0 0 0 0 0 0 0 0 0 0.15 0"/>
<feBlend mode="normal" in2="BackgroundImageFix" result="effect1_dropShadow_1730_647"/>
<feBlend mode="normal" in="SourceGraphic" in2="effect1_dropShadow_1730_647" result="shape"/>
</filter>
</defs>
</svg>
