<svg width="38" height="38" viewBox="0 0 38 38" fill="none" xmlns="http://www.w3.org/2000/svg">
<circle cx="19" cy="19" r="19" fill="white"/>
<path d="M19.0597 9.00278C21.3692 9.00278 23.6898 9.00278 25.9993 9.00278C27.8647 9.00278 28.9972 10.1464 28.9972 12.0229C28.9972 16.6863 28.9972 21.3498 28.9972 26.0132C28.9972 27.8452 27.8425 29 26.0215 29C21.3359 29 16.6613 29 11.9757 29C10.1548 29 9 27.8341 9 26.0132C9 21.3276 9 16.653 9 11.9674C9 10.1797 10.1659 9.01388 11.9424 9.01388C14.3296 8.99167 16.6947 9.00278 19.0597 9.00278ZM18.1907 16.2436C17.4319 16.2412 16.8168 16.8573 16.8168 17.6161C16.8168 19.8457 16.8168 22.0516 16.8168 24.2533C16.8168 25.0106 17.4349 25.6246 18.1922 25.6246C18.9496 25.6246 19.5592 25.0106 19.5578 24.2533C19.5552 22.8731 19.551 21.5119 19.5593 20.1506C19.5704 19.018 20.592 18.2963 21.669 18.6516C22.4129 18.8959 22.857 19.551 22.8793 20.517C22.9015 22.0382 22.8904 23.5482 22.8904 25.0694C22.8904 25.3883 23.1489 25.6468 23.4678 25.6468C23.7354 25.6468 23.9974 25.6468 24.2561 25.6468C25.0104 25.6468 25.6226 25.0353 25.6327 24.2811C25.6545 22.6687 25.6924 21.0698 25.5885 19.4844C25.4663 17.6967 24.5448 16.6641 23.1568 16.3532C22.0837 16.1147 21.102 16.1964 20.2668 16.8688C20.0105 17.0752 19.5482 16.8898 19.5482 16.5608C19.5482 16.3763 19.3999 16.2515 19.2155 16.2498C18.8695 16.2465 18.5296 16.2447 18.1907 16.2436ZM13.7384 16.2422C12.9902 16.2422 12.3754 16.8487 12.3754 17.5968C12.3754 19.8322 12.3754 22.0516 12.3754 24.2589C12.3754 25.007 13.0027 25.6135 13.7509 25.6135C14.499 25.6135 15.0847 25.007 15.0847 24.2588C15.0847 22.0299 15.0847 19.8145 15.0847 17.5968C15.0847 16.8487 14.4865 16.2422 13.7384 16.2422ZM15.118 13.7439C15.1291 12.9334 14.5406 12.3338 13.7523 12.3338C12.9417 12.3338 12.3532 12.9223 12.3532 13.7217C12.3532 14.5101 12.9195 15.0874 13.6967 15.1096C14.4962 15.1207 15.1069 14.5434 15.118 13.7439Z" fill="#0288D0"/>
<path d="M16.8168 16.2422C17.7384 16.2422 18.6155 16.2422 19.5593 16.2422C19.5593 16.6753 19.5593 17.0861 19.5593 17.6413C20.5253 16.2755 21.7689 16.0313 23.1679 16.3422C24.5558 16.6531 25.4774 17.6857 25.5996 19.4733C25.7328 21.5163 25.6329 23.5594 25.6329 25.6357C24.7446 25.6357 23.8674 25.6357 22.9014 25.6357C22.9014 25.4469 22.9014 25.2582 22.9014 25.0583C22.9014 23.5372 22.9125 22.0271 22.8903 20.5059C22.8792 19.5399 22.424 18.8848 21.6801 18.6406C20.603 18.2964 19.5704 19.007 19.5704 20.1395C19.5593 21.9494 19.5704 23.7592 19.5704 25.6135C18.6599 25.6135 17.7606 25.6135 16.8279 25.6135C16.8168 22.5156 16.8168 19.4067 16.8168 16.2422Z" fill="#FDFEFE"/>
<path d="M12.3754 16.2422C13.297 16.2422 14.1742 16.2422 15.0847 16.2422C15.0847 19.3733 15.0847 22.4712 15.0847 25.6135C14.1964 25.6135 13.3081 25.6135 12.3754 25.6135C12.3754 22.5156 12.3754 19.3956 12.3754 16.2422Z" fill="#FEFEFE"/>
<path d="M15.118 13.7439C15.1068 14.5433 14.4962 15.1207 13.6856 15.0985C12.9084 15.0874 12.3421 14.4989 12.3421 13.7106C12.3421 12.9111 12.9417 12.3226 13.7411 12.3226C14.5406 12.3337 15.1291 12.9333 15.118 13.7439Z" fill="#FDFEFE"/>
</svg>
