<svg width="151" height="149" viewBox="0 0 151 149" fill="none" xmlns="http://www.w3.org/2000/svg">
<path d="M128.063 109.845C149.651 88.2577 149.651 53.2574 128.063 31.6699C106.476 10.0823 71.4754 10.0823 49.8878 31.6699C28.3003 53.2574 28.3003 88.2577 49.8878 109.845C71.4754 131.433 106.476 131.433 128.063 109.845Z" fill="#EA4E7B"/>
<path d="M59.7049 129.193C59.7049 129.193 59.4142 103.902 76.489 88.7247C84.2308 81.8397 102.147 90.7137 84.9652 102.388C77.8507 107.222 67.0336 111.506 59.7049 129.193Z" fill="#FFB0B0"/>
<path d="M82.609 93.5136C82.609 93.5136 57.9913 109.716 59.3377 138.48" stroke="#C73B5D" stroke-width="1.3664" stroke-miterlimit="10"/>
<path opacity="0.1" d="M88.0099 140.638C98.5639 140.638 107.12 139.446 107.12 137.975C107.12 136.505 98.5639 135.313 88.0099 135.313C77.4559 135.313 68.9002 136.505 68.9002 137.975C68.9002 139.446 77.4559 140.638 88.0099 140.638Z" fill="black"/>
<path d="M54.0133 128.306C54.0133 128.306 53.1412 100.567 18.0736 86.8581C5.98657 82.1304 -11.639 99.3735 13.4071 106.457C23.7499 109.38 38.3155 110.206 54.0133 128.306Z" fill="#FFB0B0"/>
<path d="M12.688 94.9824C12.688 94.9824 48.3523 104.499 58.129 139.23" stroke="#C73B5D" stroke-width="1.7113" stroke-miterlimit="10"/>
<path d="M28.7836 70.5483C31.0633 72.063 31.7518 75.0159 31.7518 75.0159C31.7518 75.0159 28.7683 75.5055 26.4886 73.9908C24.2089 72.4761 22.8778 70.4718 23.5204 69.5232C24.163 68.5593 26.5192 69.0336 28.7836 70.5483Z" fill="#FFB0B0"/>
<path d="M34.0009 77.0508C35.9134 77.8311 36.8926 79.8966 36.8926 79.8966C36.8926 79.8966 34.7506 80.7228 32.8381 79.9425C30.9256 79.1622 29.6251 77.8923 29.9464 77.0967C30.2677 76.2858 32.0884 76.2705 34.0009 77.0508Z" fill="#FFB0B0"/>
<path d="M36.0052 74.6028C36.8008 76.5153 36.0052 78.6573 36.0052 78.6573C36.0052 78.6573 33.9244 77.7087 33.1288 75.7962C32.3332 73.8837 32.3332 72.0783 33.1288 71.7417C33.9244 71.4204 35.2249 72.6903 36.0052 74.6028Z" fill="#FFB0B0"/>
<path d="M37.2139 81.3195C39.6466 81.8856 41.1919 84.1806 41.1919 84.1806C41.1919 84.1806 38.7898 85.5576 36.3724 84.9915C33.9397 84.4254 32.1649 83.1555 32.3944 82.1304C32.6239 81.1053 34.7965 80.7534 37.2139 81.3195Z" fill="#FFB0B0"/>
<path d="M41.4826 78.7797C42.1864 81.1665 40.9318 83.6451 40.9318 83.6451C40.9318 83.6451 38.5603 82.2375 37.8565 79.8354C37.1527 77.4486 37.3975 75.2607 38.4073 74.97C39.4171 74.6793 40.7788 76.3929 41.4826 78.7797Z" fill="#FFB0B0"/>
<path d="M39.5395 86.3379C42.0334 86.3226 44.0683 88.2045 44.0683 88.2045C44.0683 88.2045 42.0487 90.0864 39.5548 90.1017C37.0609 90.117 35.0413 89.2755 35.026 88.2351C35.026 87.1947 37.0456 86.3379 39.5395 86.3379Z" fill="#FFB0B0"/>
<path d="M42.5995 91.8765C45.2617 91.7541 47.5108 93.6513 47.5108 93.6513C47.5108 93.6513 45.4453 95.7627 42.7831 95.8851C40.1209 96.0075 37.933 95.2119 37.8718 94.1103C37.8106 93.0087 39.9373 91.9989 42.5995 91.8765Z" fill="#FFB0B0"/>
<path d="M45.3688 97.4304C48.0004 97.0326 50.4331 98.7003 50.4331 98.7003C50.4331 98.7003 48.5971 101.011 45.9655 101.393C43.3339 101.791 41.0695 101.21 40.9012 100.123C40.7482 99.0216 42.7372 97.8129 45.3688 97.4304Z" fill="#FFB0B0"/>
<path d="M48.5206 103.734C51.1828 103.78 53.3095 105.815 53.3095 105.815C53.3095 105.815 51.1216 107.789 48.4594 107.743C45.7972 107.697 43.6552 106.763 43.6705 105.662C43.6858 104.56 45.8584 103.688 48.5206 103.734Z" fill="#FFB0B0"/>
<path d="M43.8847 83.1096C42.9055 85.4046 43.8388 88.0056 43.8388 88.0056C43.8388 88.0056 46.3633 86.8887 47.3425 84.5937C48.3217 82.2987 48.3523 80.1108 47.3884 79.6977C46.4245 79.2846 44.8639 80.8146 43.8847 83.1096Z" fill="#FFB0B0"/>
<path d="M48.4747 88.6023C46.9753 90.7902 47.4037 93.7125 47.4037 93.7125C47.4037 93.7125 50.2801 93.0699 51.7795 90.882C53.2789 88.6941 53.7685 86.3991 52.8505 85.7718C51.9478 85.1445 49.9894 86.4144 48.4747 88.6023Z" fill="#FFB0B0"/>
<path d="M51.7336 93.8961C50.0047 95.931 50.1424 98.8686 50.1424 98.8686C50.1424 98.8686 53.0647 98.5167 54.7936 96.4971C56.5225 94.4622 57.2263 92.2437 56.3848 91.5246C55.528 90.7902 53.4472 91.8612 51.7336 93.8961Z" fill="#FFB0B0"/>
<path d="M53.8909 100.751C52.5292 103.03 53.1412 105.922 53.1412 105.922C53.1412 105.922 55.9717 105.096 57.3334 102.816C58.6951 100.536 59.0317 98.2107 58.0831 97.6446C57.1345 97.0785 55.2526 98.4708 53.8909 100.751Z" fill="#FFB0B0"/>
<path d="M51.2134 110.359C53.8144 110.956 55.4668 113.388 55.4668 113.388C55.4668 113.388 52.9117 114.872 50.326 114.276C47.725 113.679 45.8278 112.333 46.0726 111.246C46.3174 110.175 48.6277 109.777 51.2134 110.359Z" fill="#FFB0B0"/>
<path d="M57.0886 108.554C55.2832 110.512 55.2985 113.45 55.2985 113.45C55.2985 113.45 58.2361 113.235 60.0415 111.277C61.8469 109.319 62.6578 107.131 61.8316 106.381C61.0207 105.616 58.894 106.595 57.0886 108.554Z" fill="#FFB0B0"/>
<path d="M52.9117 117.565C55.4515 118.376 56.8897 120.947 56.8897 120.947C56.8897 120.947 54.2275 122.201 51.6877 121.39C49.1479 120.579 47.3731 119.065 47.7097 118.009C48.0463 116.953 50.3719 116.754 52.9117 117.565Z" fill="#FFB0B0"/>
<path d="M58.9093 116.249C56.9356 118.039 56.7061 120.977 56.7061 120.977C56.7061 120.977 59.659 121.008 61.6174 119.218C63.5758 117.428 64.5703 115.301 63.8206 114.49C63.0862 113.679 60.883 114.459 58.9093 116.249Z" fill="#FFB0B0"/>
<path d="M29.0284 73.3023C29.0284 73.3023 42.0946 80.3709 50.8003 100.139C59.506 119.906 57.8536 138.587 57.8536 138.587" stroke="#C73B5D" stroke-width="1.2832" stroke-miterlimit="10"/>
<path d="M144.528 95.7015C142.845 96.5583 142.126 98.532 142.126 98.532C142.126 98.532 144.146 99.1134 145.844 98.2566C147.542 97.3998 148.613 96.1299 148.261 95.4261C147.894 94.7223 146.226 94.8447 144.528 95.7015Z" fill="#FFB0B0"/>
<path d="M140.397 99.756C139.02 100.138 138.179 101.485 138.179 101.485C138.179 101.485 139.586 102.219 140.963 101.852C142.34 101.47 143.35 100.705 143.182 100.123C143.044 99.5418 141.789 99.3735 140.397 99.756Z" fill="#FFB0B0"/>
<path d="M139.219 97.9047C138.515 99.1593 138.882 100.705 138.882 100.705C138.882 100.705 140.397 100.215 141.101 98.9757C141.805 97.7211 141.958 96.4818 141.437 96.1758C140.917 95.8851 139.923 96.6654 139.219 97.9047Z" fill="#FFB0B0"/>
<path d="M137.842 102.433C136.128 102.617 134.874 104.071 134.874 104.071C134.874 104.071 136.404 105.218 138.133 105.019C139.846 104.836 141.177 104.101 141.101 103.382C141.024 102.678 139.556 102.25 137.842 102.433Z" fill="#FFB0B0"/>
<path d="M135.103 100.337C134.43 101.929 135.073 103.734 135.073 103.734C135.073 103.734 136.817 102.954 137.505 101.363C138.179 99.7713 138.194 98.2566 137.536 97.9659C136.878 97.6905 135.792 98.7462 135.103 100.337Z" fill="#FFB0B0"/>
<path d="M135.838 105.708C134.124 105.493 132.563 106.626 132.563 106.626C132.563 106.626 133.803 108.094 135.516 108.309C137.23 108.523 138.699 108.11 138.791 107.391C138.867 106.656 137.551 105.907 135.838 105.708Z" fill="#FFB0B0"/>
<path d="M133.267 109.273C131.447 108.967 129.733 110.099 129.733 110.099C129.733 110.099 130.988 111.721 132.808 112.027C134.629 112.333 136.205 111.965 136.343 111.2C136.465 110.435 135.088 109.579 133.267 109.273Z" fill="#FFB0B0"/>
<path d="M130.896 112.853C129.121 112.363 127.3 113.312 127.3 113.312C127.3 113.312 128.371 115.056 130.161 115.546C131.936 116.035 133.558 115.821 133.757 115.087C133.956 114.337 132.671 113.342 130.896 112.853Z" fill="#FFB0B0"/>
<path d="M128.203 116.953C126.367 116.77 124.73 117.994 124.73 117.994C124.73 117.994 126.076 119.539 127.912 119.722C129.748 119.906 131.309 119.447 131.385 118.682C131.462 117.902 130.039 117.137 128.203 116.953Z" fill="#FFB0B0"/>
<path d="M133.099 103.122C133.589 104.774 132.732 106.503 132.732 106.503C132.732 106.503 131.079 105.524 130.59 103.872C130.1 102.219 130.268 100.705 130.957 100.49C131.661 100.276 132.609 101.454 133.099 103.122Z" fill="#FFB0B0"/>
<path d="M129.473 106.519C130.33 108.156 129.794 110.129 129.794 110.129C129.794 110.129 127.866 109.456 127.01 107.819C126.153 106.182 126.015 104.575 126.688 104.208C127.377 103.856 128.616 104.897 129.473 106.519Z" fill="#FFB0B0"/>
<path d="M126.811 109.9C127.836 111.445 127.499 113.449 127.499 113.449C127.499 113.449 125.51 112.975 124.485 111.43C123.46 109.885 123.154 108.293 123.797 107.88C124.439 107.452 125.786 108.355 126.811 109.9Z" fill="#FFB0B0"/>
<path d="M124.745 114.444C125.495 116.127 124.837 118.07 124.837 118.07C124.837 118.07 122.955 117.274 122.205 115.591C121.456 113.908 121.41 112.287 122.114 111.965C122.817 111.644 123.995 112.761 124.745 114.444Z" fill="#FFB0B0"/>
<path d="M125.801 121.283C123.965 121.482 122.618 123.027 122.618 123.027C122.618 123.027 124.256 124.251 126.092 124.068C127.928 123.884 129.35 123.088 129.274 122.323C129.197 121.558 127.637 121.099 125.801 121.283Z" fill="#FFB0B0"/>
<path d="M121.899 119.554C122.986 121.054 122.741 123.073 122.741 123.073C122.741 123.073 120.737 122.675 119.65 121.191C118.564 119.692 118.197 118.116 118.809 117.672C119.436 117.213 120.828 118.055 121.899 119.554Z" fill="#FFB0B0"/>
<path d="M124.041 126.118C122.221 126.47 121.027 128.122 121.027 128.122C121.027 128.122 122.756 129.209 124.577 128.857C126.398 128.505 127.744 127.617 127.591 126.852C127.438 126.087 125.847 125.766 124.041 126.118Z" fill="#FFB0B0"/>
<path d="M120.017 124.71C121.226 126.103 121.15 128.153 121.15 128.153C121.15 128.153 119.115 127.923 117.906 126.531C116.697 125.139 116.192 123.593 116.774 123.089C117.355 122.599 118.809 123.318 120.017 124.71Z" fill="#FFB0B0"/>
<path d="M144.146 97.5834C144.146 97.5834 134.568 101.378 126.933 114.276C119.298 127.174 118.916 140.179 118.916 140.179" stroke="#C73B5D" stroke-width="0.8903" stroke-miterlimit="10"/>
<path d="M115.764 129.79C115.764 129.79 105.941 99.6642 120.691 75.1536C127.377 64.0305 152.102 67.932 135.929 88.3269C129.243 96.7419 117.906 105.922 115.764 129.79Z" fill="#FFB0B0"/>
<path d="M129.794 78.5961C129.794 78.5961 106.416 107.161 118.793 141.051" stroke="#C73B5D" stroke-width="1.7113" stroke-miterlimit="10"/>
<path d="M120.706 135.068C120.706 135.068 125.25 120.518 137.857 115.01C143.579 112.516 152.193 120.931 140.168 124.42C135.21 125.858 128.203 126.317 120.706 135.068Z" fill="#FFB0B0"/>
<path d="M140.474 118.896C140.474 118.896 123.338 123.593 118.763 140.332" stroke="#C73B5D" stroke-width="0.8234" stroke-miterlimit="10"/>
<path d="M107.777 24.3576L107.716 20.8845C107.701 20.3184 107.456 19.7982 107.043 19.431C106.37 18.819 105.544 17.748 105.727 17.5032C106.079 17.0289 107.257 18.7425 107.732 18.3906C107.869 18.2835 107.058 13.617 107.548 13.6476C107.915 13.6782 108.068 16.2945 108.236 16.2792C108.405 16.2639 108.359 11.9187 108.695 11.9646C109.032 11.9952 109.139 15.9426 109.369 15.8049C109.705 15.5907 109.353 12.3318 109.919 12.1788C110.287 12.0717 110.241 16.3251 110.44 16.4016C110.7 16.4934 110.807 13.6476 111.128 13.77C111.572 13.923 110.899 18.7578 110.899 18.7578L110.057 24.8931L107.777 24.3576Z" fill="#FFB49B"/>
<path d="M57.5169 39.8106L55.176 37.2402C54.7935 36.8271 54.6099 36.2763 54.6558 35.7255C54.7323 34.8228 54.5946 33.4764 54.2733 33.4152C53.6919 33.3234 54.0132 35.3736 53.4318 35.4501C53.2635 35.4654 50.6319 31.518 50.3106 31.8699C50.0505 32.1453 51.7641 34.1496 51.6264 34.2567C51.4887 34.3485 48.5511 31.1814 48.3216 31.4415C48.1074 31.6863 50.7237 34.6392 50.4636 34.6851C50.0811 34.7616 48.0921 32.1606 47.5719 32.436C47.2353 32.6196 50.1882 35.6643 50.0964 35.8632C49.974 36.108 47.9391 34.119 47.7861 34.425C47.5719 34.8381 51.3816 37.8981 51.3816 37.8981L56.2164 41.769L57.5169 39.8106Z" fill="#FFB49B"/>
<path d="M89.6775 30.8907C88.5759 26.316 84.4755 22.9194 79.5642 22.9194C79.1358 22.9194 78.7227 22.95 78.3249 22.9959C76.3971 23.2407 74.454 23.3019 72.5262 23.0418C71.6694 22.9194 70.7208 22.797 69.7416 22.6746C65.0751 22.0626 61.3266 26.5302 62.7954 31.0131C62.8107 31.0743 62.826 31.1202 62.8566 31.1814C63.6828 33.6141 64.0806 36.1692 64.1112 38.7396C64.1112 38.9538 64.1265 39.168 64.1418 39.3822C64.4937 44.2476 68.3187 48.2868 73.1535 48.9294C73.7808 49.0059 74.3775 49.0365 74.9742 49.0059C77.7588 48.8835 80.5434 49.266 83.1138 50.337C84.2154 50.796 85.3629 51.1479 86.2809 51.1479C92.0337 51.1479 96.7002 46.4814 96.7002 40.7286C96.7002 36.1692 93.7626 32.2983 89.6775 30.8907Z" fill="#41378C"/>
<path d="M113.928 29.6514C113.928 29.6514 112.306 45.7776 109.843 50.4747C107.9 54.1773 98.1385 62.4699 98.1385 62.4699C96.7768 63.8775 94.4971 63.7857 93.2272 62.3016C92.3245 61.2306 92.1868 59.6853 92.9059 58.4766C92.9059 58.4766 101.81 48.8835 103.126 44.829C104.381 40.9887 102.927 28.6569 102.927 28.6569C102.881 25.0767 106.186 22.3839 109.69 23.1642C112.612 23.8221 114.494 26.6985 113.928 29.6514Z" fill="white"/>
<path d="M102.025 120.09C100.204 119.493 99.8674 120.763 99.2554 123.012C98.6434 125.276 98.5363 126.975 99.1177 127.143C99.6532 127.296 100.433 126.485 101.734 124.542C103.31 122.216 103.203 120.488 102.025 120.09Z" fill="#41378C"/>
<path d="M103.417 117.825L101.657 120.273C101.091 121.038 101.122 121.589 101.459 121.941C101.81 122.293 102.361 122.293 102.728 121.972L105.651 119.524L103.417 117.825Z" fill="#FFB49B"/>
<path d="M96.9604 76.0563C88.1017 79.5447 90.5497 91.5552 94.7266 94.0338C100.938 97.7211 113.316 96.1758 113.331 97.1244C113.377 101.164 102.575 118.147 102.575 118.147C102.484 118.315 102.499 118.514 102.621 118.652C103.249 119.371 103.677 119.83 104.809 120.564C104.947 120.656 105.131 120.579 105.238 120.472C111.296 114.842 123.582 100.904 125.021 94.9059C127.423 84.915 98.6128 75.3984 96.9604 76.0563Z" fill="#A62F4C"/>
<path d="M53.539 113.74C52.7587 111.996 51.5959 112.608 49.5151 113.679C47.4343 114.75 46.1032 115.821 46.3786 116.357C46.6387 116.861 47.7556 116.892 50.0659 116.54C52.8505 116.112 54.0592 114.872 53.539 113.74Z" fill="#41378C"/>
<path d="M56.1553 113.22L53.1718 113.572C52.2232 113.679 51.8407 114.062 51.8101 114.551C51.7948 115.041 52.162 115.469 52.6516 115.515L56.4307 116.02L56.1553 113.22Z" fill="#FFB49B"/>
<path d="M97.5264 77.4639C95.7057 75.582 87.0918 77.0814 87.0918 77.0814C78.1719 80.4321 78.6156 88.2045 79.6101 92.9475C81.0789 100.016 78.8145 105.922 78.1107 106.58C75.1578 109.334 55.329 112.822 55.329 112.822C55.1454 112.868 55.0077 113.021 54.9924 113.205C54.8853 114.153 54.8241 114.781 55.0536 116.112C55.0842 116.265 55.2525 116.357 55.4208 116.372C63.6675 117.03 80.268 118.483 85.5618 115.316C97.6794 108.018 104.427 84.5937 97.5264 77.4639Z" fill="#C73B5D"/>
<path d="M97.4806 80.8605C100.265 80.5086 102.591 78.5655 103.402 75.8727C104.61 71.8488 106.278 65.2698 105.513 61.506C104.809 57.987 102.086 51.4845 95.2774 51.4845C90.7333 51.4845 81.5686 52.8309 82.1653 59.8077C82.5325 64.1529 83.2822 72.3384 86.6941 77.8005C87.3367 78.8256 88.3159 79.6059 89.4634 79.9731C91.2382 80.5698 94.237 81.2736 97.4806 80.8605Z" fill="white"/>
<path d="M96.2259 55.2789H92.7069C92.3703 55.2789 92.0797 55.0035 92.0797 54.6516V45.0279H96.8532V54.6516C96.8532 55.0035 96.5778 55.2789 96.2259 55.2789Z" fill="#FFA587"/>
<path d="M96.3789 51.1479C96.5472 51.1479 96.7002 51.1326 96.8532 51.102V45.0126H92.0797V45.9C92.0797 48.2868 94.0074 51.1479 96.3789 51.1479Z" fill="#F5876E"/>
<path d="M97.45 49.5108C95.5069 50.2605 91.9879 48.8988 91.2382 46.9557C91.2382 46.9557 89.6164 44.0028 89.6929 42.9318C90.0907 37.9746 94.8184 38.9385 96.5473 39.7035C97.5265 40.1472 98.0161 43.2225 98.2915 44.2629C98.8423 46.2672 98.3068 49.1742 97.45 49.5108Z" fill="#FFB49B"/>
<path d="M89.0809 45.6858C89.4175 46.5579 90.3814 47.0016 91.2382 46.665L90.0295 43.5132C89.1727 43.8498 88.7443 44.8137 89.0809 45.6858Z" fill="#FFA587"/>
<path d="M96.5626 39.6882L90.6109 41.9679L91.1158 43.2837C90.5191 43.5438 90.2284 44.2323 90.4732 44.8596C90.5344 45.0279 90.6262 45.1656 90.7333 45.2727C90.8557 45.1656 90.9781 45.0432 91.0546 44.9055C91.2382 44.6148 91.5289 44.4006 91.8655 44.2782C92.5693 44.0028 93.1354 43.4979 93.5026 42.8706C94.0075 41.9985 94.849 41.3406 95.8282 41.1264C96.0424 41.0805 96.2413 41.0193 96.4555 40.9428C96.6238 40.8816 96.7921 40.7898 96.9451 40.7133L96.5626 39.6882Z" fill="#FFA587"/>
<path d="M92.5693 31.7475C91.2994 32.283 90.3661 33.3081 89.953 34.5321C89.5093 35.802 88.5454 36.8118 87.3979 37.5309C87.3826 37.5462 87.3673 37.5462 87.352 37.5615C86.0821 38.3724 85.4089 39.9177 85.6843 41.3865C85.7149 41.5854 85.7761 41.769 85.8373 41.9526C86.0362 42.5493 86.1586 43.1919 86.0821 43.8192C86.0515 44.1099 86.0821 44.4159 86.1892 44.7066C86.5717 45.7164 87.7651 46.206 88.8361 45.7929C89.2798 45.6246 89.6317 45.3186 89.8765 44.9514C90.0907 44.6148 90.4273 44.3853 90.7945 44.2323C91.6054 43.911 92.248 43.3449 92.6611 42.6258C93.2425 41.6313 94.1911 40.8816 95.3233 40.6368C95.5681 40.5909 95.7976 40.5144 96.0271 40.4226C98.4904 39.4893 99.6838 36.7047 98.674 34.2567C97.7407 31.9923 94.8643 30.7989 92.5693 31.7475Z" fill="#41378C"/>
<path d="M54.6864 45.7164C54.6864 45.7164 65.3046 55.5696 70.1088 57.6351C73.5972 59.1192 87.1072 60.5421 87.1072 60.5421C88.8208 60.9858 90.5803 59.8383 90.9016 58.0941C91.1311 56.8395 90.5496 55.5849 89.4328 54.9882C89.4328 54.9882 77.4223 53.0451 74.1021 51.1326C70.7362 49.2048 62.9178 39.7494 62.9178 39.7494C59.8884 36.8271 57.5017 36.4446 55.0996 38.709C53.08 40.6062 52.2537 44.217 54.6864 45.7164Z" fill="white"/>
</svg>
