<svg width="327" height="58" viewBox="0 0 327 58" fill="none" xmlns="http://www.w3.org/2000/svg">
<g opacity="0.9" filter="url(#filter0_d_2894_53)">
<path d="M4 25C4 11.1929 15.1929 0 29 0H297.353C311.16 0 322.353 11.1929 322.353 25C322.353 38.8071 311.16 50 297.353 50H29C15.1929 50 4 38.8071 4 25Z" fill="white"/>
</g>
<path d="M67.5652 20.48V32H65.9172V24.104C65.9172 23.976 65.9198 23.8373 65.9252 23.688C65.9358 23.5333 65.9492 23.3787 65.9652 23.224L62.2612 30.064C62.1172 30.3467 61.8958 30.488 61.5972 30.488H61.3332C61.0292 30.488 60.8078 30.3467 60.6692 30.064L56.9092 23.208C56.9252 23.3627 56.9358 23.5173 56.9412 23.672C56.9518 23.8267 56.9572 23.9707 56.9572 24.104V32H55.3092V20.48H56.7092C56.8745 20.48 57.0025 20.496 57.0932 20.528C57.1838 20.5547 57.2665 20.6427 57.3412 20.792L61.0372 27.488C61.1172 27.6427 61.1918 27.8027 61.2612 27.968C61.3358 28.128 61.4025 28.2933 61.4612 28.464C61.5252 28.2933 61.5918 28.1253 61.6612 27.96C61.7358 27.7893 61.8132 27.6267 61.8932 27.472L65.5332 20.792C65.6078 20.6427 65.6905 20.5547 65.7812 20.528C65.8718 20.496 65.9998 20.48 66.1652 20.48H67.5652ZM73.2515 23.712C73.8542 23.712 74.3982 23.8107 74.8835 24.008C75.3742 24.2053 75.7902 24.4853 76.1315 24.848C76.4782 25.2107 76.7449 25.6507 76.9315 26.168C77.1182 26.6853 77.2115 27.2667 77.2115 27.912C77.2115 28.5573 77.1182 29.1387 76.9315 29.656C76.7449 30.1733 76.4782 30.616 76.1315 30.984C75.7902 31.3467 75.3742 31.6267 74.8835 31.824C74.3982 32.0213 73.8542 32.12 73.2515 32.12C72.6435 32.12 72.0942 32.0213 71.6035 31.824C71.1182 31.6267 70.7022 31.3467 70.3555 30.984C70.0089 30.616 69.7422 30.1733 69.5555 29.656C69.3689 29.1387 69.2755 28.5573 69.2755 27.912C69.2755 27.2667 69.3689 26.6853 69.5555 26.168C69.7422 25.6507 70.0089 25.2107 70.3555 24.848C70.7022 24.4853 71.1182 24.2053 71.6035 24.008C72.0942 23.8107 72.6435 23.712 73.2515 23.712ZM73.2515 30.776C73.9875 30.776 74.5342 30.5307 74.8915 30.04C75.2542 29.544 75.4355 28.8373 75.4355 27.92C75.4355 27.0027 75.2542 26.296 74.8915 25.8C74.5342 25.2987 73.9875 25.048 73.2515 25.048C72.5049 25.048 71.9502 25.2987 71.5875 25.8C71.2249 26.296 71.0435 27.0027 71.0435 27.92C71.0435 28.8373 71.2249 29.544 71.5875 30.04C71.9502 30.5307 72.5049 30.776 73.2515 30.776ZM80.5842 29.952C80.8242 30.2613 81.0855 30.48 81.3682 30.608C81.6562 30.7307 81.9682 30.792 82.3042 30.792C82.9815 30.792 83.5095 30.5467 83.8882 30.056C84.2668 29.5653 84.4562 28.8053 84.4562 27.776C84.4562 26.8373 84.2908 26.152 83.9602 25.72C83.6348 25.288 83.1682 25.072 82.5602 25.072C82.1388 25.072 81.7708 25.168 81.4562 25.36C81.1468 25.5467 80.8562 25.816 80.5842 26.168V29.952ZM80.5842 24.92C80.9202 24.552 81.2962 24.2587 81.7122 24.04C82.1282 23.8213 82.6028 23.712 83.1362 23.712C83.6108 23.712 84.0375 23.8053 84.4162 23.992C84.8002 24.1733 85.1255 24.4373 85.3922 24.784C85.6588 25.1307 85.8642 25.552 86.0082 26.048C86.1522 26.5387 86.2242 27.0933 86.2242 27.712C86.2242 28.3733 86.1415 28.976 85.9762 29.52C85.8162 30.0587 85.5842 30.5227 85.2802 30.912C84.9762 31.296 84.6082 31.5947 84.1762 31.808C83.7442 32.016 83.2615 32.12 82.7282 32.12C82.4668 32.12 82.2295 32.0933 82.0162 32.04C81.8028 31.992 81.6055 31.92 81.4242 31.824C81.2428 31.728 81.0748 31.6133 80.9202 31.48C80.7708 31.3467 80.6268 31.1947 80.4882 31.024L80.4162 31.656C80.3895 31.7787 80.3415 31.8667 80.2722 31.92C80.2028 31.9733 80.1068 32 79.9842 32H78.8642V20.16H80.5842V24.92ZM89.6874 23.84V32H87.9674V23.84H89.6874ZM89.9754 21.376C89.9754 21.5307 89.9434 21.6773 89.8794 21.816C89.8207 21.9547 89.7381 22.0773 89.6314 22.184C89.5247 22.2853 89.3994 22.368 89.2554 22.432C89.1167 22.4907 88.9674 22.52 88.8074 22.52C88.6527 22.52 88.5061 22.4907 88.3674 22.432C88.2341 22.368 88.1167 22.2853 88.0154 22.184C87.9141 22.0773 87.8314 21.9547 87.7674 21.816C87.7087 21.6773 87.6794 21.5307 87.6794 21.376C87.6794 21.216 87.7087 21.0667 87.7674 20.928C87.8314 20.7893 87.9141 20.6693 88.0154 20.568C88.1167 20.4613 88.2341 20.3787 88.3674 20.32C88.5061 20.256 88.6527 20.224 88.8074 20.224C88.9674 20.224 89.1167 20.256 89.2554 20.32C89.3994 20.3787 89.5247 20.4613 89.6314 20.568C89.7381 20.6693 89.8207 20.7893 89.8794 20.928C89.9434 21.0667 89.9754 21.216 89.9754 21.376ZM93.6005 20.16V32H91.8805V20.16H93.6005ZM101.076 27C101.076 26.712 101.033 26.4453 100.948 26.2C100.868 25.9493 100.748 25.7333 100.588 25.552C100.428 25.3653 100.228 25.2213 99.9875 25.12C99.7529 25.0133 99.4809 24.96 99.1715 24.96C98.5475 24.96 98.0569 25.1387 97.6995 25.496C97.3422 25.8533 97.1155 26.3547 97.0195 27H101.076ZM96.9715 28.056C96.9929 28.52 97.0649 28.9227 97.1875 29.264C97.3102 29.6 97.4729 29.88 97.6755 30.104C97.8835 30.328 98.1289 30.496 98.4115 30.608C98.6995 30.7147 99.0195 30.768 99.3715 30.768C99.7075 30.768 99.9982 30.7307 100.244 30.656C100.489 30.576 100.702 30.4907 100.884 30.4C101.065 30.304 101.22 30.2187 101.348 30.144C101.476 30.064 101.593 30.024 101.7 30.024C101.838 30.024 101.945 30.0773 102.02 30.184L102.508 30.816C102.305 31.056 102.076 31.2587 101.82 31.424C101.564 31.5893 101.292 31.7253 101.004 31.832C100.716 31.9333 100.42 32.0053 100.116 32.048C99.8115 32.096 99.5155 32.12 99.2275 32.12C98.6622 32.12 98.1369 32.0267 97.6515 31.84C97.1715 31.648 96.7529 31.368 96.3955 31C96.0435 30.632 95.7662 30.176 95.5635 29.632C95.3662 29.088 95.2675 28.4613 95.2675 27.752C95.2675 27.1867 95.3555 26.6587 95.5315 26.168C95.7129 25.6773 95.9689 25.2507 96.2995 24.888C96.6355 24.5253 97.0409 24.24 97.5155 24.032C97.9955 23.8187 98.5369 23.712 99.1395 23.712C99.6409 23.712 100.105 23.7947 100.532 23.96C100.958 24.12 101.326 24.3573 101.636 24.672C101.945 24.9867 102.185 25.3733 102.356 25.832C102.532 26.2853 102.62 26.8027 102.62 27.384C102.62 27.6507 102.59 27.8293 102.532 27.92C102.473 28.0107 102.366 28.056 102.212 28.056H96.9715ZM118.064 20.48V32H117.112C116.968 32 116.845 31.976 116.744 31.928C116.643 31.8747 116.547 31.7893 116.456 31.672L110.128 23.544C110.144 23.6987 110.155 23.8533 110.16 24.008C110.171 24.1573 110.176 24.296 110.176 24.424V32H108.528V20.48H109.504C109.584 20.48 109.651 20.4853 109.704 20.496C109.763 20.5013 109.816 20.5147 109.864 20.536C109.912 20.5573 109.957 20.5893 110 20.632C110.043 20.6747 110.088 20.728 110.136 20.792L116.472 28.928C116.456 28.7627 116.443 28.6 116.432 28.44C116.427 28.28 116.424 28.1307 116.424 27.992V20.48H118.064ZM127.213 23.84V32H126.173C125.944 32 125.797 31.8907 125.733 31.672L125.605 30.912C125.434 31.0933 125.253 31.2587 125.061 31.408C124.874 31.5573 124.674 31.6853 124.461 31.792C124.248 31.8987 124.018 31.9813 123.773 32.04C123.533 32.0987 123.274 32.128 122.997 32.128C122.549 32.128 122.154 32.0533 121.813 31.904C121.472 31.7547 121.184 31.544 120.949 31.272C120.72 31 120.546 30.6747 120.429 30.296C120.312 29.912 120.253 29.4907 120.253 29.032V23.84H121.973V29.032C121.973 29.5813 122.098 30.008 122.349 30.312C122.605 30.616 122.992 30.768 123.509 30.768C123.888 30.768 124.24 30.6827 124.565 30.512C124.896 30.336 125.205 30.096 125.493 29.792V23.84H127.213ZM129.302 32V23.84H130.342C130.576 23.84 130.726 23.9493 130.79 24.168L130.902 24.88C131.051 24.7093 131.206 24.5547 131.366 24.416C131.526 24.272 131.696 24.1493 131.878 24.048C132.064 23.9413 132.262 23.8587 132.47 23.8C132.683 23.7413 132.912 23.712 133.158 23.712C133.419 23.712 133.659 23.7493 133.878 23.824C134.096 23.8987 134.288 24.0053 134.454 24.144C134.624 24.2827 134.771 24.4507 134.894 24.648C135.016 24.8453 135.118 25.0667 135.198 25.312C135.32 25.0293 135.475 24.7867 135.662 24.584C135.848 24.3813 136.056 24.216 136.286 24.088C136.515 23.96 136.758 23.8667 137.014 23.808C137.275 23.744 137.539 23.712 137.806 23.712C138.243 23.712 138.632 23.7813 138.974 23.92C139.32 24.0587 139.611 24.2613 139.846 24.528C140.086 24.7893 140.267 25.112 140.39 25.496C140.512 25.88 140.574 26.3173 140.574 26.808V32H138.854V26.808C138.854 26.232 138.728 25.8 138.478 25.512C138.232 25.2187 137.867 25.072 137.382 25.072C137.163 25.072 136.958 25.1093 136.766 25.184C136.574 25.2587 136.406 25.368 136.262 25.512C136.118 25.656 136.003 25.8373 135.918 26.056C135.838 26.2693 135.798 26.52 135.798 26.808V32H134.078V26.808C134.078 26.2107 133.958 25.7733 133.718 25.496C133.478 25.2133 133.126 25.072 132.662 25.072C132.342 25.072 132.046 25.1547 131.774 25.32C131.502 25.48 131.251 25.7013 131.022 25.984V32H129.302ZM144.303 29.952C144.543 30.2613 144.804 30.48 145.087 30.608C145.375 30.7307 145.687 30.792 146.023 30.792C146.7 30.792 147.228 30.5467 147.607 30.056C147.986 29.5653 148.175 28.8053 148.175 27.776C148.175 26.8373 148.01 26.152 147.679 25.72C147.354 25.288 146.887 25.072 146.279 25.072C145.858 25.072 145.49 25.168 145.175 25.36C144.866 25.5467 144.575 25.816 144.303 26.168V29.952ZM144.303 24.92C144.639 24.552 145.015 24.2587 145.431 24.04C145.847 23.8213 146.322 23.712 146.855 23.712C147.33 23.712 147.756 23.8053 148.135 23.992C148.519 24.1733 148.844 24.4373 149.111 24.784C149.378 25.1307 149.583 25.552 149.727 26.048C149.871 26.5387 149.943 27.0933 149.943 27.712C149.943 28.3733 149.86 28.976 149.695 29.52C149.535 30.0587 149.303 30.5227 148.999 30.912C148.695 31.296 148.327 31.5947 147.895 31.808C147.463 32.016 146.98 32.12 146.447 32.12C146.186 32.12 145.948 32.0933 145.735 32.04C145.522 31.992 145.324 31.92 145.143 31.824C144.962 31.728 144.794 31.6133 144.639 31.48C144.49 31.3467 144.346 31.1947 144.207 31.024L144.135 31.656C144.108 31.7787 144.06 31.8667 143.991 31.92C143.922 31.9733 143.826 32 143.703 32H142.583V20.16H144.303V24.92ZM156.966 27C156.966 26.712 156.923 26.4453 156.838 26.2C156.758 25.9493 156.638 25.7333 156.478 25.552C156.318 25.3653 156.118 25.2213 155.878 25.12C155.643 25.0133 155.371 24.96 155.062 24.96C154.438 24.96 153.947 25.1387 153.59 25.496C153.233 25.8533 153.006 26.3547 152.91 27H156.966ZM152.862 28.056C152.883 28.52 152.955 28.9227 153.078 29.264C153.201 29.6 153.363 29.88 153.566 30.104C153.774 30.328 154.019 30.496 154.302 30.608C154.59 30.7147 154.91 30.768 155.262 30.768C155.598 30.768 155.889 30.7307 156.134 30.656C156.379 30.576 156.593 30.4907 156.774 30.4C156.955 30.304 157.11 30.2187 157.238 30.144C157.366 30.064 157.483 30.024 157.59 30.024C157.729 30.024 157.835 30.0773 157.91 30.184L158.398 30.816C158.195 31.056 157.966 31.2587 157.71 31.424C157.454 31.5893 157.182 31.7253 156.894 31.832C156.606 31.9333 156.31 32.0053 156.006 32.048C155.702 32.096 155.406 32.12 155.118 32.12C154.553 32.12 154.027 32.0267 153.542 31.84C153.062 31.648 152.643 31.368 152.286 31C151.934 30.632 151.657 30.176 151.454 29.632C151.257 29.088 151.158 28.4613 151.158 27.752C151.158 27.1867 151.246 26.6587 151.422 26.168C151.603 25.6773 151.859 25.2507 152.19 24.888C152.526 24.5253 152.931 24.24 153.406 24.032C153.886 23.8187 154.427 23.712 155.03 23.712C155.531 23.712 155.995 23.7947 156.422 23.96C156.849 24.12 157.217 24.3573 157.526 24.672C157.835 24.9867 158.075 25.3733 158.246 25.832C158.422 26.2853 158.51 26.8027 158.51 27.384C158.51 27.6507 158.481 27.8293 158.422 27.92C158.363 28.0107 158.257 28.056 158.102 28.056H152.862ZM161.738 25.352C161.994 24.8347 162.303 24.4293 162.666 24.136C163.029 23.8373 163.463 23.688 163.97 23.688C164.146 23.688 164.311 23.7093 164.466 23.752C164.621 23.7893 164.759 23.848 164.882 23.928L164.762 25.224C164.741 25.3147 164.706 25.3787 164.658 25.416C164.615 25.448 164.557 25.464 164.482 25.464C164.402 25.464 164.287 25.4507 164.138 25.424C163.989 25.392 163.831 25.376 163.666 25.376C163.426 25.376 163.213 25.4107 163.026 25.48C162.845 25.5493 162.679 25.6507 162.53 25.784C162.386 25.9173 162.258 26.08 162.146 26.272C162.034 26.464 161.93 26.6827 161.834 26.928V32H160.114V23.84H161.114C161.295 23.84 161.421 23.8747 161.49 23.944C161.559 24.008 161.607 24.1227 161.634 24.288L161.738 25.352Z" fill="#1B1C20"/>
<path d="M35.6875 14H26.0625C24.9238 14 24 14.9238 24 16.0625V33.9375C24 35.0762 24.9238 36 26.0625 36H35.6875C36.8262 36 37.75 35.0762 37.75 33.9375V16.0625C37.75 14.9238 36.8262 14 35.6875 14ZM30.875 34.625C30.1145 34.625 29.5 34.0105 29.5 33.25C29.5 32.4895 30.1145 31.875 30.875 31.875C31.6355 31.875 32.25 32.4895 32.25 33.25C32.25 34.0105 31.6355 34.625 30.875 34.625ZM35.6875 29.9844C35.6875 30.268 35.4555 30.5 35.1719 30.5H26.5781C26.2945 30.5 26.0625 30.268 26.0625 29.9844V16.5781C26.0625 16.2945 26.2945 16.0625 26.5781 16.0625H35.1719C35.4555 16.0625 35.6875 16.2945 35.6875 16.5781V29.9844Z" fill="#1B1C20"/>
<defs>
<filter id="filter0_d_2894_53" x="0.117647" y="0" width="326.118" height="57.7647" filterUnits="userSpaceOnUse" color-interpolation-filters="sRGB">
<feFlood flood-opacity="0" result="BackgroundImageFix"/>
<feColorMatrix in="SourceAlpha" type="matrix" values="0 0 0 0 0 0 0 0 0 0 0 0 0 0 0 0 0 0 127 0" result="hardAlpha"/>
<feOffset dy="3.88235"/>
<feGaussianBlur stdDeviation="1.94118"/>
<feColorMatrix type="matrix" values="0 0 0 0 0 0 0 0 0 0 0 0 0 0 0 0 0 0 0.15 0"/>
<feBlend mode="normal" in2="BackgroundImageFix" result="effect1_dropShadow_2894_53"/>
<feBlend mode="normal" in="SourceGraphic" in2="effect1_dropShadow_2894_53" result="shape"/>
</filter>
</defs>
</svg>
