<svg width="53" height="53" viewBox="0 0 53 53" fill="none" xmlns="http://www.w3.org/2000/svg">
<circle cx="26.5" cy="26.5" r="26.5" fill="#FBFBFB"/>
<path d="M34.6681 20.7845C34.6696 20.8999 34.6615 21.0153 34.6438 21.1295L29.2636 39.743H23.2561L28.6363 21.0922C28.625 20.9906 28.6194 20.8885 28.6195 20.7863C28.6195 19.985 28.9382 19.2165 29.5053 18.6498C30.0725 18.0832 30.8417 17.7649 31.6438 17.7649C32.4459 17.7649 33.2151 18.0832 33.7823 18.6498C34.3495 19.2165 34.6681 19.985 34.6681 20.7863V20.7845Z" fill="url(#paint0_linear_4691_67)"/>
<path d="M28.5954 20.7845C28.5942 20.8999 28.6017 21.0152 28.6178 21.1295L33.9924 39.743H39.9999L34.6178 21.0922C34.6307 20.9907 34.6369 20.8886 34.6365 20.7863C34.6365 19.985 34.3178 19.2165 33.7507 18.6498C33.1835 18.0832 32.4143 17.7649 31.6122 17.7649C30.8101 17.7649 30.0408 18.0832 29.4737 18.6498C28.9065 19.2165 28.5879 19.985 28.5879 20.7863L28.5954 20.7845Z" fill="url(#paint1_linear_4691_67)"/>
<path d="M23.99 20.7845C23.9911 20.8999 23.9836 21.0152 23.9676 21.1295L18.5873 39.743H12.5798L17.9601 21.0922C17.9481 20.9907 17.9419 20.8885 17.9414 20.7863C17.9414 19.985 18.26 19.2165 18.8272 18.6498C19.3944 18.0832 20.1636 17.7649 20.9657 17.7649C21.7678 17.7649 22.537 18.0832 23.1042 18.6498C23.6713 19.2165 23.99 19.985 23.99 20.7863V20.7845Z" fill="url(#paint2_linear_4691_67)"/>
<path d="M17.9168 20.7845C17.9153 20.8999 17.9235 21.0153 17.9411 21.1295L23.3213 39.743H29.3251L23.9448 21.0922C23.9562 20.9906 23.9618 20.8885 23.9616 20.7863C23.9616 20.3895 23.8834 19.9966 23.7314 19.6301C23.5795 19.2635 23.3567 18.9304 23.0759 18.6498C22.795 18.3693 22.4616 18.1467 22.0947 17.9949C21.7278 17.843 21.3345 17.7649 20.9374 17.7649C20.5402 17.7649 20.1469 17.843 19.78 17.9949C19.4131 18.1467 19.0797 18.3693 18.7989 18.6498C18.518 18.9304 18.2953 19.2635 18.1433 19.6301C17.9913 19.9966 17.9131 20.3895 17.9131 20.7863L17.9168 20.7845Z" fill="url(#paint3_linear_4691_67)"/>
<path d="M20.4597 16.3919C21.4959 16.3919 22.3358 15.5527 22.3358 14.5175C22.3358 13.4823 21.4959 12.6431 20.4597 12.6431C19.4235 12.6431 18.5835 13.4823 18.5835 14.5175C18.5835 15.5527 19.4235 16.3919 20.4597 16.3919Z" fill="url(#paint4_linear_4691_67)"/>
<path d="M31.823 16.3919C32.8591 16.3919 33.6991 15.5527 33.6991 14.5175C33.6991 13.4823 32.8591 12.6431 31.823 12.6431C30.7868 12.6431 29.9468 13.4823 29.9468 14.5175C29.9468 15.5527 30.7868 16.3919 31.823 16.3919Z" fill="url(#paint5_linear_4691_67)"/>
<defs>
<linearGradient id="paint0_linear_4691_67" x1="35.0639" y1="19.2663" x2="23.2523" y2="39.7414" gradientUnits="userSpaceOnUse">
<stop offset="0.06" stop-color="#6A2363"/>
<stop offset="0.18" stop-color="#762662"/>
<stop offset="0.38" stop-color="#942E60"/>
<stop offset="0.5" stop-color="#A9335F"/>
<stop offset="0.79" stop-color="#872B61"/>
<stop offset="0.93" stop-color="#752662"/>
</linearGradient>
<linearGradient id="paint1_linear_4691_67" x1="28.1996" y1="19.2663" x2="40.0111" y2="39.7414" gradientUnits="userSpaceOnUse">
<stop stop-color="#CD3C5D"/>
<stop offset="0.92" stop-color="#C1395E"/>
</linearGradient>
<linearGradient id="paint2_linear_4691_67" x1="24.3857" y1="19.2663" x2="12.5761" y2="39.7414" gradientUnits="userSpaceOnUse">
<stop offset="0.13" stop-color="#8B2B61"/>
<stop offset="0.53" stop-color="#B9375E"/>
<stop offset="0.69" stop-color="#CD3C5D"/>
</linearGradient>
<linearGradient id="paint3_linear_4691_67" x1="17.5229" y1="19.2663" x2="29.3326" y2="39.7414" gradientUnits="userSpaceOnUse">
<stop stop-color="#CD3C5D"/>
<stop offset="0.92" stop-color="#C1395E"/>
</linearGradient>
<linearGradient id="paint4_linear_4691_67" x1="18.5835" y1="14.5175" x2="22.3358" y2="14.5175" gradientUnits="userSpaceOnUse">
<stop offset="0.06" stop-color="#E43477"/>
<stop offset="0.57" stop-color="#CD3C5D"/>
<stop offset="1" stop-color="#8B2B61"/>
</linearGradient>
<linearGradient id="paint5_linear_4691_67" x1="29.9468" y1="14.5175" x2="33.6991" y2="14.5175" gradientUnits="userSpaceOnUse">
<stop offset="0.06" stop-color="#E43477"/>
<stop offset="0.57" stop-color="#CD3C5D"/>
<stop offset="1" stop-color="#8B2B61"/>
</linearGradient>
</defs>
</svg>
