<svg width="123" height="21" viewBox="0 0 123 21" fill="none" xmlns="http://www.w3.org/2000/svg">
<path d="M17.6278 7.244L15.5978 12.662L13.5958 7.244H11.3978L14.5058 14.804L12.8258 18.668H14.9118L19.7138 7.244H17.6278ZM23.6303 10.1C23.6303 13.026 25.7723 15.084 28.5863 15.084C30.7563 15.084 32.5203 13.936 33.1783 11.92H30.9243C30.4623 12.872 29.6223 13.334 28.5723 13.334C26.8643 13.334 25.6463 12.074 25.6463 10.1C25.6463 8.112 26.8643 6.866 28.5723 6.866C29.6223 6.866 30.4623 7.328 30.9243 8.266H33.1783C32.5203 6.264 30.7563 5.102 28.5863 5.102C25.7723 5.102 23.6303 7.174 23.6303 10.1ZM38.2964 15.126C40.5504 15.126 42.3424 13.558 42.3424 11.122C42.3424 8.672 40.5924 7.118 38.3524 7.118C36.1124 7.118 34.3624 8.672 34.3624 11.122C34.3624 13.558 36.0564 15.126 38.2964 15.126ZM38.2964 13.418C37.2464 13.418 36.3504 12.662 36.3504 11.122C36.3504 9.568 37.2884 8.826 38.3244 8.826C39.3604 8.826 40.3264 9.568 40.3264 11.122C40.3264 12.662 39.3324 13.418 38.2964 13.418ZM49.2121 10.716V15H51.1721V10.45C51.1721 8.308 49.8841 7.132 48.0781 7.132C47.0841 7.132 46.2441 7.552 45.7401 8.21V7.244H43.7801V15H45.7401V10.716C45.7401 9.47 46.4261 8.798 47.4901 8.798C48.5261 8.798 49.2121 9.47 49.2121 10.716ZM56.0039 15.126C57.8939 15.126 59.0559 14.118 59.0559 12.788C58.9999 9.946 54.7019 10.828 54.7019 9.414C54.7019 8.966 55.0799 8.672 55.8079 8.672C56.5779 8.672 57.0539 9.078 57.1099 9.68H58.9859C58.8739 8.14 57.7399 7.118 55.8639 7.118C53.9459 7.118 52.7979 8.154 52.7979 9.442C52.7979 12.284 57.1799 11.402 57.1799 12.788C57.1799 13.236 56.7599 13.586 55.9899 13.586C55.2059 13.586 54.6599 13.138 54.5899 12.55H52.6159C52.6999 13.992 54.0579 15.126 56.0039 15.126ZM67.9869 15V7.244H66.0129V11.514C66.0129 12.76 65.3409 13.432 64.2769 13.432C63.2409 13.432 62.5549 12.76 62.5549 11.514V7.244H60.5949V11.794C60.5949 13.922 61.8969 15.098 63.7029 15.098C64.6689 15.098 65.5229 14.678 66.0129 14.02V15H67.9869ZM69.9207 4.64V15H71.8807V4.64H69.9207ZM74.1252 5.326V7.244H73.2012V8.854H74.1252V12.592C74.1252 14.37 75.1192 15 76.6032 15H77.8352V13.348H76.9252C76.3092 13.348 76.0992 13.124 76.0992 12.606V8.854H77.8352V7.244H76.0992V5.326H74.1252ZM78.7409 11.094C78.7409 13.516 80.3089 15.126 82.2689 15.126C83.5009 15.126 84.3829 14.538 84.8449 13.866V15H86.8189V7.244H84.8449V8.35C84.3829 7.706 83.5289 7.118 82.2829 7.118C80.3089 7.118 78.7409 8.672 78.7409 11.094ZM84.8449 11.122C84.8449 12.592 83.8649 13.404 82.7869 13.404C81.7369 13.404 80.7429 12.564 80.7429 11.094C80.7429 9.624 81.7369 8.84 82.7869 8.84C83.8649 8.84 84.8449 9.652 84.8449 11.122ZM89.0412 5.326V7.244H88.1172V8.854H89.0412V12.592C89.0412 14.37 90.0352 15 91.5192 15H92.7512V13.348H91.8412C91.2252 13.348 91.0152 13.124 91.0152 12.606V8.854H92.7512V7.244H91.0152V5.326H89.0412ZM94.1609 7.244V15H96.1209V7.244H94.1609ZM95.1549 6.32C95.8409 6.32 96.3589 5.816 96.3589 5.172C96.3589 4.528 95.8409 4.024 95.1549 4.024C94.4549 4.024 93.9509 4.528 93.9509 5.172C93.9509 5.816 94.4549 6.32 95.1549 6.32ZM101.501 15.126C103.755 15.126 105.547 13.558 105.547 11.122C105.547 8.672 103.797 7.118 101.557 7.118C99.3174 7.118 97.5674 8.672 97.5674 11.122C97.5674 13.558 99.2614 15.126 101.501 15.126ZM101.501 13.418C100.451 13.418 99.5554 12.662 99.5554 11.122C99.5554 9.568 100.493 8.826 101.529 8.826C102.565 8.826 103.531 9.568 103.531 11.122C103.531 12.662 102.537 13.418 101.501 13.418ZM112.417 10.716V15H114.377V10.45C114.377 8.308 113.089 7.132 111.283 7.132C110.289 7.132 109.449 7.552 108.945 8.21V7.244H106.985V15H108.945V10.716C108.945 9.47 109.631 8.798 110.695 8.798C111.731 8.798 112.417 9.47 112.417 10.716ZM119.209 15.126C121.099 15.126 122.261 14.118 122.261 12.788C122.205 9.946 117.907 10.828 117.907 9.414C117.907 8.966 118.285 8.672 119.013 8.672C119.783 8.672 120.259 9.078 120.315 9.68H122.191C122.079 8.14 120.945 7.118 119.069 7.118C117.151 7.118 116.003 8.154 116.003 9.442C116.003 12.284 120.385 11.402 120.385 12.788C120.385 13.236 119.965 13.586 119.195 13.586C118.411 13.586 117.865 13.138 117.795 12.55H115.821C115.905 13.992 117.263 15.126 119.209 15.126Z" fill="#C63A5E"/>
<path d="M9.5616 8.06271C9.56224 8.1127 9.55872 8.16266 9.5511 8.21207L7.22212 16.2694H4.62161L6.95059 8.19592C6.94569 8.15196 6.94326 8.10776 6.94332 8.06352C6.94332 7.71664 7.08125 7.38397 7.32676 7.13869C7.57227 6.89341 7.90526 6.75562 8.25246 6.75562C8.59967 6.75562 8.93265 6.89341 9.17816 7.13869C9.42367 7.38397 9.5616 7.71664 9.5616 8.06352V8.06271Z" fill="url(#paint0_linear_1594_337)"/>
<path d="M6.93286 8.06271C6.93236 8.11267 6.9356 8.1626 6.94256 8.21207L9.26911 16.2694H11.8696L9.53983 8.19592C9.54541 8.15201 9.54811 8.10778 9.54791 8.06352C9.54791 7.71664 9.40998 7.38397 9.16447 7.13869C8.91896 6.89341 8.58598 6.75562 8.23877 6.75562C7.89156 6.75562 7.55858 6.89341 7.31307 7.13869C7.06755 7.38397 6.92963 7.71664 6.92963 8.06352L6.93286 8.06271Z" fill="url(#paint1_linear_1594_337)"/>
<path d="M4.93921 8.06271C4.93971 8.11267 4.93647 8.1626 4.92951 8.21207L2.60053 16.2694H3.05176e-05L2.32901 8.19592C2.32383 8.15198 2.32113 8.10777 2.32093 8.06352C2.32093 7.71664 2.45886 7.38397 2.70437 7.13869C2.94988 6.89341 3.28286 6.75562 3.63007 6.75562C3.97728 6.75562 4.31026 6.89341 4.55577 7.13869C4.80129 7.38397 4.93921 7.71664 4.93921 8.06352V8.06271Z" fill="url(#paint2_linear_1594_337)"/>
<path d="M2.31033 8.06271C2.3097 8.1127 2.31321 8.16266 2.32084 8.21207L4.64982 16.2694H7.24871L4.91973 8.19592C4.92463 8.15196 4.92706 8.10776 4.927 8.06352C4.927 7.89176 4.89314 7.72169 4.82735 7.56301C4.76156 7.40432 4.66512 7.26014 4.54356 7.13869C4.42199 7.01724 4.27768 6.9209 4.11884 6.85517C3.96001 6.78945 3.78978 6.75562 3.61786 6.75562C3.44594 6.75562 3.2757 6.78945 3.11687 6.85517C2.95804 6.9209 2.81372 7.01724 2.69215 7.13869C2.57059 7.26014 2.47416 7.40432 2.40837 7.56301C2.34258 7.72169 2.30872 7.89176 2.30872 8.06352L2.31033 8.06271Z" fill="url(#paint3_linear_1594_337)"/>
<path d="M3.41094 6.16122C3.85948 6.16122 4.22309 5.79795 4.22309 5.34984C4.22309 4.90172 3.85948 4.53845 3.41094 4.53845C2.9624 4.53845 2.59879 4.90172 2.59879 5.34984C2.59879 5.79795 2.9624 6.16122 3.41094 6.16122Z" fill="url(#paint4_linear_1594_337)"/>
<path d="M8.32988 6.16122C8.77842 6.16122 9.14204 5.79795 9.14204 5.34984C9.14204 4.90172 8.77842 4.53845 8.32988 4.53845C7.88134 4.53845 7.51773 4.90172 7.51773 5.34984C7.51773 5.79795 7.88134 6.16122 8.32988 6.16122Z" fill="url(#paint5_linear_1594_337)"/>
<defs>
<linearGradient id="paint0_linear_1594_337" x1="9.73292" y1="7.40553" x2="4.61998" y2="16.2688" gradientUnits="userSpaceOnUse">
<stop offset="0.06" stop-color="#6A2363"/>
<stop offset="0.18" stop-color="#762662"/>
<stop offset="0.38" stop-color="#942E60"/>
<stop offset="0.5" stop-color="#A9335F"/>
<stop offset="0.79" stop-color="#872B61"/>
<stop offset="0.93" stop-color="#752662"/>
</linearGradient>
<linearGradient id="paint1_linear_1594_337" x1="6.76154" y1="7.40553" x2="11.8745" y2="16.2688" gradientUnits="userSpaceOnUse">
<stop stop-color="#CD3C5D"/>
<stop offset="0.92" stop-color="#C1395E"/>
</linearGradient>
<linearGradient id="paint2_linear_1594_337" x1="5.11053" y1="7.40553" x2="-0.00160062" y2="16.2688" gradientUnits="userSpaceOnUse">
<stop offset="0.13" stop-color="#8B2B61"/>
<stop offset="0.53" stop-color="#B9375E"/>
<stop offset="0.69" stop-color="#CD3C5D"/>
</linearGradient>
<linearGradient id="paint3_linear_1594_337" x1="2.13982" y1="7.40553" x2="7.25195" y2="16.2688" gradientUnits="userSpaceOnUse">
<stop stop-color="#CD3C5D"/>
<stop offset="0.92" stop-color="#C1395E"/>
</linearGradient>
<linearGradient id="paint4_linear_1594_337" x1="2.59879" y1="5.34984" x2="4.22309" y2="5.34984" gradientUnits="userSpaceOnUse">
<stop offset="0.06" stop-color="#E43477"/>
<stop offset="0.57" stop-color="#CD3C5D"/>
<stop offset="1" stop-color="#8B2B61"/>
</linearGradient>
<linearGradient id="paint5_linear_1594_337" x1="7.51773" y1="5.34984" x2="9.14204" y2="5.34984" gradientUnits="userSpaceOnUse">
<stop offset="0.06" stop-color="#E43477"/>
<stop offset="0.57" stop-color="#CD3C5D"/>
<stop offset="1" stop-color="#8B2B61"/>
</linearGradient>
</defs>
</svg>
