<svg width="93" height="21" viewBox="0 0 93 21" fill="none" xmlns="http://www.w3.org/2000/svg">
<path d="M17.3504 7.244L15.3204 12.662L13.3184 7.244H11.1204L14.2284 14.804L12.5484 18.668H14.6344L19.4364 7.244H17.3504ZM27.3429 9.666H25.7889V6.824H27.3429C28.4489 6.824 28.9389 7.356 28.9389 8.252C28.9389 9.12 28.4489 9.666 27.3429 9.666ZM30.9549 8.252C30.9549 6.558 29.7789 5.228 27.4269 5.228H23.8289V15H25.7889V11.248H27.4269C29.9469 11.248 30.9549 9.736 30.9549 8.252ZM34.3065 11.136C34.3065 9.638 35.0065 9.19 36.1685 9.19H36.6865V7.132C35.6085 7.132 34.7965 7.65 34.3065 8.448V7.244H32.3465V15H34.3065V11.136ZM41.4506 15.126C43.7046 15.126 45.4966 13.558 45.4966 11.122C45.4966 8.672 43.7466 7.118 41.5066 7.118C39.2666 7.118 37.5166 8.672 37.5166 11.122C37.5166 13.558 39.2106 15.126 41.4506 15.126ZM41.4506 13.418C40.4006 13.418 39.5046 12.662 39.5046 11.122C39.5046 9.568 40.4426 8.826 41.4786 8.826C42.5146 8.826 43.4806 9.568 43.4806 11.122C43.4806 12.662 42.4866 13.418 41.4506 13.418ZM49.9724 7.118C47.9984 7.118 46.4304 8.672 46.4304 11.094C46.4304 13.516 47.9984 15.126 49.9724 15.126C51.1904 15.126 52.0724 14.524 52.5344 13.852V15.056C52.5344 16.498 51.6944 17.114 50.6164 17.114C49.6364 17.114 48.9084 16.652 48.7124 15.952H46.7664C46.9624 17.73 48.4884 18.822 50.6724 18.822C53.2204 18.822 54.5084 17.156 54.5084 15.056V7.244H52.5344V8.35C52.0724 7.678 51.1904 7.118 49.9724 7.118ZM52.5344 11.122C52.5344 12.592 51.5544 13.404 50.4764 13.404C49.4264 13.404 48.4324 12.564 48.4324 11.094C48.4324 9.624 49.4264 8.84 50.4764 8.84C51.5544 8.84 52.5344 9.652 52.5344 11.122ZM58.3827 11.136C58.3827 9.638 59.0827 9.19 60.2447 9.19H60.7627V7.132C59.6847 7.132 58.8727 7.65 58.3827 8.448V7.244H56.4227V15H58.3827V11.136ZM61.5788 11.094C61.5788 13.516 63.1468 15.126 65.1068 15.126C66.3388 15.126 67.2208 14.538 67.6828 13.866V15H69.6568V7.244H67.6828V8.35C67.2208 7.706 66.3668 7.118 65.1208 7.118C63.1468 7.118 61.5788 8.672 61.5788 11.094ZM67.6828 11.122C67.6828 12.592 66.7028 13.404 65.6248 13.404C64.5748 13.404 63.5808 12.564 63.5808 11.094C63.5808 9.624 64.5748 8.84 65.6248 8.84C66.7028 8.84 67.6828 9.652 67.6828 11.122ZM82.4211 10.716V15H84.3811V10.45C84.3811 8.308 83.0651 7.132 81.2031 7.132C80.0691 7.132 79.0471 7.734 78.5431 8.616C78.0111 7.65 77.0171 7.132 75.8131 7.132C74.8471 7.132 74.0211 7.538 73.5311 8.182V7.244H71.5711V15H73.5311V10.716C73.5311 9.484 74.2171 8.84 75.2811 8.84C76.3171 8.84 77.0031 9.484 77.0031 10.716V15H78.9631V10.716C78.9631 9.484 79.6491 8.84 80.6991 8.84C81.7351 8.84 82.4211 9.484 82.4211 10.716ZM89.209 15.126C91.099 15.126 92.261 14.118 92.261 12.788C92.205 9.946 87.907 10.828 87.907 9.414C87.907 8.966 88.285 8.672 89.013 8.672C89.783 8.672 90.259 9.078 90.315 9.68H92.191C92.079 8.14 90.945 7.118 89.069 7.118C87.151 7.118 86.003 8.154 86.003 9.442C86.003 12.284 90.385 11.402 90.385 12.788C90.385 13.236 89.965 13.586 89.195 13.586C88.411 13.586 87.865 13.138 87.795 12.55H85.821C85.905 13.992 87.263 15.126 89.209 15.126Z" fill="#C63A5E"/>
<path d="M9.56163 8.06271C9.56227 8.1127 9.55876 8.16266 9.55113 8.21207L7.22215 16.2694H4.62164L6.95062 8.19592C6.94572 8.15196 6.94329 8.10776 6.94335 8.06352C6.94335 7.71664 7.08128 7.38397 7.32679 7.13869C7.5723 6.89341 7.90529 6.75562 8.25249 6.75562C8.5997 6.75562 8.93268 6.89341 9.17819 7.13869C9.42371 7.38397 9.56163 7.71664 9.56163 8.06352V8.06271Z" fill="url(#paint0_linear_1594_338)"/>
<path d="M6.93286 8.06271C6.93236 8.11267 6.9356 8.1626 6.94256 8.21207L9.26911 16.2694H11.8696L9.53983 8.19592C9.54541 8.15201 9.54811 8.10778 9.54791 8.06352C9.54791 7.71664 9.40998 7.38397 9.16447 7.13869C8.91896 6.89341 8.58598 6.75562 8.23877 6.75562C7.89156 6.75562 7.55858 6.89341 7.31307 7.13869C7.06755 7.38397 6.92963 7.71664 6.92963 8.06352L6.93286 8.06271Z" fill="url(#paint1_linear_1594_338)"/>
<path d="M4.93918 8.06271C4.93968 8.11267 4.93644 8.1626 4.92948 8.21207L2.6005 16.2694H0L2.32898 8.19592C2.3238 8.15198 2.3211 8.10777 2.3209 8.06352C2.3209 7.71664 2.45883 7.38397 2.70434 7.13869C2.94985 6.89341 3.28283 6.75562 3.63004 6.75562C3.97725 6.75562 4.31023 6.89341 4.55574 7.13869C4.80125 7.38397 4.93918 7.71664 4.93918 8.06352V8.06271Z" fill="url(#paint2_linear_1594_338)"/>
<path d="M2.31033 8.06271C2.3097 8.1127 2.31321 8.16266 2.32084 8.21207L4.64982 16.2694H7.24871L4.91973 8.19592C4.92463 8.15196 4.92706 8.10776 4.927 8.06352C4.927 7.89176 4.89314 7.72169 4.82735 7.56301C4.76156 7.40432 4.66512 7.26014 4.54356 7.13869C4.42199 7.01724 4.27768 6.9209 4.11884 6.85517C3.96001 6.78945 3.78978 6.75562 3.61786 6.75562C3.44594 6.75562 3.2757 6.78945 3.11687 6.85517C2.95804 6.9209 2.81372 7.01724 2.69215 7.13869C2.57059 7.26014 2.47416 7.40432 2.40837 7.56301C2.34258 7.72169 2.30872 7.89176 2.30872 8.06352L2.31033 8.06271Z" fill="url(#paint3_linear_1594_338)"/>
<path d="M3.41091 6.16122C3.85945 6.16122 4.22306 5.79795 4.22306 5.34984C4.22306 4.90172 3.85945 4.53845 3.41091 4.53845C2.96237 4.53845 2.59875 4.90172 2.59875 5.34984C2.59875 5.79795 2.96237 6.16122 3.41091 6.16122Z" fill="url(#paint4_linear_1594_338)"/>
<path d="M8.32991 6.16122C8.77845 6.16122 9.14207 5.79795 9.14207 5.34984C9.14207 4.90172 8.77845 4.53845 8.32991 4.53845C7.88137 4.53845 7.51776 4.90172 7.51776 5.34984C7.51776 5.79795 7.88137 6.16122 8.32991 6.16122Z" fill="url(#paint5_linear_1594_338)"/>
<defs>
<linearGradient id="paint0_linear_1594_338" x1="9.73295" y1="7.40553" x2="4.62001" y2="16.2688" gradientUnits="userSpaceOnUse">
<stop offset="0.06" stop-color="#6A2363"/>
<stop offset="0.18" stop-color="#762662"/>
<stop offset="0.38" stop-color="#942E60"/>
<stop offset="0.5" stop-color="#A9335F"/>
<stop offset="0.79" stop-color="#872B61"/>
<stop offset="0.93" stop-color="#752662"/>
</linearGradient>
<linearGradient id="paint1_linear_1594_338" x1="6.76154" y1="7.40553" x2="11.8745" y2="16.2688" gradientUnits="userSpaceOnUse">
<stop stop-color="#CD3C5D"/>
<stop offset="0.92" stop-color="#C1395E"/>
</linearGradient>
<linearGradient id="paint2_linear_1594_338" x1="5.1105" y1="7.40553" x2="-0.00163113" y2="16.2688" gradientUnits="userSpaceOnUse">
<stop offset="0.13" stop-color="#8B2B61"/>
<stop offset="0.53" stop-color="#B9375E"/>
<stop offset="0.69" stop-color="#CD3C5D"/>
</linearGradient>
<linearGradient id="paint3_linear_1594_338" x1="2.13982" y1="7.40553" x2="7.25195" y2="16.2688" gradientUnits="userSpaceOnUse">
<stop stop-color="#CD3C5D"/>
<stop offset="0.92" stop-color="#C1395E"/>
</linearGradient>
<linearGradient id="paint4_linear_1594_338" x1="2.59875" y1="5.34984" x2="4.22306" y2="5.34984" gradientUnits="userSpaceOnUse">
<stop offset="0.06" stop-color="#E43477"/>
<stop offset="0.57" stop-color="#CD3C5D"/>
<stop offset="1" stop-color="#8B2B61"/>
</linearGradient>
<linearGradient id="paint5_linear_1594_338" x1="7.51776" y1="5.34984" x2="9.14207" y2="5.34984" gradientUnits="userSpaceOnUse">
<stop offset="0.06" stop-color="#E43477"/>
<stop offset="0.57" stop-color="#CD3C5D"/>
<stop offset="1" stop-color="#8B2B61"/>
</linearGradient>
</defs>
</svg>
