<svg width="17" height="13" viewBox="0 0 17 13" fill="none" xmlns="http://www.w3.org/2000/svg">
<path d="M9.74097 0.271086L9.74097 4.55422C9.74097 6.36145 9.93976 7.93374 10.3374 9.27109C10.7349 10.6084 11.3494 11.8374 12.1807 12.9578L16.1386 12.9578C15.2349 11.8012 14.5301 10.6084 14.0241 9.37952C13.5181 8.18675 13.2651 7.06627 13.2651 6.01808L16.0843 6.01808L16.0843 0.271086L9.74097 0.271086ZM0.307233 0.271085L0.307232 4.55422C0.307232 6.3253 0.487955 7.87952 0.849401 9.21687C1.24699 10.5904 1.86145 11.8373 2.69277 12.9578L6.70482 12.9578C5.80121 11.8012 5.09639 10.6084 4.59036 9.37952C4.08434 8.18675 3.83133 7.06627 3.83133 6.01807L6.65061 6.01807L6.65061 0.271085L0.307233 0.271085Z" fill="#FF5D84"/>
</svg>
