<svg width="505" height="377" viewBox="0 0 505 377" fill="none" xmlns="http://www.w3.org/2000/svg">
<rect width="505" height="377" rx="10" fill="#C73B5D"/>
<path opacity="0.15" d="M0 9.99999C0 4.47714 4.47715 0 10 0H495C500.523 0 505 4.47715 505 10V283H0V9.99999Z" fill="url(#paint0_linear_2191_714)"/>
<path d="M0 283H505V367C505 372.523 500.523 377 495 377H10C4.47715 377 0 372.523 0 367V283Z" fill="white"/>
<path d="M252.358 54.9369C243.586 53.9778 234.971 56.517 227.12 60.417C219.987 64.0466 213.321 68.5942 207.276 73.9529C195.934 83.9267 186.433 96.8598 182.064 111.784C179.948 119.14 179.246 126.859 179.999 134.497C180.751 142.136 182.944 149.545 186.45 156.301C193.767 170.768 205.75 182.322 219.137 190.57C233.903 199.629 250.517 204.924 267.623 206.024C283.22 207.001 299.897 204.398 312.985 194.972C324.925 186.369 331.934 172.595 333.811 157.771C335.741 142.454 332.329 127.064 325.039 113.711C317.275 99.536 305.739 87.9455 293.028 78.5836C279.185 68.3906 263.087 59.4032 245.884 58.1245C241.745 57.8161 237.585 58.0123 233.489 58.709C232.848 58.8186 233.12 59.8233 233.752 59.7137C251.297 56.7636 268.552 63.9151 283.29 73.1948C296.335 81.415 308.529 91.608 317.819 104.249C326.811 116.515 332.776 131.065 333.329 146.601C333.837 161.105 329.82 176.121 320.293 186.99C309.722 199.037 293.879 204.161 278.606 205.01C262.056 205.807 245.559 202.53 230.453 195.447C203.539 182.925 177.616 156.036 180.915 122.964C182.441 107.674 190.065 93.6814 200.013 82.5841C205.083 76.9551 210.765 71.959 216.944 67.6964C223.962 62.883 231.567 58.6999 239.752 56.7362C243.884 55.7552 248.144 55.4959 252.358 55.969C252.999 56.0329 252.99 54.9917 252.358 54.9277V54.9369Z" fill="#E9FBFF"/>
<path d="M258.999 209.577C250.034 212.82 240.296 211.404 231.146 209.824C222.374 208.416 213.748 206.153 205.381 203.065C189.591 197.101 175.02 187.09 165.554 172.422C161.2 165.8 158.245 158.291 156.884 150.392C155.523 142.493 155.787 134.384 157.659 126.599C161.379 111.163 170.555 97.3715 182.336 87.3246C209.399 64.3172 248.033 62.7371 281.176 67.0755C290.859 68.3063 300.435 70.3187 309.818 73.0945C317.67 75.4419 325.828 78.2459 332.267 83.6712C339.066 89.3888 342.391 97.746 342.119 106.788C341.829 116.187 337.89 124.863 332.846 132.481C323.416 146.729 311.011 159.27 297.94 169.874C284.772 180.57 270.289 189.386 254.876 196.087C251.174 197.694 247.422 199.171 243.621 200.517C243.016 200.727 243.279 201.741 243.893 201.521C276.58 189.842 305.544 169.014 327.609 141.322C338.066 128.124 348.365 109.857 340.408 92.5033C336.978 85.0595 330.276 80.1548 323.214 76.8758C314.74 72.9393 305.511 70.5371 296.44 68.6556C277.875 64.6254 258.858 63.3249 239.945 64.7921C222.663 66.2626 205.381 70.7472 190.433 80.1548C164.186 96.6682 146.465 131.558 159.308 162.713C165.791 178.45 178.45 190.707 192.872 198.526C200.976 202.818 209.547 206.081 218.4 208.244C227.409 210.527 236.91 212.409 246.2 212.564C250.631 212.719 255.054 212.054 259.262 210.6C259.868 210.381 259.613 209.376 258.999 209.595V209.577Z" fill="#E9FBFF"/>
<path d="M185.347 115.254C187.306 113.213 187.306 109.906 185.347 107.865C183.387 105.825 180.21 105.825 178.25 107.865C176.291 109.906 176.291 113.213 178.25 115.254C180.21 117.294 183.387 117.294 185.347 115.254Z" fill="#E9FBFF"/>
<path d="M192.828 54.8181C192.828 55.4373 192.652 56.0426 192.322 56.5576C191.992 57.0726 191.522 57.4742 190.973 57.7115C190.423 57.9489 189.819 58.0115 189.235 57.8914C188.652 57.7712 188.116 57.4738 187.695 57.0365C187.274 56.5993 186.986 56.042 186.869 55.4348C186.752 54.8277 186.81 54.1981 187.037 53.6255C187.263 53.0529 187.648 52.563 188.141 52.2177C188.635 51.8723 189.216 51.6871 189.811 51.6853C190.206 51.6841 190.599 51.7642 190.965 51.9211C191.331 52.078 191.664 52.3086 191.944 52.5996C192.224 52.8906 192.447 53.2364 192.598 53.6171C192.75 53.9978 192.828 54.4059 192.828 54.8181V54.8181Z" fill="#E9FBFF"/>
<path d="M176.783 159.589C176.78 160.207 176.6 160.811 176.268 161.324C175.935 161.837 175.464 162.236 174.914 162.47C174.364 162.704 173.759 162.764 173.177 162.641C172.594 162.518 172.06 162.218 171.641 161.779C171.221 161.34 170.937 160.782 170.822 160.175C170.707 159.568 170.768 158.939 170.996 158.367C171.224 157.796 171.61 157.308 172.104 156.964C172.599 156.621 173.18 156.438 173.774 156.438C174.171 156.438 174.564 156.519 174.93 156.678C175.296 156.836 175.629 157.069 175.908 157.362C176.188 157.654 176.409 158.002 176.559 158.384C176.709 158.766 176.786 159.176 176.783 159.589V159.589Z" fill="#E9FBFF"/>
<path d="M303.493 108.944C303.493 109.46 303.346 109.965 303.071 110.395C302.795 110.825 302.403 111.159 301.945 111.357C301.486 111.555 300.982 111.607 300.495 111.506C300.008 111.405 299.561 111.156 299.21 110.791C298.86 110.426 298.621 109.96 298.524 109.453C298.427 108.947 298.477 108.421 298.667 107.944C298.856 107.467 299.178 107.059 299.591 106.772C300.003 106.485 300.488 106.332 300.985 106.332C301.314 106.332 301.64 106.399 301.945 106.53C302.249 106.662 302.526 106.854 302.759 107.097C302.992 107.339 303.176 107.627 303.302 107.944C303.429 108.261 303.493 108.601 303.493 108.944V108.944Z" fill="#E9FBFF"/>
<path d="M216.9 107.555C216.9 107.798 216.83 108.035 216.701 108.236C216.571 108.438 216.387 108.595 216.172 108.687C215.957 108.779 215.72 108.803 215.492 108.755C215.263 108.707 215.054 108.59 214.89 108.418C214.726 108.246 214.614 108.027 214.57 107.789C214.526 107.551 214.55 107.304 214.641 107.081C214.731 106.857 214.883 106.667 215.077 106.533C215.272 106.4 215.5 106.33 215.733 106.332C216.043 106.334 216.34 106.464 216.558 106.693C216.777 106.923 216.9 107.232 216.9 107.555Z" fill="#E9FBFF"/>
<path d="M292.791 38.9809C292.791 39.3606 292.683 39.7318 292.48 40.0474C292.277 40.363 291.989 40.6089 291.652 40.7538C291.315 40.8987 290.944 40.9361 290.586 40.8614C290.229 40.7866 289.9 40.603 289.643 40.3339C289.386 40.0647 289.211 39.7221 289.141 39.3494C289.071 38.9768 289.109 38.5908 289.249 38.2405C289.39 37.8902 289.628 37.5913 289.932 37.3816C290.236 37.172 290.593 37.061 290.958 37.0628C291.199 37.0628 291.438 37.1125 291.661 37.209C291.884 37.3055 292.087 37.4469 292.257 37.6252C292.428 37.8034 292.562 38.0149 292.654 38.2476C292.746 38.4802 292.792 38.7294 292.791 38.9809Z" fill="#E9FBFF"/>
<path d="M292.791 194.224C292.793 194.604 292.686 194.976 292.484 195.293C292.283 195.609 291.995 195.857 291.658 196.003C291.321 196.149 290.95 196.188 290.592 196.114C290.233 196.041 289.904 195.858 289.646 195.589C289.388 195.32 289.212 194.978 289.142 194.605C289.071 194.232 289.108 193.845 289.249 193.494C289.389 193.144 289.627 192.844 289.931 192.634C290.235 192.424 290.593 192.313 290.958 192.315C291.444 192.315 291.91 192.516 292.254 192.874C292.598 193.232 292.791 193.717 292.791 194.224V194.224Z" fill="#E9FBFF"/>
<path d="M364.006 151.935C364.006 152.84 363.748 153.725 363.264 154.477C362.78 155.229 362.092 155.814 361.288 156.158C360.484 156.502 359.6 156.59 358.748 156.41C357.896 156.23 357.115 155.791 356.503 155.148C355.891 154.504 355.477 153.686 355.313 152.797C355.149 151.909 355.242 150.989 355.58 150.155C355.919 149.322 356.488 148.612 357.215 148.115C357.942 147.619 358.795 147.359 359.664 147.368C360.82 147.38 361.924 147.867 362.737 148.722C363.55 149.577 364.006 150.732 364.006 151.935V151.935Z" fill="#E9FBFF"/>
<path d="M148.027 193.009C150.614 193.009 152.711 190.825 152.711 188.131C152.711 185.438 150.614 183.254 148.027 183.254C145.44 183.254 143.342 185.438 143.342 188.131C143.342 190.825 145.44 193.009 148.027 193.009Z" fill="#E9FBFF"/>
<path d="M143.684 80.401C143.684 80.7804 143.576 81.1512 143.374 81.4666C143.172 81.7821 142.884 82.0279 142.547 82.1731C142.211 82.3182 141.84 82.3562 141.483 82.2822C141.125 82.2082 140.797 82.0255 140.54 81.7573C140.282 81.489 140.106 81.1473 140.035 80.7752C139.964 80.4032 140.001 80.0175 140.14 79.667C140.28 79.3166 140.516 79.017 140.819 78.8062C141.122 78.5955 141.478 78.483 141.842 78.483C142.084 78.4818 142.325 78.5306 142.549 78.6265C142.773 78.7225 142.976 78.8637 143.147 79.0421C143.319 79.2204 143.454 79.4323 143.547 79.6656C143.639 79.8989 143.686 80.1488 143.684 80.401V80.401Z" fill="#E9FBFF"/>
<path d="M255.683 23.143C258.639 23.143 261.035 20.6486 261.035 17.5716C261.035 14.4945 258.639 12.0001 255.683 12.0001C252.728 12.0001 250.332 14.4945 250.332 17.5716C250.332 20.6486 252.728 23.143 255.683 23.143Z" fill="#E9FBFF"/>
<path d="M283.773 256.359C285.803 256.359 287.449 254.646 287.449 252.532C287.449 250.418 285.803 248.705 283.773 248.705C281.743 248.705 280.097 250.418 280.097 252.532C280.097 254.646 281.743 256.359 283.773 256.359Z" fill="#E9FBFF"/>
<path d="M334.25 96.2299C336.648 96.2299 338.592 94.2057 338.592 91.7088C338.592 89.2119 336.648 87.1877 334.25 87.1877C331.852 87.1877 329.907 89.2119 329.907 91.7088C329.907 94.2057 331.852 96.2299 334.25 96.2299Z" fill="#E9FBFF"/>
<path d="M211.163 174.97L214.601 172.048C213.066 168.394 209.391 167.791 207.329 167.746L203.82 169.655C204.829 174.97 211.163 174.97 211.163 174.97Z" fill="#1D3542"/>
<path d="M239.735 171.234C239.735 171.234 234.112 167.654 230.366 172.203C230.366 172.203 226.927 169.28 220.997 173.828L218.812 174.806C218.812 174.806 224.743 179.683 231.305 176.112C231.305 176.112 241.603 177.737 241.919 174.806C242.042 174.035 241.887 173.244 241.484 172.585C241.081 171.925 240.458 171.445 239.735 171.234Z" fill="#1D3542"/>
<path d="M257.683 105.08C257.683 105.08 275.799 96.9511 279.229 81.0222C282.659 65.0933 269.579 47.5386 269.579 47.5386C269.579 47.5386 215.251 95.9464 227.111 106.048C233.252 111.245 257.71 108.98 257.71 108.98" fill="#1D3542"/>
<g style="mix-blend-mode:multiply" opacity="0.22">
<path d="M236.138 87.1965C236.138 87.1965 242.077 102.797 252.999 102.148C263.921 101.5 271.623 86.9773 272.299 79.6157C272.974 72.254 234.884 79.0677 236.13 87.1965" fill="#1D3542"/>
</g>
<path d="M236.77 183.418C236.77 183.418 224.9 202.279 224.278 205.202C224.278 205.202 183.994 207.476 174.634 211.705C165.274 215.934 161.826 228.593 169.949 235.114C178.073 241.636 232.085 243.892 247.069 238.366C247.069 238.366 324.504 249.089 337.619 233.489C350.734 217.888 313.889 202.599 282.668 204.261C282.668 204.261 271.737 181.829 265.807 178.906C259.877 175.984 236.77 183.418 236.77 183.418Z" fill="#77CAD9"/>
<g style="mix-blend-mode:multiply" opacity="0.23">
<path d="M193.363 212.682C192.775 213.358 189.617 214.957 192.74 216.254C195.863 217.551 213.04 227.305 217.409 226.008C221.777 224.711 196.486 209.102 193.363 212.682Z" fill="#D25A5C"/>
</g>
<g style="mix-blend-mode:multiply" opacity="0.23">
<path d="M285.747 224.337C286.413 224.382 299.835 220.811 305.774 218.208C311.713 215.605 312.95 213.641 314.547 213.641C316.143 213.641 315.801 210.39 311.424 210.71C307.046 211.029 288.94 219.185 288.94 219.185L285.773 224.812" fill="#D25A5C"/>
</g>
<g style="mix-blend-mode:multiply" opacity="0.23">
<path d="M281.413 216.253C281.413 216.253 267.052 219.505 264.868 219.185C262.683 218.866 269.254 204.882 284.536 203.576C284.536 203.576 269.552 203.256 259.56 214.956C249.569 226.657 241.138 212.034 234.892 208.782C234.892 208.782 244.928 221.953 245.419 223.661C245.419 223.661 260.955 221.578 265.429 222.327C265.429 222.327 276.781 222.437 282.237 216.098L281.413 216.253Z" fill="#D25A5C"/>
</g>
<path d="M227.874 222.61C232.445 224.729 237.445 224.748 242.34 224.3C247.771 223.807 253.166 223.104 258.613 222.839C264.367 222.525 270.134 222.604 275.878 223.076C277.598 223.176 279.307 223.414 280.992 223.789C282.448 224.154 283.896 224.583 285.334 225.022C288.44 225.935 291.589 226.894 294.607 228.109C294.975 228.264 295.142 227.634 294.774 227.488C292.238 226.465 289.607 225.661 287.01 224.866C284.44 223.933 281.799 223.227 279.115 222.757C267.921 221.359 256.604 222.072 245.446 223.323C239.7 223.971 233.629 224.574 228.199 222.053C227.831 221.88 227.515 222.446 227.883 222.61H227.874Z" fill="#AA353B"/>
<path d="M223.54 228.803C231.727 233.774 240.646 237.305 249.937 239.252C250.332 239.325 250.498 238.704 250.104 238.622C240.865 236.694 231.996 233.188 223.856 228.246C223.785 228.202 223.701 228.19 223.621 228.211C223.541 228.233 223.473 228.286 223.431 228.36C223.389 228.434 223.377 228.522 223.398 228.605C223.418 228.688 223.47 228.76 223.54 228.803Z" fill="#AA353B"/>
<path d="M207.531 218.482C202.732 217.24 197.618 216.062 192.811 217.888C192.433 218.034 192.591 218.665 192.977 218.519C197.688 216.692 202.627 217.888 207.364 219.103C207.443 219.126 207.528 219.115 207.6 219.074C207.671 219.032 207.724 218.962 207.746 218.879C207.768 218.797 207.758 218.709 207.717 218.634C207.677 218.56 207.61 218.505 207.531 218.482Z" fill="#AA353B"/>
<g style="mix-blend-mode:multiply" opacity="0.49">
<g style="mix-blend-mode:multiply" opacity="0.49">
<path d="M244.823 223.286L239.559 215.422Z" fill="#D25A5C"/>
</g>
</g>
<mask id="mask0_2191_714" style="mask-type:alpha" maskUnits="userSpaceOnUse" x="165" y="178" width="176" height="64">
<path d="M236.77 183.419C236.77 183.419 224.901 202.279 224.278 205.202C224.278 205.202 183.994 207.476 174.634 211.705C165.274 215.934 161.826 228.593 169.95 235.115C178.073 241.636 232.085 243.892 247.069 238.366C247.069 238.366 324.504 249.089 337.619 233.489C350.734 217.889 313.889 202.599 282.668 204.261C282.668 204.261 271.737 181.829 265.807 178.907C259.877 175.984 236.77 183.419 236.77 183.419Z" fill="#D25A5C"/>
</mask>
<g mask="url(#mask0_2191_714)">
<g style="mix-blend-mode:multiply" opacity="0.23">
<path d="M252.253 239.015C241.64 237.666 231.503 233.647 222.716 227.305C222.716 227.305 231.489 239.992 241.454 241.919C251.42 243.846 252.253 239.015 252.253 239.015Z" fill="#D25A5C"/>
</g>
<path d="M285.317 203.092C283.166 203.24 281.041 203.667 278.992 204.362C276.915 204.992 274.905 205.84 272.991 206.892C272.641 207.093 272.991 207.65 273.307 207.449C275.172 206.425 277.133 205.602 279.159 204.992C281.147 204.309 283.21 203.889 285.299 203.741C285.703 203.741 285.703 203.074 285.299 203.092H285.317Z" fill="#AA353B"/>
<path d="M222.716 205.22C226.018 205.358 229.142 206.817 231.436 209.294C231.708 209.595 232.155 209.139 231.875 208.837C229.464 206.24 226.183 204.712 222.716 204.572C222.313 204.572 222.313 205.202 222.716 205.22Z" fill="#AA353B"/>
</g>
<path d="M279.729 218.144C275.781 220.254 271.702 221.889 267.21 221.944C267.137 221.957 267.07 221.996 267.021 222.056C266.973 222.115 266.947 222.19 266.947 222.268C266.947 222.346 266.973 222.421 267.021 222.48C267.07 222.54 267.137 222.579 267.21 222.592C271.816 222.537 275.983 220.866 280.044 218.71C280.395 218.519 280.044 217.952 279.729 218.144V218.144Z" fill="#AA353B"/>
<path d="M223.242 119.776C223.242 120.424 221.909 125.046 220.611 137.13C219.312 149.213 212.522 165.836 212.61 167.782C212.698 169.727 208.399 171.572 205.022 179.865C201.645 188.159 194.407 194.05 192.609 195.767C190.049 195.09 187.394 194.889 184.766 195.173C180.731 195.694 176.924 194.58 176.248 193.347C176.248 193.347 174.45 195.064 176.081 196.607C177.713 198.151 181.398 196.68 182.415 198.58C183.433 200.48 181.082 203.53 178.854 202.663C178.091 202.391 177.399 201.941 176.83 201.347C176.262 200.754 175.831 200.032 175.573 199.238C175.213 198.324 176.599 194.306 173.748 193.465C173.748 193.465 172.871 198.881 173.265 200.16C173.265 200.16 169.318 195.803 167.221 197.858C167.221 197.858 171.125 201.247 171.485 202.206C171.485 202.206 168.291 200.736 167.441 202.727C168.751 203.571 170.145 204.266 171.599 204.8C172.862 205.065 173.809 205.348 174.485 206.289C174.485 206.289 170.976 205.805 170.8 207.768C170.8 207.768 174.23 207.604 175.818 208.179C177.406 208.755 183.363 209.093 185.468 207.704C187.573 206.316 216.847 189.583 223.339 173.965C223.339 173.965 231.155 146.254 231.182 139.742" fill="#F4A082"/>
<g style="mix-blend-mode:multiply" opacity="0.21">
<path d="M217.408 152.218C217.408 152.218 223.962 166.192 232.392 171.718C240.822 177.244 228.339 142.135 217.408 152.218" fill="#D18161"/>
</g>
<path d="M285.475 121.009C285.475 121.657 286.247 123.575 287.492 135.686C288.738 147.797 295.388 164.457 295.274 166.403C295.16 168.348 299.458 170.22 302.774 178.55C306.09 186.88 313.301 192.817 315.056 194.543C317.622 193.885 320.28 193.706 322.907 194.013C326.942 194.561 330.75 193.474 331.443 192.187C331.443 192.187 333.197 193.913 331.583 195.447C329.969 196.982 326.267 195.447 325.232 197.365C324.197 199.283 326.539 202.325 328.741 201.475C329.505 201.21 330.201 200.766 330.774 200.177C331.347 199.588 331.783 198.87 332.048 198.078C332.408 197.119 331.048 193.136 333.908 192.324C333.908 192.324 334.724 197.74 334.347 199.018C334.347 199.018 338.32 194.689 340.4 196.762C340.4 196.762 336.478 200.124 336.11 201.073C336.11 201.073 339.312 199.63 340.145 201.631C338.831 202.466 337.434 203.152 335.978 203.677C334.715 203.923 333.759 204.197 333.083 205.138C333.083 205.138 336.548 204.681 336.759 206.645C336.759 206.645 333.329 206.453 331.741 207.019C330.153 207.586 324.188 207.933 322.091 206.471C319.995 205.01 290.835 188.104 284.457 172.449C284.457 172.449 276.834 144.665 276.86 138.162" fill="#F4A082"/>
<g style="mix-blend-mode:multiply" opacity="0.21">
<path d="M284.554 178.221C284.554 178.221 290.493 167.818 295.8 166.521C301.107 165.224 281.729 153.515 284.554 178.221Z" fill="#D18161"/>
</g>
<path d="M236.138 184.752L230.208 140.536L222.777 122.269C222.777 122.269 221.33 117.648 238.015 109.3C254.885 100.86 284.51 110.925 285.624 122.087C286.826 134.344 278.299 138.28 278.299 138.28L271.737 184.752C271.737 184.752 256.482 192.853 236.138 184.752Z" fill="#F4A082"/>
<g style="mix-blend-mode:multiply" opacity="0.21">
<path d="M232.392 171.718C232.304 172.44 261.183 192.506 275.044 181.464C288.905 170.422 235.208 148.309 232.392 171.718Z" fill="#D18161"/>
</g>
<path d="M239.814 109.253C239.288 110.879 248.587 99.2066 247.709 82.3186H258.236C258.236 82.3186 258.236 103.326 268.921 109.893C268.93 109.856 252.139 126.114 239.814 109.253Z" fill="#F4A082"/>
<g style="mix-blend-mode:multiply" opacity="0.34">
<path d="M252.85 102.148C258.112 102.148 262.377 98.5821 262.377 94.1834C262.377 89.7848 258.112 86.219 252.85 86.219C247.588 86.219 243.323 89.7848 243.323 94.1834C243.323 98.5821 247.588 102.148 252.85 102.148Z" fill="#D18161"/>
</g>
<path d="M227.401 222.437C227.401 222.437 226.146 218.857 224.9 214.957C223.655 211.057 218.347 210.728 214.286 213.002C210.224 215.276 201.794 210.079 198.671 209.751C195.548 209.422 191.179 209.751 192.117 212.354C193.214 215.395 197.109 212.682 198.671 214.628C200.232 216.573 218.347 228.931 223.655 228.931C223.655 228.931 227.401 227.963 227.401 222.437Z" fill="#F4A082"/>
<path d="M280.273 217.715C280.273 217.715 281.843 214.281 283.449 210.527C285.054 206.773 290.37 206.974 294.195 209.614C298.02 212.253 306.897 207.951 310.038 207.942C313.179 207.933 317.495 208.691 316.328 211.185C314.951 214.107 311.319 211.011 309.591 212.792C307.862 214.573 288.686 225.058 283.405 224.529C283.405 224.565 279.764 223.223 280.273 217.715Z" fill="#F4A082"/>
<path d="M224.541 118.442C224.918 118.442 276.799 138.344 286.598 128.051C286.598 128.051 288.563 144.555 290.782 150.885C293.282 158.036 295.783 166.165 295.783 166.494C295.783 166.494 292.344 165.836 281.747 176.897C267.395 191.84 236.287 178.267 217.339 152.063C217.321 152.09 219.488 118.159 224.541 118.442Z" fill="#FFD2B9"/>
<mask id="mask1_2191_714" style="mask-type:alpha" maskUnits="userSpaceOnUse" x="217" y="118" width="79" height="66">
<path d="M224.541 118.442C224.918 118.442 276.799 138.344 286.598 128.051C286.598 128.051 288.563 144.555 290.782 150.885C293.282 158.036 295.783 166.165 295.783 166.494C295.783 166.494 292.344 165.836 281.747 176.897C267.395 191.84 236.287 178.267 217.339 152.063C217.321 152.09 219.488 118.159 224.541 118.442Z" fill="#FFD2B9"/>
</mask>
<g mask="url(#mask1_2191_714)">
<path d="M214.645 134.208C220.637 131.166 228.55 135.934 234.603 132.984C235.25 132.595 235.939 132.288 236.656 132.07C237.331 131.981 238.015 132.005 238.682 132.143L258.192 135.066C259.932 135.375 261.691 135.552 263.456 135.596C265.772 135.596 268.158 135.185 270.369 135.852C271.412 136.171 272.369 136.765 273.395 137.094C276.097 138.007 279.097 137.688 281.948 137.313L293.607 135.788C294.712 135.642 296.239 135.788 296.353 136.884C296.467 137.98 294.756 138.336 293.554 138.336C289.966 138.336 286.475 139.377 282.904 139.743C280.33 139.96 277.745 139.991 275.167 139.834C262.763 139.396 250.37 138.787 237.989 138.007C235.594 137.861 233.199 137.706 230.84 137.313C230.012 137.105 229.155 137.065 228.313 137.194C227.629 137.359 227.023 137.761 226.348 137.971C223.716 138.774 221.085 136.473 218.374 136.637C217.172 136.719 216.014 137.277 214.812 137.176C213.61 137.076 212.417 135.733 213.163 134.82" fill="#FCEBE6"/>
<path d="M212.373 144.464C212.637 143.076 214.567 142.583 215.979 143.012C217.391 143.441 218.532 144.437 219.9 144.957C224.12 146.574 228.673 143.368 233.243 143.578C236.314 143.715 239.226 145.405 242.27 145.076C243.147 144.966 244.025 144.683 244.902 144.565C246.814 144.483 248.727 144.733 250.56 145.304C256.701 146.702 263.07 146.821 269.386 146.921L280.975 147.113C284.484 147.168 287.993 147.222 291.352 146.327C292.627 145.887 293.945 145.602 295.283 145.478C296.634 145.478 298.107 146.063 298.581 147.305L286.94 148.903C285.045 149.159 283.159 149.415 281.247 149.478C278.343 149.57 275.448 149.214 272.535 149.086C263.526 148.684 254.429 150.556 245.516 149.204C243.174 148.848 240.832 148.291 238.498 148.419C236.454 148.556 234.463 149.232 232.427 149.168C230.909 149.033 229.409 148.727 227.953 148.255C222.767 146.92 217.4 146.518 212.084 147.067L210.145 144.126L212.496 144.017" fill="#FCEBE6"/>
<path d="M212.4 155.005C215.146 153.278 218.777 153.699 221.918 154.63C225.058 155.562 228.129 156.941 231.41 156.959C234.489 156.959 237.445 155.79 240.516 155.635C245.402 155.397 250.165 157.79 255.034 157.114C257.078 156.831 259.017 156.009 261.078 155.854C262.604 155.807 264.129 155.948 265.623 156.274L274.667 157.863C275.593 158.061 276.538 158.15 277.483 158.128C278.686 157.983 279.865 157.676 280.992 157.215C283.895 156.179 286.865 155.358 289.879 154.758C291.502 154.429 293.282 154.183 294.765 154.922C295.298 155.28 295.862 155.585 296.449 155.836C297.642 156.174 298.87 155.516 300.09 155.242C301.309 154.968 303.002 155.489 302.941 156.685C299.502 157.863 295.712 157.27 292.063 157.434C288.186 157.617 284.422 158.658 280.597 159.261C274.6 160.24 268.488 160.181 262.508 159.087C260.484 158.638 258.432 158.332 256.368 158.174C253.906 158.205 251.451 158.437 249.025 158.868C242.884 159.626 236.743 159.197 230.603 158.759L220.523 158.046C217.921 157.936 215.331 157.612 212.777 157.078C212.226 157.013 211.717 156.74 211.347 156.311C211.274 156.202 211.228 156.075 211.216 155.943C211.203 155.81 211.223 155.677 211.274 155.555C211.325 155.433 211.405 155.327 211.507 155.246C211.609 155.166 211.729 155.114 211.856 155.096" fill="#FCEBE6"/>
<path d="M223.725 166.586C226.067 165.554 228.822 165.928 231.287 166.65C233.752 167.371 236.138 168.431 238.691 168.732C245.963 169.646 253.525 164.357 260.289 167.061C261.473 167.536 262.622 168.257 263.903 168.203C264.852 168.048 265.782 167.785 266.675 167.417C269.307 166.668 272.114 167.682 274.667 168.687C275.586 169.154 276.622 169.314 277.632 169.143C278.312 168.824 278.974 168.464 279.615 168.066C281.168 167.381 282.957 168.066 284.65 168.303C287.159 168.659 289.686 168.011 292.195 167.655C294.704 167.298 297.458 167.289 299.528 168.705C297.881 169.726 295.998 170.26 294.081 170.248C287.694 170.669 281.15 169.655 274.965 171.226C273.995 171.541 272.989 171.722 271.974 171.765C270.868 171.644 269.784 171.361 268.754 170.924C264.772 169.573 260.447 169.536 256.218 169.518C254.462 169.475 252.705 169.53 250.955 169.682C246.937 170.093 243.016 171.509 238.972 171.363C234.094 171.189 229.515 168.732 224.629 168.687C223.925 168.737 223.218 168.657 222.541 168.449C221.892 168.175 221.374 167.472 221.602 166.833C221.83 166.193 223.023 166.102 223.172 166.769" fill="#FCEBE6"/>
<path d="M214.373 126.572C215.637 124.325 218.646 123.494 221.304 123.713C223.962 123.932 226.453 124.992 229.05 125.54C231.752 126.143 234.535 126.242 237.27 125.832C238.708 125.494 240.184 125.368 241.656 125.457C243.016 125.802 244.355 126.232 245.665 126.745C250.464 128.088 255.315 125.174 260.306 124.526C263.631 124.087 267 124.681 270.289 125.284C278.343 126.782 286.563 128.398 294.677 127.266C294.624 129.166 292.045 129.814 290.054 129.878C282.221 130.134 274.38 129.869 266.579 129.083C262.683 128.546 258.753 128.317 254.824 128.398C252.069 128.554 249.332 129.074 246.586 128.965C241.945 128.791 237.515 126.855 232.875 126.782C230.493 126.863 228.118 127.085 225.76 127.448C222.521 127.781 219.257 127.719 216.031 127.266C215.362 127.248 214.719 126.986 214.216 126.526C213.786 126.033 213.952 125.074 214.619 124.982" fill="#FCEBE6"/>
<path d="M240.542 176.66C247.876 176.843 255.253 177.025 262.473 176.075C264.086 175.804 265.716 175.654 267.351 175.628C268.791 175.698 270.225 175.878 271.64 176.167C276.904 177.08 282.167 177.783 287.501 178.258C282.913 180.377 277.553 180.14 272.509 179.464C267.465 178.788 262.394 177.71 257.341 178.304C254.42 178.651 251.56 179.546 248.621 179.446C246.382 179.37 244.199 178.7 242.279 177.5" fill="#FCEBE6"/>
</g>
<path d="M273.526 75.2135C273.526 88.649 259.087 99.5453 252.999 99.5453C246.911 99.5453 232.48 88.649 232.48 75.2135C232.48 61.7781 241.252 44.9358 252.657 44.9358C264.061 44.9358 273.526 61.7689 273.526 75.2135Z" fill="#F4A082"/>
<g style="mix-blend-mode:multiply" opacity="0.18">
<path d="M252.481 52.1149C252.481 52.1149 259.859 68.3269 271.693 74.2089L256.999 51.6856L248.227 49.7219C248.227 49.7219 235.208 70.0166 237.086 76.1452C237.086 76.1452 247.876 54.3891 254.788 52.2153C261.701 50.0415 251.043 49.0186 251.043 49.0186" fill="#A05940"/>
</g>
<path d="M252.692 52.7353C252.692 52.7353 242.077 59.8868 237.077 76.1446C237.077 76.1446 234.27 83.2961 236.138 87.1962C238.007 91.0962 245.2 96.3297 243.639 101.17C243.587 103.936 242.943 106.655 241.755 109.129C240.567 111.603 238.864 113.771 236.77 115.474C236.77 115.474 243.639 112.551 249.569 123.931C249.569 123.931 262.061 117.099 271.114 129.128C271.114 129.128 277.667 121.328 284.229 131.412C284.229 131.412 290.159 127.183 293.282 135.312C293.282 135.312 297.967 131.412 296.405 142.134C296.405 142.134 301.713 146.701 295.16 150.912C295.16 150.912 296.09 153.186 292.344 155.479L290.475 149.953C291.364 149.237 292.478 148.892 293.598 148.985C293.598 148.985 291.721 144.418 294.844 142.153C293.407 141.744 292.139 140.855 291.236 139.622C290.332 138.389 289.843 136.881 289.844 135.33C289.844 135.33 284.229 139.23 280.483 132.398C280.483 132.398 271.421 140.207 264.245 129.804C264.245 129.804 249.885 139.851 243.323 126.553C243.323 126.553 225.524 135.001 224.594 118.424C224.594 118.424 215.225 105.098 227.085 97.2887C227.085 97.2887 216.19 82.2823 222.699 68.9747C229.568 54.9913 236.121 34.1851 251.113 42.9624C251.113 42.9624 277.343 30.9335 273.597 75.8432C273.614 75.8158 260.5 65.4126 252.692 52.7353Z" fill="#1D3542"/>
<path d="M237.331 77.1863C237.928 79.7163 237.103 82.091 235.489 82.502C233.875 82.913 232.094 81.205 231.498 78.6751C230.901 76.1451 231.726 73.7703 233.34 73.3593C234.954 72.9483 236.735 74.6563 237.331 77.1863Z" fill="#F4A082"/>
<path d="M271.482 74.9117C270.895 77.4326 271.71 79.8164 273.325 80.2274C274.939 80.6385 276.719 78.9305 277.316 76.4005C277.913 73.8705 277.088 71.4958 275.483 71.0848C273.877 70.6738 272.079 72.4091 271.482 74.9117Z" fill="#F4A082"/>
<path d="M218.97 149.615C212.408 147.341 209.601 155.46 209.601 155.46C204.917 153.515 203.671 159.689 203.671 159.689C199.609 163.269 203.671 168.147 203.671 168.147C203.67 168.653 203.717 169.157 203.811 169.654L207.32 167.745C206.828 167.73 206.335 167.755 205.846 167.818C207.408 164.566 204.908 160.995 204.908 160.995C206.211 161.106 207.515 160.789 208.635 160.087C209.756 159.386 210.637 158.336 211.154 157.086C228.015 163.589 232.383 143.386 232.383 143.386C232.383 143.386 225.523 151.871 218.97 149.615Z" fill="#1D3542"/>
<path d="M240.919 76.6195C242.241 76.9752 243.61 77.1078 244.972 77.0123C246.332 76.9077 247.667 76.5809 248.928 76.0441C247.815 76.9924 246.447 77.5572 245.012 77.6603C243.577 77.7633 242.147 77.3997 240.919 76.6195Z" fill="#2E2430"/>
<path d="M250.2 91.5896C251.125 91.9839 252.124 92.1512 253.12 92.0783C254.117 92.0055 255.084 91.6944 255.946 91.1694C256.009 91.1319 256.055 91.0699 256.074 90.9971C256.093 90.9243 256.083 90.8467 256.047 90.7813C256.011 90.7159 255.951 90.6681 255.882 90.6484C255.812 90.6287 255.737 90.6387 255.674 90.6762C254.875 91.167 253.976 91.4564 253.05 91.5214C252.124 91.5864 251.196 91.4253 250.341 91.0507C250.016 90.9137 249.876 91.4617 250.2 91.5896Z" fill="#A34F31"/>
<path d="M250.271 86.1096L251.709 86.1644C252.166 86.1644 252.587 86.1644 253.052 86.1644C253.517 86.1644 253.929 86.0822 254.394 86.0091C254.859 85.936 255.271 85.8447 255.815 85.7534C255.5 86.1817 255.087 86.5208 254.613 86.7398C254.144 86.9691 253.639 87.1054 253.122 87.1417C252.604 87.1774 252.084 87.1155 251.587 86.959C251.086 86.7972 250.633 86.5048 250.271 86.1096V86.1096Z" fill="#A34F31"/>
<path d="M257.789 76.6748C259.111 77.03 260.479 77.1626 261.841 77.0676C263.204 76.9619 264.541 76.6353 265.807 76.0994C264.692 77.0485 263.322 77.6136 261.886 77.7167C260.449 77.8198 259.018 77.4557 257.789 76.6748V76.6748Z" fill="#2E2430"/>
<path d="M240.814 73.4318C241.693 72.3532 242.834 71.5394 244.117 71.0752C245.401 70.611 246.781 70.5133 248.113 70.7922C248.586 70.8836 248.788 70.1346 248.314 70.0342C246.855 69.7225 245.342 69.8214 243.931 70.3207C242.52 70.8199 241.263 71.7015 240.288 72.8747C239.972 73.2583 240.498 73.788 240.814 73.4318V73.4318Z" fill="#1D3542"/>
<path d="M266.035 72.5462C265.059 71.3722 263.8 70.4903 262.387 69.991C260.975 69.4918 259.46 69.3933 257.999 69.7057C257.526 69.797 257.727 70.5551 258.201 70.4546C259.534 70.1787 260.913 70.2788 262.197 70.7445C263.48 71.2102 264.62 72.0246 265.5 73.1033C265.824 73.4869 266.377 72.9298 266.035 72.5462Z" fill="#1D3542"/>
<path d="M253.306 51.6306C253.762 53.729 254.482 55.7558 255.446 57.6587C257.376 61.5488 260.13 64.9313 263.499 67.5503C264.341 68.2134 265.22 68.8234 266.131 69.3771C267.008 69.9525 268 70.4 268.938 70.9206C267.982 70.4548 266.991 70.0073 266.061 69.5141C265.116 68.9999 264.202 68.4265 263.324 67.7969C259.757 65.2959 256.784 61.9819 254.63 58.1063C253.522 56.1526 252.667 54.055 252.086 51.868L253.306 51.6306Z" fill="#1D3542"/>
<path d="M253.736 50.2238C252.849 52.4317 252.462 54.8224 252.604 57.211C252.681 58.4197 252.926 59.6104 253.332 60.7457C253.749 61.8938 254.322 62.9735 255.034 63.9515C254.235 63.0296 253.568 61.993 253.052 60.8735C252.521 59.7417 252.163 58.5307 251.99 57.284C251.798 56.0309 251.753 54.7579 251.858 53.4936C251.957 52.2107 252.201 50.9444 252.587 49.7215L253.736 50.2238Z" fill="#1D3542"/>
<path d="M254.78 51.4754C254.207 51.8696 253.664 52.3093 253.157 52.7907C252.636 53.28 252.146 53.8048 251.692 54.3616C250.763 55.4864 249.995 56.7445 249.411 58.0973C249.611 57.3764 249.86 56.6713 250.157 55.9874C250.451 55.2907 250.797 54.6189 251.192 53.978C251.581 53.3392 252.012 52.7289 252.481 52.1513C252.956 51.5439 253.478 50.9787 254.043 50.4616L254.78 51.4754Z" fill="#1D3542"/>
<g style="mix-blend-mode:multiply" opacity="0.18">
<path d="M355.313 267.867C355.313 269.594 311.757 271 258.026 271C204.294 271 160.73 269.575 160.73 267.867C160.73 266.159 204.294 264.735 258.026 264.735C311.757 264.735 355.313 266.114 355.313 267.867Z" fill="#A05940"/>
</g>
<path d="M26.886 253.644C28.4993 253.644 29.9147 253.959 31.132 254.59C32.364 255.221 33.31 256.123 33.97 257.296C34.6447 258.455 34.982 259.804 34.982 261.344C34.982 262.884 34.6447 264.233 33.97 265.392C33.31 266.536 32.364 267.423 31.132 268.054C29.9147 268.685 28.4993 269 26.886 269H21.518V253.644H26.886ZM26.776 266.382C28.3893 266.382 29.636 265.942 30.516 265.062C31.396 264.182 31.836 262.943 31.836 261.344C31.836 259.745 31.396 258.499 30.516 257.604C29.636 256.695 28.3893 256.24 26.776 256.24H24.598V266.382H26.776ZM38.8495 255.36C38.3069 255.36 37.8522 255.191 37.4855 254.854C37.1335 254.502 36.9575 254.069 36.9575 253.556C36.9575 253.043 37.1335 252.617 37.4855 252.28C37.8522 251.928 38.3069 251.752 38.8495 251.752C39.3922 251.752 39.8395 251.928 40.1915 252.28C40.5582 252.617 40.7415 253.043 40.7415 253.556C40.7415 254.069 40.5582 254.502 40.1915 254.854C39.8395 255.191 39.3922 255.36 38.8495 255.36ZM40.3675 256.812V269H37.2875V256.812H40.3675ZM42.6186 262.862C42.6186 261.63 42.8606 260.537 43.3446 259.584C43.8432 258.631 44.5106 257.897 45.3466 257.384C46.1972 256.871 47.1432 256.614 48.1846 256.614C49.0939 256.614 49.8859 256.797 50.5606 257.164C51.2499 257.531 51.7999 257.993 52.2106 258.55V256.812H55.3126V269H52.2106V267.218C51.8146 267.79 51.2646 268.267 50.5606 268.648C49.8712 269.015 49.0719 269.198 48.1626 269.198C47.1359 269.198 46.1972 268.934 45.3466 268.406C44.5106 267.878 43.8432 267.137 43.3446 266.184C42.8606 265.216 42.6186 264.109 42.6186 262.862ZM52.2106 262.906C52.2106 262.158 52.0639 261.52 51.7706 260.992C51.4772 260.449 51.0812 260.039 50.5826 259.76C50.0839 259.467 49.5486 259.32 48.9766 259.32C48.4046 259.32 47.8766 259.459 47.3926 259.738C46.9086 260.017 46.5126 260.427 46.2046 260.97C45.9112 261.498 45.7646 262.129 45.7646 262.862C45.7646 263.595 45.9112 264.241 46.2046 264.798C46.5126 265.341 46.9086 265.759 47.3926 266.052C47.8912 266.345 48.4192 266.492 48.9766 266.492C49.5486 266.492 50.0839 266.353 50.5826 266.074C51.0812 265.781 51.4772 265.37 51.7706 264.842C52.0639 264.299 52.2106 263.654 52.2106 262.906ZM61.4007 258.594C61.7967 258.007 62.3394 257.531 63.0287 257.164C63.7327 256.797 64.5321 256.614 65.4267 256.614C66.4681 256.614 67.4067 256.871 68.2427 257.384C69.0934 257.897 69.7607 258.631 70.2447 259.584C70.7434 260.523 70.9927 261.615 70.9927 262.862C70.9927 264.109 70.7434 265.216 70.2447 266.184C69.7607 267.137 69.0934 267.878 68.2427 268.406C67.4067 268.934 66.4681 269.198 65.4267 269.198C64.5174 269.198 63.7181 269.022 63.0287 268.67C62.3541 268.303 61.8114 267.834 61.4007 267.262V269H58.3207V252.72H61.4007V258.594ZM67.8467 262.862C67.8467 262.129 67.6927 261.498 67.3847 260.97C67.0914 260.427 66.6954 260.017 66.1967 259.738C65.7127 259.459 65.1847 259.32 64.6127 259.32C64.0554 259.32 63.5274 259.467 63.0287 259.76C62.5447 260.039 62.1487 260.449 61.8407 260.992C61.5474 261.535 61.4007 262.173 61.4007 262.906C61.4007 263.639 61.5474 264.277 61.8407 264.82C62.1487 265.363 62.5447 265.781 63.0287 266.074C63.5274 266.353 64.0554 266.492 64.6127 266.492C65.1847 266.492 65.7127 266.345 66.1967 266.052C66.6954 265.759 67.0914 265.341 67.3847 264.798C67.6927 264.255 67.8467 263.61 67.8467 262.862ZM84.5609 262.642C84.5609 263.082 84.5316 263.478 84.4729 263.83H75.5629C75.6362 264.71 75.9442 265.399 76.4869 265.898C77.0296 266.397 77.6969 266.646 78.4889 266.646C79.6329 266.646 80.4469 266.155 80.9309 265.172H84.2529C83.9009 266.345 83.2262 267.313 82.2289 268.076C81.2316 268.824 80.0069 269.198 78.5549 269.198C77.3816 269.198 76.3256 268.941 75.3869 268.428C74.4629 267.9 73.7369 267.159 73.2089 266.206C72.6956 265.253 72.4389 264.153 72.4389 262.906C72.4389 261.645 72.6956 260.537 73.2089 259.584C73.7222 258.631 74.4409 257.897 75.3649 257.384C76.2889 256.871 77.3522 256.614 78.5549 256.614C79.7136 256.614 80.7476 256.863 81.6569 257.362C82.5809 257.861 83.2922 258.572 83.7909 259.496C84.3042 260.405 84.5609 261.454 84.5609 262.642ZM81.3709 261.762C81.3562 260.97 81.0702 260.339 80.5129 259.87C79.9556 259.386 79.2736 259.144 78.4669 259.144C77.7042 259.144 77.0589 259.379 76.5309 259.848C76.0176 260.303 75.7022 260.941 75.5849 261.762H81.3709ZM90.395 259.342V265.238C90.395 265.649 90.4903 265.949 90.681 266.14C90.8863 266.316 91.2237 266.404 91.693 266.404H93.123V269H91.187C88.591 269 87.293 267.739 87.293 265.216V259.342H85.841V256.812H87.293V253.798H90.395V256.812H93.123V259.342H90.395ZM106.668 262.642C106.668 263.082 106.639 263.478 106.58 263.83H97.6703C97.7436 264.71 98.0516 265.399 98.5943 265.898C99.137 266.397 99.8043 266.646 100.596 266.646C101.74 266.646 102.554 266.155 103.038 265.172H106.36C106.008 266.345 105.334 267.313 104.336 268.076C103.339 268.824 102.114 269.198 100.662 269.198C99.489 269.198 98.433 268.941 97.4943 268.428C96.5703 267.9 95.8443 267.159 95.3163 266.206C94.803 265.253 94.5463 264.153 94.5463 262.906C94.5463 261.645 94.803 260.537 95.3163 259.584C95.8296 258.631 96.5483 257.897 97.4723 257.384C98.3963 256.871 99.4596 256.614 100.662 256.614C101.821 256.614 102.855 256.863 103.764 257.362C104.688 257.861 105.4 258.572 105.898 259.496C106.412 260.405 106.668 261.454 106.668 262.642ZM103.478 261.762C103.464 260.97 103.178 260.339 102.62 259.87C102.063 259.386 101.381 259.144 100.574 259.144C99.8116 259.144 99.1663 259.379 98.6383 259.848C98.125 260.303 97.8096 260.941 97.6923 261.762H103.478ZM113.58 269.198C112.583 269.198 111.688 269.022 110.896 268.67C110.104 268.303 109.474 267.812 109.004 267.196C108.55 266.58 108.3 265.898 108.256 265.15H111.358C111.417 265.619 111.644 266.008 112.04 266.316C112.451 266.624 112.957 266.778 113.558 266.778C114.145 266.778 114.6 266.661 114.922 266.426C115.26 266.191 115.428 265.891 115.428 265.524C115.428 265.128 115.223 264.835 114.812 264.644C114.416 264.439 113.778 264.219 112.898 263.984C111.989 263.764 111.241 263.537 110.654 263.302C110.082 263.067 109.584 262.708 109.158 262.224C108.748 261.74 108.542 261.087 108.542 260.266C108.542 259.591 108.733 258.975 109.114 258.418C109.51 257.861 110.068 257.421 110.786 257.098C111.52 256.775 112.378 256.614 113.36 256.614C114.812 256.614 115.971 256.981 116.836 257.714C117.702 258.433 118.178 259.408 118.266 260.64H115.318C115.274 260.156 115.069 259.775 114.702 259.496C114.35 259.203 113.874 259.056 113.272 259.056C112.715 259.056 112.282 259.159 111.974 259.364C111.681 259.569 111.534 259.855 111.534 260.222C111.534 260.633 111.74 260.948 112.15 261.168C112.561 261.373 113.199 261.586 114.064 261.806C114.944 262.026 115.67 262.253 116.242 262.488C116.814 262.723 117.306 263.089 117.716 263.588C118.142 264.072 118.362 264.717 118.376 265.524C118.376 266.228 118.178 266.859 117.782 267.416C117.401 267.973 116.844 268.413 116.11 268.736C115.392 269.044 114.548 269.198 113.58 269.198Z" fill="white"/>
<g style="mix-blend-mode:overlay" opacity="0.1">
<path d="M452.649 223.772C452.909 233.584 445.174 241.734 435.362 241.994C425.55 242.253 417.4 234.518 417.14 224.706C416.88 214.894 433.726 180.423 433.726 180.423C433.726 180.423 452.39 213.96 452.649 223.772Z" fill="#E30613"/>
<path d="M423.759 217.932C422.929 219.671 422.461 221.618 422.513 223.668C422.695 230.495 428.379 235.894 435.206 235.712C437.361 235.66 439.359 235.063 441.098 234.051C432.507 232.857 425.55 226.368 423.759 217.932Z" fill="white"/>
<path d="M429.677 143.233L429.781 165.141C429.781 167.789 431.65 169.995 434.116 170.566L434.064 158.834H436.634L436.686 170.566C439.152 169.969 440.995 167.763 440.969 165.115L440.865 143.207L429.677 143.233Z" fill="#E8E9EA"/>
<path d="M435.31 147.776C412.286 147.88 393.545 129.295 393.467 106.271L393.104 17.6274C418.62 8.04924 446.653 7.47819 472.559 15.9921L476.452 17.264L476.816 105.907C476.893 128.957 458.308 147.698 435.31 147.776Z" fill="#002E7B"/>
<path d="M435.232 132.15C417.036 132.228 402.215 117.536 402.137 99.3145L401.825 22.8969C401.825 22.8969 411.118 16.6412 434.453 16.5374C457.789 16.4336 467.756 22.6113 467.756 22.6113L468.068 99.029C468.146 117.251 453.428 132.072 435.232 132.15Z" fill="#009FE3"/>
<path d="M461.241 82.8318L408.834 83.0395C407.925 83.0395 407.198 82.3127 407.198 81.4042L406.965 31.5147C406.965 30.6062 407.692 29.8794 408.6 29.8794L461.007 29.6717C461.916 29.6717 462.643 30.3985 462.643 31.307L462.85 81.2225C462.85 82.105 462.124 82.8318 461.241 82.8318Z" fill="#E8E9EA"/>
<path d="M449.301 104.869C449.093 104.064 448.678 103.312 448.055 102.689L438.477 93.1883C436.582 91.2934 433.519 91.3194 431.624 93.2142L422.124 102.792C421.501 103.415 421.112 104.168 420.904 104.973L449.301 104.869Z" fill="#002E7B"/>
<path d="M420.93 107.464C421.138 108.269 421.553 109.022 422.176 109.645L431.754 119.145C433.649 121.04 436.712 121.014 438.607 119.119L448.107 109.541C448.73 108.918 449.12 108.165 449.327 107.361L420.93 107.464Z" fill="#002E7B"/>
<path d="M421.527 71.9042C420.593 70.9178 420.125 69.5161 420.125 67.6991L420.073 55.8108C420.073 53.9938 420.515 52.5921 421.449 51.6057C422.384 50.6194 423.707 50.1002 425.447 50.1002C427.186 50.1002 428.535 50.5934 429.47 51.5798C430.404 52.5661 430.872 53.9678 430.872 55.7848L430.924 67.6732C430.924 69.4901 430.482 70.8918 429.548 71.8782C428.613 72.8646 427.29 73.3837 425.55 73.3837C423.811 73.3837 422.462 72.8905 421.527 71.9042ZM427.367 67.9068L427.316 55.5512C427.316 54.0717 426.693 53.3189 425.473 53.3189C424.253 53.3189 423.63 54.0717 423.63 55.5512L423.682 67.9068C423.682 69.3863 424.304 70.1391 425.524 70.1391C426.744 70.1391 427.367 69.3863 427.367 67.9068Z" fill="#3C3C3B"/>
<path d="M433.312 69.5941L436.738 69.5682L436.764 72.9945L433.338 73.0205L433.312 69.5941Z" fill="#3C3C3B"/>
<path d="M440.528 71.8263C439.593 70.84 439.126 69.4383 439.126 67.6213L439.074 55.733C439.074 53.916 439.515 52.5143 440.45 51.5279C441.384 50.5415 442.708 50.0224 444.447 50.0224C446.186 50.0224 447.536 50.5156 448.471 51.502C449.405 52.4883 449.872 53.89 449.872 55.707L449.924 67.5953C449.924 69.4123 449.483 70.814 448.549 71.8004C447.614 72.7868 446.29 73.3059 444.551 73.3059C442.812 73.3059 441.462 72.8127 440.528 71.8263ZM446.368 67.8289L446.316 55.4734C446.316 53.9938 445.693 53.2411 444.473 53.2411C443.253 53.2411 442.63 53.9938 442.63 55.4734L442.682 67.8289C442.682 69.3085 443.305 70.0613 444.525 70.0613C445.771 70.0613 446.368 69.3085 446.368 67.8289Z" fill="#3C3C3B"/>
<path d="M438.451 40.5214C438.451 42.5201 436.841 44.1554 434.843 44.1554C432.844 44.1554 431.209 42.5461 431.209 40.5474C431.209 38.5487 434.791 33.6168 434.791 33.6168C434.791 33.6168 438.451 38.5227 438.451 40.5214Z" fill="#3C3C3B"/>
<g opacity="0.2">
<g opacity="0.2">
<path opacity="0.2" d="M426.329 80.028C426.225 53.0326 430.041 28.4513 436.374 10.0477C421.683 9.89198 406.965 12.4098 393 17.6531L393.363 106.297C393.467 129.32 412.208 147.88 435.206 147.802C435.544 147.802 435.855 147.776 436.193 147.776C430.145 129.658 426.433 105.959 426.329 80.028Z" fill="#002E7B"/>
</g>
</g>
</g>
<defs>
<linearGradient id="paint0_linear_2191_714" x1="252.5" y1="0" x2="252.5" y2="283" gradientUnits="userSpaceOnUse">
<stop stop-opacity="0"/>
<stop offset="1"/>
</linearGradient>
</defs>
</svg>
