<svg width="505" height="377" viewBox="0 0 505 377" fill="none" xmlns="http://www.w3.org/2000/svg">
<rect width="505" height="377" rx="10" fill="#C73B5D"/>
<path opacity="0.15" d="M0 9.99999C0 4.47714 4.47715 0 10 0H495C500.523 0 505 4.47715 505 10V283H0V9.99999Z" fill="url(#paint0_linear_2191_186)"/>
<path d="M0 283H505V367C505 372.523 500.523 377 495 377H10C4.47715 377 0 372.523 0 367V283Z" fill="white"/>
<path d="M252.359 54.9369C243.586 53.9778 234.971 56.517 227.12 60.417C219.988 64.0466 213.321 68.5942 207.277 73.9529C195.934 83.9267 186.433 96.8598 182.064 111.784C179.948 119.14 179.246 126.859 179.999 134.497C180.752 142.136 182.944 149.545 186.451 156.301C193.767 170.768 205.75 182.322 219.137 190.57C233.903 199.629 250.517 204.924 267.623 206.024C283.22 207.001 299.897 204.398 312.985 194.972C324.925 186.369 331.934 172.595 333.811 157.771C335.741 142.454 332.329 127.064 325.039 113.711C317.275 99.536 305.739 87.9455 293.028 78.5836C279.185 68.3906 263.087 59.4032 245.884 58.1245C241.745 57.8161 237.585 58.0123 233.489 58.709C232.848 58.8186 233.12 59.8233 233.752 59.7137C251.297 56.7636 268.553 63.9151 283.29 73.1948C296.335 81.415 308.529 91.608 317.819 104.249C326.811 116.515 332.776 131.065 333.329 146.601C333.838 161.105 329.82 176.121 320.293 186.99C309.722 199.037 293.879 204.161 278.606 205.01C262.056 205.807 245.56 202.53 230.454 195.447C203.54 182.925 177.617 156.036 180.915 122.964C182.442 107.674 190.065 93.6814 200.013 82.5841C205.083 76.9551 210.765 71.959 216.944 67.6964C223.962 62.883 231.568 58.6999 239.752 56.7362C243.885 55.7552 248.145 55.4959 252.359 55.969C252.999 56.0329 252.99 54.9917 252.359 54.9277V54.9369Z" fill="#E9FBFF"/>
<path d="M258.999 209.577C250.034 212.82 240.296 211.404 231.146 209.824C222.374 208.416 213.748 206.153 205.381 203.065C189.591 197.101 175.02 187.09 165.554 172.422C161.2 165.8 158.245 158.291 156.884 150.392C155.523 142.493 155.787 134.384 157.659 126.599C161.379 111.163 170.555 97.3715 182.336 87.3246C209.399 64.3172 248.033 62.7371 281.176 67.0755C290.859 68.3063 300.435 70.3187 309.818 73.0945C317.67 75.4419 325.828 78.2459 332.267 83.6712C339.066 89.3888 342.391 97.746 342.119 106.788C341.829 116.187 337.89 124.863 332.846 132.481C323.416 146.729 311.011 159.27 297.94 169.874C284.772 180.57 270.289 189.386 254.876 196.087C251.174 197.694 247.422 199.171 243.621 200.517C243.016 200.727 243.279 201.741 243.893 201.521C276.58 189.842 305.544 169.014 327.609 141.322C338.066 128.124 348.365 109.857 340.408 92.5033C336.978 85.0595 330.276 80.1548 323.214 76.8758C314.74 72.9393 305.511 70.5371 296.44 68.6556C277.875 64.6254 258.858 63.3249 239.945 64.7921C222.663 66.2626 205.381 70.7472 190.433 80.1548C164.186 96.6682 146.465 131.558 159.308 162.713C165.791 178.45 178.45 190.707 192.872 198.526C200.976 202.818 209.547 206.081 218.4 208.244C227.409 210.527 236.91 212.409 246.2 212.564C250.631 212.719 255.054 212.054 259.262 210.6C259.868 210.381 259.613 209.376 258.999 209.595V209.577Z" fill="#E9FBFF"/>
<path d="M185.347 115.254C187.306 113.213 187.306 109.906 185.347 107.865C183.387 105.825 180.21 105.825 178.25 107.865C176.291 109.906 176.291 113.213 178.25 115.254C180.21 117.294 183.387 117.294 185.347 115.254Z" fill="#E9FBFF"/>
<path d="M192.828 54.8181C192.828 55.4373 192.652 56.0426 192.322 56.5576C191.991 57.0726 191.522 57.4742 190.973 57.7115C190.423 57.9489 189.819 58.0115 189.235 57.8914C188.652 57.7712 188.116 57.4738 187.694 57.0365C187.273 56.5993 186.986 56.042 186.869 55.4348C186.752 54.8277 186.81 54.1981 187.037 53.6255C187.263 53.0529 187.647 52.563 188.141 52.2177C188.635 51.8723 189.216 51.6871 189.81 51.6853C190.206 51.6841 190.598 51.7642 190.964 51.9211C191.331 52.078 191.663 52.3086 191.944 52.5996C192.224 52.8906 192.446 53.2364 192.598 53.6171C192.75 53.9978 192.828 54.4059 192.828 54.8181V54.8181Z" fill="#E9FBFF"/>
<path d="M176.783 159.589C176.78 160.207 176.6 160.811 176.267 161.324C175.935 161.837 175.464 162.236 174.913 162.47C174.363 162.704 173.759 162.764 173.176 162.641C172.594 162.518 172.059 162.218 171.64 161.779C171.221 161.34 170.936 160.782 170.822 160.175C170.707 159.568 170.768 158.939 170.996 158.367C171.224 157.796 171.61 157.308 172.104 156.964C172.599 156.621 173.18 156.438 173.774 156.438C174.171 156.438 174.563 156.519 174.93 156.678C175.296 156.836 175.628 157.069 175.908 157.362C176.188 157.654 176.409 158.002 176.559 158.384C176.709 158.766 176.785 159.176 176.783 159.589V159.589Z" fill="#E9FBFF"/>
<path d="M303.493 108.944C303.493 109.46 303.346 109.965 303.071 110.395C302.795 110.825 302.403 111.159 301.945 111.357C301.486 111.555 300.982 111.607 300.495 111.506C300.008 111.405 299.561 111.156 299.21 110.791C298.86 110.426 298.621 109.96 298.524 109.453C298.427 108.947 298.477 108.421 298.667 107.944C298.856 107.467 299.178 107.059 299.591 106.772C300.003 106.485 300.488 106.332 300.985 106.332C301.314 106.332 301.64 106.399 301.945 106.53C302.249 106.662 302.526 106.854 302.759 107.097C302.992 107.339 303.176 107.627 303.302 107.944C303.429 108.261 303.493 108.601 303.493 108.944V108.944Z" fill="#E9FBFF"/>
<path d="M216.9 107.555C216.9 107.798 216.831 108.035 216.701 108.236C216.572 108.438 216.387 108.595 216.172 108.687C215.957 108.779 215.72 108.803 215.492 108.755C215.264 108.707 215.054 108.59 214.89 108.418C214.726 108.246 214.615 108.027 214.57 107.789C214.526 107.551 214.551 107.304 214.641 107.081C214.731 106.857 214.883 106.667 215.078 106.533C215.272 106.4 215.5 106.33 215.733 106.332C216.043 106.334 216.34 106.464 216.559 106.693C216.777 106.923 216.9 107.232 216.9 107.555Z" fill="#E9FBFF"/>
<path d="M292.791 38.9809C292.791 39.3606 292.683 39.7318 292.48 40.0474C292.277 40.363 291.989 40.6089 291.652 40.7538C291.314 40.8987 290.944 40.9361 290.586 40.8614C290.228 40.7866 289.9 40.603 289.643 40.3339C289.386 40.0647 289.211 39.7221 289.141 39.3494C289.071 38.9768 289.108 38.5908 289.249 38.2405C289.39 37.8902 289.627 37.5913 289.932 37.3816C290.236 37.172 290.593 37.061 290.957 37.0628C291.199 37.0628 291.438 37.1125 291.661 37.209C291.884 37.3055 292.087 37.4469 292.257 37.6252C292.427 37.8034 292.562 38.0149 292.654 38.2476C292.745 38.4802 292.792 38.7294 292.791 38.9809Z" fill="#E9FBFF"/>
<path d="M292.791 194.224C292.793 194.604 292.686 194.976 292.484 195.293C292.282 195.609 291.995 195.857 291.658 196.003C291.321 196.149 290.95 196.188 290.591 196.114C290.233 196.041 289.904 195.858 289.646 195.589C289.388 195.32 289.212 194.978 289.141 194.605C289.071 194.232 289.108 193.845 289.248 193.494C289.389 193.144 289.626 192.844 289.931 192.634C290.235 192.424 290.592 192.313 290.957 192.315C291.444 192.315 291.91 192.516 292.254 192.874C292.598 193.232 292.791 193.717 292.791 194.224V194.224Z" fill="#E9FBFF"/>
<path d="M364.006 151.935C364.006 152.84 363.748 153.725 363.264 154.477C362.78 155.229 362.092 155.814 361.288 156.158C360.484 156.502 359.6 156.59 358.748 156.41C357.896 156.23 357.115 155.791 356.503 155.148C355.891 154.504 355.477 153.686 355.313 152.797C355.149 151.909 355.242 150.989 355.58 150.155C355.919 149.322 356.488 148.612 357.215 148.115C357.942 147.619 358.795 147.359 359.664 147.368C360.82 147.38 361.924 147.867 362.737 148.722C363.55 149.577 364.006 150.732 364.006 151.935V151.935Z" fill="#E9FBFF"/>
<path d="M148.027 193.009C150.614 193.009 152.711 190.825 152.711 188.131C152.711 185.438 150.614 183.254 148.027 183.254C145.44 183.254 143.342 185.438 143.342 188.131C143.342 190.825 145.44 193.009 148.027 193.009Z" fill="#E9FBFF"/>
<path d="M143.684 80.401C143.684 80.7804 143.576 81.1512 143.374 81.4666C143.172 81.7821 142.884 82.0279 142.547 82.1731C142.211 82.3182 141.84 82.3562 141.483 82.2822C141.125 82.2082 140.797 82.0255 140.54 81.7573C140.282 81.489 140.106 81.1473 140.035 80.7752C139.964 80.4032 140.001 80.0175 140.14 79.667C140.28 79.3166 140.516 79.017 140.819 78.8062C141.122 78.5955 141.478 78.483 141.842 78.483C142.084 78.4818 142.325 78.5306 142.549 78.6265C142.773 78.7225 142.976 78.8637 143.147 79.0421C143.319 79.2204 143.454 79.4323 143.547 79.6656C143.639 79.8989 143.686 80.1488 143.684 80.401V80.401Z" fill="#E9FBFF"/>
<path d="M255.683 23.143C258.639 23.143 261.035 20.6486 261.035 17.5716C261.035 14.4945 258.639 12.0001 255.683 12.0001C252.728 12.0001 250.332 14.4945 250.332 17.5716C250.332 20.6486 252.728 23.143 255.683 23.143Z" fill="#E9FBFF"/>
<path d="M283.773 256.359C285.803 256.359 287.449 254.646 287.449 252.532C287.449 250.418 285.803 248.705 283.773 248.705C281.743 248.705 280.097 250.418 280.097 252.532C280.097 254.646 281.743 256.359 283.773 256.359Z" fill="#E9FBFF"/>
<path d="M334.25 96.2299C336.648 96.2299 338.592 94.2057 338.592 91.7088C338.592 89.2119 336.648 87.1877 334.25 87.1877C331.851 87.1877 329.907 89.2119 329.907 91.7088C329.907 94.2057 331.851 96.2299 334.25 96.2299Z" fill="#E9FBFF"/>
<path d="M211.163 174.97L214.602 172.048C213.067 168.394 209.391 167.791 207.329 167.746L203.82 169.655C204.829 174.97 211.163 174.97 211.163 174.97Z" fill="#1D3542"/>
<path d="M239.735 171.234C239.735 171.234 234.112 167.654 230.366 172.203C230.366 172.203 226.927 169.28 220.997 173.828L218.812 174.806C218.812 174.806 224.743 179.683 231.305 176.112C231.305 176.112 241.603 177.737 241.919 174.806C242.042 174.035 241.887 173.244 241.484 172.585C241.081 171.925 240.458 171.445 239.735 171.234Z" fill="#1D3542"/>
<path d="M257.684 105.08C257.684 105.08 275.799 96.9511 279.229 81.0222C282.659 65.0933 269.579 47.5386 269.579 47.5386C269.579 47.5386 215.251 95.9464 227.111 106.048C233.252 111.245 257.71 108.98 257.71 108.98" fill="#1D3542"/>
<g style="mix-blend-mode:multiply" opacity="0.22">
<path d="M236.138 87.1965C236.138 87.1965 242.077 102.797 252.999 102.148C263.921 101.5 271.623 86.9773 272.299 79.6157C272.974 72.254 234.884 79.0677 236.13 87.1965" fill="#1D3542"/>
</g>
<path d="M236.77 183.418C236.77 183.418 224.9 202.279 224.278 205.202C224.278 205.202 183.994 207.476 174.634 211.705C165.274 215.934 161.826 228.593 169.949 235.114C178.073 241.636 232.085 243.892 247.069 238.366C247.069 238.366 324.504 249.089 337.619 233.489C350.734 217.888 313.889 202.599 282.668 204.261C282.668 204.261 271.737 181.829 265.807 178.906C259.877 175.984 236.77 183.418 236.77 183.418Z" fill="#77CAD9"/>
<g style="mix-blend-mode:multiply" opacity="0.23">
<path d="M193.363 212.682C192.775 213.358 189.617 214.957 192.74 216.254C195.863 217.551 213.04 227.305 217.408 226.008C221.777 224.711 196.486 209.102 193.363 212.682Z" fill="#D25A5C"/>
</g>
<g style="mix-blend-mode:multiply" opacity="0.23">
<path d="M285.746 224.337C286.413 224.382 299.835 220.811 305.774 218.208C311.713 215.605 312.95 213.641 314.546 213.641C316.143 213.641 315.801 210.39 311.423 210.71C307.046 211.029 288.939 219.185 288.939 219.185L285.772 224.812" fill="#D25A5C"/>
</g>
<g style="mix-blend-mode:multiply" opacity="0.23">
<path d="M281.412 216.253C281.412 216.253 267.052 219.505 264.867 219.185C262.683 218.866 269.254 204.882 284.535 203.576C284.535 203.576 269.552 203.256 259.56 214.956C249.568 226.657 241.138 212.034 234.892 208.782C234.892 208.782 244.927 221.953 245.419 223.661C245.419 223.661 260.955 221.578 265.429 222.327C265.429 222.327 276.78 222.437 282.237 216.098L281.412 216.253Z" fill="#D25A5C"/>
</g>
<path d="M227.874 222.61C232.445 224.729 237.445 224.748 242.34 224.3C247.77 223.807 253.165 223.104 258.613 222.839C264.367 222.525 270.134 222.604 275.877 223.076C277.597 223.176 279.307 223.414 280.992 223.789C282.448 224.154 283.896 224.583 285.334 225.022C288.44 225.935 291.589 226.894 294.607 228.109C294.975 228.264 295.142 227.634 294.773 227.488C292.238 226.465 289.606 225.661 287.01 224.866C284.44 223.933 281.799 223.227 279.115 222.757C267.921 221.359 256.604 222.072 245.446 223.323C239.7 223.971 233.629 224.574 228.199 222.053C227.83 221.88 227.515 222.446 227.883 222.61H227.874Z" fill="#AA353B"/>
<path d="M223.54 228.803C231.727 233.774 240.646 237.305 249.937 239.252C250.332 239.325 250.498 238.704 250.104 238.622C240.865 236.694 231.996 233.188 223.856 228.246C223.785 228.202 223.701 228.19 223.621 228.211C223.541 228.233 223.473 228.286 223.431 228.36C223.389 228.434 223.377 228.522 223.398 228.605C223.418 228.688 223.47 228.76 223.54 228.803Z" fill="#AA353B"/>
<path d="M207.53 218.482C202.732 217.24 197.618 216.062 192.81 217.888C192.433 218.034 192.591 218.665 192.977 218.519C197.688 216.692 202.627 217.888 207.364 219.103C207.443 219.126 207.528 219.115 207.599 219.074C207.671 219.032 207.723 218.962 207.745 218.879C207.768 218.797 207.757 218.709 207.717 218.634C207.677 218.56 207.61 218.505 207.53 218.482Z" fill="#AA353B"/>
<g style="mix-blend-mode:multiply" opacity="0.49">
<g style="mix-blend-mode:multiply" opacity="0.49">
<path d="M244.822 223.286L239.559 215.422Z" fill="#D25A5C"/>
</g>
</g>
<mask id="mask0_2191_186" style="mask-type:alpha" maskUnits="userSpaceOnUse" x="165" y="178" width="176" height="64">
<path d="M236.77 183.419C236.77 183.419 224.9 202.279 224.278 205.202C224.278 205.202 183.994 207.476 174.634 211.705C165.274 215.934 161.826 228.593 169.949 235.115C178.073 241.636 232.085 243.892 247.069 238.366C247.069 238.366 324.504 249.089 337.619 233.489C350.734 217.889 313.889 202.599 282.668 204.261C282.668 204.261 271.737 181.829 265.807 178.907C259.877 175.984 236.77 183.419 236.77 183.419Z" fill="#D25A5C"/>
</mask>
<g mask="url(#mask0_2191_186)">
<g style="mix-blend-mode:multiply" opacity="0.23">
<path d="M252.252 239.015C241.64 237.666 231.502 233.647 222.715 227.305C222.715 227.305 231.488 239.992 241.453 241.919C251.419 243.846 252.252 239.015 252.252 239.015Z" fill="#D25A5C"/>
</g>
<path d="M285.316 203.092C283.166 203.24 281.041 203.667 278.991 204.362C276.914 204.992 274.904 205.84 272.991 206.892C272.64 207.093 272.991 207.65 273.307 207.449C275.172 206.425 277.133 205.602 279.158 204.992C281.147 204.309 283.21 203.889 285.299 203.741C285.702 203.741 285.702 203.074 285.299 203.092H285.316Z" fill="#AA353B"/>
<path d="M222.716 205.22C226.018 205.358 229.142 206.817 231.436 209.294C231.708 209.595 232.155 209.139 231.874 208.837C229.463 206.24 226.182 204.712 222.716 204.572C222.312 204.572 222.312 205.202 222.716 205.22Z" fill="#AA353B"/>
</g>
<path d="M279.729 218.144C275.781 220.254 271.702 221.889 267.21 221.944C267.137 221.957 267.07 221.996 267.021 222.056C266.973 222.115 266.947 222.19 266.947 222.268C266.947 222.346 266.973 222.421 267.021 222.48C267.07 222.54 267.137 222.579 267.21 222.592C271.816 222.537 275.983 220.866 280.044 218.71C280.395 218.519 280.044 217.952 279.729 218.144V218.144Z" fill="#AA353B"/>
<path d="M223.242 119.776C223.242 120.424 221.909 125.046 220.611 137.13C219.312 149.213 212.522 165.836 212.61 167.782C212.698 169.727 208.399 171.572 205.022 179.865C201.645 188.159 194.407 194.05 192.609 195.767C190.049 195.09 187.394 194.889 184.766 195.173C180.731 195.694 176.924 194.58 176.248 193.347C176.248 193.347 174.45 195.064 176.081 196.607C177.713 198.151 181.398 196.68 182.415 198.58C183.433 200.48 181.082 203.53 178.854 202.663C178.091 202.391 177.399 201.941 176.83 201.347C176.262 200.754 175.831 200.032 175.573 199.238C175.213 198.324 176.599 194.306 173.748 193.465C173.748 193.465 172.871 198.881 173.265 200.16C173.265 200.16 169.318 195.803 167.221 197.858C167.221 197.858 171.125 201.247 171.485 202.206C171.485 202.206 168.291 200.736 167.441 202.727C168.751 203.571 170.145 204.266 171.599 204.8C172.862 205.065 173.809 205.348 174.485 206.289C174.485 206.289 170.976 205.805 170.8 207.768C170.8 207.768 174.23 207.604 175.818 208.179C177.406 208.755 183.363 209.093 185.468 207.704C187.573 206.316 216.847 189.583 223.339 173.965C223.339 173.965 231.155 146.254 231.182 139.742" fill="#F4A082"/>
<g style="mix-blend-mode:multiply" opacity="0.21">
<path d="M217.409 152.218C217.409 152.218 223.962 166.192 232.392 171.718C240.823 177.244 228.339 142.135 217.409 152.218" fill="#D18161"/>
</g>
<path d="M285.475 121.009C285.475 121.657 286.247 123.575 287.493 135.686C288.738 147.797 295.388 164.457 295.274 166.403C295.16 168.348 299.458 170.22 302.774 178.55C306.09 186.88 313.301 192.817 315.056 194.543C317.623 193.885 320.281 193.706 322.907 194.013C326.943 194.561 330.75 193.474 331.443 192.187C331.443 192.187 333.198 193.913 331.583 195.447C329.969 196.982 326.267 195.447 325.232 197.365C324.197 199.283 326.539 202.325 328.741 201.475C329.505 201.21 330.201 200.766 330.774 200.177C331.348 199.588 331.784 198.87 332.048 198.078C332.408 197.119 331.048 193.136 333.908 192.324C333.908 192.324 334.724 197.74 334.347 199.018C334.347 199.018 338.321 194.689 340.4 196.762C340.4 196.762 336.478 200.124 336.11 201.073C336.11 201.073 339.312 199.63 340.145 201.631C338.831 202.466 337.434 203.152 335.978 203.677C334.715 203.923 333.759 204.197 333.084 205.138C333.084 205.138 336.549 204.681 336.759 206.645C336.759 206.645 333.329 206.453 331.741 207.019C330.153 207.586 324.188 207.933 322.092 206.471C319.995 205.01 290.835 188.104 284.457 172.449C284.457 172.449 276.834 144.665 276.86 138.162" fill="#F4A082"/>
<g style="mix-blend-mode:multiply" opacity="0.21">
<path d="M284.554 178.221C284.554 178.221 290.493 167.818 295.8 166.521C301.107 165.224 281.729 153.515 284.554 178.221Z" fill="#D18161"/>
</g>
<path d="M236.138 184.752L230.208 140.536L222.777 122.269C222.777 122.269 221.33 117.648 238.015 109.3C254.885 100.86 284.509 110.925 285.624 122.087C286.825 134.344 278.299 138.28 278.299 138.28L271.737 184.752C271.737 184.752 256.481 192.853 236.138 184.752Z" fill="#F4A082"/>
<g style="mix-blend-mode:multiply" opacity="0.21">
<path d="M232.392 171.718C232.305 172.44 261.184 192.506 275.044 181.464C288.905 170.422 235.208 148.309 232.392 171.718Z" fill="#D18161"/>
</g>
<path d="M239.814 109.253C239.288 110.879 248.587 99.2066 247.709 82.3186H258.236C258.236 82.3186 258.236 103.326 268.921 109.893C268.93 109.856 252.139 126.114 239.814 109.253Z" fill="#F4A082"/>
<g style="mix-blend-mode:multiply" opacity="0.34">
<path d="M252.85 102.148C258.111 102.148 262.377 98.5821 262.377 94.1834C262.377 89.7848 258.111 86.219 252.85 86.219C247.588 86.219 243.323 89.7848 243.323 94.1834C243.323 98.5821 247.588 102.148 252.85 102.148Z" fill="#D18161"/>
</g>
<path d="M227.401 222.437C227.401 222.437 226.146 218.857 224.901 214.957C223.655 211.057 218.348 210.728 214.286 213.002C210.224 215.276 201.794 210.079 198.671 209.751C195.548 209.422 191.179 209.751 192.118 212.354C193.214 215.395 197.109 212.682 198.671 214.628C200.232 216.573 218.348 228.931 223.655 228.931C223.655 228.931 227.401 227.963 227.401 222.437Z" fill="#F4A082"/>
<path d="M280.273 217.715C280.273 217.715 281.843 214.281 283.449 210.527C285.054 206.773 290.37 206.974 294.195 209.614C298.02 212.253 306.897 207.951 310.038 207.942C313.179 207.933 317.495 208.691 316.328 211.185C314.951 214.107 311.319 211.011 309.591 212.792C307.862 214.573 288.686 225.058 283.405 224.529C283.405 224.565 279.764 223.223 280.273 217.715Z" fill="#F4A082"/>
<path d="M224.541 118.442C224.918 118.442 276.799 138.344 286.598 128.051C286.598 128.051 288.563 144.555 290.782 150.885C293.282 158.036 295.782 166.165 295.782 166.494C295.782 166.494 292.344 165.836 281.746 176.897C267.394 191.84 236.287 178.267 217.338 152.063C217.321 152.09 219.488 118.159 224.541 118.442Z" fill="#FFD2B9"/>
<mask id="mask1_2191_186" style="mask-type:alpha" maskUnits="userSpaceOnUse" x="217" y="118" width="79" height="66">
<path d="M224.541 118.442C224.918 118.442 276.799 138.344 286.598 128.051C286.598 128.051 288.563 144.555 290.782 150.885C293.282 158.036 295.782 166.165 295.782 166.494C295.782 166.494 292.344 165.836 281.746 176.897C267.394 191.84 236.287 178.267 217.338 152.063C217.321 152.09 219.488 118.159 224.541 118.442Z" fill="#FFD2B9"/>
</mask>
<g mask="url(#mask1_2191_186)">
<path d="M214.645 134.208C220.637 131.166 228.549 135.934 234.602 132.984C235.249 132.595 235.938 132.288 236.655 132.07C237.33 131.981 238.014 132.005 238.682 132.143L258.192 135.066C259.932 135.375 261.691 135.552 263.455 135.596C265.771 135.596 268.157 135.185 270.368 135.852C271.412 136.171 272.368 136.765 273.395 137.094C276.096 138.007 279.097 137.688 281.948 137.313L293.606 135.788C294.712 135.642 296.238 135.788 296.352 136.884C296.466 137.98 294.756 138.336 293.554 138.336C289.966 138.336 286.474 139.377 282.904 139.743C280.33 139.96 277.745 139.991 275.167 139.834C262.762 139.396 250.37 138.787 237.989 138.007C235.594 137.861 233.199 137.706 230.839 137.313C230.012 137.105 229.154 137.065 228.313 137.194C227.628 137.359 227.023 137.761 226.348 137.971C223.716 138.774 221.084 136.473 218.373 136.637C217.171 136.719 216.014 137.277 214.812 137.176C213.61 137.076 212.417 135.733 213.162 134.82" fill="#FCEBE6"/>
<path d="M212.373 144.464C212.636 143.076 214.566 142.583 215.979 143.012C217.391 143.441 218.532 144.437 219.9 144.957C224.12 146.574 228.673 143.368 233.243 143.578C236.313 143.715 239.226 145.405 242.27 145.076C243.147 144.966 244.024 144.683 244.902 144.565C246.814 144.483 248.726 144.733 250.56 145.304C256.701 146.702 263.07 146.821 269.386 146.921L280.974 147.113C284.483 147.168 287.992 147.222 291.352 146.327C292.626 145.887 293.945 145.602 295.282 145.478C296.633 145.478 298.107 146.063 298.581 147.305L286.94 148.903C285.045 149.159 283.159 149.415 281.246 149.478C278.343 149.57 275.448 149.214 272.535 149.086C263.526 148.684 254.429 150.556 245.516 149.204C243.174 148.848 240.831 148.291 238.498 148.419C236.454 148.556 234.462 149.232 232.427 149.168C230.909 149.033 229.408 148.727 227.953 148.255C222.767 146.92 217.4 146.518 212.084 147.067L210.145 144.126L212.496 144.017" fill="#FCEBE6"/>
<path d="M212.399 155.005C215.145 153.278 218.777 153.699 221.917 154.63C225.058 155.562 228.128 156.941 231.409 156.959C234.488 156.959 237.445 155.79 240.515 155.635C245.401 155.397 250.165 157.79 255.034 157.114C257.078 156.831 259.016 156.009 261.078 155.854C262.603 155.807 264.129 155.948 265.622 156.274L274.667 157.863C275.593 158.061 276.537 158.15 277.483 158.128C278.685 157.983 279.865 157.676 280.992 157.215C283.895 156.179 286.864 155.358 289.878 154.758C291.501 154.429 293.282 154.183 294.764 154.922C295.298 155.28 295.862 155.585 296.449 155.836C297.642 156.174 298.87 155.516 300.089 155.242C301.309 154.968 303.002 155.489 302.94 156.685C299.502 157.863 295.712 157.27 292.062 157.434C288.185 157.617 284.422 158.658 280.597 159.261C274.599 160.24 268.487 160.181 262.508 159.087C260.483 158.638 258.432 158.332 256.367 158.174C253.906 158.205 251.451 158.437 249.024 158.868C242.884 159.626 236.743 159.197 230.602 158.759L220.523 158.046C217.92 157.936 215.33 157.612 212.776 157.078C212.226 157.013 211.717 156.74 211.347 156.311C211.273 156.202 211.228 156.075 211.215 155.943C211.202 155.81 211.223 155.677 211.274 155.555C211.325 155.433 211.405 155.327 211.507 155.246C211.609 155.166 211.729 155.114 211.855 155.096" fill="#FCEBE6"/>
<path d="M223.725 166.586C226.067 165.554 228.821 165.928 231.286 166.65C233.752 167.371 236.138 168.431 238.69 168.732C245.963 169.646 253.525 164.357 260.288 167.061C261.473 167.536 262.622 168.257 263.903 168.203C264.852 168.048 265.782 167.785 266.675 167.417C269.307 166.668 272.114 167.682 274.667 168.687C275.586 169.154 276.622 169.314 277.632 169.143C278.312 168.824 278.974 168.464 279.614 168.066C281.167 167.381 282.957 168.066 284.65 168.303C287.159 168.659 289.685 168.011 292.194 167.655C294.703 167.298 297.458 167.289 299.528 168.705C297.881 169.726 295.997 170.26 294.08 170.248C287.694 170.669 281.149 169.655 274.965 171.226C273.995 171.541 272.989 171.722 271.973 171.765C270.868 171.644 269.784 171.361 268.754 170.924C264.771 169.573 260.446 169.536 256.218 169.518C254.462 169.475 252.705 169.53 250.954 169.682C246.937 170.093 243.015 171.509 238.971 171.363C234.094 171.189 229.514 168.732 224.628 168.687C223.924 168.737 223.217 168.657 222.54 168.449C221.891 168.175 221.374 167.472 221.602 166.833C221.83 166.193 223.023 166.102 223.172 166.769" fill="#FCEBE6"/>
<path d="M214.373 126.572C215.637 124.325 218.646 123.494 221.304 123.713C223.962 123.932 226.453 124.992 229.05 125.54C231.752 126.143 234.535 126.242 237.27 125.832C238.708 125.494 240.184 125.368 241.656 125.457C243.016 125.802 244.355 126.232 245.665 126.745C250.464 128.088 255.315 125.174 260.306 124.526C263.631 124.087 267 124.681 270.289 125.284C278.343 126.782 286.563 128.398 294.677 127.266C294.624 129.166 292.045 129.814 290.054 129.878C282.221 130.134 274.38 129.869 266.579 129.083C262.683 128.546 258.753 128.317 254.824 128.398C252.069 128.554 249.332 129.074 246.586 128.965C241.945 128.791 237.515 126.855 232.875 126.782C230.493 126.863 228.118 127.085 225.76 127.448C222.521 127.781 219.257 127.719 216.031 127.266C215.362 127.248 214.719 126.986 214.216 126.526C213.786 126.033 213.952 125.074 214.619 124.982" fill="#FCEBE6"/>
<path d="M240.542 176.66C247.875 176.843 255.253 177.025 262.473 176.075C264.086 175.804 265.716 175.654 267.35 175.628C268.791 175.698 270.225 175.878 271.64 176.167C276.904 177.08 282.167 177.783 287.501 178.258C282.913 180.377 277.553 180.14 272.509 179.464C267.464 178.788 262.394 177.71 257.341 178.304C254.42 178.651 251.56 179.546 248.621 179.446C246.382 179.37 244.199 178.7 242.278 177.5" fill="#FCEBE6"/>
</g>
<path d="M273.527 75.2135C273.527 88.649 259.087 99.5453 252.999 99.5453C246.911 99.5453 232.48 88.649 232.48 75.2135C232.48 61.7781 241.252 44.9358 252.657 44.9358C264.061 44.9358 273.527 61.7689 273.527 75.2135Z" fill="#F4A082"/>
<g style="mix-blend-mode:multiply" opacity="0.18">
<path d="M252.481 52.1149C252.481 52.1149 259.859 68.3269 271.693 74.2089L256.999 51.6856L248.227 49.7219C248.227 49.7219 235.208 70.0166 237.086 76.1452C237.086 76.1452 247.876 54.3891 254.788 52.2153C261.701 50.0415 251.043 49.0186 251.043 49.0186" fill="#A05940"/>
</g>
<path d="M252.692 52.7353C252.692 52.7353 242.077 59.8868 237.077 76.1446C237.077 76.1446 234.27 83.2961 236.138 87.1962C238.007 91.0962 245.2 96.3297 243.639 101.17C243.586 103.936 242.943 106.655 241.755 109.129C240.566 111.603 238.863 113.771 236.77 115.474C236.77 115.474 243.639 112.551 249.569 123.931C249.569 123.931 262.061 117.099 271.114 129.128C271.114 129.128 277.667 121.328 284.229 131.412C284.229 131.412 290.159 127.183 293.282 135.312C293.282 135.312 297.967 131.412 296.405 142.134C296.405 142.134 301.713 146.701 295.16 150.912C295.16 150.912 296.089 153.186 292.344 155.479L290.475 149.953C291.364 149.237 292.478 148.892 293.598 148.985C293.598 148.985 291.721 144.418 294.844 142.153C293.407 141.744 292.139 140.855 291.235 139.622C290.332 138.389 289.843 136.881 289.843 135.33C289.843 135.33 284.229 139.23 280.483 132.398C280.483 132.398 271.421 140.207 264.245 129.804C264.245 129.804 249.885 139.851 243.323 126.553C243.323 126.553 225.523 135.001 224.593 118.424C224.593 118.424 215.224 105.098 227.085 97.2887C227.085 97.2887 216.189 82.2823 222.699 68.9747C229.567 54.9913 236.121 34.1851 251.113 42.9624C251.113 42.9624 277.343 30.9335 273.597 75.8432C273.614 75.8158 260.499 65.4126 252.692 52.7353Z" fill="#1D3542"/>
<path d="M237.331 77.1863C237.928 79.7163 237.103 82.091 235.489 82.502C233.875 82.913 232.094 81.205 231.497 78.6751C230.901 76.1451 231.725 73.7703 233.34 73.3593C234.954 72.9483 236.735 74.6563 237.331 77.1863Z" fill="#F4A082"/>
<path d="M271.483 74.9117C270.895 77.4326 271.711 79.8164 273.325 80.2274C274.939 80.6385 276.72 78.9305 277.316 76.4005C277.913 73.8705 277.088 71.4958 275.483 71.0848C273.877 70.6738 272.079 72.4091 271.483 74.9117Z" fill="#F4A082"/>
<path d="M218.97 149.615C212.408 147.341 209.601 155.46 209.601 155.46C204.917 153.515 203.671 159.689 203.671 159.689C199.609 163.269 203.671 168.147 203.671 168.147C203.67 168.653 203.717 169.157 203.811 169.654L207.32 167.745C206.828 167.73 206.335 167.755 205.846 167.818C207.408 164.566 204.908 160.995 204.908 160.995C206.211 161.106 207.515 160.789 208.635 160.087C209.756 159.386 210.637 158.336 211.154 157.086C228.015 163.589 232.383 143.386 232.383 143.386C232.383 143.386 225.523 151.871 218.97 149.615Z" fill="#1D3542"/>
<path d="M240.919 76.6195C242.241 76.9752 243.609 77.1078 244.972 77.0123C246.331 76.9077 247.666 76.5809 248.928 76.0441C247.815 76.9924 246.446 77.5572 245.012 77.6603C243.577 77.7633 242.147 77.3997 240.919 76.6195Z" fill="#2E2430"/>
<path d="M250.2 91.5896C251.125 91.9839 252.124 92.1512 253.121 92.0783C254.117 92.0055 255.084 91.6944 255.946 91.1694C256.009 91.1319 256.055 91.0699 256.074 90.9971C256.093 90.9243 256.083 90.8467 256.047 90.7813C256.011 90.7159 255.952 90.6681 255.882 90.6484C255.812 90.6287 255.737 90.6387 255.674 90.6762C254.875 91.167 253.976 91.4564 253.05 91.5214C252.124 91.5864 251.196 91.4253 250.341 91.0507C250.016 90.9137 249.876 91.4617 250.2 91.5896Z" fill="#A34F31"/>
<path d="M250.271 86.1096L251.709 86.1644C252.165 86.1644 252.586 86.1644 253.051 86.1644C253.516 86.1644 253.929 86.0822 254.394 86.0091C254.859 85.936 255.271 85.8447 255.815 85.7534C255.5 86.1817 255.086 86.5208 254.613 86.7398C254.144 86.9691 253.638 87.1054 253.122 87.1417C252.603 87.1774 252.083 87.1155 251.586 86.959C251.085 86.7972 250.632 86.5048 250.271 86.1096V86.1096Z" fill="#A34F31"/>
<path d="M257.789 76.6748C259.111 77.03 260.479 77.1626 261.841 77.0676C263.204 76.9619 264.541 76.6353 265.807 76.0994C264.692 77.0485 263.322 77.6136 261.886 77.7167C260.449 77.8198 259.018 77.4557 257.789 76.6748V76.6748Z" fill="#2E2430"/>
<path d="M240.814 73.4318C241.693 72.3532 242.834 71.5394 244.118 71.0752C245.401 70.611 246.781 70.5133 248.113 70.7922C248.587 70.8836 248.788 70.1346 248.315 70.0342C246.855 69.7225 245.342 69.8214 243.931 70.3207C242.52 70.8199 241.263 71.7015 240.288 72.8747C239.972 73.2583 240.498 73.788 240.814 73.4318V73.4318Z" fill="#1D3542"/>
<path d="M266.035 72.5462C265.058 71.3722 263.799 70.4903 262.387 69.991C260.975 69.4918 259.46 69.3933 257.999 69.7057C257.525 69.797 257.727 70.5551 258.201 70.4546C259.534 70.1787 260.913 70.2788 262.197 70.7445C263.48 71.2102 264.62 72.0246 265.5 73.1033C265.824 73.4869 266.377 72.9298 266.035 72.5462Z" fill="#1D3542"/>
<path d="M253.306 51.6306C253.762 53.729 254.482 55.7558 255.446 57.6587C257.376 61.5488 260.13 64.9313 263.499 67.5503C264.341 68.2134 265.22 68.8234 266.131 69.3771C267.008 69.9525 268 70.4 268.938 70.9206C267.982 70.4548 266.991 70.0073 266.061 69.5141C265.116 68.9999 264.202 68.4265 263.324 67.7969C259.757 65.2959 256.784 61.9819 254.63 58.1063C253.522 56.1526 252.667 54.055 252.086 51.868L253.306 51.6306Z" fill="#1D3542"/>
<path d="M253.736 50.2238C252.849 52.4317 252.462 54.8224 252.604 57.211C252.681 58.4197 252.926 59.6104 253.333 60.7457C253.749 61.8938 254.322 62.9735 255.034 63.9515C254.236 63.0296 253.568 61.993 253.052 60.8735C252.521 59.7417 252.163 58.5307 251.99 57.284C251.798 56.0309 251.754 54.7579 251.859 53.4936C251.957 52.2107 252.202 50.9444 252.587 49.7215L253.736 50.2238Z" fill="#1D3542"/>
<path d="M254.78 51.4754C254.207 51.8696 253.665 52.3093 253.157 52.7907C252.636 53.28 252.146 53.8048 251.692 54.3616C250.763 55.4864 249.995 56.7445 249.411 58.0973C249.611 57.3764 249.86 56.6713 250.157 55.9874C250.451 55.2907 250.797 54.6189 251.192 53.978C251.581 53.3392 252.012 52.7289 252.482 52.1513C252.956 51.5439 253.478 50.9787 254.043 50.4616L254.78 51.4754Z" fill="#1D3542"/>
<g style="mix-blend-mode:multiply" opacity="0.18">
<path d="M355.313 267.867C355.313 269.594 311.757 271 258.025 271C204.294 271 160.729 269.575 160.729 267.867C160.729 266.159 204.294 264.735 258.025 264.735C311.757 264.735 355.313 266.114 355.313 267.867Z" fill="#A05940"/>
</g>
<path d="M32.716 258.396C32.716 259.217 32.518 259.987 32.122 260.706C31.7407 261.425 31.132 262.004 30.296 262.444C29.4747 262.884 28.4333 263.104 27.172 263.104H24.598V269H21.518V253.644H27.172C28.36 253.644 29.372 253.849 30.208 254.26C31.044 254.671 31.6673 255.235 32.078 255.954C32.5033 256.673 32.716 257.487 32.716 258.396ZM27.04 260.618C27.8907 260.618 28.5213 260.427 28.932 260.046C29.3427 259.65 29.548 259.1 29.548 258.396C29.548 256.9 28.712 256.152 27.04 256.152H24.598V260.618H27.04ZM34.1548 261.3C34.1548 259.789 34.4921 258.44 35.1668 257.252C35.8561 256.049 36.7874 255.118 37.9608 254.458C39.1488 253.783 40.4761 253.446 41.9428 253.446C43.6588 253.446 45.1621 253.886 46.4528 254.766C47.7434 255.646 48.6454 256.863 49.1588 258.418H45.6168C45.2648 257.685 44.7661 257.135 44.1208 256.768C43.4901 256.401 42.7568 256.218 41.9208 256.218C41.0261 256.218 40.2268 256.431 39.5228 256.856C38.8334 257.267 38.2908 257.853 37.8948 258.616C37.5134 259.379 37.3228 260.273 37.3228 261.3C37.3228 262.312 37.5134 263.207 37.8948 263.984C38.2908 264.747 38.8334 265.341 39.5228 265.766C40.2268 266.177 41.0261 266.382 41.9208 266.382C42.7568 266.382 43.4901 266.199 44.1208 265.832C44.7661 265.451 45.2648 264.893 45.6168 264.16H49.1588C48.6454 265.729 47.7434 266.954 46.4528 267.834C45.1768 268.699 43.6734 269.132 41.9428 269.132C40.4761 269.132 39.1488 268.802 37.9608 268.142C36.7874 267.467 35.8561 266.536 35.1668 265.348C34.4921 264.16 34.1548 262.811 34.1548 261.3ZM58.9175 269.154C57.4802 269.154 56.1602 268.817 54.9575 268.142C53.7548 267.467 52.8015 266.536 52.0975 265.348C51.3935 264.145 51.0415 262.789 51.0415 261.278C51.0415 259.782 51.3935 258.44 52.0975 257.252C52.8015 256.049 53.7548 255.111 54.9575 254.436C56.1602 253.761 57.4802 253.424 58.9175 253.424C60.3695 253.424 61.6895 253.761 62.8775 254.436C64.0802 255.111 65.0262 256.049 65.7155 257.252C66.4195 258.44 66.7715 259.782 66.7715 261.278C66.7715 262.789 66.4195 264.145 65.7155 265.348C65.0262 266.536 64.0802 267.467 62.8775 268.142C61.6748 268.817 60.3548 269.154 58.9175 269.154ZM58.9175 266.404C59.8415 266.404 60.6555 266.199 61.3595 265.788C62.0635 265.363 62.6135 264.761 63.0095 263.984C63.4055 263.207 63.6035 262.305 63.6035 261.278C63.6035 260.251 63.4055 259.357 63.0095 258.594C62.6135 257.817 62.0635 257.223 61.3595 256.812C60.6555 256.401 59.8415 256.196 58.9175 256.196C57.9935 256.196 57.1722 256.401 56.4535 256.812C55.7495 257.223 55.1995 257.817 54.8035 258.594C54.4075 259.357 54.2095 260.251 54.2095 261.278C54.2095 262.305 54.4075 263.207 54.8035 263.984C55.1995 264.761 55.7495 265.363 56.4535 265.788C57.1722 266.199 57.9935 266.404 58.9175 266.404ZM74.3649 269.154C73.2943 269.154 72.3263 268.971 71.4609 268.604C70.6103 268.237 69.9356 267.709 69.4369 267.02C68.9383 266.331 68.6816 265.517 68.6669 264.578H71.9669C72.0109 265.209 72.2309 265.707 72.6269 266.074C73.0376 266.441 73.5949 266.624 74.2989 266.624C75.0176 266.624 75.5823 266.455 75.9929 266.118C76.4036 265.766 76.6089 265.311 76.6089 264.754C76.6089 264.299 76.4696 263.925 76.1909 263.632C75.9123 263.339 75.5603 263.111 75.1349 262.95C74.7243 262.774 74.1523 262.583 73.4189 262.378C72.4216 262.085 71.6076 261.799 70.9769 261.52C70.3609 261.227 69.8256 260.794 69.3709 260.222C68.9309 259.635 68.7109 258.858 68.7109 257.89C68.7109 256.981 68.9383 256.189 69.3929 255.514C69.8476 254.839 70.4856 254.326 71.3069 253.974C72.1283 253.607 73.0669 253.424 74.1229 253.424C75.7069 253.424 76.9903 253.813 77.9729 254.59C78.9703 255.353 79.5203 256.423 79.6229 257.802H76.2349C76.2056 257.274 75.9783 256.841 75.5529 256.504C75.1423 256.152 74.5923 255.976 73.9029 255.976C73.3016 255.976 72.8176 256.13 72.4509 256.438C72.0989 256.746 71.9229 257.193 71.9229 257.78C71.9229 258.191 72.0549 258.535 72.3189 258.814C72.5976 259.078 72.9349 259.298 73.3309 259.474C73.7416 259.635 74.3136 259.826 75.0469 260.046C76.0443 260.339 76.8583 260.633 77.4889 260.926C78.1196 261.219 78.6623 261.659 79.1169 262.246C79.5716 262.833 79.7989 263.603 79.7989 264.556C79.7989 265.377 79.5863 266.14 79.1609 266.844C78.7356 267.548 78.1123 268.113 77.2909 268.538C76.4696 268.949 75.4943 269.154 74.3649 269.154ZM95.9614 248.166L90.0214 272.982H87.0074L92.9474 248.166H95.9614ZM114.851 258.396C114.851 259.217 114.653 259.987 114.257 260.706C113.875 261.425 113.267 262.004 112.431 262.444C111.609 262.884 110.568 263.104 109.307 263.104H106.733V269H103.653V253.644H109.307C110.495 253.644 111.507 253.849 112.343 254.26C113.179 254.671 113.802 255.235 114.213 255.954C114.638 256.673 114.851 257.487 114.851 258.396ZM109.175 260.618C110.025 260.618 110.656 260.427 111.067 260.046C111.477 259.65 111.683 259.1 111.683 258.396C111.683 256.9 110.847 256.152 109.175 256.152H106.733V260.618H109.175ZM116.29 261.3C116.29 259.789 116.627 258.44 117.302 257.252C117.991 256.049 118.922 255.118 120.096 254.458C121.284 253.783 122.611 253.446 124.078 253.446C125.794 253.446 127.297 253.886 128.588 254.766C129.878 255.646 130.78 256.863 131.294 258.418H127.752C127.4 257.685 126.901 257.135 126.256 256.768C125.625 256.401 124.892 256.218 124.056 256.218C123.161 256.218 122.362 256.431 121.658 256.856C120.968 257.267 120.426 257.853 120.03 258.616C119.648 259.379 119.458 260.273 119.458 261.3C119.458 262.312 119.648 263.207 120.03 263.984C120.426 264.747 120.968 265.341 121.658 265.766C122.362 266.177 123.161 266.382 124.056 266.382C124.892 266.382 125.625 266.199 126.256 265.832C126.901 265.451 127.4 264.893 127.752 264.16H131.294C130.78 265.729 129.878 266.954 128.588 267.834C127.312 268.699 125.808 269.132 124.078 269.132C122.611 269.132 121.284 268.802 120.096 268.142C118.922 267.467 117.991 266.536 117.302 265.348C116.627 264.16 116.29 262.811 116.29 261.3ZM141.052 269.154C139.615 269.154 138.295 268.817 137.092 268.142C135.89 267.467 134.936 266.536 134.232 265.348C133.528 264.145 133.176 262.789 133.176 261.278C133.176 259.782 133.528 258.44 134.232 257.252C134.936 256.049 135.89 255.111 137.092 254.436C138.295 253.761 139.615 253.424 141.052 253.424C142.504 253.424 143.824 253.761 145.012 254.436C146.215 255.111 147.161 256.049 147.85 257.252C148.554 258.44 148.906 259.782 148.906 261.278C148.906 262.789 148.554 264.145 147.85 265.348C147.161 266.536 146.215 267.467 145.012 268.142C143.81 268.817 142.49 269.154 141.052 269.154ZM141.052 266.404C141.976 266.404 142.79 266.199 143.494 265.788C144.198 265.363 144.748 264.761 145.144 263.984C145.54 263.207 145.738 262.305 145.738 261.278C145.738 260.251 145.54 259.357 145.144 258.594C144.748 257.817 144.198 257.223 143.494 256.812C142.79 256.401 141.976 256.196 141.052 256.196C140.128 256.196 139.307 256.401 138.588 256.812C137.884 257.223 137.334 257.817 136.938 258.594C136.542 259.357 136.344 260.251 136.344 261.278C136.344 262.305 136.542 263.207 136.938 263.984C137.334 264.761 137.884 265.363 138.588 265.788C139.307 266.199 140.128 266.404 141.052 266.404ZM156.566 253.644C158.179 253.644 159.594 253.959 160.812 254.59C162.044 255.221 162.99 256.123 163.65 257.296C164.324 258.455 164.662 259.804 164.662 261.344C164.662 262.884 164.324 264.233 163.65 265.392C162.99 266.536 162.044 267.423 160.812 268.054C159.594 268.685 158.179 269 156.566 269H151.198V253.644H156.566ZM156.456 266.382C158.069 266.382 159.316 265.942 160.196 265.062C161.076 264.182 161.516 262.943 161.516 261.344C161.516 259.745 161.076 258.499 160.196 257.604C159.316 256.695 158.069 256.24 156.456 256.24H154.278V266.382H156.456Z" fill="white"/>
<g style="mix-blend-mode:overlay" opacity="0.1" clip-path="url(#clip0_2191_186)">
<path d="M272.32 68.2259C278.648 69.4659 284.585 73.1827 287.831 78.7091C291.078 84.2356 291.303 91.5622 287.815 96.9408C284.106 102.665 276.75 105.438 269.924 104.787C263.099 104.135 256.834 100.456 251.957 95.6598C250.358 94.1609 248.988 92.4392 247.889 90.5488C244.808 84.95 245.985 77.4912 250.285 72.8333C255.13 67.5933 265.726 66.9324 272.32 68.2259Z" fill="#FFDFDA"/>
<path d="M448.588 68.2259C442.263 69.4659 436.326 73.1827 433.08 78.7091C429.834 84.2356 429.608 91.5622 433.096 96.9408C436.805 102.665 444.158 105.438 450.987 104.787C457.816 104.135 464.077 100.456 468.954 95.6598C470.553 94.1609 471.923 92.4392 473.022 90.5488C476.1 84.95 474.926 77.4912 470.626 72.8333C465.781 67.5933 455.185 66.9324 448.588 68.2259Z" fill="#FFDFDA"/>
<path d="M350.183 202.204C350.84 193.83 351.488 185.288 349.511 177.118C347.464 168.649 342.726 161.105 339.331 153.074C335.935 145.042 333.895 135.843 337.398 127.859C340.832 120.028 337.814 110.839 333.238 103.606C328.662 96.3742 322.553 90.0736 318.993 82.2875C316.327 76.4715 315.217 70.0953 314.125 63.7978C313.56 60.5184 312.992 57.2233 312.986 53.8999V53.2862C300.778 56.9873 289.529 57.7741 277.267 51.3979C271.99 48.6504 261.877 42.5386 256.193 40.751C250.51 38.9634 243.342 39.7659 240.01 44.6598C237.103 48.9022 239.521 55.1084 242.866 59.0235C246.21 62.9386 250.992 65.3179 255.708 67.4139C257.742 67.0429 259.841 67.2818 261.737 68.1C262.223 68.2951 262.73 68.5658 262.933 69.0441C263.251 69.7994 262.667 70.6397 262.01 71.1433C260.357 72.4022 258.202 72.7893 256.155 73.2676C254.109 73.746 251.951 74.4604 250.726 76.141C250.055 77.1348 249.667 78.2894 249.602 79.4833C249.536 80.2827 249.558 81.1199 249.212 81.8469C248.866 82.5739 247.99 83.1372 247.248 82.8162C246.756 82.6022 246.483 82.0829 246.27 81.5951C245.905 80.7437 245.611 79.8636 245.391 78.964L245.131 78.4668C238.94 73.1166 232.619 67.6373 228.69 60.4964C224.762 53.3554 223.664 44.1059 228.078 37.2513C232.74 30.0128 242.358 27.2433 250.97 28.1245C259.582 29.0057 269.893 35.1773 277.153 39.8635C290.297 48.3609 302.238 46.2113 314.598 40.7793C321.405 37.7895 323.401 34.9476 329.116 30.2142C345.02 17.059 366.869 11.435 392.89 30.6737C398.862 35.0797 399.589 37.7989 406.395 40.7887C418.771 46.2208 430.709 48.3577 443.84 39.8729C451.101 35.1868 461.408 29.0183 470.023 28.1339C478.639 27.2496 488.254 30.0222 492.912 37.2607C497.329 44.1153 496.232 53.3649 492.303 60.5058C488.374 67.6468 482.053 73.1418 475.862 78.4762L475.948 80.5785C476.265 81.4503 476.582 82.363 476.468 83.282C476.354 84.2009 475.618 85.1105 474.685 85.1073C473.971 85.1073 473.352 84.5849 472.993 83.9712C472.682 83.3364 472.432 82.6736 472.248 81.9916C470.74 77.6202 466.301 75.0143 462.093 73.0442C461.119 72.5878 460.11 72.1252 459.386 71.3353C458.663 70.5453 458.301 69.3211 458.818 68.3864C459.548 67.0645 461.424 67.0425 462.944 67.1967C463.765 67.2785 464.492 67.3289 465.317 67.4107C470.03 65.3021 474.837 62.9354 478.16 59.0203C481.482 55.1053 483.916 48.899 481.016 44.6566C477.668 39.7627 470.496 38.9571 464.813 40.7478C459.129 42.5386 449.019 48.6472 443.739 51.3947C431.48 57.7772 420.231 56.9904 408.023 53.283V53.8967C408.023 57.2202 407.449 60.5058 406.881 63.7946C405.792 70.089 404.682 76.4683 402.016 82.2843C398.456 90.061 392.344 96.368 387.768 103.603C383.192 110.839 380.177 120.025 383.611 127.855C387.102 135.84 385.071 145.039 381.678 153.071C378.286 161.102 373.545 168.646 371.495 177.115C369.522 185.298 370.169 193.827 370.826 202.201C370.826 202.201 366.659 206.022 359.316 205.764C351.973 205.506 350.183 202.204 350.183 202.204Z" fill="#FFC6C5" stroke="#FFC6C5" stroke-width="1.4" stroke-miterlimit="10"/>
<path d="M355.959 195.196C355.86 188.339 355.632 181.486 355.277 174.635C355.134 171.866 354.96 169.071 354.22 166.396C353.436 163.563 352.027 160.951 350.593 158.386C345.951 150.075 340.727 140.847 343.044 131.635C344.196 127.047 346.677 123.349 347.21 118.65C348.086 110.952 345.122 103.304 341.203 96.6008C337.284 89.8973 332.375 83.7887 328.764 76.9184C327.08 73.6522 325.619 70.2783 324.388 66.8191C322.205 60.8394 320.466 54.1989 322.763 48.2759C324.35 44.2192 327.688 41.009 331.537 38.9256C335.387 36.8422 339.718 35.7973 344.047 35.1301C344.047 35.1301 357.914 32.6438 376.281 35.1301C380.622 35.7155 384.944 36.8422 388.79 38.9256C392.636 41.009 395.99 44.2192 397.564 48.2759C399.865 54.1989 398.123 60.8646 395.94 66.8191C394.709 70.2783 393.247 73.6522 391.564 76.9184C387.952 83.7792 383.053 89.891 379.124 96.5977C375.196 103.304 372.241 110.949 373.117 118.647C373.65 123.346 376.132 127.044 377.287 131.632C379.603 140.853 374.38 150.081 369.734 158.383C368.3 160.948 366.894 163.563 366.107 166.393C365.362 169.068 365.193 171.863 365.051 174.632C364.7 181.48 364.472 188.334 364.368 195.193C364.368 195.193 364.391 196.71 360.164 196.555C355.743 196.401 355.959 195.196 355.959 195.196Z" fill="#FF8189"/>
<path d="M349.714 129.804C356.948 130.726 364.233 131.198 371.527 131.217C371.56 131.222 371.59 131.238 371.612 131.263C371.634 131.288 371.646 131.32 371.646 131.354C371.646 131.387 371.634 131.419 371.612 131.444C371.59 131.469 371.56 131.486 371.527 131.49C366.044 131.651 360.556 131.424 355.105 130.811C353.29 130.601 351.48 130.352 349.676 130.065C349.659 130.063 349.643 130.057 349.629 130.048C349.614 130.04 349.602 130.028 349.592 130.015C349.582 130.001 349.575 129.986 349.572 129.97C349.568 129.953 349.568 129.936 349.571 129.92C349.577 129.888 349.594 129.86 349.62 129.841C349.646 129.821 349.678 129.813 349.711 129.816L349.714 129.804Z" fill="#FFC6C5"/>
<path d="M346.528 136.051C355.384 137.073 364.303 137.471 373.216 137.244C373.252 137.244 373.288 137.258 373.314 137.283C373.341 137.308 373.357 137.342 373.358 137.379C373.359 137.415 373.346 137.449 373.322 137.476C373.298 137.502 373.264 137.518 373.228 137.52C366.533 137.862 359.822 137.718 353.148 137.089C350.926 136.885 348.705 136.617 346.484 136.299C346.453 136.292 346.426 136.274 346.408 136.249C346.39 136.223 346.382 136.192 346.386 136.161C346.39 136.13 346.405 136.101 346.429 136.081C346.453 136.061 346.484 136.05 346.515 136.051H346.528Z" fill="#FFC6C5"/>
<path d="M346.877 142.701C354.925 143.895 363.067 144.355 371.2 144.076L372.828 144.013C372.861 144.018 372.891 144.035 372.913 144.06C372.935 144.085 372.947 144.117 372.947 144.15C372.947 144.183 372.935 144.215 372.913 144.24C372.891 144.265 372.861 144.282 372.828 144.287L371.2 144.394C365.222 144.732 359.226 144.563 353.277 143.887C351.113 143.646 348.961 143.331 346.82 142.943C346.787 142.938 346.757 142.919 346.737 142.892C346.718 142.865 346.71 142.831 346.715 142.798C346.721 142.765 346.739 142.736 346.766 142.716C346.794 142.697 346.828 142.689 346.861 142.694L346.877 142.701Z" fill="#FFC6C5"/>
<path d="M349.708 149.81C356.213 150.319 362.741 150.488 369.265 150.314C369.298 150.319 369.328 150.335 369.35 150.36C369.371 150.386 369.383 150.418 369.383 150.451C369.383 150.484 369.371 150.516 369.35 150.541C369.328 150.566 369.298 150.583 369.265 150.588C364.365 150.89 359.45 150.867 354.553 150.518C352.922 150.405 351.294 150.252 349.67 150.059C349.639 150.052 349.613 150.035 349.595 150.01C349.577 149.985 349.568 149.954 349.571 149.923C349.575 149.893 349.589 149.864 349.612 149.844C349.634 149.823 349.664 149.811 349.695 149.81H349.708Z" fill="#FFC6C5"/>
<path d="M353.477 155.765C357.381 156.429 361.361 156.52 365.292 156.035C365.325 156.035 365.358 156.046 365.384 156.067C365.41 156.089 365.427 156.119 365.432 156.152C365.438 156.184 365.431 156.218 365.413 156.247C365.396 156.275 365.368 156.296 365.336 156.306C361.388 157.025 357.333 156.924 353.427 156.01C353.397 156.001 353.371 155.981 353.355 155.954C353.339 155.927 353.333 155.895 353.34 155.865C353.346 155.834 353.364 155.807 353.389 155.788C353.415 155.77 353.446 155.761 353.477 155.765V155.765Z" fill="#FFC6C5"/>
<path d="M355.553 161.483C357.609 161.691 359.674 161.788 361.741 161.773C362.429 161.773 363.118 161.751 363.807 161.729C363.843 161.729 363.879 161.743 363.905 161.768C363.932 161.793 363.948 161.827 363.949 161.864C363.95 161.898 363.939 161.931 363.916 161.956C363.894 161.982 363.863 161.998 363.829 162.002C362.447 162.177 361.054 162.24 359.662 162.191C358.271 162.151 356.885 162.002 355.518 161.744C355.487 161.738 355.459 161.719 355.441 161.693C355.423 161.667 355.415 161.635 355.419 161.604C355.424 161.573 355.44 161.544 355.465 161.524C355.49 161.504 355.521 161.494 355.553 161.496V161.483Z" fill="#FFC6C5"/>
<path d="M357.603 167.274C359.105 167.153 360.616 167.153 362.118 167.274C362.155 167.274 362.191 167.289 362.217 167.314C362.243 167.34 362.258 167.376 362.258 167.412C362.258 167.449 362.243 167.484 362.217 167.51C362.191 167.536 362.155 167.551 362.118 167.551C360.616 167.672 359.105 167.672 357.603 167.551C357.569 167.551 357.537 167.538 357.513 167.514C357.489 167.49 357.476 167.458 357.476 167.425C357.476 167.392 357.489 167.36 357.513 167.336C357.537 167.312 357.569 167.299 357.603 167.299V167.274Z" fill="#FFC6C5"/>
<path d="M357.984 172.797C359.43 172.722 360.88 172.769 362.318 172.936C362.351 172.941 362.382 172.957 362.403 172.982C362.425 173.007 362.437 173.039 362.437 173.073C362.437 173.106 362.425 173.138 362.403 173.163C362.382 173.188 362.351 173.205 362.318 173.21C360.871 173.278 359.421 173.223 357.984 173.046C357.954 173.041 357.927 173.026 357.907 173.003C357.887 172.98 357.877 172.951 357.877 172.922C357.877 172.892 357.887 172.863 357.907 172.84C357.927 172.817 357.954 172.802 357.984 172.797V172.797Z" fill="#FFC6C5"/>
<path d="M358.168 178.764C359.489 178.688 360.815 178.733 362.128 178.9C362.146 178.902 362.164 178.908 362.18 178.917C362.196 178.926 362.21 178.939 362.221 178.953C362.232 178.968 362.239 178.985 362.244 179.003C362.248 179.02 362.249 179.039 362.245 179.057C362.24 179.087 362.225 179.115 362.202 179.136C362.179 179.157 362.15 179.17 362.118 179.173C361.458 179.208 360.796 179.208 360.135 179.173C359.474 179.151 358.814 179.095 358.158 179.007C358.125 179.007 358.092 178.993 358.068 178.97C358.045 178.946 358.031 178.914 358.031 178.881C358.031 178.847 358.045 178.815 358.068 178.792C358.092 178.768 358.125 178.755 358.158 178.755L358.168 178.764Z" fill="#FFC6C5"/>
<path d="M358.174 183.96C358.828 183.96 360.49 184.011 361.122 184.017C361.439 184.017 361.779 184.017 362.109 184.039C362.145 184.041 362.18 184.056 362.205 184.083C362.23 184.109 362.243 184.144 362.242 184.181C362.241 184.212 362.229 184.242 362.208 184.266C362.187 184.29 362.159 184.307 362.128 184.313C360.805 184.524 359.455 184.488 358.145 184.209C358.115 184.202 358.088 184.184 358.07 184.159C358.052 184.134 358.044 184.103 358.047 184.072C358.051 184.041 358.066 184.013 358.089 183.992C358.113 183.972 358.143 183.96 358.174 183.96V183.96Z" fill="#FFC6C5"/>
<path d="M357.984 189.411C359.228 189.237 360.486 189.185 361.741 189.257C361.774 189.262 361.804 189.279 361.826 189.304C361.847 189.329 361.859 189.361 361.859 189.394C361.859 189.427 361.847 189.459 361.826 189.484C361.804 189.509 361.774 189.526 361.741 189.531C360.496 189.696 359.237 189.74 357.984 189.663C357.95 189.663 357.918 189.65 357.894 189.626C357.87 189.603 357.857 189.57 357.857 189.537C357.857 189.504 357.87 189.472 357.894 189.448C357.918 189.424 357.95 189.411 357.984 189.411Z" fill="#FFC6C5"/>
<path d="M387.698 43.2561C392.141 45.4183 394.362 50.4474 394.578 55.1588C394.647 57.5563 394.37 59.9513 393.756 62.2714C393.154 64.5775 392.388 66.8385 391.465 69.0378C391.46 69.0512 391.452 69.0634 391.442 69.0737C391.432 69.084 391.42 69.0922 391.406 69.0977C391.393 69.1033 391.379 69.1062 391.364 69.1062C391.35 69.1061 391.336 69.1032 391.322 69.0976C391.297 69.0871 391.277 69.0679 391.265 69.0435C391.254 69.0191 391.251 68.9914 391.259 68.9655C391.922 66.6838 392.693 64.4398 393.258 62.1487C393.874 59.8733 394.186 57.5274 394.185 55.1714C394.108 50.5639 391.986 45.5221 387.606 43.4513C387.593 43.4458 387.581 43.4378 387.571 43.4276C387.561 43.4174 387.554 43.4053 387.549 43.392C387.543 43.3788 387.541 43.3646 387.542 43.3504C387.543 43.3363 387.546 43.3224 387.552 43.3096C387.558 43.2964 387.567 43.2845 387.577 43.2746C387.588 43.2647 387.6 43.257 387.614 43.252C387.628 43.247 387.642 43.2448 387.657 43.2455C387.671 43.2462 387.685 43.2498 387.698 43.2561V43.2561Z" fill="#FFC6C5"/>
<path d="M387.362 48.0808C389.929 50.6426 391.751 54.7968 390.621 58.3972C390.611 58.4201 390.593 58.4388 390.571 58.4504C390.548 58.4619 390.523 58.4656 390.498 58.4609C390.473 58.4561 390.451 58.4432 390.435 58.4242C390.418 58.4052 390.409 58.3813 390.408 58.3563C390.578 56.5362 390.436 54.7008 389.989 52.9274C389.514 51.1395 388.551 49.5161 387.206 48.235C387.105 48.1437 387.26 47.9769 387.362 48.0808Z" fill="#FFC6C5"/>
<path d="M330.814 44.7605C325.885 49.1665 326.111 55.9235 327.729 61.7993C329.341 67.7349 332.489 73.0568 335.345 78.4794C335.352 78.492 335.356 78.5057 335.357 78.5198C335.358 78.534 335.356 78.5482 335.352 78.5616C335.347 78.5751 335.34 78.5876 335.331 78.5983C335.322 78.609 335.31 78.6178 335.297 78.6242C335.273 78.6371 335.245 78.6404 335.218 78.6333C335.192 78.6263 335.169 78.6095 335.155 78.5864C333.501 75.9864 331.987 73.3012 330.62 70.5422C326.879 62.7655 323.388 51.3947 330.68 44.5968C330.702 44.5776 330.73 44.5677 330.759 44.5692C330.773 44.5699 330.787 44.5734 330.8 44.5795C330.813 44.5856 330.825 44.5942 330.834 44.6047C330.844 44.6152 330.851 44.6275 330.856 44.6409C330.861 44.6543 330.863 44.6685 330.862 44.6826C330.861 44.6968 330.858 44.7107 330.852 44.7235C330.845 44.7363 330.837 44.7478 330.826 44.7573L330.814 44.7605Z" fill="#FFC6C5"/>
<path d="M330.503 53.497C330.358 56.2796 330.753 59.064 331.667 61.6986C332.395 63.7287 333.279 65.7004 334.311 67.5964C334.32 67.6203 334.321 67.6467 334.314 67.6711C334.306 67.6956 334.289 67.7166 334.268 67.7304C334.246 67.7442 334.22 67.75 334.194 67.7468C334.168 67.7436 334.144 67.7316 334.127 67.7129C331.804 64.7356 330.779 60.915 330.395 57.2233C330.271 55.9811 330.234 54.7318 330.284 53.4845C330.288 53.4588 330.302 53.4356 330.322 53.4188C330.342 53.4021 330.367 53.3929 330.393 53.3929C330.42 53.3929 330.445 53.4021 330.465 53.4188C330.485 53.4356 330.498 53.4588 330.503 53.4845V53.497Z" fill="#FFC6C5"/>
<path d="M341.298 84.7517C342.083 85.4796 342.742 86.3301 343.25 87.2695C343.262 87.2928 343.269 87.3182 343.271 87.3443C343.273 87.3705 343.27 87.3967 343.262 87.4216C343.254 87.4465 343.24 87.4695 343.223 87.4893C343.206 87.5091 343.185 87.5253 343.161 87.537C343.125 87.5559 343.084 87.5634 343.044 87.5583C343.004 87.5532 342.966 87.5359 342.936 87.5086C342.159 86.7798 341.508 85.9292 341.01 84.9909C340.992 84.9528 340.989 84.91 340.999 84.8695C341.009 84.829 341.033 84.793 341.066 84.7676C341.1 84.7421 341.141 84.7285 341.183 84.7291C341.225 84.7296 341.266 84.7443 341.298 84.7706V84.7517Z" fill="#FFC6C5"/>
<path d="M341.854 89.9162C342.345 90.4516 342.657 91.1242 342.748 91.8423C342.753 91.8956 342.736 91.9485 342.702 91.9897C342.667 92.0309 342.618 92.057 342.564 92.0626C342.529 92.0652 342.494 92.059 342.462 92.0447C342.43 92.0304 342.402 92.0085 342.38 91.9808C342.176 91.6976 342.005 91.3925 341.869 91.0713C341.725 90.7537 341.612 90.4226 341.533 90.083C341.525 90.0438 341.53 90.003 341.547 89.9667C341.565 89.9305 341.593 89.9008 341.629 89.882C341.665 89.8632 341.705 89.8564 341.745 89.8626C341.785 89.8688 341.822 89.8876 341.85 89.9162H341.854Z" fill="#FFC6C5"/>
<path d="M345.659 92.1035C346.338 92.8683 346.735 93.8393 346.785 94.8573C346.784 94.9029 346.768 94.9468 346.739 94.982C346.71 95.0172 346.669 95.0416 346.624 95.0511C346.579 95.0605 346.533 95.0547 346.491 95.0343C346.45 95.014 346.417 94.9805 346.398 94.9391C346.017 94.0453 345.693 93.1956 345.351 92.2892C345.326 92.2475 345.319 92.1977 345.331 92.1508C345.343 92.1038 345.374 92.0636 345.416 92.039C345.458 92.0144 345.508 92.0074 345.555 92.0195C345.603 92.0316 345.643 92.0618 345.668 92.1035H345.659Z" fill="#FFC6C5"/>
<path d="M345.16 97.3278C345.732 98.4259 346.143 99.5989 346.382 100.812C346.391 100.864 346.379 100.917 346.349 100.96C346.319 101.003 346.272 101.032 346.22 101.042C346.178 101.048 346.135 101.041 346.097 101.023C346.059 101.004 346.028 100.975 346.008 100.938C345.446 99.835 345.045 98.6588 344.818 97.4443C344.811 97.402 344.82 97.3587 344.842 97.3221C344.864 97.2855 344.899 97.2579 344.94 97.244C344.981 97.2301 345.025 97.2309 345.065 97.2462C345.106 97.2616 345.139 97.2904 345.16 97.3278Z" fill="#FFC6C5"/>
<path d="M348.613 100.123C348.813 100.418 349.673 102.832 349.101 102.829C349.063 102.83 349.025 102.819 348.992 102.8C348.959 102.781 348.932 102.753 348.914 102.719C348.528 101.932 348.306 101.076 348.264 100.201C348.264 100.161 348.278 100.121 348.303 100.089C348.328 100.057 348.364 100.034 348.403 100.024C348.443 100.013 348.485 100.016 348.523 100.032C348.56 100.047 348.592 100.075 348.613 100.11V100.123Z" fill="#FFC6C5"/>
<path d="M385.439 82.6966C385.37 83.0325 385.215 83.3452 384.989 83.6043C384.763 83.8634 384.473 84.0602 384.147 84.1758C384.106 84.1874 384.063 84.1862 384.022 84.1722C383.982 84.1582 383.947 84.1321 383.922 84.0976C383.898 84.063 383.884 84.0217 383.884 83.9793C383.884 83.937 383.897 83.8956 383.922 83.861C384.319 83.3795 384.684 82.9956 385.115 82.5392C385.144 82.5134 385.18 82.4969 385.218 82.4918C385.256 82.4867 385.295 82.4933 385.33 82.5107C385.364 82.5282 385.393 82.5556 385.411 82.5893C385.429 82.6231 385.437 82.6616 385.433 82.6997L385.439 82.6966Z" fill="#FFC6C5"/>
<path d="M381.783 83.6124C381.652 83.9595 381.44 84.271 381.164 84.5214C380.888 84.7719 380.557 84.9543 380.197 85.0538C380.154 85.062 380.11 85.0566 380.07 85.0384C380.031 85.0201 379.998 84.99 379.977 84.9523C379.956 84.9146 379.948 84.8713 379.953 84.8285C379.958 84.7857 379.977 84.7456 380.006 84.7139C380.511 84.2419 380.958 83.8579 381.498 83.411C381.53 83.3859 381.568 83.3714 381.609 83.3697C381.65 83.3681 381.69 83.3793 381.723 83.4018C381.757 83.4243 381.782 83.4568 381.796 83.4947C381.81 83.5326 381.811 83.5739 381.799 83.6124H381.783Z" fill="#FFC6C5"/>
<path d="M381.612 87.9555C381.558 88.3269 381.424 88.6825 381.221 88.9989C381.017 89.3152 380.748 89.585 380.431 89.7904C380.409 89.8045 380.383 89.8139 380.357 89.8181C380.33 89.8222 380.303 89.821 380.277 89.8146C380.251 89.8081 380.226 89.7965 380.205 89.7804C380.184 89.7644 380.166 89.7442 380.152 89.7211C380.135 89.6903 380.126 89.6556 380.126 89.6204C380.126 89.5852 380.135 89.5505 380.152 89.5197C380.491 88.9278 380.87 88.359 381.285 87.8171C381.311 87.7872 381.347 87.7664 381.385 87.7574C381.424 87.7485 381.465 87.7519 381.502 87.7672C381.539 87.7825 381.57 87.809 381.591 87.8428C381.612 87.8766 381.621 87.916 381.618 87.9555H381.612Z" fill="#FFC6C5"/>
<path d="M377.369 90.146C376.938 90.8352 376.592 91.4741 376.217 92.1979C376.196 92.2373 376.161 92.2682 376.119 92.2858C376.078 92.3034 376.031 92.3067 375.987 92.2951C375.944 92.2835 375.905 92.2577 375.878 92.2219C375.85 92.186 375.836 92.1422 375.837 92.0972C375.855 91.6526 375.986 91.2197 376.217 90.8384C376.348 90.6023 377.1 89.5795 377.369 89.9445C377.388 89.9731 377.398 90.0065 377.398 90.0405C377.398 90.0746 377.388 90.108 377.369 90.1365V90.146Z" fill="#FFC6C5"/>
<path d="M377.436 94.3695C377.347 94.6464 376.693 96.0721 376.338 95.7196C376.317 95.6981 376.3 95.6725 376.289 95.6443C376.278 95.6162 376.273 95.5861 376.274 95.556C376.307 95.2713 376.403 94.9972 376.555 94.7535C376.707 94.5097 376.911 94.3023 377.153 94.146C377.187 94.1264 377.226 94.1174 377.265 94.1202C377.304 94.123 377.341 94.1374 377.372 94.1616C377.402 94.1858 377.425 94.2186 377.436 94.2557C377.448 94.2928 377.448 94.3325 377.436 94.3695Z" fill="#FFC6C5"/>
<path d="M374.615 97.8566C374.266 98.5458 373.98 99.1721 373.663 99.8676C373.651 99.8921 373.635 99.9141 373.615 99.9321C373.594 99.9502 373.571 99.9641 373.545 99.9729C373.519 99.9817 373.492 99.9853 373.465 99.9834C373.438 99.9816 373.411 99.9743 373.387 99.962C373.355 99.9454 373.327 99.9207 373.308 99.8903C373.288 99.8599 373.277 99.8249 373.276 99.789C373.272 99.3709 373.371 98.9583 373.564 98.5867C373.682 98.3475 374.317 97.3279 374.612 97.6677C374.629 97.6963 374.638 97.729 374.638 97.7622C374.638 97.7954 374.629 97.828 374.612 97.8566H374.615Z" fill="#FFC6C5"/>
<path d="M253.207 87.6188C253.594 87.858 254.048 88.1947 254.423 88.4433L255.01 88.8399C255.311 89.0728 256.057 89.3938 255.692 89.8816C255.655 89.9254 255.61 89.9613 255.558 89.9873C255.507 90.0132 255.451 90.0287 255.394 90.0327C254.934 90.0294 254.482 89.9199 254.073 89.7128C253.663 89.5057 253.308 89.2069 253.036 88.8399C252.801 88.5252 252.29 87.7919 252.887 87.581C252.94 87.5666 252.996 87.5636 253.051 87.5723C253.106 87.581 253.158 87.6011 253.204 87.6314L253.207 87.6188Z" fill="#FFC6C5"/>
<path d="M253.969 92.4151C254.356 92.6259 254.807 92.9155 255.181 93.1264C255.555 93.3372 256.041 93.5953 256.412 93.8471C256.504 93.91 256.566 94.0062 256.586 94.1146C256.606 94.223 256.583 94.335 256.52 94.4261C256.241 94.7409 255.717 94.6181 255.349 94.552C254.91 94.4463 254.503 94.2368 254.163 93.9414C253.824 93.6461 253.561 93.2735 253.398 92.8557C253.376 92.7815 253.378 92.7028 253.402 92.6295C253.426 92.5562 253.472 92.4918 253.533 92.4445C253.595 92.3971 253.669 92.369 253.747 92.3638C253.824 92.3586 253.902 92.3764 253.969 92.4151V92.4151Z" fill="#FFC6C5"/>
<path d="M260.005 92.585C260.408 92.7739 260.868 93.0666 261.245 93.2806C261.658 93.5074 262.058 93.7574 262.442 94.0296C262.489 94.0624 262.529 94.1043 262.559 94.1529C262.59 94.2015 262.61 94.2556 262.618 94.3122C262.627 94.3687 262.624 94.4263 262.609 94.4816C262.595 94.5369 262.569 94.5887 262.534 94.6339C262.5 94.6775 262.457 94.7139 262.409 94.7409C262.36 94.768 262.307 94.7851 262.251 94.7912C261.811 94.8123 261.372 94.7331 260.968 94.5596C260.564 94.3861 260.205 94.123 259.919 93.7904C259.719 93.5769 259.563 93.3267 259.459 93.054C259.432 92.9811 259.429 92.9019 259.449 92.827C259.468 92.752 259.511 92.6848 259.57 92.634C259.629 92.5833 259.702 92.5515 259.78 92.5427C259.857 92.534 259.936 92.5487 260.005 92.585V92.585Z" fill="#FFC6C5"/>
<path d="M260.814 97.5576C261.537 97.8324 262.22 98.2018 262.845 98.656C262.906 98.707 262.951 98.7736 262.976 98.8484C263.001 98.9233 263.005 99.0035 262.987 99.0805C262.97 99.1574 262.931 99.228 262.876 99.2847C262.82 99.3414 262.75 99.3819 262.674 99.4018C262.302 99.4618 261.922 99.4261 261.568 99.2982C261.215 99.1704 260.9 98.9546 260.655 98.6717C260.485 98.4912 260.355 98.2766 260.275 98.0423C260.253 97.9701 260.252 97.8934 260.273 97.8209C260.294 97.7485 260.335 97.6834 260.391 97.6333C260.448 97.5831 260.518 97.5499 260.592 97.5376C260.667 97.5254 260.744 97.5345 260.814 97.5639V97.5576Z" fill="#FFC6C5"/>
<path d="M267.176 97.7401C267.96 98.0139 268.763 98.3192 269.562 98.5489C269.937 98.7063 270.832 98.7315 270.648 99.3452C270.625 99.4035 270.59 99.456 270.544 99.4991C270.499 99.5421 270.444 99.5745 270.384 99.5938C269.883 99.7196 269.36 99.7334 268.853 99.6344C268.346 99.5353 267.868 99.3258 267.452 99.021C267.135 98.7598 266.319 98.1996 266.818 97.7779C266.868 97.7451 266.925 97.7245 266.984 97.7179C267.044 97.7114 267.104 97.719 267.16 97.7401H267.176Z" fill="#FFC6C5"/>
<path d="M466.907 86.9547C466.757 87.3853 466.51 87.7762 466.185 88.0975C465.859 88.4188 465.464 88.662 465.029 88.8084C464.626 88.9437 463.759 89.1672 463.737 88.4937C463.74 88.4319 463.757 88.3716 463.787 88.3171C463.816 88.2627 463.858 88.2155 463.908 88.179C464.257 87.8957 464.737 87.5999 465.102 87.345C465.467 87.0901 465.936 86.7533 466.336 86.511C466.402 86.4723 466.478 86.454 466.555 86.4584C466.631 86.4627 466.705 86.4895 466.766 86.5353C466.827 86.5812 466.873 86.644 466.898 86.7159C466.924 86.7878 466.927 86.8654 466.907 86.939V86.9547Z" fill="#FFC6C5"/>
<path d="M466.126 91.7731C465.963 92.191 465.7 92.5635 465.361 92.8588C465.021 93.1542 464.614 93.3637 464.175 93.4694C463.759 93.5733 462.874 93.6897 462.934 93.0383C462.945 92.9783 462.969 92.9214 463.004 92.8714C463.039 92.8214 463.084 92.7796 463.137 92.7487C463.499 92.5064 463.972 92.2609 464.34 92.0437C464.708 91.8266 465.178 91.5339 465.577 91.3199C465.645 91.2849 465.722 91.2706 465.798 91.2786C465.874 91.2867 465.945 91.3169 466.004 91.3653C466.063 91.4137 466.106 91.4783 466.127 91.5508C466.149 91.6234 466.149 91.7007 466.126 91.7731Z" fill="#FFC6C5"/>
<path d="M460.066 91.9713C459.834 92.5086 459.443 92.9629 458.943 93.2734C458.444 93.5839 457.862 93.7357 457.273 93.7086C457.162 93.6959 457.061 93.6401 456.991 93.5534C456.921 93.4667 456.889 93.3561 456.902 93.246C456.917 93.1351 456.975 93.0345 457.064 92.9658C457.452 92.6857 457.856 92.4293 458.276 92.1979C458.663 91.9808 459.126 91.6849 459.545 91.493C459.615 91.4619 459.692 91.4516 459.767 91.4634C459.842 91.4752 459.912 91.5086 459.969 91.5594C460.025 91.6103 460.065 91.6764 460.084 91.7496C460.103 91.8228 460.1 91.8999 460.075 91.9713H460.066Z" fill="#FFC6C5"/>
<path d="M459.25 96.9533C459.068 97.4196 458.73 97.8097 458.293 98.0583C457.855 98.307 457.345 98.3991 456.848 98.3192C456.792 98.3059 456.74 98.282 456.694 98.2486C456.648 98.2153 456.61 98.1733 456.58 98.125C456.551 98.0768 456.531 98.0232 456.522 97.9674C456.514 97.9116 456.517 97.8547 456.53 97.7999C456.557 97.6983 456.619 97.6091 456.705 97.5482C457.003 97.3227 457.322 97.1247 457.657 96.9565C458.001 96.7667 458.358 96.6016 458.726 96.4624C458.796 96.4397 458.87 96.4364 458.941 96.4528C459.013 96.4691 459.078 96.5046 459.13 96.5552C459.183 96.6058 459.22 96.6697 459.238 96.7399C459.257 96.8101 459.255 96.8839 459.234 96.9533H459.25Z" fill="#FFC6C5"/>
<path d="M452.796 97.2271C452.485 97.6364 452.088 97.9734 451.633 98.2148C451.177 98.4561 450.674 98.5959 450.159 98.6245C449.714 98.6245 448.727 98.678 448.87 97.995C448.89 97.9364 448.923 97.8829 448.967 97.8383C449.01 97.7937 449.063 97.7591 449.121 97.737C449.41 97.63 449.689 97.5513 449.962 97.4695L450.749 97.224C451.298 97.0509 451.802 96.84 452.364 96.6543C452.439 96.6327 452.519 96.6342 452.593 96.6587C452.667 96.6831 452.731 96.7294 452.778 96.7912C452.825 96.8531 452.852 96.9276 452.855 97.0049C452.858 97.0822 452.837 97.1587 452.796 97.224V97.2271Z" fill="#FFC6C5"/>
</g>
<defs>
<linearGradient id="paint0_linear_2191_186" x1="252.5" y1="0" x2="252.5" y2="283" gradientUnits="userSpaceOnUse">
<stop stop-opacity="0"/>
<stop offset="1"/>
</linearGradient>
<clipPath id="clip0_2191_186">
<rect width="271" height="188" fill="white" transform="translate(225 18)"/>
</clipPath>
</defs>
</svg>
