<svg width="505" height="377" viewBox="0 0 505 377" fill="none" xmlns="http://www.w3.org/2000/svg">
<rect width="505" height="377" rx="10" fill="#C73B5D"/>
<path opacity="0.15" d="M0 9.99999C0 4.47714 4.47715 0 10 0H495C500.523 0 505 4.47715 505 10V283H0V9.99999Z" fill="url(#paint0_linear_2191_185)"/>
<path d="M0 283H505V367C505 372.523 500.523 377 495 377H10C4.47715 377 0 372.523 0 367V283Z" fill="white"/>
<path d="M252.358 54.9369C243.586 53.9778 234.971 56.517 227.12 60.417C219.987 64.0466 213.321 68.5942 207.276 73.9529C195.934 83.9267 186.433 96.8598 182.064 111.784C179.948 119.14 179.246 126.859 179.999 134.497C180.751 142.136 182.944 149.545 186.45 156.301C193.767 170.768 205.75 182.322 219.137 190.57C233.903 199.629 250.517 204.924 267.623 206.024C283.22 207.001 299.897 204.398 312.985 194.972C324.925 186.369 331.934 172.595 333.811 157.771C335.741 142.454 332.329 127.064 325.039 113.711C317.275 99.536 305.739 87.9455 293.028 78.5836C279.185 68.3906 263.087 59.4032 245.884 58.1245C241.745 57.8161 237.585 58.0123 233.489 58.709C232.848 58.8186 233.12 59.8233 233.752 59.7137C251.297 56.7636 268.552 63.9151 283.29 73.1948C296.335 81.415 308.529 91.608 317.819 104.249C326.811 116.515 332.776 131.065 333.329 146.601C333.837 161.105 329.82 176.121 320.293 186.99C309.722 199.037 293.879 204.161 278.606 205.01C262.056 205.807 245.559 202.53 230.453 195.447C203.539 182.925 177.616 156.036 180.915 122.964C182.441 107.674 190.065 93.6814 200.013 82.5841C205.083 76.9551 210.765 71.959 216.944 67.6964C223.962 62.883 231.567 58.6999 239.752 56.7362C243.884 55.7552 248.144 55.4959 252.358 55.969C252.999 56.0329 252.99 54.9917 252.358 54.9277V54.9369Z" fill="#E9FBFF"/>
<path d="M258.999 209.577C250.034 212.82 240.296 211.404 231.146 209.824C222.374 208.416 213.748 206.153 205.381 203.065C189.591 197.101 175.02 187.09 165.554 172.422C161.2 165.8 158.245 158.291 156.884 150.392C155.523 142.493 155.787 134.384 157.659 126.599C161.379 111.163 170.555 97.3715 182.336 87.3246C209.399 64.3172 248.033 62.7371 281.176 67.0755C290.859 68.3063 300.435 70.3187 309.818 73.0945C317.67 75.4419 325.828 78.2459 332.267 83.6712C339.066 89.3888 342.391 97.746 342.119 106.788C341.829 116.187 337.89 124.863 332.846 132.481C323.416 146.729 311.011 159.27 297.94 169.874C284.772 180.57 270.289 189.386 254.876 196.087C251.174 197.694 247.422 199.171 243.621 200.517C243.016 200.727 243.279 201.741 243.893 201.521C276.58 189.842 305.544 169.014 327.609 141.322C338.066 128.124 348.365 109.857 340.408 92.5033C336.978 85.0595 330.276 80.1548 323.214 76.8758C314.74 72.9393 305.511 70.5371 296.44 68.6556C277.875 64.6254 258.858 63.3249 239.945 64.7921C222.663 66.2626 205.381 70.7472 190.433 80.1548C164.186 96.6682 146.465 131.558 159.308 162.713C165.791 178.45 178.45 190.707 192.872 198.526C200.976 202.818 209.547 206.081 218.4 208.244C227.409 210.527 236.91 212.409 246.2 212.564C250.631 212.719 255.054 212.054 259.262 210.6C259.868 210.381 259.613 209.376 258.999 209.595V209.577Z" fill="#E9FBFF"/>
<path d="M185.347 115.254C187.306 113.213 187.306 109.906 185.347 107.865C183.387 105.825 180.21 105.825 178.25 107.865C176.291 109.906 176.291 113.213 178.25 115.254C180.21 117.294 183.387 117.294 185.347 115.254Z" fill="#E9FBFF"/>
<path d="M192.828 54.8181C192.828 55.4373 192.652 56.0426 192.322 56.5576C191.992 57.0726 191.522 57.4742 190.973 57.7115C190.423 57.9489 189.819 58.0115 189.235 57.8914C188.652 57.7712 188.116 57.4738 187.695 57.0365C187.274 56.5993 186.986 56.042 186.869 55.4348C186.752 54.8277 186.81 54.1981 187.037 53.6255C187.263 53.0529 187.648 52.563 188.141 52.2177C188.635 51.8723 189.216 51.6871 189.811 51.6853C190.206 51.6841 190.599 51.7642 190.965 51.9211C191.331 52.078 191.664 52.3086 191.944 52.5996C192.224 52.8906 192.447 53.2364 192.598 53.6171C192.75 53.9978 192.828 54.4059 192.828 54.8181V54.8181Z" fill="#E9FBFF"/>
<path d="M176.783 159.589C176.78 160.207 176.6 160.811 176.268 161.324C175.935 161.837 175.464 162.236 174.914 162.47C174.364 162.704 173.759 162.764 173.177 162.641C172.594 162.518 172.06 162.218 171.641 161.779C171.221 161.34 170.937 160.782 170.822 160.175C170.707 159.568 170.768 158.939 170.996 158.367C171.224 157.796 171.61 157.308 172.104 156.964C172.599 156.621 173.18 156.438 173.774 156.438C174.171 156.438 174.564 156.519 174.93 156.678C175.296 156.836 175.629 157.069 175.908 157.362C176.188 157.654 176.409 158.002 176.559 158.384C176.709 158.766 176.786 159.176 176.783 159.589V159.589Z" fill="#E9FBFF"/>
<path d="M303.493 108.944C303.493 109.46 303.346 109.965 303.071 110.395C302.795 110.825 302.403 111.159 301.945 111.357C301.486 111.555 300.982 111.607 300.495 111.506C300.008 111.405 299.561 111.156 299.21 110.791C298.86 110.426 298.621 109.96 298.524 109.453C298.427 108.947 298.477 108.421 298.667 107.944C298.856 107.467 299.178 107.059 299.591 106.772C300.003 106.485 300.488 106.332 300.985 106.332C301.314 106.332 301.64 106.399 301.945 106.53C302.249 106.662 302.526 106.854 302.759 107.097C302.992 107.339 303.176 107.627 303.302 107.944C303.429 108.261 303.493 108.601 303.493 108.944V108.944Z" fill="#E9FBFF"/>
<path d="M216.9 107.555C216.9 107.798 216.83 108.035 216.701 108.236C216.571 108.438 216.387 108.595 216.172 108.687C215.957 108.779 215.72 108.803 215.492 108.755C215.263 108.707 215.054 108.59 214.89 108.418C214.726 108.246 214.614 108.027 214.57 107.789C214.526 107.551 214.55 107.304 214.641 107.081C214.731 106.857 214.883 106.667 215.077 106.533C215.272 106.4 215.5 106.33 215.733 106.332C216.043 106.334 216.34 106.464 216.558 106.693C216.777 106.923 216.9 107.232 216.9 107.555Z" fill="#E9FBFF"/>
<path d="M292.791 38.9809C292.791 39.3606 292.683 39.7318 292.48 40.0474C292.277 40.363 291.989 40.6089 291.652 40.7538C291.315 40.8987 290.944 40.9361 290.586 40.8614C290.229 40.7866 289.9 40.603 289.643 40.3339C289.386 40.0647 289.211 39.7221 289.141 39.3494C289.071 38.9768 289.109 38.5908 289.249 38.2405C289.39 37.8902 289.628 37.5913 289.932 37.3816C290.236 37.172 290.593 37.061 290.958 37.0628C291.199 37.0628 291.438 37.1125 291.661 37.209C291.884 37.3055 292.087 37.4469 292.257 37.6252C292.428 37.8034 292.562 38.0149 292.654 38.2476C292.746 38.4802 292.792 38.7294 292.791 38.9809Z" fill="#E9FBFF"/>
<path d="M292.791 194.224C292.793 194.604 292.686 194.976 292.484 195.293C292.283 195.609 291.995 195.857 291.658 196.003C291.321 196.149 290.95 196.188 290.592 196.114C290.233 196.041 289.904 195.858 289.646 195.589C289.388 195.32 289.212 194.978 289.142 194.605C289.071 194.232 289.108 193.845 289.249 193.494C289.389 193.144 289.627 192.844 289.931 192.634C290.235 192.424 290.593 192.313 290.958 192.315C291.444 192.315 291.91 192.516 292.254 192.874C292.598 193.232 292.791 193.717 292.791 194.224V194.224Z" fill="#E9FBFF"/>
<path d="M364.006 151.935C364.006 152.84 363.748 153.725 363.264 154.477C362.78 155.229 362.092 155.814 361.288 156.158C360.484 156.502 359.6 156.59 358.748 156.41C357.896 156.23 357.115 155.791 356.503 155.148C355.891 154.504 355.477 153.686 355.313 152.797C355.149 151.909 355.242 150.989 355.58 150.155C355.919 149.322 356.488 148.612 357.215 148.115C357.942 147.619 358.795 147.359 359.664 147.368C360.82 147.38 361.924 147.867 362.737 148.722C363.55 149.577 364.006 150.732 364.006 151.935V151.935Z" fill="#E9FBFF"/>
<path d="M148.027 193.009C150.614 193.009 152.711 190.825 152.711 188.131C152.711 185.438 150.614 183.254 148.027 183.254C145.44 183.254 143.342 185.438 143.342 188.131C143.342 190.825 145.44 193.009 148.027 193.009Z" fill="#E9FBFF"/>
<path d="M143.684 80.401C143.684 80.7804 143.576 81.1512 143.374 81.4666C143.172 81.7821 142.884 82.0279 142.547 82.1731C142.211 82.3182 141.84 82.3562 141.483 82.2822C141.125 82.2082 140.797 82.0255 140.54 81.7573C140.282 81.489 140.106 81.1473 140.035 80.7752C139.964 80.4032 140.001 80.0175 140.14 79.667C140.28 79.3166 140.516 79.017 140.819 78.8062C141.122 78.5955 141.478 78.483 141.842 78.483C142.084 78.4818 142.325 78.5306 142.549 78.6265C142.773 78.7225 142.976 78.8637 143.147 79.0421C143.319 79.2204 143.454 79.4323 143.547 79.6656C143.639 79.8989 143.686 80.1488 143.684 80.401V80.401Z" fill="#E9FBFF"/>
<path d="M255.683 23.143C258.639 23.143 261.035 20.6486 261.035 17.5716C261.035 14.4945 258.639 12.0001 255.683 12.0001C252.728 12.0001 250.332 14.4945 250.332 17.5716C250.332 20.6486 252.728 23.143 255.683 23.143Z" fill="#E9FBFF"/>
<path d="M283.773 256.359C285.803 256.359 287.449 254.646 287.449 252.532C287.449 250.418 285.803 248.705 283.773 248.705C281.743 248.705 280.097 250.418 280.097 252.532C280.097 254.646 281.743 256.359 283.773 256.359Z" fill="#E9FBFF"/>
<path d="M334.25 96.2299C336.648 96.2299 338.592 94.2057 338.592 91.7088C338.592 89.2119 336.648 87.1877 334.25 87.1877C331.852 87.1877 329.907 89.2119 329.907 91.7088C329.907 94.2057 331.852 96.2299 334.25 96.2299Z" fill="#E9FBFF"/>
<path d="M211.163 174.97L214.601 172.048C213.066 168.394 209.391 167.791 207.329 167.746L203.82 169.655C204.829 174.97 211.163 174.97 211.163 174.97Z" fill="#1D3542"/>
<path d="M239.735 171.234C239.735 171.234 234.112 167.654 230.366 172.203C230.366 172.203 226.927 169.28 220.997 173.828L218.812 174.806C218.812 174.806 224.743 179.683 231.305 176.112C231.305 176.112 241.603 177.737 241.919 174.806C242.042 174.035 241.887 173.244 241.484 172.585C241.081 171.925 240.458 171.445 239.735 171.234Z" fill="#1D3542"/>
<path d="M257.683 105.08C257.683 105.08 275.799 96.9511 279.229 81.0222C282.659 65.0933 269.579 47.5386 269.579 47.5386C269.579 47.5386 215.251 95.9464 227.111 106.048C233.252 111.245 257.71 108.98 257.71 108.98" fill="#1D3542"/>
<g style="mix-blend-mode:multiply" opacity="0.22">
<path d="M236.138 87.1965C236.138 87.1965 242.077 102.797 252.999 102.148C263.921 101.5 271.623 86.9773 272.299 79.6157C272.974 72.254 234.884 79.0677 236.13 87.1965" fill="#1D3542"/>
</g>
<path d="M236.77 183.418C236.77 183.418 224.9 202.279 224.278 205.202C224.278 205.202 183.994 207.476 174.634 211.705C165.274 215.934 161.826 228.593 169.949 235.114C178.073 241.636 232.085 243.892 247.069 238.366C247.069 238.366 324.504 249.089 337.619 233.489C350.734 217.888 313.889 202.599 282.668 204.261C282.668 204.261 271.737 181.829 265.807 178.906C259.877 175.984 236.77 183.418 236.77 183.418Z" fill="#77CAD9"/>
<g style="mix-blend-mode:multiply" opacity="0.23">
<path d="M193.363 212.682C192.775 213.358 189.617 214.957 192.74 216.254C195.863 217.551 213.04 227.305 217.409 226.008C221.777 224.711 196.486 209.102 193.363 212.682Z" fill="#D25A5C"/>
</g>
<g style="mix-blend-mode:multiply" opacity="0.23">
<path d="M285.747 224.337C286.413 224.382 299.835 220.811 305.774 218.208C311.713 215.605 312.95 213.641 314.547 213.641C316.143 213.641 315.801 210.39 311.424 210.71C307.046 211.029 288.94 219.185 288.94 219.185L285.773 224.812" fill="#D25A5C"/>
</g>
<g style="mix-blend-mode:multiply" opacity="0.23">
<path d="M281.413 216.253C281.413 216.253 267.052 219.505 264.868 219.185C262.683 218.866 269.254 204.882 284.536 203.576C284.536 203.576 269.552 203.256 259.56 214.956C249.569 226.657 241.138 212.034 234.892 208.782C234.892 208.782 244.928 221.953 245.419 223.661C245.419 223.661 260.955 221.578 265.429 222.327C265.429 222.327 276.781 222.437 282.237 216.098L281.413 216.253Z" fill="#D25A5C"/>
</g>
<path d="M227.874 222.61C232.445 224.729 237.445 224.748 242.34 224.3C247.771 223.807 253.166 223.104 258.613 222.839C264.367 222.525 270.134 222.604 275.878 223.076C277.598 223.176 279.307 223.414 280.992 223.789C282.448 224.154 283.896 224.583 285.334 225.022C288.44 225.935 291.589 226.894 294.607 228.109C294.975 228.264 295.142 227.634 294.774 227.488C292.238 226.465 289.607 225.661 287.01 224.866C284.44 223.933 281.799 223.227 279.115 222.757C267.921 221.359 256.604 222.072 245.446 223.323C239.7 223.971 233.629 224.574 228.199 222.053C227.831 221.88 227.515 222.446 227.883 222.61H227.874Z" fill="#AA353B"/>
<path d="M223.54 228.803C231.727 233.774 240.646 237.305 249.937 239.252C250.332 239.325 250.498 238.704 250.104 238.622C240.865 236.694 231.996 233.188 223.856 228.246C223.785 228.202 223.701 228.19 223.621 228.211C223.541 228.233 223.473 228.286 223.431 228.36C223.389 228.434 223.377 228.522 223.398 228.605C223.418 228.688 223.47 228.76 223.54 228.803Z" fill="#AA353B"/>
<path d="M207.531 218.482C202.732 217.24 197.618 216.062 192.811 217.888C192.433 218.034 192.591 218.665 192.977 218.519C197.688 216.692 202.627 217.888 207.364 219.103C207.443 219.126 207.528 219.115 207.6 219.074C207.671 219.032 207.724 218.962 207.746 218.879C207.768 218.797 207.758 218.709 207.717 218.634C207.677 218.56 207.61 218.505 207.531 218.482Z" fill="#AA353B"/>
<g style="mix-blend-mode:multiply" opacity="0.49">
<g style="mix-blend-mode:multiply" opacity="0.49">
<path d="M244.823 223.286L239.559 215.422Z" fill="#D25A5C"/>
</g>
</g>
<mask id="mask0_2191_185" style="mask-type:alpha" maskUnits="userSpaceOnUse" x="165" y="178" width="176" height="64">
<path d="M236.77 183.419C236.77 183.419 224.901 202.279 224.278 205.202C224.278 205.202 183.994 207.476 174.634 211.705C165.274 215.934 161.826 228.593 169.95 235.115C178.073 241.636 232.085 243.892 247.069 238.366C247.069 238.366 324.504 249.089 337.619 233.489C350.734 217.889 313.889 202.599 282.668 204.261C282.668 204.261 271.737 181.829 265.807 178.907C259.877 175.984 236.77 183.419 236.77 183.419Z" fill="#D25A5C"/>
</mask>
<g mask="url(#mask0_2191_185)">
<g style="mix-blend-mode:multiply" opacity="0.23">
<path d="M252.253 239.015C241.64 237.666 231.503 233.647 222.716 227.305C222.716 227.305 231.489 239.992 241.454 241.919C251.42 243.846 252.253 239.015 252.253 239.015Z" fill="#D25A5C"/>
</g>
<path d="M285.317 203.092C283.166 203.24 281.041 203.667 278.992 204.362C276.915 204.992 274.905 205.84 272.991 206.892C272.641 207.093 272.991 207.65 273.307 207.449C275.172 206.425 277.133 205.602 279.159 204.992C281.147 204.309 283.21 203.889 285.299 203.741C285.703 203.741 285.703 203.074 285.299 203.092H285.317Z" fill="#AA353B"/>
<path d="M222.716 205.22C226.018 205.358 229.142 206.817 231.436 209.294C231.708 209.595 232.155 209.139 231.875 208.837C229.464 206.24 226.183 204.712 222.716 204.572C222.313 204.572 222.313 205.202 222.716 205.22Z" fill="#AA353B"/>
</g>
<path d="M279.729 218.144C275.781 220.254 271.702 221.889 267.21 221.944C267.137 221.957 267.07 221.996 267.021 222.056C266.973 222.115 266.947 222.19 266.947 222.268C266.947 222.346 266.973 222.421 267.021 222.48C267.07 222.54 267.137 222.579 267.21 222.592C271.816 222.537 275.983 220.866 280.044 218.71C280.395 218.519 280.044 217.952 279.729 218.144V218.144Z" fill="#AA353B"/>
<path d="M223.242 119.776C223.242 120.424 221.909 125.046 220.611 137.13C219.312 149.213 212.522 165.836 212.61 167.782C212.698 169.727 208.399 171.572 205.022 179.865C201.645 188.159 194.407 194.05 192.609 195.767C190.049 195.09 187.394 194.889 184.766 195.173C180.731 195.694 176.924 194.58 176.248 193.347C176.248 193.347 174.45 195.064 176.081 196.607C177.713 198.151 181.398 196.68 182.415 198.58C183.433 200.48 181.082 203.53 178.854 202.663C178.091 202.391 177.399 201.941 176.83 201.347C176.262 200.754 175.831 200.032 175.573 199.238C175.213 198.324 176.599 194.306 173.748 193.465C173.748 193.465 172.871 198.881 173.265 200.16C173.265 200.16 169.318 195.803 167.221 197.858C167.221 197.858 171.125 201.247 171.485 202.206C171.485 202.206 168.291 200.736 167.441 202.727C168.751 203.571 170.145 204.266 171.599 204.8C172.862 205.065 173.809 205.348 174.485 206.289C174.485 206.289 170.976 205.805 170.8 207.768C170.8 207.768 174.23 207.604 175.818 208.179C177.406 208.755 183.363 209.093 185.468 207.704C187.573 206.316 216.847 189.583 223.339 173.965C223.339 173.965 231.155 146.254 231.182 139.742" fill="#F4A082"/>
<g style="mix-blend-mode:multiply" opacity="0.21">
<path d="M217.408 152.218C217.408 152.218 223.962 166.192 232.392 171.718C240.822 177.244 228.339 142.135 217.408 152.218" fill="#D18161"/>
</g>
<path d="M285.475 121.009C285.475 121.657 286.247 123.575 287.492 135.686C288.738 147.797 295.388 164.457 295.274 166.403C295.16 168.348 299.458 170.22 302.774 178.55C306.09 186.88 313.301 192.817 315.056 194.543C317.622 193.885 320.28 193.706 322.907 194.013C326.942 194.561 330.75 193.474 331.443 192.187C331.443 192.187 333.197 193.913 331.583 195.447C329.969 196.982 326.267 195.447 325.232 197.365C324.197 199.283 326.539 202.325 328.741 201.475C329.505 201.21 330.201 200.766 330.774 200.177C331.347 199.588 331.783 198.87 332.048 198.078C332.408 197.119 331.048 193.136 333.908 192.324C333.908 192.324 334.724 197.74 334.347 199.018C334.347 199.018 338.32 194.689 340.4 196.762C340.4 196.762 336.478 200.124 336.11 201.073C336.11 201.073 339.312 199.63 340.145 201.631C338.831 202.466 337.434 203.152 335.978 203.677C334.715 203.923 333.759 204.197 333.083 205.138C333.083 205.138 336.548 204.681 336.759 206.645C336.759 206.645 333.329 206.453 331.741 207.019C330.153 207.586 324.188 207.933 322.091 206.471C319.995 205.01 290.835 188.104 284.457 172.449C284.457 172.449 276.834 144.665 276.86 138.162" fill="#F4A082"/>
<g style="mix-blend-mode:multiply" opacity="0.21">
<path d="M284.554 178.221C284.554 178.221 290.493 167.818 295.8 166.521C301.107 165.224 281.729 153.515 284.554 178.221Z" fill="#D18161"/>
</g>
<path d="M236.138 184.752L230.208 140.536L222.777 122.269C222.777 122.269 221.33 117.648 238.015 109.3C254.885 100.86 284.51 110.925 285.624 122.087C286.826 134.344 278.299 138.28 278.299 138.28L271.737 184.752C271.737 184.752 256.482 192.853 236.138 184.752Z" fill="#F4A082"/>
<g style="mix-blend-mode:multiply" opacity="0.21">
<path d="M232.392 171.718C232.304 172.44 261.183 192.506 275.044 181.464C288.905 170.422 235.208 148.309 232.392 171.718Z" fill="#D18161"/>
</g>
<path d="M239.814 109.253C239.288 110.879 248.587 99.2066 247.709 82.3186H258.236C258.236 82.3186 258.236 103.326 268.921 109.893C268.93 109.856 252.139 126.114 239.814 109.253Z" fill="#F4A082"/>
<g style="mix-blend-mode:multiply" opacity="0.34">
<path d="M252.85 102.148C258.112 102.148 262.377 98.5821 262.377 94.1834C262.377 89.7848 258.112 86.219 252.85 86.219C247.588 86.219 243.323 89.7848 243.323 94.1834C243.323 98.5821 247.588 102.148 252.85 102.148Z" fill="#D18161"/>
</g>
<path d="M227.401 222.437C227.401 222.437 226.146 218.857 224.9 214.957C223.655 211.057 218.347 210.728 214.286 213.002C210.224 215.276 201.794 210.079 198.671 209.751C195.548 209.422 191.179 209.751 192.117 212.354C193.214 215.395 197.109 212.682 198.671 214.628C200.232 216.573 218.347 228.931 223.655 228.931C223.655 228.931 227.401 227.963 227.401 222.437Z" fill="#F4A082"/>
<path d="M280.273 217.715C280.273 217.715 281.843 214.281 283.449 210.527C285.054 206.773 290.37 206.974 294.195 209.614C298.02 212.253 306.897 207.951 310.038 207.942C313.179 207.933 317.495 208.691 316.328 211.185C314.951 214.107 311.319 211.011 309.591 212.792C307.862 214.573 288.686 225.058 283.405 224.529C283.405 224.565 279.764 223.223 280.273 217.715Z" fill="#F4A082"/>
<path d="M224.541 118.442C224.918 118.442 276.799 138.344 286.598 128.051C286.598 128.051 288.563 144.555 290.782 150.885C293.282 158.036 295.783 166.165 295.783 166.494C295.783 166.494 292.344 165.836 281.747 176.897C267.395 191.84 236.287 178.267 217.339 152.063C217.321 152.09 219.488 118.159 224.541 118.442Z" fill="#FFD2B9"/>
<mask id="mask1_2191_185" style="mask-type:alpha" maskUnits="userSpaceOnUse" x="217" y="118" width="79" height="66">
<path d="M224.541 118.442C224.918 118.442 276.799 138.344 286.598 128.051C286.598 128.051 288.563 144.555 290.782 150.885C293.282 158.036 295.783 166.165 295.783 166.494C295.783 166.494 292.344 165.836 281.747 176.897C267.395 191.84 236.287 178.267 217.339 152.063C217.321 152.09 219.488 118.159 224.541 118.442Z" fill="#FFD2B9"/>
</mask>
<g mask="url(#mask1_2191_185)">
<path d="M214.645 134.208C220.637 131.166 228.55 135.934 234.603 132.984C235.25 132.595 235.939 132.288 236.656 132.07C237.331 131.981 238.015 132.005 238.682 132.143L258.192 135.066C259.932 135.375 261.691 135.552 263.456 135.596C265.772 135.596 268.158 135.185 270.369 135.852C271.412 136.171 272.369 136.765 273.395 137.094C276.097 138.007 279.097 137.688 281.948 137.313L293.607 135.788C294.712 135.642 296.239 135.788 296.353 136.884C296.467 137.98 294.756 138.336 293.554 138.336C289.966 138.336 286.475 139.377 282.904 139.743C280.33 139.96 277.745 139.991 275.167 139.834C262.763 139.396 250.37 138.787 237.989 138.007C235.594 137.861 233.199 137.706 230.84 137.313C230.012 137.105 229.155 137.065 228.313 137.194C227.629 137.359 227.023 137.761 226.348 137.971C223.716 138.774 221.085 136.473 218.374 136.637C217.172 136.719 216.014 137.277 214.812 137.176C213.61 137.076 212.417 135.733 213.163 134.82" fill="#FCEBE6"/>
<path d="M212.373 144.464C212.637 143.076 214.567 142.583 215.979 143.012C217.391 143.441 218.532 144.437 219.9 144.957C224.12 146.574 228.673 143.368 233.243 143.578C236.314 143.715 239.226 145.405 242.27 145.076C243.147 144.966 244.025 144.683 244.902 144.565C246.814 144.483 248.727 144.733 250.56 145.304C256.701 146.702 263.07 146.821 269.386 146.921L280.975 147.113C284.484 147.168 287.993 147.222 291.352 146.327C292.627 145.887 293.945 145.602 295.283 145.478C296.634 145.478 298.107 146.063 298.581 147.305L286.94 148.903C285.045 149.159 283.159 149.415 281.247 149.478C278.343 149.57 275.448 149.214 272.535 149.086C263.526 148.684 254.429 150.556 245.516 149.204C243.174 148.848 240.832 148.291 238.498 148.419C236.454 148.556 234.463 149.232 232.427 149.168C230.909 149.033 229.409 148.727 227.953 148.255C222.767 146.92 217.4 146.518 212.084 147.067L210.145 144.126L212.496 144.017" fill="#FCEBE6"/>
<path d="M212.4 155.005C215.146 153.278 218.777 153.699 221.918 154.63C225.058 155.562 228.129 156.941 231.41 156.959C234.489 156.959 237.445 155.79 240.516 155.635C245.402 155.397 250.165 157.79 255.034 157.114C257.078 156.831 259.017 156.009 261.078 155.854C262.604 155.807 264.129 155.948 265.623 156.274L274.667 157.863C275.593 158.061 276.538 158.15 277.483 158.128C278.686 157.983 279.865 157.676 280.992 157.215C283.895 156.179 286.865 155.358 289.879 154.758C291.502 154.429 293.282 154.183 294.765 154.922C295.298 155.28 295.862 155.585 296.449 155.836C297.642 156.174 298.87 155.516 300.09 155.242C301.309 154.968 303.002 155.489 302.941 156.685C299.502 157.863 295.712 157.27 292.063 157.434C288.186 157.617 284.422 158.658 280.597 159.261C274.6 160.24 268.488 160.181 262.508 159.087C260.484 158.638 258.432 158.332 256.368 158.174C253.906 158.205 251.451 158.437 249.025 158.868C242.884 159.626 236.743 159.197 230.603 158.759L220.523 158.046C217.921 157.936 215.331 157.612 212.777 157.078C212.226 157.013 211.717 156.74 211.347 156.311C211.274 156.202 211.228 156.075 211.216 155.943C211.203 155.81 211.223 155.677 211.274 155.555C211.325 155.433 211.405 155.327 211.507 155.246C211.609 155.166 211.729 155.114 211.856 155.096" fill="#FCEBE6"/>
<path d="M223.725 166.586C226.067 165.554 228.822 165.928 231.287 166.65C233.752 167.371 236.138 168.431 238.691 168.732C245.963 169.646 253.525 164.357 260.289 167.061C261.473 167.536 262.622 168.257 263.903 168.203C264.852 168.048 265.782 167.785 266.675 167.417C269.307 166.668 272.114 167.682 274.667 168.687C275.586 169.154 276.622 169.314 277.632 169.143C278.312 168.824 278.974 168.464 279.615 168.066C281.168 167.381 282.957 168.066 284.65 168.303C287.159 168.659 289.686 168.011 292.195 167.655C294.704 167.298 297.458 167.289 299.528 168.705C297.881 169.726 295.998 170.26 294.081 170.248C287.694 170.669 281.15 169.655 274.965 171.226C273.995 171.541 272.989 171.722 271.974 171.765C270.868 171.644 269.784 171.361 268.754 170.924C264.772 169.573 260.447 169.536 256.218 169.518C254.462 169.475 252.705 169.53 250.955 169.682C246.937 170.093 243.016 171.509 238.972 171.363C234.094 171.189 229.515 168.732 224.629 168.687C223.925 168.737 223.218 168.657 222.541 168.449C221.892 168.175 221.374 167.472 221.602 166.833C221.83 166.193 223.023 166.102 223.172 166.769" fill="#FCEBE6"/>
<path d="M214.373 126.572C215.637 124.325 218.646 123.494 221.304 123.713C223.962 123.932 226.453 124.992 229.05 125.54C231.752 126.143 234.535 126.242 237.27 125.832C238.708 125.494 240.184 125.368 241.656 125.457C243.016 125.802 244.355 126.232 245.665 126.745C250.464 128.088 255.315 125.174 260.306 124.526C263.631 124.087 267 124.681 270.289 125.284C278.343 126.782 286.563 128.398 294.677 127.266C294.624 129.166 292.045 129.814 290.054 129.878C282.221 130.134 274.38 129.869 266.579 129.083C262.683 128.546 258.753 128.317 254.824 128.398C252.069 128.554 249.332 129.074 246.586 128.965C241.945 128.791 237.515 126.855 232.875 126.782C230.493 126.863 228.118 127.085 225.76 127.448C222.521 127.781 219.257 127.719 216.031 127.266C215.362 127.248 214.719 126.986 214.216 126.526C213.786 126.033 213.952 125.074 214.619 124.982" fill="#FCEBE6"/>
<path d="M240.542 176.66C247.876 176.843 255.253 177.025 262.473 176.075C264.086 175.804 265.716 175.654 267.351 175.628C268.791 175.698 270.225 175.878 271.64 176.167C276.904 177.08 282.167 177.783 287.501 178.258C282.913 180.377 277.553 180.14 272.509 179.464C267.465 178.788 262.394 177.71 257.341 178.304C254.42 178.651 251.56 179.546 248.621 179.446C246.382 179.37 244.199 178.7 242.279 177.5" fill="#FCEBE6"/>
</g>
<path d="M273.526 75.2135C273.526 88.649 259.087 99.5453 252.999 99.5453C246.911 99.5453 232.48 88.649 232.48 75.2135C232.48 61.7781 241.252 44.9358 252.657 44.9358C264.061 44.9358 273.526 61.7689 273.526 75.2135Z" fill="#F4A082"/>
<g style="mix-blend-mode:multiply" opacity="0.18">
<path d="M252.481 52.1149C252.481 52.1149 259.859 68.3269 271.693 74.2089L256.999 51.6856L248.227 49.7219C248.227 49.7219 235.208 70.0166 237.086 76.1452C237.086 76.1452 247.876 54.3891 254.788 52.2153C261.701 50.0415 251.043 49.0186 251.043 49.0186" fill="#A05940"/>
</g>
<path d="M252.692 52.7353C252.692 52.7353 242.077 59.8868 237.077 76.1446C237.077 76.1446 234.27 83.2961 236.138 87.1962C238.007 91.0962 245.2 96.3297 243.639 101.17C243.587 103.936 242.943 106.655 241.755 109.129C240.567 111.603 238.864 113.771 236.77 115.474C236.77 115.474 243.639 112.551 249.569 123.931C249.569 123.931 262.061 117.099 271.114 129.128C271.114 129.128 277.667 121.328 284.229 131.412C284.229 131.412 290.159 127.183 293.282 135.312C293.282 135.312 297.967 131.412 296.405 142.134C296.405 142.134 301.713 146.701 295.16 150.912C295.16 150.912 296.09 153.186 292.344 155.479L290.475 149.953C291.364 149.237 292.478 148.892 293.598 148.985C293.598 148.985 291.721 144.418 294.844 142.153C293.407 141.744 292.139 140.855 291.236 139.622C290.332 138.389 289.843 136.881 289.844 135.33C289.844 135.33 284.229 139.23 280.483 132.398C280.483 132.398 271.421 140.207 264.245 129.804C264.245 129.804 249.885 139.851 243.323 126.553C243.323 126.553 225.524 135.001 224.594 118.424C224.594 118.424 215.225 105.098 227.085 97.2887C227.085 97.2887 216.19 82.2823 222.699 68.9747C229.568 54.9913 236.121 34.1851 251.113 42.9624C251.113 42.9624 277.343 30.9335 273.597 75.8432C273.614 75.8158 260.5 65.4126 252.692 52.7353Z" fill="#1D3542"/>
<path d="M237.331 77.1863C237.928 79.7163 237.103 82.091 235.489 82.502C233.875 82.913 232.094 81.205 231.498 78.6751C230.901 76.1451 231.726 73.7703 233.34 73.3593C234.954 72.9483 236.735 74.6563 237.331 77.1863Z" fill="#F4A082"/>
<path d="M271.482 74.9117C270.895 77.4326 271.71 79.8164 273.325 80.2274C274.939 80.6385 276.719 78.9305 277.316 76.4005C277.913 73.8705 277.088 71.4958 275.483 71.0848C273.877 70.6738 272.079 72.4091 271.482 74.9117Z" fill="#F4A082"/>
<path d="M218.97 149.615C212.408 147.341 209.601 155.46 209.601 155.46C204.917 153.515 203.671 159.689 203.671 159.689C199.609 163.269 203.671 168.147 203.671 168.147C203.67 168.653 203.717 169.157 203.811 169.654L207.32 167.745C206.828 167.73 206.335 167.755 205.846 167.818C207.408 164.566 204.908 160.995 204.908 160.995C206.211 161.106 207.515 160.789 208.635 160.087C209.756 159.386 210.637 158.336 211.154 157.086C228.015 163.589 232.383 143.386 232.383 143.386C232.383 143.386 225.523 151.871 218.97 149.615Z" fill="#1D3542"/>
<path d="M240.919 76.6195C242.241 76.9752 243.61 77.1078 244.972 77.0123C246.332 76.9077 247.667 76.5809 248.928 76.0441C247.815 76.9924 246.447 77.5572 245.012 77.6603C243.577 77.7633 242.147 77.3997 240.919 76.6195Z" fill="#2E2430"/>
<path d="M250.2 91.5896C251.125 91.9839 252.124 92.1512 253.12 92.0783C254.117 92.0055 255.084 91.6944 255.946 91.1694C256.009 91.1319 256.055 91.0699 256.074 90.9971C256.093 90.9243 256.083 90.8467 256.047 90.7813C256.011 90.7159 255.951 90.6681 255.882 90.6484C255.812 90.6287 255.737 90.6387 255.674 90.6762C254.875 91.167 253.976 91.4564 253.05 91.5214C252.124 91.5864 251.196 91.4253 250.341 91.0507C250.016 90.9137 249.876 91.4617 250.2 91.5896Z" fill="#A34F31"/>
<path d="M250.271 86.1096L251.709 86.1644C252.166 86.1644 252.587 86.1644 253.052 86.1644C253.517 86.1644 253.929 86.0822 254.394 86.0091C254.859 85.936 255.271 85.8447 255.815 85.7534C255.5 86.1817 255.087 86.5208 254.613 86.7398C254.144 86.9691 253.639 87.1054 253.122 87.1417C252.604 87.1774 252.084 87.1155 251.587 86.959C251.086 86.7972 250.633 86.5048 250.271 86.1096V86.1096Z" fill="#A34F31"/>
<path d="M257.789 76.6748C259.111 77.03 260.479 77.1626 261.841 77.0676C263.204 76.9619 264.541 76.6353 265.807 76.0994C264.692 77.0485 263.322 77.6136 261.886 77.7167C260.449 77.8198 259.018 77.4557 257.789 76.6748V76.6748Z" fill="#2E2430"/>
<path d="M240.814 73.4318C241.693 72.3532 242.834 71.5394 244.117 71.0752C245.401 70.611 246.781 70.5133 248.113 70.7922C248.586 70.8836 248.788 70.1346 248.314 70.0342C246.855 69.7225 245.342 69.8214 243.931 70.3207C242.52 70.8199 241.263 71.7015 240.288 72.8747C239.972 73.2583 240.498 73.788 240.814 73.4318V73.4318Z" fill="#1D3542"/>
<path d="M266.035 72.5462C265.059 71.3722 263.8 70.4903 262.387 69.991C260.975 69.4918 259.46 69.3933 257.999 69.7057C257.526 69.797 257.727 70.5551 258.201 70.4546C259.534 70.1787 260.913 70.2788 262.197 70.7445C263.48 71.2102 264.62 72.0246 265.5 73.1033C265.824 73.4869 266.377 72.9298 266.035 72.5462Z" fill="#1D3542"/>
<path d="M253.306 51.6306C253.762 53.729 254.482 55.7558 255.446 57.6587C257.376 61.5488 260.13 64.9313 263.499 67.5503C264.341 68.2134 265.22 68.8234 266.131 69.3771C267.008 69.9525 268 70.4 268.938 70.9206C267.982 70.4548 266.991 70.0073 266.061 69.5141C265.116 68.9999 264.202 68.4265 263.324 67.7969C259.757 65.2959 256.784 61.9819 254.63 58.1063C253.522 56.1526 252.667 54.055 252.086 51.868L253.306 51.6306Z" fill="#1D3542"/>
<path d="M253.736 50.2238C252.849 52.4317 252.462 54.8224 252.604 57.211C252.681 58.4197 252.926 59.6104 253.332 60.7457C253.749 61.8938 254.322 62.9735 255.034 63.9515C254.235 63.0296 253.568 61.993 253.052 60.8735C252.521 59.7417 252.163 58.5307 251.99 57.284C251.798 56.0309 251.753 54.7579 251.858 53.4936C251.957 52.2107 252.201 50.9444 252.587 49.7215L253.736 50.2238Z" fill="#1D3542"/>
<path d="M254.78 51.4754C254.207 51.8696 253.664 52.3093 253.157 52.7907C252.636 53.28 252.146 53.8048 251.692 54.3616C250.763 55.4864 249.995 56.7445 249.411 58.0973C249.611 57.3764 249.86 56.6713 250.157 55.9874C250.451 55.2907 250.797 54.6189 251.192 53.978C251.581 53.3392 252.012 52.7289 252.481 52.1513C252.956 51.5439 253.478 50.9787 254.043 50.4616L254.78 51.4754Z" fill="#1D3542"/>
<g style="mix-blend-mode:multiply" opacity="0.18">
<path d="M355.313 267.867C355.313 269.594 311.757 271 258.026 271C204.294 271 160.73 269.575 160.73 267.867C160.73 266.159 204.294 264.735 258.026 264.735C311.757 264.735 355.313 266.114 355.313 267.867Z" fill="#A05940"/>
</g>
<path d="M31.968 253.644V256.13H27.876V269H24.796V256.13H20.704V253.644H31.968ZM41.0793 256.636C42.0033 256.636 42.8246 256.841 43.5433 257.252C44.2619 257.648 44.8193 258.242 45.2153 259.034C45.6259 259.811 45.8313 260.75 45.8313 261.85V269H42.7513V262.268C42.7513 261.3 42.5093 260.559 42.0253 260.046C41.5413 259.518 40.8813 259.254 40.0453 259.254C39.1946 259.254 38.5199 259.518 38.0213 260.046C37.5373 260.559 37.2953 261.3 37.2953 262.268V269H34.2153V252.72H37.2953V258.33C37.6913 257.802 38.2193 257.391 38.8793 257.098C39.5393 256.79 40.2726 256.636 41.0793 256.636ZM60.4202 256.812L52.8742 274.764H49.5962L52.2362 268.692L47.3522 256.812H50.8062L53.9522 265.326L57.1422 256.812H60.4202ZM65.1605 258.704C65.5565 258.059 66.0698 257.553 66.7005 257.186C67.3458 256.819 68.0792 256.636 68.9005 256.636V259.87H68.0865C67.1185 259.87 66.3852 260.097 65.8865 260.552C65.4025 261.007 65.1605 261.799 65.1605 262.928V269H62.0805V256.812H65.1605V258.704ZM76.387 269.198C75.2137 269.198 74.1577 268.941 73.219 268.428C72.2804 267.9 71.5397 267.159 70.997 266.206C70.469 265.253 70.205 264.153 70.205 262.906C70.205 261.659 70.4764 260.559 71.019 259.606C71.5764 258.653 72.3317 257.919 73.285 257.406C74.2384 256.878 75.3017 256.614 76.475 256.614C77.6484 256.614 78.7117 256.878 79.665 257.406C80.6184 257.919 81.3664 258.653 81.909 259.606C82.4664 260.559 82.745 261.659 82.745 262.906C82.745 264.153 82.459 265.253 81.887 266.206C81.3297 267.159 80.567 267.9 79.599 268.428C78.6457 268.941 77.575 269.198 76.387 269.198ZM76.387 266.514C76.9444 266.514 77.465 266.382 77.949 266.118C78.4477 265.839 78.8437 265.429 79.137 264.886C79.4304 264.343 79.577 263.683 79.577 262.906C79.577 261.747 79.269 260.86 78.653 260.244C78.0517 259.613 77.311 259.298 76.431 259.298C75.551 259.298 74.8104 259.613 74.209 260.244C73.6224 260.86 73.329 261.747 73.329 262.906C73.329 264.065 73.615 264.959 74.187 265.59C74.7737 266.206 75.507 266.514 76.387 266.514ZM86.5663 255.36C86.0237 255.36 85.569 255.191 85.2023 254.854C84.8503 254.502 84.6743 254.069 84.6743 253.556C84.6743 253.043 84.8503 252.617 85.2023 252.28C85.569 251.928 86.0237 251.752 86.5663 251.752C87.109 251.752 87.5563 251.928 87.9083 252.28C88.275 252.617 88.4583 253.043 88.4583 253.556C88.4583 254.069 88.275 254.502 87.9083 254.854C87.5563 255.191 87.109 255.36 86.5663 255.36ZM88.0843 256.812V269H85.0043V256.812H88.0843ZM90.3354 262.862C90.3354 261.63 90.5774 260.537 91.0614 259.584C91.56 258.631 92.2347 257.897 93.0854 257.384C93.936 256.871 94.882 256.614 95.9234 256.614C96.7154 256.614 97.4707 256.79 98.1894 257.142C98.908 257.479 99.48 257.934 99.9054 258.506V252.72H103.029V269H99.9054V267.196C99.524 267.797 98.9887 268.281 98.2994 268.648C97.61 269.015 96.8107 269.198 95.9014 269.198C94.8747 269.198 93.936 268.934 93.0854 268.406C92.2347 267.878 91.56 267.137 91.0614 266.184C90.5774 265.216 90.3354 264.109 90.3354 262.862ZM99.9274 262.906C99.9274 262.158 99.7807 261.52 99.4874 260.992C99.194 260.449 98.798 260.039 98.2994 259.76C97.8007 259.467 97.2654 259.32 96.6934 259.32C96.1214 259.32 95.5934 259.459 95.1094 259.738C94.6254 260.017 94.2294 260.427 93.9214 260.97C93.628 261.498 93.4814 262.129 93.4814 262.862C93.4814 263.595 93.628 264.241 93.9214 264.798C94.2294 265.341 94.6254 265.759 95.1094 266.052C95.608 266.345 96.136 266.492 96.6934 266.492C97.2654 266.492 97.8007 266.353 98.2994 266.074C98.798 265.781 99.194 265.37 99.4874 264.842C99.7807 264.299 99.9274 263.654 99.9274 262.906Z" fill="white"/>
<g style="mix-blend-mode:overlay" opacity="0.1">
<path d="M446.196 12L438.035 50.1747L436.556 144.872L438.775 207.693L436.611 211.144L415.525 217.168L391.891 210.295L392.576 163.521L392.549 140.436L392.494 60.7453L387.975 30.2932L383.375 12L395.78 17.1484C395.78 17.1484 404.872 38.7278 413.334 39.0564C421.796 39.385 433.9 16.1351 433.9 16.1351L446.196 12Z" fill="#ECECEC"/>
<path d="M441.979 115.597C443.403 121.266 443.403 127.127 443.403 132.932C443.403 136.848 442.8 132.631 442.8 136.52C442.8 136.958 443.293 134.63 442.91 134.849C442.691 134.986 441.869 137.807 441.595 137.807C439.404 137.807 437.761 145.913 435.817 144.982C433.982 144.105 432.668 142.49 431.764 140.792C430.86 139.094 430.313 137.204 429.628 135.424C428.642 132.823 427.355 130.331 425.794 127.975C424.808 126.497 423.713 125.073 422.179 124.087C420.7 123.101 418.893 122.635 417.113 122.279C413.58 121.595 409.692 121.485 406.542 123.183C403.831 124.634 402.051 127.209 400.764 129.865C399.477 132.494 398.546 135.315 396.958 137.807C395.369 140.299 392.987 142.572 389.92 143.202L388.961 118.035L402.243 105.438L427.875 104.835L441.979 115.597Z" fill="#E1E1E1"/>
<path d="M421.768 49.7366L406.46 51.6261L392.028 57.0484L392.494 60.7727C398.108 62.0051 404.68 59.9786 410.267 58.6093C411.718 58.2533 413.197 57.8973 414.703 57.8151C420.974 57.4865 426.944 61.9503 433.106 60.8549C434.311 60.6358 436.721 60.3072 437.871 59.8964L437.953 55.104L421.768 49.7366Z" fill="#E1E1E1"/>
<path d="M385.73 38.3444C385.73 37.0025 386.579 35.7702 387.921 35.2499C388.633 34.976 389.509 34.8391 390.522 34.976C393.671 35.4416 397.314 36.2084 404.406 38.5087C411.526 40.8091 413.498 40.8091 416.647 40.5078C419.797 40.2066 428.724 37.2764 434.502 35.7428C436.611 35.1677 438.309 35.0582 439.623 35.1677C441.513 35.3047 442.937 36.7561 442.937 38.5087V53.6252C442.937 55.7339 441.321 57.5139 439.103 57.8973C437.159 58.1985 434.749 58.4724 432.531 58.3355C427.738 58.0342 420.618 55.7339 416.647 55.7339C412.677 55.7339 409.582 56.4733 406.734 57.4317C404.297 58.2533 390.988 59.8964 388.605 58.9653C388.578 58.9653 388.55 58.9379 388.523 58.9379C386.825 58.2807 385.73 56.6924 385.73 54.9671V38.3444V38.3444Z" fill="#F5F5F5"/>
<path d="M392.467 171.052V167.684L437.378 168.012L437.46 171.025C437.46 171.025 425.52 173.736 414.101 173.435C407.172 173.27 392.467 171.052 392.467 171.052Z" fill="#E1E1E1"/>
<path d="M392.111 194.411V191.071L438.2 191.399L438.282 194.411C438.282 194.411 426.041 197.123 414.32 196.821C407.2 196.63 392.111 194.411 392.111 194.411Z" fill="#E1E1E1"/>
<path d="M416.675 156.757C420.18 156.812 427.766 156.374 435.187 153.553C437.159 152.814 439.514 153.224 440.856 154.758C441.294 155.278 441.595 155.853 441.568 156.456C441.513 158.345 441.541 161.549 441.568 163.357C441.595 164.89 440.993 166.397 439.788 167.41C439.322 167.793 438.775 168.149 438.09 168.396C435.708 169.217 427.081 171.6 415.306 171.463C404.16 171.627 394.904 169.217 392.521 168.396C391.837 168.149 391.262 167.821 390.823 167.41C389.619 166.369 389.016 164.863 389.043 163.357C389.071 161.549 389.098 158.345 389.043 156.456C389.016 155.826 389.317 155.251 389.783 154.731C391.125 153.197 393.452 152.786 395.424 153.526C402.982 156.346 411.171 156.757 414.703 156.702L416.675 156.757Z" fill="#F5F5F5"/>
<path d="M392.549 147.72V144.352L436.529 144.845V147.72C436.529 147.72 424.863 150.431 413.69 150.13C406.926 149.938 392.549 147.72 392.549 147.72Z" fill="#E1E1E1"/>
<path d="M416.675 133.398C420.18 133.453 427.766 133.014 435.187 130.194C437.159 129.454 439.514 129.865 440.856 131.399C441.294 131.919 441.595 132.494 441.568 133.097C441.513 134.986 441.541 138.19 441.568 139.998C441.595 141.531 440.993 143.037 439.788 144.051C439.322 144.434 438.775 144.79 438.09 145.036C435.708 145.858 427.081 148.24 415.306 148.103C404.16 148.268 394.904 145.858 392.521 145.036C391.837 144.79 391.262 144.461 390.823 144.051C389.619 143.01 389.016 141.504 389.043 139.998C389.071 138.19 389.098 134.986 389.043 133.097C389.016 132.467 389.317 131.892 389.783 131.371C391.125 129.838 393.452 129.427 395.424 130.166C402.982 132.987 411.171 133.398 414.703 133.343L416.675 133.398Z" fill="#F5F5F5"/>
<path d="M416.209 69.8645C419.715 69.9193 427.3 69.4811 434.722 66.6605C436.693 65.9211 439.048 66.3318 440.39 67.8654C440.828 68.3857 441.13 68.9608 441.102 69.5633C441.048 71.4528 441.075 74.6569 441.102 76.4643C441.13 77.9978 440.527 79.504 439.322 80.5173C438.857 80.9007 438.309 81.2567 437.624 81.5031C435.242 82.3247 426.616 84.7072 414.84 84.5702C403.694 84.7346 394.438 82.3247 392.056 81.5031C391.371 81.2567 390.796 80.928 390.358 80.5173C389.153 79.4766 388.551 77.9705 388.578 76.4643C388.605 74.6569 388.633 71.4528 388.578 69.5633C388.551 68.9334 388.852 68.3583 389.317 67.838C390.659 66.3045 392.987 65.8937 394.959 66.6331C402.517 69.4537 410.705 69.8645 414.238 69.8097L416.209 69.8645Z" fill="#F5F5F5"/>
<path d="M416.675 180.089C420.18 180.144 427.766 179.706 435.187 176.885C437.159 176.146 439.514 176.556 440.856 178.09C441.294 178.61 441.595 179.185 441.568 179.788C441.513 181.677 441.541 184.881 441.568 186.689C441.595 188.222 440.993 189.729 439.788 190.742C439.322 191.125 438.775 191.481 438.09 191.728C435.708 192.549 427.081 194.932 415.306 194.795C404.16 194.959 394.904 192.549 392.521 191.728C391.837 191.481 391.262 191.153 390.823 190.742C389.619 189.701 389.016 188.195 389.043 186.689C389.071 184.881 389.098 181.677 389.043 179.788C389.016 179.158 389.317 178.583 389.783 178.063C391.125 176.529 393.452 176.118 395.424 176.858C402.982 179.678 411.171 180.089 414.703 180.034L416.675 180.089Z" fill="#F5F5F5"/>
<path d="M416.675 203.175C420.18 203.229 427.766 202.791 435.187 199.971C437.159 199.231 439.514 199.642 440.856 201.176C441.294 201.696 441.595 202.271 441.568 202.873C441.513 204.763 441.541 207.967 441.568 209.774C441.595 211.308 440.993 212.814 439.788 213.827C439.322 214.211 438.775 214.567 438.09 214.813C435.708 215.635 427.081 218.017 415.306 217.88C404.16 218.045 394.904 215.635 392.521 214.813C391.837 214.567 391.262 214.238 390.823 213.827C389.619 212.787 389.016 211.281 389.043 209.774C389.071 207.967 389.098 204.763 389.043 202.873C389.016 202.244 389.317 201.669 389.783 201.148C391.125 199.615 393.452 199.204 395.424 199.943C402.982 202.764 411.171 203.175 414.703 203.12L416.675 203.175Z" fill="#F5F5F5"/>
<path d="M475.881 44.8346C474.183 40.2066 471.637 35.9619 468.515 32.2649C467.145 30.6492 465.612 29.143 463.695 28.3762C461.723 27.5821 456.219 26.5141 453.426 31.1695C450.605 33.9354 440.774 54.1181 434.201 68.5774C431.874 73.671 422.261 82.3795 413.854 82.5438V82.4616C413.58 82.489 413.307 82.489 413.033 82.5164C412.759 82.489 412.485 82.5164 412.211 82.4616V82.5438C403.777 82.4069 395.287 71.9732 392.959 66.8796C386.825 53.4335 381.047 39.7136 377.405 32.8674C376.775 31.6898 376.036 30.6218 375.05 29.8003C370.339 25.8568 362.535 26.3224 357.414 32.4292C350.951 40.2066 347.61 50.5307 346.624 60.8549C345.638 71.179 346.871 81.6127 348.623 91.8273C350.212 101.138 352.293 110.504 356.373 118.911C360.946 128.359 368.313 136.629 377.98 139.806C380.39 140.6 382.964 140.792 385.401 140.107C395.643 137.149 394.219 122.69 401.148 115.652C404.297 112.448 408.651 111.298 413.087 110.805C417.524 111.298 421.878 112.448 425.027 115.652C431.956 122.69 430.504 137.149 440.774 140.107C443.184 140.819 445.785 140.6 448.195 139.806C457.862 136.629 465.228 128.359 469.802 118.911C473.882 110.504 475.963 101.138 477.552 91.8273C480.126 76.3 481.577 60.2798 475.881 44.8346Z" fill="#FF735D"/>
<g opacity="0.3">
<g opacity="0.3">
<path opacity="0.3" d="M477.442 86.4598C475.854 95.7707 473.773 105.136 469.692 113.544C465.119 122.991 457.752 131.262 448.085 134.438C445.703 135.233 443.101 135.424 440.691 134.74C430.422 131.782 431.873 117.323 424.945 110.285C422.891 108.176 420.317 106.971 417.524 106.232C414.566 105.465 411.472 105.465 408.487 106.232C405.721 106.944 403.119 108.176 401.065 110.285C394.137 117.323 395.588 131.782 385.319 134.74C382.909 135.424 380.308 135.233 377.925 134.438C368.258 131.262 360.892 122.991 356.318 113.544C352.238 105.136 350.157 95.7707 348.568 86.4598C347.391 79.6409 346.487 72.7399 346.268 65.8115C345.994 74.4926 347.089 83.2284 348.568 91.7999C350.157 101.111 352.238 110.476 356.318 118.884C360.892 128.331 368.258 136.602 377.925 139.778C380.308 140.545 382.909 140.764 385.319 140.08C395.561 137.122 394.137 122.663 401.065 115.625C403.776 112.859 407.364 111.654 411.116 111.024C412.375 110.832 413.635 110.832 414.895 111.024C418.647 111.627 422.234 112.859 424.945 115.625C431.873 122.663 430.422 137.122 440.691 140.08C443.101 140.792 445.703 140.573 448.085 139.778C457.78 136.629 465.119 128.331 469.692 118.884C473.773 110.476 475.854 101.111 477.442 91.7999C478.921 83.2558 479.989 74.5747 479.742 65.9211C479.551 72.8221 478.62 79.6957 477.442 86.4598Z" fill="black"/>
</g>
</g>
<path d="M475.881 44.8346C475.881 44.8346 476.046 45.2728 476.319 46.0944C476.456 46.5051 476.648 47.0254 476.867 47.6553C477.059 48.2852 477.251 49.0245 477.497 49.8461C478.401 53.1597 479.469 58.1985 479.77 64.7435C480.071 71.2886 479.551 79.3398 478.072 88.5411C477.333 93.1418 476.484 98.0437 475.224 103.192C473.964 108.313 472.294 113.681 469.747 118.993C467.146 124.251 463.668 129.482 458.793 133.699C456.383 135.808 453.617 137.642 450.55 138.957C449.017 139.614 447.428 140.217 445.73 140.463C444.033 140.737 442.28 140.682 440.582 140.189C438.939 139.614 437.323 138.82 436.064 137.56C434.804 136.301 433.791 134.822 432.996 133.206C431.408 130.002 430.45 126.469 429.108 123.074C427.821 119.678 426.013 116.255 422.891 114.119C419.797 112.01 415.936 111.024 412.102 111.189C408.295 111.38 404.352 112.695 401.476 115.378C400.107 116.775 398.957 118.418 398.081 120.198C397.204 122.006 396.52 123.895 395.835 125.785C395.178 127.702 394.52 129.646 393.726 131.536C392.96 133.425 391.946 135.287 390.55 136.876C389.153 138.464 387.318 139.614 385.292 140.244C383.238 140.819 381.047 140.764 378.966 140.244C374.858 139.149 371.052 136.958 367.738 134.247C364.424 131.481 361.576 128.14 359.221 124.47C354.456 117.104 351.745 108.505 349.856 99.769C348.349 92.5119 347.144 85.2549 346.46 78.0527C345.803 70.823 345.775 63.5934 346.871 56.6102C347.993 49.627 350.212 42.8629 353.826 37.0025C354.757 35.5511 355.689 34.1271 356.784 32.8126C357.852 31.4708 359.084 30.2658 360.508 29.3347C363.329 27.4452 366.889 26.6236 370.175 27.3356C371.818 27.6643 373.379 28.3763 374.694 29.3895C376.063 30.3754 376.994 31.8268 377.706 33.2782C379.212 36.1536 380.554 39.0838 381.869 41.9592C384.498 47.7375 386.99 53.4335 389.454 58.9653C390.687 61.7312 391.919 64.4697 393.151 67.1534C393.781 68.4679 394.575 69.7002 395.424 70.8778C396.273 72.0553 397.177 73.1781 398.135 74.2461C400.052 76.3548 402.161 78.2717 404.489 79.7779C406.816 81.2567 409.418 82.3247 412.102 82.4069L411.965 82.5164V82.4343L411.992 82.2973H412.129C412.403 82.3247 412.677 82.3247 412.951 82.3521H412.923C413.197 82.3247 413.471 82.3247 413.745 82.2973H413.882L413.909 82.4343V82.5164L413.772 82.4069C417.25 82.2973 420.481 80.9281 423.33 79.2302C426.178 77.505 428.697 75.3963 430.833 73.0686C431.874 71.891 432.859 70.6587 433.626 69.3168C434.338 67.975 434.941 66.5236 435.571 65.1817C436.858 62.4432 438.09 59.8142 439.295 57.24C441.732 52.1191 444.087 47.3267 446.36 42.9177C447.51 40.7269 448.606 38.6183 449.729 36.6191C450.879 34.6474 451.919 32.7031 453.316 31.1148V31.1421C454.001 29.992 454.959 29.0609 456.082 28.4858C457.205 27.9107 458.41 27.6643 459.587 27.6095C461.942 27.5821 464.161 28.2393 465.749 29.5264C467.365 30.7588 468.515 32.2649 469.583 33.5794C470.623 34.9213 471.5 36.2084 472.212 37.3585C473.663 39.6863 474.512 41.6032 475.087 42.8903C475.662 44.1774 475.881 44.8346 475.881 44.8346C475.881 44.8346 475.799 44.6703 475.69 44.3417C475.553 44.0131 475.361 43.5202 475.087 42.8903C474.512 41.6032 473.636 39.7137 472.184 37.3859C471.445 36.2358 470.596 34.9487 469.555 33.6068C468.487 32.2923 467.337 30.8135 465.721 29.5812C464.133 28.3215 461.97 27.6916 459.642 27.719C458.492 27.7464 457.287 27.9929 456.192 28.568C455.096 29.143 454.165 30.0467 453.48 31.1695C452.139 32.7305 451.07 34.6748 449.948 36.6465C448.825 38.6456 447.73 40.7543 446.607 42.9451C444.361 47.3541 442.006 52.1464 439.569 57.2674C438.364 59.8416 437.132 62.498 435.844 65.2091C435.187 66.5783 434.612 67.975 433.9 69.3716C433.133 70.7409 432.147 71.9732 431.079 73.1781C428.943 75.5332 426.397 77.6419 423.521 79.3945C420.646 81.0924 417.387 82.489 413.827 82.626H413.717L413.69 82.489V82.4069L413.854 82.5164C413.58 82.5438 413.307 82.5438 413.033 82.5712C412.759 82.5438 412.485 82.5438 412.211 82.5164L412.375 82.4069V82.489L412.348 82.626H412.239C409.473 82.5438 406.844 81.4484 404.461 79.9696C402.106 78.436 399.97 76.5191 398.053 74.3831C397.095 73.315 396.164 72.1923 395.315 70.9873C394.466 69.8098 393.672 68.5501 393.014 67.2082C391.755 64.5245 390.55 61.786 389.317 59.0201C386.853 53.4883 384.361 47.7922 381.704 42.014C380.39 39.1386 379.021 36.2084 377.542 33.3603C376.83 31.9363 375.926 30.5397 374.612 29.5812C373.324 28.5953 371.818 27.9107 370.23 27.5821C367.026 26.8975 363.575 27.6916 360.81 29.5538C358.016 31.3886 356.072 34.2914 354.237 37.1395C350.677 42.9725 348.459 49.6818 347.336 56.6376C346.241 63.5934 346.268 70.7956 346.925 77.9979C347.61 85.2001 348.815 92.4572 350.321 99.6868C352.211 108.395 354.894 116.939 359.632 124.279C361.987 127.921 364.808 131.234 368.067 133.973C371.353 136.684 375.132 138.82 379.157 139.915C381.184 140.408 383.32 140.463 385.292 139.915C387.263 139.313 389.043 138.19 390.385 136.657C391.727 135.123 392.74 133.316 393.507 131.426C394.301 129.536 394.959 127.62 395.616 125.703C396.301 123.786 396.985 121.896 397.889 120.061C398.793 118.254 399.943 116.583 401.367 115.159C402.818 113.763 404.598 112.749 406.433 112.065C408.295 111.38 410.239 110.969 412.184 110.887C416.072 110.723 420.016 111.709 423.165 113.872C426.342 116.09 428.177 119.596 429.491 122.991C430.833 126.415 431.791 129.92 433.352 133.097C434.119 134.685 435.132 136.136 436.337 137.369C437.57 138.601 439.131 139.368 440.746 139.915C442.389 140.381 444.115 140.436 445.758 140.189C447.428 139.943 448.989 139.34 450.523 138.71C453.563 137.396 456.301 135.589 458.711 133.507C463.558 129.317 467.036 124.114 469.61 118.911C472.157 113.653 473.827 108.286 475.087 103.165C476.347 98.0437 477.196 93.1418 477.935 88.5411C479.414 79.3398 479.989 71.3159 479.688 64.7709C479.414 58.2259 478.373 53.2145 477.47 49.8735C477.251 49.0519 477.031 48.3125 476.867 47.6827C476.648 47.0528 476.484 46.5325 476.347 46.1217C476.018 45.2728 475.881 44.8346 475.881 44.8346Z" fill="#1A2E35"/>
<g opacity="0.2">
<g opacity="0.2">
<path opacity="0.2" d="M371.38 86.542C369.928 83.9404 367.491 81.9687 364.78 80.6816C363.876 80.2434 362.89 80.0244 361.905 80.0517C361.384 80.0517 360.864 80.1065 360.371 80.2434C356.729 81.3388 354.045 84.5976 352.347 88.0755C351.69 89.4174 351.142 90.8688 351.252 92.3476C351.361 93.6621 351.964 94.867 352.676 95.9624C354.976 99.4129 358.947 102.097 363.055 101.522C364.67 101.303 366.177 100.59 367.546 99.7416C368.915 98.92 370.23 97.9068 371.161 96.5923C373.269 93.7169 373.105 89.6091 371.38 86.542Z" fill="white"/>
</g>
<g opacity="0.2">
<path opacity="0.2" d="M381.102 47.4088C379.787 44.7798 377.597 42.8355 375.159 41.4936C374.365 41.0554 373.461 40.8364 372.585 40.8364C372.12 40.8364 371.654 40.8911 371.216 41.0281C367.957 42.0961 365.574 45.3549 364.068 48.8054C363.493 50.1473 363 51.5713 363.11 53.0775C363.192 54.3919 363.767 55.6243 364.424 56.7197C366.478 60.1702 370.093 62.8813 373.735 62.3336C375.187 62.1145 376.528 61.4025 377.761 60.581C378.993 59.7594 380.171 58.7735 380.992 57.4591C382.827 54.5836 382.663 50.5033 381.102 47.4088Z" fill="white"/>
</g>
<g opacity="0.2">
<path opacity="0.2" d="M388.989 97.7972C388.523 96.3732 387.674 95.1408 386.606 94.1002C385.237 92.7584 383.375 92.0737 381.458 92.0737L380.089 92.1011C378.939 92.1011 377.788 92.375 376.857 93.0048C374.886 94.3193 374.228 96.4006 373.845 98.7283C373.571 100.426 373.872 102.234 374.694 103.767C377.624 109.217 387.647 110.093 389.153 100.755C389.29 99.7689 389.29 98.7557 388.989 97.7972Z" fill="white"/>
</g>
<g opacity="0.2">
<path opacity="0.2" d="M414.347 91.663C414.265 90.3485 413.115 88.2125 411.882 87.4457C410.677 86.0765 408.678 85.6109 406.871 85.8574C405.064 86.1038 403.393 86.9254 401.805 87.8017C399.34 89.171 396.875 90.7593 395.315 93.087C393.315 96.072 393.042 99.9607 393.699 103.521C393.808 104.151 393.973 104.808 394.383 105.301C395.123 106.177 396.41 106.314 397.56 106.259C404.242 105.958 410.294 101.385 413.334 95.4421C413.936 94.2646 414.429 92.9775 414.347 91.663Z" fill="white"/>
</g>
<g opacity="0.2">
<path opacity="0.2" d="M377.049 113.845C375.214 116.036 373.324 118.281 372.366 120.992C371.407 123.676 371.517 126.962 373.434 129.098C374.119 129.865 374.995 130.468 375.953 130.878C377.186 131.426 378.582 131.727 379.924 131.59C381.567 131.453 383.128 130.714 384.361 129.619C385.1 128.961 385.73 128.195 386.141 127.291C386.907 125.62 386.88 123.676 386.332 121.896C385.812 120.143 384.826 118.555 383.785 117.049C382.991 115.926 382.142 114.803 380.965 114.091C379.787 113.379 378.226 113.16 377.049 113.9" fill="white"/>
</g>
<g opacity="0.2">
<path opacity="0.2" d="M381.814 86.898C384.114 88.1851 386.442 89.5269 388.906 89.8555C391.371 90.1842 394 89.3626 395.205 87.0623C395.643 86.2407 395.89 85.2549 395.972 84.2416C396.081 82.9271 395.944 81.5305 395.479 80.2434C394.904 78.7098 393.89 77.3406 392.658 76.4095C391.919 75.8344 391.125 75.3963 390.276 75.2046C388.715 74.8212 387.126 75.2867 385.839 76.1904C384.552 77.0941 383.539 78.3812 382.58 79.6957C381.868 80.6816 381.211 81.7496 380.965 83.0367C380.718 84.3238 380.965 85.8573 381.868 86.8158" fill="white"/>
</g>
<g opacity="0.2">
<path opacity="0.2" d="M391.782 119.103C393.315 117.843 394.849 116.556 395.753 114.913C396.656 113.27 396.766 111.216 395.506 109.737C395.041 109.217 394.411 108.779 393.753 108.45C392.85 108.012 391.837 107.738 390.823 107.738C389.591 107.711 388.359 108.094 387.373 108.696C386.77 109.052 386.25 109.491 385.894 110.038C385.209 111.024 385.1 112.284 385.401 113.407C385.675 114.557 386.305 115.625 386.989 116.638C387.51 117.405 388.057 118.172 388.906 118.692C389.728 119.212 390.905 119.459 391.809 119.075" fill="white"/>
</g>
<g opacity="0.2">
<path opacity="0.2" d="M386.77 72.6303C388.003 71.6171 389.235 70.5765 389.974 69.262C390.686 67.9475 390.796 66.277 389.755 65.0995C389.372 64.6613 388.879 64.3327 388.331 64.0588C387.619 63.7028 386.798 63.4837 385.976 63.4837C384.99 63.4837 384.004 63.7576 383.21 64.2505C382.745 64.5518 382.307 64.9078 382.005 65.3185C381.458 66.1127 381.375 67.126 381.595 68.0297C381.814 68.9608 382.334 69.8097 382.882 70.6312C383.292 71.2337 383.758 71.8636 384.415 72.2743C385.072 72.6851 386.003 72.8768 386.743 72.5756" fill="white"/>
</g>
<g opacity="0.2">
<path opacity="0.2" d="M375.242 65.4281C372.421 64.6887 369.299 65.0721 366.752 66.4687C365.876 66.9343 365.054 67.5641 364.534 68.3857C364.014 69.2346 363.822 70.2479 363.712 71.2337C363.466 73.2602 363.521 75.5058 364.863 77.012C365.739 77.9704 366.999 78.4634 368.231 78.8741C369.381 79.2575 370.531 79.5862 371.709 79.86C374.228 80.4899 377.131 80.8185 379.185 79.2575C381.431 77.5597 381.732 74.1365 380.636 71.5076C379.541 68.906 377.706 66.5783 375.077 65.346" fill="white"/>
</g>
<g opacity="0.2">
<path opacity="0.2" d="M361.166 68.7691C360.837 63.6481 360.508 58.4723 358.728 53.6252C358.318 52.475 357.66 51.2153 356.373 50.8593C355.004 50.4759 353.58 51.407 352.731 52.475C351.28 54.2824 350.704 56.5554 350.294 58.7736C349.445 63.4564 349.116 68.2488 349.39 72.9864C349.828 77.6692 351.252 79.504 353.388 80.2434C354.456 80.5994 355.689 80.3256 356.702 79.8053C358.126 79.0933 359.303 77.9978 360.07 76.6834C361.467 74.3009 361.33 71.4528 361.166 68.7691Z" fill="white"/>
</g>
<g opacity="0.2">
<path opacity="0.2" d="M355.552 45.4644C356.318 46.0669 358.044 46.6146 359.03 46.6146C360.344 46.642 361.713 45.6014 362.507 45.0263C364.808 43.3558 366.396 41.521 368.751 39.8779C369.819 39.1385 370.86 38.2896 371.408 37.1394C372.284 35.2498 371.435 32.8126 369.71 31.635C367.984 30.4575 365.602 30.4848 363.74 31.4433C362.261 32.2101 361.111 33.4972 360.015 34.7295C358.591 36.3452 357.14 37.9609 355.716 39.604C355.716 39.604 352.786 43.301 355.552 45.4644Z" fill="white"/>
</g>
</g>
<g opacity="0.2">
<g opacity="0.2">
<path opacity="0.2" d="M454.138 88.4589C455.753 85.9395 458.273 84.1321 461.066 82.9819C461.997 82.5985 462.983 82.4342 463.969 82.5164C464.489 82.5438 464.982 82.6259 465.475 82.7902C469.035 84.0773 471.554 87.5005 473.033 91.0605C473.608 92.4298 474.074 93.9086 473.882 95.3873C473.718 96.7018 473.033 97.8794 472.239 98.92C469.747 102.234 465.612 104.698 461.559 103.877C459.971 103.548 458.492 102.754 457.177 101.85C455.863 100.947 454.603 99.8785 453.727 98.5092C451.837 95.4969 452.221 91.4439 454.138 88.4589Z" fill="white"/>
</g>
<g opacity="0.2">
<path opacity="0.2" d="M446.661 48.8602C448.14 46.3134 450.413 44.4786 452.933 43.301C453.754 42.9177 454.658 42.7534 455.562 42.8081C456.027 42.8355 456.493 42.9177 456.903 43.082C460.08 44.3417 462.298 47.7374 463.585 51.2427C464.078 52.6119 464.489 54.0634 464.297 55.5421C464.133 56.8566 463.503 58.0342 462.791 59.1022C460.518 62.4432 456.794 64.9352 453.152 64.1684C451.728 63.8672 450.413 63.1004 449.236 62.1967C448.058 61.293 446.935 60.2524 446.196 58.9105C444.525 55.9255 444.936 51.8452 446.661 48.8602Z" fill="white"/>
</g>
<g opacity="0.2">
<path opacity="0.2" d="M435.926 98.7009C436.474 97.3043 437.378 96.1267 438.5 95.1683C439.952 93.9085 441.841 93.3335 443.758 93.443L445.128 93.5252C446.278 93.6073 447.401 93.9359 448.304 94.6206C450.194 96.0446 450.714 98.1532 450.988 100.508C451.18 102.234 450.769 104.014 449.865 105.492C446.606 110.778 436.584 111.079 435.598 101.659C435.488 100.645 435.57 99.632 435.926 98.7009Z" fill="white"/>
</g>
<g opacity="0.2">
<path opacity="0.2" d="M469.336 114.256C468.076 112.12 465.776 109.901 463.667 108.587C462.298 107.738 460.874 106.917 459.313 106.615C457.725 106.314 455.972 106.615 454.849 107.765C453.727 108.395 452.604 110.203 452.467 111.353C452.33 112.503 452.713 113.653 453.179 114.694C455.561 120.089 457.396 123.046 463.229 123.676C465.557 120.855 467.611 117.706 469.336 114.256Z" fill="white"/>
</g>
<g opacity="0.2">
<path opacity="0.2" d="M360.125 120.171C362.589 119.842 366.752 118.199 368.806 116.775C370.12 115.871 371.435 114.858 372.311 113.544C373.187 112.202 373.626 110.449 373.023 108.97C372.886 107.683 371.654 105.958 370.641 105.383C369.655 104.808 368.422 104.698 367.272 104.726C361.384 104.808 357.934 105.328 355.086 110.476C355.059 110.422 357.633 117.213 360.125 120.171Z" fill="white"/>
</g>
<g opacity="0.2">
<path opacity="0.2" d="M446.908 115.406C448.633 117.706 450.386 120.061 451.18 122.8C452.001 125.538 451.673 128.797 449.646 130.851C448.907 131.59 448.003 132.111 447.017 132.494C445.73 132.987 444.361 133.179 442.992 132.987C441.349 132.74 439.842 131.919 438.665 130.769C437.953 130.084 437.378 129.263 437.022 128.359C436.337 126.661 436.502 124.689 437.131 122.964C437.761 121.239 438.829 119.705 439.952 118.254C440.801 117.186 441.732 116.118 442.937 115.461C444.142 114.831 445.73 114.694 446.853 115.488" fill="white"/>
</g>
<g opacity="0.2">
<path opacity="0.2" d="M443.704 88.2399C441.349 89.4175 438.912 90.595 436.447 90.7867C433.982 90.9784 431.381 89.9926 430.313 87.6374C429.929 86.7885 429.738 85.8027 429.71 84.7894C429.683 83.4749 429.902 82.0783 430.45 80.846C431.107 79.3398 432.202 78.0527 433.489 77.1764C434.256 76.6561 435.078 76.2453 435.927 76.1084C437.515 75.8071 439.076 76.3822 440.308 77.3407C441.541 78.2992 442.499 79.641 443.348 81.0377C443.978 82.0783 444.608 83.1737 444.772 84.4882C444.964 85.7753 444.608 87.3088 443.649 88.2125" fill="white"/>
</g>
<g opacity="0.2">
<path opacity="0.2" d="M431.901 119.815C430.45 118.473 428.971 117.104 428.177 115.406C427.383 113.735 427.383 111.654 428.724 110.257C429.217 109.765 429.875 109.354 430.559 109.08C431.463 108.697 432.504 108.477 433.517 108.532C434.749 108.587 435.954 109.025 436.913 109.682C437.488 110.066 437.981 110.559 438.309 111.106C438.939 112.147 438.966 113.379 438.61 114.502C438.254 115.625 437.57 116.666 436.83 117.624C436.283 118.363 435.653 119.075 434.804 119.541C433.955 120.007 432.777 120.171 431.874 119.76" fill="white"/>
</g>
<g opacity="0.2">
<path opacity="0.2" d="M439.569 73.6984C438.391 72.6304 437.213 71.5076 436.556 70.1657C435.899 68.8239 435.899 67.1534 436.994 66.0306C437.378 65.6198 437.898 65.3186 438.473 65.0721C439.213 64.7709 440.034 64.6066 440.856 64.634C441.842 64.6887 442.8 65.0174 443.594 65.5651C444.06 65.8937 444.443 66.2771 444.717 66.7152C445.237 67.5368 445.237 68.55 444.963 69.4537C444.69 70.3574 444.142 71.179 443.539 71.9732C443.101 72.5482 442.608 73.1507 441.924 73.5341C441.239 73.9175 440.281 74.0544 439.569 73.6984" fill="white"/>
</g>
<g opacity="0.2">
<path opacity="0.2" d="M451.481 67.1535C454.357 66.5784 457.424 67.1261 459.888 68.687C460.737 69.2073 461.504 69.8646 461.997 70.7409C462.463 71.6172 462.599 72.6305 462.654 73.6437C462.791 75.6702 462.599 77.9158 461.175 79.3398C460.244 80.2435 458.957 80.6543 457.725 81.0103C456.575 81.3115 455.397 81.5854 454.22 81.8044C451.673 82.27 448.77 82.4617 446.798 80.7912C444.635 78.9564 444.525 75.5333 445.785 72.9865C447.045 70.4397 448.989 68.2215 451.7 67.1535" fill="white"/>
</g>
<g opacity="0.2">
<path opacity="0.2" d="M465.366 71.2886C465.968 66.195 466.598 61.0466 468.652 56.309C469.145 55.1862 469.857 53.9539 471.144 53.68C472.54 53.3788 473.882 54.3921 474.676 55.5148C476.018 57.4044 476.456 59.7047 476.73 61.9503C477.333 66.6879 477.36 71.4803 476.812 76.1905C476.1 80.846 474.567 82.5986 472.403 83.2011C471.308 83.5023 470.103 83.1463 469.117 82.5986C467.721 81.8318 466.598 80.6543 465.941 79.285C464.736 76.8204 465.037 73.9723 465.366 71.2886Z" fill="white"/>
</g>
<g opacity="0.2">
<path opacity="0.2" d="M473.033 50.6403C472.047 51.2975 469.966 51.7083 468.816 51.5988C467.282 51.4345 465.858 49.9283 465.037 49.0793C462.599 46.6147 461.066 44.0405 458.601 41.6306C457.478 40.5352 456.383 39.3303 455.945 37.7693C455.233 35.2225 456.602 32.265 458.793 31.0326C460.984 29.8003 463.777 30.1563 465.776 31.6625C467.364 32.8674 468.487 34.6474 469.583 36.4001C470.979 38.673 472.403 40.946 473.8 43.1916C473.773 43.1642 476.593 48.2852 473.033 50.6403Z" fill="white"/>
</g>
</g>
<g opacity="0.2">
<g opacity="0.2">
<path opacity="0.2" d="M432.175 96.9756C431.928 95.3325 430.696 94.0181 429.546 92.8405C428.861 92.1559 428.094 91.4165 427.136 91.3891L427.218 91.3343C425.684 90.6497 423.877 90.8962 422.371 91.6629C420.892 92.4297 419.66 93.6347 418.537 94.867C417.907 95.5516 417.305 96.291 417.031 97.1673C416.374 99.276 417.962 101.494 419.879 102.59C421.358 103.438 423.055 103.849 424.753 104.041C426.396 104.233 428.204 104.151 429.518 103.137C430.23 102.59 430.751 101.795 431.161 101.001C431.846 99.7963 432.366 98.3997 432.175 96.9756Z" fill="white"/>
</g>
</g>
<g opacity="0.2">
<g opacity="0.2">
<path opacity="0.2" d="M352.019 75.0951C351.937 75.0951 351.718 74.0818 351.526 72.3839C351.334 70.6861 351.225 68.331 351.362 65.7568C351.499 63.1552 351.855 60.8275 352.238 59.1844C352.594 57.5139 352.95 56.528 353.005 56.5554C353.087 56.5828 352.895 57.596 352.621 59.2665C352.348 60.937 352.074 63.2374 351.937 65.8115C351.8 68.3857 351.855 70.6861 351.937 72.3839C352.019 74.0544 352.101 75.0951 352.019 75.0951Z" fill="white"/>
</g>
</g>
<g opacity="0.2">
<g opacity="0.2">
<path opacity="0.2" d="M357.66 96.8935C357.578 97.0304 355.935 95.7433 355.031 93.4429C354.1 91.1426 354.456 89.0887 354.593 89.1435C354.785 89.1435 354.702 91.0878 355.579 93.2512C356.4 95.3873 357.77 96.7565 357.66 96.8935Z" fill="white"/>
</g>
</g>
<g opacity="0.2">
<g opacity="0.2">
<path opacity="0.2" d="M365.958 75.8618C365.849 75.9987 364.808 74.9033 364.726 73.1507C364.616 71.398 365.575 70.2205 365.684 70.33C365.821 70.4122 365.219 71.5897 365.301 73.1233C365.383 74.6569 366.095 75.7523 365.958 75.8618Z" fill="white"/>
</g>
</g>
<g opacity="0.2">
<g opacity="0.2">
<path opacity="0.2" d="M357.14 43.2736C357.003 43.2736 357.277 41.2471 358.728 39.248C360.152 37.2489 361.96 36.3178 362.014 36.4548C362.124 36.5917 360.536 37.7145 359.221 39.604C357.825 41.4936 357.304 43.3284 357.14 43.2736Z" fill="white"/>
</g>
</g>
<g opacity="0.2">
<g opacity="0.2">
<path opacity="0.2" d="M431.956 85.6656C431.874 85.6656 431.737 85.2275 431.737 84.4333C431.737 83.6665 431.929 82.5711 432.476 81.5305C433.024 80.4625 433.791 79.6683 434.421 79.2301C435.05 78.7646 435.516 78.6277 435.543 78.6824C435.653 78.8194 434.01 79.8052 433.024 81.8043C431.983 83.7761 432.148 85.6656 431.956 85.6656Z" fill="white"/>
</g>
</g>
<g opacity="0.2">
<g opacity="0.2">
<path opacity="0.2" d="M438.035 68.9882C437.953 69.0155 437.844 68.8512 437.844 68.5226C437.844 68.2214 438.008 67.7832 438.336 67.482C438.692 67.1807 439.131 67.0438 439.432 67.0986C439.733 67.126 439.897 67.2629 439.87 67.3451C439.815 67.5094 439.24 67.4546 438.747 67.9201C438.2 68.3583 438.199 68.9334 438.035 68.9882Z" fill="white"/>
</g>
</g>
<g opacity="0.2">
<g opacity="0.2">
<path opacity="0.2" d="M447.018 57.0757C446.881 57.1579 446.169 55.1588 446.799 52.7763C447.401 50.3664 448.962 48.9698 449.044 49.0793C449.181 49.1889 447.921 50.6676 447.374 52.9132C446.771 55.1314 447.182 57.0484 447.018 57.0757Z" fill="white"/>
</g>
</g>
<g opacity="0.2">
<g opacity="0.2">
<path opacity="0.2" d="M457.944 38.7552C457.807 38.8373 457.041 37.3859 457.424 35.4963C457.78 33.6068 459.067 32.5388 459.149 32.6757C459.286 32.7852 458.328 33.908 457.999 35.6059C457.643 37.3037 458.109 38.7004 457.944 38.7552Z" fill="white"/>
</g>
</g>
</g>
<defs>
<linearGradient id="paint0_linear_2191_185" x1="252.5" y1="0" x2="252.5" y2="283" gradientUnits="userSpaceOnUse">
<stop stop-opacity="0"/>
<stop offset="1"/>
</linearGradient>
</defs>
</svg>
