<svg width="505" height="377" viewBox="0 0 505 377" fill="none" xmlns="http://www.w3.org/2000/svg">
<rect width="505" height="377" rx="10" fill="#C73B5D"/>
<path opacity="0.15" d="M0 9.99999C0 4.47714 4.47715 0 10 0H495C500.523 0 505 4.47715 505 10V283H0V9.99999Z" fill="url(#paint0_linear_2191_1040)"/>
<path d="M0 283H505V367C505 372.523 500.523 377 495 377H10C4.47715 377 0 372.523 0 367V283Z" fill="white"/>
<path d="M252.358 54.9369C243.586 53.9778 234.971 56.517 227.12 60.417C219.987 64.0466 213.321 68.5942 207.276 73.9529C195.934 83.9267 186.433 96.8598 182.064 111.784C179.948 119.14 179.246 126.859 179.999 134.497C180.751 142.136 182.944 149.545 186.45 156.301C193.767 170.768 205.75 182.322 219.137 190.57C233.903 199.629 250.517 204.924 267.623 206.024C283.22 207.001 299.897 204.398 312.985 194.972C324.925 186.369 331.934 172.595 333.811 157.771C335.741 142.454 332.329 127.064 325.039 113.711C317.275 99.536 305.739 87.9455 293.028 78.5836C279.185 68.3906 263.087 59.4032 245.884 58.1245C241.745 57.8161 237.585 58.0123 233.489 58.709C232.848 58.8186 233.12 59.8233 233.752 59.7137C251.297 56.7636 268.552 63.9151 283.29 73.1948C296.335 81.415 308.529 91.608 317.819 104.249C326.811 116.515 332.776 131.065 333.329 146.601C333.837 161.105 329.82 176.121 320.293 186.99C309.722 199.037 293.879 204.161 278.606 205.01C262.056 205.807 245.559 202.53 230.453 195.447C203.539 182.925 177.616 156.036 180.915 122.964C182.441 107.674 190.065 93.6814 200.013 82.5841C205.083 76.9551 210.765 71.959 216.944 67.6964C223.962 62.883 231.567 58.6999 239.752 56.7362C243.884 55.7552 248.144 55.4959 252.358 55.969C252.999 56.0329 252.99 54.9917 252.358 54.9277V54.9369Z" fill="#E9FBFF"/>
<path d="M258.999 209.577C250.034 212.82 240.296 211.404 231.146 209.824C222.374 208.416 213.748 206.153 205.381 203.065C189.591 197.101 175.02 187.09 165.554 172.422C161.2 165.8 158.245 158.291 156.884 150.392C155.523 142.493 155.787 134.384 157.659 126.599C161.379 111.163 170.555 97.3715 182.336 87.3246C209.399 64.3172 248.033 62.7371 281.176 67.0755C290.859 68.3063 300.435 70.3187 309.818 73.0945C317.67 75.4419 325.828 78.2459 332.267 83.6712C339.066 89.3888 342.391 97.746 342.119 106.788C341.829 116.187 337.89 124.863 332.846 132.481C323.416 146.729 311.011 159.27 297.94 169.874C284.772 180.57 270.289 189.386 254.876 196.087C251.174 197.694 247.422 199.171 243.621 200.517C243.016 200.727 243.279 201.741 243.893 201.521C276.58 189.842 305.544 169.014 327.609 141.322C338.066 128.124 348.365 109.857 340.408 92.5033C336.978 85.0595 330.276 80.1548 323.214 76.8758C314.74 72.9393 305.511 70.5371 296.44 68.6556C277.875 64.6254 258.858 63.3249 239.945 64.7921C222.663 66.2626 205.381 70.7472 190.433 80.1548C164.186 96.6682 146.465 131.558 159.308 162.713C165.791 178.45 178.45 190.707 192.872 198.526C200.976 202.818 209.547 206.081 218.4 208.244C227.409 210.527 236.91 212.409 246.2 212.564C250.631 212.719 255.054 212.054 259.262 210.6C259.868 210.381 259.613 209.376 258.999 209.595V209.577Z" fill="#E9FBFF"/>
<path d="M185.347 115.254C187.306 113.213 187.306 109.906 185.347 107.865C183.387 105.825 180.21 105.825 178.25 107.865C176.291 109.906 176.291 113.213 178.25 115.254C180.21 117.294 183.387 117.294 185.347 115.254Z" fill="#E9FBFF"/>
<path d="M192.828 54.8181C192.828 55.4373 192.652 56.0426 192.322 56.5576C191.992 57.0726 191.522 57.4742 190.973 57.7115C190.423 57.9489 189.819 58.0115 189.235 57.8914C188.652 57.7712 188.116 57.4738 187.695 57.0365C187.274 56.5993 186.986 56.042 186.869 55.4348C186.752 54.8277 186.81 54.1981 187.037 53.6255C187.263 53.0529 187.648 52.563 188.141 52.2177C188.635 51.8723 189.216 51.6871 189.811 51.6853C190.206 51.6841 190.599 51.7642 190.965 51.9211C191.331 52.078 191.664 52.3086 191.944 52.5996C192.224 52.8906 192.447 53.2364 192.598 53.6171C192.75 53.9978 192.828 54.4059 192.828 54.8181V54.8181Z" fill="#E9FBFF"/>
<path d="M176.783 159.589C176.78 160.207 176.6 160.811 176.268 161.324C175.935 161.837 175.464 162.236 174.914 162.47C174.364 162.704 173.759 162.764 173.177 162.641C172.594 162.518 172.06 162.218 171.641 161.779C171.221 161.34 170.937 160.782 170.822 160.175C170.707 159.568 170.768 158.939 170.996 158.367C171.224 157.796 171.61 157.308 172.104 156.964C172.599 156.621 173.18 156.438 173.774 156.438C174.171 156.438 174.564 156.519 174.93 156.678C175.296 156.836 175.629 157.069 175.908 157.362C176.188 157.654 176.409 158.002 176.559 158.384C176.709 158.766 176.786 159.176 176.783 159.589V159.589Z" fill="#E9FBFF"/>
<path d="M303.493 108.944C303.493 109.46 303.346 109.965 303.071 110.395C302.795 110.825 302.403 111.159 301.945 111.357C301.486 111.555 300.982 111.607 300.495 111.506C300.008 111.405 299.561 111.156 299.21 110.791C298.86 110.426 298.621 109.96 298.524 109.453C298.427 108.947 298.477 108.421 298.667 107.944C298.856 107.467 299.178 107.059 299.591 106.772C300.003 106.485 300.488 106.332 300.985 106.332C301.314 106.332 301.64 106.399 301.945 106.53C302.249 106.662 302.526 106.854 302.759 107.097C302.992 107.339 303.176 107.627 303.302 107.944C303.429 108.261 303.493 108.601 303.493 108.944V108.944Z" fill="#E9FBFF"/>
<path d="M216.9 107.555C216.9 107.798 216.83 108.035 216.701 108.236C216.571 108.438 216.387 108.595 216.172 108.687C215.957 108.779 215.72 108.803 215.492 108.755C215.263 108.707 215.054 108.59 214.89 108.418C214.726 108.246 214.614 108.027 214.57 107.789C214.526 107.551 214.55 107.304 214.641 107.081C214.731 106.857 214.883 106.667 215.077 106.533C215.272 106.4 215.5 106.33 215.733 106.332C216.043 106.334 216.34 106.464 216.558 106.693C216.777 106.923 216.9 107.232 216.9 107.555Z" fill="#E9FBFF"/>
<path d="M292.791 38.9809C292.791 39.3606 292.683 39.7318 292.48 40.0474C292.277 40.363 291.989 40.6089 291.652 40.7538C291.315 40.8987 290.944 40.9361 290.586 40.8614C290.229 40.7866 289.9 40.603 289.643 40.3339C289.386 40.0647 289.211 39.7221 289.141 39.3494C289.071 38.9768 289.109 38.5908 289.249 38.2405C289.39 37.8902 289.628 37.5913 289.932 37.3816C290.236 37.172 290.593 37.061 290.958 37.0628C291.199 37.0628 291.438 37.1125 291.661 37.209C291.884 37.3055 292.087 37.4469 292.257 37.6252C292.428 37.8034 292.562 38.0149 292.654 38.2476C292.746 38.4802 292.792 38.7294 292.791 38.9809Z" fill="#E9FBFF"/>
<path d="M292.791 194.224C292.793 194.604 292.686 194.976 292.484 195.293C292.283 195.609 291.995 195.857 291.658 196.003C291.321 196.149 290.95 196.188 290.592 196.114C290.233 196.041 289.904 195.858 289.646 195.589C289.388 195.32 289.212 194.978 289.142 194.605C289.071 194.232 289.108 193.845 289.249 193.494C289.389 193.144 289.627 192.844 289.931 192.634C290.235 192.424 290.593 192.313 290.958 192.315C291.444 192.315 291.91 192.516 292.254 192.874C292.598 193.232 292.791 193.717 292.791 194.224V194.224Z" fill="#E9FBFF"/>
<path d="M364.006 151.935C364.006 152.84 363.748 153.725 363.264 154.477C362.78 155.229 362.092 155.814 361.288 156.158C360.484 156.502 359.6 156.59 358.748 156.41C357.896 156.23 357.115 155.791 356.503 155.148C355.891 154.504 355.477 153.686 355.313 152.797C355.149 151.909 355.242 150.989 355.58 150.155C355.919 149.322 356.488 148.612 357.215 148.115C357.942 147.619 358.795 147.359 359.664 147.368C360.82 147.38 361.924 147.867 362.737 148.722C363.55 149.577 364.006 150.732 364.006 151.935V151.935Z" fill="#E9FBFF"/>
<path d="M148.027 193.009C150.614 193.009 152.711 190.825 152.711 188.131C152.711 185.438 150.614 183.254 148.027 183.254C145.44 183.254 143.342 185.438 143.342 188.131C143.342 190.825 145.44 193.009 148.027 193.009Z" fill="#E9FBFF"/>
<path d="M143.684 80.401C143.684 80.7804 143.576 81.1512 143.374 81.4666C143.172 81.7821 142.884 82.0279 142.547 82.1731C142.211 82.3182 141.84 82.3562 141.483 82.2822C141.125 82.2082 140.797 82.0255 140.54 81.7573C140.282 81.489 140.106 81.1473 140.035 80.7752C139.964 80.4032 140.001 80.0175 140.14 79.667C140.28 79.3166 140.516 79.017 140.819 78.8062C141.122 78.5955 141.478 78.483 141.842 78.483C142.084 78.4818 142.325 78.5306 142.549 78.6265C142.773 78.7225 142.976 78.8637 143.147 79.0421C143.319 79.2204 143.454 79.4323 143.547 79.6656C143.639 79.8989 143.686 80.1488 143.684 80.401V80.401Z" fill="#E9FBFF"/>
<path d="M255.683 23.143C258.639 23.143 261.035 20.6486 261.035 17.5716C261.035 14.4945 258.639 12.0001 255.683 12.0001C252.728 12.0001 250.332 14.4945 250.332 17.5716C250.332 20.6486 252.728 23.143 255.683 23.143Z" fill="#E9FBFF"/>
<path d="M283.773 256.359C285.803 256.359 287.449 254.646 287.449 252.532C287.449 250.418 285.803 248.705 283.773 248.705C281.743 248.705 280.097 250.418 280.097 252.532C280.097 254.646 281.743 256.359 283.773 256.359Z" fill="#E9FBFF"/>
<path d="M334.25 96.2299C336.648 96.2299 338.592 94.2057 338.592 91.7088C338.592 89.2119 336.648 87.1877 334.25 87.1877C331.852 87.1877 329.907 89.2119 329.907 91.7088C329.907 94.2057 331.852 96.2299 334.25 96.2299Z" fill="#E9FBFF"/>
<path d="M211.163 174.97L214.601 172.048C213.066 168.394 209.391 167.791 207.329 167.746L203.82 169.655C204.829 174.97 211.163 174.97 211.163 174.97Z" fill="#1D3542"/>
<path d="M239.735 171.234C239.735 171.234 234.112 167.654 230.366 172.203C230.366 172.203 226.927 169.28 220.997 173.828L218.812 174.806C218.812 174.806 224.743 179.683 231.305 176.112C231.305 176.112 241.603 177.737 241.919 174.806C242.042 174.035 241.887 173.244 241.484 172.585C241.081 171.925 240.458 171.445 239.735 171.234Z" fill="#1D3542"/>
<path d="M257.683 105.08C257.683 105.08 275.799 96.9511 279.229 81.0222C282.659 65.0933 269.579 47.5386 269.579 47.5386C269.579 47.5386 215.251 95.9464 227.111 106.048C233.252 111.245 257.71 108.98 257.71 108.98" fill="#1D3542"/>
<g style="mix-blend-mode:multiply" opacity="0.22">
<path d="M236.138 87.1965C236.138 87.1965 242.077 102.797 252.999 102.148C263.921 101.5 271.623 86.9773 272.299 79.6157C272.974 72.254 234.884 79.0677 236.13 87.1965" fill="#1D3542"/>
</g>
<path d="M236.77 183.418C236.77 183.418 224.9 202.279 224.278 205.202C224.278 205.202 183.994 207.476 174.634 211.705C165.274 215.934 161.826 228.593 169.949 235.114C178.073 241.636 232.085 243.892 247.069 238.366C247.069 238.366 324.504 249.089 337.619 233.489C350.734 217.888 313.889 202.599 282.668 204.261C282.668 204.261 271.737 181.829 265.807 178.906C259.877 175.984 236.77 183.418 236.77 183.418Z" fill="#77CAD9"/>
<g style="mix-blend-mode:multiply" opacity="0.23">
<path d="M193.363 212.682C192.775 213.358 189.617 214.957 192.74 216.254C195.863 217.551 213.04 227.305 217.409 226.008C221.777 224.711 196.486 209.102 193.363 212.682Z" fill="#D25A5C"/>
</g>
<g style="mix-blend-mode:multiply" opacity="0.23">
<path d="M285.747 224.337C286.413 224.382 299.835 220.811 305.774 218.208C311.713 215.605 312.95 213.641 314.547 213.641C316.143 213.641 315.801 210.39 311.424 210.71C307.046 211.029 288.94 219.185 288.94 219.185L285.773 224.812" fill="#D25A5C"/>
</g>
<g style="mix-blend-mode:multiply" opacity="0.23">
<path d="M281.413 216.253C281.413 216.253 267.052 219.505 264.868 219.185C262.683 218.866 269.254 204.882 284.536 203.576C284.536 203.576 269.552 203.256 259.56 214.956C249.569 226.657 241.138 212.034 234.892 208.782C234.892 208.782 244.928 221.953 245.419 223.661C245.419 223.661 260.955 221.578 265.429 222.327C265.429 222.327 276.781 222.437 282.237 216.098L281.413 216.253Z" fill="#D25A5C"/>
</g>
<path d="M227.874 222.61C232.445 224.729 237.445 224.748 242.34 224.3C247.771 223.807 253.166 223.104 258.613 222.839C264.367 222.525 270.134 222.604 275.878 223.076C277.598 223.176 279.307 223.414 280.992 223.789C282.448 224.154 283.896 224.583 285.334 225.022C288.44 225.935 291.589 226.894 294.607 228.109C294.975 228.264 295.142 227.634 294.774 227.488C292.238 226.465 289.607 225.661 287.01 224.866C284.44 223.933 281.799 223.227 279.115 222.757C267.921 221.359 256.604 222.072 245.446 223.323C239.7 223.971 233.629 224.574 228.199 222.053C227.831 221.88 227.515 222.446 227.883 222.61H227.874Z" fill="#AA353B"/>
<path d="M223.54 228.803C231.727 233.774 240.646 237.305 249.937 239.252C250.332 239.325 250.498 238.704 250.104 238.622C240.865 236.694 231.996 233.188 223.856 228.246C223.785 228.202 223.701 228.19 223.621 228.211C223.541 228.233 223.473 228.286 223.431 228.36C223.389 228.434 223.377 228.522 223.398 228.605C223.418 228.688 223.47 228.76 223.54 228.803Z" fill="#AA353B"/>
<path d="M207.531 218.482C202.732 217.24 197.618 216.062 192.811 217.888C192.433 218.034 192.591 218.665 192.977 218.519C197.688 216.692 202.627 217.888 207.364 219.103C207.443 219.126 207.528 219.115 207.6 219.074C207.671 219.032 207.724 218.962 207.746 218.879C207.768 218.797 207.758 218.709 207.717 218.634C207.677 218.56 207.61 218.505 207.531 218.482Z" fill="#AA353B"/>
<g style="mix-blend-mode:multiply" opacity="0.49">
<g style="mix-blend-mode:multiply" opacity="0.49">
<path d="M244.823 223.286L239.559 215.422Z" fill="#D25A5C"/>
</g>
</g>
<mask id="mask0_2191_1040" style="mask-type:alpha" maskUnits="userSpaceOnUse" x="165" y="178" width="176" height="64">
<path d="M236.77 183.419C236.77 183.419 224.901 202.279 224.278 205.202C224.278 205.202 183.994 207.476 174.634 211.705C165.274 215.934 161.826 228.593 169.95 235.115C178.073 241.636 232.085 243.892 247.069 238.366C247.069 238.366 324.504 249.089 337.619 233.489C350.734 217.889 313.889 202.599 282.668 204.261C282.668 204.261 271.737 181.829 265.807 178.907C259.877 175.984 236.77 183.419 236.77 183.419Z" fill="#D25A5C"/>
</mask>
<g mask="url(#mask0_2191_1040)">
<g style="mix-blend-mode:multiply" opacity="0.23">
<path d="M252.253 239.015C241.64 237.666 231.503 233.647 222.716 227.305C222.716 227.305 231.489 239.992 241.454 241.919C251.42 243.846 252.253 239.015 252.253 239.015Z" fill="#D25A5C"/>
</g>
<path d="M285.317 203.092C283.166 203.24 281.041 203.667 278.992 204.362C276.915 204.992 274.905 205.84 272.991 206.892C272.641 207.093 272.991 207.65 273.307 207.449C275.172 206.425 277.133 205.602 279.159 204.992C281.147 204.309 283.21 203.889 285.299 203.741C285.703 203.741 285.703 203.074 285.299 203.092H285.317Z" fill="#AA353B"/>
<path d="M222.716 205.22C226.018 205.358 229.142 206.817 231.436 209.294C231.708 209.595 232.155 209.139 231.875 208.837C229.464 206.24 226.183 204.712 222.716 204.572C222.313 204.572 222.313 205.202 222.716 205.22Z" fill="#AA353B"/>
</g>
<path d="M279.729 218.144C275.781 220.254 271.702 221.889 267.21 221.944C267.137 221.957 267.07 221.996 267.021 222.056C266.973 222.115 266.947 222.19 266.947 222.268C266.947 222.346 266.973 222.421 267.021 222.48C267.07 222.54 267.137 222.579 267.21 222.592C271.816 222.537 275.983 220.866 280.044 218.71C280.395 218.519 280.044 217.952 279.729 218.144V218.144Z" fill="#AA353B"/>
<path d="M223.242 119.776C223.242 120.424 221.909 125.046 220.611 137.13C219.312 149.213 212.522 165.836 212.61 167.782C212.698 169.727 208.399 171.572 205.022 179.865C201.645 188.159 194.407 194.05 192.609 195.767C190.049 195.09 187.394 194.889 184.766 195.173C180.731 195.694 176.924 194.58 176.248 193.347C176.248 193.347 174.45 195.064 176.081 196.607C177.713 198.151 181.398 196.68 182.415 198.58C183.433 200.48 181.082 203.53 178.854 202.663C178.091 202.391 177.399 201.941 176.83 201.347C176.262 200.754 175.831 200.032 175.573 199.238C175.213 198.324 176.599 194.306 173.748 193.465C173.748 193.465 172.871 198.881 173.265 200.16C173.265 200.16 169.318 195.803 167.221 197.858C167.221 197.858 171.125 201.247 171.485 202.206C171.485 202.206 168.291 200.736 167.441 202.727C168.751 203.571 170.145 204.266 171.599 204.8C172.862 205.065 173.809 205.348 174.485 206.289C174.485 206.289 170.976 205.805 170.8 207.768C170.8 207.768 174.23 207.604 175.818 208.179C177.406 208.755 183.363 209.093 185.468 207.704C187.573 206.316 216.847 189.583 223.339 173.965C223.339 173.965 231.155 146.254 231.182 139.742" fill="#F4A082"/>
<g style="mix-blend-mode:multiply" opacity="0.21">
<path d="M217.408 152.218C217.408 152.218 223.962 166.192 232.392 171.718C240.822 177.244 228.339 142.135 217.408 152.218" fill="#D18161"/>
</g>
<path d="M285.475 121.009C285.475 121.657 286.247 123.575 287.492 135.686C288.738 147.797 295.388 164.457 295.274 166.403C295.16 168.348 299.458 170.22 302.774 178.55C306.09 186.88 313.301 192.817 315.056 194.543C317.622 193.885 320.28 193.706 322.907 194.013C326.942 194.561 330.75 193.474 331.443 192.187C331.443 192.187 333.197 193.913 331.583 195.447C329.969 196.982 326.267 195.447 325.232 197.365C324.197 199.283 326.539 202.325 328.741 201.475C329.505 201.21 330.201 200.766 330.774 200.177C331.347 199.588 331.783 198.87 332.048 198.078C332.408 197.119 331.048 193.136 333.908 192.324C333.908 192.324 334.724 197.74 334.347 199.018C334.347 199.018 338.32 194.689 340.4 196.762C340.4 196.762 336.478 200.124 336.11 201.073C336.11 201.073 339.312 199.63 340.145 201.631C338.831 202.466 337.434 203.152 335.978 203.677C334.715 203.923 333.759 204.197 333.083 205.138C333.083 205.138 336.548 204.681 336.759 206.645C336.759 206.645 333.329 206.453 331.741 207.019C330.153 207.586 324.188 207.933 322.091 206.471C319.995 205.01 290.835 188.104 284.457 172.449C284.457 172.449 276.834 144.665 276.86 138.162" fill="#F4A082"/>
<g style="mix-blend-mode:multiply" opacity="0.21">
<path d="M284.554 178.221C284.554 178.221 290.493 167.818 295.8 166.521C301.107 165.224 281.729 153.515 284.554 178.221Z" fill="#D18161"/>
</g>
<path d="M236.138 184.752L230.208 140.536L222.777 122.269C222.777 122.269 221.33 117.648 238.015 109.3C254.885 100.86 284.51 110.925 285.624 122.087C286.826 134.344 278.299 138.28 278.299 138.28L271.737 184.752C271.737 184.752 256.482 192.853 236.138 184.752Z" fill="#F4A082"/>
<g style="mix-blend-mode:multiply" opacity="0.21">
<path d="M232.392 171.718C232.304 172.44 261.183 192.506 275.044 181.464C288.905 170.422 235.208 148.309 232.392 171.718Z" fill="#D18161"/>
</g>
<path d="M239.814 109.253C239.288 110.879 248.587 99.2066 247.709 82.3186H258.236C258.236 82.3186 258.236 103.326 268.921 109.893C268.93 109.856 252.139 126.114 239.814 109.253Z" fill="#F4A082"/>
<g style="mix-blend-mode:multiply" opacity="0.34">
<path d="M252.85 102.148C258.112 102.148 262.377 98.5821 262.377 94.1834C262.377 89.7848 258.112 86.219 252.85 86.219C247.588 86.219 243.323 89.7848 243.323 94.1834C243.323 98.5821 247.588 102.148 252.85 102.148Z" fill="#D18161"/>
</g>
<path d="M227.401 222.437C227.401 222.437 226.146 218.857 224.9 214.957C223.655 211.057 218.347 210.728 214.286 213.002C210.224 215.276 201.794 210.079 198.671 209.751C195.548 209.422 191.179 209.751 192.117 212.354C193.214 215.395 197.109 212.682 198.671 214.628C200.232 216.573 218.347 228.931 223.655 228.931C223.655 228.931 227.401 227.963 227.401 222.437Z" fill="#F4A082"/>
<path d="M280.273 217.715C280.273 217.715 281.843 214.281 283.449 210.527C285.054 206.773 290.37 206.974 294.195 209.614C298.02 212.253 306.897 207.951 310.038 207.942C313.179 207.933 317.495 208.691 316.328 211.185C314.951 214.107 311.319 211.011 309.591 212.792C307.862 214.573 288.686 225.058 283.405 224.529C283.405 224.565 279.764 223.223 280.273 217.715Z" fill="#F4A082"/>
<path d="M224.541 118.442C224.918 118.442 276.799 138.344 286.598 128.051C286.598 128.051 288.563 144.555 290.782 150.885C293.282 158.036 295.783 166.165 295.783 166.494C295.783 166.494 292.344 165.836 281.747 176.897C267.395 191.84 236.287 178.267 217.339 152.063C217.321 152.09 219.488 118.159 224.541 118.442Z" fill="#FFD2B9"/>
<mask id="mask1_2191_1040" style="mask-type:alpha" maskUnits="userSpaceOnUse" x="217" y="118" width="79" height="66">
<path d="M224.541 118.442C224.918 118.442 276.799 138.344 286.598 128.051C286.598 128.051 288.563 144.555 290.782 150.885C293.282 158.036 295.783 166.165 295.783 166.494C295.783 166.494 292.344 165.836 281.747 176.897C267.395 191.84 236.287 178.267 217.339 152.063C217.321 152.09 219.488 118.159 224.541 118.442Z" fill="#FFD2B9"/>
</mask>
<g mask="url(#mask1_2191_1040)">
<path d="M214.645 134.208C220.637 131.166 228.55 135.934 234.603 132.984C235.25 132.595 235.939 132.288 236.656 132.07C237.331 131.981 238.015 132.005 238.682 132.143L258.192 135.066C259.932 135.375 261.691 135.552 263.456 135.596C265.772 135.596 268.158 135.185 270.369 135.852C271.412 136.171 272.369 136.765 273.395 137.094C276.097 138.007 279.097 137.688 281.948 137.313L293.607 135.788C294.712 135.642 296.239 135.788 296.353 136.884C296.467 137.98 294.756 138.336 293.554 138.336C289.966 138.336 286.475 139.377 282.904 139.743C280.33 139.96 277.745 139.991 275.167 139.834C262.763 139.396 250.37 138.787 237.989 138.007C235.594 137.861 233.199 137.706 230.84 137.313C230.012 137.105 229.155 137.065 228.313 137.194C227.629 137.359 227.023 137.761 226.348 137.971C223.716 138.774 221.085 136.473 218.374 136.637C217.172 136.719 216.014 137.277 214.812 137.176C213.61 137.076 212.417 135.733 213.163 134.82" fill="#FCEBE6"/>
<path d="M212.373 144.464C212.637 143.076 214.567 142.583 215.979 143.012C217.391 143.441 218.532 144.437 219.9 144.957C224.12 146.574 228.673 143.368 233.243 143.578C236.314 143.715 239.226 145.405 242.27 145.076C243.147 144.966 244.025 144.683 244.902 144.565C246.814 144.483 248.727 144.733 250.56 145.304C256.701 146.702 263.07 146.821 269.386 146.921L280.975 147.113C284.484 147.168 287.993 147.222 291.352 146.327C292.627 145.887 293.945 145.602 295.283 145.478C296.634 145.478 298.107 146.063 298.581 147.305L286.94 148.903C285.045 149.159 283.159 149.415 281.247 149.478C278.343 149.57 275.448 149.214 272.535 149.086C263.526 148.684 254.429 150.556 245.516 149.204C243.174 148.848 240.832 148.291 238.498 148.419C236.454 148.556 234.463 149.232 232.427 149.168C230.909 149.033 229.409 148.727 227.953 148.255C222.767 146.92 217.4 146.518 212.084 147.067L210.145 144.126L212.496 144.017" fill="#FCEBE6"/>
<path d="M212.4 155.005C215.146 153.278 218.777 153.699 221.918 154.63C225.058 155.562 228.129 156.941 231.41 156.959C234.489 156.959 237.445 155.79 240.516 155.635C245.402 155.397 250.165 157.79 255.034 157.114C257.078 156.831 259.017 156.009 261.078 155.854C262.604 155.807 264.129 155.948 265.623 156.274L274.667 157.863C275.593 158.061 276.538 158.15 277.483 158.128C278.686 157.983 279.865 157.676 280.992 157.215C283.895 156.179 286.865 155.358 289.879 154.758C291.502 154.429 293.282 154.183 294.765 154.922C295.298 155.28 295.862 155.585 296.449 155.836C297.642 156.174 298.87 155.516 300.09 155.242C301.309 154.968 303.002 155.489 302.941 156.685C299.502 157.863 295.712 157.27 292.063 157.434C288.186 157.617 284.422 158.658 280.597 159.261C274.6 160.24 268.488 160.181 262.508 159.087C260.484 158.638 258.432 158.332 256.368 158.174C253.906 158.205 251.451 158.437 249.025 158.868C242.884 159.626 236.743 159.197 230.603 158.759L220.523 158.046C217.921 157.936 215.331 157.612 212.777 157.078C212.226 157.013 211.717 156.74 211.347 156.311C211.274 156.202 211.228 156.075 211.216 155.943C211.203 155.81 211.223 155.677 211.274 155.555C211.325 155.433 211.405 155.327 211.507 155.246C211.609 155.166 211.729 155.114 211.856 155.096" fill="#FCEBE6"/>
<path d="M223.725 166.586C226.067 165.554 228.822 165.928 231.287 166.65C233.752 167.371 236.138 168.431 238.691 168.732C245.963 169.646 253.525 164.357 260.289 167.061C261.473 167.536 262.622 168.257 263.903 168.203C264.852 168.048 265.782 167.785 266.675 167.417C269.307 166.668 272.114 167.682 274.667 168.687C275.586 169.154 276.622 169.314 277.632 169.143C278.312 168.824 278.974 168.464 279.615 168.066C281.168 167.381 282.957 168.066 284.65 168.303C287.159 168.659 289.686 168.011 292.195 167.655C294.704 167.298 297.458 167.289 299.528 168.705C297.881 169.726 295.998 170.26 294.081 170.248C287.694 170.669 281.15 169.655 274.965 171.226C273.995 171.541 272.989 171.722 271.974 171.765C270.868 171.644 269.784 171.361 268.754 170.924C264.772 169.573 260.447 169.536 256.218 169.518C254.462 169.475 252.705 169.53 250.955 169.682C246.937 170.093 243.016 171.509 238.972 171.363C234.094 171.189 229.515 168.732 224.629 168.687C223.925 168.737 223.218 168.657 222.541 168.449C221.892 168.175 221.374 167.472 221.602 166.833C221.83 166.193 223.023 166.102 223.172 166.769" fill="#FCEBE6"/>
<path d="M214.373 126.572C215.637 124.325 218.646 123.494 221.304 123.713C223.962 123.932 226.453 124.992 229.05 125.54C231.752 126.143 234.535 126.242 237.27 125.832C238.708 125.494 240.184 125.368 241.656 125.457C243.016 125.802 244.355 126.232 245.665 126.745C250.464 128.088 255.315 125.174 260.306 124.526C263.631 124.087 267 124.681 270.289 125.284C278.343 126.782 286.563 128.398 294.677 127.266C294.624 129.166 292.045 129.814 290.054 129.878C282.221 130.134 274.38 129.869 266.579 129.083C262.683 128.546 258.753 128.317 254.824 128.398C252.069 128.554 249.332 129.074 246.586 128.965C241.945 128.791 237.515 126.855 232.875 126.782C230.493 126.863 228.118 127.085 225.76 127.448C222.521 127.781 219.257 127.719 216.031 127.266C215.362 127.248 214.719 126.986 214.216 126.526C213.786 126.033 213.952 125.074 214.619 124.982" fill="#FCEBE6"/>
<path d="M240.542 176.66C247.876 176.843 255.253 177.025 262.473 176.075C264.086 175.804 265.716 175.654 267.351 175.628C268.791 175.698 270.225 175.878 271.64 176.167C276.904 177.08 282.167 177.783 287.501 178.258C282.913 180.377 277.553 180.14 272.509 179.464C267.465 178.788 262.394 177.71 257.341 178.304C254.42 178.651 251.56 179.546 248.621 179.446C246.382 179.37 244.199 178.7 242.279 177.5" fill="#FCEBE6"/>
</g>
<path d="M273.526 75.2135C273.526 88.649 259.087 99.5453 252.999 99.5453C246.911 99.5453 232.48 88.649 232.48 75.2135C232.48 61.7781 241.252 44.9358 252.657 44.9358C264.061 44.9358 273.526 61.7689 273.526 75.2135Z" fill="#F4A082"/>
<g style="mix-blend-mode:multiply" opacity="0.18">
<path d="M252.481 52.1149C252.481 52.1149 259.859 68.3269 271.693 74.2089L256.999 51.6856L248.227 49.7219C248.227 49.7219 235.208 70.0166 237.086 76.1452C237.086 76.1452 247.876 54.3891 254.788 52.2153C261.701 50.0415 251.043 49.0186 251.043 49.0186" fill="#A05940"/>
</g>
<path d="M252.692 52.7353C252.692 52.7353 242.077 59.8868 237.077 76.1446C237.077 76.1446 234.27 83.2961 236.138 87.1962C238.007 91.0962 245.2 96.3297 243.639 101.17C243.587 103.936 242.943 106.655 241.755 109.129C240.567 111.603 238.864 113.771 236.77 115.474C236.77 115.474 243.639 112.551 249.569 123.931C249.569 123.931 262.061 117.099 271.114 129.128C271.114 129.128 277.667 121.328 284.229 131.412C284.229 131.412 290.159 127.183 293.282 135.312C293.282 135.312 297.967 131.412 296.405 142.134C296.405 142.134 301.713 146.701 295.16 150.912C295.16 150.912 296.09 153.186 292.344 155.479L290.475 149.953C291.364 149.237 292.478 148.892 293.598 148.985C293.598 148.985 291.721 144.418 294.844 142.153C293.407 141.744 292.139 140.855 291.236 139.622C290.332 138.389 289.843 136.881 289.844 135.33C289.844 135.33 284.229 139.23 280.483 132.398C280.483 132.398 271.421 140.207 264.245 129.804C264.245 129.804 249.885 139.851 243.323 126.553C243.323 126.553 225.524 135.001 224.594 118.424C224.594 118.424 215.225 105.098 227.085 97.2887C227.085 97.2887 216.19 82.2823 222.699 68.9747C229.568 54.9913 236.121 34.1851 251.113 42.9624C251.113 42.9624 277.343 30.9335 273.597 75.8432C273.614 75.8158 260.5 65.4126 252.692 52.7353Z" fill="#1D3542"/>
<path d="M237.331 77.1863C237.928 79.7163 237.103 82.091 235.489 82.502C233.875 82.913 232.094 81.205 231.498 78.6751C230.901 76.1451 231.726 73.7703 233.34 73.3593C234.954 72.9483 236.735 74.6563 237.331 77.1863Z" fill="#F4A082"/>
<path d="M271.482 74.9117C270.895 77.4326 271.71 79.8164 273.325 80.2274C274.939 80.6385 276.719 78.9305 277.316 76.4005C277.913 73.8705 277.088 71.4958 275.483 71.0848C273.877 70.6738 272.079 72.4091 271.482 74.9117Z" fill="#F4A082"/>
<path d="M218.97 149.615C212.408 147.341 209.601 155.46 209.601 155.46C204.917 153.515 203.671 159.689 203.671 159.689C199.609 163.269 203.671 168.147 203.671 168.147C203.67 168.653 203.717 169.157 203.811 169.654L207.32 167.745C206.828 167.73 206.335 167.755 205.846 167.818C207.408 164.566 204.908 160.995 204.908 160.995C206.211 161.106 207.515 160.789 208.635 160.087C209.756 159.386 210.637 158.336 211.154 157.086C228.015 163.589 232.383 143.386 232.383 143.386C232.383 143.386 225.523 151.871 218.97 149.615Z" fill="#1D3542"/>
<path d="M240.919 76.6195C242.241 76.9752 243.61 77.1078 244.972 77.0123C246.332 76.9077 247.667 76.5809 248.928 76.0441C247.815 76.9924 246.447 77.5572 245.012 77.6603C243.577 77.7633 242.147 77.3997 240.919 76.6195Z" fill="#2E2430"/>
<path d="M250.2 91.5896C251.125 91.9839 252.124 92.1512 253.12 92.0783C254.117 92.0055 255.084 91.6944 255.946 91.1694C256.009 91.1319 256.055 91.0699 256.074 90.9971C256.093 90.9243 256.083 90.8467 256.047 90.7813C256.011 90.7159 255.951 90.6681 255.882 90.6484C255.812 90.6287 255.737 90.6387 255.674 90.6762C254.875 91.167 253.976 91.4564 253.05 91.5214C252.124 91.5864 251.196 91.4253 250.341 91.0507C250.016 90.9137 249.876 91.4617 250.2 91.5896Z" fill="#A34F31"/>
<path d="M250.271 86.1096L251.709 86.1644C252.166 86.1644 252.587 86.1644 253.052 86.1644C253.517 86.1644 253.929 86.0822 254.394 86.0091C254.859 85.936 255.271 85.8447 255.815 85.7534C255.5 86.1817 255.087 86.5208 254.613 86.7398C254.144 86.9691 253.639 87.1054 253.122 87.1417C252.604 87.1774 252.084 87.1155 251.587 86.959C251.086 86.7972 250.633 86.5048 250.271 86.1096V86.1096Z" fill="#A34F31"/>
<path d="M257.789 76.6748C259.111 77.03 260.479 77.1626 261.841 77.0676C263.204 76.9619 264.541 76.6353 265.807 76.0994C264.692 77.0485 263.322 77.6136 261.886 77.7167C260.449 77.8198 259.018 77.4557 257.789 76.6748V76.6748Z" fill="#2E2430"/>
<path d="M240.814 73.4318C241.693 72.3532 242.834 71.5394 244.117 71.0752C245.401 70.611 246.781 70.5133 248.113 70.7922C248.586 70.8836 248.788 70.1346 248.314 70.0342C246.855 69.7225 245.342 69.8214 243.931 70.3207C242.52 70.8199 241.263 71.7015 240.288 72.8747C239.972 73.2583 240.498 73.788 240.814 73.4318V73.4318Z" fill="#1D3542"/>
<path d="M266.035 72.5462C265.059 71.3722 263.8 70.4903 262.387 69.991C260.975 69.4918 259.46 69.3933 257.999 69.7057C257.526 69.797 257.727 70.5551 258.201 70.4546C259.534 70.1787 260.913 70.2788 262.197 70.7445C263.48 71.2102 264.62 72.0246 265.5 73.1033C265.824 73.4869 266.377 72.9298 266.035 72.5462Z" fill="#1D3542"/>
<path d="M253.306 51.6306C253.762 53.729 254.482 55.7558 255.446 57.6587C257.376 61.5488 260.13 64.9313 263.499 67.5503C264.341 68.2134 265.22 68.8234 266.131 69.3771C267.008 69.9525 268 70.4 268.938 70.9206C267.982 70.4548 266.991 70.0073 266.061 69.5141C265.116 68.9999 264.202 68.4265 263.324 67.7969C259.757 65.2959 256.784 61.9819 254.63 58.1063C253.522 56.1526 252.667 54.055 252.086 51.868L253.306 51.6306Z" fill="#1D3542"/>
<path d="M253.736 50.2238C252.849 52.4317 252.462 54.8224 252.604 57.211C252.681 58.4197 252.926 59.6104 253.332 60.7457C253.749 61.8938 254.322 62.9735 255.034 63.9515C254.235 63.0296 253.568 61.993 253.052 60.8735C252.521 59.7417 252.163 58.5307 251.99 57.284C251.798 56.0309 251.753 54.7579 251.858 53.4936C251.957 52.2107 252.201 50.9444 252.587 49.7215L253.736 50.2238Z" fill="#1D3542"/>
<path d="M254.78 51.4754C254.207 51.8696 253.664 52.3093 253.157 52.7907C252.636 53.28 252.146 53.8048 251.692 54.3616C250.763 55.4864 249.995 56.7445 249.411 58.0973C249.611 57.3764 249.86 56.6713 250.157 55.9874C250.451 55.2907 250.797 54.6189 251.192 53.978C251.581 53.3392 252.012 52.7289 252.481 52.1513C252.956 51.5439 253.478 50.9787 254.043 50.4616L254.78 51.4754Z" fill="#1D3542"/>
<g style="mix-blend-mode:multiply" opacity="0.18">
<path d="M355.313 267.867C355.313 269.594 311.757 271 258.026 271C204.294 271 160.73 269.575 160.73 267.867C160.73 266.159 204.294 264.735 258.026 264.735C311.757 264.735 355.313 266.114 355.313 267.867Z" fill="#A05940"/>
</g>
<path d="M32.21 258.264C31.858 257.619 31.374 257.127 30.758 256.79C30.142 256.453 29.4233 256.284 28.602 256.284C27.6927 256.284 26.886 256.489 26.182 256.9C25.478 257.311 24.928 257.897 24.532 258.66C24.136 259.423 23.938 260.303 23.938 261.3C23.938 262.327 24.136 263.221 24.532 263.984C24.9427 264.747 25.5073 265.333 26.226 265.744C26.9447 266.155 27.7807 266.36 28.734 266.36C29.9073 266.36 30.868 266.052 31.616 265.436C32.364 264.805 32.8553 263.933 33.09 262.818H27.81V260.464H36.126V263.148C35.9207 264.219 35.4807 265.209 34.806 266.118C34.1313 267.027 33.2587 267.761 32.188 268.318C31.132 268.861 29.944 269.132 28.624 269.132C27.1427 269.132 25.8007 268.802 24.598 268.142C23.41 267.467 22.4713 266.536 21.782 265.348C21.1073 264.16 20.77 262.811 20.77 261.3C20.77 259.789 21.1073 258.44 21.782 257.252C22.4713 256.049 23.41 255.118 24.598 254.458C25.8007 253.783 27.1353 253.446 28.602 253.446C30.3327 253.446 31.836 253.871 33.112 254.722C34.388 255.558 35.268 256.739 35.752 258.264H32.21ZM49.7347 262.642C49.7347 263.082 49.7054 263.478 49.6467 263.83H40.7367C40.8101 264.71 41.1181 265.399 41.6607 265.898C42.2034 266.397 42.8707 266.646 43.6627 266.646C44.8067 266.646 45.6207 266.155 46.1047 265.172H49.4267C49.0747 266.345 48.4001 267.313 47.4027 268.076C46.4054 268.824 45.1807 269.198 43.7287 269.198C42.5554 269.198 41.4994 268.941 40.5607 268.428C39.6367 267.9 38.9107 267.159 38.3827 266.206C37.8694 265.253 37.6127 264.153 37.6127 262.906C37.6127 261.645 37.8694 260.537 38.3827 259.584C38.8961 258.631 39.6147 257.897 40.5387 257.384C41.4627 256.871 42.5261 256.614 43.7287 256.614C44.8874 256.614 45.9214 256.863 46.8307 257.362C47.7547 257.861 48.4661 258.572 48.9647 259.496C49.4781 260.405 49.7347 261.454 49.7347 262.642ZM46.5447 261.762C46.5301 260.97 46.2441 260.339 45.6867 259.87C45.1294 259.386 44.4474 259.144 43.6407 259.144C42.8781 259.144 42.2327 259.379 41.7047 259.848C41.1914 260.303 40.8761 260.941 40.7587 261.762H46.5447ZM58.7368 256.636C60.1888 256.636 61.3622 257.098 62.2568 258.022C63.1515 258.931 63.5988 260.207 63.5988 261.85V269H60.5188V262.268C60.5188 261.3 60.2768 260.559 59.7928 260.046C59.3088 259.518 58.6488 259.254 57.8128 259.254C56.9622 259.254 56.2875 259.518 55.7888 260.046C55.3048 260.559 55.0628 261.3 55.0628 262.268V269H51.9828V256.812H55.0628V258.33C55.4735 257.802 55.9942 257.391 56.6248 257.098C57.2702 256.79 57.9742 256.636 58.7368 256.636ZM77.8578 262.642C77.8578 263.082 77.8284 263.478 77.7698 263.83H68.8598C68.9331 264.71 69.2411 265.399 69.7838 265.898C70.3264 266.397 70.9938 266.646 71.7858 266.646C72.9298 266.646 73.7438 266.155 74.2278 265.172H77.5498C77.1978 266.345 76.5231 267.313 75.5258 268.076C74.5284 268.824 73.3038 269.198 71.8518 269.198C70.6784 269.198 69.6224 268.941 68.6838 268.428C67.7598 267.9 67.0338 267.159 66.5058 266.206C65.9924 265.253 65.7358 264.153 65.7358 262.906C65.7358 261.645 65.9924 260.537 66.5058 259.584C67.0191 258.631 67.7378 257.897 68.6618 257.384C69.5858 256.871 70.6491 256.614 71.8518 256.614C73.0104 256.614 74.0444 256.863 74.9538 257.362C75.8778 257.861 76.5891 258.572 77.0878 259.496C77.6011 260.405 77.8578 261.454 77.8578 262.642ZM74.6678 261.762C74.6531 260.97 74.3671 260.339 73.8098 259.87C73.2524 259.386 72.5704 259.144 71.7638 259.144C71.0011 259.144 70.3558 259.379 69.8278 259.848C69.3144 260.303 68.9991 260.941 68.8818 261.762H74.6678ZM83.1859 258.704C83.5819 258.059 84.0952 257.553 84.7259 257.186C85.3712 256.819 86.1046 256.636 86.9259 256.636V259.87H86.1119C85.1439 259.87 84.4106 260.097 83.9119 260.552C83.4279 261.007 83.1859 261.799 83.1859 262.928V269H80.1059V256.812H83.1859V258.704ZM88.2084 262.862C88.2084 261.63 88.4504 260.537 88.9344 259.584C89.4331 258.631 90.1004 257.897 90.9364 257.384C91.7871 256.871 92.7331 256.614 93.7744 256.614C94.6838 256.614 95.4758 256.797 96.1504 257.164C96.8398 257.531 97.3898 257.993 97.8004 258.55V256.812H100.902V269H97.8004V267.218C97.4044 267.79 96.8544 268.267 96.1504 268.648C95.4611 269.015 94.6618 269.198 93.7524 269.198C92.7258 269.198 91.7871 268.934 90.9364 268.406C90.1004 267.878 89.4331 267.137 88.9344 266.184C88.4504 265.216 88.2084 264.109 88.2084 262.862ZM97.8004 262.906C97.8004 262.158 97.6538 261.52 97.3604 260.992C97.0671 260.449 96.6711 260.039 96.1724 259.76C95.6738 259.467 95.1384 259.32 94.5664 259.32C93.9944 259.32 93.4664 259.459 92.9824 259.738C92.4984 260.017 92.1024 260.427 91.7944 260.97C91.5011 261.498 91.3544 262.129 91.3544 262.862C91.3544 263.595 91.5011 264.241 91.7944 264.798C92.1024 265.341 92.4984 265.759 92.9824 266.052C93.4811 266.345 94.0091 266.492 94.5664 266.492C95.1384 266.492 95.6738 266.353 96.1724 266.074C96.6711 265.781 97.0671 265.37 97.3604 264.842C97.6538 264.299 97.8004 263.654 97.8004 262.906ZM106.991 252.72V269H103.911V252.72H106.991ZM128.014 253.644V269H124.934V262.466H118.356V269H115.276V253.644H118.356V259.958H124.934V253.644H128.014ZM142.375 262.642C142.375 263.082 142.346 263.478 142.287 263.83H133.377C133.451 264.71 133.759 265.399 134.301 265.898C134.844 266.397 135.511 266.646 136.303 266.646C137.447 266.646 138.261 266.155 138.745 265.172H142.067C141.715 266.345 141.041 267.313 140.043 268.076C139.046 268.824 137.821 269.198 136.369 269.198C135.196 269.198 134.14 268.941 133.201 268.428C132.277 267.9 131.551 267.159 131.023 266.206C130.51 265.253 130.253 264.153 130.253 262.906C130.253 261.645 130.51 260.537 131.023 259.584C131.537 258.631 132.255 257.897 133.179 257.384C134.103 256.871 135.167 256.614 136.369 256.614C137.528 256.614 138.562 256.863 139.471 257.362C140.395 257.861 141.107 258.572 141.605 259.496C142.119 260.405 142.375 261.454 142.375 262.642ZM139.185 261.762C139.171 260.97 138.885 260.339 138.327 259.87C137.77 259.386 137.088 259.144 136.281 259.144C135.519 259.144 134.873 259.379 134.345 259.848C133.832 260.303 133.517 260.941 133.399 261.762H139.185ZM143.831 262.862C143.831 261.63 144.073 260.537 144.557 259.584C145.056 258.631 145.723 257.897 146.559 257.384C147.41 256.871 148.356 256.614 149.397 256.614C150.307 256.614 151.099 256.797 151.773 257.164C152.463 257.531 153.013 257.993 153.423 258.55V256.812H156.525V269H153.423V267.218C153.027 267.79 152.477 268.267 151.773 268.648C151.084 269.015 150.285 269.198 149.375 269.198C148.349 269.198 147.41 268.934 146.559 268.406C145.723 267.878 145.056 267.137 144.557 266.184C144.073 265.216 143.831 264.109 143.831 262.862ZM153.423 262.906C153.423 262.158 153.277 261.52 152.983 260.992C152.69 260.449 152.294 260.039 151.795 259.76C151.297 259.467 150.761 259.32 150.189 259.32C149.617 259.32 149.089 259.459 148.605 259.738C148.121 260.017 147.725 260.427 147.417 260.97C147.124 261.498 146.977 262.129 146.977 262.862C146.977 263.595 147.124 264.241 147.417 264.798C147.725 265.341 148.121 265.759 148.605 266.052C149.104 266.345 149.632 266.492 150.189 266.492C150.761 266.492 151.297 266.353 151.795 266.074C152.294 265.781 152.69 265.37 152.983 264.842C153.277 264.299 153.423 263.654 153.423 262.906ZM162.614 252.72V269H159.534V252.72H162.614ZM169.243 259.342V265.238C169.243 265.649 169.338 265.949 169.529 266.14C169.734 266.316 170.071 266.404 170.541 266.404H171.971V269H170.035C167.439 269 166.141 267.739 166.141 265.216V259.342H164.689V256.812H166.141V253.798H169.243V256.812H171.971V259.342H169.243ZM181.05 256.636C181.974 256.636 182.795 256.841 183.514 257.252C184.233 257.648 184.79 258.242 185.186 259.034C185.597 259.811 185.802 260.75 185.802 261.85V269H182.722V262.268C182.722 261.3 182.48 260.559 181.996 260.046C181.512 259.518 180.852 259.254 180.016 259.254C179.165 259.254 178.491 259.518 177.992 260.046C177.508 260.559 177.266 261.3 177.266 262.268V269H174.186V252.72H177.266V258.33C177.662 257.802 178.19 257.391 178.85 257.098C179.51 256.79 180.243 256.636 181.05 256.636Z" fill="white"/>
<g style="mix-blend-mode:overlay" opacity="0.15">
<path d="M405.76 97.3217C405.515 97.1205 405.25 96.9192 405.029 96.7179C392.455 84.1308 379.797 71.6242 367.345 58.9163C359.92 51.3366 357.573 42.0945 360.511 31.9226C363.417 21.9157 370.199 15.3987 380.34 12.8909C389.851 10.5361 398.364 12.8909 405.664 19.4602C406.745 20.4344 407.674 21.6017 408.972 23.0226C410.029 21.8432 410.861 20.8087 411.786 19.8869C416.05 15.6805 421.204 13.225 427.092 12.2992C427.622 12.2863 428.15 12.3446 428.664 12.4723C429.107 12.6728 429.562 12.8435 430.027 12.9835C436.611 14.5494 442.122 17.7938 446.242 23.2682C450.446 28.8553 452.34 35.0744 451.813 42.1026C451.315 48.7282 448.867 54.3838 444.176 59.0733C431.98 71.3397 419.753 83.5995 407.493 95.8525C406.958 96.3677 406.339 96.8306 405.76 97.3217ZM415.106 33.4079H402.758V45.5925H390.699V57.8254H402.898V69.9255H415.19V57.7248H427.249V45.4879H415.106V33.4079Z" fill="#D70027"/>
<path d="M363.007 164.959C362.979 161.074 363.168 157.174 362.875 153.31C362.557 149.103 359.506 146.467 356.58 143.866C352.399 140.155 348.183 136.476 344.027 132.732C341.53 130.482 339.006 128.24 336.735 125.773C335.706 124.561 334.971 123.126 334.589 121.582C330.143 105.213 325.755 88.8243 321.424 72.4172C320.082 67.3533 321.951 63.489 326.678 61.0698C327.004 60.882 327.319 60.6764 327.622 60.454C328.257 60.4882 328.893 60.4882 329.528 60.454C333.194 60.14 337.45 62.6518 338.817 66.7093C341.104 73.5724 343.271 80.4718 345.49 87.351C346.619 90.841 347.773 94.3229 348.931 97.8651C353.207 94.8341 354.924 94.4114 358.98 95.3131C364.712 98.6058 370.464 101.862 376.164 105.207C380.875 107.977 385.742 110.557 390.148 113.757C396.431 118.326 399.638 124.843 399.767 132.624C399.944 143.399 399.859 154.179 399.883 164.959C399.389 165.052 398.89 165.114 398.388 165.144C387.098 165.144 375.807 165.144 364.515 165.144C364.009 165.115 363.505 165.053 363.007 164.959ZM347.54 101.448C346.036 105.433 347.789 109.997 351.632 112.163C357.332 115.383 363.1 118.475 368.864 121.582C370.528 122.48 372.252 122.097 372.884 120.829C373.587 119.401 372.92 117.746 371.336 116.881C365.926 113.929 360.52 110.965 355.121 107.989C352.219 106.395 349.244 104.889 347.54 101.448Z" fill="#FEBBAA"/>
<path d="M490.321 60.4539C491.993 61.7662 493.915 62.8691 495.277 64.4511C497.062 66.5281 497.352 69.1768 496.636 71.8576C492.48 87.4517 488.119 102.993 484.26 118.664C482.925 124.082 479.838 127.765 475.818 131.142C471.706 134.648 467.711 138.283 463.667 141.878C461.766 143.572 459.889 145.295 458.064 147.066C456.089 149.017 454.955 151.664 454.904 154.441C454.748 157.939 454.904 161.453 454.928 164.959C454.434 165.052 453.935 165.114 453.433 165.144C442.143 165.144 430.852 165.144 419.56 165.144C419.058 165.114 418.558 165.052 418.064 164.959C418.088 154.747 418.165 144.535 418.125 134.322C418.088 124.009 422.57 116.402 431.442 111.261C440.474 106.028 449.462 100.723 458.466 95.4419C458.673 95.2976 458.867 95.1346 459.045 94.9548C462.614 94.7375 466.055 94.979 468.864 98.0342C469.218 97.052 469.512 96.3033 469.761 95.5425C472.804 86.1797 475.79 76.8047 478.91 67.462C479.372 66.0842 480.074 64.7992 480.984 63.6661C483.399 60.6914 486.772 60.2406 490.321 60.4539ZM470.593 102.104C468.965 103.521 467.494 105.256 465.641 106.334C459.442 109.957 453.112 113.338 446.813 116.8C444.887 117.855 444.188 119.111 444.879 120.528C445.752 122.311 447.07 122.677 449.2 121.534C454.908 118.463 460.612 115.379 466.264 112.211C470.05 110.074 471.807 105.751 470.593 102.104Z" fill="#FEBBAA"/>
<path d="M363.007 164.959C363.501 165.052 364.001 165.114 364.503 165.144C375.792 165.144 387.084 165.144 398.376 165.144C398.878 165.114 399.377 165.052 399.871 164.959L402.705 165.152C402.757 165.728 402.846 166.275 402.85 166.823C402.85 173.774 402.81 180.726 402.89 187.678C402.89 189.24 402.396 189.598 400.925 189.59C387.933 189.541 374.936 189.541 361.934 189.59C360.467 189.59 359.952 189.24 359.972 187.678C360.053 180.726 360.005 173.774 360.013 166.823C360.013 166.323 360.081 165.828 360.129 165.184L363.007 164.959Z" fill="#E5557F"/>
<path d="M418.076 164.959C418.57 165.052 419.07 165.114 419.572 165.144C430.861 165.144 442.153 165.144 453.445 165.144C453.947 165.114 454.446 165.052 454.94 164.959L457.754 165.152C457.806 165.728 457.895 166.275 457.899 166.823C457.899 173.774 457.859 180.726 457.939 187.678C457.959 189.24 457.445 189.598 455.973 189.59C442.982 189.541 429.985 189.541 416.983 189.59C415.512 189.59 414.997 189.24 415.017 187.678C415.098 180.726 415.05 173.774 415.058 166.823C415.058 166.323 415.126 165.824 415.174 165.184L418.076 164.959Z" fill="#E5557F"/>
<path d="M358.967 95.3131C354.948 94.4114 353.215 94.8341 348.918 97.8651C347.761 94.3229 346.607 90.841 345.478 87.351C343.251 80.4718 341.084 73.5724 338.797 66.7093C337.45 62.6518 333.194 60.14 329.528 60.466C328.893 60.5002 328.257 60.5002 327.622 60.466C326.252 54.9836 328.446 50.3665 333.25 48.6518C335.512 47.88 337.985 48.0254 340.141 49.0568C342.297 50.0881 343.964 51.9236 344.786 54.1705C349.61 67.7196 354.224 81.3493 358.915 94.9468C358.944 95.067 358.961 95.1897 358.967 95.3131V95.3131Z" fill="#FEAC96"/>
<path d="M490.321 60.454C486.772 60.2406 483.399 60.6914 480.996 63.6742C480.086 64.8072 479.384 66.0923 478.922 67.4701C475.818 76.8128 472.816 86.1877 469.773 95.5506C469.524 96.3114 469.23 97.0601 468.876 98.0423C466.063 94.987 462.626 94.7455 459.057 94.9629C462.808 84.0006 466.571 73.0411 470.344 62.0842C471.107 59.8582 472.016 57.6564 472.651 55.4062C474.259 49.7265 479.834 47.2389 484.151 48.4988C489.348 50.0123 491.764 54.7219 490.321 60.454Z" fill="#FEAC96"/>
<path d="M405.76 97.3217C406.339 96.8306 406.966 96.3838 407.493 95.8525C419.742 83.5994 431.984 71.3397 444.22 59.0733C448.895 54.3838 451.343 48.7282 451.857 42.1026C452.384 35.0744 450.491 28.8553 446.286 23.2682C442.166 17.7938 436.639 14.5494 430.071 12.9835C429.602 12.844 429.142 12.6732 428.696 12.4723C428.716 12.4519 428.74 12.4356 428.766 12.4245C428.792 12.4134 428.82 12.4077 428.849 12.4077C428.877 12.4077 428.906 12.4134 428.932 12.4245C428.958 12.4356 428.982 12.4519 429.002 12.4723C430.867 12.428 432.732 12.3757 434.593 12.3274L435.321 12.4924L438.693 13.2975L438.765 13.2733L440.028 13.7L439.983 13.6718L441.157 14.0985H441.125L441.969 14.4487L441.925 14.4125L442.761 14.7828L442.741 14.7587L445.068 16.0266C445.091 16.0165 445.116 16.0113 445.141 16.0116C445.167 16.0119 445.191 16.0176 445.214 16.0282C445.237 16.0389 445.257 16.0543 445.274 16.0735C445.29 16.0927 445.302 16.1151 445.309 16.1394L446.27 16.7794L449.956 19.7219L450.852 20.6115L453.365 23.6627C453.634 24.0652 453.899 24.4677 454.169 24.8702L454.546 25.4821L455.455 27.0359L455.857 27.8007H455.837C456.062 28.3441 456.291 28.8835 456.52 29.4108L456.488 29.3705L457.634 32.8846C457.718 33.1463 457.798 33.4079 457.879 33.6655C457.939 34.0681 458.003 34.4706 458.064 34.8409C458.064 35.0019 458.064 35.1629 458.044 35.324L458.441 38.6529L458.369 41.3418C458.313 42.0986 458.253 42.8593 458.196 43.6201C457.445 49.3642 455.101 54.4442 451.069 58.5137C437.137 72.6184 423.069 86.546 408.847 100.723L405.76 97.3217Z" fill="#BD0224"/>
<path d="M434.589 12.3113C432.728 12.3596 430.863 12.4119 428.998 12.4562L434.589 12.3113Z" fill="#D70027"/>
<path d="M457.601 32.8846L456.456 29.3705L457.601 32.8846Z" fill="#D70027"/>
<path d="M438.689 13.2774L435.317 12.4723L438.689 13.2774Z" fill="#D70027"/>
<path d="M445.052 16.0065L442.725 14.7386L445.052 16.0065Z" fill="#D70027"/>
<path d="M458.442 38.6529L457.995 35.324L458.442 38.6529Z" fill="#D70027"/>
<path d="M455.435 27.0077L454.526 25.4539L455.435 27.0077Z" fill="#D70027"/>
<path d="M456.488 29.4108C456.259 28.8674 456.03 28.328 455.805 27.8007L456.488 29.4108Z" fill="#D70027"/>
<path d="M458.212 43.6362C458.269 42.8755 458.329 42.1147 458.385 41.3579C458.329 42.0986 458.269 42.8594 458.212 43.6362Z" fill="#D70027"/>
<path d="M454.149 24.8421C453.883 24.4396 453.618 24.037 453.345 23.6345C453.618 24.041 453.883 24.4436 454.149 24.8421Z" fill="#D70027"/>
<path d="M450.836 20.5913L449.94 19.7018L450.836 20.5913Z" fill="#D70027"/>
<path d="M440.023 13.6799L438.745 13.2532L440.023 13.6799Z" fill="#D70027"/>
<path d="M441.157 14.0985L439.995 13.6517L441.157 14.0985Z" fill="#D70027"/>
<path d="M446.254 16.7593L445.293 16.1192L446.254 16.7593Z" fill="#D70027"/>
<path d="M458.04 34.8409C457.979 34.4384 457.915 34.06 457.855 33.6656C457.907 34.06 457.971 34.4505 458.04 34.8409Z" fill="#D70027"/>
<path d="M441.961 14.4286L441.117 14.0784L441.961 14.4286Z" fill="#D70027"/>
<path d="M442.765 14.7627L441.929 14.3924L442.765 14.7627Z" fill="#D70027"/>
<path d="M455.825 27.7806L455.423 27.0157L455.825 27.7806Z" fill="#D70027"/>
<path d="M415.106 33.4079V45.504H427.237V57.7248H415.178V69.9094H402.91V57.8254H390.711V45.5925H402.77V33.4079H415.106Z" fill="#F0F1F1"/>
<path d="M347.54 101.448C349.244 104.889 352.219 106.395 355.109 107.989C360.503 110.976 365.908 113.945 371.324 116.897C372.908 117.762 373.575 119.417 372.871 120.846C372.252 122.114 370.528 122.496 368.852 121.598C363.088 118.491 357.32 115.399 351.62 112.179C347.789 109.997 346.036 105.433 347.54 101.448Z" fill="#FEAC96"/>
<path d="M470.593 102.104C471.799 105.751 470.05 110.074 466.264 112.195C460.612 115.363 454.908 118.447 449.2 121.518C447.07 122.661 445.752 122.295 444.879 120.512C444.188 119.095 444.879 117.839 446.813 116.784C453.112 113.338 459.442 109.941 465.641 106.318C467.494 105.256 468.965 103.521 470.593 102.104Z" fill="#FEAC96"/>
</g>
<defs>
<linearGradient id="paint0_linear_2191_1040" x1="252.5" y1="0" x2="252.5" y2="283" gradientUnits="userSpaceOnUse">
<stop stop-opacity="0"/>
<stop offset="1"/>
</linearGradient>
</defs>
</svg>
