<svg width="505" height="377" viewBox="0 0 505 377" fill="none" xmlns="http://www.w3.org/2000/svg">
<rect width="505" height="377" rx="10" fill="#C73B5D"/>
<path opacity="0.15" d="M0 9.99999C0 4.47714 4.47715 0 10 0H495C500.523 0 505 4.47715 505 10V283H0V9.99999Z" fill="url(#paint0_linear_2191_472)"/>
<path d="M0 283H505V367C505 372.523 500.523 377 495 377H10C4.47715 377 0 372.523 0 367V283Z" fill="white"/>
<path d="M252.358 54.9369C243.586 53.9778 234.971 56.517 227.12 60.417C219.987 64.0466 213.321 68.5942 207.276 73.9529C195.934 83.9267 186.433 96.8598 182.064 111.784C179.948 119.14 179.246 126.859 179.999 134.497C180.751 142.136 182.944 149.545 186.45 156.301C193.767 170.768 205.75 182.322 219.137 190.57C233.903 199.629 250.517 204.924 267.623 206.024C283.22 207.001 299.897 204.398 312.985 194.972C324.925 186.369 331.934 172.595 333.811 157.771C335.741 142.454 332.329 127.064 325.039 113.711C317.275 99.536 305.739 87.9455 293.028 78.5836C279.185 68.3906 263.087 59.4032 245.884 58.1245C241.745 57.8161 237.585 58.0123 233.489 58.709C232.848 58.8186 233.12 59.8233 233.752 59.7137C251.297 56.7636 268.552 63.9151 283.29 73.1948C296.335 81.415 308.529 91.608 317.819 104.249C326.811 116.515 332.776 131.065 333.329 146.601C333.837 161.105 329.82 176.121 320.293 186.99C309.722 199.037 293.879 204.161 278.606 205.01C262.056 205.807 245.559 202.53 230.453 195.447C203.539 182.925 177.616 156.036 180.915 122.964C182.441 107.674 190.065 93.6814 200.013 82.5841C205.083 76.9551 210.765 71.959 216.944 67.6964C223.962 62.883 231.567 58.6999 239.752 56.7362C243.884 55.7552 248.144 55.4959 252.358 55.969C252.999 56.0329 252.99 54.9917 252.358 54.9277V54.9369Z" fill="#E9FBFF"/>
<path d="M258.999 209.577C250.034 212.82 240.296 211.404 231.146 209.824C222.374 208.416 213.748 206.153 205.381 203.065C189.591 197.101 175.02 187.09 165.554 172.422C161.2 165.8 158.245 158.291 156.884 150.392C155.523 142.493 155.787 134.384 157.659 126.599C161.379 111.163 170.555 97.3715 182.336 87.3246C209.399 64.3172 248.033 62.7371 281.176 67.0755C290.859 68.3063 300.435 70.3187 309.818 73.0945C317.67 75.4419 325.828 78.2459 332.267 83.6712C339.066 89.3888 342.391 97.746 342.119 106.788C341.829 116.187 337.89 124.863 332.846 132.481C323.416 146.729 311.011 159.27 297.94 169.874C284.772 180.57 270.289 189.386 254.876 196.087C251.174 197.694 247.422 199.171 243.621 200.517C243.016 200.727 243.279 201.741 243.893 201.521C276.58 189.842 305.544 169.014 327.609 141.322C338.066 128.124 348.365 109.857 340.408 92.5033C336.978 85.0595 330.276 80.1548 323.214 76.8758C314.74 72.9393 305.511 70.5371 296.44 68.6556C277.875 64.6254 258.858 63.3249 239.945 64.7921C222.663 66.2626 205.381 70.7472 190.433 80.1548C164.186 96.6682 146.465 131.558 159.308 162.713C165.791 178.45 178.45 190.707 192.872 198.526C200.976 202.818 209.547 206.081 218.4 208.244C227.409 210.527 236.91 212.409 246.2 212.564C250.631 212.719 255.054 212.054 259.262 210.6C259.868 210.381 259.613 209.376 258.999 209.595V209.577Z" fill="#E9FBFF"/>
<path d="M185.347 115.254C187.306 113.213 187.306 109.906 185.347 107.865C183.387 105.825 180.21 105.825 178.25 107.865C176.291 109.906 176.291 113.213 178.25 115.254C180.21 117.294 183.387 117.294 185.347 115.254Z" fill="#E9FBFF"/>
<path d="M192.828 54.8181C192.828 55.4373 192.652 56.0426 192.322 56.5576C191.992 57.0726 191.522 57.4742 190.973 57.7115C190.423 57.9489 189.819 58.0115 189.235 57.8914C188.652 57.7712 188.116 57.4738 187.695 57.0365C187.274 56.5993 186.986 56.042 186.869 55.4348C186.752 54.8277 186.81 54.1981 187.037 53.6255C187.263 53.0529 187.648 52.563 188.141 52.2177C188.635 51.8723 189.216 51.6871 189.811 51.6853C190.206 51.6841 190.599 51.7642 190.965 51.9211C191.331 52.078 191.664 52.3086 191.944 52.5996C192.224 52.8906 192.447 53.2364 192.598 53.6171C192.75 53.9978 192.828 54.4059 192.828 54.8181V54.8181Z" fill="#E9FBFF"/>
<path d="M176.783 159.589C176.78 160.207 176.6 160.811 176.268 161.324C175.935 161.837 175.464 162.236 174.914 162.47C174.364 162.704 173.759 162.764 173.177 162.641C172.594 162.518 172.06 162.218 171.641 161.779C171.221 161.34 170.937 160.782 170.822 160.175C170.707 159.568 170.768 158.939 170.996 158.367C171.224 157.796 171.61 157.308 172.104 156.964C172.599 156.621 173.18 156.438 173.774 156.438C174.171 156.438 174.564 156.519 174.93 156.678C175.296 156.836 175.629 157.069 175.908 157.362C176.188 157.654 176.409 158.002 176.559 158.384C176.709 158.766 176.786 159.176 176.783 159.589V159.589Z" fill="#E9FBFF"/>
<path d="M303.493 108.944C303.493 109.46 303.346 109.965 303.071 110.395C302.795 110.825 302.403 111.159 301.945 111.357C301.486 111.555 300.982 111.607 300.495 111.506C300.008 111.405 299.561 111.156 299.21 110.791C298.86 110.426 298.621 109.96 298.524 109.453C298.427 108.947 298.477 108.421 298.667 107.944C298.856 107.467 299.178 107.059 299.591 106.772C300.003 106.485 300.488 106.332 300.985 106.332C301.314 106.332 301.64 106.399 301.945 106.53C302.249 106.662 302.526 106.854 302.759 107.097C302.992 107.339 303.176 107.627 303.302 107.944C303.429 108.261 303.493 108.601 303.493 108.944V108.944Z" fill="#E9FBFF"/>
<path d="M216.9 107.555C216.9 107.798 216.83 108.035 216.701 108.236C216.571 108.438 216.387 108.595 216.172 108.687C215.957 108.779 215.72 108.803 215.492 108.755C215.263 108.707 215.054 108.59 214.89 108.418C214.726 108.246 214.614 108.027 214.57 107.789C214.526 107.551 214.55 107.304 214.641 107.081C214.731 106.857 214.883 106.667 215.077 106.533C215.272 106.4 215.5 106.33 215.733 106.332C216.043 106.334 216.34 106.464 216.558 106.693C216.777 106.923 216.9 107.232 216.9 107.555Z" fill="#E9FBFF"/>
<path d="M292.791 38.9809C292.791 39.3606 292.683 39.7318 292.48 40.0474C292.277 40.363 291.989 40.6089 291.652 40.7538C291.315 40.8987 290.944 40.9361 290.586 40.8614C290.229 40.7866 289.9 40.603 289.643 40.3339C289.386 40.0647 289.211 39.7221 289.141 39.3494C289.071 38.9768 289.109 38.5908 289.249 38.2405C289.39 37.8902 289.628 37.5913 289.932 37.3816C290.236 37.172 290.593 37.061 290.958 37.0628C291.199 37.0628 291.438 37.1125 291.661 37.209C291.884 37.3055 292.087 37.4469 292.257 37.6252C292.428 37.8034 292.562 38.0149 292.654 38.2476C292.746 38.4802 292.792 38.7294 292.791 38.9809Z" fill="#E9FBFF"/>
<path d="M292.791 194.224C292.793 194.604 292.686 194.976 292.484 195.293C292.283 195.609 291.995 195.857 291.658 196.003C291.321 196.149 290.95 196.188 290.592 196.114C290.233 196.041 289.904 195.858 289.646 195.589C289.388 195.32 289.212 194.978 289.142 194.605C289.071 194.232 289.108 193.845 289.249 193.494C289.389 193.144 289.627 192.844 289.931 192.634C290.235 192.424 290.593 192.313 290.958 192.315C291.444 192.315 291.91 192.516 292.254 192.874C292.598 193.232 292.791 193.717 292.791 194.224V194.224Z" fill="#E9FBFF"/>
<path d="M364.006 151.935C364.006 152.84 363.748 153.725 363.264 154.477C362.78 155.229 362.092 155.814 361.288 156.158C360.484 156.502 359.6 156.59 358.748 156.41C357.896 156.23 357.115 155.791 356.503 155.148C355.891 154.504 355.477 153.686 355.313 152.797C355.149 151.909 355.242 150.989 355.58 150.155C355.919 149.322 356.488 148.612 357.215 148.115C357.942 147.619 358.795 147.359 359.664 147.368C360.82 147.38 361.924 147.867 362.737 148.722C363.55 149.577 364.006 150.732 364.006 151.935V151.935Z" fill="#E9FBFF"/>
<path d="M148.027 193.009C150.614 193.009 152.711 190.825 152.711 188.131C152.711 185.438 150.614 183.254 148.027 183.254C145.44 183.254 143.342 185.438 143.342 188.131C143.342 190.825 145.44 193.009 148.027 193.009Z" fill="#E9FBFF"/>
<path d="M143.684 80.401C143.684 80.7804 143.576 81.1512 143.374 81.4666C143.172 81.7821 142.884 82.0279 142.547 82.1731C142.211 82.3182 141.84 82.3562 141.483 82.2822C141.125 82.2082 140.797 82.0255 140.54 81.7573C140.282 81.489 140.106 81.1473 140.035 80.7752C139.964 80.4032 140.001 80.0175 140.14 79.667C140.28 79.3166 140.516 79.017 140.819 78.8062C141.122 78.5955 141.478 78.483 141.842 78.483C142.084 78.4818 142.325 78.5306 142.549 78.6265C142.773 78.7225 142.976 78.8637 143.147 79.0421C143.319 79.2204 143.454 79.4323 143.547 79.6656C143.639 79.8989 143.686 80.1488 143.684 80.401V80.401Z" fill="#E9FBFF"/>
<path d="M255.683 23.143C258.639 23.143 261.035 20.6486 261.035 17.5716C261.035 14.4945 258.639 12.0001 255.683 12.0001C252.728 12.0001 250.332 14.4945 250.332 17.5716C250.332 20.6486 252.728 23.143 255.683 23.143Z" fill="#E9FBFF"/>
<path d="M283.773 256.359C285.803 256.359 287.449 254.646 287.449 252.532C287.449 250.418 285.803 248.705 283.773 248.705C281.743 248.705 280.097 250.418 280.097 252.532C280.097 254.646 281.743 256.359 283.773 256.359Z" fill="#E9FBFF"/>
<path d="M334.25 96.2299C336.648 96.2299 338.592 94.2057 338.592 91.7088C338.592 89.2119 336.648 87.1877 334.25 87.1877C331.852 87.1877 329.907 89.2119 329.907 91.7088C329.907 94.2057 331.852 96.2299 334.25 96.2299Z" fill="#E9FBFF"/>
<path d="M211.163 174.97L214.601 172.048C213.066 168.394 209.391 167.791 207.329 167.746L203.82 169.655C204.829 174.97 211.163 174.97 211.163 174.97Z" fill="#1D3542"/>
<path d="M239.735 171.234C239.735 171.234 234.112 167.654 230.366 172.203C230.366 172.203 226.927 169.28 220.997 173.828L218.812 174.806C218.812 174.806 224.743 179.683 231.305 176.112C231.305 176.112 241.603 177.737 241.919 174.806C242.042 174.035 241.887 173.244 241.484 172.585C241.081 171.925 240.458 171.445 239.735 171.234Z" fill="#1D3542"/>
<path d="M257.683 105.08C257.683 105.08 275.799 96.9511 279.229 81.0222C282.659 65.0933 269.579 47.5386 269.579 47.5386C269.579 47.5386 215.251 95.9464 227.111 106.048C233.252 111.245 257.71 108.98 257.71 108.98" fill="#1D3542"/>
<g style="mix-blend-mode:multiply" opacity="0.22">
<path d="M236.138 87.1965C236.138 87.1965 242.077 102.797 252.999 102.148C263.921 101.5 271.623 86.9773 272.299 79.6157C272.974 72.254 234.884 79.0677 236.13 87.1965" fill="#1D3542"/>
</g>
<path d="M236.77 183.418C236.77 183.418 224.9 202.279 224.278 205.202C224.278 205.202 183.994 207.476 174.634 211.705C165.274 215.934 161.826 228.593 169.949 235.114C178.073 241.636 232.085 243.892 247.069 238.366C247.069 238.366 324.504 249.089 337.619 233.489C350.734 217.888 313.889 202.599 282.668 204.261C282.668 204.261 271.737 181.829 265.807 178.906C259.877 175.984 236.77 183.418 236.77 183.418Z" fill="#77CAD9"/>
<g style="mix-blend-mode:multiply" opacity="0.23">
<path d="M193.363 212.682C192.775 213.358 189.617 214.957 192.74 216.254C195.863 217.551 213.04 227.305 217.409 226.008C221.777 224.711 196.486 209.102 193.363 212.682Z" fill="#D25A5C"/>
</g>
<g style="mix-blend-mode:multiply" opacity="0.23">
<path d="M285.747 224.337C286.413 224.382 299.835 220.811 305.774 218.208C311.713 215.605 312.95 213.641 314.547 213.641C316.143 213.641 315.801 210.39 311.424 210.71C307.046 211.029 288.94 219.185 288.94 219.185L285.773 224.812" fill="#D25A5C"/>
</g>
<g style="mix-blend-mode:multiply" opacity="0.23">
<path d="M281.413 216.253C281.413 216.253 267.052 219.505 264.868 219.185C262.683 218.866 269.254 204.882 284.536 203.576C284.536 203.576 269.552 203.256 259.56 214.956C249.569 226.657 241.138 212.034 234.892 208.782C234.892 208.782 244.928 221.953 245.419 223.661C245.419 223.661 260.955 221.578 265.429 222.327C265.429 222.327 276.781 222.437 282.237 216.098L281.413 216.253Z" fill="#D25A5C"/>
</g>
<path d="M227.874 222.61C232.445 224.729 237.445 224.748 242.34 224.3C247.771 223.807 253.166 223.104 258.613 222.839C264.367 222.525 270.134 222.604 275.878 223.076C277.598 223.176 279.307 223.414 280.992 223.789C282.448 224.154 283.896 224.583 285.334 225.022C288.44 225.935 291.589 226.894 294.607 228.109C294.975 228.264 295.142 227.634 294.774 227.488C292.238 226.465 289.607 225.661 287.01 224.866C284.44 223.933 281.799 223.227 279.115 222.757C267.921 221.359 256.604 222.072 245.446 223.323C239.7 223.971 233.629 224.574 228.199 222.053C227.831 221.88 227.515 222.446 227.883 222.61H227.874Z" fill="#AA353B"/>
<path d="M223.54 228.803C231.727 233.774 240.646 237.305 249.937 239.252C250.332 239.325 250.498 238.704 250.104 238.622C240.865 236.694 231.996 233.188 223.856 228.246C223.785 228.202 223.701 228.19 223.621 228.211C223.541 228.233 223.473 228.286 223.431 228.36C223.389 228.434 223.377 228.522 223.398 228.605C223.418 228.688 223.47 228.76 223.54 228.803Z" fill="#AA353B"/>
<path d="M207.531 218.482C202.732 217.24 197.618 216.062 192.811 217.888C192.433 218.034 192.591 218.665 192.977 218.519C197.688 216.692 202.627 217.888 207.364 219.103C207.443 219.126 207.528 219.115 207.6 219.074C207.671 219.032 207.724 218.962 207.746 218.879C207.768 218.797 207.758 218.709 207.717 218.634C207.677 218.56 207.61 218.505 207.531 218.482Z" fill="#AA353B"/>
<g style="mix-blend-mode:multiply" opacity="0.49">
<g style="mix-blend-mode:multiply" opacity="0.49">
<path d="M244.823 223.286L239.559 215.422Z" fill="#D25A5C"/>
</g>
</g>
<mask id="mask0_2191_472" style="mask-type:alpha" maskUnits="userSpaceOnUse" x="165" y="178" width="176" height="64">
<path d="M236.77 183.419C236.77 183.419 224.901 202.279 224.278 205.202C224.278 205.202 183.994 207.476 174.634 211.705C165.274 215.934 161.826 228.593 169.95 235.115C178.073 241.636 232.085 243.892 247.069 238.366C247.069 238.366 324.504 249.089 337.619 233.489C350.734 217.889 313.889 202.599 282.668 204.261C282.668 204.261 271.737 181.829 265.807 178.907C259.877 175.984 236.77 183.419 236.77 183.419Z" fill="#D25A5C"/>
</mask>
<g mask="url(#mask0_2191_472)">
<g style="mix-blend-mode:multiply" opacity="0.23">
<path d="M252.253 239.015C241.64 237.666 231.503 233.647 222.716 227.305C222.716 227.305 231.489 239.992 241.454 241.919C251.42 243.846 252.253 239.015 252.253 239.015Z" fill="#D25A5C"/>
</g>
<path d="M285.317 203.092C283.166 203.24 281.041 203.667 278.992 204.362C276.915 204.992 274.905 205.84 272.991 206.892C272.641 207.093 272.991 207.65 273.307 207.449C275.172 206.425 277.133 205.602 279.159 204.992C281.147 204.309 283.21 203.889 285.299 203.741C285.703 203.741 285.703 203.074 285.299 203.092H285.317Z" fill="#AA353B"/>
<path d="M222.716 205.22C226.018 205.358 229.142 206.817 231.436 209.294C231.708 209.595 232.155 209.139 231.875 208.837C229.464 206.24 226.183 204.712 222.716 204.572C222.313 204.572 222.313 205.202 222.716 205.22Z" fill="#AA353B"/>
</g>
<path d="M279.729 218.144C275.781 220.254 271.702 221.889 267.21 221.944C267.137 221.957 267.07 221.996 267.021 222.056C266.973 222.115 266.947 222.19 266.947 222.268C266.947 222.346 266.973 222.421 267.021 222.48C267.07 222.54 267.137 222.579 267.21 222.592C271.816 222.537 275.983 220.866 280.044 218.71C280.395 218.519 280.044 217.952 279.729 218.144V218.144Z" fill="#AA353B"/>
<path d="M223.242 119.776C223.242 120.424 221.909 125.046 220.611 137.13C219.312 149.213 212.522 165.836 212.61 167.782C212.698 169.727 208.399 171.572 205.022 179.865C201.645 188.159 194.407 194.05 192.609 195.767C190.049 195.09 187.394 194.889 184.766 195.173C180.731 195.694 176.924 194.58 176.248 193.347C176.248 193.347 174.45 195.064 176.081 196.607C177.713 198.151 181.398 196.68 182.415 198.58C183.433 200.48 181.082 203.53 178.854 202.663C178.091 202.391 177.399 201.941 176.83 201.347C176.262 200.754 175.831 200.032 175.573 199.238C175.213 198.324 176.599 194.306 173.748 193.465C173.748 193.465 172.871 198.881 173.265 200.16C173.265 200.16 169.318 195.803 167.221 197.858C167.221 197.858 171.125 201.247 171.485 202.206C171.485 202.206 168.291 200.736 167.441 202.727C168.751 203.571 170.145 204.266 171.599 204.8C172.862 205.065 173.809 205.348 174.485 206.289C174.485 206.289 170.976 205.805 170.8 207.768C170.8 207.768 174.23 207.604 175.818 208.179C177.406 208.755 183.363 209.093 185.468 207.704C187.573 206.316 216.847 189.583 223.339 173.965C223.339 173.965 231.155 146.254 231.182 139.742" fill="#F4A082"/>
<g style="mix-blend-mode:multiply" opacity="0.21">
<path d="M217.408 152.218C217.408 152.218 223.962 166.192 232.392 171.718C240.822 177.244 228.339 142.135 217.408 152.218" fill="#D18161"/>
</g>
<path d="M285.475 121.009C285.475 121.657 286.247 123.575 287.492 135.686C288.738 147.797 295.388 164.457 295.274 166.403C295.16 168.348 299.458 170.22 302.774 178.55C306.09 186.88 313.301 192.817 315.056 194.543C317.622 193.885 320.28 193.706 322.907 194.013C326.942 194.561 330.75 193.474 331.443 192.187C331.443 192.187 333.197 193.913 331.583 195.447C329.969 196.982 326.267 195.447 325.232 197.365C324.197 199.283 326.539 202.325 328.741 201.475C329.505 201.21 330.201 200.766 330.774 200.177C331.347 199.588 331.783 198.87 332.048 198.078C332.408 197.119 331.048 193.136 333.908 192.324C333.908 192.324 334.724 197.74 334.347 199.018C334.347 199.018 338.32 194.689 340.4 196.762C340.4 196.762 336.478 200.124 336.11 201.073C336.11 201.073 339.312 199.63 340.145 201.631C338.831 202.466 337.434 203.152 335.978 203.677C334.715 203.923 333.759 204.197 333.083 205.138C333.083 205.138 336.548 204.681 336.759 206.645C336.759 206.645 333.329 206.453 331.741 207.019C330.153 207.586 324.188 207.933 322.091 206.471C319.995 205.01 290.835 188.104 284.457 172.449C284.457 172.449 276.834 144.665 276.86 138.162" fill="#F4A082"/>
<g style="mix-blend-mode:multiply" opacity="0.21">
<path d="M284.554 178.221C284.554 178.221 290.493 167.818 295.8 166.521C301.107 165.224 281.729 153.515 284.554 178.221Z" fill="#D18161"/>
</g>
<path d="M236.138 184.752L230.208 140.536L222.777 122.269C222.777 122.269 221.33 117.648 238.015 109.3C254.885 100.86 284.51 110.925 285.624 122.087C286.826 134.344 278.299 138.28 278.299 138.28L271.737 184.752C271.737 184.752 256.482 192.853 236.138 184.752Z" fill="#F4A082"/>
<g style="mix-blend-mode:multiply" opacity="0.21">
<path d="M232.392 171.718C232.304 172.44 261.183 192.506 275.044 181.464C288.905 170.422 235.208 148.309 232.392 171.718Z" fill="#D18161"/>
</g>
<path d="M239.814 109.253C239.288 110.879 248.587 99.2066 247.709 82.3186H258.236C258.236 82.3186 258.236 103.326 268.921 109.893C268.93 109.856 252.139 126.114 239.814 109.253Z" fill="#F4A082"/>
<g style="mix-blend-mode:multiply" opacity="0.34">
<path d="M252.85 102.148C258.112 102.148 262.377 98.5821 262.377 94.1834C262.377 89.7848 258.112 86.219 252.85 86.219C247.588 86.219 243.323 89.7848 243.323 94.1834C243.323 98.5821 247.588 102.148 252.85 102.148Z" fill="#D18161"/>
</g>
<path d="M227.401 222.437C227.401 222.437 226.146 218.857 224.9 214.957C223.655 211.057 218.347 210.728 214.286 213.002C210.224 215.276 201.794 210.079 198.671 209.751C195.548 209.422 191.179 209.751 192.117 212.354C193.214 215.395 197.109 212.682 198.671 214.628C200.232 216.573 218.347 228.931 223.655 228.931C223.655 228.931 227.401 227.963 227.401 222.437Z" fill="#F4A082"/>
<path d="M280.273 217.715C280.273 217.715 281.843 214.281 283.449 210.527C285.054 206.773 290.37 206.974 294.195 209.614C298.02 212.253 306.897 207.951 310.038 207.942C313.179 207.933 317.495 208.691 316.328 211.185C314.951 214.107 311.319 211.011 309.591 212.792C307.862 214.573 288.686 225.058 283.405 224.529C283.405 224.565 279.764 223.223 280.273 217.715Z" fill="#F4A082"/>
<path d="M224.541 118.442C224.918 118.442 276.799 138.344 286.598 128.051C286.598 128.051 288.563 144.555 290.782 150.885C293.282 158.036 295.783 166.165 295.783 166.494C295.783 166.494 292.344 165.836 281.747 176.897C267.395 191.84 236.287 178.267 217.339 152.063C217.321 152.09 219.488 118.159 224.541 118.442Z" fill="#FFD2B9"/>
<mask id="mask1_2191_472" style="mask-type:alpha" maskUnits="userSpaceOnUse" x="217" y="118" width="79" height="66">
<path d="M224.541 118.442C224.918 118.442 276.799 138.344 286.598 128.051C286.598 128.051 288.563 144.555 290.782 150.885C293.282 158.036 295.783 166.165 295.783 166.494C295.783 166.494 292.344 165.836 281.747 176.897C267.395 191.84 236.287 178.267 217.339 152.063C217.321 152.09 219.488 118.159 224.541 118.442Z" fill="#FFD2B9"/>
</mask>
<g mask="url(#mask1_2191_472)">
<path d="M214.645 134.208C220.637 131.166 228.55 135.934 234.603 132.984C235.25 132.595 235.939 132.288 236.656 132.07C237.331 131.981 238.015 132.005 238.682 132.143L258.192 135.066C259.932 135.375 261.691 135.552 263.456 135.596C265.772 135.596 268.158 135.185 270.369 135.852C271.412 136.171 272.369 136.765 273.395 137.094C276.097 138.007 279.097 137.688 281.948 137.313L293.607 135.788C294.712 135.642 296.239 135.788 296.353 136.884C296.467 137.98 294.756 138.336 293.554 138.336C289.966 138.336 286.475 139.377 282.904 139.743C280.33 139.96 277.745 139.991 275.167 139.834C262.763 139.396 250.37 138.787 237.989 138.007C235.594 137.861 233.199 137.706 230.84 137.313C230.012 137.105 229.155 137.065 228.313 137.194C227.629 137.359 227.023 137.761 226.348 137.971C223.716 138.774 221.085 136.473 218.374 136.637C217.172 136.719 216.014 137.277 214.812 137.176C213.61 137.076 212.417 135.733 213.163 134.82" fill="#FCEBE6"/>
<path d="M212.373 144.464C212.637 143.076 214.567 142.583 215.979 143.012C217.391 143.441 218.532 144.437 219.9 144.957C224.12 146.574 228.673 143.368 233.243 143.578C236.314 143.715 239.226 145.405 242.27 145.076C243.147 144.966 244.025 144.683 244.902 144.565C246.814 144.483 248.727 144.733 250.56 145.304C256.701 146.702 263.07 146.821 269.386 146.921L280.975 147.113C284.484 147.168 287.993 147.222 291.352 146.327C292.627 145.887 293.945 145.602 295.283 145.478C296.634 145.478 298.107 146.063 298.581 147.305L286.94 148.903C285.045 149.159 283.159 149.415 281.247 149.478C278.343 149.57 275.448 149.214 272.535 149.086C263.526 148.684 254.429 150.556 245.516 149.204C243.174 148.848 240.832 148.291 238.498 148.419C236.454 148.556 234.463 149.232 232.427 149.168C230.909 149.033 229.409 148.727 227.953 148.255C222.767 146.92 217.4 146.518 212.084 147.067L210.145 144.126L212.496 144.017" fill="#FCEBE6"/>
<path d="M212.4 155.005C215.146 153.278 218.777 153.699 221.918 154.63C225.058 155.562 228.129 156.941 231.41 156.959C234.489 156.959 237.445 155.79 240.516 155.635C245.402 155.397 250.165 157.79 255.034 157.114C257.078 156.831 259.017 156.009 261.078 155.854C262.604 155.807 264.129 155.948 265.623 156.274L274.667 157.863C275.593 158.061 276.538 158.15 277.483 158.128C278.686 157.983 279.865 157.676 280.992 157.215C283.895 156.179 286.865 155.358 289.879 154.758C291.502 154.429 293.282 154.183 294.765 154.922C295.298 155.28 295.862 155.585 296.449 155.836C297.642 156.174 298.87 155.516 300.09 155.242C301.309 154.968 303.002 155.489 302.941 156.685C299.502 157.863 295.712 157.27 292.063 157.434C288.186 157.617 284.422 158.658 280.597 159.261C274.6 160.24 268.488 160.181 262.508 159.087C260.484 158.638 258.432 158.332 256.368 158.174C253.906 158.205 251.451 158.437 249.025 158.868C242.884 159.626 236.743 159.197 230.603 158.759L220.523 158.046C217.921 157.936 215.331 157.612 212.777 157.078C212.226 157.013 211.717 156.74 211.347 156.311C211.274 156.202 211.228 156.075 211.216 155.943C211.203 155.81 211.223 155.677 211.274 155.555C211.325 155.433 211.405 155.327 211.507 155.246C211.609 155.166 211.729 155.114 211.856 155.096" fill="#FCEBE6"/>
<path d="M223.725 166.586C226.067 165.554 228.822 165.928 231.287 166.65C233.752 167.371 236.138 168.431 238.691 168.732C245.963 169.646 253.525 164.357 260.289 167.061C261.473 167.536 262.622 168.257 263.903 168.203C264.852 168.048 265.782 167.785 266.675 167.417C269.307 166.668 272.114 167.682 274.667 168.687C275.586 169.154 276.622 169.314 277.632 169.143C278.312 168.824 278.974 168.464 279.615 168.066C281.168 167.381 282.957 168.066 284.65 168.303C287.159 168.659 289.686 168.011 292.195 167.655C294.704 167.298 297.458 167.289 299.528 168.705C297.881 169.726 295.998 170.26 294.081 170.248C287.694 170.669 281.15 169.655 274.965 171.226C273.995 171.541 272.989 171.722 271.974 171.765C270.868 171.644 269.784 171.361 268.754 170.924C264.772 169.573 260.447 169.536 256.218 169.518C254.462 169.475 252.705 169.53 250.955 169.682C246.937 170.093 243.016 171.509 238.972 171.363C234.094 171.189 229.515 168.732 224.629 168.687C223.925 168.737 223.218 168.657 222.541 168.449C221.892 168.175 221.374 167.472 221.602 166.833C221.83 166.193 223.023 166.102 223.172 166.769" fill="#FCEBE6"/>
<path d="M214.373 126.572C215.637 124.325 218.646 123.494 221.304 123.713C223.962 123.932 226.453 124.992 229.05 125.54C231.752 126.143 234.535 126.242 237.27 125.832C238.708 125.494 240.184 125.368 241.656 125.457C243.016 125.802 244.355 126.232 245.665 126.745C250.464 128.088 255.315 125.174 260.306 124.526C263.631 124.087 267 124.681 270.289 125.284C278.343 126.782 286.563 128.398 294.677 127.266C294.624 129.166 292.045 129.814 290.054 129.878C282.221 130.134 274.38 129.869 266.579 129.083C262.683 128.546 258.753 128.317 254.824 128.398C252.069 128.554 249.332 129.074 246.586 128.965C241.945 128.791 237.515 126.855 232.875 126.782C230.493 126.863 228.118 127.085 225.76 127.448C222.521 127.781 219.257 127.719 216.031 127.266C215.362 127.248 214.719 126.986 214.216 126.526C213.786 126.033 213.952 125.074 214.619 124.982" fill="#FCEBE6"/>
<path d="M240.542 176.66C247.876 176.843 255.253 177.025 262.473 176.075C264.086 175.804 265.716 175.654 267.351 175.628C268.791 175.698 270.225 175.878 271.64 176.167C276.904 177.08 282.167 177.783 287.501 178.258C282.913 180.377 277.553 180.14 272.509 179.464C267.465 178.788 262.394 177.71 257.341 178.304C254.42 178.651 251.56 179.546 248.621 179.446C246.382 179.37 244.199 178.7 242.279 177.5" fill="#FCEBE6"/>
</g>
<path d="M273.526 75.2135C273.526 88.649 259.087 99.5453 252.999 99.5453C246.911 99.5453 232.48 88.649 232.48 75.2135C232.48 61.7781 241.252 44.9358 252.657 44.9358C264.061 44.9358 273.526 61.7689 273.526 75.2135Z" fill="#F4A082"/>
<g style="mix-blend-mode:multiply" opacity="0.18">
<path d="M252.481 52.1149C252.481 52.1149 259.859 68.3269 271.693 74.2089L256.999 51.6856L248.227 49.7219C248.227 49.7219 235.208 70.0166 237.086 76.1452C237.086 76.1452 247.876 54.3891 254.788 52.2153C261.701 50.0415 251.043 49.0186 251.043 49.0186" fill="#A05940"/>
</g>
<path d="M252.692 52.7353C252.692 52.7353 242.077 59.8868 237.077 76.1446C237.077 76.1446 234.27 83.2961 236.138 87.1962C238.007 91.0962 245.2 96.3297 243.639 101.17C243.587 103.936 242.943 106.655 241.755 109.129C240.567 111.603 238.864 113.771 236.77 115.474C236.77 115.474 243.639 112.551 249.569 123.931C249.569 123.931 262.061 117.099 271.114 129.128C271.114 129.128 277.667 121.328 284.229 131.412C284.229 131.412 290.159 127.183 293.282 135.312C293.282 135.312 297.967 131.412 296.405 142.134C296.405 142.134 301.713 146.701 295.16 150.912C295.16 150.912 296.09 153.186 292.344 155.479L290.475 149.953C291.364 149.237 292.478 148.892 293.598 148.985C293.598 148.985 291.721 144.418 294.844 142.153C293.407 141.744 292.139 140.855 291.236 139.622C290.332 138.389 289.843 136.881 289.844 135.33C289.844 135.33 284.229 139.23 280.483 132.398C280.483 132.398 271.421 140.207 264.245 129.804C264.245 129.804 249.885 139.851 243.323 126.553C243.323 126.553 225.524 135.001 224.594 118.424C224.594 118.424 215.225 105.098 227.085 97.2887C227.085 97.2887 216.19 82.2823 222.699 68.9747C229.568 54.9913 236.121 34.1851 251.113 42.9624C251.113 42.9624 277.343 30.9335 273.597 75.8432C273.614 75.8158 260.5 65.4126 252.692 52.7353Z" fill="#1D3542"/>
<path d="M237.331 77.1863C237.928 79.7163 237.103 82.091 235.489 82.502C233.875 82.913 232.094 81.205 231.498 78.6751C230.901 76.1451 231.726 73.7703 233.34 73.3593C234.954 72.9483 236.735 74.6563 237.331 77.1863Z" fill="#F4A082"/>
<path d="M271.482 74.9117C270.895 77.4326 271.71 79.8164 273.325 80.2274C274.939 80.6385 276.719 78.9305 277.316 76.4005C277.913 73.8705 277.088 71.4958 275.483 71.0848C273.877 70.6738 272.079 72.4091 271.482 74.9117Z" fill="#F4A082"/>
<path d="M218.97 149.615C212.408 147.341 209.601 155.46 209.601 155.46C204.917 153.515 203.671 159.689 203.671 159.689C199.609 163.269 203.671 168.147 203.671 168.147C203.67 168.653 203.717 169.157 203.811 169.654L207.32 167.745C206.828 167.73 206.335 167.755 205.846 167.818C207.408 164.566 204.908 160.995 204.908 160.995C206.211 161.106 207.515 160.789 208.635 160.087C209.756 159.386 210.637 158.336 211.154 157.086C228.015 163.589 232.383 143.386 232.383 143.386C232.383 143.386 225.523 151.871 218.97 149.615Z" fill="#1D3542"/>
<path d="M240.919 76.6195C242.241 76.9752 243.61 77.1078 244.972 77.0123C246.332 76.9077 247.667 76.5809 248.928 76.0441C247.815 76.9924 246.447 77.5572 245.012 77.6603C243.577 77.7633 242.147 77.3997 240.919 76.6195Z" fill="#2E2430"/>
<path d="M250.2 91.5896C251.125 91.9839 252.124 92.1512 253.12 92.0783C254.117 92.0055 255.084 91.6944 255.946 91.1694C256.009 91.1319 256.055 91.0699 256.074 90.9971C256.093 90.9243 256.083 90.8467 256.047 90.7813C256.011 90.7159 255.951 90.6681 255.882 90.6484C255.812 90.6287 255.737 90.6387 255.674 90.6762C254.875 91.167 253.976 91.4564 253.05 91.5214C252.124 91.5864 251.196 91.4253 250.341 91.0507C250.016 90.9137 249.876 91.4617 250.2 91.5896Z" fill="#A34F31"/>
<path d="M250.271 86.1096L251.709 86.1644C252.166 86.1644 252.587 86.1644 253.052 86.1644C253.517 86.1644 253.929 86.0822 254.394 86.0091C254.859 85.936 255.271 85.8447 255.815 85.7534C255.5 86.1817 255.087 86.5208 254.613 86.7398C254.144 86.9691 253.639 87.1054 253.122 87.1417C252.604 87.1774 252.084 87.1155 251.587 86.959C251.086 86.7972 250.633 86.5048 250.271 86.1096V86.1096Z" fill="#A34F31"/>
<path d="M257.789 76.6748C259.111 77.03 260.479 77.1626 261.841 77.0676C263.204 76.9619 264.541 76.6353 265.807 76.0994C264.692 77.0485 263.322 77.6136 261.886 77.7167C260.449 77.8198 259.018 77.4557 257.789 76.6748V76.6748Z" fill="#2E2430"/>
<path d="M240.814 73.4318C241.693 72.3532 242.834 71.5394 244.117 71.0752C245.401 70.611 246.781 70.5133 248.113 70.7922C248.586 70.8836 248.788 70.1346 248.314 70.0342C246.855 69.7225 245.342 69.8214 243.931 70.3207C242.52 70.8199 241.263 71.7015 240.288 72.8747C239.972 73.2583 240.498 73.788 240.814 73.4318V73.4318Z" fill="#1D3542"/>
<path d="M266.035 72.5462C265.059 71.3722 263.8 70.4903 262.387 69.991C260.975 69.4918 259.46 69.3933 257.999 69.7057C257.526 69.797 257.727 70.5551 258.201 70.4546C259.534 70.1787 260.913 70.2788 262.197 70.7445C263.48 71.2102 264.62 72.0246 265.5 73.1033C265.824 73.4869 266.377 72.9298 266.035 72.5462Z" fill="#1D3542"/>
<path d="M253.306 51.6306C253.762 53.729 254.482 55.7558 255.446 57.6587C257.376 61.5488 260.13 64.9313 263.499 67.5503C264.341 68.2134 265.22 68.8234 266.131 69.3771C267.008 69.9525 268 70.4 268.938 70.9206C267.982 70.4548 266.991 70.0073 266.061 69.5141C265.116 68.9999 264.202 68.4265 263.324 67.7969C259.757 65.2959 256.784 61.9819 254.63 58.1063C253.522 56.1526 252.667 54.055 252.086 51.868L253.306 51.6306Z" fill="#1D3542"/>
<path d="M253.736 50.2238C252.849 52.4317 252.462 54.8224 252.604 57.211C252.681 58.4197 252.926 59.6104 253.332 60.7457C253.749 61.8938 254.322 62.9735 255.034 63.9515C254.235 63.0296 253.568 61.993 253.052 60.8735C252.521 59.7417 252.163 58.5307 251.99 57.284C251.798 56.0309 251.753 54.7579 251.858 53.4936C251.957 52.2107 252.201 50.9444 252.587 49.7215L253.736 50.2238Z" fill="#1D3542"/>
<path d="M254.78 51.4754C254.207 51.8696 253.664 52.3093 253.157 52.7907C252.636 53.28 252.146 53.8048 251.692 54.3616C250.763 55.4864 249.995 56.7445 249.411 58.0973C249.611 57.3764 249.86 56.6713 250.157 55.9874C250.451 55.2907 250.797 54.6189 251.192 53.978C251.581 53.3392 252.012 52.7289 252.481 52.1513C252.956 51.5439 253.478 50.9787 254.043 50.4616L254.78 51.4754Z" fill="#1D3542"/>
<g style="mix-blend-mode:multiply" opacity="0.18">
<path d="M355.313 267.867C355.313 269.594 311.757 271 258.026 271C204.294 271 160.73 269.575 160.73 267.867C160.73 266.159 204.294 264.735 258.026 264.735C311.757 264.735 355.313 266.114 355.313 267.867Z" fill="#A05940"/>
</g>
<path d="M24.598 253.644V269H21.518V253.644H24.598ZM34.395 256.636C35.847 256.636 37.0204 257.098 37.915 258.022C38.8097 258.931 39.257 260.207 39.257 261.85V269H36.177V262.268C36.177 261.3 35.935 260.559 35.451 260.046C34.967 259.518 34.307 259.254 33.471 259.254C32.6204 259.254 31.9457 259.518 31.447 260.046C30.963 260.559 30.721 261.3 30.721 262.268V269H27.641V256.812H30.721V258.33C31.1317 257.802 31.6524 257.391 32.283 257.098C32.9284 256.79 33.6324 256.636 34.395 256.636ZM47.774 259.342H45.64V269H42.516V259.342H41.13V256.812H42.516V256.196C42.516 254.7 42.9413 253.6 43.792 252.896C44.6426 252.192 45.926 251.862 47.642 251.906V254.502C46.894 254.487 46.3733 254.612 46.08 254.876C45.7866 255.14 45.64 255.617 45.64 256.306V256.812H47.774V259.342ZM61.1 262.642C61.1 263.082 61.0706 263.478 61.012 263.83H52.102C52.1753 264.71 52.4833 265.399 53.026 265.898C53.5686 266.397 54.236 266.646 55.028 266.646C56.172 266.646 56.986 266.155 57.47 265.172H60.792C60.44 266.345 59.7653 267.313 58.768 268.076C57.7706 268.824 56.546 269.198 55.094 269.198C53.9206 269.198 52.8646 268.941 51.926 268.428C51.002 267.9 50.276 267.159 49.748 266.206C49.2346 265.253 48.978 264.153 48.978 262.906C48.978 261.645 49.2346 260.537 49.748 259.584C50.2613 258.631 50.98 257.897 51.904 257.384C52.828 256.871 53.8913 256.614 55.094 256.614C56.2526 256.614 57.2866 256.863 58.196 257.362C59.12 257.861 59.8313 258.572 60.33 259.496C60.8433 260.405 61.1 261.454 61.1 262.642ZM57.91 261.762C57.8953 260.97 57.6093 260.339 57.052 259.87C56.4946 259.386 55.8126 259.144 55.006 259.144C54.2433 259.144 53.598 259.379 53.07 259.848C52.5566 260.303 52.2413 260.941 52.124 261.762H57.91ZM66.4281 258.704C66.8241 258.059 67.3374 257.553 67.9681 257.186C68.6134 256.819 69.3467 256.636 70.1681 256.636V259.87H69.3541C68.3861 259.87 67.6527 260.097 67.1541 260.552C66.6701 261.007 66.4281 261.799 66.4281 262.928V269H63.3481V256.812H66.4281V258.704ZM75.8286 259.342V265.238C75.8286 265.649 75.9239 265.949 76.1146 266.14C76.3199 266.316 76.6573 266.404 77.1266 266.404H78.5566V269H76.6206C74.0246 269 72.7266 267.739 72.7266 265.216V259.342H71.2746V256.812H72.7266V253.798H75.8286V256.812H78.5566V259.342H75.8286ZM82.3339 255.36C81.7912 255.36 81.3366 255.191 80.9699 254.854C80.6179 254.502 80.4419 254.069 80.4419 253.556C80.4419 253.043 80.6179 252.617 80.9699 252.28C81.3366 251.928 81.7912 251.752 82.3339 251.752C82.8766 251.752 83.3239 251.928 83.6759 252.28C84.0426 252.617 84.2259 253.043 84.2259 253.556C84.2259 254.069 84.0426 254.502 83.6759 254.854C83.3239 255.191 82.8766 255.36 82.3339 255.36ZM83.8519 256.812V269H80.7719V256.812H83.8519ZM89.975 252.72V269H86.895V252.72H89.975ZM94.58 255.36C94.0373 255.36 93.5827 255.191 93.216 254.854C92.864 254.502 92.688 254.069 92.688 253.556C92.688 253.043 92.864 252.617 93.216 252.28C93.5827 251.928 94.0373 251.752 94.58 251.752C95.1227 251.752 95.57 251.928 95.922 252.28C96.2887 252.617 96.472 253.043 96.472 253.556C96.472 254.069 96.2887 254.502 95.922 254.854C95.57 255.191 95.1227 255.36 94.58 255.36ZM96.098 256.812V269H93.018V256.812H96.098ZM102.727 259.342V265.238C102.727 265.649 102.822 265.949 103.013 266.14C103.218 266.316 103.556 266.404 104.025 266.404H105.455V269H103.519C100.923 269 99.625 267.739 99.625 265.216V259.342H98.173V256.812H99.625V253.798H102.727V256.812H105.455V259.342H102.727ZM119.33 256.812L111.784 274.764H108.506L111.146 268.692L106.262 256.812H109.716L112.862 265.326L116.052 256.812H119.33Z" fill="white"/>
<g style="mix-blend-mode:overlay" opacity="0.15">
<path d="M459.223 136.087C457.824 130.182 457.292 134.128 463.701 115.182C466.163 107.151 457.6 108.074 460.146 96.5446C460.063 91.5354 454.298 89.8564 455.501 83.6158C455.613 82.7203 455.501 81.7409 455.165 80.9573C453.738 77.9909 449.876 77.6551 446.574 74.0731C445.063 72.45 444.279 70.2672 444.279 68.0285C444.279 66.1535 443.496 64.0547 442.376 62.5155C438.682 58.3458 433.505 60.4727 429.252 56.7787C429.084 56.6388 428.916 56.4989 428.72 56.303C424.438 51.3777 417.694 48.7751 411.174 49.6707C410.866 49.6986 410.614 49.7266 410.39 49.7266C404.765 50.2303 404.094 47.152 398.665 48.3834C396.874 48.971 394.999 50.2024 393.907 51.7415C392.592 53.5605 390.689 54.8478 388.506 55.2955C383.721 56.247 380.419 54.2601 377.508 55.8272C376.781 56.275 376.109 57.0306 375.689 57.7861C373.003 63.5789 367.35 61.5361 364.356 65.5658C359.654 76.4238 353.274 70.659 350.559 78.6066C344.655 97.72 346.558 94.2219 341.968 98.1677C336.007 105.192 342.752 109.921 342.752 116.526C343.367 125.565 348.237 125.425 347.957 128.783C344.655 143.027 355.848 138.577 355.541 144.902C354.841 150.191 358.059 154.92 363.516 156.879C365.727 157.691 368.385 157.383 370.568 158.11C373.647 159.006 374.122 162.476 376.613 164.099C378.152 165.107 379.859 165.33 381.818 165.554C382.965 165.61 383.973 165.722 384.84 165.862C385.624 166.254 386.491 166.758 387.471 167.373C389.178 168.325 390.717 169.164 392.536 169.248C395.53 169.416 397.937 166.87 400.959 167.933C403.142 168.633 405.129 170.424 407.396 171.067C412.965 172.662 418.338 170.731 420.856 166.03C424.326 160.713 430.791 170.871 436.444 157.411C438.207 154.528 442.069 157.495 447.861 150.527C451.723 145.154 459.951 145.266 459.223 136.087Z" fill="#F7597F"/>
<path d="M402.387 160.601C430.144 160.601 452.647 138.099 452.647 110.341C452.647 82.5831 430.144 60.0809 402.387 60.0809C374.629 60.0809 352.126 82.5831 352.126 110.341C352.126 138.099 374.629 160.601 402.387 160.601Z" fill="#FFD4E0"/>
<path d="M434.603 142.555C452.395 124.764 452.395 95.9178 434.603 78.1262C416.812 60.3345 387.966 60.3345 370.174 78.1262C352.382 95.9178 352.382 124.764 370.174 142.555C387.966 160.347 416.812 160.347 434.603 142.555Z" fill="#FFD4E0"/>
<g opacity="0.5">
<path opacity="0.5" d="M431.16 139.112C447.05 123.222 447.05 97.4593 431.16 81.5692C415.27 65.6792 389.507 65.6792 373.617 81.5692C357.727 97.4593 357.727 123.222 373.617 139.112C389.507 155.002 415.27 155.002 431.16 139.112Z" fill="#FFD4E0"/>
</g>
<g opacity="0.5">
<path opacity="0.5" d="M406.305 87.5336C414.336 95.3133 409.019 102.785 401.211 110.817C393.404 118.848 386.128 124.389 378.096 116.61C370.065 108.83 369.869 95.9849 377.676 87.9534C385.484 79.9219 398.301 79.7539 406.305 87.5336Z" fill="#FFD4E0"/>
</g>
<g opacity="0.5">
<path opacity="0.5" d="M392.256 127.775C391.361 136.311 396.594 135.947 402.359 133.652C404.094 133.26 405.381 132.057 405.577 130.266C405.437 119.212 400.26 120.891 397.769 121.115C394.439 120.863 391.836 125.872 392.256 127.775Z" fill="#FFD4E0"/>
</g>
<g opacity="0.5">
<path opacity="0.5" d="M417.442 100.742C413.161 101.274 413.944 103.793 415.707 106.367C416.099 107.179 416.827 107.682 417.722 107.571C423.123 106.255 421.696 103.905 421.304 102.701C421.052 101.022 418.31 100.323 417.442 100.742Z" fill="#FFD4E0"/>
</g>
<g opacity="0.5">
<path opacity="0.5" d="M409.886 120.387C412.881 131.217 423.991 127.3 421.724 118.093C416.659 110.089 405.577 107.822 409.886 120.387Z" fill="#FFD4E0"/>
</g>
<g opacity="0.5">
<path opacity="0.5" d="M410.81 133.484C409.271 136.926 412.769 138.437 415.316 135.779C416.043 132.309 413.944 130.182 411.034 133.344L410.81 133.484Z" fill="#FFD4E0"/>
</g>
<g opacity="0.5">
<path opacity="0.5" d="M427.433 121.647C427.433 122.29 428.16 123.522 429.643 123.046C440.753 122.262 426.677 108.018 427.433 121.647Z" fill="#FFD4E0"/>
</g>
<path d="M386.24 88.4571C387.611 89.7724 385.876 91.8992 383.525 94.3339C381.174 96.7685 379.104 98.5595 377.732 97.2163C376.361 95.901 377.173 92.8507 379.495 90.416C381.846 88.0094 384.868 87.1139 386.24 88.4571Z" fill="#FFD4E0"/>
<path d="M411.202 171.907C409.943 171.907 408.627 171.711 407.312 171.347C406.109 171.011 404.961 170.34 403.87 169.696C402.835 169.108 401.883 168.521 400.848 168.213C399.225 167.625 397.769 168.157 396.23 168.717C395.055 169.136 393.824 169.584 392.508 169.528C390.689 169.444 389.15 168.661 387.331 167.625C386.408 167.01 385.54 166.534 384.757 166.142C383.889 166.002 382.91 165.89 381.79 165.834H381.762C379.691 165.61 377.984 165.358 376.445 164.351C375.326 163.623 374.598 162.56 373.899 161.525C372.975 160.181 372.136 158.894 370.456 158.418C369.449 158.082 368.33 157.971 367.126 157.859C365.867 157.747 364.552 157.607 363.376 157.187C360.634 156.208 358.423 154.528 356.94 152.346C355.457 150.135 354.869 147.588 355.233 144.93C355.345 142.635 353.862 141.879 352.015 140.956C349.16 139.501 345.578 137.682 347.649 128.783L348.153 128.895C346.166 137.402 349.412 139.025 352.267 140.48C354.114 141.432 355.877 142.327 355.765 144.958V144.986C355.065 150.135 358.143 154.724 363.572 156.683C364.692 157.103 365.951 157.215 367.182 157.327C368.33 157.439 369.533 157.551 370.596 157.915C372.443 158.446 373.395 159.873 374.318 161.217C374.99 162.224 375.69 163.232 376.725 163.903C378.152 164.855 379.747 165.079 381.818 165.302C382.966 165.358 383.945 165.47 384.868 165.61H384.896L384.924 165.638C385.736 166.058 386.604 166.534 387.583 167.177C389.402 168.213 390.829 168.94 392.536 168.996C393.768 169.052 394.943 168.633 396.062 168.213C397.601 167.653 399.197 167.065 401.016 167.709C402.107 168.045 403.142 168.661 404.122 169.248C405.185 169.864 406.277 170.508 407.424 170.843C412.965 172.439 418.142 170.508 420.605 165.918L421.052 166.17C419.793 168.521 417.806 170.256 415.316 171.179C414.056 171.655 412.657 171.907 411.202 171.907Z" fill="black"/>
<path d="M342.08 98.3916L341.744 97.9998C342.304 97.5241 342.752 97.1323 343.171 96.8245C345.298 95.1174 345.298 95.1174 347.593 87.4217C348.265 85.127 349.104 82.3005 350.279 78.5506C351.595 74.7167 353.777 73.9612 356.072 73.1216C358.675 72.1981 361.613 71.1627 364.076 65.4819V65.4539L364.104 65.4259C365.475 63.5789 367.406 62.9633 369.253 62.3756C371.576 61.62 373.954 60.8365 375.409 57.7022V57.6742C375.857 56.8627 376.585 56.0791 377.312 55.6034H377.34C378.963 54.7358 380.643 54.9037 382.629 55.0996C384.309 55.2675 386.211 55.4634 388.422 55.0437C390.493 54.6239 392.368 53.3926 393.655 51.6016C394.747 50.1184 396.594 48.7751 398.525 48.1595L398.693 48.6352C396.846 49.2229 395.083 50.4822 394.075 51.8814C392.704 53.7844 390.717 55.0996 388.534 55.5194C386.267 55.9672 384.309 55.7713 382.601 55.6034C380.727 55.4075 379.103 55.2396 377.62 56.0231C376.949 56.4429 376.305 57.1425 375.885 57.8981C374.346 61.2282 371.827 62.0398 369.421 62.8234C367.574 63.439 365.811 63.9987 364.524 65.6778C361.977 71.5545 358.927 72.6179 356.24 73.5694C353.945 74.3809 351.986 75.0805 350.755 78.6626C349.608 82.4125 348.74 85.2389 348.069 87.5336C345.746 95.3693 345.746 95.3693 343.479 97.1883C343.087 97.5521 342.64 97.9159 342.08 98.3916Z" fill="black"/>
<path d="M448.057 150.667L447.637 150.359C449.037 148.4 450.996 147.169 452.899 145.993C456.257 143.866 459.447 141.879 458.971 136.115C458.803 135.415 458.663 134.855 458.523 134.352C457.768 131.553 457.768 131.553 460.454 123.857C461.238 121.619 462.217 118.82 463.477 115.098C464.568 111.488 463.393 109.753 461.994 107.766C460.37 105.416 458.523 102.757 459.895 96.5166C459.839 94.4178 458.747 92.9067 457.6 91.3395C456.089 89.2967 454.55 87.1698 455.249 83.5598C455.333 82.7203 455.221 81.7688 454.941 81.0412C454.214 79.5301 452.787 78.7185 451.164 77.795C449.68 76.9275 447.973 75.9481 446.378 74.269C444.867 72.6179 443.999 70.4071 443.999 68.0564C443.999 66.3214 443.3 64.2785 442.153 62.7114C440.278 60.6126 438.011 60.1648 435.632 59.6891C433.421 59.2413 431.155 58.7936 429.056 57.0026C428.86 56.8627 428.692 56.6947 428.496 56.4709L428.888 56.1351C429.056 56.3309 429.224 56.4709 429.364 56.5828H429.392C431.378 58.2899 433.589 58.7376 435.744 59.1574C438.123 59.6331 440.557 60.1089 442.544 62.3476L442.572 62.3756C443.776 64.0267 444.503 66.1815 444.503 68.0285C444.503 70.2672 445.287 72.3381 446.742 73.8772C448.281 75.5283 449.932 76.4798 451.387 77.3193C453.094 78.2988 454.578 79.1663 455.389 80.8174V80.8453C455.725 81.6569 455.837 82.6923 455.725 83.6438V83.6718C455.081 87.0579 456.565 89.1008 457.992 91.0597C459.139 92.6268 460.342 94.2779 460.37 96.5726V96.6006V96.6286C459.027 102.673 460.818 105.248 462.385 107.515C463.785 109.529 465.1 111.432 463.924 115.294C462.665 119.016 461.686 121.815 460.902 124.081C458.272 131.637 458.272 131.637 458.999 134.296C459.139 134.799 459.279 135.359 459.475 136.087V136.115C459.699 138.829 459.139 141.012 457.768 142.775C456.565 144.342 454.885 145.378 453.15 146.497C451.303 147.616 449.4 148.82 448.057 150.667Z" fill="black"/>
<path d="M402.331 160.853C398.665 160.853 394.999 160.461 391.389 159.65C385.008 158.222 379.048 155.62 373.647 151.87C368.246 148.148 363.712 143.475 360.13 138.018C356.436 132.365 353.917 126.096 352.714 119.38C351.483 112.664 351.623 105.919 353.106 99.3151C354.533 92.9346 357.136 86.974 360.886 81.573C364.608 76.172 369.281 71.6385 374.738 68.0564C380.391 64.3625 386.659 61.8439 393.376 60.6406L393.46 61.1443C366.315 66.0696 348.265 92.1791 353.19 119.296C355.597 132.449 362.956 143.866 373.926 151.45C384.896 159.062 398.189 161.916 411.342 159.538L411.426 160.041C408.403 160.601 405.353 160.853 402.331 160.853Z" fill="black"/>
<path d="M402.331 151.282C399.896 151.282 397.489 151.058 395.083 150.639C390.409 149.799 385.96 148.148 381.846 145.741L382.098 145.294C390.409 150.107 400.176 151.814 409.635 150.107C420.269 148.176 429.504 142.215 435.632 133.344C441.789 124.473 444.084 113.727 442.153 103.093C440.222 92.4589 434.261 83.224 425.39 77.0954C416.519 70.9389 405.773 68.6441 395.139 70.575C384.505 72.506 375.27 78.4667 369.113 87.3657L368.693 87.0859C371.716 82.6923 375.494 78.9984 379.943 76.116C384.533 73.0937 389.626 71.0788 395.055 70.0993C400.484 69.1199 405.969 69.2038 411.314 70.4071C416.491 71.5545 421.304 73.6813 425.698 76.7036C430.063 79.726 433.757 83.5039 436.668 87.9254C439.662 92.5149 441.705 97.5801 442.684 103.037C443.664 108.466 443.58 113.951 442.376 119.296C441.229 124.473 439.102 129.286 436.08 133.68C433.058 138.046 429.28 141.74 424.858 144.65C420.269 147.644 415.204 149.687 409.747 150.667C407.256 151.058 404.793 151.282 402.331 151.282Z" fill="black"/>
<path d="M470.697 78.6626C470.137 78.3827 469.549 78.1589 468.962 77.935C468.374 77.7391 467.758 77.5992 467.115 77.4872C466.471 77.4033 465.827 77.3753 465.184 77.4592C464.54 77.5152 463.897 77.6831 463.281 77.879C463.197 77.907 463.141 77.935 463.057 77.963L462.833 78.0469L462.609 78.1309C462.525 78.1589 462.469 78.1868 462.385 78.2428C462.106 78.3827 461.826 78.5227 461.546 78.6626C460.986 78.9704 460.454 79.3062 459.923 79.698C459.419 80.0898 458.943 80.5096 458.468 80.8734C458.02 81.2651 457.572 81.6009 457.096 81.9368C456.621 82.2446 456.145 82.5524 455.641 82.8323C455.389 82.9722 455.137 83.1121 454.858 83.224C454.718 83.28 454.606 83.336 454.466 83.4199C454.438 83.4479 454.41 83.4479 454.382 83.4759L454.298 83.5039C454.242 83.5319 454.186 83.5599 454.102 83.5878C453.85 83.6998 453.598 83.7837 453.346 83.8677C453.095 83.9516 452.815 84.0356 452.535 84.0916C452.255 84.1475 452.003 84.2315 451.723 84.2875C451.443 84.3434 451.164 84.3994 450.884 84.4274C450.38 84.5113 449.848 84.5673 449.345 84.6233C448.925 83.9516 448.365 83.5599 447.889 83.6718C447.805 83.6998 447.721 83.7278 447.666 83.7837C447.414 83.4759 447.246 83.364 447.246 83.364C445.063 81.7129 442.824 82.3565 441.033 83.0841C439.27 83.8117 434.989 87.0579 435.66 89.7444C436.388 92.4309 441.705 93.2425 443.58 93.0186C445.483 92.7947 447.777 92.291 448.897 89.8004C448.897 89.8004 449.009 89.6045 449.065 89.1847C449.149 89.1847 449.205 89.1847 449.289 89.1568C449.764 89.0448 450.044 88.4571 450.1 87.6736C450.576 87.5616 451.052 87.4497 451.527 87.3098C451.835 87.2258 452.143 87.1419 452.451 87.0299C452.759 86.918 453.067 86.834 453.374 86.6941C453.682 86.5822 453.99 86.4423 454.27 86.3303C454.578 86.1904 454.858 86.0505 455.165 85.8826C455.249 85.8546 455.305 85.7986 455.389 85.7427L455.501 85.6867L455.613 85.6307C455.753 85.5468 455.893 85.4628 456.005 85.3788C456.285 85.2109 456.537 85.043 456.788 84.8471C457.32 84.4833 457.824 84.0916 458.328 83.6718C458.831 83.252 459.279 82.8043 459.727 82.3565C460.175 81.9088 460.566 81.461 460.986 81.0692C461.406 80.6775 461.854 80.3137 462.329 79.9778C462.553 79.8099 462.805 79.642 463.057 79.5021C463.169 79.4182 463.309 79.3622 463.421 79.2782L463.617 79.1663C463.673 79.1383 463.729 79.1103 463.813 79.0823C464.82 78.5786 465.939 78.3268 467.087 78.3268C467.674 78.3268 468.262 78.4107 468.822 78.5227C469.409 78.6346 469.997 78.8025 470.557 78.9984C471.704 79.3902 472.824 79.9219 473.915 80.4536C472.88 79.8659 471.816 79.1943 470.697 78.6626Z" fill="white"/>
<path d="M440.669 28.7943C439.97 28.8502 439.298 28.9622 438.599 29.1021C437.927 29.242 437.255 29.4659 436.584 29.7177C435.94 29.9976 435.296 30.3334 434.737 30.7812C434.149 31.2009 433.645 31.7046 433.17 32.2643C433.114 32.3203 433.058 32.4043 433.002 32.4602L432.834 32.6841L432.666 32.908C432.61 32.9919 432.554 33.0479 432.526 33.1319C432.33 33.4117 432.134 33.7195 431.966 34.0273C431.602 34.643 431.295 35.2867 431.015 35.9303C430.735 36.6019 430.511 37.2456 430.287 37.8892C430.063 38.5049 429.839 39.0925 429.56 39.6802C429.28 40.2399 429 40.7996 428.664 41.3593C428.496 41.6391 428.328 41.891 428.16 42.1708C428.076 42.3108 427.992 42.4507 427.881 42.5626C427.853 42.5906 427.825 42.6186 427.825 42.6746L427.769 42.7585C427.713 42.8145 427.685 42.8704 427.629 42.9264C427.461 43.1503 427.265 43.4022 427.069 43.626C426.873 43.8499 426.649 44.0738 426.425 44.2977C426.201 44.5215 425.978 44.7174 425.754 44.9413C425.53 45.1372 425.278 45.3611 425.054 45.557C424.606 45.9208 424.159 46.2845 423.683 46.6204C422.871 46.2006 422.144 46.1446 421.752 46.5364C421.696 46.5924 421.64 46.6763 421.584 46.7603C421.164 46.6204 420.94 46.5924 420.94 46.5924C417.918 46.2286 416.155 48.1315 414.84 49.8106C413.58 51.4897 411.314 57.0026 413.469 59.2134C415.679 61.3682 421.192 59.1294 422.871 57.8701C424.578 56.5828 426.453 54.8198 426.118 51.7975C426.118 51.7975 426.09 51.5456 425.95 51.0979C426.034 51.0699 426.09 51.0139 426.145 50.958C426.537 50.5942 426.481 49.8666 426.09 49.083C426.481 48.7192 426.873 48.3274 427.265 47.9356C427.517 47.6838 427.741 47.4319 427.992 47.1521C428.216 46.8722 428.468 46.6204 428.692 46.3405C428.916 46.0607 429.14 45.7528 429.336 45.473C429.532 45.1652 429.755 44.8573 429.923 44.5495C429.979 44.4656 430.007 44.3816 430.063 44.2977L430.119 44.1857L430.175 44.0738C430.259 43.9059 430.343 43.7659 430.427 43.598C430.595 43.2902 430.735 42.9824 430.903 42.6466C431.211 42.0029 431.463 41.3313 431.714 40.6597C431.938 39.988 432.134 39.2884 432.302 38.6168C432.47 37.9452 432.61 37.3015 432.778 36.6859C432.946 36.0702 433.17 35.4825 433.449 34.8949C433.589 34.615 433.729 34.3072 433.869 34.0273C433.953 33.8874 434.009 33.7475 434.093 33.6076L434.205 33.4117C434.233 33.3557 434.289 33.2718 434.317 33.2158C434.989 32.1804 435.912 31.2849 437.003 30.6412C437.563 30.3334 438.151 30.0536 438.766 29.8297C439.382 29.6058 440.026 29.4379 440.697 29.298C442.013 29.0181 443.384 28.8782 444.727 28.7943C443.412 28.7103 442.041 28.6823 440.669 28.7943Z" fill="white"/>
<path d="M464.26 173.39C464.092 172.774 463.896 172.187 463.673 171.599C463.421 171.011 463.141 170.452 462.805 169.92C462.441 169.388 462.049 168.884 461.574 168.437C461.098 167.989 460.566 167.597 460.007 167.289C459.951 167.233 459.867 167.205 459.783 167.177L459.559 167.066L459.335 166.954C459.251 166.926 459.195 166.87 459.111 166.842C458.831 166.702 458.523 166.59 458.244 166.478C457.656 166.254 457.012 166.058 456.397 165.918C455.753 165.778 455.137 165.694 454.55 165.582C453.962 165.47 453.402 165.386 452.843 165.219C452.283 165.079 451.751 164.883 451.219 164.687C450.94 164.575 450.688 164.463 450.408 164.351C450.268 164.295 450.156 164.239 450.016 164.183C449.988 164.155 449.96 164.155 449.904 164.127L449.82 164.071C449.764 164.043 449.708 164.015 449.652 163.987C449.4 163.875 449.177 163.735 448.953 163.595C448.729 163.456 448.477 163.288 448.253 163.148C448.029 162.98 447.805 162.812 447.581 162.644C447.358 162.476 447.134 162.28 446.91 162.112C446.518 161.776 446.126 161.413 445.762 161.049C445.986 160.265 445.93 159.622 445.539 159.342C445.483 159.286 445.399 159.258 445.315 159.23C445.371 158.838 445.371 158.642 445.371 158.642C445.203 155.9 443.244 154.612 441.537 153.745C439.858 152.877 434.597 151.758 432.974 153.997C431.406 156.291 434.261 160.853 435.66 162.14C437.059 163.456 438.934 164.855 441.565 164.071C441.565 164.071 441.789 164.015 442.152 163.791C442.208 163.847 442.264 163.903 442.32 163.959C442.712 164.239 443.356 164.071 443.971 163.623C444.363 163.931 444.755 164.211 445.175 164.491C445.427 164.659 445.707 164.855 445.986 165.023C446.266 165.191 446.546 165.358 446.826 165.498C447.106 165.666 447.414 165.806 447.693 165.946C448.001 166.086 448.309 166.226 448.617 166.338C448.701 166.366 448.785 166.394 448.869 166.422L448.981 166.45L449.093 166.478C449.233 166.534 449.4 166.562 449.54 166.618C449.848 166.702 450.156 166.786 450.464 166.87C451.08 167.038 451.723 167.177 452.367 167.261C453.01 167.373 453.654 167.429 454.27 167.457C454.885 167.485 455.473 167.513 456.061 167.569C456.62 167.625 457.18 167.737 457.74 167.877C458.02 167.961 458.3 168.017 458.579 168.129C458.719 168.185 458.859 168.213 458.971 168.269L459.167 168.353C459.223 168.381 459.307 168.409 459.363 168.437C460.398 168.857 461.322 169.556 462.077 170.424C462.441 170.871 462.777 171.347 463.057 171.879C463.337 172.411 463.589 172.942 463.812 173.502C464.26 174.621 464.596 175.825 464.904 177C464.792 175.825 464.568 174.593 464.26 173.39Z" fill="white"/>
<path d="M494.763 46.8162C494.316 46.6763 493.84 46.5364 493.364 46.4525C492.888 46.3685 492.385 46.3125 491.909 46.3125C491.405 46.3125 490.929 46.3685 490.426 46.5084C489.95 46.6204 489.474 46.8162 489.027 47.0401C488.971 47.0681 488.915 47.0961 488.859 47.1241L488.691 47.208L488.523 47.32C488.467 47.3479 488.411 47.3759 488.355 47.4319C488.159 47.5718 487.963 47.7118 487.739 47.8517C487.347 48.1595 486.956 48.4673 486.62 48.8311C486.256 49.1949 485.948 49.5587 485.64 49.8945C485.333 50.2304 485.025 50.5662 484.689 50.846C484.353 51.1538 484.017 51.4337 483.654 51.6855C483.486 51.8255 483.29 51.9374 483.094 52.0773C483.01 52.1333 482.898 52.1893 482.814 52.2732C482.786 52.3012 482.758 52.3012 482.758 52.3292L482.702 52.3572C482.646 52.3852 482.618 52.4131 482.562 52.4411C482.394 52.5531 482.198 52.637 482.002 52.749C481.807 52.8329 481.611 52.9169 481.415 53.0008C481.219 53.0848 481.023 53.1687 480.799 53.2247C480.603 53.3086 480.379 53.3646 480.183 53.4206C479.792 53.5325 479.4 53.6445 479.008 53.7284C478.588 53.2527 478.141 53.0288 477.777 53.1687C477.721 53.1967 477.665 53.2247 477.609 53.2807C477.385 53.0848 477.245 53.0008 477.245 53.0008C475.398 51.9654 473.747 52.693 472.432 53.4486C471.172 54.1762 468.206 57.1425 469.018 59.1574C469.857 61.1443 474.027 61.1723 475.454 60.8085C476.909 60.4447 478.588 59.801 479.176 57.7582C479.176 57.7582 479.232 57.5903 479.26 57.2545C479.316 57.2545 479.372 57.2265 479.428 57.2265C479.764 57.0866 479.932 56.6108 479.904 55.9952C480.267 55.8552 480.603 55.7153 480.967 55.5754C481.191 55.4634 481.415 55.3795 481.639 55.2676C481.863 55.1556 482.086 55.0437 482.31 54.9317C482.534 54.8198 482.758 54.6799 482.954 54.54C483.178 54.4 483.374 54.2601 483.598 54.0922C483.654 54.0642 483.709 54.0083 483.765 53.9803L483.849 53.9243L483.933 53.8683C484.017 53.7844 484.129 53.7004 484.213 53.6445C484.409 53.4765 484.577 53.3366 484.773 53.1687C485.137 52.8329 485.5 52.4691 485.836 52.1053C486.172 51.7415 486.48 51.3218 486.76 50.93C487.04 50.5382 487.319 50.1744 487.599 49.8106C487.879 49.4748 488.187 49.139 488.523 48.8311C488.691 48.6912 488.859 48.5233 489.027 48.3834C489.11 48.2994 489.194 48.2435 489.278 48.1875L489.418 48.1035C489.474 48.0756 489.502 48.0476 489.558 48.0196C490.286 47.5159 491.097 47.208 491.993 47.0961C492.441 47.0401 492.888 47.0401 493.364 47.0681C493.812 47.0961 494.288 47.1521 494.735 47.264C495.659 47.4319 496.582 47.7117 497.478 48.0196C496.554 47.4879 495.687 47.0961 494.763 46.8162Z" fill="white"/>
<path d="M377.648 5.67907C377.453 5.9869 377.257 6.32271 377.089 6.65852C376.921 6.99434 376.809 7.35814 376.697 7.72194C376.613 8.08573 376.557 8.47751 376.529 8.8693C376.529 9.26108 376.557 9.65286 376.641 10.0167C376.641 10.0726 376.669 10.1006 376.669 10.1566L376.697 10.2965L376.725 10.4364C376.753 10.4924 376.753 10.5204 376.781 10.5764C376.837 10.7443 376.893 10.9401 376.977 11.1081C377.117 11.4719 377.285 11.8077 377.481 12.1435C377.676 12.4793 377.872 12.7871 378.068 13.095C378.264 13.4028 378.432 13.6826 378.6 13.9905C378.768 14.2983 378.908 14.6061 379.02 14.9139C379.076 15.0819 379.132 15.2218 379.188 15.3897C379.216 15.4736 379.244 15.5576 379.272 15.6415C379.272 15.6695 379.3 15.6695 379.3 15.6975L379.328 15.7535C379.328 15.7815 379.355 15.8374 379.355 15.8654C379.411 16.0333 379.439 16.1732 379.467 16.3412C379.495 16.5091 379.523 16.677 379.551 16.8169C379.579 16.9848 379.579 17.1527 379.607 17.3206C379.607 17.4885 379.635 17.6564 379.635 17.8243C379.635 18.1322 379.635 18.44 379.635 18.7478C379.188 18.9437 378.936 19.2515 378.964 19.5314C378.964 19.5873 378.992 19.6153 379.02 19.6713C378.824 19.8112 378.74 19.8952 378.74 19.8952C377.592 21.0705 377.816 22.4418 378.124 23.5611C378.432 24.6525 380.055 27.423 381.678 27.2271C383.329 27.0032 384.169 23.897 384.197 22.7776C384.197 21.6302 384.057 20.231 382.658 19.3915C382.658 19.3915 382.546 19.3075 382.294 19.2515C382.294 19.1956 382.294 19.1676 382.294 19.1116C382.266 18.8318 381.93 18.6079 381.482 18.5239C381.454 18.2441 381.426 17.9363 381.37 17.6564C381.342 17.4605 381.314 17.2926 381.258 17.0967C381.23 16.9008 381.174 16.7329 381.146 16.537C381.091 16.3412 381.035 16.1732 380.979 15.9774C380.923 15.7815 380.839 15.6136 380.783 15.4177C380.755 15.3617 380.755 15.3337 380.727 15.2777L380.699 15.2218L380.671 15.1658C380.643 15.0818 380.587 14.9979 380.559 14.9139C380.475 14.746 380.391 14.5781 380.307 14.4102C380.139 14.0744 379.943 13.7386 379.719 13.4308C379.495 13.095 379.272 12.7871 379.048 12.5073C378.824 12.2274 378.572 11.9476 378.376 11.6677C378.18 11.3879 377.984 11.1081 377.844 10.8002C377.76 10.6603 377.676 10.4924 377.62 10.3245C377.592 10.2405 377.564 10.1566 377.509 10.1006L377.453 9.98867C377.425 9.96069 377.425 9.90472 377.397 9.87674C377.173 9.2331 377.089 8.56147 377.173 7.88984C377.229 7.55403 377.313 7.21821 377.425 6.8824C377.536 6.54659 377.676 6.21077 377.844 5.90294C378.152 5.2593 378.544 4.61566 378.964 4C378.516 4.44775 378.04 5.03543 377.648 5.67907Z" fill="white"/>
<path d="M335.14 47.9076C335.168 48.3834 335.252 48.8591 335.336 49.3628C335.448 49.8386 335.588 50.3143 335.756 50.7621C335.951 51.2098 336.175 51.6576 336.483 52.0493C336.791 52.4691 337.127 52.8329 337.519 53.1407C337.575 53.1967 337.603 53.2247 337.659 53.2527L337.798 53.3646L337.938 53.4765C337.994 53.5045 338.05 53.5605 338.078 53.5885C338.274 53.7284 338.498 53.8683 338.694 53.9803C339.114 54.2321 339.561 54.456 340.037 54.6519C340.485 54.8478 340.961 54.9877 341.408 55.1556C341.856 55.3235 342.248 55.4634 342.668 55.6593C343.06 55.8552 343.451 56.0511 343.843 56.303C344.039 56.4149 344.235 56.5269 344.403 56.6668C344.487 56.7228 344.599 56.8067 344.683 56.8627C344.711 56.8907 344.739 56.8907 344.739 56.9186L344.795 56.9746C344.823 57.0026 344.879 57.0306 344.907 57.0586C345.074 57.1985 345.242 57.3104 345.382 57.4503C345.55 57.5903 345.69 57.7302 345.858 57.8981C345.998 58.066 346.166 58.2059 346.306 58.3738C346.446 58.5417 346.586 58.7096 346.725 58.8776C346.977 59.1854 347.229 59.5212 347.453 59.829C347.173 60.3887 347.117 60.8924 347.397 61.1723C347.453 61.2282 347.509 61.2562 347.565 61.2842C347.453 61.5641 347.453 61.732 347.453 61.732C347.201 63.8588 348.516 65.0901 349.692 66.0136C350.867 66.9091 354.701 68.5042 356.268 66.9931C357.779 65.4539 356.24 61.592 355.373 60.4167C354.477 59.2134 353.246 57.8981 351.119 58.122C351.119 58.122 350.951 58.122 350.615 58.2339C350.587 58.1779 350.559 58.122 350.503 58.094C350.252 57.8141 349.748 57.8701 349.188 58.122C348.936 57.8421 348.656 57.5623 348.405 57.3104C348.237 57.1425 348.041 56.9746 347.845 56.8067C347.649 56.6388 347.453 56.4709 347.257 56.331C347.061 56.1631 346.865 56.0231 346.642 55.8832C346.418 55.7433 346.222 55.6034 345.998 55.4634C345.942 55.4355 345.886 55.4075 345.83 55.3515L345.746 55.2955L345.662 55.2396C345.55 55.1836 345.438 55.1276 345.326 55.0717C345.102 54.9597 344.879 54.8478 344.655 54.7358C344.207 54.512 343.731 54.3441 343.255 54.1762C342.78 54.0083 342.304 53.8683 341.828 53.7564C341.352 53.6445 340.905 53.5325 340.485 53.4206C340.065 53.2807 339.645 53.1407 339.226 52.9448C339.03 52.8609 338.834 52.7489 338.61 52.637C338.498 52.581 338.414 52.5251 338.33 52.4691L338.19 52.3852C338.134 52.3572 338.106 52.3292 338.05 52.3012C337.323 51.8255 336.707 51.1818 336.259 50.3983C336.035 50.0065 335.868 49.5867 335.7 49.1669C335.56 48.7192 335.448 48.2714 335.336 47.8237C335.14 46.9002 335.056 45.9487 335 44.9973C335.084 45.9767 335.084 46.9282 335.14 47.9076Z" fill="white"/>
</g>
<defs>
<linearGradient id="paint0_linear_2191_472" x1="252.5" y1="0" x2="252.5" y2="283" gradientUnits="userSpaceOnUse">
<stop stop-opacity="0"/>
<stop offset="1"/>
</linearGradient>
</defs>
</svg>
