<svg width="370" height="150" viewBox="0 0 370 150" fill="none" xmlns="http://www.w3.org/2000/svg">
<g filter="url(#filter0_dd_2350_634)">
<path d="M29.4 55.8H60.2L60 47.8C60 43.2 61.3 39.1 63.7 35.5C66 32.1 70.4 30.4 76.7 30.4C82.1 30.4 86.1 31.8 88.7 34.7C91.4 37.6 92.7 41.4 92.7 46.2C92.7 50.5 91.6 54.3 89.4 57.4C87.1 60.7 83.5 64.5 78.9 68.7C74.1 73.2 70.6 77 68.3 80.1C65.9 83.4 64.6 87.4 64.6 92.1V105.1H94.6V97.2C94.6 95 95.3 93.1 96.8 91.5C98.5 89.6 101.3 87 105.1 83.9C109.4 80.5 113.1 77.3 115.8 74.5C118.7 71.6 121.2 67.8 123.3 63.2C125.4 58.6 126.5 53.1 126.5 46.8C126.5 39.4 124.7 32.4 121.1 26C117.5 19.6 112.2 14.5 105.3 10.7C98.4 6.9 90.2 5 80.8 5H76.5C67.3 5 58.9 7 51.6 11C44.3 15 38.6 20.3 34.6 26.8C30.6 33.3 28.6 40.2 28.6 47.3C28.6 48.7 28.8 51.1 29.2 54.7L29.4 55.8ZM37.5 28.2C41.2 22.2 46.5 17.3 53.2 13.6C60 9.9 67.8 8 76.5 8H80.8C89.6 8 97.3 9.8 103.7 13.3C110 16.8 114.9 21.5 118.2 27.3C121.5 33.2 123.2 39.6 123.2 46.4C123.2 52.1 122.2 57.2 120.3 61.4C118.4 65.6 116.1 69.1 113.5 71.8C110.8 74.5 107.3 77.6 103.1 81C99.1 84.4 96.2 87 94.4 89C92.4 91.3 91.3 93.9 91.3 97V101.6H68V91.9C68 87.9 69 84.7 71 81.9C73.1 79 76.6 75.3 81.2 71C86 66.6 89.6 62.7 92.1 59.2C94.7 55.5 96 51.1 96 46.1C96 40.5 94.4 35.8 91.2 32.3C87.9 28.8 83.1 27 76.7 27C69.2 27 63.9 29.2 60.9 33.6C58 37.8 56.6 42.6 56.6 47.9L56.7 52.5H32.4C32.1 49.9 32 48 32 46.9C32 40.5 33.8 34.2 37.5 28.2Z" fill="#E5E5E5"/>
</g>
<g filter="url(#filter1_dd_2350_634)">
<path d="M92.3 144.3H365V140.9H95.6V112.1H63.5V140.9H5V144.3H66.8V115.5H92.2" fill="#E5E5E5"/>
</g>
<defs>
<filter id="filter0_dd_2350_634" x="23.6" y="0" width="107.9" height="110.1" filterUnits="userSpaceOnUse" color-interpolation-filters="sRGB">
<feFlood flood-opacity="0" result="BackgroundImageFix"/>
<feColorMatrix in="SourceAlpha" type="matrix" values="0 0 0 0 0 0 0 0 0 0 0 0 0 0 0 0 0 0 127 0" result="hardAlpha"/>
<feOffset dx="1" dy="1"/>
<feGaussianBlur stdDeviation="2"/>
<feComposite in2="hardAlpha" operator="out"/>
<feColorMatrix type="matrix" values="0 0 0 0 0.7375 0 0 0 0 0.676042 0 0 0 0 0.687216 0 0 0 1 0"/>
<feBlend mode="normal" in2="BackgroundImageFix" result="effect1_dropShadow_2350_634"/>
<feColorMatrix in="SourceAlpha" type="matrix" values="0 0 0 0 0 0 0 0 0 0 0 0 0 0 0 0 0 0 127 0" result="hardAlpha"/>
<feOffset dx="-1" dy="-1"/>
<feGaussianBlur stdDeviation="2"/>
<feComposite in2="hardAlpha" operator="out"/>
<feColorMatrix type="matrix" values="0 0 0 0 1 0 0 0 0 1 0 0 0 0 1 0 0 0 1 0"/>
<feBlend mode="normal" in2="effect1_dropShadow_2350_634" result="effect2_dropShadow_2350_634"/>
<feBlend mode="normal" in="SourceGraphic" in2="effect2_dropShadow_2350_634" result="shape"/>
</filter>
<filter id="filter1_dd_2350_634" x="0" y="107.1" width="370" height="42.2" filterUnits="userSpaceOnUse" color-interpolation-filters="sRGB">
<feFlood flood-opacity="0" result="BackgroundImageFix"/>
<feColorMatrix in="SourceAlpha" type="matrix" values="0 0 0 0 0 0 0 0 0 0 0 0 0 0 0 0 0 0 127 0" result="hardAlpha"/>
<feOffset dx="1" dy="1"/>
<feGaussianBlur stdDeviation="2"/>
<feComposite in2="hardAlpha" operator="out"/>
<feColorMatrix type="matrix" values="0 0 0 0 0.7375 0 0 0 0 0.676042 0 0 0 0 0.687216 0 0 0 1 0"/>
<feBlend mode="normal" in2="BackgroundImageFix" result="effect1_dropShadow_2350_634"/>
<feColorMatrix in="SourceAlpha" type="matrix" values="0 0 0 0 0 0 0 0 0 0 0 0 0 0 0 0 0 0 127 0" result="hardAlpha"/>
<feOffset dx="-1" dy="-1"/>
<feGaussianBlur stdDeviation="2"/>
<feComposite in2="hardAlpha" operator="out"/>
<feColorMatrix type="matrix" values="0 0 0 0 1 0 0 0 0 1 0 0 0 0 1 0 0 0 1 0"/>
<feBlend mode="normal" in2="effect1_dropShadow_2350_634" result="effect2_dropShadow_2350_634"/>
<feBlend mode="normal" in="SourceGraphic" in2="effect2_dropShadow_2350_634" result="shape"/>
</filter>
</defs>
</svg>
