<svg width="370" height="428" viewBox="0 0 370 428" fill="none" xmlns="http://www.w3.org/2000/svg">
<path d="M5 49.83C5 34.144 5 26.3011 7.6121 20.1324C10.9548 12.2383 17.2383 5.95482 25.1324 2.6121C31.3011 0 39.144 0 54.83 0H315.17C330.856 0 338.699 0 344.868 2.6121C352.762 5.95482 359.045 12.2383 362.388 20.1324C365 26.3011 365 34.144 365 49.83V378.17C365 393.856 365 401.699 362.388 407.868C359.045 415.762 352.762 422.045 344.868 425.388C338.699 428 330.856 428 315.17 428H54.83C39.144 428 31.3011 428 25.1324 425.388C17.2383 422.045 10.9548 415.762 7.6121 407.868C5 401.699 5 393.856 5 378.17V49.83Z" fill="#EBEBEB"/>
<g filter="url(#filter0_dd_2350_633)">
<path d="M29.4 60.8H60.2L60 52.8C60 48.2 61.3 44.1 63.7 40.5C66 37.1 70.4 35.4 76.7 35.4C82.1 35.4 86.1 36.8 88.7 39.7C91.4 42.6 92.7 46.4 92.7 51.2C92.7 55.5 91.6 59.3 89.4 62.4C87.1 65.7 83.5 69.5 78.9 73.7C74.1 78.2 70.6 82 68.3 85.1C65.9 88.4 64.6 92.4 64.6 97.1V110.1H94.6V102.2C94.6 100 95.3 98.1 96.8 96.5C98.5 94.6 101.3 92 105.1 88.9C109.4 85.5 113.1 82.3 115.8 79.5C118.7 76.6 121.2 72.8 123.3 68.2C125.4 63.6 126.5 58.1 126.5 51.8C126.5 44.4 124.7 37.4 121.1 31C117.5 24.6 112.2 19.5 105.3 15.7C98.4 11.9 90.2 10 80.8 10H76.5C67.3 10 58.9 12 51.6 16C44.3 20 38.6 25.3 34.6 31.8C30.6 38.3 28.6 45.2 28.6 52.3C28.6 53.7 28.8 56.1 29.2 59.7L29.4 60.8ZM37.5 33.2C41.2 27.2 46.5 22.3 53.2 18.6C60 14.9 67.8 13 76.5 13H80.8C89.6 13 97.3 14.8 103.7 18.3C110 21.8 114.9 26.5 118.2 32.3C121.5 38.2 123.2 44.6 123.2 51.4C123.2 57.1 122.2 62.2 120.3 66.4C118.4 70.6 116.1 74.1 113.5 76.8C110.8 79.5 107.3 82.6 103.1 86C99.1 89.4 96.2 92 94.4 94C92.4 96.3 91.3 98.9 91.3 102V106.6H68V96.9C68 92.9 69 89.7 71 86.9C73.1 84 76.6 80.3 81.2 76C86 71.6 89.6 67.7 92.1 64.2C94.7 60.5 96 56.1 96 51.1C96 45.5 94.4 40.8 91.2 37.3C87.9 33.8 83.1 32 76.7 32C69.2 32 63.9 34.2 60.9 38.6C58 42.8 56.6 47.6 56.6 52.9L56.7 57.5H32.4C32.1 54.9 32 53 32 51.9C32 45.5 33.8 39.2 37.5 33.2Z" fill="#E5E5E5"/>
</g>
<g filter="url(#filter1_dd_2350_633)">
<path d="M92.3 149.3H365V145.9H95.6V117.1H63.5V145.9H5V149.3H66.8V120.5H92.2" fill="#E5E5E5"/>
</g>
<defs>
<filter id="filter0_dd_2350_633" x="23.6" y="5" width="107.9" height="110.1" filterUnits="userSpaceOnUse" color-interpolation-filters="sRGB">
<feFlood flood-opacity="0" result="BackgroundImageFix"/>
<feColorMatrix in="SourceAlpha" type="matrix" values="0 0 0 0 0 0 0 0 0 0 0 0 0 0 0 0 0 0 127 0" result="hardAlpha"/>
<feOffset dx="1" dy="1"/>
<feGaussianBlur stdDeviation="2"/>
<feComposite in2="hardAlpha" operator="out"/>
<feColorMatrix type="matrix" values="0 0 0 0 0.7375 0 0 0 0 0.676042 0 0 0 0 0.687216 0 0 0 1 0"/>
<feBlend mode="normal" in2="BackgroundImageFix" result="effect1_dropShadow_2350_633"/>
<feColorMatrix in="SourceAlpha" type="matrix" values="0 0 0 0 0 0 0 0 0 0 0 0 0 0 0 0 0 0 127 0" result="hardAlpha"/>
<feOffset dx="-1" dy="-1"/>
<feGaussianBlur stdDeviation="2"/>
<feComposite in2="hardAlpha" operator="out"/>
<feColorMatrix type="matrix" values="0 0 0 0 1 0 0 0 0 1 0 0 0 0 1 0 0 0 1 0"/>
<feBlend mode="normal" in2="effect1_dropShadow_2350_633" result="effect2_dropShadow_2350_633"/>
<feBlend mode="normal" in="SourceGraphic" in2="effect2_dropShadow_2350_633" result="shape"/>
</filter>
<filter id="filter1_dd_2350_633" x="0" y="112.1" width="370" height="42.2" filterUnits="userSpaceOnUse" color-interpolation-filters="sRGB">
<feFlood flood-opacity="0" result="BackgroundImageFix"/>
<feColorMatrix in="SourceAlpha" type="matrix" values="0 0 0 0 0 0 0 0 0 0 0 0 0 0 0 0 0 0 127 0" result="hardAlpha"/>
<feOffset dx="1" dy="1"/>
<feGaussianBlur stdDeviation="2"/>
<feComposite in2="hardAlpha" operator="out"/>
<feColorMatrix type="matrix" values="0 0 0 0 0.7375 0 0 0 0 0.676042 0 0 0 0 0.687216 0 0 0 1 0"/>
<feBlend mode="normal" in2="BackgroundImageFix" result="effect1_dropShadow_2350_633"/>
<feColorMatrix in="SourceAlpha" type="matrix" values="0 0 0 0 0 0 0 0 0 0 0 0 0 0 0 0 0 0 127 0" result="hardAlpha"/>
<feOffset dx="-1" dy="-1"/>
<feGaussianBlur stdDeviation="2"/>
<feComposite in2="hardAlpha" operator="out"/>
<feColorMatrix type="matrix" values="0 0 0 0 1 0 0 0 0 1 0 0 0 0 1 0 0 0 1 0"/>
<feBlend mode="normal" in2="effect1_dropShadow_2350_633" result="effect2_dropShadow_2350_633"/>
<feBlend mode="normal" in="SourceGraphic" in2="effect2_dropShadow_2350_633" result="shape"/>
</filter>
</defs>
</svg>
