<svg width="38" height="38" viewBox="0 0 38 38" fill="none" xmlns="http://www.w3.org/2000/svg">
<circle cx="19" cy="19" r="19" fill="white"/>
<path d="M29 12.9047C28.2651 13.2302 27.4748 13.4472 26.641 13.55C27.4886 13.0468 28.141 12.2442 28.4471 11.2957C27.6539 11.7604 26.775 12.1021 25.8402 12.2821C25.0935 11.4909 24.0284 11 22.8487 11C20.5825 11 18.7451 12.8208 18.7451 15.0661C18.7451 15.3841 18.7825 15.6935 18.8522 15.9938C15.4427 15.8228 12.4185 14.2019 10.3953 11.742C10.04 12.3432 9.84005 13.0468 9.84005 13.7897C9.84005 15.2012 10.5626 16.4439 11.6646 17.176C10.9919 17.1556 10.3589 16.9684 9.80451 16.6681C9.80451 16.6804 9.80451 16.6984 9.80451 16.7159C9.80451 18.6883 11.2193 20.331 13.0946 20.7048C12.752 20.7986 12.3896 20.8508 12.0162 20.8508C11.7514 20.8508 11.4931 20.8209 11.243 20.7759C11.7651 22.3878 13.2798 23.5661 15.0746 23.6012C13.6702 24.6899 11.9015 25.3419 9.97839 25.3419C9.64626 25.3419 9.32124 25.3229 9 25.2841C10.818 26.4349 12.9752 27.1092 15.2911 27.1092C22.8373 27.1092 26.966 20.9123 26.966 15.5362C26.966 15.3599 26.9603 15.1846 26.9522 15.0112C27.7577 14.4421 28.4518 13.7248 29 12.9047Z" fill="url(#paint0_linear_1601_150)"/>
<defs>
<linearGradient id="paint0_linear_1601_150" x1="12.0551" y1="11.6216" x2="26.4855" y2="26.0521" gradientUnits="userSpaceOnUse">
<stop stop-color="#2AA4F4"/>
<stop offset="1" stop-color="#007AD9"/>
</linearGradient>
</defs>
</svg>
