<svg width="38" height="38" viewBox="0 0 38 38" fill="none" xmlns="http://www.w3.org/2000/svg">
<circle cx="19" cy="19" r="19" fill="white"/>
<path d="M19.5211 28.8353C25.2469 28.8353 29.8886 24.1936 29.8886 18.4678C29.8886 12.742 25.2469 8.10034 19.5211 8.10034C13.7953 8.10034 9.15356 12.742 9.15356 18.4678C9.15356 24.1936 13.7953 28.8353 19.5211 28.8353Z" fill="#25D366"/>
<path d="M25.2148 21.0471C24.8987 20.8912 23.3731 20.1452 23.0865 20.0399C22.8041 19.9303 22.6018 19.8839 22.4122 20.1958C22.2225 20.5034 21.5777 21.2325 21.4049 21.4138C21.2321 21.595 21.0425 21.6498 20.7306 21.4938C19.8161 21.123 18.969 20.6004 18.2272 19.9471C17.5487 19.3192 16.9671 18.5943 16.4993 17.7936C16.3097 17.4859 16.4993 17.3173 16.6426 17.1698C16.7859 17.0223 16.9503 16.8074 17.1062 16.6262C17.2326 16.466 17.3338 16.2932 17.4139 16.1078C17.5108 15.9392 17.5108 15.7327 17.4139 15.5641C17.338 15.4082 16.7395 13.8826 16.4572 13.2546C16.1748 12.6267 15.9472 12.7278 15.7829 12.7152H15.1928C14.8768 12.7236 14.5733 12.8669 14.3668 13.1071C13.6377 13.7688 13.2289 14.7128 13.2374 15.699C13.3427 16.8706 13.781 17.9916 14.5017 18.923C14.6576 19.1253 16.6932 22.2861 19.8119 23.6348C20.5536 23.9593 21.1563 24.1447 21.5819 24.3091C22.2183 24.4987 22.8884 24.5409 23.5416 24.4313C24.1401 24.3428 25.3833 23.6769 25.6488 22.952C25.8554 22.4884 25.9186 21.9743 25.8301 21.4728C25.7542 21.3295 25.5477 21.2663 25.2316 21.0977L25.2148 21.0471ZM28.3503 9.6555C23.4995 4.79205 15.6227 4.77941 10.7551 9.63022C6.76399 13.6129 5.94639 19.7828 8.77006 24.6673L7 31.1154L13.5956 29.3875C15.4204 30.3779 17.4644 30.9004 19.5421 30.9004C26.4159 30.9047 31.9916 25.3416 32 18.4721C32.0042 15.1638 30.6893 11.9945 28.3503 9.6555ZM19.5421 28.7974C17.6878 28.8017 15.8672 28.3001 14.2741 27.3561L13.9117 27.1285L9.98382 28.1568L11.0248 24.3428L10.7846 23.9508C9.74359 22.303 9.19572 20.3939 9.20415 18.4468C9.20836 12.7363 13.84 8.10881 19.5548 8.11302C25.2653 8.11724 29.8928 12.7489 29.8886 18.4637C29.8801 24.1742 25.2527 28.7974 19.5421 28.7974Z" fill="white"/>
<path fill-rule="evenodd" clip-rule="evenodd" d="M11.0248 24.3428L9.98383 28.161L13.9117 27.1285L11.0248 24.3428Z" fill="#25D366"/>
</svg>
