<svg width="186" height="144" viewBox="0 0 186 144" fill="none" xmlns="http://www.w3.org/2000/svg">
<path opacity="0.25" d="M165.222 143.536C177.92 126.808 185.51 105.56 185.51 82.4319C185.51 28.504 151.151 0.647949 93.2474 0.647949C37.8976 0.647949 0.984497 28.504 0.984497 82.4319C0.984497 105.56 8.58262 126.808 21.2728 143.536H165.222Z" fill="#FB7091"/>
<path d="M30.2995 133.056H30.6587C30.7784 131.832 31.0099 130.48 31.4329 129.064C33.0131 123.712 32.3188 123.024 34.9925 119.672C37.6582 116.328 37.8577 109.392 37.8577 109.392C37.8577 109.392 39.1427 101.512 37.8577 98.0479C36.5728 94.5759 36.477 91.1119 33.3563 87.4479C33.3563 87.4479 32.7657 92.3519 32.0235 94.5839C31.2812 96.8159 30.5789 98.9439 31.1296 104.296C31.6803 109.648 32.0235 110.096 32.1432 111.48C32.2709 112.864 32.0714 118.712 32.3667 119.68C32.662 120.648 30.6347 127.336 30.4911 130.208C30.4512 131.072 30.3714 132.056 30.2995 133.056Z" fill="#215E4B"/>
<path d="M31.4328 133.056C31.9516 131.864 32.8535 130.68 34.4418 129.968C38.592 128.112 41.3934 128.152 43.3249 123.696C45.2563 119.24 45.2563 113.144 45.9188 111.88C45.9188 111.88 44.1389 111.584 42.3591 114.776C40.5793 117.968 39.3742 120.352 38.3446 122.208C37.315 124.064 35.8305 123.544 34.5774 124.96C33.5239 126.144 32.5422 128.896 32.1751 130.296C32.0554 130.752 31.8798 131.184 31.6483 131.592C31.4408 131.96 31.1934 132.416 31.0418 132.736C31.0098 132.808 30.9779 132.92 30.946 133.056H31.4328V133.056Z" fill="#3C8F7C"/>
<path d="M19.7244 111.92C19.4291 115.736 21.8474 115.44 21.9512 117.864C22.047 120.288 25.2155 124.408 26.6761 127.328C27.4423 128.848 27.7216 131.176 27.8174 133.056H28.9906C28.5357 128.296 26.6042 124.984 25.4549 122.328C23.9704 118.912 23.747 117.352 25.008 114.672C26.269 111.992 24.4174 105.088 26.2132 102C28.0089 98.9199 27.0911 94.0799 26.6761 92.2239C26.261 90.3679 26.716 89.1039 27.0911 87.1439C27.4582 85.1839 26.6761 82.3359 26.6761 82.3359C26.6122 84.7599 24.7685 88.0799 23.4277 90.2159C22.0948 92.3439 19.5728 98.1439 19.8681 100.768C20.1634 103.392 20.0197 103.592 20.0197 103.592C19.0779 107.12 20.0197 108.112 19.7244 111.92Z" fill="#215E4B"/>
<path d="M26.7878 129.96C26.9394 130.416 27.4263 131.576 27.8652 133.064H28.5836C28.2563 131.176 27.6897 128.992 26.7319 127.736C24.8005 125.208 20.9455 124.12 20.5066 122.288C20.0596 120.456 20.5544 114.952 17.7371 111.88C17.7371 111.88 18.1361 115.304 17.7371 116.216C17.338 117.128 13.9779 121.392 15.9573 124.96C17.9366 128.528 22.3821 128.08 23.7709 128.872C25.1516 129.664 26.5404 129.216 26.7878 129.96Z" fill="#3C8F7C"/>
<path d="M25.008 113.504C24.9601 117.168 27.8253 118.56 27.7774 120.592C27.7295 122.624 28.368 124.8 28.9108 126.44C29.254 127.472 29.0624 130.36 29.0065 133.064H29.8047C30.0042 131.08 30.2277 128.208 30.1558 126.936C30.0601 125.2 30.8502 123.816 30.946 120.792C31.0418 117.768 31.6882 115.048 30.3554 111.232C29.0225 107.416 29.2699 102.856 23.6831 98.6479C23.6831 98.6479 22.6934 103.104 23.4357 105.536C24.1699 107.96 25.0558 109.84 25.008 113.504Z" fill="#3C8F7C"/>
<path d="M30.6667 129.928H30.1319H23.0127C22.4859 129.928 22.1028 130.416 22.2225 130.928L25.016 142.728C25.1037 143.096 25.431 143.352 25.8061 143.352H30.1399H30.6746H35.0084C35.3836 143.352 35.7108 143.096 35.7986 142.728L38.592 130.928C38.7117 130.416 38.3286 129.928 37.8019 129.928H30.6667Z" fill="#9BC1F9"/>
<path d="M67.1728 122.984H65.9117V141.424H67.1728V122.984Z" fill="#86B1F2"/>
<path d="M85.0268 136.712C85.0268 136.712 85.2982 139.592 85.1226 140.528C85.0986 140.656 85.0427 140.816 84.9789 140.992C84.7953 141.52 85.3061 143.128 85.3061 143.128L92.154 143.152C92.5291 143.152 92.2737 142.928 91.9704 142.72C91.4756 142.376 91.0765 142.152 89.4963 141.448C89.3925 141.4 89.0174 141.176 88.8817 141.104C88.5385 140.912 88.1873 140.6 87.892 140.288C87.3972 139.768 87.3174 137.232 87.3174 137.232L85.0268 136.712Z" fill="#F7A491"/>
<path d="M88.8817 141.088C87.0779 141.552 85.7371 141.264 84.9869 140.984C84.8033 141.512 84.4521 143.288 84.6596 143.288C86.3756 143.288 87.8282 143.6 92.7446 143.528C92.9202 143.528 92.8963 142.944 92.7845 142.816C92.4653 142.464 89.0174 141.168 88.8817 141.088Z" fill="#F7CC7F"/>
<path d="M92.7765 131.936C92.7765 131.936 94.277 134.448 94.5164 135.368C94.5484 135.488 94.5723 135.656 94.5883 135.84C94.6441 136.392 95.8094 137.648 95.8094 137.648L102.051 134.944C102.394 134.8 102.067 134.688 101.7 134.624C101.101 134.512 100.638 134.464 98.8901 134.448C98.7784 134.448 98.3394 134.392 98.1798 134.376C97.7808 134.336 97.3338 134.192 96.9268 134.024C96.2484 133.752 95.0831 131.472 95.0831 131.472L92.7765 131.936Z" fill="#F7A491"/>
<path d="M98.1798 134.392C96.7432 135.536 95.3944 135.808 94.5883 135.848C94.6442 136.4 95.0991 138.152 95.2906 138.072C96.8549 137.392 98.3075 137.096 102.753 135.072C102.913 135 102.641 134.48 102.482 134.408C102.035 134.216 98.3395 134.408 98.1798 134.392Z" fill="#F7CC7F"/>
<path d="M71.4826 110.504V111.984L85.9925 114.912L89.592 125.28L87.5808 123.968L88.0437 139.936L84.9869 139.96C84.9869 139.96 79.6953 126.568 81.4352 119.824L65.369 120.056C65.369 120.056 58.0901 117.36 61.8493 109.24L71.4826 110.504Z" fill="#F47458"/>
<path d="M71.4826 111.984C71.4826 111.984 86.5352 112.08 87.6047 112.872C88.6742 113.664 96.6953 133.264 96.6953 133.264L93.1995 134.52C93.1995 134.52 86.2399 123.4 85.8728 122.6C85.5056 121.8 82.808 116.008 81.7784 115.416C80.7488 114.824 71.4826 111.984 71.4826 111.984Z" fill="#B75742"/>
<path d="M59.8779 142.248H72.3765C72.9512 142.248 73.4221 142.712 73.4221 143.296C73.4221 143.4 73.3423 143.48 73.2385 143.48H59.016C58.9122 143.48 58.8324 143.4 58.8324 143.296C58.8324 142.712 59.3033 142.248 59.8779 142.248Z" fill="#86B1F2"/>
<path d="M65.5127 141.424H67.0451C67.5 141.424 67.8671 141.792 67.8671 142.248C67.8671 142.704 67.5 143.072 67.0451 143.072H65.5127C65.0577 143.072 64.6906 142.704 64.6906 142.248C64.6906 141.792 65.0577 141.424 65.5127 141.424Z" fill="#86B1F2"/>
<path d="M72.5521 85.768C72.6239 84.128 72.3765 82.504 71.6423 80.976C71.0117 79.664 69.4554 78.912 68.0268 78.912C63.5094 78.904 62.9347 84.888 60.0615 87.2C59.1836 87.904 58.2019 88.48 57.3718 89.24C54.2991 92.048 55.6878 97.248 58.5052 99.712C60.4606 101.424 63.5333 102.392 65.9516 101.056C67.2127 100.36 68.1624 99.2 68.8488 97.928C69.8146 96.128 70.4371 94.048 71.1235 92.128C71.8498 90.072 72.4563 87.944 72.5521 85.768Z" fill="#13375B"/>
<path d="M85.0108 102.968L75.1779 100.224C75.1779 100.224 73.1028 97.432 70.4451 93.696C69.5751 94.56 69.0883 95.8881 68.2103 96.7441L74.715 103.96C74.9465 104.224 75.2817 104.368 75.6329 104.368L84.6676 104.4L87.7563 104.648V102.664L85.0108 102.968Z" fill="#F48C7F"/>
<path d="M70.8601 100.88C70.8601 100.88 67.484 97.416 66.6141 95.904C65.7441 94.4 67.2047 95.376 68.6972 94.984C69.2638 94.832 69.1202 91.52 70.1897 92.592C71.9376 94.36 74.1404 97.456 74.1404 97.456L70.8601 100.88Z" fill="#96D9C9"/>
<path d="M66.0634 91.072C66.0634 91.072 63.0385 90.472 61.6498 91.632C60.269 92.792 61.9451 103.08 61.9451 104.784C61.9451 106.488 60.9953 111.312 60.9953 111.312C60.9953 111.312 70.1737 112.92 71.6343 110.36C71.6343 110.36 72.0493 100.608 71.9854 99.376C71.9216 98.152 70.5648 93.136 70.1897 92.592C69.8146 92.056 66.0634 91.072 66.0634 91.072Z" fill="#50BFA5"/>
<path d="M66.0474 86.3759C66.0474 86.3759 66.0315 86.464 65.9995 86.624C65.8639 87.368 65.3371 89.8239 64.978 90.4959C64.547 91.3119 66.4545 93.9199 68.2981 93.5999C68.8488 93.5039 67.8352 91.2079 67.8831 90.9679C67.9789 90.5039 68.0986 89.8639 68.2343 89.2159C68.3061 88.8479 68.378 88.4719 68.4498 88.1279C68.6493 87.1359 68.8089 86.3199 68.8089 86.3199L66.0474 86.3759Z" fill="#F7A491"/>
<path d="M65.9995 86.624C66.0315 86.472 66.0474 86.3759 66.0474 86.3759L68.8009 86.304C68.8009 86.304 68.6413 87.12 68.4418 88.112C68.37 88.464 68.2981 88.832 68.2263 89.2C67.8033 89.136 67.3563 88.928 66.9094 88.544C66.4225 88.12 66.1033 87.608 65.9117 87.064C65.9516 86.888 65.9756 86.736 65.9995 86.624Z" fill="#F47458"/>
<path d="M67.8991 80.112C67.8991 80.112 66.5981 79.96 65.784 81.016C64.9699 82.072 64.092 85.328 66.1113 87.096C68.1305 88.864 70.1338 86.864 70.4291 84.736C70.7324 82.616 70.8441 80.04 67.8991 80.112Z" fill="#F7A491"/>
<path d="M71.0277 84.704C70.7883 85.176 70.3812 85.432 70.1258 85.288C69.8704 85.136 69.8545 84.64 70.0939 84.168C70.3333 83.696 70.7404 83.44 70.9958 83.584C71.2592 83.736 71.2751 84.24 71.0277 84.704Z" fill="#F7A491"/>
<path d="M68.0427 79.768C68.0427 79.768 66.3108 82.864 65.0657 83.008C63.8286 83.152 63.661 84.8 63.661 84.8C63.661 84.8 64.108 81.008 65.3371 80.28C66.5662 79.536 68.0427 79.768 68.0427 79.768Z" fill="#13375B"/>
<path d="M65.393 83.7841C65.4967 84.3361 65.2892 84.8401 64.938 84.9121C64.5869 84.9841 64.2197 84.6 64.116 84.048C64.0122 83.496 64.2197 82.9921 64.5709 82.9201C64.9301 82.8481 65.2892 83.2321 65.393 83.7841Z" fill="#F7A491"/>
<path d="M79.5756 102.64L71.0516 100.752C71.0516 100.752 67.9709 96.784 65.0099 93.368C64.1399 94.232 63.6531 95.56 62.7751 96.416L69.2798 103.632C69.5113 103.896 69.8465 104.04 70.1977 104.04L79.2324 104.072L82.3211 104.32V102.336L79.5756 102.64Z" fill="#F7A491"/>
<path d="M65.4169 100.544C65.4169 100.544 62.0408 97.08 61.1709 95.568C60.3009 94.064 60.9474 91.536 62.4399 91.144C63.9324 90.744 68.6972 97.12 68.6972 97.12L65.4169 100.544Z" fill="#96D9C9"/>
<path d="M97.0864 92.912H83.0235C82.6484 92.912 82.3132 93.136 82.1775 93.48L77.8517 104.064H70.1019C69.8864 104.064 69.7108 104.24 69.7108 104.456C69.7108 104.672 69.8864 104.848 70.1019 104.848H92.162C92.7686 104.848 93.3193 104.488 93.5667 103.936L97.9244 94.208C98.1958 93.6 97.7488 92.912 97.0864 92.912Z" fill="#B75742"/>
<path d="M89.5122 99.072C89.4165 99.544 89.0014 99.864 88.5864 99.784C88.1714 99.704 87.908 99.248 88.0038 98.776C88.0996 98.304 88.5146 97.984 88.9296 98.064C89.3526 98.144 89.608 98.6 89.5122 99.072Z" fill="white"/>
<path d="M68.6812 85.928L66.7737 85.832C66.7737 85.832 66.7817 86.56 67.6197 86.624C68.6413 86.704 68.6812 85.928 68.6812 85.928Z" fill="white"/>
<path d="M74.6352 120.864L73.7733 117.272C73.1747 114.76 70.9559 112.936 68.378 112.832L57.4836 112.392L57.1484 111.28L68.4258 111.736C71.4826 111.864 74.1244 114.032 74.8348 117.016L75.7526 120.832C75.4493 120.84 75.0662 120.856 74.6352 120.864Z" fill="#355389"/>
<path d="M60.0296 118.952C60.0296 118.952 74.9944 119.208 76.5587 118.952C78.123 118.696 78.7934 120.656 78.3305 121.68C77.8676 122.704 76.5826 123.104 74.6991 123.2C72.8155 123.296 57.1164 123.736 56.6695 123.32C56.3103 122.976 51.5455 106.672 49.8216 100.704C49.4784 99.512 50.1568 98.264 51.346 97.92C52.5272 97.576 53.7723 98.248 54.1315 99.424L60.0296 118.952Z" fill="#F7CC7F"/>
<path d="M68.5376 107.216H128.429C129.083 107.216 129.61 106.688 129.61 106.032C129.61 105.376 129.083 104.848 128.429 104.848H68.5376C67.8831 104.848 67.3564 105.376 67.3564 106.032C67.3564 106.688 67.8831 107.216 68.5376 107.216Z" fill="#13375B"/>
<path d="M82.3211 143.472H83.9972L80.3817 107.216H78.7057L82.3211 143.472Z" fill="#13375B"/>
<path d="M68.0667 143.472H66.3906L70.0061 107.216H71.6822L68.0667 143.472Z" fill="#13375B"/>
<path d="M127.926 143.472H129.61L125.994 107.216H124.318L127.926 143.472Z" fill="#13375B"/>
<path d="M113.679 143.472H111.995L115.611 107.216H117.287L113.679 143.472Z" fill="#13375B"/>
<path d="M178.71 143.816H16.3164C16.1328 143.816 15.9812 143.664 15.9812 143.48C15.9812 143.296 16.1328 143.144 16.3164 143.144H178.71C178.894 143.144 179.046 143.296 179.046 143.48C179.046 143.664 178.894 143.816 178.71 143.816Z" fill="#3C8F7C"/>
<path d="M156.275 119.568C156.147 118.472 156.004 117.352 155.493 116.376C154.878 115.184 153.793 114.328 152.843 113.384C151.071 111.616 149.715 109.44 148.892 107.072C148.262 105.24 147.943 103.288 147.073 101.56C146.538 100.504 145.812 99.5599 145.213 98.5439C143.784 96.1439 143.01 93.3039 141.071 91.2959C140.696 93.7359 141.438 96.3199 143.034 98.1919C143.513 98.7519 144.064 99.2559 144.431 99.8879C145.093 101.048 145.03 102.456 145.109 103.792C145.253 106.296 145.955 108.768 147.153 110.968C148.422 113.304 150.257 115.392 150.936 117.968C151.446 119.896 151.295 122.064 152.38 123.736C152.5 123.92 152.636 124.096 152.66 124.312C152.676 124.432 152.66 124.552 152.636 124.672C152.612 124.824 152.588 124.984 152.564 125.136C152.316 126.712 152.061 128.728 153.418 129.904C154.36 130.72 155.565 130.744 156.235 129.656C156.914 128.56 156.85 126.96 156.802 125.72C156.73 123.664 156.507 121.608 156.275 119.568Z" fill="#3C8F7C"/>
<path d="M158.717 118.296C158.191 116.464 157.377 114.728 156.961 112.864C156.562 111.064 156.562 109.2 156.562 107.352C156.562 105.328 156.562 103.304 156.554 101.28C156.554 100.024 156.554 98.7519 156.347 97.5119C155.9 94.8399 154.511 92.3679 154.28 89.6639C154.176 88.4959 154.296 87.3199 154.168 86.1519C154.096 85.4879 153.921 84.8079 153.617 84.2159C153.29 83.5839 152.372 83.6079 152.077 84.2559C151.407 85.7199 150.976 87.2959 151.247 88.8639C151.407 89.7999 151.814 90.6799 152.117 91.5839C153.466 95.6079 152.747 100.064 153.793 104.184C154.112 105.424 154.583 106.648 154.639 107.928C154.775 110.992 152.484 113.792 152.7 116.856C152.875 119.368 154.671 121.44 155.429 123.84C155.852 125.184 155.94 126.616 156.395 127.952C156.746 128.984 157.568 130.248 158.837 129.928C160.042 129.632 159.683 128.64 159.627 127.696C159.444 124.512 159.611 121.416 158.717 118.296Z" fill="#327F6B"/>
<path d="M161.479 119.968C161.423 119.016 161.263 118.064 161.399 117.12C161.511 116.328 161.83 115.576 162.054 114.8C162.477 113.352 162.58 111.84 162.684 110.336C162.868 107.608 163.059 104.872 163.243 102.144C163.53 97.896 163.825 93.64 164.615 89.464C164.839 88.304 165.078 87.048 164.56 85.984C164.448 85.76 164.232 85.52 164.001 85.6C163.833 85.656 163.754 85.84 163.69 86.008C161.958 90.72 161.303 95.8 159.372 100.44C158.909 101.552 158.374 102.64 158.135 103.824C157.847 105.24 158.007 106.704 158.039 108.152C158.095 110.224 157.887 112.312 157.321 114.304C157.025 115.344 156.618 116.368 156.459 117.44C156.251 118.776 156.427 120.136 156.554 121.488C156.802 124.08 156.882 126.68 156.802 129.28C156.754 130.808 158.039 130.768 158.893 129.832C159.492 129.176 159.484 128.456 159.691 127.64C160.354 124.936 161.638 122.88 161.479 119.968Z" fill="#3C8F7C"/>
<path d="M153.442 124.112C152.3 122.28 150.034 121.24 149.307 119.208C149.124 118.688 149.052 118.136 148.821 117.632C148.318 116.52 147.177 115.896 146.051 115.384C145.892 115.312 145.716 115.424 145.716 115.6C145.716 115.872 145.844 116.136 146.067 116.288C146.929 116.872 147.592 117.76 147.879 118.768C148.222 119.96 148.078 121.264 148.509 122.432C148.869 123.408 149.619 124.208 149.962 125.184C150.281 126.08 150.249 127.064 150.401 128C150.553 128.944 150.968 129.936 151.83 130.336C154.95 131.768 154.176 125.296 153.442 124.112Z" fill="#327F6B"/>
<path d="M166.403 123.512C166.355 124.4 166.491 125.328 166.148 126.144C165.924 126.664 165.525 127.088 165.198 127.552C164.049 129.176 163.634 131.48 161.87 132.4C161.75 132.464 161.623 132.512 161.495 132.488C161.311 132.456 161.2 132.28 161.12 132.112C160.689 131.104 161.176 129.968 161.463 128.904C161.511 128.72 161.559 128.512 161.471 128.344C161.375 128.16 161.152 128.072 161 127.928C160.697 127.632 160.729 127.152 160.785 126.728C160.936 125.688 161.144 124.648 161.415 123.632C161.567 123.056 161.742 122.472 162.077 121.976C162.445 121.432 162.971 121.024 163.474 120.592C165.669 118.696 167.353 116.208 168.295 113.464C168.502 112.872 168.678 112.24 169.101 111.776C169.524 111.312 170.274 111.072 170.785 111.432C171.152 111.688 169.66 114.096 169.484 114.384C168.989 115.208 168.981 115.928 168.702 116.848C168 119.088 166.539 121.104 166.403 123.512Z" fill="#3C8F7C"/>
<path d="M164.663 124.536C164.991 123.688 165.318 122.832 165.43 121.936C165.549 120.936 165.39 119.912 165.557 118.92C165.773 117.64 166.523 116.52 166.89 115.28C167.154 114.384 167.217 113.44 167.377 112.52C167.832 109.888 169.069 107.312 168.718 104.656C168.638 104.08 168.383 103.408 167.808 103.312C167.289 103.224 166.818 103.696 166.683 104.208C166.547 104.72 166.651 105.256 166.683 105.776C166.786 107.24 166.371 108.736 165.525 109.936C164.711 111.088 163.538 111.952 162.804 113.16C161.91 114.64 161.782 116.448 161.327 118.112C160.417 121.432 158.135 124.328 157.72 127.744C157.552 129.104 157.871 130.76 159.124 131.304C162.756 132.872 163.849 126.656 164.663 124.536Z" fill="#327F6B"/>
<path d="M158.334 128.744H157.752H150.018C149.451 128.744 149.028 129.28 149.164 129.832L152.197 142.64C152.292 143.04 152.644 143.32 153.051 143.32H157.752H158.334H163.035C163.442 143.32 163.793 143.04 163.889 142.64L166.922 129.832C167.05 129.28 166.635 128.744 166.068 128.744H158.334Z" fill="#9BC1F9"/>
<path d="M83.9555 39.4228L83.9241 39.6688L109.447 42.9418L109.479 42.6958L83.9555 39.4228Z" fill="#9BC1F9"/>
<path d="M84.1329 42.256L84.2526 42.04L48.8718 22.944L63.0146 19.416L62.9587 19.184L48.2014 22.856L84.1329 42.256Z" fill="#9BC1F9"/>
<path d="M26.2506 48.7395L26.1719 48.9746L72.4695 64.5511L72.5482 64.316L26.2506 48.7395Z" fill="#9BC1F9"/>
<path d="M161.798 65.5919L161.974 65.4239L138.94 41.8239L138.916 41.8079L99.5367 24.7759L85.9446 22.7839L85.9047 23.0239L99.4808 25.0159L138.796 42.0239L161.798 65.5919Z" fill="#9BC1F9"/>
<path d="M88.3949 71.2L90.1507 58.5439L90.0629 58.5039L70.0301 50.624L52.1441 42.976L52.0484 43.2079L69.9343 50.8479L89.8794 58.696L88.1554 71.1679L88.3949 71.2Z" fill="#9BC1F9"/>
<path d="M87.038 71.2879L87.1578 71.0719L71.1155 62.6719V49.6479L54.6981 63.5359L25.6784 49.2639L55.4723 41.0959L55.4963 41.0399L64.5071 20.5999L85.5056 23.0079L83.5024 39.5359L83.7498 39.5679L85.777 22.7919L85.6573 22.7839L64.3554 20.3359L64.3235 20.4159L55.2967 40.8879L24.992 49.1919L54.7301 63.8319L54.7939 63.7759L70.8681 50.1759V62.8159L87.038 71.2879Z" fill="#9BC1F9"/>
<path d="M137.671 43.44L137.679 43.2L110.391 42.64L118.141 19.6L117.909 19.52L110.048 42.88L137.671 43.44Z" fill="#9BC1F9"/>
<path d="M172.349 58.2799L172.469 58.0639L141.534 41.0719L121.445 22.9359L121.277 23.1119L141.398 41.2719L172.349 58.2799Z" fill="#9BC1F9"/>
<path d="M146.536 62.2965L146.451 62.5297L161.854 68.1319L161.938 67.8988L146.536 62.2965Z" fill="#9BC1F9"/>
<path d="M146.461 61.9808L131.689 65.8807L131.752 66.1206L146.524 62.2206L146.461 61.9808Z" fill="#9BC1F9"/>
<path d="M130.896 65.8253L113.746 67.0306L113.763 67.278L130.914 66.0727L130.896 65.8253Z" fill="#9BC1F9"/>
<path d="M97.9643 48.5119H98.0042L135.388 45.4719L135.372 45.2239L98.0202 48.2639L86.5592 41.4399L86.4395 41.6479L97.9643 48.5119Z" fill="#9BC1F9"/>
<path d="M106.4 64.664L106.616 64.552L98.0122 48.616L90.5258 58.8L90.7174 58.944L97.9803 49.072L106.4 64.664Z" fill="#9BC1F9"/>
<path d="M84.0211 40.68L98.8582 25.544L119.37 19.68L119.306 19.448L98.7305 25.32L98.7066 25.344L83.8535 40.512L84.0211 40.68Z" fill="#9BC1F9"/>
<path d="M34.7109 37.9568L34.6623 38.2L49.5466 41.1884L49.5952 40.9452L34.7109 37.9568Z" fill="#9BC1F9"/>
<path d="M38.0972 68.1759L38.177 67.9439L24.9282 63.0239V47.9839L35.6948 39.5999L35.6709 39.5199L31.1775 24.2479L30.946 24.3199L35.4155 39.5039L24.6808 47.8639V63.1999L38.0972 68.1759Z" fill="#9BC1F9"/>
<path d="M51.2412 45.9273L25.2708 62.2997L25.4025 62.5096L51.3729 46.1373L51.2412 45.9273Z" fill="#9BC1F9"/>
<path d="M119.376 20.9811L119.305 21.2186L135.341 26.0457L135.412 25.8082L119.376 20.9811Z" fill="#9BC1F9"/>
<path d="M110.908 43.4172L110.093 65.9774L110.34 65.9864L111.155 43.4262L110.908 43.4172Z" fill="#9BC1F9"/>
<path d="M71.8737 65.696L81.6108 37.816L81.3794 37.736L71.6423 65.616L71.8737 65.696Z" fill="#9BC1F9"/>
<path d="M32.6237 23.1466L32.4566 23.3296L53.0579 42.227L53.2249 42.044L32.6237 23.1466Z" fill="#9BC1F9"/>
<path d="M24.4892 49.168V63.336L38.2169 68.432L38.4404 67.84L25.1277 62.896V62.432L25.3432 62.784L37.0995 55.376L54.762 64.072L54.9216 63.936L59.2155 60.304L71.8179 64.552L71.4028 65.736L72.0014 65.944L72.4164 64.752L72.6 64.816L72.7995 64.216L72.624 64.16L72.6798 63.992L87.1258 71.56L87.4211 71L72.8873 63.376L76.3113 53.568L89.6639 58.824L87.9319 71.336L88.5625 71.424L90.3024 58.888L90.7653 59.232L97.9564 49.448L106.329 64.944L106.887 64.64L98.2676 48.68L110.567 47.68L109.896 66.16L110.527 66.184L111.197 47.632L135.596 45.648L135.548 45.016L111.221 46.992L111.357 43.232L110.726 43.208L110.591 47.04L98.0681 48.056L86.4953 41.168L86.1761 41.712L97.7728 48.616L90.3263 58.744L90.3742 58.408L90.1427 58.32L76.5348 52.968L80.8287 40.68L84.2287 42.512L84.5319 41.952L81.0441 40.072L81.8742 37.696L81.2756 37.488L80.4775 39.776L60.9155 29.224L64.6268 20.808L85.2902 23.184L83.2869 39.712L83.7099 39.76L83.7019 39.84L84.1728 39.904L83.5742 40.52L84.0291 40.968L84.9629 40.008L109.609 43.16L109.689 42.528L85.5216 39.44L98.962 25.72L99.9517 25.44L113.711 31.392L109.777 43.08L137.854 43.656L137.87 43.024L110.654 42.472L114.294 31.656L138.685 42.208L140.736 44.312L131.924 63.848L124.183 49.928L111.309 67.656L111.844 68L124.111 51.224L131.956 65.352L141.231 44.808L161.814 65.896L162.269 65.448L141.518 44.184L141.869 43.4L141.294 43.136L141.039 43.696L139.076 41.68L114.525 31.056L118.157 20.256L119.633 19.832L119.458 19.224L118.396 19.528L118.404 19.504L117.806 19.304L117.654 19.744L100.008 24.784L99.6005 24.608L85.793 22.584L85.785 22.624L85.6892 22.616L64.2357 20.12L64.1399 20.336L60.3568 28.92L49.4066 23.008L63.254 19.56L63.1024 18.944L47.6667 22.792L60.1094 29.504L55.161 40.728L52.7826 41.376L32.6061 22.872L32.1751 23.344L52.0484 41.576L26.4526 48.592L26.1254 48.48L26.0535 48.696L25.1118 48.952V48.072L35.9103 39.664L35.8465 39.456L35.5911 38.584L49.6939 41.416L49.8216 40.792L35.3916 37.896L31.3052 24L30.6986 24.176L34.6972 37.752L34.5535 37.72L34.4258 38.344L34.8967 38.44L35.184 39.424L24.4892 47.768V49.136L24.4493 49.144L24.4892 49.168ZM100.909 25.16L117.391 20.448L113.911 30.784L100.909 25.16ZM85.9207 23.224L98.7704 25.112L98.6188 25.152L98.5629 25.216L84.7235 39.336L83.9733 39.24L85.9207 23.224ZM26.4446 49.256L38.9272 53.464L37.0517 54.64L26.2211 49.312L26.4446 49.256ZM75.9362 52.736L71.315 50.92V49.232L69.9582 50.384L52.0484 42.728L51.801 43.312L69.4075 50.84L59.0718 59.584L40.3958 53.288L51.6413 46.2L51.3061 45.664L39.6216 53.032L27.538 48.96L52.6071 42.088L53.07 42.512L53.501 42.04L53.3333 41.888L55.616 41.264L55.6798 41.128L60.6681 29.816L80.262 40.392L75.9362 52.736ZM70.6765 50.6V50.672L70.6207 50.648L70.6765 50.6ZM72.3207 63.08L71.3071 62.552V51.6L75.7207 53.336L72.3207 63.08ZM59.7742 59.816L70.07 51.112L70.6765 51.352V62.936L72.1052 63.688L72.0174 63.944L59.7742 59.816ZM37.7221 54.968L39.7014 53.72L58.5052 60.056L54.6662 63.304L37.7221 54.968ZM25.1197 49.472L36.4211 55.032L25.1197 62.16V49.472Z" fill="#9BC1F9"/>
<path d="M171.703 58.144L143.066 42.408L140.337 42.456L140.329 41.824L141.941 41.8L141.278 41.432L140.544 40.768L140.017 42.192L139.427 41.976L140.041 40.312L121.006 23.128L121.429 22.656L140.273 39.672L147.44 20.28L148.038 20.496L140.784 40.128L141.646 40.912L143.218 41.776L167.537 43.056L167.553 43.688L144.335 42.392L171.543 57.328L166.834 43.432L167.457 43.312L172.269 57.728L172.732 57.984L172.429 58.544L172.764 60.256L164.009 65.912L163.666 65.376L172.062 59.96L171.703 58.144Z" fill="#9BC1F9"/>
<path d="M146.706 62.144L162.181 67.776L161.966 68.376L146.203 62.64L146.251 62.504L131.613 66.36L131.454 65.752L146.602 61.752L146.706 62.144Z" fill="#9BC1F9"/>
<path d="M131.081 65.6117L113.541 66.8445L113.585 67.475L131.125 66.2422L131.081 65.6117Z" fill="#9BC1F9"/>
<path d="M119.235 20.7381L119.054 21.3435L135.468 26.2765L135.65 25.6711L119.235 20.7381Z" fill="#9BC1F9"/>
<path d="M147.558 20.5307L139.676 41.8578L139.908 41.9439L147.79 20.6169L147.558 20.5307Z" fill="#9BC1F9"/>
<path d="M69.039 24.2844C70.8673 21.3192 69.9513 17.4298 66.993 15.5972C64.0348 13.7646 60.1545 14.6828 58.3262 17.648C56.4979 20.6132 57.4139 24.5026 60.3722 26.3352C63.3304 28.1678 67.2107 27.2496 69.039 24.2844Z" fill="white"/>
<path d="M45.1552 68.1695C45.7194 64.6848 43.3585 61.4015 39.882 60.8359C36.4056 60.2704 33.1299 62.6368 32.5657 66.1215C32.0015 69.6061 34.3624 72.8895 37.8389 73.455C41.3153 74.0206 44.591 71.6541 45.1552 68.1695Z" fill="white"/>
<path d="M114.885 42.76C114.885 45.344 112.793 47.44 110.216 47.44C107.638 47.44 105.547 45.344 105.547 42.76C105.547 40.176 107.638 38.08 110.216 38.08C112.793 38.08 114.885 40.176 114.885 42.76Z" fill="white"/>
<mask id="mask0_1708_71" style="mask-type:alpha" maskUnits="userSpaceOnUse" x="105" y="38" width="10" height="10">
<path d="M114.885 42.76C114.885 45.344 112.793 47.44 110.216 47.44C107.638 47.44 105.547 45.344 105.547 42.76C105.547 40.176 107.638 38.08 110.216 38.08C112.793 38.08 114.885 40.176 114.885 42.76Z" fill="white"/>
</mask>
<g mask="url(#mask0_1708_71)">
<path d="M107.795 47.4639C108.441 45.5119 109.16 45.5919 109.16 45.5919L108.601 49.6959C108.202 49.5839 107.691 49.3439 107.292 49.2319C107.42 48.6239 107.635 47.9439 107.795 47.4639Z" fill="#47637F"/>
<path d="M107.995 42.3839C108.194 41.0959 109.351 40.1759 110.564 40.7999C110.836 40.9439 111.203 41.2239 111.395 41.4639C111.905 42.1199 112.033 42.9279 112.56 43.5679C112.368 43.7119 112.137 43.8719 111.857 44.0159L111.53 43.5759L111.642 44.1199C110.828 44.5119 109.679 44.8319 108.106 44.8239C107.907 43.9359 107.891 43.0719 107.995 42.3839Z" fill="#F7CC7F"/>
<path d="M110.804 45.2399C110.804 45.2399 111.849 45.1039 112.312 45.6159C112.783 46.1279 111.41 50.2479 111.331 50.8959C111.243 51.5519 111.929 53.1839 111.929 53.1839C111.929 53.1839 108.944 53.7439 108.154 53.2159C108.154 53.2159 108.106 48.6239 108.194 48.1519C108.282 47.6879 108.992 45.7919 109.16 45.5999C109.327 45.4319 110.804 45.2399 110.804 45.2399Z" fill="#13375B"/>
<path d="M110.405 43.656C110.405 43.656 110.413 43.688 110.421 43.752C110.477 44.04 110.676 44.984 110.812 45.248C110.979 45.56 110.245 46.568 109.535 46.448C109.327 46.408 109.71 45.528 109.695 45.432C109.663 45.256 109.607 45.008 109.559 44.752C109.535 44.608 109.503 44.464 109.479 44.328C109.407 43.944 109.343 43.632 109.343 43.632L110.405 43.656Z" fill="#F7A491"/>
<path opacity="0.5" d="M110.421 43.752C110.413 43.696 110.405 43.656 110.405 43.656L109.343 43.632C109.343 43.632 109.407 43.944 109.479 44.328C109.503 44.464 109.535 44.608 109.559 44.744C109.718 44.72 109.894 44.64 110.062 44.488C110.245 44.32 110.373 44.128 110.445 43.912C110.445 43.848 110.437 43.792 110.421 43.752Z" fill="#F47458"/>
<path d="M109.695 41.2399C109.695 41.2399 110.197 41.1839 110.509 41.5919C110.82 41.9999 111.155 43.2559 110.381 43.9359C109.607 44.6159 108.833 43.8479 108.721 43.0239C108.609 42.1999 108.561 41.2079 109.695 41.2399Z" fill="#F7A491"/>
<path d="M108.489 43.008C108.585 43.192 108.737 43.288 108.841 43.232C108.936 43.176 108.944 42.984 108.849 42.8C108.753 42.616 108.601 42.52 108.497 42.576C108.402 42.632 108.402 42.832 108.489 43.008Z" fill="#F7A491"/>
<path d="M109.639 41.1039C109.639 41.1039 110.309 42.2959 110.78 42.3519C111.259 42.4079 111.323 43.0399 111.323 43.0399C111.323 43.0399 111.155 41.5759 110.676 41.2959C110.205 41.0159 109.639 41.1039 109.639 41.1039Z" fill="#F7CC7F"/>
<path d="M110.66 42.6559C110.62 42.8719 110.7 43.0639 110.836 43.0879C110.972 43.1119 111.115 42.9679 111.147 42.7519C111.187 42.5359 111.107 42.3439 110.972 42.3199C110.836 42.2879 110.7 42.4399 110.66 42.6559Z" fill="#F7A491"/>
<path d="M110.07 43.424L109.351 43.5679C109.351 43.5679 109.423 43.84 109.742 43.784C110.126 43.72 110.07 43.424 110.07 43.424Z" fill="white"/>
<path d="M112.129 45.48C112.129 45.48 112.52 45.664 112.871 46.472C113.198 47.24 113.294 51.072 113.294 51.072L111.857 50.832L111.323 49.064C111.155 48.368 110.972 46.752 111.658 45.808C111.841 45.56 112.017 45.408 112.129 45.48Z" fill="#47637F"/>
</g>
<path d="M142.242 50.7215C146.971 49.7736 150.037 45.1628 149.092 40.423C148.146 35.6832 143.546 32.6092 138.817 33.557C134.089 34.5049 131.022 39.1157 131.968 43.8555C132.913 48.5954 137.513 51.6693 142.242 50.7215Z" fill="white"/>
<path d="M100.865 28.7692C102.999 28.019 104.122 25.677 103.373 23.5383C102.625 21.3995 100.288 20.2739 98.1548 21.0241C96.021 21.7744 94.8981 24.1164 95.6466 26.2551C96.395 28.3938 98.7315 29.5195 100.865 28.7692Z" fill="white"/>
<path d="M152.793 23.058C153.116 19.7825 150.729 16.8643 147.462 16.5399C144.194 16.2156 141.282 18.6079 140.959 21.8834C140.635 25.1589 143.022 28.0771 146.29 28.4015C149.558 28.7259 152.469 26.3335 152.793 23.058Z" fill="white"/>
<path d="M33.2047 30.5119C36.1227 30.5119 38.4883 28.1408 38.4883 25.2159C38.4883 22.291 36.1227 19.9199 33.2047 19.9199C30.2867 19.9199 27.9211 22.291 27.9211 25.2159C27.9211 28.1408 30.2867 30.5119 33.2047 30.5119Z" fill="white"/>
<mask id="mask1_1708_71" style="mask-type:alpha" maskUnits="userSpaceOnUse" x="27" y="19" width="12" height="12">
<path d="M33.2047 30.512C36.1227 30.512 38.4883 28.1409 38.4883 25.216C38.4883 22.2911 36.1227 19.92 33.2047 19.92C30.2867 19.92 27.9211 22.2911 27.9211 25.216C27.9211 28.1409 30.2867 30.512 33.2047 30.512Z" fill="white"/>
</mask>
<g mask="url(#mask1_1708_71)">
<path d="M33.6445 21.2183C32.4866 20.6002 31.1337 21.1552 31.033 22.7763C30.9323 24.3973 32.0713 24.9713 33.1725 24.8641C34.2612 24.7505 35.3435 21.8932 33.6445 21.2183Z" fill="#F7CC7F"/>
<path d="M32.946 25.5263C32.946 26.1634 32.43 26.6806 31.7944 26.6806C31.1589 26.6806 30.6429 26.1634 30.6429 25.5263C30.6429 24.8893 31.1589 24.3721 31.7944 24.3721C32.43 24.3721 32.946 24.883 32.946 25.5263Z" fill="#F7CC7F"/>
<path d="M34.2675 26.1887L38.2068 26.05C38.2068 26.05 41.2776 25.0912 41.372 25.0597C41.4664 25.0344 41.9383 23.7982 42.0642 23.9054C42.1901 24.0126 41.7936 24.5235 41.9509 24.6118C42.1082 24.7064 43.6122 24.2145 43.6059 24.3343C43.5996 24.5614 42.6998 24.6749 42.7186 24.7821C42.7375 24.8894 43.65 24.5803 43.7381 24.7443C43.8262 24.9146 42.8445 24.9588 42.8193 25.0408C42.7942 25.1291 43.7506 25.1291 43.6751 25.3057C43.6374 25.4066 42.8256 25.2804 42.8445 25.4066C42.8697 25.5264 43.4738 25.722 43.4171 25.8292C43.3605 25.9364 42.9263 25.5958 42.5991 25.6463C42.2719 25.6904 42.0076 25.5517 41.5041 25.7787C41.0007 26.0121 39.3269 27.0402 38.2005 27.1538C37.0741 27.2736 34.5884 27.5385 34.5884 27.5385L34.2675 26.1887Z" fill="#F29383"/>
<path d="M33.5124 26.0058C31.354 26.1067 33.2544 27.917 33.2544 27.917L36.4448 27.4628C36.5392 26.8258 36.3756 26.0626 36.3693 25.8986C35.7022 25.8607 34.0473 25.9806 33.5124 26.0058Z" fill="#96D9C9"/>
<path d="M31.8448 25.6588C31.8448 25.6588 30.9198 25.6398 30.4226 26.1823C29.9318 26.7247 31.1967 30.9256 31.2848 31.6131C31.3729 32.3006 30.8254 34.1235 30.8254 34.1235C30.8254 34.1235 33.7515 34.7164 34.5884 34.1613C34.5884 34.1613 34.6765 29.2225 34.5884 28.7305C34.5003 28.2386 33.7515 26.2454 33.5753 26.0498C33.4054 25.8606 31.8448 25.6588 31.8448 25.6588Z" fill="#50BFA5"/>
<path d="M32.2601 23.9872C32.2601 23.9872 32.2538 24.0251 32.2413 24.0881C32.1846 24.3909 31.9707 25.3875 31.8259 25.6587C31.6497 25.993 32.4237 27.0464 33.1663 26.9202C33.3865 26.8824 32.9775 25.9489 32.9964 25.8479C33.0341 25.6587 33.0845 25.4001 33.1348 25.1352C33.1663 24.9838 33.1914 24.8324 33.2229 24.6937C33.3047 24.29 33.3676 23.9557 33.3676 23.9557L32.2601 23.9872Z" fill="#F7A491"/>
<path d="M32.2475 24.0882C32.2601 24.0251 32.2664 23.9873 32.2664 23.9873L33.3802 23.962C33.3802 23.962 33.3173 24.29 33.2355 24.7C33.2103 24.8388 33.1789 24.9902 33.1474 25.1415C32.9775 25.1163 32.795 25.0343 32.6125 24.8766C32.4174 24.7063 32.2853 24.4982 32.2098 24.2774C32.2224 24.1954 32.2349 24.1323 32.2475 24.0882Z" fill="#F47458"/>
<path d="M33.0152 21.4454C33.0152 21.4454 32.4929 21.3823 32.1594 21.8112C31.8322 22.2401 31.4735 23.5584 32.2916 24.2775C33.1096 24.9965 33.9151 24.1829 34.0347 23.3187C34.1542 22.4609 34.2046 21.4139 33.0152 21.4454Z" fill="#F7A491"/>
<path d="M34.2801 23.3124C34.1794 23.5016 34.0158 23.6088 33.9151 23.5457C33.8081 23.4827 33.8081 23.2808 33.9025 23.0916C34.0032 22.9024 34.1668 22.7951 34.2675 22.8582C34.3682 22.9213 34.3745 23.1231 34.2801 23.3124Z" fill="#F7A491"/>
<path d="M33.0719 21.3066C33.0719 21.3066 32.3734 22.5618 31.87 22.6249C31.3665 22.6816 31.3036 23.3502 31.3036 23.3502C31.3036 23.3502 31.4861 21.8112 31.9769 21.5147C32.4741 21.212 33.0719 21.3066 33.0719 21.3066Z" fill="#F7CC7F"/>
<path d="M32.0021 22.934C32.0398 23.1548 31.958 23.3629 31.8196 23.3944C31.6749 23.426 31.5301 23.2683 31.4861 23.0412C31.4483 22.8205 31.5301 22.6123 31.6686 22.5808C31.807 22.5555 31.958 22.7132 32.0021 22.934Z" fill="#F7A491"/>
<path d="M33.0907 29.9227C33.0907 29.9227 30.8253 28.7621 30.3282 28.1377C29.8311 27.5195 29.9381 26.3337 30.5799 26.0436C31.2218 25.7597 33.8396 28.3837 33.8396 28.3837L33.0907 29.9227Z" fill="#96D9C9"/>
</g>
<path d="M92.2804 41.2309C92.8358 36.9816 89.8494 33.0856 85.6101 32.5289C81.3708 31.9722 77.4839 34.9656 76.9284 39.2149C76.373 43.4642 79.3594 47.3602 83.5988 47.917C87.8381 48.4737 91.725 45.4802 92.2804 41.2309Z" fill="white"/>
<path d="M31.8283 50.0557C32.745 46.1643 30.3409 42.2649 26.4587 41.346C22.5764 40.4271 18.6861 42.8368 17.7694 46.7282C16.8527 50.6196 19.2567 54.5191 23.139 55.4379C27.0212 56.3568 30.9116 53.9471 31.8283 50.0557Z" fill="white"/>
<path d="M172.214 43.7439C172.214 46.5759 169.923 48.8799 167.09 48.8799C164.256 48.8799 161.966 46.5839 161.966 43.7439C161.966 40.9119 164.256 38.6079 167.09 38.6079C169.923 38.6079 172.214 40.9039 172.214 43.7439Z" fill="white"/>
<path d="M94.0458 59.6919C94.4925 57.7957 93.321 55.8955 91.4292 55.4477C89.5374 55 87.6417 56.1742 87.195 58.0705C86.7483 59.9667 87.9197 61.8669 89.8115 62.3146C91.7033 62.7624 93.599 61.5882 94.0458 59.6919Z" fill="white"/>
<path d="M136.386 64.5759C136.386 67.0399 134.391 69.0399 131.932 69.0399C129.474 69.0399 127.479 67.0399 127.479 64.5759C127.479 62.1119 129.474 60.1119 131.932 60.1119C134.391 60.1119 136.386 62.1119 136.386 64.5759Z" fill="white"/>
<path d="M126.311 22.1297C127.18 18.2726 124.766 14.4393 120.918 13.5677C117.07 12.6962 113.245 15.1165 112.376 18.9735C111.506 22.8306 113.921 26.6639 117.769 27.5355C121.617 28.407 125.441 25.9867 126.311 22.1297Z" fill="white"/>
<mask id="mask2_1708_71" style="mask-type:alpha" maskUnits="userSpaceOnUse" x="112" y="13" width="15" height="15">
<path d="M126.311 22.1297C127.18 18.2726 124.766 14.4393 120.918 13.5677C117.07 12.6962 113.245 15.1165 112.376 18.9735C111.506 22.8306 113.921 26.6639 117.769 27.5355C121.617 28.407 125.441 25.9867 126.311 22.1297Z" fill="white"/>
</mask>
<g mask="url(#mask2_1708_71)">
<path d="M122.626 19.2959C122.666 18.3359 122.523 17.3839 122.1 16.4879C121.732 15.7199 120.815 15.2799 119.985 15.2799C117.343 15.2799 117 18.7759 115.315 20.1279C114.805 20.5439 114.222 20.8799 113.735 21.3199C111.939 22.9679 112.746 26.0079 114.398 27.4479C115.547 28.4479 117.343 29.0159 118.755 28.2319C119.49 27.8239 120.048 27.1439 120.447 26.3999C121.014 25.3439 121.381 24.1279 121.78 22.9999C122.211 21.8159 122.57 20.5679 122.626 19.2959Z" fill="#13375B"/>
<path d="M121.637 28.1439C121.637 28.1439 119.657 26.1119 119.154 25.2319C118.644 24.3519 119.498 24.9279 120.376 24.6959C120.703 24.6079 120.623 22.6639 121.246 23.2959C122.267 24.3279 123.56 26.1439 123.56 26.1439L121.637 28.1439Z" fill="#96D9C9"/>
<path d="M118.827 22.3999C118.827 22.3999 117.055 22.0479 116.249 22.7279C115.443 23.4079 116.425 29.4319 116.425 30.4239C116.425 31.4239 115.866 34.0319 115.866 34.0319C115.866 34.0319 121.238 35.1919 122.092 33.6879C122.092 33.6879 122.331 27.9759 122.299 27.2559C122.259 26.5359 121.469 23.5999 121.246 23.2879C121.022 22.9759 118.827 22.3999 118.827 22.3999Z" fill="#50BFA5"/>
<path d="M118.819 19.648C118.819 19.648 118.811 19.704 118.795 19.792C118.715 20.224 118.404 21.664 118.197 22.064C117.941 22.544 119.059 24.064 120.136 23.88C120.455 23.824 119.865 22.48 119.897 22.336C119.953 22.064 120.024 21.688 120.104 21.312C120.144 21.096 120.192 20.88 120.232 20.672C120.344 20.088 120.439 19.616 120.439 19.616L118.819 19.648Z" fill="#F7A491"/>
<path d="M118.787 19.7919C118.803 19.7039 118.811 19.6479 118.811 19.6479L120.423 19.6079C120.423 19.6079 120.328 20.0879 120.216 20.6639C120.176 20.8639 120.136 21.0879 120.088 21.2959C119.841 21.2559 119.577 21.1359 119.322 20.9119C119.035 20.6639 118.851 20.3599 118.739 20.0479C118.763 19.9519 118.779 19.8639 118.787 19.7919Z" fill="#F47458"/>
<path d="M119.905 15.984C119.905 15.984 119.146 15.896 118.668 16.512C118.189 17.128 117.678 19.032 118.859 20.072C120.04 21.112 121.214 19.936 121.389 18.688C121.557 17.448 121.629 15.936 119.905 15.984Z" fill="#F7A491"/>
<path d="M121.086 15.6719C121.086 15.6719 119.601 17.7999 118.197 17.5119L118.157 16.6079L118.285 16.2639L119.003 15.7999L120.168 15.5359L121.086 15.6719Z" fill="#13375B"/>
<path d="M121.732 18.672C121.589 18.944 121.357 19.096 121.206 19.008C121.054 18.92 121.046 18.624 121.19 18.352C121.333 18.08 121.565 17.928 121.716 18.016C121.868 18.104 121.876 18.4 121.732 18.672Z" fill="#F7A491"/>
<path d="M118.436 18.136C118.492 18.456 118.38 18.752 118.173 18.792C117.965 18.832 117.75 18.608 117.694 18.288C117.638 17.968 117.75 17.672 117.957 17.632C118.165 17.584 118.38 17.808 118.436 18.136Z" fill="#F7A491"/>
<path d="M120.36 19.3839L119.242 19.3279C119.242 19.3279 119.242 19.7519 119.737 19.7919C120.336 19.8399 120.36 19.3839 120.36 19.3839Z" fill="white"/>
<path d="M120.36 19.3839L119.242 19.3279C119.242 19.3279 119.242 19.7519 119.737 19.7919C120.336 19.8399 120.36 19.3839 120.36 19.3839Z" fill="white"/>
<path d="M116.912 28.0719C116.912 28.0719 115.746 25.4879 115.571 24.4799C115.395 23.4799 116.249 22.2159 117.151 22.2959C118.053 22.3759 119.402 26.8399 119.402 26.8399L116.912 28.0719Z" fill="#96D9C9"/>
</g>
<path d="M61.0675 44.0176C62.1017 39.6274 59.3895 35.2281 55.0096 34.1915C50.6298 33.1548 46.2408 35.8734 45.2066 40.2636C44.1724 44.6537 46.8846 49.053 51.2644 50.0897C55.6443 51.1263 60.0333 48.4077 61.0675 44.0176Z" fill="white"/>
<path d="M76.0479 63.2959C76.0479 65.7359 74.0765 67.7119 71.6423 67.7119C69.208 67.7119 67.2366 65.7359 67.2366 63.2959C67.2366 60.8559 69.208 58.8799 71.6423 58.8799C74.0765 58.8719 76.0479 60.8559 76.0479 63.2959Z" fill="white"/>
<path d="M110.649 73.8808C115.395 73.6436 119.051 69.5948 118.814 64.8376C118.577 60.0804 114.538 56.4163 109.792 56.6535C105.046 56.8908 101.39 60.9396 101.627 65.6968C101.864 70.454 105.903 74.1181 110.649 73.8808Z" fill="white"/>
<path d="M167.569 64.824C167.569 67.928 165.054 70.448 161.958 70.448C158.861 70.448 156.347 67.928 156.347 64.824C156.347 61.72 158.861 59.2 161.958 59.2C165.054 59.2 167.569 61.72 167.569 64.824Z" fill="white"/>
<path d="M121.788 50.8959C121.788 52.1919 122.842 53.2479 124.135 53.2479C125.428 53.2479 126.481 52.1919 126.481 50.8959C126.481 49.5999 125.428 48.5439 124.135 48.5439C122.842 48.5439 121.788 49.5919 121.788 50.8959Z" fill="white"/>
<path d="M133.984 25.9199C133.984 26.6959 134.606 27.3199 135.38 27.3199C136.154 27.3199 136.777 26.6959 136.777 25.9199C136.777 25.1439 136.154 24.5199 135.38 24.5199C134.606 24.5199 133.984 25.1519 133.984 25.9199Z" fill="white"/>
<path d="M148.356 63.1777C148.781 62.149 148.294 60.9696 147.267 60.5435C146.241 60.1174 145.065 60.6059 144.639 61.6346C144.214 62.6633 144.702 63.8426 145.728 64.2687C146.754 64.6948 147.931 64.2063 148.356 63.1777Z" fill="white"/>
<path d="M83.9333 22.904C83.9333 24.008 84.8272 24.896 85.9207 24.896C87.0221 24.896 87.908 24 87.908 22.904C87.908 21.8 87.0141 20.912 85.9207 20.912C84.8272 20.912 83.9333 21.8 83.9333 22.904Z" fill="white"/>
<path d="M49.8976 24.266C50.6488 23.5131 50.6488 22.2923 49.8976 21.5394C49.1465 20.7865 47.9286 20.7865 47.1775 21.5394C46.4263 22.2923 46.4263 23.5131 47.1775 24.266C47.9286 25.0189 49.1465 25.0189 49.8976 24.266Z" fill="white"/>
<path d="M68.8329 50.7359C68.8329 52.0319 69.8864 53.0879 71.1794 53.0879C72.4723 53.0879 73.5258 52.0319 73.5258 50.7359C73.5258 49.4399 72.4723 48.3839 71.1794 48.3839C69.8864 48.3839 68.8329 49.4399 68.8329 50.7359Z" fill="white"/>
<path d="M85.9286 71.1839C85.9286 72.4799 86.9822 73.5359 88.2751 73.5359C89.5681 73.5359 90.6216 72.4799 90.6216 71.1839C90.6216 69.8879 89.5681 68.8319 88.2751 68.8319C86.9742 68.8319 85.9286 69.8799 85.9286 71.1839Z" fill="white"/>
<path d="M96.4719 48.384C96.4719 49.224 97.1503 49.912 97.9963 49.912C98.8423 49.912 99.5207 49.232 99.5207 48.384C99.5207 47.544 98.8423 46.856 97.9963 46.856C97.1503 46.856 96.4719 47.544 96.4719 48.384Z" fill="white"/>
<path d="M53.1418 63.6879C53.1418 64.5599 53.8441 65.2639 54.7141 65.2639C55.584 65.2639 56.2864 64.5599 56.2864 63.6879C56.2864 62.8159 55.584 62.1119 54.7141 62.1119C53.8441 62.1119 53.1418 62.8159 53.1418 63.6879Z" fill="white"/>
<path d="M24.9674 65.4593C26.2601 65.3673 27.2335 64.2422 27.1417 62.9465C27.0498 61.6508 25.9274 60.675 24.6347 60.7671C23.342 60.8592 22.3686 61.9842 22.4604 63.28C22.5523 64.5757 23.6747 65.5514 24.9674 65.4593Z" fill="white"/>
<path d="M33.2047 38.0799C33.2047 39.3759 34.2582 40.4319 35.5512 40.4319C36.8442 40.4319 37.8977 39.3759 37.8977 38.0799C37.8977 36.7839 36.8442 35.7279 35.5512 35.7279C34.2582 35.7279 33.2047 36.7839 33.2047 38.0799Z" fill="white"/>
<path d="M170.067 58.872C170.067 60.168 171.12 61.224 172.413 61.224C173.706 61.224 174.76 60.168 174.76 58.872C174.76 57.576 173.706 56.52 172.413 56.52C171.12 56.52 170.067 57.576 170.067 58.872Z" fill="white"/>
<mask id="mask3_1708_71" style="mask-type:alpha" maskUnits="userSpaceOnUse" x="76" y="32" width="17" height="16">
<path d="M92.2804 41.2309C92.8358 36.9816 89.8494 33.0856 85.6101 32.5289C81.3708 31.9722 77.4839 34.9656 76.9284 39.2149C76.373 43.4642 79.3594 47.3602 83.5988 47.917C87.8381 48.4737 91.725 45.4802 92.2804 41.2309Z" fill="white"/>
</mask>
<g mask="url(#mask3_1708_71)">
<path d="M82.6963 35.2079C84.6597 34.1599 86.9503 35.0959 87.1259 37.8479C87.2935 40.5999 85.362 41.5679 83.5024 41.3839C81.6428 41.1999 79.8151 36.3599 82.6963 35.2079Z" fill="#13375B"/>
<path d="M83.8775 42.5119C83.8775 43.5919 84.7554 44.4719 85.8329 44.4719C86.9104 44.4719 87.7883 43.5919 87.7883 42.5119C87.7883 41.4319 86.9104 40.5519 85.8329 40.5519C84.7554 40.5519 83.8775 41.4319 83.8775 42.5119Z" fill="#13375B"/>
<path d="M81.6348 43.6399L74.9545 43.4079C74.9545 43.4079 69.7507 41.7759 69.5911 41.7359C69.4315 41.6879 68.6334 39.5999 68.4179 39.7839C68.2104 39.9599 68.8808 40.8319 68.6094 40.9839C68.3381 41.1439 65.8 40.3039 65.8 40.5119C65.808 40.8959 67.3324 41.0879 67.3085 41.2639C67.2766 41.4479 65.7362 40.9199 65.5766 41.1999C65.4249 41.4879 67.085 41.5599 67.1329 41.7039C67.1808 41.8479 65.5606 41.8479 65.6803 42.1599C65.7442 42.3279 67.1169 42.1199 67.085 42.3279C67.0451 42.5359 66.0155 42.8639 66.1113 43.0399C66.2071 43.2239 66.9413 42.6479 67.5 42.7279C68.0587 42.8079 68.4977 42.5599 69.3517 42.9519C70.2057 43.3439 73.039 45.0879 74.9465 45.2879C76.854 45.4879 81.0761 45.9359 81.0761 45.9359L81.6348 43.6399Z" fill="#F29383"/>
<path d="M82.9118 43.3358C86.5672 43.5038 83.3507 46.5758 83.3507 46.5758L77.9474 45.8078C77.7878 44.7278 78.0592 43.4398 78.0751 43.1518C79.2005 43.0798 82.0099 43.2878 82.9118 43.3358Z" fill="#C24C32"/>
<path d="M85.7371 42.7439C85.7371 42.7439 87.3094 42.7119 88.1475 43.6319C88.9855 44.5439 86.8306 51.6719 86.6789 52.8399C86.5273 54.0079 87.4531 57.0959 87.4531 57.0959C87.4531 57.0959 82.4968 58.0959 81.0761 57.1599C81.0761 57.1599 80.9245 48.7919 81.0761 47.9599C81.2277 47.1279 82.4967 43.7439 82.8 43.4159C83.0953 43.0799 85.7371 42.7439 85.7371 42.7439Z" fill="#F47458"/>
<path d="M85.0348 39.9118C85.0348 39.9118 85.0427 39.9758 85.0667 40.0798C85.1625 40.5918 85.5216 42.2798 85.769 42.7438C86.0643 43.3038 84.7554 45.0958 83.4944 44.8798C83.1193 44.8158 83.8136 43.2318 83.7817 43.0638C83.7179 42.7438 83.6301 42.3038 83.5423 41.8558C83.4944 41.5998 83.4385 41.3438 83.3906 41.1038C83.255 40.4158 83.1432 39.8558 83.1432 39.8558L85.0348 39.9118Z" fill="#F7A491"/>
<path d="M85.0667 40.0799C85.0507 39.9759 85.0348 39.9119 85.0348 39.9119L83.1432 39.8639C83.1432 39.8639 83.255 40.4239 83.3906 41.1119C83.4385 41.3519 83.4864 41.6079 83.5343 41.8559C83.8296 41.8159 84.1329 41.6719 84.4362 41.3999C84.7714 41.1039 84.9869 40.7519 85.1226 40.3759C85.0986 40.2639 85.0747 40.1599 85.0667 40.0799Z" fill="#F47458"/>
<path d="M83.7578 35.5999C83.7578 35.5999 84.6517 35.4959 85.2024 36.2239C85.7611 36.9519 86.3597 39.1919 84.9789 40.4079C83.5902 41.6239 82.2254 40.2479 82.0179 38.7839C81.8183 37.3199 81.7385 35.5439 83.7578 35.5999Z" fill="#F7A491"/>
<path d="M81.6108 38.7599C81.7785 39.0799 82.0578 39.2639 82.2334 39.1599C82.409 39.0559 82.4169 38.7119 82.2573 38.3919C82.0897 38.0719 81.8104 37.8879 81.6348 37.9919C81.4592 38.0959 81.4512 38.4399 81.6108 38.7599Z" fill="#F7A491"/>
<path d="M83.662 35.3599C83.662 35.3599 84.8512 37.4879 85.7052 37.5919C86.5592 37.6879 86.6709 38.8239 86.6709 38.8239C86.6709 38.8239 86.3676 36.2159 85.5216 35.7119C84.6756 35.2079 83.662 35.3599 83.662 35.3599Z" fill="#13375B"/>
<path d="M85.4817 38.1279C85.4099 38.5039 85.5535 38.8559 85.793 38.9039C86.0324 38.9519 86.2878 38.6879 86.3517 38.3119C86.4235 37.9359 86.2798 37.5839 86.0404 37.5359C85.801 37.4799 85.5456 37.7439 85.4817 38.1279Z" fill="#F7A491"/>
<path d="M83.6301 49.9679C83.6301 49.9679 87.469 47.9999 88.3151 46.9439C89.1611 45.8959 88.9775 43.8799 87.8841 43.3999C86.7906 42.9199 82.3611 47.3679 82.3611 47.3679L83.6301 49.9679Z" fill="#C24C32"/>
</g>
<mask id="mask4_1708_71" style="mask-type:alpha" maskUnits="userSpaceOnUse" x="95" y="20" width="9" height="10">
<path d="M100.865 28.7692C102.999 28.019 104.122 25.677 103.373 23.5383C102.625 21.3995 100.288 20.2739 98.1548 21.0241C96.021 21.7744 94.8981 24.1164 95.6466 26.2551C96.395 28.3938 98.7315 29.5195 100.865 28.7692Z" fill="white"/>
</mask>
<g mask="url(#mask4_1708_71)">
<path d="M100.854 22.3279C99.792 21.7599 98.5549 22.2719 98.4671 23.7519C98.3714 25.2319 99.4169 25.7599 100.423 25.6559C101.428 25.5679 102.41 22.9519 100.854 22.3279Z" fill="#13375B"/>
<path d="M99.1056 24.76C99.1056 25.04 98.8822 25.264 98.6028 25.264C98.3235 25.264 98.1 25.04 98.1 24.76C98.1 24.48 98.3235 24.256 98.6028 24.256C98.8822 24.256 99.1056 24.48 99.1056 24.76Z" fill="#13375B"/>
<path d="M99.6085 25.2319C99.6085 25.5119 99.385 25.7359 99.1056 25.7359C98.8263 25.7359 98.6028 25.5119 98.6028 25.2319C98.6028 24.9519 98.8263 24.7279 99.1056 24.7279C99.385 24.7279 99.6085 24.9599 99.6085 25.2319Z" fill="#13375B"/>
<path d="M100.271 25.5999C100.271 25.8799 100.047 26.1039 99.7681 26.1039C99.4887 26.1039 99.2653 25.8799 99.2653 25.5999C99.2653 25.3199 99.4887 25.0959 99.7681 25.0959C100.047 25.0959 100.271 25.3199 100.271 25.5999Z" fill="#13375B"/>
<path d="M98.8822 23.9279C98.8822 24.2079 98.6587 24.4319 98.3793 24.4319C98.1 24.4319 97.8765 24.2079 97.8765 23.9279C97.8765 23.6479 98.1 23.4239 98.3793 23.4239C98.6587 23.4159 98.8822 23.6479 98.8822 23.9279Z" fill="#13375B"/>
<path d="M99.0578 23.056C99.0578 23.336 98.8343 23.56 98.5549 23.56C98.2756 23.56 98.0521 23.336 98.0521 23.056C98.0521 22.776 98.2756 22.552 98.5549 22.552C98.8343 22.552 99.0578 22.776 99.0578 23.056Z" fill="#13375B"/>
<path d="M99.6404 22.504C99.6404 22.784 99.4169 23.008 99.1376 23.008C98.8582 23.008 98.6348 22.784 98.6348 22.504C98.6348 22.224 98.8582 22 99.1376 22C99.4169 22 99.6404 22.224 99.6404 22.504Z" fill="#13375B"/>
<path d="M100.415 22.2719C100.415 22.5519 100.191 22.7759 99.9117 22.7759C99.6324 22.7759 99.4089 22.5519 99.4089 22.2719C99.4089 21.9919 99.6324 21.7679 99.9117 21.7679C100.191 21.7679 100.415 21.9999 100.415 22.2719Z" fill="#13375B"/>
<path d="M101.213 22.3359C101.213 22.6159 100.989 22.8399 100.71 22.8399C100.431 22.8399 100.207 22.6159 100.207 22.3359C100.207 22.0559 100.431 21.8319 100.71 21.8319C100.989 21.8319 101.213 22.0559 101.213 22.3359Z" fill="#13375B"/>
<path d="M101.811 22.968C101.811 23.248 101.588 23.472 101.308 23.472C101.029 23.472 100.806 23.248 100.806 22.968C100.806 22.688 101.029 22.464 101.308 22.464C101.588 22.464 101.811 22.688 101.811 22.968Z" fill="#13375B"/>
<path d="M101.795 24.5759C101.795 24.8559 101.572 25.0799 101.292 25.0799C101.013 25.0799 100.79 24.8559 100.79 24.5759C100.79 24.2959 101.013 24.0719 101.292 24.0719C101.572 24.0719 101.795 24.2959 101.795 24.5759Z" fill="#13375B"/>
<path d="M101.292 25.3359C101.292 25.6159 101.069 25.8399 100.79 25.8399C100.51 25.8399 100.287 25.6159 100.287 25.3359C100.287 25.0559 100.51 24.8319 100.79 24.8319C101.069 24.8319 101.292 25.0559 101.292 25.3359Z" fill="#13375B"/>
<path d="M102.003 23.728C102.003 24.008 101.779 24.232 101.5 24.232C101.221 24.232 100.997 24.008 100.997 23.728C100.997 23.448 101.221 23.224 101.5 23.224C101.779 23.224 102.003 23.448 102.003 23.728Z" fill="#13375B"/>
<path d="M100.598 25.5279C100.598 25.8079 100.375 26.0319 100.095 26.0319C99.816 26.0319 99.5925 25.8079 99.5925 25.5279C99.5925 25.2479 99.816 25.0239 100.095 25.0239C100.375 25.0239 100.598 25.2479 100.598 25.5279Z" fill="#13375B"/>
<path d="M101.428 26.8799L105.028 26.7519C105.028 26.7519 107.837 25.8719 107.925 25.8479C108.013 25.8239 108.444 24.6959 108.555 24.7919C108.667 24.8879 108.308 25.3599 108.452 25.4399C108.595 25.5279 109.968 25.0719 109.968 25.1839C109.96 25.3919 109.138 25.4959 109.154 25.5919C109.17 25.6879 110 25.4079 110.088 25.5599C110.168 25.7119 109.274 25.7519 109.25 25.8319C109.226 25.9119 110.096 25.9119 110.032 26.0799C110 26.1679 109.258 26.0559 109.274 26.1679C109.298 26.2799 109.848 26.4559 109.8 26.5519C109.753 26.6479 109.354 26.3439 109.05 26.3839C108.747 26.4239 108.508 26.2959 108.053 26.5039C107.598 26.7119 106.065 27.6559 105.036 27.7599C104.006 27.8639 101.731 28.1119 101.731 28.1119L101.428 26.8799Z" fill="#F29383"/>
<path d="M100.742 26.712C98.7704 26.808 100.502 28.464 100.502 28.464L103.416 28.048C103.503 27.464 103.352 26.768 103.344 26.616C102.745 26.576 101.229 26.688 100.742 26.712Z" fill="#C24C32"/>
<path d="M99.2174 26.4C99.2174 26.4 98.3714 26.384 97.9164 26.88C97.4695 27.376 98.6268 31.216 98.7066 31.848C98.7864 32.48 98.2916 34.144 98.2916 34.144C98.2916 34.144 100.965 34.688 101.731 34.176C101.731 34.176 101.811 29.656 101.731 29.208C101.652 28.76 100.965 26.936 100.806 26.752C100.638 26.576 99.2174 26.4 99.2174 26.4Z" fill="#F47458"/>
<path d="M99.5925 24.8719C99.5925 24.8719 99.5845 24.9039 99.5765 24.9599C99.5287 25.2319 99.3291 26.1439 99.2014 26.3999C99.0418 26.7039 99.7441 27.6719 100.431 27.5519C100.63 27.5199 100.263 26.6639 100.279 26.5759C100.311 26.3999 100.359 26.1679 100.407 25.9279C100.431 25.7919 100.462 25.6559 100.486 25.5199C100.558 25.1519 100.622 24.8479 100.622 24.8479L99.5925 24.8719Z" fill="#BF7154"/>
<path d="M99.5765 24.9599C99.5845 24.9039 99.5925 24.8719 99.5925 24.8719L100.614 24.8479C100.614 24.8479 100.558 25.1519 100.478 25.5199C100.454 25.6479 100.423 25.7839 100.399 25.9199C100.239 25.8959 100.079 25.8159 99.9118 25.6719C99.7282 25.5119 99.6164 25.3279 99.5446 25.1199C99.5606 25.0559 99.5686 24.9999 99.5765 24.9599Z" fill="#A85D42"/>
<path d="M100.279 22.5439C100.279 22.5439 99.8 22.4879 99.4967 22.8799C99.1934 23.2719 98.8742 24.4799 99.6164 25.1359C100.367 25.7919 101.101 25.0479 101.213 24.2639C101.324 23.4719 101.372 22.5119 100.279 22.5439Z" fill="#BF7154"/>
<path d="M101.436 24.248C101.348 24.424 101.197 24.52 101.101 24.464C101.005 24.408 100.997 24.224 101.093 24.048C101.181 23.872 101.332 23.776 101.428 23.832C101.524 23.888 101.524 24.072 101.436 24.248Z" fill="#BF7154"/>
<path d="M100.335 22.4159C100.335 22.4159 99.6963 23.5679 99.2333 23.6159C98.7704 23.6719 98.7146 24.2799 98.7146 24.2799C98.7146 24.2799 98.8822 22.8719 99.3291 22.5999C99.7841 22.3279 100.335 22.4159 100.335 22.4159Z" fill="#13375B"/>
<path d="M99.3531 23.9039C99.393 24.1119 99.3132 24.2959 99.1855 24.3199C99.0578 24.3439 98.9221 24.1999 98.8822 23.9999C98.8423 23.7919 98.9221 23.6079 99.0498 23.5839C99.1775 23.5599 99.3132 23.7039 99.3531 23.9039Z" fill="#BF7154"/>
<path d="M100.351 30.2959C100.351 30.2959 98.2756 29.2319 97.8207 28.6639C97.3658 28.0959 97.4615 27.0079 98.0521 26.7519C98.6428 26.4879 101.037 28.8959 101.037 28.8959L100.351 30.2959Z" fill="#C24C32"/>
</g>
<mask id="mask5_1708_71" style="mask-type:alpha" maskUnits="userSpaceOnUse" x="131" y="33" width="19" height="18">
<path d="M142.242 50.7215C146.971 49.7736 150.037 45.1628 149.092 40.423C148.146 35.6832 143.546 32.6092 138.817 33.557C134.089 34.5049 131.022 39.1157 131.968 43.8555C132.913 48.5954 137.513 51.6693 142.242 50.7215Z" fill="white"/>
</mask>
<g mask="url(#mask5_1708_71)">
<path d="M143.242 37.344C141.59 36.464 139.108 36.928 138.461 40.192C138.078 42.136 137.12 44.184 137.12 44.184C139.626 45.304 142.316 45.352 144.471 44.976C144.479 44.976 146.347 38.592 143.242 37.344Z" fill="#F47458"/>
<path d="M144.383 46.44L151.59 46.192C151.59 46.192 157.209 44.432 157.377 44.384C157.552 44.336 158.414 42.08 158.638 42.272C158.869 42.464 158.143 43.4 158.43 43.568C158.725 43.736 161.463 42.832 161.463 43.056C161.455 43.472 159.803 43.672 159.835 43.872C159.867 44.072 161.535 43.496 161.702 43.808C161.87 44.112 160.074 44.192 160.026 44.352C159.978 44.512 161.726 44.512 161.599 44.84C161.527 45.016 160.042 44.8 160.082 45.024C160.122 45.248 161.231 45.6 161.136 45.8C161.032 46 160.242 45.376 159.643 45.464C159.045 45.544 158.566 45.288 157.648 45.712C156.73 46.136 153.665 48.016 151.606 48.232C149.547 48.448 144.998 48.928 144.998 48.928L144.383 46.44Z" fill="#F29383"/>
<path d="M143.01 46.112C139.068 46.296 142.532 49.608 142.532 49.608L148.366 48.776C148.541 47.608 148.238 46.216 148.23 45.912C147.017 45.84 143.984 46.064 143.01 46.112Z" fill="#C5DBFC"/>
<path d="M139.962 45.48C139.962 45.48 138.27 45.448 137.368 46.44C136.466 47.424 138.788 55.12 138.948 56.376C139.108 57.632 138.11 60.976 138.11 60.976C138.11 60.976 143.465 62.056 144.99 61.04C144.99 61.04 145.157 52.008 144.99 51.112C144.822 50.216 143.457 46.568 143.13 46.208C142.803 45.84 139.962 45.48 139.962 45.48Z" fill="#9BC1F9"/>
<path d="M140.72 42.424C140.72 42.424 140.712 42.488 140.688 42.608C140.584 43.16 140.193 44.984 139.93 45.488C139.61 46.096 141.023 48.032 142.38 47.792C142.787 47.72 142.037 46.016 142.077 45.832C142.148 45.488 142.236 45.016 142.332 44.528C142.388 44.256 142.444 43.976 142.492 43.72C142.635 42.984 142.755 42.376 142.755 42.376L140.72 42.424Z" fill="#F7A491"/>
<path d="M140.68 42.5999C140.704 42.4879 140.712 42.4159 140.712 42.4159L142.747 42.3679C142.747 42.3679 142.627 42.9759 142.484 43.7119C142.436 43.9679 142.38 44.2479 142.324 44.5199C142.013 44.4719 141.678 44.3199 141.35 44.0319C140.991 43.7199 140.752 43.3359 140.616 42.9279C140.648 42.7999 140.664 42.6879 140.68 42.5999Z" fill="#F5866E"/>
<path d="M142.085 37.768C142.085 37.768 141.127 37.656 140.52 38.44C139.922 39.224 139.267 41.64 140.768 42.96C142.26 44.272 143.745 42.784 143.96 41.208C144.184 39.624 144.263 37.712 142.085 37.768Z" fill="#F7A491"/>
<path d="M144.407 41.1759C144.232 41.5279 143.928 41.7199 143.737 41.6079C143.545 41.4959 143.537 41.1279 143.713 40.7759C143.888 40.4239 144.192 40.2319 144.383 40.3439C144.575 40.4559 144.583 40.8319 144.407 41.1759Z" fill="#F7A491"/>
<path d="M142.196 37.5119C142.196 37.5119 140.911 39.8159 139.993 39.9199C139.076 40.0239 138.956 41.2479 138.956 41.2479C138.956 41.2479 139.283 38.4319 140.193 37.8879C141.103 37.3439 142.196 37.5119 142.196 37.5119Z" fill="#F47458"/>
<path d="M140.233 40.496C140.305 40.904 140.161 41.28 139.898 41.336C139.634 41.392 139.363 41.104 139.291 40.696C139.219 40.288 139.363 39.912 139.626 39.856C139.89 39.8 140.161 40.088 140.233 40.496Z" fill="#F7A491"/>
<path d="M142.236 53.28C142.236 53.28 138.094 51.152 137.176 50.016C136.266 48.88 136.466 46.712 137.639 46.192C138.812 45.672 143.601 50.472 143.601 50.472L142.236 53.28Z" fill="#C5DBFC"/>
</g>
<mask id="mask6_1708_71" style="mask-type:alpha" maskUnits="userSpaceOnUse" x="156" y="59" width="12" height="12">
<path d="M167.569 64.824C167.569 67.928 165.054 70.448 161.958 70.448C158.861 70.448 156.347 67.928 156.347 64.824C156.347 61.72 158.861 59.2 161.958 59.2C165.054 59.2 167.569 61.72 167.569 64.824Z" fill="white"/>
</mask>
<g mask="url(#mask6_1708_71)">
<path d="M160.074 61.344C161.543 60.56 163.259 61.264 163.386 63.32C163.514 65.376 162.07 66.104 160.673 65.968C159.292 65.824 157.919 62.2 160.074 61.344Z" fill="#F7CC7F"/>
<path d="M160.96 66.808C160.96 67.616 161.615 68.272 162.421 68.272C163.227 68.272 163.881 67.616 163.881 66.808C163.881 66 163.227 65.344 162.421 65.344C161.615 65.344 160.96 65.992 160.96 66.808Z" fill="#F7CC7F"/>
<path d="M159.284 67.648L154.288 67.472C154.288 67.472 150.393 66.256 150.273 66.216C150.154 66.184 149.555 64.616 149.395 64.752C149.236 64.888 149.739 65.536 149.539 65.648C149.339 65.768 147.432 65.144 147.44 65.296C147.448 65.584 148.589 65.728 148.565 65.864C148.541 66 147.384 65.608 147.272 65.816C147.161 66.032 148.406 66.088 148.438 66.192C148.47 66.304 147.256 66.304 147.352 66.528C147.4 66.656 148.43 66.496 148.406 66.656C148.374 66.808 147.608 67.056 147.679 67.192C147.751 67.328 148.302 66.896 148.717 66.96C149.132 67.016 149.467 66.84 150.106 67.128C150.744 67.424 152.867 68.728 154.296 68.872C155.724 69.024 158.877 69.36 158.877 69.36L159.284 67.648Z" fill="#F29383"/>
<path d="M160.242 67.4159C162.979 67.5439 160.569 69.8399 160.569 69.8399L156.523 69.2639C156.403 68.4559 156.61 67.4879 156.618 67.2799C157.464 67.2319 159.563 67.3839 160.242 67.4159Z" fill="#96D9C9"/>
<path d="M162.357 66.9759C162.357 66.9759 163.53 66.9519 164.161 67.6399C164.783 68.3279 163.179 73.6559 163.067 74.5279C162.955 75.3999 163.65 77.7119 163.65 77.7119C163.65 77.7119 159.938 78.4639 158.877 77.7599C158.877 77.7599 158.765 71.4959 158.877 70.8719C158.989 70.2479 159.939 67.7199 160.162 67.4719C160.377 67.2319 162.357 66.9759 162.357 66.9759Z" fill="#50BFA5"/>
<path d="M161.83 64.8559C161.83 64.8559 161.838 64.9039 161.854 64.9839C161.926 65.3679 162.197 66.6319 162.381 66.9759C162.604 67.3999 161.623 68.7359 160.681 68.5759C160.401 68.5279 160.92 67.3439 160.896 67.2159C160.848 66.9759 160.785 66.6479 160.721 66.3119C160.681 66.1199 160.649 65.9279 160.609 65.7519C160.505 65.2399 160.425 64.8159 160.425 64.8159L161.83 64.8559Z" fill="#F7A491"/>
<path d="M161.846 64.984C161.83 64.904 161.822 64.856 161.822 64.856L160.409 64.824C160.409 64.824 160.489 65.24 160.593 65.76C160.625 65.936 160.665 66.128 160.705 66.32C160.92 66.288 161.152 66.184 161.383 65.984C161.631 65.768 161.798 65.504 161.894 65.224C161.878 65.12 161.862 65.04 161.846 64.984Z" fill="#F47458"/>
<path d="M160.872 61.6319C160.872 61.6319 161.535 61.5519 161.958 62.0959C162.373 62.6399 162.828 64.3119 161.79 65.2239C160.753 66.1359 159.731 65.1039 159.579 64.0079C159.428 62.9199 159.364 61.5919 160.872 61.6319Z" fill="#F7A491"/>
<path d="M159.268 64C159.396 64.24 159.603 64.376 159.731 64.296C159.867 64.216 159.867 63.96 159.747 63.72C159.619 63.48 159.412 63.344 159.284 63.424C159.156 63.504 159.148 63.76 159.268 64Z" fill="#F7A491"/>
<path d="M160.8 61.456C160.8 61.456 161.686 63.048 162.325 63.128C162.963 63.2 163.043 64.048 163.043 64.048C163.043 64.048 162.812 62.096 162.189 61.72C161.559 61.336 160.8 61.456 160.8 61.456Z" fill="#F7CC7F"/>
<path d="M162.157 63.52C162.109 63.8 162.213 64.064 162.389 64.104C162.572 64.144 162.756 63.944 162.812 63.656C162.86 63.376 162.756 63.112 162.58 63.072C162.405 63.04 162.213 63.24 162.157 63.52Z" fill="#F7A491"/>
<path d="M160.777 72.384C160.777 72.384 163.65 70.912 164.28 70.12C164.911 69.336 164.775 67.832 163.961 67.464C163.147 67.104 159.827 70.432 159.827 70.432L160.777 72.384Z" fill="#96D9C9"/>
</g>
<mask id="mask7_1708_71" style="mask-type:alpha" maskUnits="userSpaceOnUse" x="17" y="41" width="16" height="15">
<path d="M31.8283 50.0557C32.745 46.1643 30.3409 42.2649 26.4587 41.346C22.5764 40.4271 18.6861 42.8368 17.7694 46.7282C16.8527 50.6196 19.2567 54.5191 23.139 55.4379C27.0212 56.3568 30.9116 53.9471 31.8283 50.0557Z" fill="white"/>
</mask>
<g mask="url(#mask7_1708_71)">
<path d="M25.0064 45.1259C23.7564 44.457 22.2997 45.0599 22.1963 46.8027C22.0835 48.5455 23.3147 49.1672 24.4989 49.0447C25.683 48.9411 26.839 45.8607 25.0064 45.1259Z" fill="#13375B"/>
<path d="M22.9482 47.9896C22.9482 48.3193 22.6851 48.5831 22.3561 48.5831C22.0272 48.5831 21.764 48.3193 21.764 47.9896C21.764 47.6599 22.0272 47.3961 22.3561 47.3961C22.6851 47.3961 22.9482 47.6599 22.9482 47.9896Z" fill="#13375B"/>
<path d="M23.5403 48.5454C23.5403 48.8751 23.2771 49.1389 22.9482 49.1389C22.6192 49.1389 22.3561 48.8751 22.3561 48.5454C22.3561 48.2157 22.6192 47.9519 22.9482 47.9519C23.2771 47.9519 23.5403 48.2251 23.5403 48.5454Z" fill="#13375B"/>
<path d="M24.3203 48.9787C24.3203 49.3084 24.0572 49.5722 23.7282 49.5722C23.3993 49.5722 23.1361 49.3084 23.1361 48.9787C23.1361 48.649 23.3993 48.3853 23.7282 48.3853C24.0572 48.3853 24.3203 48.649 24.3203 48.9787Z" fill="#13375B"/>
<path d="M22.685 47.0099C22.685 47.3396 22.4219 47.6033 22.0929 47.6033C21.764 47.6033 21.5009 47.3396 21.5009 47.0099C21.5009 46.6801 21.764 46.4164 22.0929 46.4164C22.4219 46.407 22.685 46.6801 22.685 47.0099Z" fill="#13375B"/>
<path d="M22.8917 45.9831C22.8917 46.3128 22.6286 46.5766 22.2997 46.5766C21.9707 46.5766 21.7076 46.3128 21.7076 45.9831C21.7076 45.6534 21.9707 45.3896 22.2997 45.3896C22.6286 45.3896 22.8917 45.6534 22.8917 45.9831Z" fill="#13375B"/>
<path d="M23.5778 45.3332C23.5778 45.6629 23.3147 45.9267 22.9858 45.9267C22.6568 45.9267 22.3937 45.6629 22.3937 45.3332C22.3937 45.0035 22.6568 44.7397 22.9858 44.7397C23.3147 44.7397 23.5778 45.0035 23.5778 45.3332Z" fill="#13375B"/>
<path d="M24.4895 45.0599C24.4895 45.3896 24.2263 45.6534 23.8974 45.6534C23.5684 45.6534 23.3053 45.3896 23.3053 45.0599C23.3053 44.7302 23.5684 44.4664 23.8974 44.4664C24.2263 44.4664 24.4895 44.7396 24.4895 45.0599Z" fill="#13375B"/>
<path d="M25.4293 45.1353C25.4293 45.4651 25.1661 45.7288 24.8372 45.7288C24.5083 45.7288 24.2451 45.4651 24.2451 45.1353C24.2451 44.8056 24.5083 44.5419 24.8372 44.5419C25.1661 44.5419 25.4293 44.8056 25.4293 45.1353Z" fill="#13375B"/>
<path d="M26.1341 45.8795C26.1341 46.2092 25.871 46.473 25.5421 46.473C25.2131 46.473 24.95 46.2092 24.95 45.8795C24.95 45.5498 25.2131 45.286 25.5421 45.286C25.871 45.286 26.1341 45.5498 26.1341 45.8795Z" fill="#13375B"/>
<path d="M26.1153 47.7729C26.1153 48.1026 25.8522 48.3664 25.5233 48.3664C25.1943 48.3664 24.9312 48.1026 24.9312 47.7729C24.9312 47.4432 25.1943 47.1794 25.5233 47.1794C25.8522 47.1794 26.1153 47.4432 26.1153 47.7729Z" fill="#13375B"/>
<path d="M25.5233 48.6678C25.5233 48.9975 25.2601 49.2613 24.9312 49.2613C24.6023 49.2613 24.3391 48.9975 24.3391 48.6678C24.3391 48.3381 24.6023 48.0743 24.9312 48.0743C25.2601 48.0743 25.5233 48.3381 25.5233 48.6678Z" fill="#13375B"/>
<path d="M26.3597 46.7744C26.3597 47.1041 26.0966 47.3679 25.7676 47.3679C25.4387 47.3679 25.1755 47.1041 25.1755 46.7744C25.1755 46.4447 25.4387 46.1809 25.7676 46.1809C26.0966 46.1809 26.3597 46.4447 26.3597 46.7744Z" fill="#13375B"/>
<path d="M24.7056 48.8939C24.7056 49.2236 24.4425 49.4874 24.1135 49.4874C23.7846 49.4874 23.5215 49.2236 23.5215 48.8939C23.5215 48.5642 23.7846 48.3004 24.1135 48.3004C24.4425 48.3004 24.7056 48.5642 24.7056 48.8939Z" fill="#13375B"/>
<path d="M25.683 50.486L29.9216 50.3353C29.9216 50.3353 33.2297 49.2991 33.3331 49.2708C33.4365 49.2426 33.944 47.9143 34.0756 48.0273C34.2072 48.1404 33.7842 48.6962 33.9534 48.7904C34.1226 48.894 35.7391 48.357 35.7391 48.4889C35.7297 48.7339 34.7617 48.8563 34.7804 48.9694C34.7992 49.0824 35.7766 48.7527 35.88 48.9317C35.974 49.1107 34.9214 49.1578 34.8932 49.252C34.865 49.3462 35.8894 49.3462 35.8142 49.544C35.7767 49.6476 34.9026 49.5157 34.9214 49.6476C34.9496 49.7795 35.5981 49.9868 35.5417 50.0998C35.4853 50.2128 35.0154 49.8549 34.6583 49.902C34.3011 49.9491 34.0192 49.7983 33.4835 50.0433C32.9478 50.2882 31.1434 51.3998 29.931 51.5223C28.7186 51.6447 26.0401 51.9368 26.0401 51.9368L25.683 50.486Z" fill="#F29383"/>
<path d="M24.8748 50.2883C22.5534 50.4013 24.5928 52.3513 24.5928 52.3513L28.0232 51.8615C28.1265 51.1738 27.948 50.3542 27.9386 50.1752C27.2337 50.1281 25.4481 50.26 24.8748 50.2883Z" fill="#C24C32"/>
<path d="M23.0798 49.9207C23.0798 49.9207 22.0835 49.9019 21.5479 50.4859C21.0216 51.07 22.3843 55.5917 22.4783 56.3359C22.5723 57.0801 21.9896 59.0396 21.9896 59.0396C21.9896 59.0396 25.138 59.6801 26.0402 59.0772C26.0402 59.0772 26.1342 53.7548 26.0402 53.2272C25.9462 52.6997 25.138 50.5519 24.95 50.3352C24.7526 50.128 23.0798 49.9207 23.0798 49.9207Z" fill="#F47458"/>
<path d="M23.5214 48.1216C23.5214 48.1216 23.512 48.1593 23.5026 48.2253C23.4463 48.5456 23.2113 49.6195 23.0609 49.9209C22.873 50.2789 23.7 51.4187 24.5082 51.2774C24.7432 51.2398 24.3109 50.2318 24.3297 50.1282C24.3673 49.9209 24.4237 49.6477 24.4801 49.3651C24.5083 49.205 24.5458 49.0448 24.574 48.8847C24.6586 48.4514 24.7338 48.0934 24.7338 48.0934L23.5214 48.1216Z" fill="#BF7154"/>
<path d="M23.5027 48.2253C23.5121 48.1593 23.5214 48.1216 23.5214 48.1216L24.7244 48.0934C24.7244 48.0934 24.6586 48.4514 24.5646 48.8847C24.5364 49.0354 24.4989 49.1956 24.4707 49.3557C24.2827 49.3274 24.0947 49.2332 23.8974 49.0637C23.6812 48.8753 23.5496 48.6586 23.4651 48.4137C23.4839 48.3383 23.4933 48.2724 23.5027 48.2253Z" fill="#A85D42"/>
<path d="M24.3297 45.3802C24.3297 45.3802 23.7658 45.3143 23.4087 45.7759C23.0516 46.2375 22.6756 47.6599 23.5497 48.4324C24.4331 49.2048 25.2977 48.3288 25.4293 47.4056C25.5609 46.473 25.6173 45.3425 24.3297 45.3802Z" fill="#BF7154"/>
<path d="M25.6924 47.3867C25.589 47.5939 25.4105 47.707 25.2977 47.641C25.1849 47.5751 25.1755 47.3584 25.2883 47.1512C25.3917 46.9439 25.5703 46.8309 25.683 46.8968C25.7958 46.9628 25.7958 47.1795 25.6924 47.3867Z" fill="#BF7154"/>
<path d="M24.3955 45.2295C24.3955 45.2295 23.6436 46.586 23.0985 46.6425C22.5534 46.7085 22.4876 47.4244 22.4876 47.4244C22.4876 47.4244 22.685 45.7664 23.2113 45.4462C23.747 45.1259 24.3955 45.2295 24.3955 45.2295Z" fill="#13375B"/>
<path d="M23.2395 46.9817C23.2865 47.2266 23.1925 47.4433 23.0422 47.4716C22.8918 47.4998 22.732 47.3302 22.685 47.0947C22.638 46.8498 22.732 46.6331 22.8824 46.6049C23.0328 46.5766 23.1925 46.7462 23.2395 46.9817Z" fill="#BF7154"/>
<path d="M24.4143 54.5085C24.4143 54.5085 21.9708 53.2556 21.4351 52.5868C20.8994 51.9179 21.0122 50.6368 21.7076 50.3353C22.4031 50.0245 25.2225 52.86 25.2225 52.86L24.4143 54.5085Z" fill="#C24C32"/>
</g>
<mask id="mask8_1708_71" style="mask-type:alpha" maskUnits="userSpaceOnUse" x="44" y="33" width="18" height="18">
<path d="M61.0675 44.0176C62.1017 39.6274 59.3895 35.2281 55.0096 34.1915C50.6298 33.1548 46.2408 35.8734 45.2066 40.2636C44.1724 44.6537 46.8846 49.053 51.2644 50.0897C55.6443 51.1263 60.0333 48.4077 61.0675 44.0176Z" fill="white"/>
</mask>
<g mask="url(#mask8_1708_71)">
<path d="M57.6671 45.224C57.8028 45.232 58.1859 45.36 58.7446 46.408C59.4549 47.752 60.4925 51.816 60.4925 51.816L57.3958 52.976L56.9967 52.128L56.3423 45.6C56.3423 45.6 57.6272 45.224 57.6671 45.224Z" fill="#8CA5D2"/>
<path d="M53.5728 44.64C54.4587 44.64 56.6535 44.904 57.6671 45.224C57.6671 45.224 58.4174 51.664 56.9967 56.56C56.6775 57.656 57.2601 61.104 57.2601 61.104L48.0817 60.984C48.0817 60.984 49.1671 52.656 48.7601 51.312C48.3531 49.968 48.3371 45.28 48.3371 45.28C48.3371 45.28 48.4009 45.272 50.3962 44.92C51.3301 44.752 52.623 44.64 53.5728 44.64Z" fill="#466EB6"/>
<path d="M48.2333 45.984C49.0953 45.664 49.5103 53.416 49.6301 56.608C51.1465 56.752 53.7963 56.608 54.4587 56.56C54.77 56.536 55.4883 56.272 55.7916 56.232C56.1108 56.192 56.3981 56.168 56.5498 56.2C56.6057 56.208 58.1939 56.856 58.3296 57C58.4972 57.176 58.9521 57.624 58.8723 57.816C58.7925 58.008 57.9944 57.28 57.9944 57.28L57.6033 57.064C58.0902 57.536 59.016 58.168 58.8803 58.392C58.7526 58.616 57.9146 57.976 57.324 57.544C57.8348 58.008 58.4653 58.832 58.3216 58.96C58.1939 59.072 57.4676 58.12 56.7014 57.84C56.4141 57.736 56.1348 58.024 55.9033 58.056C55.7357 58.08 55.4803 58.136 55.3207 58.088L54.4826 57.848C54.1953 57.872 54.1873 58.04 53.908 58.104C53.5728 58.176 53.0301 58.248 52.6071 58.352C50.1648 58.952 49.3507 59.232 48.6005 59.224C46.3338 59.232 46.2061 46.744 48.2333 45.984Z" fill="#F7A491"/>
<path d="M46.6052 53.2639C46.4456 49.9919 46.4695 45.9679 48.2972 45.2799C49.0155 45.0079 50.2925 46.6399 50.061 53.3279C49.0873 53.4079 47.6507 53.4719 46.6052 53.2639Z" fill="#8CA5D2"/>
<path d="M55.6319 36.776C55.3685 36.688 55.1131 36.592 54.8657 36.472C54.5864 36.336 54.2193 36.176 53.9878 36.144C53.5009 36.072 52.6709 36.12 52.216 36.616C51.6413 37.24 50.6277 36.728 50.8352 39.984C51.0667 43.672 53.1099 43.264 53.1577 43.2C53.2056 43.136 54.9775 40.84 54.9775 40.84C54.9775 40.84 55.6 42.2 55.6 42.152C55.6 42.104 58.7685 37.832 55.6319 36.776Z" fill="#0E2E35"/>
<path d="M54.0756 43.4719L54.2512 44.7919C54.2512 44.7919 54.6502 46.6879 54.1394 47.0559C53.6286 47.4239 51.9765 44.7359 51.9765 44.7359L52.1521 41.3999L54.0756 43.4719Z" fill="#F7A491"/>
<path d="M52.0963 42.4799C52.5193 43.6159 53.5169 44.3199 54.2272 44.5919L54.0756 43.4719L52.1521 41.3999L52.0963 42.4799Z" fill="#F47458"/>
<path d="M53.9718 37.76C55.0493 37.584 56.015 38.456 55.9911 39.536C55.9831 40.008 55.9432 40.592 55.8474 41.224C55.616 42.744 54.5784 44.08 53.892 43.96C53.2056 43.84 51.4897 42.528 51.793 40.368C51.9765 39.04 52.8465 37.944 53.9718 37.76Z" fill="#F7A491"/>
<path d="M52.2639 40.6319C52.208 40.9679 51.9366 41.1999 51.6653 41.1519C51.3939 41.1039 51.2183 40.7919 51.2742 40.4639C51.3301 40.1279 51.6014 39.8959 51.8728 39.9439C52.1441 39.9839 52.3197 40.2959 52.2639 40.6319Z" fill="#F7A491"/>
<path d="M51.8728 39.944C51.8728 39.944 52.7028 40.152 53.0061 39.616C53.3094 39.08 54.4108 37.928 55.8075 38.408C57.2042 38.888 54.5784 37.248 54.4667 37.248C54.3549 37.248 53.0141 37.24 53.0141 37.24C53.0141 37.24 51.9845 38.088 51.9446 38.184C51.9047 38.28 51.6094 39.296 51.6094 39.296L51.8728 39.944Z" fill="#0E2E35"/>
<path d="M53.3892 42.168L54.8977 42.456C54.8977 42.456 54.754 43.024 54.0916 42.92C53.2775 42.784 53.3892 42.168 53.3892 42.168Z" fill="white"/>
</g>
<mask id="mask9_1708_71" style="mask-type:alpha" maskUnits="userSpaceOnUse" x="67" y="58" width="10" height="10">
<path d="M76.0479 63.2959C76.0479 65.7359 74.0765 67.7119 71.6423 67.7119C69.208 67.7119 67.2366 65.7359 67.2366 63.2959C67.2366 60.8559 69.208 58.8799 71.6423 58.8799C74.0765 58.8719 76.0479 60.8559 76.0479 63.2959Z" fill="white"/>
</mask>
<g mask="url(#mask9_1708_71)">
<path d="M73.8211 64.7919C73.893 64.7919 74.0925 64.8639 74.3798 65.4079C74.747 66.1039 75.2897 68.2159 75.2897 68.2159L73.6775 68.8159L73.47 68.3759L73.1268 64.9839C73.1268 64.9919 73.7972 64.7919 73.8211 64.7919Z" fill="#FADFAE"/>
<path d="M71.6902 64.4878C72.1531 64.4878 73.2864 64.6238 73.8211 64.7918C73.8211 64.7918 74.2122 68.1358 73.47 70.6798C73.3024 71.2478 73.6057 73.0398 73.6057 73.0398L68.8329 72.9758C68.8329 72.9758 69.3995 68.6478 69.1841 67.9438C68.9686 67.2478 68.9686 64.8078 68.9686 64.8078C68.9686 64.8078 69.0005 64.7998 70.038 64.6238C70.5249 64.5518 71.2033 64.4878 71.6902 64.4878Z" fill="#F7CC7F"/>
<path d="M68.9207 65.1919C69.3676 65.0239 69.5831 69.0559 69.647 70.7119C70.4371 70.7919 71.8178 70.7119 72.161 70.6879C72.3207 70.6719 72.6958 70.5359 72.8554 70.5199C73.023 70.4959 73.1667 70.4879 73.2465 70.5039C73.2784 70.5119 74.1005 70.8479 74.1723 70.9199C74.2601 71.0079 74.4995 71.2399 74.4596 71.3439C74.4197 71.4479 74.0047 71.0639 74.0047 71.0639L73.8052 70.9519C74.0606 71.1999 74.5394 71.5279 74.4676 71.6399C74.4038 71.7519 73.9648 71.4239 73.6535 71.1999C73.9169 71.4399 74.2521 71.8719 74.1723 71.9359C74.1005 71.9999 73.7254 71.4959 73.3263 71.3519C73.1747 71.2959 73.031 71.4479 72.9113 71.4639C72.8235 71.4799 72.6958 71.5039 72.608 71.4799L72.177 71.3599C72.0254 71.3759 72.0254 71.4639 71.8737 71.4959C71.6981 71.5359 71.4188 71.5679 71.1953 71.6239C69.9263 71.9359 69.5033 72.0799 69.1122 72.0799C67.931 72.0719 67.8592 65.5839 68.9207 65.1919Z" fill="#F7A491"/>
<path d="M68.0747 68.9758C67.9948 67.2798 68.0028 65.1838 68.9526 64.8238C69.3277 64.6798 69.9902 65.5278 69.8704 69.0078C69.3596 69.0478 68.6174 69.0798 68.0747 68.9758Z" fill="#FADFAE"/>
<path d="M72.7596 60.3998C72.6239 60.3518 72.4883 60.3038 72.3606 60.2398C72.2169 60.1678 72.0254 60.0878 71.9056 60.0718C71.6502 60.0318 71.2192 60.0558 70.9798 60.3198C70.6845 60.6398 70.1577 60.3758 70.2615 62.0718C70.3812 63.9838 71.4427 63.7758 71.4667 63.7438C71.4906 63.7118 72.4164 62.5198 72.4164 62.5198C72.4164 62.5198 72.7357 63.2238 72.7357 63.1998C72.7437 63.1678 74.3958 60.9518 72.7596 60.3998Z" fill="#0E2E35"/>
<path d="M71.9535 63.8798L72.0413 64.5678C72.0413 64.5678 72.2488 65.5518 71.9855 65.7438C71.7221 65.9358 70.8601 64.5358 70.8601 64.5358L70.9479 62.7998L71.9535 63.8798Z" fill="#BF7154"/>
<path d="M70.924 63.3678C71.1394 63.9598 71.6662 64.3198 72.0333 64.4638L71.9535 63.8798L70.9559 62.7998L70.924 63.3678Z" fill="#96482A"/>
<path d="M71.8977 60.9198C72.4564 60.8318 72.9592 61.2798 72.9432 61.8398C72.9352 62.0878 72.9193 62.3918 72.8634 62.7198C72.7437 63.5118 72.201 64.2078 71.8498 64.1438C71.4906 64.0798 70.5967 63.3998 70.7564 62.2718C70.8601 61.5758 71.315 61.0078 71.8977 60.9198Z" fill="#BF7154"/>
<path d="M71.0117 62.4079C70.9798 62.5839 70.8441 62.7039 70.7005 62.6799C70.5568 62.6559 70.469 62.4959 70.5009 62.3199C70.5329 62.1439 70.6685 62.0239 70.8122 62.0479C70.9479 62.0719 71.0437 62.2319 71.0117 62.4079Z" fill="#BF7154"/>
<path d="M70.8122 62.0478C70.8122 62.0478 71.2432 62.1518 71.4028 61.8798C71.5624 61.5998 72.1291 61.0078 72.8554 61.2558C73.5817 61.5038 72.2169 60.6558 72.161 60.6558C72.1052 60.6558 71.4028 60.6478 71.4028 60.6478C71.4028 60.6478 70.8681 61.0878 70.8441 61.1358C70.8282 61.1838 70.6685 61.7118 70.6685 61.7118L70.8122 62.0478Z" fill="#0E2E35"/>
<path d="M71.5944 63.2079L72.3765 63.3599C72.3765 63.3599 72.3047 63.6559 71.9535 63.5999C71.5385 63.5279 71.5944 63.2079 71.5944 63.2079Z" fill="white"/>
</g>
<mask id="mask10_1708_71" style="mask-type:alpha" maskUnits="userSpaceOnUse" x="161" y="38" width="12" height="11">
<path d="M172.214 43.744C172.214 46.576 169.923 48.88 167.09 48.88C164.256 48.88 161.966 46.584 161.966 43.744C161.966 40.912 164.256 38.608 167.09 38.608C169.923 38.608 172.214 40.904 172.214 43.744Z" fill="white"/>
</mask>
<g mask="url(#mask10_1708_71)">
<path d="M164.647 47.464C165.294 45.512 166.012 45.592 166.012 45.592L165.454 49.696C165.054 49.584 164.544 49.344 164.145 49.232C164.272 48.624 164.488 47.944 164.647 47.464Z" fill="#47637F"/>
<path d="M164.847 42.384C165.047 41.096 166.204 40.176 167.417 40.8C167.688 40.944 168.055 41.224 168.247 41.464C168.758 42.12 168.885 42.928 169.412 43.568C169.221 43.712 168.989 43.872 168.71 44.016L168.383 43.576L168.494 44.12C167.68 44.512 166.531 44.832 164.959 44.824C164.759 43.936 164.743 43.072 164.847 42.384Z" fill="#F7CC7F"/>
<path d="M167.656 45.24C167.656 45.24 168.702 45.104 169.165 45.616C169.636 46.128 168.263 50.248 168.183 50.896C168.095 51.552 168.782 53.184 168.782 53.184C168.782 53.184 165.797 53.744 165.007 53.216C165.007 53.216 164.959 48.624 165.047 48.152C165.134 47.688 165.845 45.792 166.012 45.6C166.18 45.432 167.656 45.24 167.656 45.24Z" fill="#13375B"/>
<path d="M167.257 43.6561C167.257 43.6561 167.265 43.6881 167.273 43.7521C167.329 44.0401 167.529 44.9841 167.664 45.2481C167.832 45.5601 167.098 46.5681 166.387 46.4481C166.18 46.4081 166.563 45.5281 166.547 45.4321C166.515 45.2561 166.459 45.0081 166.411 44.7521C166.387 44.6081 166.355 44.4641 166.331 44.3281C166.26 43.9441 166.196 43.6321 166.196 43.6321L167.257 43.6561Z" fill="#F7A491"/>
<path opacity="0.5" d="M167.273 43.7521C167.265 43.6961 167.257 43.6561 167.257 43.6561L166.196 43.6321C166.196 43.6321 166.26 43.9441 166.331 44.3281C166.355 44.4641 166.387 44.6081 166.411 44.7441C166.571 44.7201 166.747 44.6401 166.914 44.4881C167.098 44.3201 167.225 44.1281 167.297 43.9121C167.297 43.8481 167.289 43.7921 167.273 43.7521Z" fill="#F47458"/>
<path d="M166.547 41.24C166.547 41.24 167.05 41.184 167.361 41.592C167.672 42 168.008 43.256 167.233 43.936C166.459 44.616 165.685 43.848 165.573 43.024C165.462 42.2 165.414 41.208 166.547 41.24Z" fill="#F7A491"/>
<path d="M165.342 43.0081C165.438 43.1921 165.589 43.2881 165.693 43.2321C165.789 43.1761 165.797 42.9841 165.701 42.8001C165.605 42.6161 165.454 42.5201 165.35 42.5761C165.254 42.6321 165.254 42.8321 165.342 43.0081Z" fill="#F7A491"/>
<path d="M166.491 41.1041C166.491 41.1041 167.162 42.2961 167.632 42.3521C168.111 42.4081 168.175 43.0401 168.175 43.0401C168.175 43.0401 168.008 41.5761 167.529 41.2961C167.058 41.0161 166.491 41.1041 166.491 41.1041Z" fill="#F7CC7F"/>
<path d="M167.513 42.6561C167.473 42.8721 167.553 43.0641 167.688 43.0881C167.824 43.1121 167.968 42.9681 168 42.7521C168.039 42.5361 167.96 42.3441 167.824 42.3201C167.688 42.2881 167.553 42.4401 167.513 42.6561Z" fill="#F7A491"/>
<path d="M166.922 43.4241L166.204 43.5681C166.204 43.5681 166.276 43.8401 166.595 43.7841C166.978 43.7201 166.922 43.4241 166.922 43.4241Z" fill="white"/>
<path d="M168.981 45.4801C168.981 45.4801 169.372 45.6641 169.724 46.4721C170.051 47.2401 170.147 51.0721 170.147 51.0721L168.71 50.8321L168.175 49.0641C168.008 48.3681 167.824 46.7521 168.51 45.8081C168.694 45.5601 168.87 45.4081 168.981 45.4801Z" fill="#47637F"/>
</g>
<mask id="mask11_1708_71" style="mask-type:alpha" maskUnits="userSpaceOnUse" x="32" y="60" width="14" height="14">
<path d="M45.1552 68.1695C45.7194 64.6848 43.3585 61.4015 39.882 60.8359C36.4055 60.2704 33.1299 62.6368 32.5657 66.1215C32.0015 69.6061 34.3623 72.8895 37.8388 73.455C41.3153 74.0206 44.5909 71.6541 45.1552 68.1695Z" fill="white"/>
</mask>
<g mask="url(#mask11_1708_71)">
<path d="M41.4493 66.3761C41.4812 65.6161 41.3695 64.8721 41.0342 64.1681C40.7469 63.5601 40.0286 63.2161 39.3741 63.2161C37.2911 63.2161 37.0277 65.9681 35.7028 67.0321C35.2957 67.3601 34.8488 67.6241 34.4657 67.9681C33.053 69.2641 33.6915 71.6561 34.9845 72.7921C35.8864 73.5761 37.299 74.0241 38.4084 73.4081C38.9911 73.0881 39.43 72.5521 39.7413 71.9681C40.1882 71.1361 40.4756 70.1841 40.7868 69.2961C41.122 68.3601 41.4094 67.3841 41.4493 66.3761Z" fill="#F7CC7F"/>
<path d="M40.6671 73.336C40.6671 73.336 39.1108 71.736 38.7117 71.048C38.3127 70.352 38.9831 70.808 39.6695 70.624C39.9329 70.552 39.861 69.024 40.3559 69.528C41.162 70.344 42.1756 71.768 42.1756 71.768L40.6671 73.336Z" fill="#F47458"/>
<path d="M38.4563 68.816C38.4563 68.816 37.0596 68.544 36.4291 69.072C35.7906 69.608 36.5648 74.344 36.5648 75.128C36.5648 75.912 36.1258 77.968 36.1258 77.968C36.1258 77.968 40.3479 78.88 41.0263 77.696C41.0263 77.696 41.2178 73.208 41.1859 72.64C41.154 72.072 40.5314 69.768 40.3558 69.52C40.1882 69.272 38.4563 68.816 38.4563 68.816Z" fill="#B75742"/>
<path d="M38.4483 66.656C38.4483 66.656 38.4404 66.696 38.4244 66.768C38.3605 67.112 38.1211 68.24 37.9535 68.552C37.754 68.928 38.6319 70.128 39.4779 69.984C39.7333 69.944 39.2624 68.88 39.2864 68.768C39.3263 68.552 39.3901 68.264 39.446 67.96C39.4779 67.792 39.5098 67.616 39.5418 67.456C39.6296 67 39.7094 66.624 39.7094 66.624L38.4483 66.656Z" fill="#F7A491"/>
<path d="M38.4324 66.768C38.4483 66.696 38.4563 66.656 38.4563 66.656L39.7253 66.624C39.7253 66.624 39.6535 67 39.5577 67.456C39.5258 67.616 39.4939 67.784 39.462 67.952C39.2624 67.92 39.0629 67.824 38.8554 67.648C38.6319 67.456 38.4882 67.216 38.4005 66.968C38.4084 66.888 38.4244 66.824 38.4324 66.768Z" fill="#F47458"/>
<path d="M39.3023 63.7761C39.3023 63.7761 38.7037 63.7041 38.3286 64.1921C37.9535 64.6801 37.5464 66.1761 38.4802 66.9921C39.4141 67.8081 40.3319 66.8881 40.4676 65.9041C40.6112 64.9201 40.6591 63.7361 39.3023 63.7761Z" fill="#F7A491"/>
<path d="M40.2361 63.5281C40.2361 63.5281 39.0709 65.2001 37.9615 64.9761L37.9296 64.2641L38.0333 63.9921L38.592 63.6321L39.5019 63.4241L40.2361 63.5281Z" fill="#F7CC7F"/>
<path d="M40.7469 65.888C40.6352 66.104 40.4516 66.224 40.3319 66.152C40.2122 66.08 40.2042 65.856 40.3159 65.64C40.4277 65.424 40.6112 65.304 40.7309 65.376C40.8507 65.44 40.8586 65.672 40.7469 65.888Z" fill="#F7A491"/>
<path d="M38.153 65.4641C38.2009 65.7201 38.1051 65.9521 37.9455 65.9841C37.7859 66.0161 37.6183 65.8401 37.5704 65.5841C37.5225 65.3281 37.6183 65.0961 37.7779 65.0641C37.9375 65.0321 38.1051 65.2081 38.153 65.4641Z" fill="#F7A491"/>
<path d="M39.6615 66.448L38.7835 66.4C38.7835 66.4 38.7835 66.736 39.1746 66.768C39.6455 66.808 39.6615 66.448 39.6615 66.448Z" fill="white"/>
<path d="M39.6615 66.448L38.7835 66.4C38.7835 66.4 38.7835 66.736 39.1746 66.768C39.6455 66.808 39.6615 66.448 39.6615 66.448Z" fill="white"/>
<path d="M36.9558 73.2801C36.9558 73.2801 36.038 71.2481 35.9023 70.4561C35.7666 69.6641 36.4371 68.6801 37.1474 68.7441C37.8577 68.8081 38.9192 72.3201 38.9192 72.3201L36.9558 73.2801Z" fill="#F47458"/>
</g>
</svg>
