<svg id="Layer_1" data-name="Layer 1" xmlns="http://www.w3.org/2000/svg" xmlns:xlink="http://www.w3.org/1999/xlink" viewBox="0 0 812.75 803.86"><defs><style>.cls-1{fill:url(#linear-gradient);}.cls-2{fill:url(#linear-gradient-2);}.cls-3{fill:url(#linear-gradient-3);}.cls-4{fill:url(#linear-gradient-4);}.cls-5{fill:url(#linear-gradient-5);}.cls-6{fill:url(#linear-gradient-6);}</style><linearGradient id="linear-gradient" x1="821.72" y1="710.88" x2="471.23" y2="103.82" gradientTransform="matrix(1, 0, 0, -1, -30, 992)" gradientUnits="userSpaceOnUse"><stop offset="0.06" stop-color="#6a2363"/><stop offset="0.18" stop-color="#762662"/><stop offset="0.38" stop-color="#942e60"/><stop offset="0.5" stop-color="#a9335f"/><stop offset="0.79" stop-color="#872b61"/><stop offset="0.93" stop-color="#752662"/></linearGradient><linearGradient id="linear-gradient-2" x1="-6700.02" y1="710.89" x2="-7050.51" y2="103.82" gradientTransform="translate(-6111.27 992) rotate(180)" gradientUnits="userSpaceOnUse"><stop offset="0" stop-color="#cd3c5d"/><stop offset="0.92" stop-color="#c1395e"/></linearGradient><linearGradient id="linear-gradient-3" x1="505.29" y1="710.88" x2="154.8" y2="103.81" gradientTransform="matrix(1, 0, 0, -1, -30, 992)" gradientUnits="userSpaceOnUse"><stop offset="0.13" stop-color="#8b2b61"/><stop offset="0.53" stop-color="#b9375e"/><stop offset="0.69" stop-color="#cd3c5d"/></linearGradient><linearGradient id="linear-gradient-4" x1="-6383.58" y1="710.89" x2="-6734.08" y2="103.82" xlink:href="#linear-gradient-2"/><linearGradient id="linear-gradient-5" x1="303.54" y1="881.6" x2="414.74" y2="881.6" gradientTransform="matrix(1, 0, 0, -1, -125.64, 937.2)" gradientUnits="userSpaceOnUse"><stop offset="0.06" stop-color="#e43477"/><stop offset="0.57" stop-color="#cd3c5d"/><stop offset="1" stop-color="#8b2b61"/></linearGradient><linearGradient id="linear-gradient-6" x1="640.26" y1="881.6" x2="751.46" y2="881.6" xlink:href="#linear-gradient-5"/></defs><path class="cls-1" d="M780.2,326.27a67.55,67.55,0,0,1-.68,10.25L620.07,888.66H442L601.49,335.33a76.2,76.2,0,0,1-.52-9.06,89.62,89.62,0,0,1,179.23-1.9c0,.64,0,1.27,0,1.9Z" transform="translate(-125.64 -84.8)"/><path class="cls-2" d="M600.25,326.27a66.29,66.29,0,0,0,.69,10.25L760.39,888.66h178L779,335.33a80.65,80.65,0,0,0,.51-9.06,89.62,89.62,0,0,0-179.23-1.9c0,.64,0,1.27,0,1.9Z" transform="translate(-125.64 -84.8)"/><path class="cls-3" d="M463.77,326.27a67.55,67.55,0,0,1-.68,10.25L303.64,888.66h-178L285.06,335.33a76.2,76.2,0,0,1-.52-9.06,89.62,89.62,0,0,1,179.23-1.89q0,.94,0,1.89Z" transform="translate(-125.64 -84.8)"/><path class="cls-4" d="M283.82,326.27a66.29,66.29,0,0,0,.69,10.25L444,888.66H622L462.54,335.33a80.65,80.65,0,0,0,.51-9.06,89.62,89.62,0,0,0-179.23-1.89Q283.81,325.33,283.82,326.27Z" transform="translate(-125.64 -84.8)"/><circle class="cls-5" cx="233.5" cy="55.6" r="55.6"/><circle class="cls-6" cx="570.22" cy="55.6" r="55.6"/></svg>