<svg width="210" height="230" viewBox="0 0 210 230" fill="none" xmlns="http://www.w3.org/2000/svg">
<g filter="url(#filter0_dddddd_204_1283)">
<path d="M105 50C118.807 50 129.999 38.8071 129.999 25C129.999 11.1929 118.807 0 105 0C91.1927 0 80 11.1929 80 25C80 38.8071 91.1927 50 105 50Z" fill="#F8E1E1"/>
</g>
<path d="M116.229 47.2041L98.7666 34.3765L111.271 20.6866L129.38 30.8193C126.879 39.874 119.571 45.5153 116.229 47.2041Z" fill="#FCC2C5"/>
<path d="M103.258 36.1854C102.769 36.1854 102.279 36.1854 101.789 36.1854C101.692 36.1364 101.545 36.1364 101.447 36.0875C101.006 35.8917 100.566 35.6958 100.174 35.451C99.3416 35.0104 98.8031 34.276 98.1666 33.5906C97.8239 33.0031 97.4323 32.4646 97.1385 31.8771C96.8448 31.3875 96.649 30.849 96.4042 30.3105C96.3063 29.9678 96.1594 29.5761 96.0615 29.2334C95.9636 28.9397 95.9146 28.6949 95.8167 28.4011C95.7188 28.0584 95.6698 27.7157 95.6209 27.3241C95.523 26.4918 95.474 25.7084 95.425 24.8762C95.474 24.5335 95.474 24.1418 95.523 23.7991C95.6209 23.5053 95.6698 23.2116 95.7188 22.9179C95.8657 22.5752 96.0615 22.2325 96.2084 21.8898C96.649 21.4002 97.0406 20.9106 97.5302 20.5189C98.4114 19.7356 99.4885 19.344 100.614 19.0012C101.055 18.9033 101.496 18.8054 101.936 18.7075C102.426 18.6096 102.867 18.5606 103.356 18.5117C103.797 19.344 103.944 20.2252 103.944 21.1554C103.846 21.1554 103.699 21.1554 103.601 21.1064C103.16 20.9106 102.769 20.7637 102.328 20.5679C102.034 20.421 101.643 20.421 101.496 20.6658C101.3 20.9106 101.398 21.3022 101.741 21.4981C101.887 21.596 102.083 21.6939 102.23 21.7918C103.895 22.5752 105.559 22.4772 107.126 21.4981C107.42 21.3022 107.517 20.9596 107.371 20.7148C107.175 20.421 106.881 20.421 106.538 20.5679C106.049 20.8127 105.51 20.9596 105.021 21.1554C105.021 20.9106 104.972 20.6169 104.972 20.3231C106.196 20.3721 107.322 20.1273 108.35 19.4908C109.182 19.8335 109.916 20.3231 110.553 20.9106C111.532 21.8408 112.07 22.9668 112.168 24.2887C112.266 25.7574 112.07 27.1772 111.728 28.5969C111.385 30.0657 110.798 31.4365 110.014 32.7094C109.28 33.8844 108.399 34.9125 107.175 35.6469C106.832 35.8427 106.489 35.9896 106.098 36.1364C105.412 36.0385 104.874 35.6469 104.384 35.1573C104.188 35.7448 103.797 36.0385 103.258 36.1854Z" fill="#FE4755"/>
<path d="M106.147 36.1364C106.489 35.9895 106.881 35.8426 107.224 35.6468C108.448 34.9614 109.329 33.9333 110.063 32.7093C110.847 31.4364 111.385 30.0167 111.777 28.5969C112.119 27.1771 112.364 25.7573 112.217 24.2886C112.119 22.9668 111.581 21.8408 110.602 20.9106C109.965 20.2741 109.231 19.8335 108.399 19.4908C108.546 19.3929 108.692 19.246 108.79 19.1481C110.308 19.6376 111.63 20.372 112.56 21.6939C113.246 22.673 113.588 23.7501 113.539 24.9251C113.441 28.1073 112.609 31.0448 110.7 33.6395C109.916 34.6677 109.035 35.4999 107.762 35.9895C107.566 36.0385 107.42 36.0874 107.224 36.1853C106.832 36.1853 106.489 36.1853 106.147 36.1364C106.147 36.1853 106.147 36.1364 106.147 36.1364Z" fill="#FB2D3B"/>
<path d="M104.482 18.3648C104.482 18.3648 104.482 18.3159 104.531 18.3159C104.678 17.8263 104.825 17.3367 105.07 16.8961C105.706 15.6722 106.783 15.1336 108.056 14.9378C108.448 14.8889 108.839 14.8888 109.231 14.8399C109.231 15.0847 109.182 15.3295 109.182 15.5743C109.133 16.4065 108.888 17.2388 108.399 17.9242C107.566 19.1481 106.294 19.5398 104.874 19.6377C104.727 19.1971 104.58 18.7565 104.482 18.3648Z" fill="#98DA7C"/>
<path d="M104.825 19.5888C106.244 19.4908 107.468 19.0992 108.35 17.8752C108.839 17.1898 109.084 16.3576 109.133 15.5253C109.133 15.2805 109.182 15.0357 109.182 14.7909C109.769 14.693 109.965 14.7909 109.965 15.3784C109.965 16.4065 109.867 17.3857 109.329 18.3158C109.182 18.6096 108.937 18.9033 108.741 19.1481C108.594 19.246 108.448 19.3929 108.35 19.4908C107.322 20.1273 106.195 20.3721 104.972 20.3231C104.923 20.1273 104.874 19.8335 104.825 19.5888Z" fill="#83D262"/>
<path d="M100.664 15.5253C100.664 15.4763 100.664 15.4273 100.664 15.3784C100.908 14.8888 101.153 14.8398 101.594 15.0846C101.692 15.1336 101.79 15.1825 101.887 15.2315C102.279 15.5742 102.671 15.9169 103.062 16.2596C103.503 16.945 103.944 17.6304 104.433 18.3158C104.58 18.7075 104.678 19.1481 104.825 19.5398C104.874 19.7845 104.923 20.0294 104.972 20.3231C104.972 20.5679 105.021 20.8616 105.021 21.1554C104.678 21.1554 104.286 21.1554 103.944 21.1554C103.944 20.2252 103.797 19.3439 103.356 18.5117C103.062 17.7773 102.573 17.1409 101.985 16.6513C101.692 16.4065 101.398 16.2107 101.104 15.9659C100.908 15.8679 100.81 15.6721 100.664 15.5253Z" fill="#64BF37"/>
<path d="M103.944 21.2044C104.286 21.2044 104.678 21.2044 105.021 21.2044C105.51 21.0085 106.049 20.8617 106.538 20.6169C106.881 20.47 107.175 20.47 107.371 20.7637C107.517 21.0085 107.42 21.3512 107.126 21.5471C105.559 22.4773 103.944 22.6241 102.23 21.8408C102.034 21.7429 101.887 21.645 101.74 21.5471C101.447 21.3512 101.349 20.9596 101.496 20.7148C101.643 20.47 101.985 20.47 102.328 20.6169C102.72 20.8127 103.16 21.0085 103.601 21.1554C103.699 21.2044 103.846 21.1554 103.944 21.2044Z" fill="#E42940"/>
<defs>
<filter id="filter0_dddddd_204_1283" x="0" y="0" width="210" height="230" filterUnits="userSpaceOnUse" color-interpolation-filters="sRGB">
<feFlood flood-opacity="0" result="BackgroundImageFix"/>
<feColorMatrix in="SourceAlpha" type="matrix" values="0 0 0 0 0 0 0 0 0 0 0 0 0 0 0 0 0 0 127 0" result="hardAlpha"/>
<feOffset dy="2.76726"/>
<feGaussianBlur stdDeviation="1.1069"/>
<feColorMatrix type="matrix" values="0 0 0 0 0 0 0 0 0 0 0 0 0 0 0 0 0 0 0.0196802 0"/>
<feBlend mode="normal" in2="BackgroundImageFix" result="effect1_dropShadow_204_1283"/>
<feColorMatrix in="SourceAlpha" type="matrix" values="0 0 0 0 0 0 0 0 0 0 0 0 0 0 0 0 0 0 127 0" result="hardAlpha"/>
<feOffset dy="6.6501"/>
<feGaussianBlur stdDeviation="2.66004"/>
<feColorMatrix type="matrix" values="0 0 0 0 0 0 0 0 0 0 0 0 0 0 0 0 0 0 0.0282725 0"/>
<feBlend mode="normal" in2="effect1_dropShadow_204_1283" result="effect2_dropShadow_204_1283"/>
<feColorMatrix in="SourceAlpha" type="matrix" values="0 0 0 0 0 0 0 0 0 0 0 0 0 0 0 0 0 0 127 0" result="hardAlpha"/>
<feOffset dy="12.5216"/>
<feGaussianBlur stdDeviation="5.00862"/>
<feColorMatrix type="matrix" values="0 0 0 0 0 0 0 0 0 0 0 0 0 0 0 0 0 0 0.035 0"/>
<feBlend mode="normal" in2="effect2_dropShadow_204_1283" result="effect3_dropShadow_204_1283"/>
<feColorMatrix in="SourceAlpha" type="matrix" values="0 0 0 0 0 0 0 0 0 0 0 0 0 0 0 0 0 0 127 0" result="hardAlpha"/>
<feOffset dy="22.3363"/>
<feGaussianBlur stdDeviation="8.93452"/>
<feColorMatrix type="matrix" values="0 0 0 0 0 0 0 0 0 0 0 0 0 0 0 0 0 0 0.0417275 0"/>
<feBlend mode="normal" in2="effect3_dropShadow_204_1283" result="effect4_dropShadow_204_1283"/>
<feColorMatrix in="SourceAlpha" type="matrix" values="0 0 0 0 0 0 0 0 0 0 0 0 0 0 0 0 0 0 127 0" result="hardAlpha"/>
<feOffset dy="41.7776"/>
<feGaussianBlur stdDeviation="16.711"/>
<feColorMatrix type="matrix" values="0 0 0 0 0 0 0 0 0 0 0 0 0 0 0 0 0 0 0.0503198 0"/>
<feBlend mode="normal" in2="effect4_dropShadow_204_1283" result="effect5_dropShadow_204_1283"/>
<feColorMatrix in="SourceAlpha" type="matrix" values="0 0 0 0 0 0 0 0 0 0 0 0 0 0 0 0 0 0 127 0" result="hardAlpha"/>
<feOffset dy="100"/>
<feGaussianBlur stdDeviation="40"/>
<feColorMatrix type="matrix" values="0 0 0 0 0 0 0 0 0 0 0 0 0 0 0 0 0 0 0.07 0"/>
<feBlend mode="normal" in2="effect5_dropShadow_204_1283" result="effect6_dropShadow_204_1283"/>
<feBlend mode="normal" in="SourceGraphic" in2="effect6_dropShadow_204_1283" result="shape"/>
</filter>
</defs>
</svg>
