<svg width="200" height="187" viewBox="0 0 200 187" fill="none" xmlns="http://www.w3.org/2000/svg">
<g filter="url(#filter0_dddddd_204_1270)">
<path d="M105 50C118.807 50 129.999 38.8071 129.999 25C129.999 11.1929 118.807 0 105 0C91.1928 0 80 11.1929 80 25C80 38.8071 91.1928 50 105 50Z" fill="#F8E1E1"/>
</g>
<mask id="mask0_204_1270" style="mask-type:alpha" maskUnits="userSpaceOnUse" x="80" y="0" width="50" height="50">
<path d="M105 50C118.807 50 129.999 38.8072 129.999 25C129.999 11.1929 118.807 6.10352e-05 105 6.10352e-05C91.1928 6.10352e-05 80 11.1929 80 25C80 38.8072 91.1928 50 105 50Z" fill="#F8E1E1"/>
</mask>
<g mask="url(#mask0_204_1270)">
<path opacity="0.5" d="M147.725 50.7458C147.725 48.7406 146.999 47.1195 145.634 45.8396C145.549 45.7543 145.464 45.669 145.378 45.5836C145.293 45.4983 145.208 45.413 145.122 45.3277C145.037 45.2423 144.952 45.157 144.866 45.0717C144.781 44.9864 144.696 44.9011 144.61 44.8157C144.525 44.7304 144.482 44.6877 144.397 44.6024C144.44 44.4744 144.44 44.3038 144.482 44.1758C144.568 42.6826 144.098 41.4454 143.117 40.5495C143.032 40.4642 142.947 40.3789 142.861 40.2935C142.776 40.2082 142.691 40.1229 142.605 40.0376C142.52 39.9522 142.435 39.8669 142.349 39.7816C142.264 39.6963 142.179 39.6109 142.093 39.5256C142.008 39.4403 141.923 39.355 141.837 39.2697C141.795 39.227 141.752 39.1843 141.752 39.1417C141.496 37.6912 140.899 36.4966 139.96 35.6007C139.875 35.5154 139.79 35.4301 139.704 35.3447C139.619 35.2594 139.534 35.1741 139.448 35.0888C139.363 35.0034 139.278 34.9181 139.192 34.8328C139.107 34.7475 139.022 34.6621 138.936 34.5768C138.851 34.4915 138.766 34.4062 138.68 34.3209C138.595 34.2355 138.51 34.1502 138.424 34.0649C138.339 33.9795 138.254 33.8942 138.168 33.8089C138.083 33.7236 137.998 33.6382 137.912 33.5529C137.827 33.4676 137.742 33.3823 137.657 33.297C137.571 33.2116 137.486 33.1263 137.401 33.041C137.315 32.9557 137.23 32.8703 137.145 32.785C137.059 32.6997 136.974 32.6144 136.889 32.529C136.803 32.4437 136.718 32.3584 136.633 32.2731C136.547 32.1877 136.462 32.1024 136.377 32.0171C136.291 31.9318 136.206 31.8464 136.121 31.7611C136.035 31.6758 135.95 31.5905 135.865 31.5051C135.779 31.4198 135.694 31.3345 135.609 31.2492C135.523 31.1638 135.438 31.0785 135.353 30.9932C135.267 30.9079 135.182 30.8226 135.097 30.7372C135.011 30.6519 134.926 30.5666 134.841 30.4813C134.756 30.3959 134.67 30.3106 134.585 30.2253C134.5 30.14 134.414 30.0546 134.329 29.9693C134.244 29.884 134.158 29.7987 134.073 29.7133C133.988 29.628 133.902 29.5427 133.817 29.4574C133.732 29.372 133.646 29.2867 133.561 29.2014C133.476 29.1161 133.39 29.0307 133.305 28.9454C133.22 28.8601 133.134 28.7748 133.049 28.6894C132.964 28.6041 132.878 28.5188 132.793 28.4335C132.708 28.3481 132.622 28.2628 132.537 28.1775C132.452 28.0922 132.366 28.0069 132.281 27.9215C132.196 27.8362 132.11 27.7509 132.025 27.6656C131.94 27.5802 131.855 27.4949 131.769 27.4096C131.684 27.3243 131.599 27.2389 131.513 27.1536C131.428 27.0683 131.343 26.983 131.257 26.8976C131.172 26.8123 131.087 26.727 131.001 26.6417C130.916 26.5563 130.831 26.471 130.745 26.3857C130.66 26.3004 130.575 26.215 130.489 26.1297C130.404 26.0444 130.319 25.9591 130.233 25.8737C130.148 25.7884 130.063 25.7031 129.977 25.6178C129.892 25.5325 129.807 25.4471 129.721 25.3618C129.636 25.2765 129.551 25.1912 129.465 25.1058C129.38 25.0205 129.295 24.9352 129.209 24.8499C129.124 24.7645 129.039 24.6792 128.954 24.5939C128.868 24.5086 128.783 24.4232 128.698 24.3379C128.612 24.2526 128.527 24.1673 128.442 24.0819C128.356 23.9966 128.271 23.9113 128.186 23.826C128.1 23.7406 128.015 23.6553 127.93 23.57C127.844 23.4847 127.759 23.3993 127.674 23.314C127.588 23.2287 127.503 23.1434 127.418 23.0581C127.332 22.9727 127.247 22.8874 127.162 22.8021C127.076 22.7168 126.991 22.6314 126.906 22.5461C126.82 22.4608 126.735 22.3755 126.65 22.2901C126.564 22.2048 126.479 22.1195 126.394 22.0342C126.308 21.9488 126.223 21.8635 126.138 21.7782C126.053 21.6929 125.967 21.6075 125.882 21.5222C125.797 21.4369 125.711 21.3516 125.626 21.2662C125.541 21.1809 125.455 21.0956 125.37 21.0103C125.285 20.9249 125.199 20.8396 125.114 20.7543C125.029 20.669 124.943 20.5837 124.858 20.4983C124.773 20.413 124.687 20.3277 124.602 20.2424C124.517 20.157 124.431 20.0717 124.346 19.9864C124.261 19.9011 124.175 19.8157 124.09 19.7304C124.005 19.6451 123.919 19.5598 123.834 19.4744C123.749 19.3891 123.663 19.3038 123.578 19.2185C123.493 19.1331 123.408 19.0478 123.322 18.9625C123.237 18.8772 123.152 18.7918 123.066 18.7065C122.981 18.6212 122.896 18.5359 122.81 18.4505C122.725 18.3652 122.64 18.2799 122.554 18.1946C122.469 18.1092 122.384 18.0239 122.298 17.9386C122.213 17.8533 122.128 17.768 122.042 17.6826C121.957 17.5973 121.872 17.512 121.786 17.4267C121.701 17.3413 121.616 17.256 121.53 17.1707C121.445 17.0854 121.36 17 121.274 16.9147C121.189 16.8294 121.104 16.7441 121.018 16.6587C120.933 16.5734 120.848 16.4881 120.762 16.4028C120.677 16.3174 120.592 16.2321 120.507 16.1468C120.421 16.0615 120.336 15.9761 120.251 15.8908C120.165 15.8055 120.08 15.7202 119.995 15.6348C119.909 15.5495 119.824 15.4642 119.739 15.3789C119.653 15.2935 119.568 15.2082 119.483 15.1229C119.397 15.0376 119.312 14.9522 119.227 14.8669C119.141 14.7816 119.056 14.6963 118.971 14.6109C118.885 14.5256 118.8 14.4403 118.715 14.355C118.629 14.2696 118.544 14.1843 118.459 14.099C118.373 14.0137 118.288 13.9284 118.203 13.843C118.117 13.7577 118.032 13.6724 117.947 13.5871C117.862 13.5017 117.776 13.4164 117.691 13.3311C117.606 13.2458 117.52 13.1604 117.435 13.0751C117.35 12.9898 117.264 12.9045 117.179 12.8191C117.094 12.7338 117.008 12.6485 116.923 12.5632C116.838 12.4778 116.752 12.3925 116.667 12.3072C116.582 12.2219 116.496 12.1365 116.411 12.0512C116.326 11.9659 116.24 11.8806 116.155 11.7952C116.07 11.7099 115.984 11.6246 115.899 11.5393C115.814 11.454 115.728 11.3686 115.643 11.2833C115.558 11.198 115.472 11.1127 115.387 11.0273C115.302 10.942 115.216 10.8567 115.131 10.7714C115.046 10.686 114.961 10.6007 114.875 10.5154C114.79 10.4301 114.705 10.3447 114.619 10.2594C114.534 10.1741 114.449 10.0888 114.363 10.0034C113.766 9.40618 113.041 8.89423 112.145 8.51027C111.633 8.29696 111.078 8.21163 110.566 8.04099C110.054 8.04099 109.542 8.04099 108.988 8.08365C108.561 8.21164 108.135 8.29696 107.708 8.46761C106.812 8.8089 106.044 9.32085 105.362 10.0034C105.276 10.0888 105.191 10.1741 105.063 10.2594V10.2168C104.508 9.79013 103.996 9.32085 103.442 8.89423C102.759 8.42494 101.991 8.21164 101.181 8.08365C101.138 8.08365 101.095 8.04099 101.053 8.04099C100.584 8.04099 100.114 8.04099 99.6023 8.04099C99.1331 8.16897 98.6638 8.25429 98.1945 8.38228C96.1041 9.19286 94.8242 10.7287 94.355 12.9471C94.3123 13.0751 94.3123 13.2458 94.2696 13.4164C94.2696 13.6297 94.1416 13.8004 93.9283 13.8857C92.6485 14.611 91.8379 15.6775 91.6673 17.128C91.5819 17.64 91.6673 18.1519 91.6673 18.6638C91.6673 18.7918 91.6246 18.9198 91.5393 18.9625C90.5154 19.6451 89.7475 20.4557 89.1502 21.5222C88.7663 22.2475 88.5103 23.0154 88.425 23.7833C88.425 23.8686 88.3823 23.954 88.3823 24.0393C88.3823 24.5512 88.3823 25.0205 88.3823 25.5325C88.5103 25.9164 88.5956 26.343 88.7236 26.727C89.0649 27.8362 89.6622 28.7748 90.4727 29.5427C90.5581 29.628 90.6434 29.7133 90.7287 29.7987C90.814 29.884 90.8994 29.9693 90.9847 30.0546C91.07 30.14 91.1553 30.2253 91.2407 30.3106C91.326 30.3959 91.4113 30.4813 91.4966 30.5666C91.5819 30.6519 91.6673 30.7372 91.7526 30.8226C91.7526 30.8226 91.7526 30.8226 91.7526 30.8652C91.4966 32.3157 91.8806 33.6383 92.9045 34.7048C92.9898 34.7901 93.0324 34.8328 93.1178 34.9181C93.1178 34.9181 93.1178 34.9181 93.1604 34.9608C93.2457 35.0461 93.2884 35.0888 93.3737 35.1741C93.3737 35.1741 93.3737 35.1741 93.4164 35.2168C93.5017 35.3021 93.5444 35.3447 93.6297 35.4301C93.6297 35.4301 93.6297 35.4301 93.6724 35.4727C93.7577 35.558 93.8004 35.6007 93.8857 35.686C93.8857 35.686 93.8857 35.686 93.9283 35.7287C94.0137 35.814 94.0563 35.8567 94.1416 35.942C94.1416 35.942 94.1416 35.942 94.1843 35.9847C94.2696 36.07 94.3123 36.1127 94.3976 36.198C94.3976 36.198 94.3976 36.198 94.4403 36.2406L94.4829 36.2833C94.6962 37.6912 95.3362 38.9284 96.36 39.8669C96.4454 39.9522 96.5307 40.0376 96.616 40.1229C96.7013 40.2082 96.7867 40.2935 96.872 40.3789C96.9573 40.4642 97.0426 40.5495 97.128 40.6348C97.2133 40.7202 97.2986 40.8055 97.3839 40.8908C97.4692 40.9761 97.5546 41.0615 97.6399 41.1468C97.7252 41.2321 97.8105 41.3174 97.8959 41.4028C97.9812 41.4881 98.0665 41.5734 98.1518 41.6587C98.2372 41.744 98.3225 41.8294 98.4078 41.9147C98.4931 42 98.5784 42.0854 98.6638 42.1707C98.7491 42.256 98.8344 42.3413 98.9197 42.4267C99.0051 42.512 99.0904 42.5973 99.1757 42.6826C99.261 42.768 99.3464 42.8533 99.4317 42.9386C99.517 43.0239 99.6023 43.1092 99.6877 43.1946C99.773 43.2799 99.8583 43.3652 99.9436 43.4505C100.029 43.5359 100.114 43.6212 100.2 43.7065C100.285 43.7918 100.37 43.8772 100.456 43.9625C100.541 44.0478 100.626 44.1331 100.712 44.2185C100.797 44.3038 100.882 44.3891 100.968 44.4744C101.053 44.5598 101.138 44.6451 101.223 44.7304C101.309 44.8157 101.394 44.9011 101.479 44.9864C101.565 45.0717 101.65 45.157 101.735 45.2424C101.821 45.3277 101.906 45.413 101.991 45.4983C102.077 45.5836 102.162 45.669 102.247 45.7543C102.333 45.8396 102.418 45.9249 102.503 46.0103C102.589 46.0956 102.674 46.1809 102.759 46.2662C102.845 46.3516 102.93 46.4369 103.015 46.5222C103.101 46.6075 103.186 46.6929 103.271 46.7782C103.357 46.8635 103.442 46.9488 103.527 47.0342C103.613 47.1195 103.698 47.2048 103.783 47.2901C103.868 47.3755 103.954 47.4608 104.039 47.5461C104.124 47.6314 104.21 47.7168 104.295 47.8021C104.38 47.8874 104.466 47.9727 104.551 48.058C104.636 48.1434 104.722 48.2287 104.807 48.314C104.892 48.3993 104.978 48.4847 105.063 48.57C105.148 48.6553 105.234 48.7406 105.319 48.826C105.404 48.9113 105.49 48.9966 105.575 49.0819C105.66 49.1673 105.746 49.2526 105.831 49.3379C105.916 49.4232 106.002 49.5086 106.087 49.5939C106.172 49.6792 106.258 49.7645 106.343 49.8499C106.428 49.9352 106.514 50.0205 106.599 50.1058C106.684 50.1912 106.769 50.2765 106.855 50.3618C106.94 50.4471 107.025 50.5324 107.111 50.6178C107.196 50.7031 107.281 50.7884 107.367 50.8737C107.452 50.9591 107.537 51.0444 107.623 51.1297C107.708 51.215 107.793 51.3004 107.879 51.3857C107.964 51.471 108.049 51.5563 108.135 51.6417C108.22 51.727 108.305 51.8123 108.391 51.8976C108.476 51.983 108.561 52.0683 108.647 52.1536C108.732 52.2389 108.817 52.3243 108.903 52.4096C108.988 52.4949 109.073 52.5802 109.159 52.6656C109.244 52.7509 109.329 52.8362 109.415 52.9215C109.5 53.0069 109.585 53.0922 109.67 53.1775C109.756 53.2628 109.841 53.3481 109.926 53.4335C110.012 53.5188 110.097 53.6041 110.182 53.6894C110.268 53.7748 110.353 53.8601 110.438 53.9454C110.524 54.0307 110.609 54.1161 110.694 54.2014C110.78 54.2867 110.865 54.372 110.95 54.4574C111.036 54.5427 111.121 54.628 111.206 54.7133C111.292 54.7987 111.377 54.884 111.462 54.9693C111.548 55.0546 111.633 55.14 111.718 55.2253C111.804 55.3106 111.889 55.3959 111.974 55.4813C112.06 55.5666 112.145 55.6519 112.23 55.7372C112.315 55.8225 112.401 55.9079 112.486 55.9932C112.571 56.0785 112.657 56.1638 112.742 56.2492C112.827 56.3345 112.913 56.4198 112.998 56.5051C113.083 56.5905 113.169 56.6758 113.254 56.7611C113.339 56.8464 113.425 56.9318 113.51 57.0171C113.595 57.1024 113.681 57.1877 113.766 57.2731C113.851 57.3584 113.937 57.4437 114.022 57.529C114.107 57.6144 114.193 57.6997 114.278 57.785C114.363 57.8703 114.449 57.9557 114.534 58.041C114.619 58.1263 114.705 58.2116 114.79 58.297C114.875 58.3823 114.961 58.4676 115.046 58.5529C115.131 58.6382 115.216 58.7236 115.302 58.8089C115.387 58.8942 115.472 58.9796 115.558 59.0649C115.643 59.1502 115.728 59.2355 115.814 59.3209C115.899 59.4062 115.984 59.4915 116.07 59.5768C116.155 59.6621 116.24 59.7475 116.326 59.8328C116.411 59.9181 116.496 60.0034 116.582 60.0888C116.667 60.1741 116.752 60.2594 116.838 60.3447C116.923 60.4301 117.008 60.5154 117.094 60.6007C117.179 60.686 117.264 60.7714 117.35 60.8567C117.435 60.942 117.52 61.0273 117.606 61.1127C117.691 61.198 117.776 61.2833 117.861 61.3686C117.947 61.454 118.032 61.5393 118.117 61.6246C118.203 61.7099 118.288 61.7953 118.373 61.8806C118.459 61.9659 118.544 62.0512 118.629 62.1365C118.715 62.2219 118.8 62.3072 118.885 62.3925C118.971 62.4778 119.056 62.5632 119.141 62.6485C119.227 62.7338 119.312 62.8191 119.397 62.9045C119.483 62.9898 119.568 63.0751 119.653 63.1604C119.739 63.2458 119.824 63.3311 119.909 63.4164C119.995 63.5017 120.08 63.5871 120.165 63.6724C120.251 63.7577 120.336 63.843 120.421 63.9284C120.507 64.0137 120.592 64.099 120.677 64.1843C120.762 64.2697 120.848 64.355 120.933 64.4403C121.018 64.5256 121.104 64.6109 121.189 64.6963C121.274 64.7816 121.36 64.8669 121.445 64.9522C121.53 65.0376 121.616 65.1229 121.701 65.2082C121.786 65.2935 121.872 65.3789 121.957 65.4642C122.853 66.4028 124.047 67.0854 125.413 67.2987C125.541 67.2987 125.669 67.3413 125.797 67.384C126.223 67.384 126.65 67.384 127.119 67.384C127.46 67.2987 127.802 67.256 128.1 67.128C129.167 66.8294 130.063 66.2748 130.831 65.4642C130.916 65.3789 131.001 65.2935 131.087 65.2082C131.129 65.2509 131.172 65.2935 131.215 65.3362C131.769 65.8908 132.366 66.4454 133.092 66.7441C133.646 67 134.286 67.128 134.841 67.3413C134.883 67.384 134.969 67.384 135.011 67.4267C135.523 67.4267 136.035 67.4267 136.59 67.4267C136.633 67.4267 136.675 67.384 136.718 67.384C138.552 67.128 139.96 66.1894 140.984 64.6963C141.539 63.8857 141.837 62.9471 141.965 61.9659C141.965 61.8379 142.093 61.7099 142.221 61.6246C142.904 61.2406 143.458 60.7714 143.842 60.1314C144.525 59.0222 144.738 57.8703 144.482 56.5905C146.573 55.1826 147.725 53.2628 147.725 50.7458Z" fill="#FFA5A9"/>
</g>
<path d="M99.5817 7.93515C100.051 7.93515 100.52 7.93515 101.032 7.93515C101.075 7.93515 101.118 7.97781 101.16 7.97781C101.971 8.1058 102.739 8.31911 103.421 8.78839C103.976 9.17235 104.53 9.64164 105.042 10.1109C105.042 11.6468 105.042 13.1826 105.042 14.7611C105.384 14.5051 105.554 14.2918 105.64 13.9505C105.725 13.5239 105.768 13.0546 105.896 12.6706C106.493 10.8788 108.455 9.64164 110.375 9.94028C112.082 10.1962 113.489 11.5188 113.873 13.1399C113.916 13.3959 113.831 13.4386 113.617 13.4812C112.977 13.5666 112.423 13.8225 111.911 14.1638C111.527 14.4198 111.356 14.8464 111.442 15.2304C111.612 15.9556 112.423 16.169 113.02 15.785C113.831 15.2304 114.727 15.2304 115.537 15.785C116.348 16.3396 116.604 17.1502 116.518 18.1314C115.665 18.0034 114.812 17.9608 113.959 18.0887C113.233 18.1741 112.807 18.814 113.063 19.4113C113.276 19.9232 113.703 20.1365 114.3 20.0085C115.324 19.8379 116.305 19.9659 117.201 20.3925C118.993 21.2884 120.017 23.4215 119.718 25.2986C119.462 26.7492 118.779 27.8584 117.585 28.7116C117.329 28.8823 117.158 28.8396 116.945 28.6689C116.262 28.1143 115.452 27.8584 114.556 27.8584C114.001 27.8584 113.575 28.285 113.532 28.8396C113.532 29.3515 114.001 29.8208 114.513 29.8208C115.111 29.8208 115.58 30.0768 116.006 30.5034C116.817 31.3567 116.518 32.8498 115.494 33.4044C114.855 33.7457 114.257 33.7457 113.617 33.4044C113.063 33.1485 112.508 33.3191 112.252 33.8737C111.996 34.343 112.21 34.8976 112.764 35.1536C113.148 35.3242 113.532 35.4522 113.873 35.6229C113.873 35.7082 113.831 35.7935 113.831 35.8788C113.703 36.8174 113.233 37.6707 112.551 38.3106C111.57 39.2065 110.375 39.5905 109.01 39.3345C107.773 39.1212 106.834 38.4812 106.152 37.4573C106.066 37.3294 106.066 37.1587 106.109 36.9881C106.152 36.6041 106.28 36.2201 106.365 35.7935C106.536 34.5563 105.81 34.1297 105 34.343C105 33.4044 105 32.4659 105 31.5273C105.426 31.4847 105.853 31.4846 106.237 31.3993C110.29 30.6314 112.764 26.5785 111.612 22.6109C110.802 19.9232 108.327 17.7048 105 17.6621C105 16.6809 105 15.7423 105 14.7611C104.914 14.7611 104.872 14.7184 104.829 14.7611C104.146 14.9317 103.592 14.2492 103.677 13.6519C103.72 13.2679 103.763 12.8413 103.891 12.4573C104.019 12.0734 103.933 11.8174 103.72 11.5614C103.549 11.3908 103.421 11.1775 103.251 11.0068C102.227 10.0683 100.99 9.64164 99.5817 9.89761C97.5766 10.2389 96.1261 11.9881 96.1261 13.9932C96.1261 14.8891 96.4247 15.6997 96.894 16.4249C97.278 16.9795 96.9367 17.7048 96.2967 17.8754C95.8275 18.0034 95.4009 17.7901 95.1022 17.2782C94.8463 16.8089 94.5903 16.2969 94.3343 15.785C93.5238 16.4249 93.2251 17.6621 93.6517 18.6007C93.993 19.3259 93.8224 19.7952 93.0971 20.1365C92.4999 20.4352 91.9879 20.7765 91.5613 21.2457C90.4521 22.4829 90.0255 23.8908 90.3668 25.512C90.5801 26.6638 91.1774 27.6024 92.1159 28.2423C93.0971 28.9676 94.2063 29.2662 95.4009 29.1382C95.8275 29.0956 96.0834 29.2236 96.3394 29.5222C96.5954 29.8208 96.5954 30.1621 96.4247 30.5034C96.1688 31.0154 95.6995 31.1007 95.2302 31.1007C94.7183 31.1007 94.249 31.058 93.7371 30.9727C93.5664 30.9727 93.4384 31.0154 93.4811 31.186C93.5238 31.5273 93.5237 31.8686 93.6091 32.2099C93.865 33.0632 94.4623 33.5751 95.3155 33.8311C95.8701 34.0017 96.0408 34.3003 96.0834 34.8976C96.1261 35.3669 96.1688 35.7935 96.2541 36.2201C96.8087 38.3106 99.0698 39.6331 101.16 39.1212C103.037 38.6945 104.402 37.0307 104.402 35.0683C104.402 34.6416 104.658 34.3003 105 34.2577C105 35.8362 105 37.4147 105 38.9932C104.914 39.0785 104.786 39.1638 104.701 39.2918C103.933 40.1024 103.037 40.6143 101.971 40.9556C101.629 41.041 101.288 41.1263 100.99 41.2116C100.563 41.2116 100.136 41.2116 99.667 41.2116C99.539 41.1689 99.411 41.169 99.2831 41.1263C96.5954 40.657 94.505 38.5239 94.1637 35.7935C94.121 35.5802 94.0357 35.4522 93.8224 35.3242C93.4384 35.0683 93.0118 34.8123 92.6705 34.471C91.6893 33.3618 91.2627 32.0819 91.5187 30.6314C91.5613 30.4181 91.476 30.2901 91.348 30.2048C90.0255 29.3089 89.0869 28.1143 88.6177 26.5785C88.4897 26.1945 88.4044 25.7679 88.2764 25.384C88.2764 24.872 88.2764 24.4027 88.2764 23.8908C88.2764 23.8055 88.319 23.7201 88.319 23.6348C88.4044 22.8242 88.6603 22.0563 89.0443 21.3737C89.5989 20.3072 90.4094 19.4539 91.4333 18.814C91.5186 18.7713 91.5613 18.6007 91.5613 18.5154C91.5613 18.0034 91.476 17.4915 91.5613 16.9795C91.7746 15.529 92.5425 14.4198 93.8224 13.7372C94.0357 13.6092 94.121 13.4812 94.1637 13.2679C94.1637 13.1399 94.2063 12.9693 94.249 12.7986C94.7183 10.6229 96.0408 9.08703 98.0885 8.23379C98.6005 8.19113 99.1124 8.1058 99.5817 7.93515Z" fill="#FECCBD"/>
<path d="M110.503 7.93518C111.015 8.06317 111.57 8.19116 112.082 8.40447C114.215 9.30037 115.495 10.9215 115.836 13.2253C115.879 13.4813 115.964 13.6946 116.22 13.8652C117.841 14.8465 118.566 16.297 118.481 18.1741C118.481 18.3874 118.396 18.6007 118.396 18.814C120.486 20.2219 121.681 22.1417 121.681 24.7014C121.681 27.2611 120.486 29.1809 118.396 30.5461C118.652 31.826 118.481 32.9778 117.756 34.0871C117.329 34.727 116.774 35.1963 116.134 35.5802C116.049 35.6229 115.921 35.7935 115.879 35.9215C115.751 36.9028 115.452 37.8413 114.897 38.6519C113.873 40.1451 112.466 41.1263 110.631 41.3396C110.588 41.3396 110.546 41.3823 110.503 41.3823C109.991 41.3823 109.479 41.3823 108.925 41.3823C108.882 41.3396 108.797 41.3396 108.754 41.297C108.157 41.1263 107.56 40.9557 107.005 40.6997C106.237 40.3584 105.64 39.8038 105.042 39.1638C105.042 37.5853 105.042 36.0068 105.042 34.4283V34.3857C105.853 34.1297 106.578 34.5563 106.408 35.8362C106.365 36.2202 106.237 36.6041 106.152 37.0307C106.109 37.1587 106.152 37.372 106.194 37.5C106.877 38.5666 107.815 39.1638 109.053 39.3772C110.418 39.6331 111.612 39.2492 112.594 38.3533C113.319 37.7133 113.745 36.9028 113.873 35.9215C113.873 35.8362 113.916 35.7509 113.916 35.6655C113.532 35.5376 113.148 35.3669 112.807 35.1963C112.252 34.9403 112.039 34.3857 112.295 33.9164C112.551 33.3618 113.106 33.1912 113.66 33.4471C114.3 33.7458 114.897 33.7884 115.537 33.4471C116.561 32.8925 116.817 31.3993 116.049 30.5461C115.665 30.1195 115.196 29.8635 114.556 29.8635C114.044 29.8635 113.575 29.3942 113.575 28.8823C113.575 28.3277 114.001 27.9011 114.599 27.9011C115.495 27.9011 116.262 28.157 116.988 28.7116C117.201 28.8823 117.372 28.8823 117.628 28.7543C118.822 27.9011 119.505 26.7918 119.761 25.3413C120.059 23.5069 119.035 21.3311 117.244 20.4352C116.305 19.9659 115.367 19.8806 114.343 20.0512C113.745 20.1366 113.319 19.9659 113.106 19.4539C112.85 18.8567 113.276 18.2168 114.001 18.1314C114.855 18.0034 115.708 18.0461 116.561 18.1741C116.646 17.1929 116.39 16.3823 115.58 15.8277C114.769 15.2731 113.873 15.3157 113.063 15.8277C112.466 16.2116 111.655 15.9983 111.484 15.2731C111.399 14.8891 111.57 14.4625 111.954 14.2065C112.466 13.8652 113.02 13.6092 113.66 13.5239C113.873 13.4813 113.959 13.4386 113.916 13.1826C113.532 11.5615 112.167 10.2389 110.418 9.98297C108.498 9.68433 106.536 10.8789 105.938 12.7133C105.81 13.14 105.725 13.5666 105.682 13.9932C105.64 14.3345 105.426 14.5478 105.085 14.8038C105.085 13.1826 105.085 11.6468 105.085 10.1536C105.17 10.0683 105.256 9.98296 105.384 9.89764C106.066 9.21505 106.834 8.7031 107.73 8.3618C108.157 8.23382 108.583 8.10583 109.01 7.97785C109.479 7.93518 109.991 7.93518 110.503 7.93518Z" fill="#FEBEAA"/>
<path d="M105.042 34.3857V34.4284C104.701 34.5137 104.488 34.855 104.445 35.2389C104.445 37.1587 103.08 38.8226 101.203 39.2918C99.1124 39.7611 96.8513 38.4813 96.2967 36.3908C96.1687 35.9642 96.126 35.4949 96.126 35.0683C96.0834 34.5137 95.9127 34.1724 95.3581 34.0017C94.5476 33.7458 93.9503 33.2338 93.6517 32.3806C93.5664 32.0393 93.5663 31.698 93.5237 31.3567C93.5237 31.186 93.609 31.1007 93.7797 31.1434C94.2916 31.186 94.7609 31.2714 95.2728 31.2714C95.7421 31.2714 96.2114 31.186 96.4673 30.6741C96.638 30.3328 96.5953 29.9915 96.382 29.6929C96.1687 29.3942 95.8701 29.2236 95.4435 29.3089C94.2489 29.4369 93.1397 29.1383 92.1585 28.413C91.22 27.7304 90.6227 26.7918 90.4094 25.6826C90.0681 24.0615 90.4947 22.6536 91.6039 21.4164C92.0305 20.9471 92.5851 20.6058 93.1397 20.3072C93.865 19.9659 93.993 19.4966 93.6943 18.7714C93.2677 17.8328 93.5663 16.5956 94.3769 15.9557C94.6329 16.4676 94.8462 16.9369 95.1448 17.4488C95.4435 17.9608 95.8701 18.1741 96.3394 18.0461C96.9793 17.8755 97.2779 17.1502 96.9366 16.5956C96.4673 15.8277 96.1687 15.0597 96.1687 14.1638C96.1687 12.1587 97.6619 10.4096 99.6243 10.0683C101.032 9.8123 102.227 10.2389 103.293 11.1775C103.464 11.3481 103.634 11.5615 103.762 11.7321C103.976 11.9881 104.061 12.244 103.933 12.628C103.805 13.012 103.762 13.3959 103.72 13.8226C103.634 14.4198 104.189 15.1024 104.872 14.9318C104.914 14.9318 104.957 14.9318 105.042 14.9318C105.042 15.913 105.042 16.8942 105.042 17.8328C104.445 17.9181 103.805 17.9181 103.251 18.0888C99.7096 19.07 97.6192 22.4403 98.2591 26.0666C98.8137 29.2662 101.843 31.7406 105.042 31.6553C105.042 32.5512 105.042 33.4898 105.042 34.3857Z" fill="#FEDDCE"/>
<path d="M105.042 17.7475C108.37 17.7901 110.844 20.0085 111.655 22.6963C112.85 26.6212 110.333 30.7167 106.28 31.4847C105.853 31.57 105.426 31.57 105.042 31.6126C105.042 30.5888 105.042 29.5222 105.042 28.4983C105.682 28.413 106.024 28.0717 106.024 27.4318C106.024 26.8772 106.024 26.2799 106.024 25.6826C106.621 25.6826 107.218 25.6826 107.815 25.6826C108.413 25.6826 108.839 25.2987 108.839 24.7014C108.839 24.1468 108.413 23.7201 107.815 23.7201C107.218 23.7201 106.664 23.7201 106.024 23.7201C106.024 23.1229 106.024 22.5256 106.024 21.971C106.024 21.3311 105.682 20.9898 105.042 20.9045C105.042 19.8379 105.042 18.814 105.042 17.7475Z" fill="#C1136B"/>
<path d="M105.042 28.4983C105.042 29.5222 105.042 30.5888 105.042 31.6126C101.843 31.698 98.8138 29.1809 98.2592 26.0239C97.6192 22.3976 99.7097 19.0273 103.251 18.0461C103.805 17.8755 104.445 17.8755 105.042 17.7901C105.042 18.814 105.042 19.8806 105.042 20.9045C104.36 20.9898 104.061 21.3737 104.061 22.0563C104.061 22.6109 104.061 23.1656 104.061 23.7202C103.421 23.7202 102.867 23.7202 102.269 23.7202C101.843 23.7202 101.544 23.8908 101.373 24.2748C101.075 24.9147 101.544 25.64 102.269 25.64C102.867 25.64 103.464 25.64 104.104 25.64C104.104 26.2372 104.104 26.7918 104.104 27.3038C104.061 28.029 104.36 28.3703 105.042 28.4983Z" fill="#FE405C"/>
<path d="M105.042 28.4983C104.36 28.413 104.061 28.029 104.061 27.3464C104.061 26.7918 104.061 26.2372 104.061 25.6826C103.464 25.6826 102.824 25.6826 102.227 25.6826C101.501 25.6826 101.032 24.9147 101.331 24.3174C101.501 23.9335 101.843 23.7628 102.227 23.7628C102.824 23.7628 103.379 23.7628 104.018 23.7628C104.018 23.2082 104.018 22.6536 104.018 22.099C104.018 21.4164 104.317 21.0751 105 20.9471C105.64 21.0324 105.981 21.3737 105.981 22.0137C105.981 22.5683 105.981 23.1655 105.981 23.7628C106.578 23.7628 107.175 23.7628 107.773 23.7628C108.37 23.7628 108.797 24.1468 108.797 24.7441C108.797 25.2987 108.37 25.7253 107.773 25.7253C107.175 25.7253 106.621 25.7253 105.981 25.7253C105.981 26.3225 105.981 26.9198 105.981 27.4744C106.024 28.029 105.682 28.413 105.042 28.4983Z" fill="#F5EDE9"/>
<defs>
<filter id="filter0_dddddd_204_1270" x="0" y="0" width="210" height="230" filterUnits="userSpaceOnUse" color-interpolation-filters="sRGB">
<feFlood flood-opacity="0" result="BackgroundImageFix"/>
<feColorMatrix in="SourceAlpha" type="matrix" values="0 0 0 0 0 0 0 0 0 0 0 0 0 0 0 0 0 0 127 0" result="hardAlpha"/>
<feOffset dy="2.76726"/>
<feGaussianBlur stdDeviation="1.1069"/>
<feColorMatrix type="matrix" values="0 0 0 0 0 0 0 0 0 0 0 0 0 0 0 0 0 0 0.0196802 0"/>
<feBlend mode="normal" in2="BackgroundImageFix" result="effect1_dropShadow_204_1270"/>
<feColorMatrix in="SourceAlpha" type="matrix" values="0 0 0 0 0 0 0 0 0 0 0 0 0 0 0 0 0 0 127 0" result="hardAlpha"/>
<feOffset dy="6.6501"/>
<feGaussianBlur stdDeviation="2.66004"/>
<feColorMatrix type="matrix" values="0 0 0 0 0 0 0 0 0 0 0 0 0 0 0 0 0 0 0.0282725 0"/>
<feBlend mode="normal" in2="effect1_dropShadow_204_1270" result="effect2_dropShadow_204_1270"/>
<feColorMatrix in="SourceAlpha" type="matrix" values="0 0 0 0 0 0 0 0 0 0 0 0 0 0 0 0 0 0 127 0" result="hardAlpha"/>
<feOffset dy="12.5216"/>
<feGaussianBlur stdDeviation="5.00862"/>
<feColorMatrix type="matrix" values="0 0 0 0 0 0 0 0 0 0 0 0 0 0 0 0 0 0 0.035 0"/>
<feBlend mode="normal" in2="effect2_dropShadow_204_1270" result="effect3_dropShadow_204_1270"/>
<feColorMatrix in="SourceAlpha" type="matrix" values="0 0 0 0 0 0 0 0 0 0 0 0 0 0 0 0 0 0 127 0" result="hardAlpha"/>
<feOffset dy="22.3363"/>
<feGaussianBlur stdDeviation="8.93452"/>
<feColorMatrix type="matrix" values="0 0 0 0 0 0 0 0 0 0 0 0 0 0 0 0 0 0 0.0417275 0"/>
<feBlend mode="normal" in2="effect3_dropShadow_204_1270" result="effect4_dropShadow_204_1270"/>
<feColorMatrix in="SourceAlpha" type="matrix" values="0 0 0 0 0 0 0 0 0 0 0 0 0 0 0 0 0 0 127 0" result="hardAlpha"/>
<feOffset dy="41.7776"/>
<feGaussianBlur stdDeviation="16.711"/>
<feColorMatrix type="matrix" values="0 0 0 0 0 0 0 0 0 0 0 0 0 0 0 0 0 0 0.0503198 0"/>
<feBlend mode="normal" in2="effect4_dropShadow_204_1270" result="effect5_dropShadow_204_1270"/>
<feColorMatrix in="SourceAlpha" type="matrix" values="0 0 0 0 0 0 0 0 0 0 0 0 0 0 0 0 0 0 127 0" result="hardAlpha"/>
<feOffset dy="100"/>
<feGaussianBlur stdDeviation="40"/>
<feColorMatrix type="matrix" values="0 0 0 0 0 0 0 0 0 0 0 0 0 0 0 0 0 0 0.07 0"/>
<feBlend mode="normal" in2="effect5_dropShadow_204_1270" result="effect6_dropShadow_204_1270"/>
<feBlend mode="normal" in="SourceGraphic" in2="effect6_dropShadow_204_1270" result="shape"/>
</filter>
</defs>
</svg>
