<svg width="45" height="180" viewBox="0 0 45 180" fill="none" xmlns="http://www.w3.org/2000/svg">
<path d="M9.50562 125C7.50562 120.2 6.67228 108.333 6.50562 103C11.1723 102.833 20.7056 102.8 21.5056 104C22.5056 105.5 20.5056 123.5 20.0056 125C19.5056 126.5 19.5056 129 19.5056 131C19.5056 133 19.0056 169.5 19.5056 170C20.0056 170.5 20.0056 172 19.5056 173.5C19.0056 175 17.5056 173.5 17.5056 175.5C17.5056 177.1 15.5056 178.167 14.5056 178.5C10.5056 180.5 10.0056 177.5 8.00562 176C6.00562 174.5 13.0056 172.5 14.5056 169.5C16.0056 166.5 10.0056 136 9.50562 132.5C9.10562 129.7 9.33895 126.333 9.50562 125Z" fill="#FACCBA"/>
<path d="M35.2817 125.085C37.2817 120.285 38.1151 108.418 38.2817 103.085C33.6151 102.918 24.0817 102.885 23.2817 104.085C22.2817 105.585 24.2817 123.585 24.7817 125.085C25.2817 126.585 25.2817 129.085 25.2817 131.085C25.2817 133.085 25.7817 169.585 25.2817 170.085C24.7817 170.585 24.7817 172.085 25.2817 173.585C25.7817 175.085 27.2817 173.585 27.2817 175.585C27.2817 177.185 29.2817 178.251 30.2817 178.585C34.2817 180.585 34.7817 177.585 36.7817 176.085C38.7817 174.585 31.7817 172.585 30.2817 169.585C28.7817 166.585 34.7817 136.085 35.2817 132.585C35.6817 129.785 35.4484 126.418 35.2817 125.085Z" fill="#FACCBA"/>
<path d="M11.3421 7.60584C14.0372 2.55267 17.9393 0.587552 19.5535 0.236638C29.8283 -1.44775 34.2218 6.27237 35.1342 10.343C35.6254 12.5888 36.0057 30 36.5057 37.5C37.0519 45.6932 21.663 47.3152 26.5056 53C29.0289 55.9621 30.1944 55.4228 30.4938 55.1501C30.6051 55.0487 30.5967 54.9841 30.4938 55.1501C30.3423 55.3944 29.986 56.1384 29.5056 58C27.8212 64.527 29.1904 59.184 23.5056 61.5C23.2898 61.5879 23.0918 61.6781 22.9104 61.7703C23.2077 62.8296 22.2085 64.0138 21.2338 65.0299C21.6552 66.4698 22.7254 67.6168 20.5057 67.5C18.7195 67.406 19.9555 66.3624 21.2338 65.0299C21.0276 64.3256 20.9767 63.5512 21.5419 62.8203C19.3807 61.8344 15.5771 58.4055 20.5056 60C20.7751 60.0872 21.0188 60.1782 21.2382 60.2726C19.9334 59.2033 19.3581 60.5982 20.5056 56.5C21.775 51.9664 9.75921 56.6583 11.3421 55C13.3768 52.8684 16.8164 39.162 11.3421 39.162C10.3292 39.162 9.36667 39.2053 8.49599 39.2678C8.30804 43.1644 8.03789 45.9678 7.50565 46.5C5.91944 48.0862 8.64431 40.9899 7.22786 39.3766C4.25325 39.6719 2.98944 40.071 5.86787 39.162C6.51962 38.9562 6.95217 39.0625 7.22786 39.3766C7.62237 39.3374 8.04697 39.3 8.49599 39.2678C8.9772 29.2913 8.91956 12.1482 11.3421 7.60584Z" fill="#191847"/>
<path d="M2.50573 44.5C2.90573 37.3 7.33907 35.8334 9.50573 36.0001L10.5056 51.0001L10.0056 52.0001C10.0056 54.0001 9.33895 60.5001 9.00562 63.5001C10.0056 67.5001 6.00562 80.5001 5.50562 85.0001C5.00562 89.5001 6.00562 91.0001 6.00562 92.5001C6.00562 93.7001 5.67228 94.0001 5.50562 94.0001L3.50562 93.5001C4.50563 96.5001 5.70567 101.5 2.50573 97.5001C-0.694206 93.5001 -0.160959 89.8334 0.505657 88.5001C2.10566 86.9001 2.50571 84.1667 2.50573 83.0001C2.00573 78.0001 2.50573 67.5001 3.00573 63.5001C3.50573 59.5001 2.00573 53.5 2.50573 44.5Z" fill="#FACCBA"/>
<path d="M42.0055 44.5122C41.6055 37.3122 35.6723 35.8333 33.5056 36L34.0056 51.0122L34.5056 52.0122C34.5056 54.0122 35.1723 60.5122 35.5056 63.5122C34.5056 67.5122 38.5056 80.5122 39.0056 85.0122C39.5056 89.5122 38.5056 91.0122 38.5056 92.5122C38.5056 93.7122 38.8389 94.0122 39.0056 94.0122L41.0056 93.5122C40.0056 96.5122 38.8056 101.512 42.0055 97.5122C45.2054 93.5122 44.6722 89.8456 44.0056 88.5122C42.4056 86.9122 42.0055 84.1789 42.0055 83.0122C42.5055 78.0122 42.0055 67.5122 41.5055 63.5122C41.0055 59.5122 42.5055 53.5122 42.0055 44.5122Z" fill="#FACCBA"/>
<path d="M18.0068 32.4999C18.6105 31.6914 17.6416 26.9269 17.6416 26.1079H24.8002C24.8002 26.1079 23.7134 30.4999 24.0068 31.4999C24.3002 32.4999 25.7866 35.4999 31.0068 35.4999C34.5068 35.4999 33.0071 47.5488 33.0071 49.4999C33.0071 49.922 31.0054 62.9999 36.0066 75.4999C36.4476 77.0762 36.3442 78.8156 36.0066 80.4999C35.5054 82.9999 8.50706 83.0413 8.50699 79.9999C8.50695 77.9999 7.94406 76.9999 9.50656 74.4999C12.0066 70.4999 11.0822 51.3584 10.0068 50.9999L12.5068 35.4999C12.8577 34.1664 16.0068 35.1784 18.0068 32.4999Z" fill="#FACCBA"/>
<path d="M9.50746 36L13.0057 35C12.1723 38.5 11.4075 46.6 15.0075 49C19.5075 52 30.0075 51 30.5075 48.5C31.0075 46 31.0075 35 31.0075 35C31.0075 35.9999 34.5074 35.5 35.0075 36C34.5075 38.5 33.6455 50.6514 34.5057 51.5C34.5057 52 35.0057 53 35.0057 54.5C35.0057 56 34.8845 56.0792 34.5057 57C34.2154 57.7057 34.0057 58 33.6455 58.5C33.1161 62.8698 33.059 67.8445 34.5075 70.5C29.8408 72.6667 18.5075 75.8 10.5075 71C10.8293 67.996 11.234 62.7269 11.1615 58.5C11.0057 58.5 10.5057 58 10.0057 57C9.50559 56 9.34048 54.3236 9.50553 54C9.50553 53 9.75578 52 10.0057 51.5C10.7126 50.0858 9.34079 40.3333 9.50746 36Z" fill="#EA6C90"/>
<path d="M13.0905 17.4756C17.6384 14.6121 18.9859 10.738 18.9859 9.26416C21.5125 12.8014 26.706 15.721 29.0922 16.6334C30.566 15.1595 31.689 15.7912 31.8293 16.4228C32.6715 20.4653 29.6537 21.476 28.0395 21.476C27.3376 23.8622 24.8391 28.382 20.4597 27.3713C14.9854 26.108 14.9854 21.2654 14.7749 21.476C14.6065 21.6444 14.0029 21.5462 13.7222 21.476C10.7745 21.0549 10.5639 17.8967 11.1956 17.265C11.7009 16.7597 12.6694 17.1948 13.0905 17.4756Z" fill="#FACCBA"/>
<path d="M6.00564 102.5C4.50564 96.5 7.50564 81.5 8.50564 80C14.9057 84 29.839 82 36.5056 80.5C39.7056 83.3 39.5056 97 39.0056 103.5C35.8056 106.7 27.0056 104.833 23.0056 103.5C23.1723 102.5 23.4056 100 23.0056 98C22.6056 96 22.1723 97.5 22.0056 98.5V103.5L20.5056 104.5C16.5056 107 7.50562 104 6.00564 102.5Z" fill="#89C5CC"/>
<path d="M12.5056 59C14.1186 59.5 17.9106 60.2 20.175 59C18.9519 60.6667 15.7056 63 12.5056 59Z" fill="#C04367"/>
<path d="M25.0056 59C26.6186 59.5 30.4106 60.2 32.675 59C31.4519 60.6667 28.2056 63 25.0056 59Z" fill="#C04367"/>
<path d="M21.879 97.0544C21.879 97.0544 18.8317 88.7354 17.9098 88.6183C16.988 88.5012 15.9673 88.95 15.9673 88.95L21.879 97.0544Z" fill="#69A1AC"/>
<path d="M22.4787 97.214C22.4787 97.214 25.3557 88.7933 26.2789 88.6555C27.202 88.5176 28.2368 88.9459 28.2368 88.9459L22.4787 97.214Z" fill="#69A1AC"/>
</svg>
