<svg width="203" height="187" viewBox="0 0 203 187" fill="none" xmlns="http://www.w3.org/2000/svg">
<g filter="url(#filter0_dddddd_204_1345)">
<path d="M97.9997 50C111.807 50 122.999 38.8071 122.999 25C122.999 11.1929 111.807 0 97.9997 0C84.1928 0 73 11.1929 73 25C73 38.8071 84.1928 50 97.9997 50Z" fill="#F8E1E1"/>
</g>
<mask id="mask0_204_1345" style="mask-type:alpha" maskUnits="userSpaceOnUse" x="73" y="0" width="50" height="50">
<path d="M97.9997 50C111.807 50 122.999 38.8071 122.999 25C122.999 11.1929 111.807 -3.05176e-05 97.9997 -3.05176e-05C84.1928 -3.05176e-05 73 11.1929 73 25C73 38.8071 84.1928 50 97.9997 50Z" fill="#F8E1E1"/>
</mask>
<g mask="url(#mask0_204_1345)">
<path opacity="0.5" d="M121.51 24.3191C121.468 24.2764 121.382 24.1911 121.34 24.1484C121.297 24.1058 121.254 24.0631 121.169 23.9778L121.126 23.9351C121.084 23.8924 121.084 23.8924 121.041 23.8498L120.998 23.8071C120.956 23.7645 120.956 23.7645 120.913 23.7218L120.87 23.6791C120.828 23.6365 120.785 23.5938 120.742 23.5511L120.7 23.5085C120.657 23.4658 120.657 23.4658 120.614 23.4232L120.572 23.3805C120.529 23.3378 120.529 23.3378 120.486 23.2952L120.444 23.2525C120.401 23.2099 120.401 23.2098 120.358 23.1672L120.316 23.1245C120.273 23.0819 120.273 23.0819 120.23 23.0392L120.188 22.9965C120.145 22.9539 120.145 22.9539 120.102 22.9112L120.06 22.8686C120.017 22.8259 120.017 22.8259 119.974 22.7832L119.932 22.7406C119.889 22.6979 119.889 22.6979 119.846 22.6552L119.804 22.6126C119.761 22.5699 119.761 22.5699 119.718 22.5273L119.676 22.4846C119.633 22.4419 119.633 22.4419 119.59 22.3993L119.548 22.3566C119.505 22.3139 119.505 22.3139 119.462 22.2713L119.42 22.2286C119.377 22.186 119.377 22.186 119.334 22.1433L119.292 22.1006C119.249 22.058 119.249 22.058 119.206 22.0153L119.164 21.9726C119.121 21.93 119.121 21.93 119.078 21.8873L119.036 21.8447C118.993 21.802 118.993 21.802 118.95 21.7593L118.908 21.7167C118.865 21.674 118.865 21.674 118.822 21.6314L118.78 21.5887C118.737 21.546 118.737 21.546 118.695 21.5034L118.652 21.4607C118.609 21.418 118.609 21.418 118.567 21.3754L118.524 21.3327C118.481 21.2901 118.481 21.2901 118.439 21.2474L118.396 21.2047C118.353 21.1621 118.353 21.1621 118.311 21.1194L118.268 21.0767C118.225 21.0341 118.225 21.0341 118.183 20.9914L118.14 20.9488C118.097 20.9061 118.097 20.9061 118.055 20.8634L118.012 20.8208C117.969 20.7781 117.969 20.7781 117.927 20.7354L117.884 20.6928C117.841 20.6501 117.841 20.6501 117.799 20.6075L117.756 20.5648C117.713 20.5221 117.713 20.5221 117.671 20.4795L117.628 20.4368C117.585 20.3941 117.585 20.3941 117.543 20.3515L117.5 20.3088C117.457 20.2662 117.457 20.2662 117.415 20.2235L117.372 20.1808C117.329 20.1382 117.329 20.1382 117.287 20.0955L117.244 20.0529C117.201 20.0102 117.201 20.0102 117.159 19.9675L117.116 19.9249C117.073 19.8822 117.073 19.8822 117.031 19.8395L116.988 19.7969C116.945 19.7542 116.945 19.7542 116.903 19.7116L116.86 19.6689C116.817 19.6262 116.817 19.6262 116.775 19.5836L116.732 19.5409C116.689 19.4982 116.689 19.4982 116.647 19.4556L116.604 19.4129C116.561 19.3703 116.561 19.3703 116.519 19.3276L116.476 19.2849C116.433 19.2423 116.433 19.2423 116.391 19.1996L116.348 19.1569C116.305 19.1143 116.305 19.1143 116.263 19.0716L116.22 19.029C116.177 18.9863 116.177 18.9863 116.135 18.9436L116.092 18.901C116.049 18.8583 116.049 18.8583 116.007 18.8157L115.964 18.773C115.922 18.7303 115.922 18.7303 115.879 18.6877L115.836 18.645C115.794 18.6023 115.794 18.6023 115.751 18.5597L115.708 18.517C115.666 18.4744 115.666 18.4744 115.623 18.4317L115.58 18.389C115.538 18.3464 115.538 18.3464 115.495 18.3037L115.452 18.261C115.41 18.2184 115.41 18.2184 115.367 18.1757L115.324 18.1331C115.282 18.0904 115.282 18.0904 115.239 18.0477L115.196 18.0051C115.154 17.9624 115.154 17.9624 115.111 17.9197L115.068 17.8771C115.026 17.8344 115.026 17.8344 114.983 17.7918L114.94 17.7491C114.898 17.7064 114.898 17.7064 114.855 17.6638L114.812 17.6211C114.77 17.5784 114.77 17.5785 114.727 17.5358L114.684 17.4931C114.642 17.4505 114.642 17.4505 114.599 17.4078L114.556 17.3651C114.514 17.3225 114.514 17.3225 114.471 17.2798L114.428 17.2372C114.386 17.1945 114.386 17.1945 114.343 17.1518L114.3 17.1092C114.258 17.0665 114.258 17.0665 114.215 17.0238L114.172 16.9812C114.13 16.9385 114.13 16.9385 114.087 16.8959L114.044 16.8532C114.002 16.8105 114.002 16.8105 113.959 16.7679L113.916 16.7252C113.874 16.6825 113.874 16.6825 113.831 16.6399L113.788 16.5972C113.746 16.5546 113.746 16.5546 113.703 16.5119L113.66 16.4692C113.618 16.4266 113.618 16.4266 113.575 16.3839L113.532 16.3412C113.49 16.2986 113.49 16.2986 113.447 16.2559L113.404 16.2133C113.362 16.1706 113.362 16.1706 113.319 16.1279L113.276 16.0853C113.234 16.0426 113.191 16 113.148 15.9573L113.106 15.9146C113.063 15.872 113.063 15.872 113.021 15.8293C112.978 15.7866 112.978 15.7866 112.935 15.744C112.893 15.7013 112.893 15.7013 112.85 15.6587C112.807 15.616 112.765 15.5733 112.679 15.488L112.637 15.4453C112.594 15.4027 112.594 15.4027 112.551 15.36L112.509 15.3174C112.466 15.2747 112.466 15.2747 112.423 15.232L112.381 15.1894C112.338 15.1467 112.338 15.1467 112.295 15.104C112.253 15.0614 112.21 15.0187 112.125 14.9334L112.082 14.8907C112.039 14.8481 112.039 14.8481 111.997 14.8054L111.954 14.7628C111.911 14.7201 111.911 14.7201 111.869 14.6774L111.826 14.6348C111.783 14.5921 111.783 14.5921 111.741 14.5494L111.698 14.5068C111.655 14.4641 111.655 14.4641 111.613 14.4215L111.57 14.3788C111.527 14.3361 111.527 14.3361 111.485 14.2935L111.442 14.2508C111.399 14.2081 111.399 14.2081 111.357 14.1655L111.314 14.1228C111.271 14.0802 111.271 14.0802 111.229 14.0375L111.186 13.9948C111.143 13.9522 111.143 13.9522 111.101 13.9095L111.058 13.8668C111.015 13.8242 111.015 13.8242 110.973 13.7815L110.93 13.7389C110.887 13.6962 110.887 13.6962 110.845 13.6535L110.802 13.6109C110.759 13.5682 110.759 13.5682 110.717 13.5255L110.674 13.4829C110.631 13.4402 110.631 13.4402 110.589 13.3976L110.546 13.3549C110.503 13.3122 110.503 13.3122 110.461 13.2696L110.418 13.2269C110.375 13.1843 110.376 13.1843 110.333 13.1416L110.29 13.0989C110.248 13.0563 110.248 13.0563 110.205 13.0136L110.162 12.9709C110.12 12.9283 110.12 12.9283 110.077 12.8856L110.034 12.843C109.992 12.8003 109.992 12.8003 109.949 12.7576L109.906 12.715C109.864 12.6723 109.864 12.6723 109.821 12.6296L109.778 12.587C109.736 12.5443 109.736 12.5443 109.693 12.5017L109.65 12.459C109.608 12.4163 109.608 12.4163 109.565 12.3737L109.522 12.331C109.48 12.2883 109.48 12.2883 109.437 12.2457L109.394 12.203C109.352 12.1604 109.352 12.1604 109.309 12.1177L109.266 12.075C109.224 12.0324 109.224 12.0324 109.181 11.9897L109.138 11.9471C109.096 11.9044 109.096 11.9044 109.053 11.8617L109.01 11.8191C108.968 11.7764 108.968 11.7764 108.925 11.7337L108.882 11.6911C108.84 11.6484 108.84 11.6484 108.797 11.6058L108.754 11.5631C108.712 11.5204 108.712 11.5204 108.669 11.4778L108.626 11.4351C108.584 11.3924 108.584 11.3924 108.541 11.3498L108.498 11.3071C108.456 11.2645 108.456 11.2645 108.413 11.2218L108.37 11.1791C108.328 11.1365 108.328 11.1365 108.285 11.0938L108.242 11.0511C108.2 11.0085 108.157 10.9658 108.114 10.9232L108.072 10.8805C108.029 10.8378 107.944 10.7525 107.901 10.7099C107.432 10.5819 107.005 10.5819 106.664 10.9658C105.981 11.6911 105.256 12.3737 104.574 13.0563C104.488 13.0563 104.446 13.0563 104.36 13.0563C103.848 12.9283 103.336 12.7576 102.782 12.6296C102.739 12.587 102.696 12.5443 102.611 12.459C102.568 12.3737 102.483 12.331 102.44 12.2883C102.398 12.203 102.312 12.1604 102.27 12.1177C102.227 12.0324 102.142 11.9897 102.099 11.9471C102.056 11.8617 101.971 11.8191 101.928 11.7764C101.886 11.6911 101.801 11.6484 101.758 11.6058C101.715 11.5204 101.63 11.4778 101.587 11.4351C101.545 11.3498 101.459 11.3071 101.417 11.2645C101.374 11.1791 101.289 11.1365 101.246 11.0938C101.203 11.0085 101.118 10.9658 101.075 10.9232C101.033 10.8378 100.947 10.7952 100.905 10.7525C100.862 10.6672 100.777 10.6245 100.734 10.5819C100.691 10.4965 100.606 10.4539 100.563 10.4112C100.521 10.3259 100.435 10.2832 100.393 10.2406C100.35 10.1552 100.265 10.1126 100.222 10.0699C100.179 9.98459 100.094 9.94193 100.051 9.89927C100.009 9.81395 99.9234 9.77128 99.8807 9.72862C99.8381 9.6433 99.7528 9.60063 99.7101 9.55797C99.6674 9.47265 99.5821 9.42999 99.5394 9.38733C99.4968 9.302 99.4115 9.25934 99.3688 9.21668C99.3261 9.13135 99.2408 9.08869 99.1982 9.04603C99.1555 8.9607 99.0702 8.91804 99.0275 8.87538C98.9849 8.79005 98.8995 8.74739 98.8569 8.70473C98.8142 8.6194 98.7289 8.57675 98.6862 8.53408C98.6436 8.44876 98.5582 8.4061 98.5156 8.36343C98.4729 8.27811 98.3876 8.23545 98.3449 8.19278C98.3023 8.10746 98.2169 8.0648 98.1743 8.02214C98.1316 7.93681 98.0463 7.89415 98.0036 7.85149C97.961 7.76616 97.8756 7.7235 97.833 7.68084C97.7903 7.59552 97.705 7.55285 97.6623 7.51019C97.4064 7.21156 97.0224 7.08357 96.6385 7.16889C96.1265 7.29688 95.7852 7.80883 95.9559 8.36343C96.2545 9.60064 96.5958 10.7952 96.9371 12.0324C95.4439 13.5255 93.9081 15.0614 92.415 16.5546C92.0737 16.8532 91.9883 17.2372 92.1163 17.6638C92.287 18.261 92.415 18.8157 92.5856 19.4129C92.9696 20.9061 93.3535 22.3566 93.7375 23.8498C93.7801 23.9351 93.8228 24.0204 93.8228 24.1058C93.7801 24.0204 93.7375 23.9351 93.7375 23.8498C92.3296 25.2576 90.9645 26.6228 89.5566 28.0307C87.8928 27.5614 86.1864 27.1348 84.5226 26.6655C83.8826 26.4948 83.3707 26.7935 83.2001 27.3481C83.0721 27.732 83.2 28.116 83.5413 28.372C83.584 28.4146 83.6267 28.5 83.712 28.5426C83.7546 28.5853 83.7973 28.6706 83.8826 28.7133C83.9253 28.7559 83.968 28.8412 84.0533 28.8839C84.0959 28.9266 84.1386 29.0119 84.2239 29.0546C84.2666 29.0972 84.3092 29.1825 84.3946 29.2252C84.4372 29.2679 84.4799 29.3532 84.5652 29.3959C84.6079 29.4385 84.6505 29.5238 84.7359 29.5665C84.7785 29.6092 84.8212 29.6945 84.9065 29.7372C84.9492 29.7798 84.9918 29.8651 85.0772 29.9078C85.1198 29.9505 85.1625 30.0358 85.2478 30.0785C85.2905 30.1211 85.3331 30.2064 85.4184 30.2491C85.4611 30.2918 85.5038 30.3771 85.5891 30.4197C85.6318 30.4624 85.6744 30.5477 85.7597 30.5904C85.8024 30.6331 85.8451 30.7184 85.9304 30.761C85.9731 30.8037 86.0157 30.889 86.101 30.9317C86.1437 30.9744 86.1864 31.0597 86.2717 31.1023C86.3143 31.145 86.357 31.2303 86.4423 31.273C86.485 31.3157 86.5277 31.401 86.613 31.4436C86.6556 31.4863 86.6983 31.5716 86.7836 31.6143C86.8263 31.6569 86.8689 31.7423 86.9543 31.7849C86.9969 31.8276 87.0396 31.9129 87.1249 31.9556C87.1676 31.9982 87.2102 32.0836 87.2956 32.1262C87.3382 32.1689 87.3809 32.2542 87.4662 32.2969C87.5089 32.3395 87.5515 32.4249 87.6369 32.4675C87.6795 32.5102 87.7222 32.5955 87.8075 32.6382C87.8502 32.6808 87.8928 32.7662 87.9781 32.8088C88.0208 32.8515 88.0635 32.9368 88.1488 32.9795C88.1915 33.0221 88.2341 33.1075 88.3194 33.1501C88.3621 33.1928 88.4048 33.2781 88.4901 33.3208C88.5328 33.3634 88.5754 33.4488 88.6607 33.4914C88.7034 33.5341 88.7461 33.6194 88.8314 33.6621C88.874 33.7047 88.9167 33.7901 89.002 33.8327C89.0447 33.8754 89.0874 33.9607 89.1727 34.0034C89.2153 34.046 89.258 34.1313 89.3433 34.174C89.386 34.2167 89.4286 34.302 89.514 34.3447C89.5566 34.3873 89.5993 34.4726 89.6846 34.5153C89.7273 34.558 89.7699 34.6433 89.8553 34.686C89.8979 34.7286 89.9406 34.8139 90.0259 34.8566C90.0686 34.8993 90.1112 34.9846 90.1966 35.0273C90.2392 35.0699 90.2819 35.1552 90.3672 35.1979C90.4099 35.2406 90.4099 35.2832 90.4525 35.3259C90.4952 35.4539 90.5378 35.5819 90.5378 35.7098C89.8553 36.3924 89.13 37.075 88.4474 37.8003C88.0208 38.2269 88.0635 38.8242 88.4474 39.2081C88.4901 39.2508 88.4901 39.2508 88.5328 39.2935C88.5754 39.3361 88.5754 39.3361 88.6181 39.3788C88.6607 39.4215 88.6607 39.4215 88.7034 39.4641C88.7461 39.5068 88.7461 39.5068 88.7887 39.5494C88.8314 39.5921 88.8314 39.5921 88.874 39.6348C88.9167 39.6774 88.9167 39.6774 88.9594 39.7201C89.002 39.7627 89.002 39.7627 89.0447 39.8054C89.0873 39.8481 89.0874 39.8481 89.13 39.8907C89.1727 39.9334 89.1727 39.9334 89.2153 39.9761C89.258 40.0187 89.258 40.0187 89.3007 40.0614C89.3433 40.104 89.3433 40.104 89.386 40.1467C89.4286 40.1894 89.4286 40.1894 89.4713 40.232C89.514 40.2747 89.514 40.2747 89.5566 40.3174C89.5993 40.36 89.5993 40.36 89.642 40.4027C89.6846 40.4453 89.6846 40.4453 89.7273 40.488C89.7699 40.5307 89.7699 40.5307 89.8126 40.5733C89.8553 40.616 89.8553 40.616 89.8979 40.6587C89.9406 40.7013 89.9406 40.7013 89.9832 40.744C90.0259 40.7866 90.0259 40.7866 90.0686 40.8293C90.1112 40.872 90.1112 40.872 90.1539 40.9146C90.1966 40.9573 90.1966 40.9573 90.2392 40.9999C90.2819 41.0426 90.2819 41.0426 90.3245 41.0853C90.3672 41.1279 90.3672 41.1279 90.4099 41.1706C90.4525 41.2133 90.4525 41.2133 90.4952 41.2559C90.5379 41.2986 90.5378 41.2986 90.5805 41.3412C90.6232 41.3839 90.6232 41.3839 90.6658 41.4266C90.7085 41.4692 90.7085 41.4692 90.7511 41.5119C90.7938 41.5546 90.7938 41.5546 90.8365 41.5972C90.8791 41.6399 90.8791 41.6399 90.9218 41.6825C90.9645 41.7252 90.9645 41.7252 91.0071 41.7679C91.0498 41.8105 91.0498 41.8105 91.0924 41.8532C91.1351 41.8959 91.1351 41.8959 91.1778 41.9385C91.2204 41.9812 91.2204 41.9812 91.2631 42.0238C91.3058 42.0665 91.3058 42.0665 91.3484 42.1092C91.3911 42.1518 91.3911 42.1518 91.4337 42.1945C91.4764 42.2371 91.4764 42.2371 91.5191 42.2798C91.5617 42.3225 91.5617 42.3225 91.6044 42.3651C91.647 42.4078 91.647 42.4078 91.6897 42.4505C91.7324 42.4931 91.7324 42.4931 91.775 42.5358C91.8177 42.5784 91.8177 42.5784 91.8604 42.6211C91.903 42.6638 91.903 42.6638 91.9457 42.7064C91.9883 42.7491 91.9883 42.7491 92.031 42.7918C92.0737 42.8344 92.0737 42.8344 92.1163 42.8771C92.159 42.9197 92.159 42.9197 92.2017 42.9624C92.2443 43.0051 92.2443 43.0051 92.287 43.0477C92.3296 43.0904 92.3296 43.0904 92.3723 43.1331C92.415 43.1757 92.415 43.1757 92.4576 43.2184C92.5003 43.261 92.5003 43.261 92.5429 43.3037C92.5856 43.3464 92.5856 43.3464 92.6283 43.389C92.6709 43.4317 92.6709 43.4317 92.7136 43.4743C92.7562 43.517 92.7563 43.517 92.7989 43.5597C92.8416 43.6023 92.8416 43.6023 92.8842 43.645C92.9269 43.6877 92.9269 43.6877 92.9696 43.7303C93.0122 43.773 93.0122 43.773 93.0549 43.8156C93.0975 43.8583 93.0975 43.8583 93.1402 43.901C93.1829 43.9436 93.1829 43.9436 93.2255 43.9863C93.2682 44.029 93.2682 44.029 93.3108 44.0716C93.3535 44.1143 93.3535 44.1143 93.3962 44.1569C93.4388 44.1996 93.4388 44.1996 93.4815 44.2423C93.5242 44.2849 93.5242 44.2849 93.5668 44.3276C93.6095 44.3703 93.6095 44.3703 93.6521 44.4129C93.6948 44.4556 93.6948 44.4556 93.7375 44.4982C93.7801 44.5409 93.7801 44.5409 93.8228 44.5836C93.8655 44.6262 93.8655 44.6262 93.9081 44.6689C93.9508 44.7116 93.9508 44.7116 93.9934 44.7542C94.0361 44.7969 94.0361 44.7969 94.0788 44.8395C94.1214 44.8822 94.1214 44.8822 94.1641 44.9249C94.2067 44.9675 94.2067 44.9675 94.2494 45.0102C94.2921 45.0529 94.2921 45.0528 94.3347 45.0955C94.3774 45.1382 94.3774 45.1382 94.4201 45.1808C94.4627 45.2235 94.4627 45.2235 94.5054 45.2662C94.548 45.3088 94.548 45.3088 94.5907 45.3515C94.6334 45.3941 94.6334 45.3941 94.676 45.4368C94.7187 45.4795 94.7187 45.4795 94.7614 45.5221C94.804 45.5648 94.804 45.5648 94.8467 45.6075C94.8893 45.6501 94.8893 45.6501 94.932 45.6928C94.9747 45.7354 94.9746 45.7354 95.0173 45.7781C95.06 45.8208 95.06 45.8208 95.1026 45.8634C95.1453 45.9061 95.1453 45.9061 95.188 45.9488C95.2306 45.9914 95.2306 45.9914 95.2733 46.0341C95.3159 46.0767 95.3159 46.0767 95.3586 46.1194C95.4013 46.1621 95.4013 46.1621 95.4439 46.2047C95.4866 46.2474 95.4866 46.2474 95.5293 46.2901C95.5719 46.3327 95.5719 46.3327 95.6146 46.3754C95.6572 46.418 95.6572 46.418 95.6999 46.4607C95.7426 46.5034 95.7426 46.5034 95.7852 46.546C95.8279 46.5887 95.8279 46.5887 95.8705 46.6314C95.9132 46.674 95.9132 46.674 95.9559 46.7167C95.9985 46.7593 95.9985 46.7593 96.0412 46.802C96.0839 46.8447 96.0839 46.8447 96.1265 46.8873C96.1692 46.93 96.1692 46.93 96.2118 46.9726C96.2545 47.0153 96.2545 47.0153 96.2972 47.058C96.3398 47.1006 96.3398 47.1006 96.3825 47.1433C96.4251 47.186 96.4252 47.186 96.4678 47.2286C96.5105 47.2713 96.5105 47.2713 96.5531 47.3139C96.5958 47.3566 96.5958 47.3566 96.6385 47.3993C96.6811 47.4419 96.6811 47.4419 96.7238 47.4846C96.7664 47.5273 96.7664 47.5273 96.8091 47.5699C96.8518 47.6126 96.8518 47.6126 96.8944 47.6552C96.9371 47.6979 96.9371 47.6979 96.9797 47.7406C97.0224 47.7832 97.0224 47.7832 97.0651 47.8259C97.1077 47.8685 97.1077 47.8686 97.1504 47.9112C97.1931 47.9539 97.1931 47.9539 97.2357 47.9965C97.2784 48.0392 97.2784 48.0392 97.321 48.0819C97.3637 48.1245 97.3637 48.1245 97.4064 48.1672C97.449 48.2098 97.449 48.2098 97.4917 48.2525C97.5344 48.2952 97.5343 48.2952 97.577 48.3378C97.6197 48.3805 97.6197 48.3805 97.6623 48.4232C97.705 48.4658 97.705 48.4658 97.7477 48.5085C97.7903 48.5511 97.7903 48.5511 97.833 48.5938C97.8756 48.6365 97.8756 48.6365 97.9183 48.6791C97.961 48.7218 97.961 48.7218 98.0036 48.7645C98.0463 48.8071 98.0463 48.8071 98.089 48.8498C98.1316 48.8924 98.1316 48.8924 98.1743 48.9351C98.2169 48.9778 98.2169 48.9778 98.2596 49.0204C98.3023 49.0631 98.3023 49.0631 98.3449 49.1057C98.3876 49.1484 98.3876 49.1484 98.4302 49.1911C98.4729 49.2337 98.4729 49.2337 98.5156 49.2764C98.5582 49.3191 98.5582 49.3191 98.6009 49.3617C98.6436 49.4044 98.6436 49.4044 98.6862 49.447C98.7289 49.4897 98.7289 49.4897 98.7715 49.5324C98.8142 49.575 98.8142 49.575 98.8569 49.6177C98.8995 49.6604 98.8995 49.6604 98.9422 49.703C98.9848 49.7457 98.9849 49.7457 99.0275 49.7883C99.0702 49.831 99.0702 49.831 99.1128 49.8737C99.1555 49.9163 99.1555 49.9163 99.1982 49.959C99.2408 50.0017 99.2408 50.0017 99.2835 50.0443C99.3261 50.087 99.3261 50.087 99.3688 50.1296C99.4115 50.1723 99.4115 50.1723 99.4541 50.215C99.4968 50.2576 99.4968 50.2576 99.5394 50.3003C99.5821 50.3429 99.5821 50.3429 99.6248 50.3856C99.6674 50.4283 99.6674 50.4283 99.7101 50.4709C99.7528 50.5136 99.7528 50.5136 99.7954 50.5563C99.8381 50.5989 99.8381 50.5989 99.8807 50.6416C99.9234 50.6842 99.9234 50.6842 99.9661 50.7269C100.009 50.7696 100.009 50.7696 100.051 50.8122C100.094 50.8549 100.094 50.8549 100.137 50.8976C100.179 50.9402 100.179 50.9402 100.222 50.9829C100.265 51.0255 100.265 51.0255 100.307 51.0682C100.35 51.1109 100.35 51.1109 100.393 51.1535C100.435 51.1962 100.435 51.1962 100.478 51.2389C100.521 51.2815 100.521 51.2815 100.563 51.3242C100.606 51.3668 100.606 51.3668 100.649 51.4095C100.691 51.4522 100.691 51.4522 100.734 51.4948C100.777 51.5375 100.777 51.5375 100.819 51.5802C100.862 51.6228 100.862 51.6228 100.905 51.6655C100.947 51.7081 100.947 51.7081 100.99 51.7508C101.033 51.7935 101.033 51.7935 101.075 51.8361C101.118 51.8788 101.118 51.8788 101.161 51.9215C101.203 51.9641 101.203 51.9641 101.246 52.0068C101.289 52.0494 101.289 52.0494 101.331 52.0921C101.374 52.1348 101.374 52.1348 101.417 52.1774C101.459 52.2201 101.459 52.2201 101.502 52.2627C101.545 52.3054 101.545 52.3054 101.587 52.3481C101.63 52.3907 101.63 52.3907 101.673 52.4334C101.715 52.4761 101.715 52.4761 101.758 52.5187C101.801 52.5614 101.801 52.5614 101.843 52.604C101.886 52.6467 101.886 52.6467 101.928 52.6894C101.971 52.732 101.971 52.732 102.014 52.7747C102.056 52.8174 102.056 52.8174 102.099 52.86C102.142 52.9027 102.142 52.9027 102.184 52.9453C102.227 52.988 102.227 52.988 102.27 53.0307C102.312 53.0733 102.312 53.0733 102.355 53.116C102.398 53.1587 102.398 53.1587 102.44 53.2013C102.483 53.244 102.483 53.244 102.526 53.2866C102.568 53.3293 102.568 53.3293 102.611 53.372C102.654 53.4146 102.654 53.4146 102.696 53.4573C102.739 53.5 102.739 53.5 102.782 53.5426C102.824 53.5853 102.824 53.5853 102.867 53.6279C102.91 53.6706 102.91 53.6706 102.952 53.7133C102.995 53.7559 102.995 53.7559 103.038 53.7986C103.08 53.8412 103.08 53.8412 103.123 53.8839C103.166 53.9266 103.166 53.9266 103.208 53.9692C103.251 54.0119 103.251 54.0119 103.294 54.0546C103.336 54.0972 103.336 54.0972 103.379 54.1399C103.422 54.1825 103.422 54.1825 103.464 54.2252C103.507 54.2679 103.507 54.2679 103.55 54.3105C103.592 54.3532 103.592 54.3532 103.635 54.3959C103.678 54.4385 103.678 54.4385 103.72 54.4812C103.763 54.5238 103.763 54.5238 103.806 54.5665C103.848 54.6092 103.848 54.6092 103.891 54.6518C103.934 54.6945 103.934 54.6945 103.976 54.7372C104.019 54.7798 104.019 54.7798 104.062 54.8225C104.104 54.8651 104.104 54.8651 104.147 54.9078C104.19 54.9505 104.19 54.9505 104.232 54.9931C104.275 55.0358 104.275 55.0358 104.318 55.0784C104.36 55.1211 104.36 55.1211 104.403 55.1638C104.446 55.2064 104.446 55.2064 104.488 55.2491C104.531 55.2918 104.531 55.2918 104.574 55.3344C104.616 55.3771 104.616 55.3771 104.659 55.4197C104.701 55.4624 104.702 55.4624 104.744 55.5051C104.787 55.5477 104.787 55.5477 104.829 55.5904C104.872 55.6331 104.872 55.6331 104.915 55.6757C104.957 55.7184 104.957 55.7184 105 55.761C105.043 55.8037 105.043 55.8037 105.085 55.8464C105.128 55.889 105.128 55.889 105.171 55.9317C105.213 55.9743 105.213 55.9744 105.256 56.017C105.299 56.0597 105.299 56.0597 105.341 56.1023C105.384 56.145 105.384 56.145 105.427 56.1877C105.469 56.2303 105.469 56.2303 105.512 56.273C105.555 56.3156 105.555 56.3156 105.597 56.3583C105.64 56.401 105.64 56.401 105.683 56.4436C106.067 56.8276 106.664 56.8276 107.091 56.401C107.773 55.7184 108.456 54.9931 109.181 54.3105C109.266 54.3105 109.352 54.3532 109.437 54.3532C109.906 54.4812 110.418 54.6092 110.887 54.7372C110.93 54.7798 110.93 54.7798 110.973 54.8225C111.015 54.9078 111.101 54.9505 111.143 54.9931C111.186 55.0784 111.271 55.1211 111.314 55.1638C111.357 55.2491 111.442 55.2918 111.485 55.3344C111.527 55.4197 111.613 55.4624 111.655 55.5051C111.698 55.5904 111.783 55.6331 111.826 55.6757C111.869 55.761 111.954 55.8037 111.997 55.8464C112.039 55.9317 112.125 55.9744 112.167 56.017C112.21 56.1023 112.295 56.145 112.338 56.1877C112.381 56.273 112.466 56.3156 112.509 56.3583C112.551 56.4436 112.637 56.4863 112.679 56.529C112.722 56.6143 112.807 56.6569 112.85 56.6996C112.893 56.7849 112.978 56.8276 113.021 56.8703C113.063 56.9556 113.148 56.9982 113.191 57.0409C113.234 57.1262 113.319 57.1689 113.362 57.2115C113.404 57.2969 113.49 57.3395 113.532 57.3822C113.575 57.4675 113.66 57.5102 113.703 57.5528C113.746 57.6382 113.831 57.6808 113.874 57.7235C113.916 57.8088 114.002 57.8515 114.044 57.8941C114.087 57.9795 114.172 58.0221 114.215 58.0648C114.258 58.1501 114.343 58.1928 114.386 58.2354C114.428 58.3208 114.514 58.3634 114.556 58.4061C114.599 58.4914 114.684 58.5341 114.727 58.5767C114.77 58.6621 114.855 58.7047 114.898 58.7474C114.94 58.8327 115.026 58.8754 115.068 58.918C115.111 59.0034 115.196 59.046 115.239 59.0887C115.282 59.174 115.367 59.2167 115.41 59.2593C115.452 59.3447 115.538 59.3873 115.58 59.43C115.623 59.5153 115.708 59.558 115.751 59.6006C115.794 59.686 115.879 59.7286 115.922 59.7713C115.964 59.8566 116.049 59.8993 116.092 59.9419C116.348 60.2406 116.732 60.3686 117.116 60.2832C117.671 60.1552 117.969 59.6006 117.799 59.046C117.5 57.8515 117.159 56.6143 116.817 55.4197C116.903 55.2918 116.945 55.1638 117.031 55.0784C118.439 53.6706 119.846 52.2627 121.254 50.8549C121.595 50.5136 121.723 50.1296 121.596 49.6604C121.553 49.5324 121.51 49.4044 121.51 49.2764C120.998 47.3566 120.486 45.4795 119.974 43.5597C120.06 43.4743 120.145 43.389 120.23 43.3037C121.595 41.9385 122.961 40.5307 124.369 39.1655C124.795 38.7389 124.923 38.3122 124.752 37.715C124.241 35.8378 123.729 33.9607 123.217 32.0836C123.174 31.9556 123.174 31.7849 123.174 31.6569C123.814 31.017 124.411 30.3771 125.094 29.7798C121.553 25.343 121.723 24.9163 121.51 24.3191Z" fill="#FFA5A9"/>
</g>
<path d="M104.143 12.9266C104.826 12.244 105.551 11.5188 106.233 10.8362C106.617 10.4522 107.001 10.4522 107.471 10.5802C107.556 10.6655 107.641 10.7509 107.684 10.7935C106.831 11.6468 105.978 12.5 105.124 13.3532L105.082 13.3106C104.783 13.1826 104.442 13.0546 104.143 12.9266Z" fill="#EA4E7B"/>
<path d="M105.124 13.3532C105.978 12.5 106.831 11.6468 107.684 10.7935C107.727 10.8362 107.812 10.9215 107.855 10.9642C108.068 11.5188 107.897 11.9881 107.428 12.4147C106.788 13.0119 106.148 13.6519 105.508 14.2918C105.466 14.1638 105.423 14.0785 105.38 13.9505C105.338 13.7372 105.21 13.5666 105.124 13.3532Z" fill="#C73B5D"/>
<path d="M90.15 35.5376C89.9794 34.8123 89.8087 34.1297 89.5954 33.4044C89.2968 32.2526 88.9981 31.1434 88.6995 29.9915C88.6569 29.9062 88.6142 29.8208 88.5715 29.7782L88.6142 29.7355C88.6995 29.6502 88.8275 29.6075 88.9128 29.5222C90.4913 27.9437 92.1124 26.3225 93.6909 24.744C94.0322 24.872 94.3308 25.0427 94.6721 25.1707C93.3496 26.4932 92.0698 27.773 90.7473 29.0956C90.6193 29.2236 90.534 29.3515 90.5766 29.5649C91.0459 31.314 91.5152 33.0631 91.9845 34.8123C92.0271 34.8976 92.1124 35.0256 92.2404 35.0683C93.9896 35.5375 95.7387 36.0068 97.4878 36.4761C97.6158 36.5188 97.8291 36.4335 97.9144 36.3481C99.1943 35.1109 100.431 33.8311 101.711 32.5512C101.839 32.4232 101.882 32.2952 101.839 32.0819C101.711 31.698 101.626 31.2713 101.498 30.8874C101.114 29.4795 100.773 28.1143 100.389 26.7065C100.431 26.7065 100.517 26.7065 100.559 26.7492C101.199 27.0051 101.711 26.8345 102.138 26.3225C102.181 26.2799 102.223 26.2372 102.266 26.1945C102.778 28.1143 103.29 29.9915 103.802 31.9113C103.844 32.0393 103.887 32.1672 103.887 32.2952C104.015 32.7645 103.887 33.1485 103.546 33.4898C102.138 34.8976 100.73 36.3055 99.3222 37.7133C99.2369 37.7986 99.1516 37.9266 99.1089 38.0546C99.0236 38.0973 98.8956 38.1399 98.853 38.2253C98.469 38.6092 98.0424 38.7372 97.5305 38.5666C97.4451 38.5239 97.3172 38.5239 97.2318 38.5239C96.8052 38.3959 96.3786 38.2253 95.952 38.1399C94.5442 37.756 93.1363 37.372 91.7285 36.9881C91.6432 36.9454 91.5578 36.9454 91.4725 36.9454C91.3445 36.9027 91.2592 36.8601 91.1312 36.8174C90.5766 36.7321 90.3207 36.3908 90.1927 35.8788C90.278 35.7935 90.1927 35.6655 90.15 35.5376Z" fill="#4A818B"/>
<path d="M94.7575 25.1707C94.4162 25.0427 94.1176 24.872 93.7763 24.744C93.7763 24.744 93.7763 24.7014 93.7336 24.7014C94.2456 24.1894 94.7575 23.6775 95.2695 23.1655C95.3548 23.2082 95.4828 23.2509 95.5681 23.2935C97.2746 23.7628 99.0237 24.2321 100.73 24.7014C100.943 24.744 101.029 24.744 101.199 24.5734C102.437 23.2935 103.716 22.0563 104.996 20.7765C105.167 20.6058 105.167 20.4778 105.124 20.2645C104.655 18.558 104.186 16.8515 103.759 15.1451C103.716 15.0597 103.674 14.9318 103.631 14.8464C104.143 14.3345 104.655 13.8225 105.167 13.3106L105.21 13.3533C105.295 13.5666 105.423 13.7372 105.508 13.9505C105.551 14.0358 105.594 14.1638 105.636 14.2918C105.636 14.4198 105.679 14.5905 105.679 14.7184C106.191 16.5956 106.66 18.4727 107.215 20.3498C107.385 20.9471 107.257 21.3737 106.831 21.8004C105.423 23.1655 104.058 24.5734 102.693 25.9386C102.607 26.0239 102.522 26.1092 102.437 26.1945C102.394 26.2372 102.309 26.2799 102.309 26.3225C101.882 26.8345 101.37 26.9625 100.73 26.7492C100.687 26.7065 100.602 26.7065 100.56 26.7065C100.261 26.6212 100.005 26.5358 99.7063 26.4505C97.9998 26.0239 96.3787 25.5973 94.7575 25.1707Z" fill="#C73B5D"/>
<path d="M105.082 13.3106C104.57 13.8225 104.058 14.3345 103.546 14.8464C103.375 14.8038 103.247 14.7611 103.077 14.7611C101.455 14.3345 99.7916 13.9079 98.1705 13.4386C97.9998 13.3959 97.8718 13.3959 97.7438 13.5239C96.464 14.8038 95.1841 16.0836 93.9043 17.3635C93.819 17.4488 93.7763 17.6195 93.819 17.7475C93.9043 18.1314 94.0323 18.5154 94.1176 18.942C94.5016 20.3498 94.8429 21.7577 95.2268 23.1655C94.7149 23.6775 94.2029 24.1894 93.691 24.7014C93.563 24.4027 93.435 24.1041 93.307 23.7628C92.9231 22.2696 92.5391 20.8191 92.1552 19.326C91.9845 18.7287 91.8565 18.1741 91.6859 17.5768C91.5579 17.1502 91.6859 16.7662 91.9845 16.4676C93.4777 14.9744 95.0135 13.4386 96.5067 11.9454C96.5493 11.9027 96.6346 11.8601 96.6773 11.7748C97.0613 11.3055 97.5305 11.1775 98.0851 11.3481C98.1705 11.3908 98.2984 11.3481 98.3838 11.3481C98.4691 11.3908 98.5544 11.4761 98.6397 11.4761C100.389 11.9454 102.138 12.4147 103.887 12.884C103.93 12.884 104.015 12.884 104.1 12.884C104.442 13.0546 104.783 13.1826 105.082 13.3106Z" fill="#EA4E7B"/>
<path d="M88.6569 29.7355L88.6142 29.7782C87.3344 29.4369 86.0972 29.0956 84.8173 28.7969C84.4334 28.7116 84.0494 28.5836 83.6228 28.4983C82.9829 28.3277 82.6416 27.8157 82.8123 27.2611C82.9829 26.7065 83.4948 26.4079 84.1348 26.5785C85.7986 27.0478 87.505 27.4744 89.1688 27.9437C88.5716 28.3703 88.3156 28.9676 88.6569 29.7355Z" fill="#4A818B"/>
<path d="M97.3599 38.5239C97.4878 38.5239 97.5732 38.5239 97.6585 38.5666C98.1704 38.7372 98.5971 38.6092 98.981 38.2253C99.0663 38.1399 99.1517 38.0973 99.237 38.0546C99.5783 39.2492 99.9196 40.4864 100.218 41.6809C100.346 42.2355 100.048 42.7901 99.5356 42.9181C99.0237 43.0461 98.4691 42.7475 98.3411 42.1928C97.9998 40.9983 97.6585 39.7611 97.3599 38.5239Z" fill="#9EC7D4"/>
<path d="M98.4265 11.3481C98.3411 11.3481 98.2132 11.3908 98.1278 11.3481C97.5732 11.1348 97.104 11.3055 96.72 11.7748C96.6773 11.8174 96.592 11.9027 96.5493 11.9454C96.2081 10.7082 95.8668 9.51366 95.5681 8.27646C95.4401 7.72185 95.7388 7.20991 96.2507 7.08192C96.8053 6.95393 97.3173 7.25257 97.4879 7.80718C97.7439 8.78841 97.9998 9.76963 98.2985 10.7509C98.3411 10.9642 98.3838 11.1348 98.4265 11.3481Z" fill="#C73B5D"/>
<path d="M90.1501 35.5376C90.1928 35.6655 90.2354 35.7509 90.2781 35.8788C90.4061 36.3908 90.662 36.7321 91.2166 36.8174C91.3446 36.8174 91.43 36.9027 91.5579 36.9454C90.8754 37.628 90.1928 38.3532 89.4675 39.0358C89.0409 39.4625 88.4436 39.4625 88.0597 39.0785C87.6757 38.6945 87.6757 38.0546 88.0597 37.6707C88.7849 36.9454 89.4675 36.2628 90.1501 35.5376Z" fill="#9EC7D4"/>
<path d="M88.657 29.7355C88.3157 28.9676 88.5717 28.413 89.169 27.901C90.5768 26.4932 91.942 25.128 93.3498 23.7202C93.4778 24.0188 93.6058 24.3174 93.7338 24.6587C93.7338 24.6587 93.7338 24.7014 93.7764 24.7014C92.1979 26.2799 90.5768 27.901 88.9983 29.4795C88.8703 29.6075 88.785 29.6502 88.657 29.7355Z" fill="#4A818B"/>
<path d="M98.725 33.3191C98.3837 33.6604 98.0424 34.0444 97.6584 34.3857C97.2318 34.7696 96.6346 34.8123 96.2506 34.4283C95.8667 34.0444 95.8667 33.4044 96.2933 32.9778C97.0185 32.2526 97.7011 31.57 98.4264 30.8447C98.853 30.4181 99.4929 30.4181 99.8769 30.8021C100.261 31.186 100.261 31.8259 99.8342 32.2526C99.4502 32.5939 99.1089 32.9352 98.725 33.3191Z" fill="#9EC7D4"/>
<path d="M101.157 15.8276C101.498 16.2116 101.541 16.6809 101.328 17.0648C101.114 17.4488 100.688 17.6195 100.261 17.5341C99.749 17.4061 99.2371 17.2782 98.7251 17.1075C98.1705 16.9369 97.9146 16.4249 98.0852 15.8703C98.2559 15.3584 98.7252 15.0597 99.2798 15.1877C99.7917 15.3157 100.261 15.4437 100.73 15.5717C100.901 15.6997 101.072 15.785 101.157 15.8276Z" fill="#EA4E7B"/>
<defs>
<filter id="filter0_dddddd_204_1345" x="-7" y="0" width="210" height="230" filterUnits="userSpaceOnUse" color-interpolation-filters="sRGB">
<feFlood flood-opacity="0" result="BackgroundImageFix"/>
<feColorMatrix in="SourceAlpha" type="matrix" values="0 0 0 0 0 0 0 0 0 0 0 0 0 0 0 0 0 0 127 0" result="hardAlpha"/>
<feOffset dy="2.76726"/>
<feGaussianBlur stdDeviation="1.1069"/>
<feColorMatrix type="matrix" values="0 0 0 0 0 0 0 0 0 0 0 0 0 0 0 0 0 0 0.0196802 0"/>
<feBlend mode="normal" in2="BackgroundImageFix" result="effect1_dropShadow_204_1345"/>
<feColorMatrix in="SourceAlpha" type="matrix" values="0 0 0 0 0 0 0 0 0 0 0 0 0 0 0 0 0 0 127 0" result="hardAlpha"/>
<feOffset dy="6.6501"/>
<feGaussianBlur stdDeviation="2.66004"/>
<feColorMatrix type="matrix" values="0 0 0 0 0 0 0 0 0 0 0 0 0 0 0 0 0 0 0.0282725 0"/>
<feBlend mode="normal" in2="effect1_dropShadow_204_1345" result="effect2_dropShadow_204_1345"/>
<feColorMatrix in="SourceAlpha" type="matrix" values="0 0 0 0 0 0 0 0 0 0 0 0 0 0 0 0 0 0 127 0" result="hardAlpha"/>
<feOffset dy="12.5216"/>
<feGaussianBlur stdDeviation="5.00862"/>
<feColorMatrix type="matrix" values="0 0 0 0 0 0 0 0 0 0 0 0 0 0 0 0 0 0 0.035 0"/>
<feBlend mode="normal" in2="effect2_dropShadow_204_1345" result="effect3_dropShadow_204_1345"/>
<feColorMatrix in="SourceAlpha" type="matrix" values="0 0 0 0 0 0 0 0 0 0 0 0 0 0 0 0 0 0 127 0" result="hardAlpha"/>
<feOffset dy="22.3363"/>
<feGaussianBlur stdDeviation="8.93452"/>
<feColorMatrix type="matrix" values="0 0 0 0 0 0 0 0 0 0 0 0 0 0 0 0 0 0 0.0417275 0"/>
<feBlend mode="normal" in2="effect3_dropShadow_204_1345" result="effect4_dropShadow_204_1345"/>
<feColorMatrix in="SourceAlpha" type="matrix" values="0 0 0 0 0 0 0 0 0 0 0 0 0 0 0 0 0 0 127 0" result="hardAlpha"/>
<feOffset dy="41.7776"/>
<feGaussianBlur stdDeviation="16.711"/>
<feColorMatrix type="matrix" values="0 0 0 0 0 0 0 0 0 0 0 0 0 0 0 0 0 0 0.0503198 0"/>
<feBlend mode="normal" in2="effect4_dropShadow_204_1345" result="effect5_dropShadow_204_1345"/>
<feColorMatrix in="SourceAlpha" type="matrix" values="0 0 0 0 0 0 0 0 0 0 0 0 0 0 0 0 0 0 127 0" result="hardAlpha"/>
<feOffset dy="100"/>
<feGaussianBlur stdDeviation="40"/>
<feColorMatrix type="matrix" values="0 0 0 0 0 0 0 0 0 0 0 0 0 0 0 0 0 0 0.07 0"/>
<feBlend mode="normal" in2="effect5_dropShadow_204_1345" result="effect6_dropShadow_204_1345"/>
<feBlend mode="normal" in="SourceGraphic" in2="effect6_dropShadow_204_1345" result="shape"/>
</filter>
</defs>
</svg>
