<svg width="193" height="115" viewBox="0 0 193 115" fill="none" xmlns="http://www.w3.org/2000/svg">
<g filter="url(#filter0_ddddd_204_1248)">
<path d="M87.9997 50C101.807 50 112.999 38.8071 112.999 25C112.999 11.1929 101.807 0 87.9997 0C74.1927 0 63 11.1929 63 25C63 38.8071 74.1927 50 87.9997 50Z" fill="#F8E1E1"/>
</g>
<mask id="mask0_204_1248" style="mask-type:alpha" maskUnits="userSpaceOnUse" x="63" y="0" width="50" height="50">
<path d="M87.9997 49.9999C101.807 49.9999 112.999 38.807 112.999 24.9999C112.999 11.1928 101.807 -9.15527e-05 87.9997 -9.15527e-05C74.1927 -9.15527e-05 63 11.1928 63 24.9999C63 38.807 74.1927 49.9999 87.9997 49.9999Z" fill="#F8E1E1"/>
</mask>
<g mask="url(#mask0_204_1248)">
<path opacity="0.5" d="M134.768 58.3732C134.64 57.3919 134.171 56.5814 133.446 55.9414C133.36 55.8561 133.275 55.7281 133.147 55.6428C133.062 55.5575 132.976 55.4295 132.848 55.3442C132.763 55.2588 132.678 55.1308 132.55 55.0455C132.465 54.9602 132.379 54.8322 132.251 54.7469C132.166 54.6616 132.081 54.5336 131.953 54.4482C131.867 54.3629 131.782 54.2349 131.654 54.1496C131.569 54.0643 131.483 53.9363 131.355 53.851C131.27 53.7657 131.185 53.6377 131.057 53.5523C130.971 53.467 130.886 53.339 130.758 53.2537C130.673 53.1684 130.587 53.0404 130.459 52.9551C130.374 52.8698 130.289 52.7418 130.161 52.6564C130.075 52.5711 129.99 52.4431 129.862 52.3578C129.777 52.2725 129.692 52.1445 129.564 52.0592C129.478 51.9738 129.393 51.8459 129.265 51.7605C129.18 51.6752 129.094 51.5472 128.966 51.4619C128.881 51.3766 128.796 51.2486 128.668 51.1633C128.582 51.0779 128.497 50.95 128.369 50.8646C128.284 50.7793 128.241 50.694 128.156 50.6513C128.156 49.7128 128.156 48.8169 128.156 47.8783C128.07 47.9636 127.985 48.0489 127.857 48.0916C127.942 48.0489 128.07 47.9636 128.156 47.8783C128.156 46.8117 128.198 45.7025 128.113 44.636C128.07 43.8254 127.644 43.0575 127.047 42.5029C126.961 42.4175 126.876 42.2895 126.748 42.2042C126.663 42.1189 126.577 41.9909 126.449 41.9056C126.364 41.8203 126.279 41.6923 126.151 41.607C126.065 41.5216 125.98 41.3936 125.852 41.3083C125.767 41.223 125.681 41.095 125.553 41.0097C125.468 40.9244 125.383 40.7964 125.255 40.7111C125.169 40.6257 125.084 40.4977 124.956 40.4124C124.871 40.3271 124.785 40.1991 124.657 40.1138C124.572 40.0285 124.487 39.9005 124.359 39.8151C124.274 39.7298 124.188 39.6018 124.06 39.5165C123.975 39.4312 123.89 39.3032 123.762 39.2179C123.676 39.1326 123.591 39.0046 123.463 38.9193C123.378 38.8339 123.292 38.7059 123.164 38.6206C123.079 38.5353 122.994 38.4073 122.866 38.322C122.78 38.2366 122.695 38.1087 122.567 38.0233C122.482 37.938 122.396 37.81 122.268 37.7247C122.183 37.6394 122.098 37.5114 121.97 37.4261C121.884 37.3408 121.799 37.2128 121.671 37.1274C121.586 37.0421 121.501 36.9141 121.373 36.8288C121.287 36.7435 121.202 36.6155 121.074 36.5302C120.989 36.4448 120.903 36.3169 120.775 36.2315C120.69 36.1462 120.605 36.0182 120.477 35.9329C120.391 35.8476 120.306 35.7196 120.178 35.6343C120.093 35.5489 120.007 35.4209 119.879 35.3356C119.794 35.2503 119.709 35.1223 119.581 35.037C119.495 34.9517 119.41 34.8237 119.282 34.7384C119.197 34.653 119.111 34.5251 118.983 34.4397C118.898 34.3544 118.813 34.2264 118.685 34.1411C118.6 34.0558 118.514 33.9278 118.386 33.8425C118.301 33.7571 118.216 33.6291 118.088 33.5438C118.002 33.4585 117.917 33.3305 117.789 33.2452C117.704 33.1599 117.618 33.0319 117.49 32.9466C117.405 32.8612 117.32 32.7332 117.192 32.6479C117.106 32.5626 117.021 32.4346 116.893 32.3493C116.808 32.264 116.722 32.136 116.594 32.0506C116.509 31.9653 116.424 31.8373 116.296 31.752C116.21 31.6667 116.125 31.5387 115.997 31.4534C115.912 31.3681 115.827 31.2401 115.699 31.1547C115.613 31.0694 115.528 30.9414 115.4 30.8561C115.315 30.7708 115.229 30.6428 115.101 30.5575C115.016 30.4722 114.931 30.3442 114.803 30.2588C114.717 30.1735 114.632 30.0455 114.504 29.9602C114.419 29.8749 114.333 29.7469 114.205 29.6616C114.12 29.5762 114.035 29.4483 113.907 29.3629C113.821 29.2776 113.736 29.1496 113.608 29.0643C113.523 28.979 113.437 28.851 113.309 28.7657C113.224 28.6803 113.139 28.5524 113.011 28.467C112.926 28.3817 112.84 28.2537 112.712 28.1684C112.627 28.0831 112.542 27.9551 112.414 27.8698C112.328 27.7844 112.243 27.6565 112.115 27.5711C112.03 27.4858 111.944 27.3578 111.816 27.2725C111.731 27.1872 111.646 27.0592 111.518 26.9739C111.432 26.8885 111.347 26.7605 111.219 26.6752C111.134 26.5899 111.048 26.4619 110.92 26.3766C110.835 26.2913 110.75 26.1633 110.622 26.078C110.536 25.9926 110.451 25.8646 110.323 25.7793C110.238 25.694 110.153 25.566 110.025 25.4807C109.939 25.3954 109.854 25.2674 109.726 25.1821C109.641 25.0967 109.555 24.9687 109.427 24.8834C109.342 24.7981 109.257 24.6701 109.129 24.5848C109.043 24.4995 108.958 24.3715 108.83 24.2861C108.745 24.2008 108.659 24.0728 108.531 23.9875C108.446 23.9022 108.361 23.7742 108.233 23.6889C108.147 23.6036 108.062 23.4756 107.934 23.3902C107.849 23.3049 107.763 23.1769 107.635 23.0916C107.55 23.0063 107.465 22.8783 107.337 22.793C107.252 22.7076 107.166 22.5797 107.038 22.4943C106.953 22.409 106.868 22.281 106.74 22.1957C106.654 22.1104 106.569 21.9824 106.441 21.8971C106.356 21.8117 106.27 21.6838 106.142 21.5984C106.057 21.5131 105.972 21.3851 105.844 21.2998C105.758 21.2145 105.673 21.0865 105.545 21.0012C105.46 20.9158 105.374 20.7879 105.246 20.7025C105.161 20.6172 105.076 20.4892 104.948 20.4039C104.862 20.3186 104.777 20.1906 104.649 20.1053C104.564 20.0199 104.479 19.8919 104.351 19.8066C104.265 19.7213 104.18 19.5933 104.052 19.508C103.967 19.4227 103.881 19.2947 103.753 19.2094C103.668 19.124 103.583 18.996 103.455 18.9107C103.369 18.8254 103.284 18.6974 103.156 18.6121C103.071 18.5268 102.985 18.3988 102.857 18.3135C102.772 18.2281 102.687 18.1001 102.559 18.0148C102.473 17.9295 102.388 17.8015 102.26 17.7162C102.175 17.6309 102.089 17.5029 101.961 17.4176C101.876 17.3322 101.791 17.2042 101.663 17.1189C101.578 17.0336 101.492 16.9056 101.364 16.8203C101.279 16.735 101.194 16.607 101.066 16.5216C100.98 16.4363 100.895 16.3083 100.767 16.223C100.682 16.1377 100.596 16.0097 100.468 15.9244C100.383 15.8391 100.298 15.7111 100.17 15.6257C100.084 15.5404 99.9991 15.4124 99.8711 15.3271C99.7858 15.2418 99.7004 15.1138 99.5724 15.0285C99.4871 14.9431 99.4018 14.8152 99.2738 14.7298C99.1885 14.6445 99.1032 14.5165 98.9752 14.4312C98.8899 14.3459 98.8045 14.2179 98.6765 14.1326C98.5912 14.0472 98.5059 13.9193 98.3779 13.8339C98.2926 13.7486 98.2073 13.6206 98.0793 13.5353C97.994 13.45 97.9086 13.322 97.7807 13.2367C97.6953 13.1513 97.61 13.0234 97.482 12.938C97.3967 12.8527 97.3114 12.7247 97.1834 12.6394C96.6715 12.0848 95.9889 11.6582 95.221 11.5728C94.8797 11.5302 94.581 11.5302 94.2397 11.5302C94.1971 11.4875 94.1118 11.4022 94.0691 11.3595C93.9838 11.2315 93.8984 11.1462 93.7705 11.0609C93.6851 10.9329 93.5998 10.8476 93.4718 10.7623C93.3865 10.6343 93.3012 10.549 93.1732 10.4636C93.0879 10.3356 93.0026 10.2503 92.8746 10.165C92.7893 10.037 92.7039 9.95169 92.5759 9.86636C92.4906 9.73838 92.4053 9.65305 92.2773 9.56772C92.0213 9.22643 91.6374 9.01312 91.2108 8.88513C90.3575 8.71448 89.547 9.05578 89.1204 9.78103C88.7791 10.293 88.8217 10.8903 88.8217 11.4449C86.6886 11.4449 84.5556 11.4449 82.4225 11.4449C82.3798 11.4022 82.3372 11.3595 82.2945 11.3169C82.2092 11.1889 82.1238 11.1036 81.9959 11.0182C81.9105 10.8903 81.8252 10.8049 81.6972 10.7196C81.6119 10.5916 81.5266 10.5063 81.3986 10.421C81.3133 10.293 81.228 10.2077 81.1 10.1223C81.0146 9.99434 80.9293 9.90902 80.8013 9.8237C80.716 9.69571 80.6307 9.61039 80.5027 9.52506C80.2041 9.14111 79.6921 8.84247 79.0522 8.79981C78.2416 8.71449 77.3457 9.22643 77.1324 10.1223C77.0045 10.5063 77.0471 10.9756 77.0045 11.3595C76.3219 11.3595 75.6819 11.3595 74.9994 11.3595C73.4209 11.4022 72.0131 12.5541 71.8424 14.1326C71.7144 15.2418 71.7997 16.3937 71.7571 17.5029C71.7571 17.5455 71.7571 17.5882 71.7571 17.6309C71.7571 21.4278 71.7571 25.2247 71.7571 29.0216C71.7571 29.2776 71.7997 29.5762 71.8424 29.7896C72.0131 30.4721 72.3543 31.0268 72.8236 31.4534C72.9089 31.5387 72.9943 31.6667 73.1223 31.752C73.2076 31.8373 73.2929 31.9653 73.4209 32.0506C73.5062 32.136 73.5915 32.264 73.7195 32.3493C73.8048 32.4346 73.8902 32.5626 74.0181 32.6479C74.1035 32.7332 74.1888 32.8612 74.3168 32.9466C74.4021 33.0319 74.4874 33.1599 74.6154 33.2452C74.7007 33.3305 74.7861 33.4585 74.914 33.5438C74.9994 33.6291 75.0847 33.7571 75.2127 33.8425C75.298 33.9278 75.3833 34.0558 75.5113 34.1411C75.5966 34.2264 75.6819 34.3544 75.8099 34.4397C75.8953 34.5251 75.9806 34.653 76.1086 34.7384C76.1939 34.8237 76.2792 34.9517 76.4072 35.037C76.4925 35.1223 76.5778 35.2503 76.7058 35.3356C76.7911 35.4209 76.8765 35.5489 77.0045 35.6343C77.0898 35.7196 77.1751 35.8476 77.3031 35.9329C77.3884 36.0182 77.4737 36.1462 77.6017 36.2315C77.687 36.3169 77.7724 36.4448 77.9004 36.5302C77.9857 36.6155 78.071 36.7435 78.199 36.8288C78.2843 36.9141 78.3696 37.0421 78.4976 37.1274C78.5829 37.2128 78.6683 37.3408 78.7962 37.4261C78.8816 37.5114 78.9669 37.6394 79.0949 37.7247C79.1802 37.81 79.2655 37.938 79.3935 38.0233C79.4788 38.1087 79.5642 38.2366 79.6921 38.322C79.7775 38.4073 79.8628 38.5353 79.9908 38.6206C80.0761 38.7059 80.1614 38.8339 80.2894 38.9193C80.3747 39.0046 80.46 39.1326 80.588 39.2179C80.6734 39.3032 80.7587 39.4312 80.8867 39.5165C80.972 39.6018 81.0573 39.7298 81.1853 39.8151C81.2706 39.9005 81.3559 40.0285 81.4839 40.1138C81.5692 40.1991 81.6546 40.3271 81.7826 40.4124C81.8679 40.4977 81.9532 40.6257 82.0812 40.7111C82.1665 40.7964 82.2518 40.9244 82.3798 41.0097C82.4651 41.095 82.5505 41.223 82.6784 41.3083C82.7638 41.3936 82.8491 41.5216 82.9771 41.607C83.0624 41.6923 83.1477 41.8203 83.2757 41.9056C83.361 41.9909 83.4464 42.1189 83.5743 42.2042C83.6597 42.2895 83.745 42.4175 83.873 42.5029C83.9583 42.5882 84.0436 42.7162 84.1716 42.8015C84.2569 42.8868 84.3422 43.0148 84.4702 43.1001C84.5556 43.1855 84.6409 43.3134 84.7689 43.3988C84.8542 43.4841 84.9395 43.6121 85.0675 43.6974C85.1528 43.7827 85.2381 43.9107 85.3661 43.996C85.4515 44.0814 85.5368 44.2093 85.6648 44.2947C85.7501 44.38 85.8354 44.508 85.9634 44.5933C86.0487 44.6786 86.134 44.8066 86.262 44.8919C86.3474 44.9773 86.4327 45.1052 86.5607 45.1906C86.646 45.2759 86.7313 45.4039 86.8593 45.4892C86.9446 45.5745 87.0299 45.7025 87.1579 45.7878C87.2432 45.8732 87.3286 46.0012 87.4565 46.0865C87.5419 46.1718 87.6272 46.2998 87.7552 46.3851C87.8405 46.4704 87.9258 46.5984 88.0538 46.6837C88.1391 46.7691 88.2245 46.8971 88.3524 46.9824C88.4378 47.0677 88.5231 47.1957 88.6511 47.281C88.7364 47.3663 88.8217 47.4943 88.9497 47.5797C89.035 47.665 89.1204 47.793 89.2483 47.8783C89.3337 47.9636 89.419 48.0916 89.547 48.1769C89.6323 48.2622 89.7176 48.3902 89.8456 48.4756C89.9309 48.5609 90.0162 48.6889 90.1442 48.7742C90.2296 48.8595 90.3149 48.9875 90.4429 49.0728C90.5282 49.1581 90.6135 49.2861 90.7415 49.3715C90.8268 49.4568 90.9121 49.5848 91.0401 49.6701C91.1254 49.7554 91.2108 49.8834 91.3388 49.9687C91.4241 50.0541 91.5094 50.182 91.6374 50.2674C91.7227 50.3527 91.808 50.4807 91.936 50.566C92.0213 50.6513 92.1067 50.7793 92.2346 50.8646C92.32 50.95 92.4053 51.0779 92.5333 51.1633C92.6186 51.2486 92.7039 51.3766 92.8319 51.4619C92.9172 51.5472 93.0026 51.6752 93.1305 51.7605C93.2159 51.8459 93.3012 51.9738 93.4292 52.0592C93.5145 52.1445 93.5998 52.2725 93.7278 52.3578C93.8131 52.4431 93.8985 52.5711 94.0264 52.6564C94.1118 52.7418 94.1971 52.8698 94.3251 52.9551C94.4104 53.0404 94.4957 53.1684 94.6237 53.2537C94.709 53.339 94.7943 53.467 94.9223 53.5523C95.0076 53.6377 95.093 53.7657 95.221 53.851C95.3063 53.9363 95.3916 54.0643 95.5196 54.1496C95.6049 54.2349 95.6902 54.3629 95.8182 54.4482C95.9035 54.5336 95.9889 54.6616 96.1169 54.7469C96.2022 54.8322 96.2875 54.9602 96.4155 55.0455C96.5008 55.1308 96.5861 55.2588 96.7141 55.3442C96.7994 55.4295 96.8848 55.5575 97.0127 55.6428C97.0981 55.7281 97.1834 55.8561 97.3114 55.9414C97.3967 56.0267 97.482 56.1547 97.61 56.24C97.6953 56.3254 97.7807 56.4534 97.9086 56.5387C97.994 56.624 98.0793 56.752 98.2073 56.8373C98.2926 56.9227 98.3779 57.0506 98.5059 57.136C98.5912 57.2213 98.6765 57.3493 98.8045 57.4346C98.8899 57.5199 98.9752 57.6479 99.1032 57.7332C99.1885 57.8185 99.2738 57.9465 99.4018 58.0319C99.4871 58.1172 99.5724 58.2452 99.7004 58.3305C99.7858 58.4158 99.8711 58.5438 99.9991 58.6291C100.084 58.7145 100.17 58.8424 100.298 58.9278C100.383 59.0131 100.468 59.1411 100.596 59.2264C100.682 59.3117 100.767 59.4397 100.895 59.525C100.98 59.6104 101.066 59.7383 101.194 59.8237C101.279 59.909 101.364 60.037 101.492 60.1223C101.578 60.2076 101.663 60.3356 101.791 60.4209C101.876 60.5063 101.961 60.6342 102.089 60.7196C102.175 60.8049 102.26 60.9329 102.388 61.0182C102.473 61.1035 102.559 61.2315 102.687 61.3168C103.284 61.9994 104.223 62.4261 105.246 62.4261C107.124 62.4261 109.001 62.4261 110.878 62.4261C110.92 62.4687 111.006 62.5114 111.048 62.5967C111.134 62.682 111.219 62.81 111.347 62.8953C111.432 62.9807 111.518 63.1087 111.646 63.194C111.731 63.2793 111.816 63.4073 111.944 63.4926C112.03 63.5779 112.115 63.7059 112.243 63.7912C112.328 63.8766 112.414 64.0046 112.542 64.0899C112.627 64.1752 112.712 64.3032 112.84 64.3885C112.926 64.4738 113.011 64.6018 113.139 64.6872C113.224 64.7725 113.309 64.9005 113.437 64.9858C113.523 65.0711 113.608 65.1991 113.736 65.2844C113.821 65.3697 113.907 65.4977 114.035 65.5831C114.12 65.6684 114.205 65.7964 114.333 65.8817C114.419 65.967 114.504 66.095 114.632 66.1803C114.717 66.2657 114.803 66.3936 114.931 66.479C115.016 66.5643 115.101 66.6923 115.229 66.7776C115.315 66.8629 115.4 66.9909 115.528 67.0762C115.613 67.1616 115.699 67.2895 115.827 67.3749C115.912 67.4602 115.997 67.5882 116.125 67.6735C116.21 67.7588 116.296 67.8868 116.424 67.9721C116.509 68.0575 116.594 68.1854 116.722 68.2708C116.808 68.3561 116.893 68.4841 117.021 68.5694C117.106 68.6547 117.192 68.7827 117.32 68.868C117.405 68.9534 117.49 69.0813 117.618 69.1667C117.704 69.252 117.789 69.38 117.917 69.4653C118.002 69.5506 118.088 69.6786 118.216 69.7639C118.301 69.8493 118.386 69.9773 118.514 70.0626C118.6 70.1479 118.685 70.2759 118.813 70.3612C118.983 70.5745 119.197 70.7452 119.453 70.9158C119.922 71.2571 120.519 71.4278 121.031 71.6837C121.586 71.6837 122.183 71.6837 122.738 71.6837C123.42 71.4278 124.103 71.2145 124.615 70.7025C124.999 70.3612 125.34 69.9773 125.724 69.5933C125.809 69.508 125.895 69.4653 125.98 69.38C126.236 69.4653 126.535 69.5933 126.791 69.6786C128.07 70.0626 129.222 69.8919 130.246 68.9534C130.801 68.4414 131.355 67.8868 131.91 67.2895C132.55 66.607 132.848 65.839 132.848 64.9005C132.848 64.2179 132.593 63.5779 132.379 62.9807C132.337 63.0233 132.294 63.066 132.209 63.066C132.251 63.0233 132.337 62.9807 132.379 62.938C132.635 62.682 132.848 62.3834 133.147 62.1274C133.659 61.6155 134.171 61.1462 134.427 60.4636C134.555 60.0796 134.64 59.6957 134.768 59.3117C134.768 58.9704 134.768 58.6718 134.768 58.3305C134.811 58.4585 134.768 58.4158 134.768 58.3732Z" fill="#FFA5A9"/>
</g>
<path d="M98.0251 25.1706C98.793 24.7014 99.6036 24.4027 100.542 24.4027C102.505 24.4454 104.211 25.9386 104.51 27.901C104.51 27.9437 104.552 27.9863 104.552 28.029C104.552 28.3703 104.552 28.6689 104.552 29.0102C104.424 29.3942 104.339 29.7781 104.211 30.1621C103.955 30.8447 103.443 31.3566 102.931 31.8259C102.675 32.0819 102.419 32.3805 102.163 32.6365C102.078 32.7218 101.95 32.7645 101.865 32.8498C99.9022 34.8123 97.9398 36.7747 95.9347 38.7798C95.8493 38.8652 95.8067 38.9505 95.764 39.0785C95.6787 39.1638 95.5507 39.2065 95.4654 39.2918C95.0814 39.6331 94.7401 40.017 94.3562 40.401C93.8442 40.913 93.1617 41.1689 92.4791 41.3822C91.9245 41.3822 91.3272 41.3822 90.7726 41.3822C90.218 41.1263 89.6634 40.9556 89.1941 40.6143C87.2317 39.2065 86.9757 36.3054 88.6395 34.5563C88.9808 34.215 89.3648 33.831 89.7061 33.4897C89.7914 33.4044 89.8341 33.3191 89.9194 33.1911C90.0047 33.1058 90.1327 33.0631 90.218 33.0205C92.1804 31.058 94.1429 29.0955 96.148 27.0904C96.2333 27.0051 96.276 26.9198 96.3613 26.7918C96.4466 26.7065 96.5319 26.6638 96.6172 26.5785C97.0865 26.1092 97.5558 25.6399 98.0251 25.1706ZM93.247 37.7986C93.8016 37.8413 94.3135 37.5 94.7401 37.0734C96.4893 35.3242 98.2384 33.6177 99.9448 31.8686C100.158 31.6553 100.329 31.442 100.499 31.2287C101.097 30.5034 101.139 29.5648 100.585 28.7542C100.115 28.0717 99.1769 27.773 98.3664 28.029C97.8971 28.157 97.5131 28.4983 97.1718 28.7969C95.508 30.4181 93.8869 32.0819 92.2658 33.7031C92.0525 33.9164 91.7965 34.1723 91.5832 34.4283C91.0286 35.0682 90.9006 35.7935 91.2419 36.5188C91.6258 37.372 92.2658 37.7986 93.247 37.7986Z" fill="#F786A2"/>
<path d="M98.0253 25.1706C97.556 25.6399 97.0867 26.1092 96.5748 26.5785C96.4895 26.6638 96.4041 26.7065 96.3188 26.7918C96.0202 26.7065 95.7216 26.5785 95.4229 26.4932C94.2711 26.1092 93.1619 26.2799 92.2233 27.0478C91.5834 27.6024 90.9861 28.2423 90.3888 28.8396C89.4503 29.8208 89.2796 30.9727 89.5783 32.2526C84.8002 32.2526 79.9794 32.2526 75.2013 32.2526C73.5802 32.2526 72.2577 31.2713 71.9164 29.7355C71.8311 29.4795 71.8311 29.2235 71.8311 28.9676C71.8311 25.1706 71.8311 21.3737 71.8311 17.5768C71.8311 17.5341 71.8311 17.4915 71.8311 17.4488C72.087 17.8328 72.471 17.8754 72.8976 17.8754C80.79 17.8754 88.725 17.8754 96.6174 17.8754C97.1294 17.8754 97.5987 17.8754 97.9826 17.4915C97.9826 19.1126 97.9826 20.6911 97.9826 22.3123C98.0253 23.2509 98.0253 24.1894 98.0253 25.1706ZM75.116 27.0051C75.116 27.3891 75.116 27.773 75.116 28.1143C75.116 28.7116 75.372 28.9676 75.9692 28.9676C76.7371 28.9676 77.4624 28.9676 78.1876 28.9676C78.7422 28.9676 79.0409 28.7543 79.0409 28.157C79.0409 27.3891 79.0409 26.5785 79.0409 25.8106C79.0409 25.256 78.7849 25.0427 78.273 25C77.505 25 76.6945 25 75.9266 25C75.4146 25 75.1587 25.2986 75.116 25.7679C75.0733 26.2372 75.116 26.6212 75.116 27.0051ZM85.5681 21.7577C85.5681 22.1416 85.5681 22.5256 85.5681 22.9096C85.5681 23.5068 85.8241 23.7628 86.4213 23.7628C87.1892 23.7628 87.9145 23.7628 88.6397 23.7628C89.1943 23.7628 89.493 23.5068 89.493 22.9522C89.493 22.1843 89.493 21.3737 89.493 20.6058C89.493 20.0939 89.1943 19.8379 88.6824 19.8379C87.9145 19.8379 87.1039 19.8379 86.336 19.8379C85.8241 19.8379 85.5681 20.1365 85.5681 20.6485C85.5681 20.9898 85.5681 21.3737 85.5681 21.7577ZM80.3207 26.9625C80.3207 27.3464 80.3207 27.7304 80.3207 28.1143C80.3207 28.7116 80.5767 28.9676 81.1739 28.9676C81.9419 28.9676 82.6671 28.9676 83.435 28.9676C83.9469 28.9676 84.2456 28.7116 84.2456 28.157C84.2456 27.3891 84.2456 26.5785 84.2456 25.8106C84.2456 25.2986 83.9896 25.0427 83.5203 25C82.7098 25 81.8565 25 81.046 25C80.5767 25 80.3207 25.2986 80.3207 25.7679C80.3207 26.1945 80.3207 26.5785 80.3207 26.9625ZM82.3258 23.7628C82.6671 23.7628 83.0084 23.7628 83.3923 23.7628C84.0323 23.7628 84.3309 23.5068 84.3309 22.8669C84.3309 22.1416 84.3309 21.4164 84.3309 20.6911C84.3309 20.0939 84.0323 19.7952 83.435 19.7952C82.7098 19.7952 81.9845 19.7952 81.2166 19.7952C80.662 19.7952 80.3634 20.0512 80.3634 20.6485C80.3634 21.4164 80.3634 22.1843 80.3634 22.9522C80.3634 23.5068 80.6193 23.7628 81.1739 23.7628C81.5152 23.7628 81.9419 23.7628 82.3258 23.7628ZM77.0358 23.7628C77.4197 23.7628 77.8037 23.7628 78.1876 23.7628C78.6996 23.7628 78.9555 23.5922 78.9982 23.1229C79.0409 22.227 79.0409 21.3737 78.9982 20.4778C78.9982 20.0939 78.6996 19.8379 78.3156 19.8379C77.4624 19.7952 76.6092 19.7952 75.7559 19.8379C75.244 19.8805 75.0733 20.1365 75.0733 20.6485C75.0733 21.4164 75.0733 22.1843 75.0733 22.9522C75.0733 23.4642 75.372 23.7628 75.8839 23.7628C76.3105 23.7628 76.6945 23.7628 77.0358 23.7628ZM85.5681 27.0051C85.5681 27.3891 85.5681 27.773 85.5681 28.1997C85.5681 28.6689 85.8241 28.9676 86.2933 28.9676C87.1039 29.0102 87.9145 29.0102 88.7677 28.9676C89.237 28.9676 89.4503 28.7543 89.493 28.285C89.5356 27.4744 89.5783 26.6638 89.5356 25.8532C89.493 25.0853 89.1943 25.0427 88.7677 25C87.9571 24.9573 87.1892 24.9573 86.3787 25C85.9094 25 85.6108 25.2986 85.6108 25.8106C85.5681 26.2372 85.5681 26.6212 85.5681 27.0051ZM94.6977 21.7577C94.6977 21.3737 94.655 20.9898 94.6977 20.5631C94.7403 20.0085 94.3564 19.7952 93.9298 19.7526C93.1619 19.7526 92.3513 19.7526 91.5834 19.7526C91.0714 19.7526 90.8155 20.0512 90.8155 20.5205C90.8155 21.3311 90.8155 22.099 90.8155 22.9096C90.8155 23.3788 91.0288 23.6775 91.498 23.6775C92.3513 23.7201 93.2045 23.7201 94.1004 23.6775C94.527 23.6775 94.7403 23.3788 94.7403 22.9522C94.6977 22.6109 94.6977 22.1843 94.6977 21.7577Z" fill="#C73B5D"/>
<path d="M98.0251 17.4915C97.6411 17.8754 97.1292 17.8754 96.6599 17.8754C88.7675 17.8754 80.8325 17.8754 72.9401 17.8754C72.5134 17.8754 72.1295 17.7901 71.8735 17.4488C71.8735 16.3396 71.8309 15.1877 71.9588 14.0785C72.1295 12.5427 73.5373 11.3481 75.1158 11.3055C75.7984 11.3055 76.4383 11.3055 77.1209 11.3055C77.1209 11.9881 77.1209 12.628 77.1209 13.3106C77.1636 14.4625 77.9741 15.2304 79.126 15.2304C80.2352 15.2304 81.0884 14.2492 81.0458 13.3106C81.0031 12.628 81.0458 11.9881 81.0458 11.3055C81.3871 11.3055 81.6857 11.3055 81.9843 11.3055C84.288 11.3055 86.5918 11.3055 88.8955 11.3055C88.8955 11.9027 88.8955 12.5427 88.8955 13.1399C88.9382 14.4198 89.8341 15.3584 91.1992 15.1877C91.9671 15.1024 92.735 14.3771 92.7777 13.5666C92.8204 12.7986 92.8204 12.0307 92.863 11.2628C93.6736 11.2628 94.5268 11.2201 95.2947 11.3481C96.7452 11.5188 97.9398 12.7986 98.0251 14.2492C98.0251 15.3157 97.9824 16.4249 98.0251 17.4915ZM84.8853 13.9079C84.288 13.9079 83.6908 13.9079 83.0509 13.9079C82.6242 13.9079 82.283 14.1638 82.283 14.5478C82.283 14.9318 82.5389 15.2304 83.0082 15.2304C84.288 15.2304 85.5252 15.273 86.8051 15.2304C87.4023 15.2304 87.6583 14.7184 87.4023 14.2492C87.2317 13.9505 86.9757 13.9079 86.6771 13.9079C86.1225 13.9079 85.5252 13.9079 84.8853 13.9079Z" fill="#EA4E7B"/>
<path d="M92.7778 11.3055C92.7352 12.0734 92.7778 12.8413 92.6925 13.6092C92.6498 14.3771 91.8819 15.1024 91.114 15.2304C89.7489 15.401 88.853 14.4624 88.8103 13.1826C88.8103 12.5853 88.8103 11.9454 88.8103 11.3481C88.8103 10.7935 88.8103 10.1962 89.1089 9.68429C89.5782 8.95904 90.3888 8.61774 91.1993 8.78839C92.0099 8.95904 92.5645 9.59897 92.6925 10.4522C92.7778 10.7082 92.7778 11.0068 92.7778 11.3055Z" fill="#FFB0B0"/>
<path d="M80.9604 11.2628C80.9604 11.9454 80.9604 12.5853 80.9604 13.2679C81.0031 14.2491 80.1925 15.1877 79.0407 15.1877C77.8888 15.1877 77.0782 14.3771 77.0356 13.2679C76.9929 12.5853 77.0356 11.9454 77.0356 11.2628C77.0782 10.8362 77.0356 10.4096 77.1635 10.0256C77.4195 9.12969 78.2728 8.61774 79.0833 8.70307C80.1925 8.83106 80.8751 9.55631 80.9178 10.5802C81.0031 10.7935 80.9604 11.0495 80.9604 11.2628Z" fill="#FFB0B0"/>
<path d="M89.5782 32.2525C89.2796 30.9727 89.4502 29.8208 90.3888 28.8396C90.9861 28.2423 91.5833 27.5597 92.2232 27.0478C93.1618 26.2798 94.271 26.1092 95.4229 26.4932C95.7215 26.5785 96.0201 26.6638 96.3188 26.7918C96.2334 26.8771 96.1908 27.0051 96.1055 27.0904C94.143 29.0529 92.1806 31.0153 90.1755 33.0205C90.0902 33.1058 90.0048 33.1484 89.8769 33.1911C89.7915 32.8498 89.7062 32.5512 89.5782 32.2525Z" fill="#EA4E7B"/>
<path d="M93.2471 37.7986C92.2659 37.7986 91.626 37.3293 91.2847 36.5614C90.9434 35.8362 91.0714 35.0682 91.626 34.471C91.8393 34.215 92.0526 33.959 92.3086 33.7457C93.9297 32.0819 95.5935 30.4607 97.2147 28.8396C97.556 28.4983 97.8973 28.1996 98.4092 28.0717C99.2198 27.8157 100.158 28.1143 100.628 28.7969C101.182 29.6075 101.14 30.5461 100.542 31.2713C100.372 31.4846 100.158 31.6979 99.9877 31.9112C98.2385 33.6604 96.5321 35.4095 94.783 37.116C94.3137 37.5426 93.8017 37.8413 93.2471 37.7986Z" fill="#FAADC0"/>
<path d="M102.163 32.6365C102.377 33.2764 102.633 33.8737 102.633 34.5563C102.633 35.4949 102.291 36.2628 101.694 36.9454C101.14 37.5 100.628 38.0546 100.03 38.6092C99.0491 39.5051 97.8546 39.7184 96.5747 39.3345C96.3188 39.2491 96.0201 39.1638 95.7642 39.0358C95.8495 38.9505 95.8921 38.8225 95.9348 38.7372C97.8972 36.7747 99.8597 34.8123 101.865 32.8072C101.993 32.7645 102.078 32.7218 102.163 32.6365Z" fill="#EA4E7B"/>
<path opacity="0.5" d="M75.116 27.0051C75.116 26.6211 75.116 26.2372 75.116 25.8106C75.116 25.2986 75.4146 25.0426 75.9265 25.0426C76.6944 25.0426 77.505 25.0426 78.2729 25.0426C78.7849 25.0426 79.0408 25.2986 79.0408 25.8532C79.0408 26.6211 79.0408 27.4317 79.0408 28.1996C79.0408 28.7543 78.7422 28.9676 78.1876 29.0102C77.4197 29.0102 76.6944 29.0102 75.9692 29.0102C75.3719 29.0102 75.116 28.7543 75.116 28.157C75.116 27.7304 75.116 27.3891 75.116 27.0051Z" fill="#FFB0B0"/>
<path opacity="0.5" d="M85.5681 21.7577C85.5681 21.3737 85.5681 20.9898 85.5681 20.6058C85.5681 20.0939 85.8241 19.7952 86.336 19.7952C87.1039 19.7952 87.9145 19.7952 88.6824 19.7952C89.1944 19.7952 89.493 20.0512 89.493 20.5631C89.493 21.331 89.493 22.1416 89.493 22.9096C89.493 23.4642 89.1943 23.7201 88.6397 23.7201C87.8718 23.7201 87.1466 23.7201 86.4213 23.7201C85.8241 23.7201 85.5681 23.4642 85.5681 22.8669C85.5681 22.5256 85.5681 22.1416 85.5681 21.7577Z" fill="#FFB0B0"/>
<path opacity="0.5" d="M80.3206 26.9624C80.3206 26.5785 80.3206 26.1945 80.3206 25.8106C80.3206 25.3413 80.5765 25.0426 81.0458 25.0426C81.8564 25.0426 82.7096 25.0426 83.5202 25.0426C83.9895 25.0426 84.2454 25.3413 84.2454 25.8532C84.2454 26.6211 84.2454 27.4317 84.2454 28.1996C84.2454 28.7116 83.9468 28.9676 83.4349 29.0102C82.6669 29.0102 81.9417 29.0102 81.1738 29.0102C80.5765 29.0102 80.3206 28.7543 80.3206 28.157C80.3206 27.7304 80.3206 27.3464 80.3206 26.9624Z" fill="#FFB0B0"/>
<path opacity="0.5" d="M82.3257 23.7628C81.9417 23.7628 81.5577 23.7628 81.1311 23.7628C80.5765 23.7628 80.3206 23.4641 80.3206 22.9522C80.3206 22.1843 80.3206 21.4164 80.3206 20.6485C80.3206 20.0938 80.5765 19.7952 81.1738 19.7952C81.899 19.7952 82.6243 19.7952 83.3922 19.7952C84.0321 19.7952 84.2881 20.0512 84.2881 20.6911C84.2881 21.4164 84.2881 22.1416 84.2881 22.8669C84.2881 23.5068 84.0321 23.7628 83.3495 23.7628C83.0082 23.7628 82.6669 23.7628 82.3257 23.7628Z" fill="#FFB0B0"/>
<path d="M77.0357 23.7628C76.6517 23.7628 76.2678 23.7628 75.8838 23.7628C75.3719 23.7628 75.0732 23.4642 75.0732 22.9522C75.0732 22.1843 75.0732 21.4164 75.0732 20.6485C75.0732 20.1365 75.2439 19.8805 75.7558 19.8379C76.6091 19.7952 77.4623 19.7952 78.3155 19.8379C78.6995 19.8379 78.9554 20.0938 78.9981 20.4778C79.0408 21.3737 79.0408 22.227 78.9981 23.1229C78.9554 23.6348 78.6995 23.7628 78.1875 23.7628C77.8462 23.7628 77.4196 23.7628 77.0357 23.7628Z" fill="#F786A2"/>
<path d="M85.5681 27.0051C85.5681 26.6212 85.5681 26.2372 85.5681 25.8106C85.5681 25.2986 85.824 25.0427 86.336 25C87.1465 25 87.9144 24.9573 88.725 25C89.1943 25.0427 89.4929 25.0853 89.4929 25.8533C89.5356 26.6638 89.4929 27.4744 89.4503 28.285C89.4076 28.7543 89.1943 28.9249 88.725 28.9676C87.9144 29.0102 87.1039 29.0102 86.2506 28.9676C85.7814 28.9676 85.5254 28.6689 85.5254 28.1997C85.5681 27.8157 85.5681 27.3891 85.5681 27.0051Z" fill="#F786A2"/>
<path d="M94.6976 21.7577C94.6976 22.1843 94.6976 22.5683 94.6976 22.9949C94.6976 23.4215 94.4843 23.7201 94.0577 23.7201C93.2044 23.7628 92.3512 23.7628 91.4553 23.7201C90.986 23.7201 90.7727 23.4215 90.7727 22.9522C90.7727 22.1416 90.7727 21.3737 90.7727 20.5631C90.7727 20.0938 91.0713 19.7952 91.5406 19.7952C92.3085 19.7952 93.1191 19.7952 93.887 19.7952C94.3136 19.7952 94.6976 20.0512 94.6549 20.6058C94.6976 20.9898 94.6976 21.3737 94.6976 21.7577Z" fill="#F786A2"/>
<path d="M84.8854 13.9078C85.4826 13.9078 86.0799 13.9078 86.7198 13.9078C87.0185 13.9078 87.2744 13.9505 87.4451 14.2491C87.701 14.7184 87.4024 15.2304 86.8478 15.2304C85.568 15.273 84.3308 15.2304 83.0509 15.2304C82.5817 15.2304 82.3257 14.9317 82.3257 14.5478C82.3257 14.1638 82.667 13.9078 83.0936 13.9078C83.6909 13.9078 84.2881 13.9078 84.8854 13.9078Z" fill="#E3294E"/>
<defs>
<filter id="filter0_ddddd_204_1248" x="-17" y="0" width="210" height="231" filterUnits="userSpaceOnUse" color-interpolation-filters="sRGB">
<feFlood flood-opacity="0" result="BackgroundImageFix"/>
<feColorMatrix in="SourceAlpha" type="matrix" values="0 0 0 0 0 0 0 0 0 0 0 0 0 0 0 0 0 0 127 0" result="hardAlpha"/>
<feOffset dy="3.46924"/>
<feGaussianBlur stdDeviation="1.37396"/>
<feColorMatrix type="matrix" values="0 0 0 0 0 0 0 0 0 0 0 0 0 0 0 0 0 0 0.0217013 0"/>
<feBlend mode="normal" in2="BackgroundImageFix" result="effect1_dropShadow_204_1248"/>
<feColorMatrix in="SourceAlpha" type="matrix" values="0 0 0 0 0 0 0 0 0 0 0 0 0 0 0 0 0 0 127 0" result="hardAlpha"/>
<feOffset dy="8.77397"/>
<feGaussianBlur stdDeviation="3.47484"/>
<feColorMatrix type="matrix" values="0 0 0 0 0 0 0 0 0 0 0 0 0 0 0 0 0 0 0.0310596 0"/>
<feBlend mode="normal" in2="effect1_dropShadow_204_1248" result="effect2_dropShadow_204_1248"/>
<feColorMatrix in="SourceAlpha" type="matrix" values="0 0 0 0 0 0 0 0 0 0 0 0 0 0 0 0 0 0 127 0" result="hardAlpha"/>
<feOffset dy="17.8981"/>
<feGaussianBlur stdDeviation="7.08835"/>
<feColorMatrix type="matrix" values="0 0 0 0 0 0 0 0 0 0 0 0 0 0 0 0 0 0 0.0389404 0"/>
<feBlend mode="normal" in2="effect2_dropShadow_204_1248" result="effect3_dropShadow_204_1248"/>
<feColorMatrix in="SourceAlpha" type="matrix" values="0 0 0 0 0 0 0 0 0 0 0 0 0 0 0 0 0 0 127 0" result="hardAlpha"/>
<feOffset dy="36.8667"/>
<feGaussianBlur stdDeviation="14.6007"/>
<feColorMatrix type="matrix" values="0 0 0 0 0 0 0 0 0 0 0 0 0 0 0 0 0 0 0.0482987 0"/>
<feBlend mode="normal" in2="effect3_dropShadow_204_1248" result="effect4_dropShadow_204_1248"/>
<feColorMatrix in="SourceAlpha" type="matrix" values="0 0 0 0 0 0 0 0 0 0 0 0 0 0 0 0 0 0 127 0" result="hardAlpha"/>
<feOffset dy="101"/>
<feGaussianBlur stdDeviation="40"/>
<feColorMatrix type="matrix" values="0 0 0 0 0 0 0 0 0 0 0 0 0 0 0 0 0 0 0.07 0"/>
<feBlend mode="normal" in2="effect4_dropShadow_204_1248" result="effect5_dropShadow_204_1248"/>
<feBlend mode="normal" in="SourceGraphic" in2="effect5_dropShadow_204_1248" result="shape"/>
</filter>
</defs>
</svg>
