<svg width="190" height="115" viewBox="0 0 190 115" fill="none" xmlns="http://www.w3.org/2000/svg">
<g filter="url(#filter0_dddddd_204_1321)">
<path d="M104.99 50C118.792 50 129.98 38.8071 129.98 25C129.98 11.1929 118.792 0 104.99 0C91.1884 0 80 11.1929 80 25C80 38.8071 91.1884 50 104.99 50Z" fill="#F8E1E1"/>
</g>
<mask id="mask0_204_1321" style="mask-type:alpha" maskUnits="userSpaceOnUse" x="80" y="0" width="50" height="50">
<path d="M104.99 50C118.792 50 129.98 38.8071 129.98 25C129.98 11.1929 118.792 4.57764e-05 104.99 4.57764e-05C91.1884 4.57764e-05 80 11.1929 80 25C80 38.8071 91.1884 50 104.99 50Z" fill="#F8E1E1"/>
</mask>
<g mask="url(#mask0_204_1321)">
<path opacity="0.5" d="M138.3 46.9321C138.012 45.8964 137.458 44.9967 136.886 44.1035C135.528 41.9876 134.182 39.8607 132.83 37.7426C132.813 37.7556 132.793 37.7687 132.775 37.7806L132.611 37.5239C132.594 37.5378 132.575 37.5505 132.556 37.562L132.393 37.3052C132.375 37.3192 132.357 37.3319 132.337 37.3433L132.176 37.0866C132.159 37.1005 132.14 37.1132 132.121 37.1246L131.959 36.869C131.942 36.882 131.923 36.894 131.904 36.906L131.74 36.6503C131.723 36.6634 131.705 36.6753 131.685 36.6873L131.522 36.4317C131.504 36.4447 131.486 36.4567 131.466 36.4686L131.303 36.213C131.286 36.226 131.267 36.238 131.248 36.25L131.085 35.9943C131.067 36.0074 131.049 36.0193 131.029 36.0313L130.866 35.7756C130.849 35.7887 130.83 35.8007 130.811 35.8126L130.647 35.557L130.593 35.5951C130.538 35.5091 130.484 35.4232 130.429 35.3383C130.413 35.3514 130.393 35.3633 130.375 35.3764L130.211 35.1196C130.194 35.1327 130.174 35.1447 130.156 35.1577L129.993 34.901C129.975 34.914 129.956 34.9271 129.937 34.939L129.774 34.6823C129.757 34.6954 129.737 34.7084 129.719 34.7204L129.556 34.4636C129.538 34.4767 129.519 34.4897 129.5 34.5017L129.337 34.245C129.32 34.258 129.3 34.2711 129.282 34.283L129.119 34.0263C129.101 34.04 129.082 34.0527 129.063 34.0644L128.9 33.8076C128.882 33.8216 128.864 33.8343 128.844 33.8457L128.681 33.589C128.664 33.6029 128.645 33.6156 128.626 33.627L128.457 33.3768C128.44 33.3899 128.421 33.4018 128.402 33.4138L128.239 33.1582C128.221 33.1712 128.203 33.1832 128.183 33.1951L128.02 32.9395C128.003 32.9525 127.984 32.9645 127.965 32.9765L127.802 32.7208C127.784 32.7339 127.766 32.7458 127.746 32.7578L127.583 32.5022C127.566 32.5152 127.547 32.5272 127.528 32.5391L127.364 32.2835C127.347 32.2965 127.329 32.3085 127.309 32.3205L127.146 32.0648C127.128 32.0779 127.11 32.0898 127.09 32.1018C127.036 32.017 126.982 31.931 126.927 31.8461C126.911 31.8592 126.891 31.8712 126.873 31.8842L126.71 31.6275C126.692 31.6405 126.673 31.6525 126.654 31.6656L126.491 31.4088C126.474 31.4219 126.454 31.4349 126.436 31.4469L126.273 31.1901C126.255 31.2032 126.236 31.2163 126.217 31.2282L126.054 30.9715C126.037 30.9845 126.017 30.9976 125.999 31.0096L125.835 30.7528C125.818 30.7659 125.798 30.7789 125.78 30.7909L125.617 30.5341C125.599 30.5472 125.58 30.5602 125.561 30.5722L125.398 30.3155C125.381 30.3294 125.362 30.3421 125.343 30.3535L125.18 30.0968C125.162 30.1107 125.144 30.1234 125.124 30.1349L124.961 29.8781C124.944 29.8921 124.925 29.9048 124.906 29.9162L124.743 29.6606C124.725 29.6736 124.707 29.6856 124.687 29.6975L124.524 29.4419C124.507 29.4549 124.488 29.4669 124.469 29.4789L124.305 29.2232C124.288 29.2363 124.27 29.2482 124.25 29.2602L124.087 29.0045C124.069 29.0176 124.051 29.0296 124.031 29.0415L123.868 28.7859C123.851 28.7989 123.832 28.8109 123.813 28.8229L123.65 28.5672C123.632 28.5803 123.614 28.5922 123.594 28.6042L123.431 28.3485L123.377 28.3866C123.321 28.3007 123.268 28.2147 123.214 28.1299C123.196 28.1429 123.177 28.1549 123.158 28.168L122.995 27.9112C122.978 27.9243 122.958 27.9362 122.94 27.9493L122.776 27.6925C122.759 27.7056 122.739 27.7186 122.721 27.7306L122.558 27.4739C122.54 27.4869 122.521 27.5 122.502 27.512L122.339 27.2552C122.322 27.2683 122.302 27.2813 122.284 27.2933L122.121 27.0365C122.103 27.0496 122.084 27.0626 122.065 27.0746L121.902 26.8179C121.884 26.8318 121.866 26.8445 121.847 26.8559L121.684 26.5992C121.666 26.6131 121.647 26.6258 121.628 26.6373L121.465 26.3805C121.447 26.3945 121.429 26.4072 121.409 26.4186L121.246 26.1629C121.229 26.176 121.21 26.188 121.191 26.1999L121.028 25.9443C121.01 25.9573 120.992 25.9693 120.972 25.9813L120.809 25.7256C120.792 25.7387 120.773 25.7506 120.754 25.7626L120.591 25.5069C120.573 25.52 120.555 25.532 120.535 25.5439L120.372 25.2883C120.355 25.3013 120.336 25.3133 120.317 25.3253L120.153 25.0696C120.136 25.0827 120.118 25.0946 120.098 25.1066L119.935 24.8509C119.917 24.864 119.899 24.876 119.879 24.8879C119.825 24.8031 119.771 24.7171 119.716 24.6323C119.7 24.6453 119.68 24.6573 119.662 24.6703L119.499 24.4136C119.481 24.4267 119.462 24.4386 119.443 24.4517L119.28 24.1949C119.263 24.208 119.243 24.221 119.225 24.233L119.062 23.9763C119.044 23.9893 119.025 24.0024 119.006 24.0143L118.843 23.7576C118.826 23.7707 118.806 23.7837 118.788 23.7957L118.624 23.5389C118.607 23.552 118.588 23.565 118.569 23.577L118.406 23.3203C118.388 23.3339 118.37 23.3467 118.35 23.3583L118.187 23.1016C118.17 23.1155 118.151 23.1282 118.132 23.1397L117.969 22.8829C117.951 22.8969 117.933 22.9096 117.913 22.921L117.75 22.6653C117.733 22.6784 117.714 22.6904 117.695 22.7023L117.532 22.4467C117.514 22.4597 117.496 22.4717 117.476 22.4837L117.313 22.228C117.296 22.2411 117.277 22.253 117.258 22.265L117.094 22.0093C117.077 22.0224 117.059 22.0344 117.039 22.0463L116.876 21.7907C116.858 21.8037 116.84 21.8157 116.82 21.8277L116.657 21.572C116.64 21.5851 116.621 21.597 116.602 21.609L116.439 21.3533C116.421 21.3664 116.403 21.3784 116.383 21.3903C116.329 21.3055 116.274 21.2195 116.22 21.1347L116.166 21.1727L116.003 20.916C115.985 20.9291 115.966 20.941 115.947 20.9541L115.784 20.6973C115.767 20.7104 115.747 20.7224 115.729 20.7354L115.565 20.4787C115.548 20.4917 115.528 20.5048 115.51 20.5167L115.347 20.26C115.329 20.2731 115.31 20.2861 115.291 20.2981L115.128 20.0413C115.111 20.0544 115.091 20.0674 115.073 20.0794L114.91 19.8227C114.892 19.8357 114.873 19.8488 114.854 19.8607L114.691 19.604C114.674 19.6179 114.655 19.6306 114.636 19.6421L114.473 19.3853C114.455 19.3993 114.436 19.412 114.417 19.4234L114.254 19.1667C114.236 19.1806 114.218 19.1933 114.199 19.2047L114.035 18.9491C114.018 18.9621 113.999 18.9741 113.98 18.9861L113.817 18.7304C113.799 18.7435 113.781 18.7554 113.761 18.7674L113.598 18.5117C113.581 18.5248 113.562 18.5368 113.543 18.5487L113.38 18.2931C113.362 18.3061 113.344 18.3181 113.324 18.3301L113.161 18.0744C113.144 18.0875 113.125 18.0994 113.106 18.1114L112.942 17.8557C112.925 17.8688 112.907 17.8808 112.887 17.8927L112.724 17.6371L112.67 17.6751C112.614 17.5892 112.561 17.5033 112.505 17.4184C112.489 17.4315 112.469 17.4434 112.451 17.4565L112.288 17.1997C112.27 17.2128 112.251 17.2248 112.232 17.2378L112.069 16.9811C112.052 16.9941 112.032 17.0072 112.014 17.0191L111.851 16.7624C111.833 16.7754 111.814 16.7885 111.795 16.8005L111.632 16.5437C111.615 16.5568 111.595 16.5698 111.577 16.5818L111.414 16.3251C111.396 16.3381 111.377 16.3512 111.358 16.3631L111.195 16.1064C111.177 16.1203 111.159 16.133 111.139 16.1445L110.976 15.8877C110.959 15.9016 110.94 15.9144 110.921 15.9258L110.758 15.6691C110.698 15.7158 110.619 15.7496 110.581 15.8094L109.084 18.1462C109.084 18.1049 109.084 18.0624 109.084 18.0211H108.867C108.867 17.9482 108.867 17.8753 108.867 17.8035H108.649C108.649 17.7306 108.649 17.6577 108.649 17.5859H108.432C108.432 17.513 108.432 17.4402 108.432 17.3684H108.214C108.214 17.2955 108.214 17.2226 108.214 17.1508H107.997C107.997 17.0779 107.997 17.005 107.997 16.9332H107.779C107.779 16.8603 107.779 16.7874 107.779 16.7156H107.562C107.562 16.6427 107.562 16.5698 107.562 16.498H107.344C107.344 16.4251 107.344 16.3523 107.344 16.2805H107.127C107.127 16.2076 107.127 16.1347 107.127 16.0629H106.909C106.909 15.99 106.909 15.9171 106.909 15.8453H106.692C106.692 15.7724 106.692 15.7006 106.692 15.6277H106.474C106.474 15.5548 106.474 15.4819 106.474 15.4101H106.257C106.257 15.3372 106.257 15.2644 106.257 15.1926H106.039C106.039 15.1197 106.039 15.0468 106.039 14.975H105.822C105.822 14.9021 105.822 14.8292 105.822 14.7574H105.604C105.604 14.6845 105.604 14.6116 105.604 14.5398H105.387C105.387 14.4669 105.387 14.394 105.387 14.3222H105.169C105.169 14.2493 105.169 14.1765 105.169 14.1047H104.952C104.952 14.0318 104.952 13.9589 104.952 13.8871H104.734C104.734 13.8142 104.734 13.7413 104.734 13.6695H104.517C104.517 13.5966 104.517 13.5237 104.517 13.4519H104.299C104.299 13.379 104.299 13.3061 104.299 13.2343H104.082C104.082 13.1614 104.082 13.0886 104.082 13.0167H103.864C103.864 12.9439 103.864 12.871 103.864 12.7992H103.647C103.647 12.7263 103.647 12.6534 103.647 12.5816H100.267C100.267 12.6545 100.267 12.7274 100.267 12.7992C100.267 12.7263 100.267 12.6534 100.267 12.5816H93.416C93.4079 12.6291 93.4024 12.6771 93.3997 12.7252C93.3997 14.0829 93.3997 15.4406 93.3997 16.7983C93.4044 16.8604 93.4128 16.9221 93.4247 16.9832H93.6182V17.017C93.623 17.079 93.6313 17.1408 93.6432 17.2019H93.8368V17.2356C93.8416 17.2977 93.8499 17.3595 93.8618 17.4206H94.0554V17.4532C94.0601 17.5157 94.0684 17.5778 94.0804 17.6392H94.274V17.6719C94.2781 17.7344 94.2865 17.7965 94.299 17.8579H94.4926V17.8905C94.4967 17.9531 94.505 18.0152 94.5176 18.0766H94.7111V18.1092C94.7153 18.1717 94.7236 18.2339 94.7361 18.2952H94.8623V18.5814C94.8623 19.2667 94.8721 19.9521 94.8775 20.6375L94.8764 22.81V24.2722V25.7332C94.8764 26.2206 94.8764 26.7076 94.8764 27.1943L94.883 29.3929C94.8775 29.4571 94.8677 29.5213 94.8677 29.5866C94.8677 31.0008 94.8677 32.4032 94.8677 33.812C94.8694 34.0308 94.8887 34.249 94.9254 34.4647C95.0678 35.2402 95.4609 35.9473 96.0444 36.4773C96.1169 36.5535 96.1894 36.626 96.2619 36.6949C96.3344 36.7638 96.4069 36.8364 96.4794 36.9125C96.5519 36.985 96.6244 37.0576 96.6968 37.1301C96.7664 37.2051 96.8404 37.278 96.9143 37.3477C96.9883 37.4173 97.0568 37.4956 97.1318 37.5652C97.2069 37.6349 97.2743 37.7132 97.3493 37.7828C97.4244 37.8525 97.4918 37.9308 97.5668 38.0004C97.6419 38.07 97.7093 38.1484 97.7843 38.218C97.8593 38.2876 97.9268 38.367 98.0018 38.4356C98.0768 38.5041 98.1443 38.5846 98.2193 38.6531C98.2943 38.7217 98.3618 38.8022 98.4368 38.8707C98.5118 38.9393 98.5792 39.0198 98.6543 39.0883C98.7293 39.1568 98.7967 39.2373 98.8718 39.3059C98.9468 39.3744 99.0142 39.4549 99.0893 39.5235C99.1643 39.592 99.2317 39.6725 99.3068 39.741C99.3818 39.8096 99.4503 39.8901 99.5243 39.9586C99.5982 40.0272 99.6678 40.1077 99.7417 40.1762C99.8157 40.2447 99.8853 40.3253 99.9592 40.3938C100.033 40.4623 100.103 40.5428 100.177 40.6114C100.251 40.6799 100.32 40.7593 100.394 40.8289C100.468 40.8986 100.538 40.9769 100.612 41.0465C100.686 41.1162 100.754 41.1945 100.829 41.2641C100.904 41.3337 100.972 41.4121 101.047 41.4817C101.122 41.5513 101.189 41.6307 101.264 41.6993C101.339 41.7678 101.407 41.8483 101.482 41.9169C101.557 41.9854 101.624 42.0659 101.699 42.1344C101.774 42.203 101.842 42.2835 101.917 42.352C101.992 42.4205 102.059 42.5011 102.134 42.5696C102.209 42.6381 102.277 42.7186 102.352 42.7872C102.427 42.8557 102.494 42.9362 102.569 43.0048C102.644 43.0733 102.712 43.1538 102.787 43.2223C102.862 43.2909 102.929 43.3714 103.004 43.4399C103.079 43.5084 103.148 43.589 103.222 43.6575C103.296 43.726 103.365 43.8065 103.439 43.8751C103.513 43.9436 103.583 44.0241 103.657 44.0927C103.731 44.1612 103.8 44.2406 103.874 44.3102C103.948 44.3799 104.018 44.4582 104.092 44.5278C104.166 44.5974 104.234 44.6758 104.309 44.7454C104.384 44.815 104.452 44.8933 104.527 44.963C104.602 45.0326 104.669 45.1109 104.744 45.1806C104.819 45.2502 104.887 45.3296 104.962 45.3981C105.037 45.4667 105.104 45.5472 105.179 45.6157C105.254 45.6843 105.322 45.7648 105.397 45.8333C105.472 45.9018 105.539 45.9823 105.614 46.0509C105.689 46.1194 105.757 46.1999 105.832 46.2685C105.907 46.337 105.974 46.4175 106.049 46.486C106.124 46.5546 106.192 46.6351 106.267 46.7036C106.342 46.7722 106.409 46.8527 106.484 46.9212C106.559 46.9897 106.628 47.0702 106.702 47.1388C106.775 47.2073 106.845 47.2878 106.919 47.3564C106.993 47.4249 107.063 47.5054 107.137 47.5739C107.21 47.6425 107.28 47.7219 107.354 47.7915C107.428 47.8611 107.498 47.9395 107.571 48.0091C107.645 48.0787 107.715 48.1571 107.789 48.2267C107.863 48.2963 107.931 48.3746 108.006 48.4443C108.082 48.5139 108.149 48.5922 108.224 48.6618C108.299 48.7315 108.366 48.8109 108.441 48.8794C108.517 48.948 108.584 49.0285 108.659 49.097C108.734 49.1655 108.801 49.246 108.876 49.3146C108.951 49.3831 109.019 49.4636 109.094 49.5322C109.169 49.6007 109.236 49.6812 109.311 49.7497C109.386 49.8183 109.454 49.8988 109.529 49.9673C109.604 50.0359 109.671 50.1164 109.746 50.1849C109.821 50.2534 109.889 50.3339 109.964 50.4025C110.039 50.471 110.107 50.5515 110.181 50.6201C110.255 50.6886 110.325 50.7691 110.399 50.8376C110.473 50.9062 110.542 50.9867 110.616 51.0552C110.69 51.1238 110.76 51.2043 110.834 51.2728C110.908 51.3413 110.977 51.4208 111.051 51.4904C111.125 51.56 111.195 51.6383 111.269 51.708C111.343 51.7776 111.411 51.8559 111.486 51.9255C111.561 51.9952 111.629 52.0735 111.704 52.1431C111.779 52.2127 111.846 52.2911 111.921 52.3607C111.996 52.4303 112.064 52.5097 112.139 52.5783C112.214 52.6468 112.281 52.7273 112.356 52.7959C112.431 52.8644 112.499 52.9449 112.574 53.0134C112.649 53.082 112.716 53.1625 112.791 53.231C112.866 53.2996 112.934 53.3801 113.009 53.4486C113.084 53.5171 113.151 53.5976 113.226 53.6662C113.301 53.7347 113.369 53.8152 113.444 53.8838C113.519 53.9523 113.586 54.0328 113.661 54.1013C113.736 54.1699 113.805 54.2504 113.879 54.3189C113.953 54.3875 114.022 54.468 114.096 54.5365C114.17 54.605 114.24 54.6856 114.314 54.7541C114.388 54.8226 114.457 54.9031 114.531 54.9717C114.605 55.0402 114.675 55.1196 114.749 55.1892C114.823 55.2589 114.891 55.3372 114.966 55.4068C115.041 55.4765 115.109 55.5548 115.184 55.6244C115.259 55.694 115.326 55.7724 115.401 55.842C115.476 55.9116 115.544 55.991 115.619 56.0596C115.694 56.1281 115.761 56.2086 115.836 56.2771C115.911 56.3457 115.979 56.4262 116.054 56.4947C116.129 56.5633 116.196 56.6438 116.271 56.7123C116.346 56.7808 116.414 56.8614 116.489 56.9299C116.564 56.9984 116.631 57.0789 116.706 57.1475C116.781 57.216 116.849 57.2965 116.924 57.3651C116.999 57.4336 117.066 57.5141 117.141 57.5826C117.216 57.6512 117.285 57.7317 117.359 57.8002C117.433 57.8687 117.502 57.9493 117.576 58.0178C117.65 58.0863 117.72 58.1668 117.794 58.2354C118.485 58.986 119.476 59.456 120.488 59.4168C120.73 59.4083 120.971 59.3854 121.21 59.3483C122.04 59.1852 122.787 58.7372 123.322 58.0817C123.857 57.4261 124.146 56.6043 124.139 55.7582C124.148 54.3733 124.139 52.9884 124.139 51.6024C124.135 51.5226 124.127 51.4431 124.114 51.3642C124.145 51.2863 124.166 51.2048 124.177 51.1216C124.177 50.392 124.177 49.6627 124.177 48.9338L124.206 48.9632C124.277 49.0372 124.35 49.109 124.424 49.1808C124.498 49.2526 124.567 49.3265 124.641 49.3983C124.715 49.4702 124.785 49.5452 124.859 49.6159C124.933 49.6866 125.002 49.7628 125.076 49.8335C125.15 49.9042 125.22 49.9804 125.294 50.0511C125.368 50.1218 125.437 50.198 125.511 50.2687C125.585 50.3394 125.655 50.4155 125.729 50.4863C125.803 50.557 125.872 50.6331 125.946 50.7038C126.02 50.7745 126.09 50.8507 126.164 50.9214C126.238 50.9921 126.307 51.0683 126.381 51.139C126.455 51.2097 126.525 51.2859 126.599 51.3566C126.673 51.4273 126.742 51.5034 126.816 51.5742C126.89 51.6449 126.961 51.721 127.034 51.7917C127.107 51.8624 127.178 51.9386 127.251 52.0093C127.324 52.08 127.396 52.1562 127.469 52.2269C127.542 52.2976 127.612 52.3738 127.686 52.4445C127.76 52.5152 127.83 52.5913 127.904 52.6621C127.978 52.7328 128.047 52.8078 128.121 52.8796C128.195 52.9514 128.265 53.0265 128.339 53.0972C128.748 53.5475 129.215 53.9401 129.73 54.2645C130.64 54.8533 131.706 55.1533 132.79 55.1251C132.829 55.1319 132.869 55.1355 132.909 55.1359C135.403 54.988 137.189 53.7859 138.192 51.498C138.847 50.0032 138.725 48.4638 138.3 46.9321Z" fill="#FFA5A9"/>
</g>
<path d="M103.53 12.5576C103.53 13.2855 103.542 14.0122 103.545 14.74C103.547 15.4678 103.545 16.1923 103.545 16.9582H102.082L100.125 16.9332L100.173 12.5576H103.53Z" fill="#05303D"/>
<path d="M94.7679 16.9593H93.3335C93.3219 16.8982 93.3139 16.8364 93.3096 16.7744C93.3096 15.4167 93.3096 14.059 93.3096 12.7013C93.3123 12.6531 93.3178 12.6052 93.3259 12.5576H96.6796C96.6796 13.7057 96.6796 14.8528 96.6796 15.9987C96.6872 16.0839 96.7021 16.1684 96.7242 16.2511L96.6785 16.9332C96.5905 16.9332 96.5013 16.943 96.4132 16.9441L94.7679 16.9593Z" fill="#0A789A"/>
<path d="M100.177 12.5576L100.128 16.9332L98.4229 16.9615V16.9375V12.5576H100.177Z" fill="#08475D"/>
<path d="M98.427 12.5576C98.427 14.0176 98.427 15.4776 98.427 16.9375H96.6816C96.6969 16.7102 96.7132 16.4828 96.7284 16.2554C96.7284 15.0225 96.7284 13.7913 96.7284 12.562L98.427 12.5576Z" fill="#0A617D"/>
<path d="M96.7252 12.5576C96.7252 13.7906 96.7252 15.0217 96.7252 16.2511C96.7026 16.1685 96.6877 16.084 96.6807 15.9987C96.6807 14.852 96.6807 13.705 96.6807 12.5576H96.7252Z" fill="#0A789A"/>
<path d="M110.629 33.0439C109.546 33.072 108.479 32.7725 107.568 32.1845C105.667 30.9595 104.73 29.2037 104.78 26.9365C104.813 25.447 105.26 23.996 106.07 22.7459C107.539 20.4286 109.012 18.1147 110.489 15.804C110.541 15.7479 110.601 15.7005 110.668 15.6636C110.648 15.7396 110.635 15.8171 110.628 15.8954C110.628 18.8479 110.628 21.8001 110.628 24.752H109.883V26.2337H108.446V27.686H109.902V29.158H110.628L110.629 33.0439Z" fill="#FE4A4A"/>
<path d="M110.63 33.0439V29.134H111.37V27.6762H112.805V26.2163H111.349V24.7661H110.625V24.752C110.625 21.8001 110.625 18.8479 110.625 15.8954C110.631 15.8171 110.645 15.7396 110.664 15.6636C112.015 17.785 113.367 19.9054 114.721 22.0246C115.294 22.9178 115.848 23.8175 116.134 24.8531C116.56 26.3849 116.678 27.9243 116.026 29.4223C115.021 31.7069 113.236 32.9123 110.743 33.0603C110.705 33.0582 110.667 33.0528 110.63 33.0439Z" fill="#C30148"/>
<path d="M102.054 20.6201C102.085 20.6984 102.105 20.7803 102.116 20.8638C102.116 23.6241 102.116 26.3841 102.116 29.1438C102.105 29.227 102.084 29.3084 102.053 29.3864H100.748L98.426 29.4005C98.4287 29.3898 98.4287 29.3786 98.426 29.3679V24.2787V24.2591H99.1405V22.8242H98.4271V22.8013C98.4271 22.0761 98.4271 21.3537 98.4271 20.6342C98.4298 20.6231 98.4298 20.6116 98.4271 20.6005C98.5152 20.6005 98.6033 20.6146 98.6914 20.6146L102.054 20.6201Z" fill="#DBE8EA"/>
<path d="M98.4283 37.4401C96.746 37.5043 95.1224 36.164 94.8331 34.4636C94.7956 34.248 94.7759 34.0297 94.7744 33.8109C94.769 32.3966 94.7744 30.9943 94.7744 29.5855C94.7744 29.5202 94.7842 29.456 94.7896 29.3918C95.4203 29.3918 96.0522 29.3918 96.6829 29.3918C97.2647 29.3918 97.8476 29.382 98.4294 29.3766C98.4321 29.3873 98.4321 29.3985 98.4294 29.4092C98.4286 32.0847 98.4283 34.7617 98.4283 37.4401Z" fill="#FE4A4B"/>
<path d="M98.4282 37.4401C98.4282 34.7617 98.4282 32.0833 98.4282 29.4049L100.75 29.3907H102.055C102.068 29.47 102.076 29.5499 102.08 29.6301C102.08 31.015 102.088 32.3999 102.08 33.7848C102.086 34.6308 101.797 35.4525 101.263 36.108C100.728 36.7635 99.9812 37.2116 99.1514 37.3749C98.9118 37.4104 98.6703 37.4322 98.4282 37.4401Z" fill="#C30048"/>
<path d="M98.4271 29.3723C97.8453 29.3723 97.2625 29.3842 96.6807 29.3875C96.0499 29.3875 95.4181 29.3875 94.7874 29.3875C94.7874 28.655 94.7849 27.9221 94.7798 27.1888H97.679V25.7332H94.782V24.2722L98.4271 24.2787V29.3723Z" fill="#F5F8F9"/>
<path d="M96.6775 16.9332H98.4228V16.9571V20.5962C98.4256 20.6073 98.4256 20.6188 98.4228 20.6299C98.3347 20.6245 98.2456 20.6136 98.1575 20.6136H94.7864C94.7864 19.9282 94.7755 19.2428 94.7722 18.5575C94.7722 18.0244 94.7722 17.4924 94.7722 16.9593L96.4154 16.9441C96.5013 16.943 96.5894 16.9376 96.6775 16.9332Z" fill="#FC4B4B"/>
<path d="M98.426 20.6005V16.9615L100.131 16.9332L102.089 16.9582C102.089 18.0831 102.089 19.2073 102.089 20.3307C102.089 20.4265 102.073 20.5222 102.065 20.6179L98.699 20.6125C98.6022 20.6147 98.5141 20.6049 98.426 20.6005Z" fill="#C20048"/>
<path d="M94.7861 20.6136H98.1573C98.2454 20.6136 98.3345 20.6244 98.4226 20.6299C98.4226 21.3551 98.4226 22.0775 98.4226 22.797L94.7742 22.8057L94.7861 20.6136Z" fill="#F6F8F9"/>
<path d="M94.7798 22.81L98.4282 22.8013V22.8242C98.4282 23.3028 98.4282 23.7811 98.4282 24.2591V24.2787L94.7831 24.2722L94.7798 22.81Z" fill="#01EDCE"/>
<path d="M94.782 25.7332H97.679V27.1943H94.7798L94.782 25.7332Z" fill="#01EDCE"/>
<path d="M110.628 29.1579H109.902V27.686H108.446V26.2337H109.883V24.7519H110.626V24.7661V29.1373L110.628 29.1579Z" fill="#F6F8F9"/>
<path d="M110.628 29.134V24.7628H111.353V26.213H112.807V27.6762H111.369V29.134H110.628Z" fill="#DBE9EB"/>
<path d="M98.4248 24.2591C98.4248 23.7804 98.4248 23.3021 98.4248 22.8242H99.1382V24.2591H98.4248Z" fill="#01B5BC"/>
<defs>
<filter id="filter0_dddddd_204_1321" x="0" y="0" width="209.98" height="230" filterUnits="userSpaceOnUse" color-interpolation-filters="sRGB">
<feFlood flood-opacity="0" result="BackgroundImageFix"/>
<feColorMatrix in="SourceAlpha" type="matrix" values="0 0 0 0 0 0 0 0 0 0 0 0 0 0 0 0 0 0 127 0" result="hardAlpha"/>
<feOffset dy="2.76726"/>
<feGaussianBlur stdDeviation="1.1069"/>
<feColorMatrix type="matrix" values="0 0 0 0 0 0 0 0 0 0 0 0 0 0 0 0 0 0 0.0196802 0"/>
<feBlend mode="normal" in2="BackgroundImageFix" result="effect1_dropShadow_204_1321"/>
<feColorMatrix in="SourceAlpha" type="matrix" values="0 0 0 0 0 0 0 0 0 0 0 0 0 0 0 0 0 0 127 0" result="hardAlpha"/>
<feOffset dy="6.6501"/>
<feGaussianBlur stdDeviation="2.66004"/>
<feColorMatrix type="matrix" values="0 0 0 0 0 0 0 0 0 0 0 0 0 0 0 0 0 0 0.0282725 0"/>
<feBlend mode="normal" in2="effect1_dropShadow_204_1321" result="effect2_dropShadow_204_1321"/>
<feColorMatrix in="SourceAlpha" type="matrix" values="0 0 0 0 0 0 0 0 0 0 0 0 0 0 0 0 0 0 127 0" result="hardAlpha"/>
<feOffset dy="12.5216"/>
<feGaussianBlur stdDeviation="5.00862"/>
<feColorMatrix type="matrix" values="0 0 0 0 0 0 0 0 0 0 0 0 0 0 0 0 0 0 0.035 0"/>
<feBlend mode="normal" in2="effect2_dropShadow_204_1321" result="effect3_dropShadow_204_1321"/>
<feColorMatrix in="SourceAlpha" type="matrix" values="0 0 0 0 0 0 0 0 0 0 0 0 0 0 0 0 0 0 127 0" result="hardAlpha"/>
<feOffset dy="22.3363"/>
<feGaussianBlur stdDeviation="8.93452"/>
<feColorMatrix type="matrix" values="0 0 0 0 0 0 0 0 0 0 0 0 0 0 0 0 0 0 0.0417275 0"/>
<feBlend mode="normal" in2="effect3_dropShadow_204_1321" result="effect4_dropShadow_204_1321"/>
<feColorMatrix in="SourceAlpha" type="matrix" values="0 0 0 0 0 0 0 0 0 0 0 0 0 0 0 0 0 0 127 0" result="hardAlpha"/>
<feOffset dy="41.7776"/>
<feGaussianBlur stdDeviation="16.711"/>
<feColorMatrix type="matrix" values="0 0 0 0 0 0 0 0 0 0 0 0 0 0 0 0 0 0 0.0503198 0"/>
<feBlend mode="normal" in2="effect4_dropShadow_204_1321" result="effect5_dropShadow_204_1321"/>
<feColorMatrix in="SourceAlpha" type="matrix" values="0 0 0 0 0 0 0 0 0 0 0 0 0 0 0 0 0 0 127 0" result="hardAlpha"/>
<feOffset dy="100"/>
<feGaussianBlur stdDeviation="40"/>
<feColorMatrix type="matrix" values="0 0 0 0 0 0 0 0 0 0 0 0 0 0 0 0 0 0 0.07 0"/>
<feBlend mode="normal" in2="effect5_dropShadow_204_1321" result="effect6_dropShadow_204_1321"/>
<feBlend mode="normal" in="SourceGraphic" in2="effect6_dropShadow_204_1321" result="shape"/>
</filter>
</defs>
</svg>
